<svg version="1.1" id="Layer_1" xmlns="http://www.w3.org/2000/svg" xmlns:xlink="http://www.w3.org/1999/xlink" x="0px" y="0px"
	 viewBox="0 0 370 291.9" style="enable-background:new 0 0 370 291.9;" xml:space="preserve">
<style type="text/css">
	.st0{fill-rule:evenodd;clip-rule:evenodd;fill:#A9CDFF;}
	.st1{fill:#8FC048;}
	.st2{fill:#ABCAEB;}
	.st3{fill:#962623;}
	.st4{fill:#480E00;}
	.st5{fill:#411819;}
	.st6{fill:#2F50BA;}
	.st7{fill:#F9FAFB;}
	.st8{fill:#142884;}
</style>
<path class="st0" d="M179.8,121.6c18.3,2.8,30.7,18.9,45.5,30.1c13.5,10.3,29.3,18,37.6,32.8c8.8,15.5,14.3,34.1,10,51.3
	c-21.1,84-2.4,14-32.7,39c-11.6,9.5-24.8,15.8-39.1,20.2c-14.5,4.4-29.8,10.1-44.1,5.3c-14.2-4.8-20.4-20.6-31.2-30.9
	c-12.3-11.7-31.2-17.7-36.6-33.8c-5.6-16.6,2.3-34.3,8.2-50.7c6.4-17.7,12.3-36.8,27.3-48.2C140.1,124.7,160.6,118.7,179.8,121.6z"
	/>
<path class="st1" d="M255.1,291.9h169.2c4.1-5.4,6.5-32.9,3-38.5c-3.5-5.6-10-5.7-15.8-5.4c0-3-0.9-5.9-2.4-8.3
	c-1.5-2.4-3.6-4.2-6-5.1c-2.4-0.9-5-0.8-7.4,0.1c-2.4,0.9-4.5,2.7-6.1,5c0.6-6.7-0.9-13.5-4.1-19.1c-3.2-5.6-8-9.8-13.6-11.8
	c-5.6-2-11.5-1.7-16.9,0.8c-5.4,2.5-9.9,7.2-12.7,13.1c-1.5-2.8-3.6-5-6.1-6.3c-2.5-1.3-5.4-1.7-8.1-1.2c-2.8,0.6-5.3,2.1-7.3,4.4
	c-2,2.3-3.3,5.2-3.9,8.4c-2.1-4.2-5-7.9-8.5-10.7c-3.5-2.8-7.4-4.7-11.6-5.5c-9-1.7-16.8,3-24.8,6.7c-8.8,3.5-16.3,10.6-20.9,20
	c-2.4,5.2-3.3,11.1-2.8,16.9c0.5,5.8,2.6,31.4,5.8,35.8L255.1,291.9z"/>
<path class="st1" d="M76,235.3c-0.8-1.6-2.1-3-3.7-3.8c-1.5-0.8-8.2-3.2-9.5-1.1c1-1.5,1.4-3.3,1.3-5c-0.1-1.8-0.8-3.5-2-4.8
	c-1.2-1.2-2.8-2-4.6-2.2c-1.7-0.2-3.5,0.2-5,1.1c1.9-4.2-1.5-9.8-5.3-11.8c-4.4-2.4-10.7-1-14.5,2c-0.8-1.5-2-2.8-3.5-3.8
	c-1.4-1-3.1-1.6-4.8-1.8c-2.7-0.3-5.4,0.3-7.7,1.7c-2.3,1.4-4.1,3.5-5.1,6c-2.1-2-4.8-3.3-7.7-3.7c-7.2-0.9-13.8,3.6-14.8,10
	c-0.3,1.6-0.2,3.2,0.3,4.8c-1,0.1-2,0.3-2.9,0.6c-2.2,0.8-4.3,2-5.9,3.7c-1.7,1.7-2.9,3.7-3.7,5.9c-0.4,1.3-0.2,2.7,0.3,4
	c-5.5,0-10.4,2-11.7,8.2c-2.4,10.9,9.5,46.7,18.4,45.4c2.3-0.4,4.5-1.1,6.5-2.1c1.8,1.3,3.8,2.2,6,2.6c2.2,0.4,4.4,0.2,6.5-0.4
	c4.8,3.2,11,4.1,15.7,1.2c2.8,2.8,6.2,4.8,10,5.8c2.8,0.7,5.8,0.9,8.7,0.4c2.9-0.5,5.6-1.6,8-3.3l0.8,0.5c6.8,4,36.5-21.9,35.3-36.8
	c-0.1-2.7-0.9-5.3-2.5-7.5c-0.7-0.8-4.4-4-5.7-2.8c1.2-1.1,2.1-2.4,2.7-3.9c0.6-1.5,1-3,1-4.6C76.9,238.2,76.6,236.7,76,235.3z"/>
<path class="st2" d="M99,43.9c0,0-75.8,0-75-0.2c-4.6-0.1-9-3.4-10.3-7.9c-1.3-4.5,0.7-9.7,4.5-12.2c3.7-2.4,9.4-1.3,13,1.3
	c0.2,0.2,0.6,0,0.6-0.3c1.2-8.8,8.9-16.9,17.8-16.9c8.2,0.1,15,8.1,16.9,16.3c0.1,0.7,1,0.8,1.3,0.2c1.6-3,5.1-5.9,7.9-6
	c3.7,0,7.2,2.2,9.4,5.1c2.1,2.7,3.2,6,4,9.4c0.1,0.4,0.5,0.5,0.8,0.3c2.8-2.3,7.4-2,9.8,0.7C102.3,36.8,101.7,42,99,43.9z"/>
<path class="st2" d="M125,119.9c0,0-75.8,0-75-0.2c-4.6-0.1-9-3.4-10.3-7.9c-1.3-4.5,0.7-9.7,4.5-12.2c3.7-2.4,9.4-1.3,13,1.3
	c0.2,0.2,0.6,0,0.6-0.3c1.2-8.8,8.9-16.9,17.8-16.9c8.2,0.1,15,8.1,16.9,16.3c0.1,0.7,1,0.8,1.3,0.2c1.6-3,5.1-5.9,7.9-6
	c3.7,0,7.2,2.2,9.4,5.1c2.1,2.7,3.2,6,4,9.4c0.1,0.4,0.5,0.5,0.8,0.3c2.8-2.3,7.4-2,9.8,0.7C128.3,112.8,127.7,118,125,119.9z"/>
<path class="st2" d="M342,37.9c0,0-75.8,0-75-0.2c-4.6-0.1-9-3.4-10.3-7.9c-1.3-4.5,0.7-9.7,4.5-12.2c3.7-2.4,9.4-1.3,13,1.3
	c0.2,0.2,0.6,0,0.6-0.3c1.2-8.8,8.9-16.9,17.8-16.9c8.2,0.1,15,8.1,16.9,16.3c0.1,0.7,1,0.8,1.3,0.2c1.6-3,5.1-5.9,7.9-6
	c3.7,0,7.2,2.2,9.4,5.1c2.1,2.7,3.2,6,4,9.4c0.1,0.4,0.5,0.5,0.8,0.3c2.8-2.3,7.4-2,9.8,0.7C345.3,30.8,344.7,36,342,37.9z"/>
<path class="st3" d="M337.9,153.1c0,0.2,0,0.4,0,0.6c0,0.2-0.1,0.4-0.3,0.6c-0.1,0.2-0.3,0.3-0.5,0.4c-0.2,0.1-0.4,0.2-0.6,0.2
	l-7.7,0.9c-0.2,0-0.4,0-0.6-0.1c-0.2-0.1-0.4-0.2-0.6-0.3c-0.2-0.1-0.3-0.3-0.4-0.5c-0.1-0.2-0.1-0.4-0.1-0.6l-0.2-5.1v-0.3
	c0-0.5,0.1-0.9,0.4-1.3c0.3-0.3,0.7-0.6,1.2-0.6l6.5-0.7c0.5-0.1,0.9,0.1,1.3,0.3c0.4,0.3,0.6,0.7,0.7,1.1l0.1,0.3L337.9,153.1z"/>
<path class="st4" d="M326.3,136.3l-0.6,0.1l2,10.3l0.6-0.1L326.3,136.3z"/>
<path class="st4" d="M328.4,136l-0.6,0.1l2.5,11.6l0.6-0.1L328.4,136z"/>
<path class="st4" d="M331.6,135.4l-0.6,0.1l1.6,13.1l0.6-0.1L331.6,135.4z"/>
<path class="st4" d="M334.5,135.5l-0.6,0l0.7,12.5l0.6,0L334.5,135.5z"/>
<path class="st5" d="M337,148.1l-10.1,1.1V149c0-0.5,0.1-0.9,0.4-1.3c0.3-0.3,0.7-0.6,1.2-0.6l6.5-0.7c0.5-0.1,0.9,0.1,1.3,0.3
	c0.4,0.3,0.6,0.7,0.7,1.1L337,148.1z"/>
<path class="st6" d="M357.2,84.7c-3.2-12.6-13.2-21.1-26.8-22.5c-0.8-0.1-1.7-0.2-2.6-0.2c-1.9-0.1-3.8,0-5.7,0.1
	c-0.5,0-1,0-1.4,0.1c-2.5,0.2-5.1,0.6-7.6,1.2l-0.4,0.1c-5.5,1.7-10.5,4.9-14.3,9.3c-4,4.8-6.5,12.1-6.6,19
	c-0.3,16.2,12.6,27,22,34.9l1.6,1.4c3.6,3,6.7,6.4,9.4,10.1c0.1,0.2,0.3,0.3,0.5,0.4c0.1,0,0.2,0.1,0.3,0.1h0.1l8.8-0.8
	c0.2,0,0.4-0.1,0.5-0.2c0.1-0.1,0.3-0.3,0.3-0.4c1.8-4.3,4.2-8.4,7-12.1l1.2-1.6C351.1,113.7,361.2,100.5,357.2,84.7z"/>
<path class="st7" d="M333.5,136.9l-1.8,0.2l-2.8,0.3l-1.9,0.2c-5.9-12.2-18.4-21.5-24.1-30c-2.7-4.1-4.3-8.9-4.7-13.8
	c-0.4-4.9,0.5-9.8,2.6-14.3c2.1-4.5,5.1-8.6,8.8-11.9c1.2-1.1,2.5-2.1,3.9-3.1c2.4-0.6,4.8-1,7.3-1.3l1.4-0.1
	c1.9-0.1,3.8-0.1,5.6-0.1c0.8,0,1.7,0.1,2.5,0.2c0.9,0.3,1.9,0.7,2.7,1.1c4.4,2.3,8.3,5.5,11.5,9.4c3.3,4.2,5.5,9.1,6.4,14.3
	C353.8,106,337.2,120.1,333.5,136.9z"/>
<path class="st6" d="M338.2,99.4c-1,8.7-4.3,17.3-5.8,25.5c-0.8,4-1,8-0.8,12.1l-2.8,0.3c-0.6-3.2-1.5-6.4-2.7-9.4
	c-5.4-13.1-9.6-17.7-12.9-26.8c-3.5-9.4-4.3-17.9-0.8-27c1.6-4.4,4.5-8.2,8.3-10.9l1.4-0.1c4.3,2.2,7.8,6,10.1,9
	C340.1,82,338.6,95.7,338.2,99.4z"/>
<path class="st6" d="M328.7,137.5v-0.2c-0.6-3.2-1.5-6.4-2.7-9.4c-2.1-5.2-4.6-10.2-7.3-15.1c-2.2-3.7-4-7.6-5.6-11.7
	c-3.8-10.3-4-18.6-0.8-27.2c1.6-4.4,4.6-8.3,8.4-11h0.1c0.5-0.1,1-0.1,1.4-0.1c4,2.3,7.4,5.3,10.2,9c5.2,6.6,7.2,16.2,5.9,27.6
	c-0.7,5.1-1.8,10-3.2,14.9c-1,3.7-1.9,7.2-2.5,10.6c-0.8,4-1,8-0.8,12v0.2L328.7,137.5z M320.9,63.4c-3.8,2.7-6.6,6.5-8.3,10.8
	c-3.2,8.4-2.9,16.7,0.8,26.9c1.5,4,3.4,7.9,5.5,11.6c2.8,4.9,5.2,10,7.4,15.2c1.2,3,2.1,6.1,2.7,9.3l2.4-0.2c-0.3-4,0-8,0.8-11.9
	c0.6-3.5,1.6-7.2,2.5-10.6c1.4-4.9,2.5-9.9,3.2-14.9c1.3-11.2-0.7-20.7-5.8-27.3c-2.7-3.6-6.1-6.7-10-8.9
	C321.9,63.3,321.4,63.3,320.9,63.4z"/>
<path class="st3" d="M337.1,145.2l-11.1,1.3l0.3,2.3l11.1-1.3L337.1,145.2z"/>
<path class="st8" d="M357,87.8l-0.1-0.1c0,0-0.1-0.1-0.1-0.1c0,0-0.1,0-0.1,0c0,0-0.1,0-0.1,0c0,0-0.1,0-0.1,0.1c0,0,0,0.1,0,0.1
	s0,0.1,0,0.1c0.1,0.2,0.1,0.5,0,0.7c-0.1,0.2-0.2,0.5-0.4,0.6c-0.4,0.3-1,0.5-1.5,0.5c-1.2,0.1-2.4,0-3.5-0.2c-0.1,0-0.2,0-0.3,0
	c-0.1,0-0.2,0.1-0.2,0.2c-0.4,0.9-1.1,1.7-2,2.2c-1,0.5-2,0.8-3.1,0.8c-1.1,0.1-2.2,0-3.3-0.2c-1.1-0.2-2.2-0.4-3.2-0.8
	c-0.1,0-0.2,0-0.2,0c-0.1,0-0.2,0.1-0.2,0.1c-0.9,0.8-1.9,1.5-3,2c-1.1,0.6-2.2,1.1-3.3,1.6c-2.3,0.9-4.7,1.6-7.2,1.9
	c-2.4,0.4-4.9,0.5-7.3,0.2c-1.2-0.1-2.4-0.4-3.6-0.7c-1.2-0.3-2.3-0.8-3.3-1.4h-0.1c-0.1,0-0.1-0.1-0.2-0.1s-0.2,0-0.2,0.1
	c-1,0.5-2.1,1-3.2,1.4c-1.1,0.4-2.2,0.7-3.3,0.9c-1.1,0.2-2.2,0.2-3.3,0c-0.5-0.1-1-0.3-1.4-0.6c-0.4-0.3-0.8-0.7-1-1.1
	c-0.1-0.1-0.2-0.2-0.3-0.3c-0.1,0-0.3,0-0.4,0c-0.9,0.5-1.9,0.8-2.9,1c-0.4,0.1-0.9,0.1-1.3-0.1c-0.3-0.1-0.5-0.6-0.4-1
	c0-0.1,0-0.1,0-0.1s-0.1-0.1-0.1-0.1c-0.1,0-0.1,0-0.2,0c-0.1,0-0.1,0.1-0.2,0.1v0.1c-0.2,0.3-0.3,0.6-0.2,1c0,0.2,0.1,0.4,0.2,0.6
	s0.3,0.3,0.4,0.4c0.6,0.4,1.3,0.5,2,0.4c0.9-0.1,1.8-0.4,2.6-0.9c0.2,0.5,0.5,0.9,0.9,1.3c0.6,0.5,1.3,0.9,2,1
	c1.3,0.3,2.7,0.3,4.1-0.1c0.6-0.1,1.2-0.3,1.8-0.5c0.6-0.2,1.2-0.5,1.7-0.7c1-0.5,1.9-1.1,2.8-1.8c2,1.6,4.4,2.7,6.9,3.1
	c1.3,0.2,2.7,0.4,4,0.4c1.3,0,2.7-0.1,4-0.3c2.6-0.4,5.2-1.2,7.6-2.4c1.2-0.6,2.3-1.3,3.4-2c0.9-0.7,1.8-1.5,2.6-2.4
	c1,0.5,2,1,3.1,1.2c1.2,0.3,2.4,0.4,3.6,0.4c1.3,0,2.6-0.4,3.7-1.2c0.5-0.3,0.9-0.7,1.3-1.2c0.3-0.5,0.6-1,0.7-1.6
	c0.5,0.2,1,0.3,1.5,0.4c0.7,0.1,1.4,0.2,2,0.1c0.8,0,1.6-0.4,2.2-0.9c0.3-0.3,0.5-0.8,0.5-1.3C357.5,88.4,357.3,88.1,357,87.8z"/>
</svg>
