<svg width="100%" height="75" viewBox="0 0 88 75" fill="none" xmlns="http://www.w3.org/2000/svg">
<path d="M57.7204 57.8002C60.792 60.1486 64.3217 61.8134 68.0771 62.6848C70.3033 63.1733 75.9415 64.37 77.9015 63.0756C78.5335 62.6628 79.0567 62.1013 79.426 61.4393C80.5391 59.3633 81.023 56.8233 78.4823 55.6022C77.6159 55.196 76.6275 55.1435 75.7237 55.4556C75.1281 55.6356 74.5028 55.6938 73.8846 55.6266C72.0292 55.3748 70.1936 54.9913 68.3917 54.4787C65.8833 53.763 63.4516 52.7977 61.1323 51.5969C60.2059 51.3685 59.2288 51.4909 58.3859 51.9411C57.543 52.3912 56.8929 53.1377 56.5589 54.0391C56.3918 54.7133 56.4118 55.4208 56.6167 56.0842C56.8216 56.7476 57.2034 57.3413 57.7204 57.8002Z" fill="white" stroke="#E2E3E4" stroke-linecap="round" stroke-linejoin="round"/>
<path d="M47.5814 63.9793C50.0175 66.9671 53.0415 69.4121 56.462 71.1596C58.5189 72.1854 63.7214 74.7253 65.8992 73.9438C66.6241 73.712 67.2753 73.2907 67.7867 72.7227C69.3595 70.9886 70.4485 68.6685 68.2706 66.8612C67.543 66.2457 66.603 65.947 65.6573 66.0308C65.0304 66.0688 64.4029 65.9688 63.8182 65.7377C62.073 65.0553 60.3823 64.2388 58.7608 63.2954C56.4859 61.9824 54.346 60.4443 52.3726 58.7039C51.5331 58.2485 50.556 58.1238 49.6306 58.3539C48.7052 58.584 47.8974 59.1526 47.3636 59.9495C47.0168 60.5727 46.8531 61.2827 46.8916 61.9964C46.9302 62.7101 47.1695 63.3979 47.5814 63.9793Z" fill="white" stroke="#E2E3E4" stroke-linecap="round" stroke-linejoin="round"/>
<path d="M55.4216 64.7853C74.78 58.7284 79.0872 43.3909 72.9409 29.7385C66.4801 15.4023 52.0581 5.9995 38.604 10.2002C25.15 14.4009 18.5681 30.4223 21.3025 45.9308C23.9159 60.7311 36.1117 70.8666 55.4216 64.7853Z" fill="white" stroke="#E2E3E4" stroke-linecap="round" stroke-linejoin="round"/>
<path d="M61.2774 39.7519C61.142 40.431 60.8312 41.0619 60.3766 41.5809C59.9219 42.0998 59.3395 42.4883 58.6882 42.707C57.9596 42.979 57.1769 43.0699 56.4061 42.9721C55.6354 42.8744 54.8993 42.5908 54.26 42.1453" stroke="#D22E1B" stroke-width="1.11" stroke-linecap="round" stroke-linejoin="round"/>
<path d="M65.8267 38.0665C67.6175 38.0665 69.0693 36.6013 69.0693 34.7938C69.0693 32.9864 67.6175 31.5212 65.8267 31.5212C64.0359 31.5212 62.5842 32.9864 62.5842 34.7938C62.5842 36.6013 64.0359 38.0665 65.8267 38.0665Z" fill="#432211"/>
<path d="M64.4957 34.9405C64.9902 34.9405 65.391 34.536 65.391 34.0369C65.391 33.5378 64.9902 33.1332 64.4957 33.1332C64.0012 33.1332 63.6003 33.5378 63.6003 34.0369C63.6003 34.536 64.0012 34.9405 64.4957 34.9405Z" fill="white"/>
<path d="M45.8151 44.5388C47.7128 44.5388 49.2512 42.9861 49.2512 41.0707C49.2512 39.1554 47.7128 37.6027 45.8151 37.6027C43.9173 37.6027 42.3789 39.1554 42.3789 41.0707C42.3789 42.9861 43.9173 44.5388 45.8151 44.5388Z" fill="#432211"/>
<path d="M44.3873 41.217C44.9085 41.217 45.3311 40.7906 45.3311 40.2645C45.3311 39.7384 44.9085 39.312 44.3873 39.312C43.8661 39.312 43.4436 39.7384 43.4436 40.2645C43.4436 40.7906 43.8661 41.217 44.3873 41.217Z" fill="white"/>
<path d="M5.04139 28.7615C8.01774 26.9542 11.9862 27.4671 14.3334 25.5865C22.9479 18.6993 20.9878 7.68462 37.0311 2.65352C53.4373 -2.49969 59.8498 10.249 68.0771 8.02653V8.27078C70.8114 8.02655 71.7309 6.24369 76.9093 5.34005C78.1792 5.11043 79.4837 5.16598 80.73 5.50275C81.9762 5.83952 83.1337 6.44925 84.1201 7.28859C85.1065 8.12792 85.8975 9.17625 86.4371 10.3591C86.9766 11.5419 87.2514 12.8301 87.2418 14.1322C87.081 16.4074 86.1364 18.5541 84.5719 20.2002C83.0073 21.8462 80.9214 22.8877 78.6757 23.1443C75.288 23.8037 71.2954 23.2664 65.1733 20.2624L67.2059 11.6655C63.1891 17.1363 52.421 23.877 44.8228 26.5146C37.2247 29.1523 24.5691 30.1048 18.2051 28.1754L24.9321 33.817C22.9102 38.1388 19.4387 41.5993 15.1319 43.5862C13.2015 44.7191 10.9422 45.1436 8.73714 44.7875C6.53206 44.4314 4.5168 43.3167 3.03296 41.6324C2.17207 40.72 1.53093 39.6197 1.15918 38.417C0.787437 37.2142 0.695062 35.9411 0.889276 34.6965C1.08349 33.452 1.55906 32.2692 2.2791 31.24C2.99914 30.2108 3.94432 29.3627 5.04139 28.7615Z" fill="#28B6EB" stroke="#00A0DC" stroke-linecap="round" stroke-linejoin="round"/>
<path d="M22.7543 21.1659C21.3025 23.4372 18.8101 23.022 15.6401 24.8049C14.57 25.3762 13.6374 26.1781 12.9087 27.1539C12.18 28.1297 11.673 29.2553 11.4236 30.451C11.1742 31.6467 11.1885 32.8831 11.4656 34.0726C11.7426 35.2621 12.2756 36.3755 13.0267 37.3337C15.4465 40.8506 20.2861 42.2183 25.4887 39.776C30.3283 37.6268 36.1842 33.2796 38.725 20.7751" fill="#28B6EB"/>
<path d="M22.7543 21.1659C21.3025 23.4372 18.8101 23.022 15.6401 24.8049C14.57 25.3762 13.6374 26.1781 12.9087 27.1539C12.18 28.1297 11.673 29.2553 11.4236 30.451C11.1742 31.6467 11.1885 32.8831 11.4656 34.0726C11.7426 35.2621 12.2756 36.3755 13.0267 37.3337C15.4465 40.8506 20.2861 42.2183 25.4887 39.776C30.3283 37.6268 36.1842 33.2796 38.725 20.7751" stroke="#00A0DC" stroke-linecap="round" stroke-linejoin="round"/>
<path d="M59.4867 9.2723C62.0517 10.0294 64.6893 7.41616 68.319 7.04982C69.603 6.93533 70.8966 7.09681 72.1143 7.52358C73.332 7.95036 74.4463 8.63275 75.3837 9.52579C76.3211 10.4188 77.0603 11.5022 77.5527 12.7046C78.0451 13.907 78.2794 15.201 78.2402 16.5014C78.4338 21.1906 74.9734 24.9517 69.5047 26.1485C66.7348 26.7951 63.8638 26.8688 61.0649 26.3651C58.266 25.8614 55.5972 24.7908 53.2195 23.2177" fill="#28B6EB"/>
<path d="M59.4867 9.2723C62.0517 10.0294 64.6893 7.41616 68.319 7.04982C69.603 6.93533 70.8966 7.09681 72.1143 7.52358C73.332 7.95036 74.4463 8.63275 75.3837 9.52579C76.3211 10.4188 77.0603 11.5022 77.5527 12.7046C78.0451 13.907 78.2794 15.201 78.2402 16.5014C78.4338 21.1906 74.9734 24.9517 69.5047 26.1485C66.7348 26.7951 63.8638 26.8688 61.0649 26.3651C58.266 25.8614 55.5972 24.7908 53.2195 23.2177" stroke="#00A0DC" stroke-linecap="round" stroke-linejoin="round"/>
<path d="M48.1863 10.9572C50.0011 12.5935 53.9454 13.7414 56.1716 17.7712C56.8487 18.9417 57.2677 20.2459 57.4 21.5947C57.5324 22.9436 57.3751 24.3054 56.9387 25.5872C56.5023 26.8691 55.7972 28.041 54.8714 29.0229C53.9456 30.0047 52.8209 30.7736 51.574 31.277C48.9361 32.7387 45.8532 33.1558 42.927 32.4468C40.0008 31.7378 37.4415 29.9537 35.7485 27.4426C34.0245 24.4205 33.3197 20.915 33.7401 17.4537" fill="#28B6EB"/>
<path d="M48.1863 10.9572C50.0011 12.5935 53.9454 13.7414 56.1716 17.7712C56.8487 18.9417 57.2677 20.2459 57.4 21.5947C57.5324 22.9436 57.3751 24.3054 56.9387 25.5872C56.5023 26.8691 55.7972 28.041 54.8714 29.0229C53.9456 30.0047 52.8209 30.7736 51.574 31.277C48.9361 32.7387 45.8532 33.1558 42.927 32.4468C40.0008 31.7378 37.4415 29.9537 35.7485 27.4426C34.0245 24.4205 33.3197 20.915 33.7401 17.4537" stroke="#00A0DC" stroke-linecap="round" stroke-linejoin="round"/>
<g opacity="0.69">
<g opacity="0.69">
<path opacity="0.69" d="M72.9409 34.3544C72.2825 34.1946 71.5964 34.1911 70.9365 34.3441C70.2765 34.497 69.6607 34.8024 69.1374 35.2361C68.6141 35.6699 68.1976 36.2201 67.9205 36.8437C67.6435 37.4673 67.5134 38.1472 67.5406 38.8301C67.5679 39.513 67.7516 40.1802 68.0774 40.7793C68.4032 41.3784 68.8622 41.8932 69.4183 42.283C69.9744 42.6729 70.6126 42.9274 71.2825 43.0264C71.9525 43.1253 72.6361 43.0662 73.2796 42.8535C73.7813 42.6768 74.2482 42.4122 74.6589 42.072C74.5349 39.4182 73.9535 36.8066 72.9409 34.3544Z" fill="url(#paint0_radial_4321_34241)"/>
</g>
</g>
<path opacity="0.69" d="M46.081 54.4299C48.5 54.4299 50.4609 52.4507 50.4609 50.0093C50.4609 47.5679 48.5 45.5888 46.081 45.5888C43.6621 45.5888 41.7012 47.5679 41.7012 50.0093C41.7012 52.4507 43.6621 54.4299 46.081 54.4299Z" fill="url(#paint1_radial_4321_34241)"/>
<path d="M35.5549 59.6566C37.5172 60.8221 39.6921 61.5763 41.9497 61.8743C44.2073 62.1722 46.5012 62.0077 48.6944 61.3906C57.5993 59.1681 56.3894 52.2321 53.534 50.9865C49.5897 49.3013 48.5735 52.9159 44.9438 53.4288C43.3194 53.3917 41.7433 52.8643 40.4187 51.9146" fill="white"/>
<path d="M35.5549 59.6566C37.5172 60.8221 39.6921 61.5763 41.9497 61.8743C44.2073 62.1722 46.5012 62.0077 48.6944 61.3906C57.5993 59.1681 56.3894 52.2321 53.534 50.9865C49.5897 49.3013 48.5735 52.9159 44.9438 53.4288C43.3194 53.3917 41.7433 52.8643 40.4187 51.9146" stroke="#E2E3E4" stroke-linecap="round" stroke-linejoin="round"/>
<path d="M75.7236 37.8957C75.8802 39.0708 75.8802 40.2618 75.7236 41.437C73.1828 43.0733 69.5531 41.6324 68.077 45.1004C66.9881 47.6892 69.7709 52.4273 76.8125 49.8629C77.8123 49.5024 78.6781 48.8405 79.2927 47.9668C79.9073 47.0931 80.241 46.0498 80.2486 44.9783C80.2486 40.8997 75.7236 37.8957 75.7236 37.8957Z" fill="white" stroke="#E2E3E4" stroke-linecap="round" stroke-linejoin="round"/>
<defs>
<radialGradient id="paint0_radial_4321_34241" cx="0" cy="0" r="1" gradientUnits="userSpaceOnUse" gradientTransform="translate(-19858.2 -4448.01) rotate(-18.4285) scale(11.5479 14.3094)">
<stop stop-color="#F8D1DE"/>
<stop offset="0.1" stop-color="#F8D1DE" stop-opacity="0.98"/>
<stop offset="0.22" stop-color="#F8D1DF" stop-opacity="0.91"/>
<stop offset="0.37" stop-color="#F8D2E0" stop-opacity="0.8"/>
<stop offset="0.52" stop-color="#F8D3E1" stop-opacity="0.65"/>
<stop offset="0.69" stop-color="#F9D4E3" stop-opacity="0.45"/>
<stop offset="0.86" stop-color="#F9D5E5" stop-opacity="0.22"/>
<stop offset="1" stop-color="#F9D6E7" stop-opacity="0"/>
</radialGradient>
<radialGradient id="paint1_radial_4321_34241" cx="0" cy="0" r="1" gradientUnits="userSpaceOnUse" gradientTransform="translate(-25911.9 -2408.92) rotate(-18.4283) scale(15.8696 15.9877)">
<stop stop-color="#F8D1DE"/>
<stop offset="0.1" stop-color="#F8D1DE" stop-opacity="0.98"/>
<stop offset="0.22" stop-color="#F8D1DF" stop-opacity="0.91"/>
<stop offset="0.37" stop-color="#F8D2E0" stop-opacity="0.8"/>
<stop offset="0.52" stop-color="#F8D3E1" stop-opacity="0.65"/>
<stop offset="0.69" stop-color="#F9D4E3" stop-opacity="0.45"/>
<stop offset="0.86" stop-color="#F9D5E5" stop-opacity="0.22"/>
<stop offset="1" stop-color="#F9D6E7" stop-opacity="0"/>
</radialGradient>
</defs>
</svg>
