<svg width="293" height="244" viewBox="0 0 293 244" fill="none" xmlns="http://www.w3.org/2000/svg">
<path d="M187.854 53.4237L175.267 49.7775C173.572 49.3905 172.645 47.414 173.205 45.6853L176.851 33.0985C177.238 31.4037 179.215 30.4763 180.944 31.0365L193.53 34.6827C195.225 35.0697 196.153 37.0462 195.592 38.7749L191.946 51.3618C191.559 53.0565 189.583 53.9839 187.854 53.4237Z" fill="#FF70C8"/>
<path d="M192.571 202.151L189.883 189.368C189.543 187.636 190.83 185.944 192.528 185.431L205.311 182.744C207.043 182.404 208.735 183.691 209.248 185.389L211.936 198.172C212.275 199.904 210.988 201.595 209.29 202.108L196.507 204.796C194.775 205.136 192.911 203.883 192.571 202.151Z" fill="#FFD000"/>
<path d="M198.338 111.444L203.791 134.656C203.961 135.522 205.102 135.838 205.9 135.322L223.338 118.77C223.929 118.115 223.898 117.041 222.757 116.726L199.866 110.065C199.071 109.681 198.134 110.405 198.338 111.444Z" fill="#2475EA"/>
<path d="M264.471 97.3898L247.735 101.932C247.042 102.068 247.005 102.795 247.314 103.454L259.627 115.788C260.075 116.239 260.941 116.069 260.978 115.343L265.402 98.4663C265.68 98.052 265.164 97.2539 264.471 97.3898Z" fill="#FFD000"/>
<path d="M50.3181 64.7582L40.394 61.8487C39.0457 61.3938 38.3934 59.9029 38.6752 58.5885L41.5847 48.6644C42.0396 47.3161 43.5305 46.6638 44.8449 46.9456L54.769 49.8551C56.1173 50.31 56.7695 51.8009 56.4878 53.1153L53.5783 63.0394C53.2966 64.3537 51.6325 65.0399 50.3181 64.7582Z" fill="#2475EA"/>
<path d="M111.86 56.6412L99.3468 70.7879C98.7219 71.2702 99.2382 72.0683 99.8258 72.3128L118.366 76.05C119.093 76.0873 119.718 75.6049 119.375 74.7729L113.348 56.889C113.246 56.3694 112.485 56.1589 111.86 56.6412Z" fill="#FFD000"/>
<path d="M37.7645 240.976C41.6977 244.522 48.422 242.123 55.1496 238.825C61.8771 235.526 128.032 196.826 137.625 186.13C147.218 175.434 132.968 153.228 109.764 137.635C86.766 122.181 68.7353 121.042 61.0539 129.564C53.3726 138.086 36.0252 205.523 34.567 225.595C34.2654 232.31 34.0385 237.57 37.7645 240.976Z" fill="#FFD000"/>
<mask id="mask0_1945_7684" style="mask-type:alpha" maskUnits="userSpaceOnUse" x="34" y="124" width="107" height="119">
<path d="M37.7645 240.976C41.6977 244.522 48.422 242.123 55.1496 238.825C61.8771 235.526 128.032 196.826 137.625 186.13C147.218 175.434 132.968 153.228 109.764 137.635C86.766 122.181 68.7353 121.042 61.0539 129.564C53.3726 138.086 36.0252 205.523 34.567 225.595C34.2654 232.31 34.0385 237.57 37.7645 240.976Z" fill="#FFD000"/>
</mask>
<g mask="url(#mask0_1945_7684)">
<path d="M41.9497 156.875C41.9497 156.875 47.002 176.209 68.9844 194.74C90.9668 213.271 111.524 214.454 111.524 214.454" stroke="#FFBB00" stroke-width="14.1205" stroke-miterlimit="10" stroke-linecap="round" stroke-linejoin="round"/>
<path d="M25.1035 181.945C25.1035 181.945 30.1559 201.279 52.1383 219.81C74.1207 238.34 94.6782 239.524 94.6782 239.524" stroke="#FFBB00" stroke-width="14.1205" stroke-miterlimit="10" stroke-linecap="round" stroke-linejoin="round"/>
</g>
<path d="M111.129 142.763C127.388 155.042 140.272 172.12 136.5 181.314C132.555 190.542 111.855 190.467 88.4152 172.761C64.9759 155.056 57.536 135.471 68.0467 129.451C76.6488 124.706 94.8702 130.484 111.129 142.763Z" fill="#FFA426"/>
<path d="M112.223 174.925C112.223 174.925 134.969 155.174 173.005 166.598" stroke="#FF70C8" stroke-width="10.5904" stroke-miterlimit="10" stroke-linecap="round"/>
<path d="M79.9489 83.7673C79.9489 83.7673 53.1637 91.1808 57.1659 104.246C59.629 112.216 66.3807 111.791 76.1207 108.261C86.523 103.522 93.6024 108.133 93.5716 116.529C93.5353 126.429 83.7555 140.759 79.5109 146.628" stroke="#FF70C8" stroke-width="10.5904" stroke-miterlimit="10" stroke-linecap="round"/>
<path d="M113.578 145.161C113.578 145.161 127.028 149.537 132.458 141.457C137.887 133.377 126.19 123.261 132.268 117.571C138.208 112.089 143.772 123.948 150.849 119.682C157.753 115.449 151.18 104.867 156.767 101.253C163.29 96.9153 169.591 106.112 176.907 103.058C184.049 100.038 180.794 90.7832 180.794 90.7832" stroke="#2475EA" stroke-width="10.5904" stroke-miterlimit="10" stroke-linecap="round"/>
</svg>
