<svg width="42" height="56" viewBox="0 0 42 56" fill="none" xmlns="http://www.w3.org/2000/svg">
<path d="M10.1747 37.125C8.22467 37.125 6.64966 35.55 6.64966 33.6V12.275C6.64966 12.15 6.64967 12.025 6.67467 11.9C7.12467 7.77499 10.5747 0 20.3497 0C30.1497 0 33.5747 7.77499 34.0247 11.9C34.0497 12.025 34.0497 12.15 34.0497 12.275V25.05C34.0497 27 32.4747 28.575 30.5247 28.575C28.5747 28.575 26.9997 27 26.9997 25.05V12.5C26.7997 11.325 25.7497 7.04999 20.3497 7.04999C14.8497 7.04999 13.8747 11.45 13.6997 12.5V33.6C13.7247 35.55 12.1247 37.125 10.1747 37.125Z" fill="#898A8D"/>
<path d="M5.7996 24.375H3.7996C1.6996 24.375 0.0996094 26.6 0.0996094 28.725V49.075C0.0996094 50.875 1.3246 52.425 3.0746 52.825C8.94959 54.15 14.9996 54.825 21.0246 54.825C27.0496 54.825 32.8996 54.15 38.7746 52.825C40.5246 52.425 41.9496 50.875 41.9496 49.075V28.625C41.9496 26.5 40.1996 24.375 38.0996 24.375H36.2496H26.7496H15.1996H5.7996Z" fill="#FFBC00"/>
<path d="M23.9996 39.85C23.3246 40.4 23.0246 41.275 23.0246 42.15C23.0246 43.7 23.0246 45.8 23.0246 45.8C23.0246 46.85 22.1246 47.7 21.0246 47.75H20.7746C19.6496 47.675 18.7746 46.825 18.7746 45.8C18.7746 45.8 18.7746 43.7 18.7746 42.15C18.7746 41.275 18.4496 40.425 17.7996 39.85C16.7496 38.975 16.0746 37.6 16.0746 36.225C16.0746 33.8 18.1996 32.075 20.8246 32.05H20.9746C23.5996 32.075 25.7246 33.8 25.7246 36.225C25.7246 37.575 25.0746 38.95 23.9996 39.85Z" fill="#2475EA"/>
</svg>
