<?xml version="1.0" encoding="utf-8"?>
<svg width="27" height="23" viewBox="0 0 27 23" fill="none" xmlns="http://www.w3.org/2000/svg">
  <path d="M23.65 8.38748H2.7C1.225 8.38748 0 9.58748 0 11.0875C0 12.5625 1.2 13.7875 2.7 13.7875H23.65C25.125 13.7875 26.35 12.5875 26.35 11.0875C26.325 9.58748 25.125 8.38748 23.65 8.38748Z" style="fill: rgb(255, 255, 255);"/>
  <path d="M0.800013 9.13751C-0.249988 10.1875 -0.249988 11.8875 0.800013 12.9375L9.20002 21.3375C10.25 22.3875 11.95 22.3875 13 21.3375C14.05 20.2875 14.05 18.5875 13 17.5375L4.60001 9.13751C3.55001 8.08751 1.85001 8.08751 0.800013 9.13751Z" style="fill: rgb(255, 255, 255);"/>
  <path d="M0.800013 12.9375C1.85001 13.9875 3.55001 13.9875 4.60001 12.9375L12.95 4.5875C14 3.5375 14 1.8375 12.95 0.7875C11.9 -0.2625 10.2 -0.2625 9.15002 0.7875L0.800013 9.1375C-0.249988 10.1875 -0.249988 11.8875 0.800013 12.9375Z" style="fill: rgb(255, 255, 255);"/>
</svg>