<svg width="370" height="142" viewBox="0 0 370 142" fill="none" xmlns="http://www.w3.org/2000/svg">
<g clip-path="url(#clip0)">
<path d="M309.31 31.56L319.38 25.56C321.21 24.4599 322.685 22.8571 323.63 20.9424C324.575 19.0276 324.95 16.8817 324.71 14.76L323 0L312.37 6.47C310.479 7.61601 308.972 9.2987 308.041 11.3039C307.11 13.3091 306.796 15.546 307.14 17.73L309.31 31.56" fill="#5E9ED5"/>
<path d="M320.46 30.17L310.74 35.27C314.939 34.9609 319.139 35.8633 322.84 37.87L338.72 46.46C341.907 48.0903 345.442 48.923 349.021 48.8864C352.6 48.8498 356.117 47.9451 359.27 46.25L370 40.53L368.15 40.35C364.479 40.0104 360.888 39.0713 357.52 37.57L340.23 29.84C337.14 28.3649 333.75 27.6269 330.326 27.6842C326.903 27.7414 323.539 28.5924 320.5 30.17" fill="#5E9ED5"/>
<path d="M337.53 57.22C330.305 55.7455 323.791 51.8684 319.05 46.22L300.15 24C294.51 17.14 285.86 15.28 278.78 19L268.88 24.31L271.15 25.31C275.126 27.1576 278.477 30.1256 280.79 33.85L296.28 57.14C304.11 67.78 311.88 69.86 323.46 64.58L337.53 57.15" fill="#5E9ED5"/>
<path d="M293.5 42.1C294.414 49.0425 296.687 55.7368 300.19 61.8C304.03 65.6 308.01 67.44 312.57 67.44C314.237 67.4253 315.896 67.207 317.51 66.79C310.31 61.56 304.51 53.03 301.61 45.41C298.674 44.9966 295.887 43.8591 293.5 42.1" fill="#66B0E1"/>
<path d="M330.66 27.68C330.18 27.68 329.66 27.68 329.23 27.73C326.853 31.0802 324.175 34.2065 321.23 37.07C321.79 37.32 322.33 37.58 322.86 37.87L338.74 46.46C341.926 48.092 345.461 48.9256 349.041 48.889C352.621 48.8524 356.138 47.9468 359.29 46.25L370 40.53L368.15 40.35C364.479 40.0104 360.888 39.0713 357.52 37.57L340.23 29.84C337.254 28.4192 333.998 27.6812 330.7 27.68" fill="#FFD857"/>
<path d="M315.3 41.78C311.894 44.123 307.883 45.4322 303.75 45.55C303.034 45.5484 302.32 45.5017 301.61 45.41C304.47 53.03 310.31 61.56 317.51 66.79C319.554 66.2588 321.546 65.5425 323.46 64.65L337.53 57.22C330.305 55.7455 323.791 51.8684 319.05 46.22L315.3 41.83" fill="#A9D0EE"/>
<path d="M286.39 17.15C283.996 17.1501 281.632 17.6829 279.47 18.71C279.78 19.87 280.11 21 280.47 22.08C283.47 31.08 287.95 38.15 293.47 42.08C292.507 35.6688 292.466 29.1527 293.35 22.73C293.54 21.47 293.75 20.22 294 19C291.638 17.7787 289.019 17.1377 286.36 17.13" fill="#79BBE7"/>
<path d="M323 0L312.37 6.47C310.479 7.61601 308.972 9.2987 308.041 11.3039C307.11 13.3091 306.796 15.546 307.14 17.73V17.73C311.715 12.9664 317.57 9.62871 324 8.12L323 0Z" fill="#E890AE"/>
<path d="M294 19C293.75 20.22 293.54 21.47 293.35 22.73C292.466 29.1527 292.507 35.6688 293.47 42.08C295.857 43.8391 298.644 44.9766 301.58 45.39C301.138 44.2039 300.757 42.9956 300.44 41.77C299.13 36.4816 299.593 30.909 301.76 25.91L300.15 24C298.466 21.9281 296.372 20.2259 294 19Z" fill="#87C9EF"/>
<path d="M324 8.12C317.583 9.63865 311.742 12.9793 307.18 17.74L309.35 31.56L319.42 25.56C321.25 24.4599 322.725 22.8571 323.67 20.9424C324.615 19.0276 324.99 16.8817 324.75 14.76L324 8.12Z" fill="#EDA6C5"/>
<path d="M329.23 27.73C326.169 27.9254 323.182 28.7564 320.46 30.17L310.74 35.27C311.27 35.27 311.81 35.21 312.34 35.21C315.393 35.2129 318.413 35.8461 321.21 37.07C324.155 34.2066 326.833 31.0802 329.21 27.73" fill="#FFF196"/>
<path d="M301.79 25.93C299.623 30.929 299.159 36.5016 300.47 41.79C300.787 43.0156 301.167 44.2239 301.61 45.41C302.32 45.5017 303.034 45.5484 303.75 45.55C307.883 45.4322 311.894 44.123 315.3 41.78L301.79 25.93Z" fill="#C5E9FB"/>
<path d="M27.07 62.8C26.3471 61.9039 25.4333 61.1804 24.3954 60.6822C23.3574 60.184 22.2214 59.9236 21.07 59.92H22.38C23.7363 59.9217 25.0757 59.6189 26.2994 59.0339C27.523 58.4489 28.5997 57.5967 29.45 56.54L41.23 42C41.4494 41.73 41.5876 41.4033 41.6288 41.0578C41.67 40.7124 41.6124 40.3623 41.4627 40.0483C41.313 39.7342 41.0773 39.4691 40.7831 39.2835C40.4888 39.098 40.1479 38.9997 39.8 39H33.32C31.9812 39.0002 30.659 39.2972 29.4486 39.8695C28.2382 40.4418 27.1697 41.2753 26.32 42.31L12 59.68V31.6C12.0017 30.0212 11.4296 28.4956 10.3902 27.3072C9.35085 26.1188 7.915 25.3486 6.35003 25.14L3.52003 24.69C3.08402 24.6132 2.63643 24.6338 2.20934 24.7504C1.78226 24.867 1.38628 25.0767 1.04981 25.3644C0.713334 25.6522 0.444713 26.0108 0.263213 26.4146C0.0817135 26.8184 -0.00816514 27.2574 2.52097e-05 27.7V82.05C-0.00639984 82.4908 0.0844038 82.9276 0.265975 83.3293C0.447547 83.731 0.715423 84.0878 1.05054 84.3742C1.38567 84.6607 1.7798 84.8697 2.20489 84.9865C2.62999 85.1033 3.0756 85.125 3.51003 85.05L6.34003 84.61C9.63003 83.86 11.99 81.41 11.99 78.15V62.53L29.13 80.25C29.8569 81.138 30.7726 81.8528 31.8105 82.3423C32.8485 82.8319 33.9825 83.0839 35.13 83.08H42.19C42.5388 83.0822 42.881 82.9853 43.1767 82.8005C43.4725 82.6157 43.7097 82.3507 43.8606 82.0363C44.0115 81.7219 44.0699 81.371 44.0291 81.0247C43.9883 80.6783 43.8499 80.3507 43.63 80.08L27.07 62.8Z" fill="#669BD2"/>
<path d="M54 40.43L50.11 39.91C49.68 39.8447 49.241 39.8737 48.8234 39.995C48.4057 40.1163 48.0194 40.3269 47.6913 40.6122C47.3631 40.8976 47.1009 41.2509 46.9228 41.6477C46.7447 42.0444 46.6551 42.4751 46.66 42.91V80C46.6551 80.4349 46.7447 80.8656 46.9228 81.2624C47.1009 81.6591 47.3631 82.0124 47.6913 82.2978C48.0194 82.5832 48.4057 82.7938 48.8234 82.915C49.241 83.0363 49.68 83.0653 50.11 83L54 82.53C55.5623 82.3172 56.9945 81.5455 58.0315 80.3577C59.0685 79.17 59.6399 77.6467 59.64 76.07V46.89C59.6399 45.3133 59.0685 43.79 58.0315 42.6023C56.9945 41.4145 55.5623 40.6428 54 40.43V40.43Z" fill="#669BD2"/>
<path d="M96.65 24L93.81 24.44C92.2512 24.6608 90.8237 25.4348 89.7883 26.6208C88.7528 27.8068 88.1784 29.3256 88.17 30.9V39H76.38C74.648 39 72.9329 39.3416 71.3331 40.0054C69.7333 40.6691 68.2801 41.6419 67.0568 42.868C65.8334 44.0941 64.864 45.5495 64.2039 47.1508C63.5438 48.7522 63.206 50.468 63.21 52.2V69.94C63.21 73.4329 64.5975 76.7827 67.0674 79.2526C69.5373 81.7224 72.8871 83.11 76.38 83.11H88.57H90.44C91.4474 83.8442 92.5942 84.3649 93.81 84.64L96.65 85.08C97.0844 85.155 97.53 85.1333 97.9551 85.0165C98.3802 84.8997 98.7744 84.6907 99.1095 84.4042C99.4446 84.1178 99.7125 83.761 99.894 83.3593C100.076 82.9576 100.166 82.5208 100.16 82.08V27C100.166 26.5592 100.076 26.1224 99.894 25.7207C99.7125 25.3189 99.4446 24.9622 99.1095 24.6757C98.7744 24.3893 98.3802 24.1803 97.9551 24.0635C97.53 23.9467 97.0844 23.925 96.65 24V24ZM75.23 68.31V53.82C75.23 52.0536 75.9317 50.3597 77.1807 49.1107C78.4297 47.8617 80.1237 47.16 81.89 47.16H88.17V75H81.89C81.0129 75 80.1444 74.8267 79.3344 74.4902C78.5244 74.1536 77.7889 73.6603 77.17 73.0387C76.5512 72.4171 76.0612 71.6794 75.7283 70.8679C75.3954 70.0564 75.226 69.1871 75.23 68.31V68.31Z" fill="#669BD2"/>
<path d="M247.79 98.13L250.62 97.68C252.182 97.4715 253.616 96.7023 254.653 95.5158C255.691 94.3293 256.262 92.8062 256.26 91.23V83.06H268.05C269.78 83.06 271.492 82.7193 273.09 82.0575C274.688 81.3956 276.14 80.4255 277.363 79.2026C278.586 77.9796 279.556 76.5278 280.218 74.9299C280.879 73.3321 281.22 71.6195 281.22 69.89V52.15C281.219 50.4218 280.877 48.7108 280.214 47.1146C279.552 45.5185 278.581 44.0685 277.358 42.8474C276.136 41.6263 274.684 40.658 273.087 39.9979C271.49 39.3378 269.778 38.9987 268.05 39H255.86H254C253.05 38.1734 251.878 37.6447 250.63 37.48L247.79 37C247.356 36.925 246.91 36.9467 246.485 37.0635C246.06 37.1803 245.666 37.3893 245.331 37.6757C244.995 37.9622 244.728 38.3189 244.546 38.7207C244.364 39.1224 244.274 39.5592 244.28 40V95.12C244.272 95.5616 244.362 95.9996 244.543 96.4025C244.724 96.8055 244.991 97.1635 245.327 97.4511C245.662 97.7386 246.057 97.9485 246.482 98.0659C246.908 98.1833 247.355 98.2052 247.79 98.13V98.13ZM269.21 53.77V68.26C269.21 70.029 268.507 71.7255 267.256 72.9764C266.006 74.2273 264.309 74.93 262.54 74.93H256.26V47.11H262.54C264.307 47.11 266.002 47.8113 267.253 49.0601C268.503 50.3088 269.207 52.0027 269.21 53.77V53.77Z" fill="#669BD2"/>
<path d="M176.71 39C165.14 39 155.77 43.4 155.77 61C155.77 78.6 165.14 83 176.71 83C188.28 83 197.65 78.61 197.65 61C197.65 43.39 188.27 39 176.71 39ZM176.71 75.32C172.25 75.32 168.63 73.81 168.63 61.04C168.63 48.27 172.25 46.77 176.71 46.77C181.17 46.77 184.78 48.28 184.78 61.04C184.78 73.8 181.17 75.32 176.71 75.32Z" fill="#669BD2"/>
<path d="M220.83 39C209.27 39 199.89 43.4 199.89 61C199.89 78.6 209.27 83 220.83 83C232.39 83 241.77 78.61 241.77 61C241.77 43.39 232.4 39 220.83 39ZM220.83 75.32C216.37 75.32 212.76 73.81 212.76 61.04C212.76 48.27 216.37 46.77 220.83 46.77C225.29 46.77 228.91 48.28 228.91 61.04C228.91 73.8 225.29 75.32 220.83 75.32Z" fill="#669BD2"/>
<path d="M125.68 56.53H120.11C118.909 56.53 117.756 56.0527 116.907 55.2032C116.057 54.3537 115.58 53.2014 115.58 52C115.583 50.7119 116.096 49.4772 117.006 48.5664C117.917 47.6555 119.152 47.1426 120.44 47.14H129.73C131.514 47.1342 133.247 46.5446 134.665 45.4611C136.082 44.3777 137.106 42.86 137.58 41.14C137.76 40.47 138.06 39.03 135.58 39.03H115.9C112.628 39.0326 109.491 40.3336 107.177 42.6472C104.864 44.9609 103.563 48.098 103.56 51.37V52.37C103.586 55.63 104.896 58.7483 107.206 61.0489C109.516 63.3495 112.64 64.647 115.9 64.66H122.44C123.074 64.6587 123.702 64.7824 124.288 65.024C124.874 65.2657 125.406 65.6205 125.855 66.0682C126.303 66.5159 126.659 67.0477 126.902 67.6332C127.145 68.2186 127.27 68.8462 127.27 69.48C127.275 70.203 127.137 70.9199 126.864 71.5894C126.591 72.2589 126.189 72.8677 125.679 73.3808C125.17 73.8939 124.564 74.3012 123.896 74.5791C123.229 74.857 122.513 75 121.79 75H111.4H110.85C109.162 75.1197 107.554 75.7617 106.248 76.8368C104.941 77.912 104.002 79.367 103.56 81C103.37 81.68 103.07 83.11 105.56 83.11H126.33C129.778 83.11 133.084 81.7404 135.522 79.3024C137.96 76.8644 139.33 73.5578 139.33 70.11C139.312 66.5019 137.865 63.048 135.307 60.5032C132.75 57.9585 129.288 56.53 125.68 56.53V56.53Z" fill="#669BD2"/>
<path d="M153.52 30.86C153.52 29.2833 152.948 27.76 151.912 26.5723C150.875 25.3845 149.442 24.6128 147.88 24.4L145.05 24C144.616 23.925 144.17 23.9467 143.745 24.0635C143.32 24.1803 142.926 24.3893 142.591 24.6757C142.255 24.9622 141.988 25.3189 141.806 25.7207C141.624 26.1224 141.534 26.5592 141.54 27V82.05C141.534 82.4908 141.624 82.9276 141.806 83.3293C141.988 83.731 142.255 84.0878 142.591 84.3742C142.926 84.6607 143.32 84.8697 143.745 84.9865C144.17 85.1033 144.616 85.125 145.05 85.05L147.88 84.61C149.436 84.3833 150.86 83.6076 151.895 82.4229C152.929 81.2382 153.505 79.7226 153.52 78.15V30.86Z" fill="#669BD2"/>
<path d="M152.74 109.67H166.09V111.05H154.35V121.05H164.35V122.44H154.35V134.37H152.74V109.67Z" fill="#8C8E90"/>
<path d="M166.88 125.38C166.88 119.38 170.62 115.91 174.93 115.91C179.24 115.91 182.93 119.39 182.93 125.38C182.93 131.37 179.19 134.77 174.93 134.77C170.67 134.77 166.88 131.33 166.88 125.38ZM181.36 125.38C181.36 120.59 178.59 117.3 174.93 117.3C171.27 117.3 168.49 120.59 168.49 125.38C168.49 130.17 171.26 133.38 174.93 133.38C178.6 133.38 181.36 130.17 181.36 125.38V125.38Z" fill="#8C8E90"/>
<path d="M186.9 116.36H188.21L188.4 119.73H188.47C189.67 117.52 191.47 115.91 193.56 115.91C194.17 115.883 194.776 116.014 195.32 116.29L194.91 117.64C194.414 117.476 193.893 117.398 193.37 117.41C191.73 117.41 189.82 118.64 188.43 122.05V134.32H186.9V116.36Z" fill="#8C8E90"/>
<path d="M201.46 131L202.46 129.91C203.36 130.964 204.478 131.811 205.736 132.393C206.994 132.975 208.364 133.277 209.75 133.28C213.57 133.28 215.96 131.22 215.96 128.23C215.96 125.24 213.96 124.11 211.51 123.03L207.77 121.35C205.64 120.35 202.77 118.88 202.77 115.21C202.77 111.54 205.77 109.21 209.88 109.21C211.161 109.204 212.429 109.46 213.607 109.962C214.785 110.464 215.848 111.202 216.73 112.13L215.79 113.21C215.034 112.401 214.119 111.757 213.102 111.32C212.084 110.883 210.987 110.661 209.88 110.67C206.59 110.67 204.38 112.42 204.38 115.16C204.38 118.07 206.85 119.16 208.65 119.95L212.43 121.63C215.16 122.86 217.63 124.36 217.63 128.14C217.63 131.92 214.52 134.76 209.77 134.76C208.193 134.79 206.628 134.468 205.191 133.818C203.753 133.167 202.479 132.205 201.46 131Z" fill="#8C8E90"/>
<path d="M220.76 129.42V117.75H218V116.51L220.84 116.36L221.03 110.36H222.34V116.36H227.57V117.75H222.3V129.53C222.3 131.85 222.86 133.42 225.36 133.42C226.156 133.41 226.939 133.218 227.65 132.86L228.13 133.95C227.225 134.451 226.214 134.732 225.18 134.77C221.73 134.77 220.76 132.6 220.76 129.42Z" fill="#8C8E90"/>
<path d="M230.15 127.89V116.36H231.69V127.7C231.69 131.55 232.92 133.39 235.84 133.39C238.01 133.39 239.58 132.23 241.71 129.64V116.36H243.25V134.36H241.94L241.79 131.36H241.71C239.92 133.46 238.05 134.84 235.58 134.84C231.87 134.77 230.15 132.53 230.15 127.89Z" fill="#8C8E90"/>
<path d="M247.22 125.38C247.22 119.58 250.88 115.91 255.22 115.91C257.39 115.91 258.85 116.74 260.65 118.16L260.58 114.83V107.38H262.11V134.32H260.8L260.65 131.97H260.54C259.795 132.804 258.892 133.482 257.882 133.962C256.872 134.443 255.777 134.718 254.66 134.77C250.13 134.77 247.22 131.44 247.22 125.38ZM260.54 130.38V119.66C259.853 118.935 259.029 118.353 258.116 117.948C257.203 117.542 256.219 117.322 255.22 117.3C251.59 117.3 248.82 120.85 248.82 125.38C248.82 130.21 250.96 133.38 254.82 133.38C256.83 133.39 258.63 132.34 260.54 130.39V130.38Z" fill="#8C8E90"/>
<path d="M266 125.38C266 119.51 269.82 115.91 273.82 115.91C278.05 115.91 280.67 118.91 280.67 124.22C280.682 124.671 280.655 125.123 280.59 125.57H267.59C267.59 130.13 270.32 133.42 274.4 133.42C276.13 133.442 277.825 132.936 279.26 131.97L279.9 132.97C278.26 134.158 276.275 134.776 274.25 134.73C269.7 134.77 266 131.25 266 125.38ZM279.21 124.22C279.21 119.58 277.07 117.22 273.82 117.22C270.75 117.22 267.98 119.84 267.61 124.22H279.21Z" fill="#8C8E90"/>
<path d="M284.07 116.36H285.38L285.57 119.17H285.64C287.48 117.34 289.35 115.91 291.82 115.91C295.52 115.91 297.24 118.16 297.24 122.8V134.32H295.71V123C295.71 119.18 294.47 117.31 291.55 117.31C289.38 117.31 287.81 118.47 285.61 120.75V134.33H284.07V116.36Z" fill="#8C8E90"/>
<path d="M302.82 129.42V117.75H300V116.51L302.84 116.36L303.03 110.36H304.34V116.36H309.58V117.75H304.34V129.53C304.34 131.85 304.9 133.42 307.41 133.42C308.203 133.409 308.982 133.217 309.69 132.86L310.18 133.95C309.26 134.459 308.231 134.74 307.18 134.77C303.79 134.77 302.82 132.6 302.82 129.42Z" fill="#8C8E90"/>
<path d="M309.89 132.26L310.71 131.26C312.291 132.7 314.373 133.464 316.51 133.39C319.39 133.39 320.89 131.71 320.89 129.8C320.89 127.52 318.57 126.51 316.47 125.8C313.71 124.8 310.86 123.74 310.86 120.68C310.86 118.13 312.86 115.92 316.62 115.92C318.484 115.935 320.284 116.599 321.71 117.8L320.85 118.8C319.635 117.815 318.114 117.284 316.55 117.3C313.71 117.3 312.43 118.95 312.43 120.63C312.43 122.69 314.38 123.47 316.55 124.3C319.39 125.38 322.46 126.3 322.46 129.76C322.46 132.45 320.29 134.81 316.46 134.81C315.25 134.849 314.044 134.643 312.915 134.205C311.786 133.767 310.757 133.105 309.89 132.26V132.26Z" fill="#8C8E90"/>
<rect x="1" y="104" width="142" height="37" rx="18.5" fill="#FFD857"/>
<path d="M42.4062 127.062C42.4062 128.479 42.0469 129.74 41.3281 130.844C40.6094 131.938 39.5729 132.792 38.2188 133.406C36.8646 134.01 35.276 134.312 33.4531 134.312C31.9323 134.312 30.6562 134.208 29.625 134C28.5938 133.781 27.5208 133.406 26.4062 132.875V127.375C27.5833 127.979 28.8073 128.453 30.0781 128.797C31.349 129.13 32.5156 129.297 33.5781 129.297C34.4948 129.297 35.1667 129.141 35.5938 128.828C36.0208 128.505 36.2344 128.094 36.2344 127.594C36.2344 127.281 36.1458 127.01 35.9688 126.781C35.8021 126.542 35.526 126.302 35.1406 126.062C34.7656 125.823 33.7552 125.333 32.1094 124.594C30.6198 123.917 29.5 123.26 28.75 122.625C28.0104 121.99 27.4583 121.26 27.0938 120.438C26.7396 119.615 26.5625 118.641 26.5625 117.516C26.5625 115.411 27.3281 113.771 28.8594 112.594C30.3906 111.417 32.4948 110.828 35.1719 110.828C37.5365 110.828 39.9479 111.375 42.4062 112.469L40.5156 117.234C38.3802 116.255 36.5365 115.766 34.9844 115.766C34.1823 115.766 33.599 115.906 33.2344 116.188C32.8698 116.469 32.6875 116.818 32.6875 117.234C32.6875 117.682 32.9167 118.083 33.375 118.438C33.8438 118.792 35.1042 119.438 37.1562 120.375C39.125 121.26 40.4896 122.214 41.25 123.234C42.0208 124.245 42.4062 125.521 42.4062 127.062ZM54.25 129.484C55.0729 129.484 56.0573 129.281 57.2031 128.875V133.328C56.3802 133.682 55.5938 133.932 54.8438 134.078C54.1042 134.234 53.2344 134.312 52.2344 134.312C50.1823 134.312 48.7031 133.812 47.7969 132.812C46.8906 131.802 46.4375 130.255 46.4375 128.172V120.875H44.2969V118.391L47.0156 116.469L48.5938 112.75H52.5938V116.297H56.9375V120.875H52.5938V127.766C52.5938 128.911 53.1458 129.484 54.25 129.484ZM72.9062 134L72.1406 131.797H71.7812C71.2708 132.609 70.5573 133.234 69.6406 133.672C68.7344 134.099 67.6667 134.312 66.4375 134.312C64.4896 134.312 62.974 133.75 61.8906 132.625C60.8073 131.49 60.2656 129.891 60.2656 127.828V116.297H66.375V125.969C66.375 127.125 66.5365 128 66.8594 128.594C67.1927 129.188 67.7344 129.484 68.4844 129.484C69.5365 129.484 70.2865 129.073 70.7344 128.25C71.1823 127.417 71.4062 126.016 71.4062 124.047V116.297H77.5156V134H72.9062ZM87.2344 134.312C85.974 134.312 84.8698 133.953 83.9219 133.234C82.9844 132.516 82.2552 131.458 81.7344 130.062C81.224 128.667 80.9688 127.036 80.9688 125.172C80.9688 122.297 81.5469 120.047 82.7031 118.422C83.8594 116.797 85.4479 115.984 87.4688 115.984C88.4583 115.984 89.3229 116.182 90.0625 116.578C90.8125 116.974 91.4948 117.641 92.1094 118.578H92.2344C92.0365 117.193 91.9375 115.807 91.9375 114.422V109.688H98.0938V134H93.4844L92.1719 131.766H91.9375C90.8854 133.464 89.3177 134.312 87.2344 134.312ZM89.7344 129.484C90.7135 129.484 91.401 129.177 91.7969 128.562C92.2031 127.948 92.4219 127 92.4531 125.719V125.234C92.4531 123.672 92.2292 122.562 91.7812 121.906C91.3333 121.24 90.6302 120.906 89.6719 120.906C88.8698 120.906 88.2448 121.286 87.7969 122.047C87.3594 122.797 87.1406 123.87 87.1406 125.266C87.1406 126.641 87.3646 127.688 87.8125 128.406C88.2604 129.125 88.901 129.484 89.7344 129.484ZM100.188 116.297H106.625L109.625 126.453C109.771 126.984 109.87 127.625 109.922 128.375H110.047C110.13 127.656 110.255 127.026 110.422 126.484L113.5 116.297H119.734L112.734 135.125C111.839 137.521 110.734 139.214 109.422 140.203C108.12 141.193 106.417 141.688 104.312 141.688C103.5 141.688 102.667 141.599 101.812 141.422V136.625C102.365 136.75 102.995 136.812 103.703 136.812C104.245 136.812 104.719 136.708 105.125 136.5C105.531 136.292 105.885 135.995 106.188 135.609C106.49 135.234 106.812 134.615 107.156 133.75L100.188 116.297Z" fill="white"/>
</g>
<defs>
<clipPath id="clip0">
<rect width="369.96" height="141.44" fill="white"/>
</clipPath>
</defs>
</svg>
