<svg width="132" height="132" viewBox="0 0 132 132" fill="none" xmlns="http://www.w3.org/2000/svg">
<g clip-path="url(#clip0)">
<path d="M71.8731 74.9924C73.6378 71.3673 82.7465 71.1754 89.0971 74.003C98.1282 78.0242 103.706 89.0978 102.758 102.224C99.0674 101.169 95.5049 99.7075 92.136 97.8675C80.9531 91.75 69.433 80.005 71.8731 74.9924Z" fill="#4A4F60"/>
<path d="M89.0971 74.0029C84.9868 72.1728 79.7234 71.6096 76.0414 72.4214C77.8729 72.7301 79.6599 73.2612 81.3627 74.0029C89.7325 77.7296 95.1318 87.5153 95.1241 99.3768C97.5907 100.523 100.143 101.475 102.758 102.224C103.706 89.0977 98.1282 78.0241 89.0971 74.0029Z" fill="#3B3F4D"/>
<path d="M32.9231 74.9924C31.1584 71.3673 22.0497 71.1754 15.6991 74.003C6.66798 78.0242 1.09046 89.0978 2.03801 102.224C5.72877 101.169 9.29123 99.7075 12.6602 97.8675C23.8431 91.75 35.3632 80.005 32.9231 74.9924Z" fill="#4A4F60"/>
<path d="M84.5135 97.9506C84.5135 106.468 81.1299 114.637 75.1071 120.66C69.0842 126.683 60.9154 130.066 52.3978 130.066C43.8802 130.066 35.7114 126.683 29.6886 120.66C23.6657 114.637 20.2821 106.468 20.2821 97.9506C20.2944 96.2006 20.4366 94.4538 20.7075 92.7248C22.0697 86.113 26.1767 81.9561 31.4682 76.7391C35.0572 73.2057 38.9633 70.0096 43.1372 67.1911L43.1398 67.1885C46.1434 66.2888 49.2623 65.8328 52.3978 65.835C52.537 65.835 52.6763 65.835 52.8129 65.8401C63.3136 65.9712 64.8649 71.1427 70.6287 79.0472C73.48 82.9576 83.2039 87.5369 84.052 92.5057V92.5083C84.3603 94.306 84.5147 96.1267 84.5135 97.9506Z" fill="#FFCD85"/>
<path d="M84.052 92.5059V92.5085C84.842 97.1189 84.6158 101.846 83.3893 106.36C82.1628 110.874 79.9656 115.065 76.9512 118.642C73.9368 122.219 70.1778 125.094 65.9369 127.067C61.696 129.041 57.0754 130.064 52.3978 130.067C51.1053 130.066 49.8139 129.989 48.5306 129.835C56.9768 128.809 64.6711 124.475 69.9246 117.782C75.1782 111.089 77.5618 102.586 76.5523 94.1379C76.4904 93.5887 76.4105 93.0473 76.3177 92.5085V92.5059C75.1445 85.6978 71.808 79.4491 66.803 74.6871C61.798 69.925 55.3913 66.9031 48.5332 66.0698C55.0576 66.5567 61.3744 68.5793 66.9682 71.9726C78.0875 78.7598 82.6246 88.8779 84.052 92.5059Z" fill="#FFC166"/>
<path d="M52.8129 65.8401L47.9119 81.5151C40.4957 88.4153 30.8321 92.3972 20.7075 92.7248C21.6874 86.7982 24.3081 81.2648 28.2725 76.7517C32.2369 72.2387 37.3864 68.9266 43.1372 67.1911L43.1398 67.1885C46.1434 66.2888 49.2624 65.8328 52.3978 65.835C52.537 65.835 52.6763 65.835 52.8129 65.8401Z" fill="#595F74"/>
<path d="M130.066 34.4462C130.066 43.0691 126.641 51.3388 120.544 57.4362C114.446 63.5335 106.177 66.9589 97.5537 66.9589C88.9307 66.9589 80.661 63.5335 74.5637 57.4362C68.4664 51.3388 65.0409 43.0691 65.0409 34.4462C65.0409 33.5155 65.0796 32.5951 65.1569 31.685C65.7036 25.3044 68.1204 19.2269 72.1048 14.2134C76.0893 9.19992 81.4642 5.47331 87.5566 3.5002C87.5566 3.5002 92.5785 1.87905 97.5537 1.93347C106.219 2.02826 113.282 7.67153 117.589 11.1124C121.713 14.4075 125.798 17.6715 128.233 23.6593C129.404 27.1372 130.022 30.7769 130.066 34.4462Z" fill="#FFCD85"/>
<path d="M130.066 34.4467C130.066 38.7163 129.226 42.9442 127.592 46.8888C125.958 50.8335 123.563 54.4177 120.544 57.4368C117.525 60.4559 113.941 62.8507 109.996 64.4846C106.051 66.1185 101.823 66.9595 97.5537 66.9594C96.2613 66.9587 94.97 66.8821 93.6865 66.7299C98.4027 66.162 102.937 64.5682 106.972 62.0605C111.006 59.5529 114.443 56.1922 117.04 52.2146C119.637 48.237 121.331 43.739 122.004 39.0366C122.677 34.3342 122.312 29.5415 120.935 24.9953C120.801 24.5441 120.654 24.1006 120.499 23.6598C118.481 17.9318 114.9 12.8828 110.162 9.08394C105.423 5.28505 99.7163 2.88782 93.6865 2.16339C94.1634 2.10407 94.6404 2.06027 95.1225 2.02418C95.2617 2.01388 95.401 2.00355 95.5402 1.99582C95.7232 1.98293 95.9063 1.97517 96.0893 1.96746C96.3961 1.95201 96.7055 1.94425 97.0174 1.93652C97.0174 1.93652 97.2803 1.93239 97.5537 1.93394C105.411 1.97838 114.624 8.16682 114.624 8.16682C116.837 9.65525 118.916 11.3343 120.837 13.1847C121.883 14.7823 122.984 16.4061 124.14 18.0563C125.511 20.0086 126.875 21.8764 128.233 23.6598V23.6624C129.451 27.1272 130.071 30.774 130.066 34.4467Z" fill="#FFC166"/>
<path d="M83.2863 5.22587C86.2563 12.0063 85.2251 19.7923 80.6257 25.2141C74.8069 32.0693 66.1727 31.7393 65.1595 31.6851H65.157C65.634 26.0839 67.555 20.7021 70.7324 16.0647C73.9098 11.4274 78.2352 7.69296 83.2863 5.22587ZM128.233 23.6595V23.662C124.817 24.6237 115.276 26.828 104.254 22.886C91.1522 18.2016 84.8899 8.02829 83.2863 5.22587C87.4098 3.21482 91.912 2.09862 96.4974 1.95055C101.083 1.80247 105.648 2.62586 109.892 4.36666C114.137 6.10747 117.965 8.72633 121.126 12.0513C124.287 15.3763 126.709 19.3323 128.233 23.6595Z" fill="#595F74"/>
<path d="M128.233 23.6595V23.662C125.847 24.331 123.404 24.7773 120.935 24.9949C120.801 24.5437 120.654 24.1003 120.499 23.6595C118.481 17.9315 114.9 12.8825 110.162 9.08361C105.423 5.28472 99.7163 2.88749 93.6865 2.16306C94.1634 2.10374 94.6404 2.05994 95.1225 2.02385C95.2617 2.01355 95.401 2.00322 95.5402 1.99549C95.7232 1.9826 95.9063 1.97484 96.0893 1.96713C96.3961 1.95168 96.7055 1.94392 97.0174 1.93619C97.1953 1.93617 97.3758 1.93359 97.5537 1.93359C104.287 1.93368 110.855 4.02369 116.35 7.91519C121.846 11.8067 125.998 17.3078 128.233 23.6595Z" fill="#4A4F60"/>
<path d="M84.052 92.5057V92.5083C72.1179 96.458 59.4335 93.9314 51.3949 85.8361C44.4856 78.8777 43.3795 70.1972 43.1372 67.1911L43.1398 67.1885C47.4952 65.8831 52.078 65.5164 56.5855 66.1125C61.0931 66.7085 65.423 68.2539 69.2894 70.6465C73.1558 73.0391 76.4708 76.2245 79.0155 79.9925C81.5602 83.7605 83.2769 88.0254 84.052 92.5057Z" fill="#676E87"/>
<path d="M84.052 92.5057V92.5083C81.6174 93.3176 79.1032 93.8638 76.5522 94.1376C76.4904 93.5885 76.4104 93.047 76.3177 92.5083V92.5057C75.1445 85.6975 71.808 79.4489 66.803 74.6868C61.798 69.9247 55.3913 66.9029 48.5332 66.0696C49.1674 65.9948 49.8068 65.9364 50.4513 65.8943C50.5828 65.8865 50.7143 65.8788 50.8458 65.8736C51.1706 65.8556 51.4929 65.8452 51.8177 65.8401C52.0111 65.8375 52.2044 65.835 52.3978 65.835C52.537 65.835 52.6763 65.835 52.8129 65.8401C53.0578 65.8427 53.3027 65.8478 53.5476 65.8582C53.79 65.8659 54.0349 65.8762 54.2773 65.8917C54.5015 65.9046 54.7258 65.92 54.9502 65.9381C54.9873 65.938 55.0243 65.9406 55.061 65.9458C55.2827 65.9639 55.5019 65.9845 55.721 66.0077C55.9582 66.0309 56.1928 66.0567 56.4248 66.085C56.4336 66.0855 56.4423 66.0872 56.4506 66.0902C56.6853 66.1185 56.9173 66.1521 57.1493 66.1856C57.3865 66.2217 57.6211 66.2578 57.8557 66.299C58.0285 66.3274 58.1986 66.3583 58.3687 66.3918C58.4976 66.4125 58.6265 66.4382 58.7529 66.4666C58.8767 66.4898 59.0004 66.5155 59.1242 66.5439C59.2092 66.5594 59.2917 66.5774 59.3768 66.5981C59.5212 66.629 59.6655 66.6625 59.8073 66.696C59.9104 66.7192 60.0136 66.7424 60.1141 66.7708C60.243 66.8017 60.3719 66.8327 60.5008 66.8688C60.5705 66.8842 60.6426 66.9023 60.7123 66.9229C60.9108 66.9745 61.1067 67.0312 61.3052 67.0879C61.4883 67.1395 61.6687 67.1936 61.8518 67.2503C61.9524 67.2813 62.0503 67.3122 62.1509 67.3457C62.3004 67.3921 62.4525 67.4411 62.602 67.4927C62.626 67.4981 62.6493 67.5059 62.6717 67.5159C62.883 67.5855 63.0944 67.6577 63.3033 67.735C63.4889 67.8021 63.672 67.8691 63.855 67.9413C63.9607 67.9799 64.0638 68.0186 64.167 68.0599C64.2546 68.0934 64.3423 68.1295 64.4273 68.1655C64.5924 68.23 64.7522 68.297 64.9146 68.3666C64.9507 68.3821 64.9894 68.3976 65.0255 68.4131C65.1931 68.4853 65.3581 68.5574 65.5205 68.6296C65.5798 68.6554 65.6365 68.6812 65.6958 68.7096C65.8247 68.7689 65.9536 68.8282 66.0825 68.89C66.1959 68.9416 66.3094 68.9957 66.4229 69.0525C66.4924 69.0834 66.5594 69.1169 66.6291 69.1556C66.7502 69.2123 66.8714 69.2742 66.9926 69.3386C67.1473 69.416 67.3019 69.4959 67.4566 69.5784C67.4772 69.5872 67.497 69.5975 67.5159 69.6093C67.7041 69.7099 67.8924 69.813 68.078 69.9187C68.0948 69.9263 68.1112 69.9349 68.127 69.9445C68.3203 70.0528 68.5111 70.1636 68.7019 70.2771C68.707 70.2771 68.7122 70.2822 68.7199 70.2874C68.8798 70.3802 69.0396 70.4782 69.1994 70.5761C69.2588 70.6122 69.3181 70.6483 69.3799 70.687C69.4779 70.7488 69.5733 70.8107 69.6713 70.8726C69.7899 70.9474 69.911 71.0247 70.0271 71.1021C70.1895 71.2078 70.3519 71.3186 70.5117 71.4269C70.687 71.5481 70.8598 71.6693 71.0325 71.793C71.2207 71.9271 71.4064 72.0611 71.592 72.2004C71.7698 72.3344 71.9478 72.4685 72.1256 72.6051C72.1331 72.6133 72.1418 72.6203 72.1514 72.6257C72.3293 72.7675 72.5046 72.9068 72.6799 73.0511C72.8579 73.1955 73.0357 73.3425 73.211 73.492C73.3863 73.6416 73.5591 73.7911 73.7318 73.9458C73.9045 74.0978 74.0747 74.2525 74.2423 74.4098C74.4072 74.5619 74.5697 74.7166 74.7322 74.8739C74.7373 74.8764 74.7398 74.8816 74.745 74.8867C74.91 75.0466 75.0724 75.2064 75.2323 75.3688C75.3869 75.5261 75.5417 75.6834 75.6912 75.8432C75.7004 75.8512 75.709 75.8598 75.7169 75.869C75.8742 76.0366 76.0289 76.2016 76.181 76.3718C76.3357 76.5419 76.4904 76.7121 76.6399 76.8874C76.7765 77.0421 76.9106 77.1993 77.0421 77.3592C77.2071 77.5526 77.367 77.7511 77.5268 77.9496C77.6686 78.1301 77.8104 78.3105 77.9496 78.4936C78.0888 78.6766 78.2254 78.8597 78.3621 79.0479C78.6328 79.4191 78.8966 79.7972 79.1536 80.1822C79.267 80.3524 79.3804 80.5251 79.4913 80.7004C79.6279 80.9144 79.762 81.1335 79.896 81.3527C80.1359 81.7471 80.3662 82.1485 80.587 82.5567C80.7005 82.7603 80.8087 82.964 80.9145 83.1703C81.0227 83.3765 81.1284 83.5828 81.229 83.7916C81.4352 84.2092 81.6311 84.6295 81.8193 85.0574C81.9122 85.2714 82.005 85.4854 82.0926 85.702C82.1829 85.9185 82.268 86.1351 82.353 86.3542C82.4381 86.5708 82.5206 86.7899 82.6006 87.0116C82.6804 87.2334 82.7578 87.4551 82.8326 87.6768C82.879 87.816 82.9253 87.9578 82.9692 88.097C83.1419 88.6281 83.3017 89.167 83.4435 89.7109C83.5054 89.9404 83.5622 90.1698 83.6189 90.4019C83.7865 91.0928 83.9309 91.7967 84.052 92.5057Z" fill="#595F74"/>
<path d="M56.879 113.755C55.5458 114.625 53.9897 115.092 52.3978 115.098C52.3829 115.098 52.3675 115.098 52.3524 115.098C50.7765 115.082 49.2379 114.617 47.918 113.756C47.4896 113.474 46.9667 113.374 46.4645 113.478C45.9623 113.581 45.5218 113.88 45.2401 114.309C44.9583 114.737 44.8582 115.26 44.9619 115.762C45.0657 116.264 45.3646 116.705 45.7931 116.987C47.7347 118.265 50.0059 118.953 52.3308 118.965C52.3532 118.965 52.3753 118.965 52.3975 118.965C54.7443 118.956 57.0384 118.269 59.0039 116.987C59.4324 116.705 59.7314 116.264 59.8352 115.762C59.9389 115.26 59.8389 114.737 59.5571 114.309C59.2753 113.88 58.8348 113.581 58.3326 113.477C57.8304 113.374 57.3075 113.474 56.879 113.755V113.755ZM40.7969 100.031C40.4145 100.031 40.0406 100.145 39.7226 100.357C39.4047 100.57 39.1568 100.872 39.0105 101.225C38.8641 101.578 38.8258 101.967 38.9005 102.342C38.9751 102.717 39.1592 103.062 39.4296 103.332C39.7001 103.603 40.0446 103.787 40.4197 103.861C40.7947 103.936 41.1835 103.898 41.5368 103.751C41.8902 103.605 42.1922 103.357 42.4046 103.039C42.6171 102.721 42.7305 102.347 42.7305 101.965C42.7305 101.452 42.5268 100.96 42.1641 100.598C41.8015 100.235 41.3097 100.031 40.7969 100.031ZM89.8848 72.2363C84.5084 69.8403 77.5627 69.4756 73.4673 71.2224C69.1873 67.8412 64.1567 65.5392 58.8002 64.5107C53.4436 63.4822 47.9182 63.7574 42.6903 65.3131C42.6174 65.3303 42.5455 65.3517 42.475 65.3773C38.43 66.6157 34.6516 68.5984 31.3342 71.2235C27.2395 69.4762 20.2907 69.8404 14.912 72.2362C10.0289 74.4108 6.04462 78.4264 3.3897 83.8486C0.757708 89.2246 -0.37702 95.6264 0.108645 102.362C0.129289 102.648 0.213657 102.927 0.355602 103.177C0.497547 103.427 0.693495 103.643 0.929169 103.807C1.16484 103.972 1.43431 104.082 1.71794 104.13C2.00156 104.177 2.2922 104.161 2.56869 104.082C6.39782 102.987 10.094 101.472 13.5897 99.5646C15.1619 98.7045 16.7763 97.7113 18.3761 96.6297C18.359 97.068 18.3489 97.508 18.3489 97.9504C18.3489 116.725 33.6235 132 52.3985 132C71.1735 132 86.4481 116.725 86.4481 97.9504C86.4481 97.5081 86.4384 97.068 86.4214 96.6298C88.0199 97.7101 89.635 98.7033 91.2099 99.5647C94.7043 101.473 98.3995 102.988 102.228 104.082C102.504 104.161 102.795 104.177 103.079 104.13C103.362 104.082 103.632 103.972 103.867 103.807C104.103 103.643 104.299 103.427 104.441 103.177C104.583 102.927 104.667 102.648 104.688 102.362C105.174 95.6263 104.039 89.2246 101.407 83.8486C98.7519 78.4264 94.7676 74.4108 89.8848 72.2363ZM52.3985 67.7679C59.222 67.7767 65.8419 70.0933 71.1819 74.3411C76.522 78.5888 80.2682 84.518 81.8115 91.1647C76.8771 92.5656 71.6815 92.7812 66.6479 91.7939C61.2324 90.6949 56.4326 88.1633 52.7674 84.4728C51.5708 83.2667 50.4993 81.9426 49.5694 80.5207C49.5525 80.4925 49.533 80.4655 49.5144 80.438C47.2403 76.8627 45.7802 72.8309 45.2376 68.6285C47.5815 68.0561 49.9857 67.7672 52.3985 67.7679V67.7679ZM41.5015 69.8043C42.1034 73.7939 43.4309 77.6396 45.4184 81.151C39.1455 86.5455 31.3521 89.8588 23.1149 90.6331C24.2969 85.9468 26.5825 81.6111 29.781 77.9878C32.9794 74.3645 36.998 71.5586 41.5015 69.8042V69.8043ZM11.7346 96.1714C9.21611 97.5461 6.58396 98.7015 3.86731 99.6249C3.82754 94.4863 4.84947 89.6618 6.86313 85.5491C9.11395 80.9518 12.4411 77.5698 16.4853 75.7688C20.3119 74.0643 24.9134 73.6708 27.991 74.2418C23.3787 78.9773 20.2471 84.9549 18.9795 91.4428C16.6823 93.1925 14.261 94.7728 11.7346 96.1714ZM52.3985 128.133C48.1495 128.133 43.9483 127.237 40.0699 125.501C36.1914 123.766 32.723 121.231 29.8918 118.063C27.0606 114.895 24.9303 111.165 23.6404 107.116C22.3504 103.068 21.9299 98.7925 22.4064 94.5703C31.6628 93.9292 40.4765 90.3649 47.5764 84.3913C48.331 85.3784 49.1484 86.3159 50.0236 87.1979C54.2291 91.4325 59.7119 94.3323 65.8788 95.5837C68.1689 96.046 70.4996 96.2777 72.8359 96.2753C76.0778 96.2702 79.3052 95.8436 82.4371 95.0062C82.5313 95.9752 82.5793 96.9566 82.5809 97.9504C82.5719 105.952 79.3891 113.624 73.7307 119.283C68.0724 124.941 60.4006 128.124 52.3985 128.133ZM93.0654 96.1717C90.5397 94.7742 88.1188 93.1949 85.8219 91.4466C84.5547 84.9573 81.4231 78.9782 76.8105 74.2411C79.8877 73.6707 84.4869 74.0646 88.3112 75.7689C92.3551 77.5698 95.6825 80.9517 97.9334 85.549C99.947 89.6618 100.969 94.4861 100.929 99.6249C98.2136 98.702 95.5826 97.5467 93.0654 96.1717ZM130.099 23.1601C130.097 23.1524 130.096 23.1448 130.094 23.1372C130.07 23.0539 130.04 22.9724 130.005 22.8931C128.384 18.339 125.823 14.1771 122.488 10.6781C119.153 7.17911 115.119 4.42135 110.648 2.58423C106.177 0.747102 101.369 -0.128234 96.5374 0.0151571C91.7057 0.158548 86.9584 1.31745 82.6041 3.41649C82.5406 3.44034 82.4783 3.46749 82.4175 3.49784C82.3598 3.52692 82.3041 3.55848 82.2505 3.59251C76.5059 6.44615 71.671 10.8454 68.2893 16.2959C64.9076 21.7464 63.1132 28.0321 63.1075 34.4464C63.1075 53.4402 78.5602 68.8928 97.554 68.8928C116.548 68.8928 132 53.4402 132 34.4464C132.003 30.6044 131.361 26.7891 130.099 23.1601ZM97.554 3.86719C103.522 3.87336 109.358 5.62314 114.345 8.90146C119.331 12.1798 123.252 16.8437 125.623 22.32C118.736 23.844 111.559 23.4095 104.905 21.0657C94.8308 17.4634 88.8927 10.3481 86.0942 6.09737C89.7343 4.62091 93.6259 3.86357 97.554 3.86719ZM82.245 7.9836C83.9406 13.5661 82.8113 19.649 79.1508 23.9623C75.3935 28.3902 70.2223 29.4658 67.3428 29.7049C68.0561 25.2043 69.7637 20.9193 72.3416 17.1618C74.9195 13.4044 78.3027 10.2689 82.245 7.9836ZM97.554 65.0256C89.4467 65.0165 81.674 61.7918 75.9413 56.0591C70.2086 50.3264 66.9839 42.5537 66.9747 34.4464C66.9747 34.1666 66.9787 33.8878 66.9866 33.6099C70.4276 33.437 77.1478 32.3 82.0996 26.4646C85.1642 22.8001 86.8549 18.1815 86.8802 13.4045C91.4315 18.4997 97.178 22.3836 103.603 24.7071C113.138 28.1168 121.775 27.1812 126.942 25.9869C128.251 30.5403 128.485 35.3357 127.624 39.9948C126.764 44.654 124.833 49.0495 121.983 52.8348C119.134 56.6201 115.444 59.6916 111.204 61.8072C106.965 63.9228 102.292 65.0246 97.554 65.0257V65.0256ZM109.156 32.5129C108.773 32.5129 108.399 32.6263 108.081 32.8387C107.763 33.0512 107.515 33.3532 107.369 33.7065C107.223 34.0598 107.184 34.4486 107.259 34.8237C107.334 35.1987 107.518 35.5433 107.788 35.8137C108.059 36.0841 108.403 36.2683 108.778 36.3429C109.153 36.4175 109.542 36.3792 109.895 36.2328C110.249 36.0865 110.551 35.8387 110.763 35.5207C110.976 35.2027 111.089 34.8289 111.089 34.4464C111.089 34.1925 111.039 33.9411 110.942 33.7065C110.845 33.4719 110.702 33.2587 110.523 33.0792C110.343 32.8996 110.13 32.7572 109.895 32.66C109.661 32.5629 109.409 32.5129 109.156 32.5129V32.5129ZM64 100.031C63.6176 100.031 63.2437 100.145 62.9258 100.357C62.6078 100.57 62.36 100.872 62.2136 101.225C62.0673 101.578 62.029 101.967 62.1036 102.342C62.1782 102.717 62.3623 103.062 62.6328 103.332C62.9032 103.603 63.2477 103.787 63.6228 103.861C63.9979 103.936 64.3867 103.898 64.74 103.751C65.0933 103.605 65.3953 103.357 65.6077 103.039C65.8202 102.721 65.9336 102.347 65.9336 101.965C65.9336 101.452 65.7299 100.96 65.3673 100.598C65.0047 100.235 64.5128 100.031 64 100.031ZM102.034 48.0133C100.701 48.8833 99.1451 49.3496 97.5532 49.356C97.5384 49.356 97.523 49.356 97.5079 49.3559C95.932 49.3403 94.3934 48.8745 93.0735 48.0134C92.8613 47.8736 92.6237 47.777 92.3742 47.7291C92.1247 47.6812 91.8682 47.683 91.6194 47.7342C91.3706 47.7855 91.1343 47.8853 90.924 48.028C90.7138 48.1706 90.5337 48.3533 90.3941 48.5655C90.2545 48.7778 90.1581 49.0155 90.1104 49.265C90.0627 49.5146 90.0647 49.7711 90.1162 50.0199C90.1677 50.2686 90.2677 50.5048 90.4105 50.715C90.5533 50.9251 90.7361 51.105 90.9485 51.2444C92.8902 52.5231 95.1614 53.2105 97.4862 53.2231C97.5079 53.2232 97.5293 53.2232 97.5512 53.2232C99.8988 53.2156 102.194 52.5284 104.159 51.2445C104.587 50.9625 104.886 50.5221 104.989 50.0201C105.093 49.5182 104.993 48.9957 104.711 48.5674C104.429 48.1392 103.989 47.8403 103.487 47.7364C102.986 47.6325 102.463 47.7321 102.034 48.0133L102.034 48.0133ZM85.9524 32.5129C85.57 32.5129 85.1961 32.6263 84.8782 32.8387C84.5602 33.0512 84.3123 33.3532 84.166 33.7065C84.0196 34.0598 83.9814 34.4486 84.056 34.8237C84.1306 35.1988 84.3147 35.5433 84.5851 35.8137C84.8556 36.0841 85.2001 36.2683 85.5752 36.3429C85.9503 36.4175 86.339 36.3792 86.6924 36.2329C87.0457 36.0865 87.3477 35.8387 87.5601 35.5207C87.7726 35.2027 87.886 34.8289 87.886 34.4464C87.886 34.1925 87.836 33.9411 87.7388 33.7065C87.6416 33.4719 87.4992 33.2587 87.3197 33.0792C87.1401 32.8996 86.927 32.7572 86.6924 32.66C86.4578 32.5629 86.2063 32.5129 85.9524 32.5129Z" fill="#272A33"/>
</g>
<defs>
<clipPath id="clip0">
<rect width="132" height="132" fill="white"/>
</clipPath>
</defs>
</svg>
