<svg width="165" height="136" viewBox="0 0 165 136" fill="none" xmlns="http://www.w3.org/2000/svg">
<g clip-path="url(#clip0_7684_2929)">
<path d="M22.7 72.25C22.05 71.2 22.1 70.3 20.975 69C20 67.9 10.925 66.6 9.72499 66.6C9.54999 66.6 6.99999 65.9 6.14999 67.65C5.54999 68.875 6.47499 72.175 7.69999 72.775C6.37499 72.75 4.67499 72.2 4.39999 73.475C4.12499 74.775 4.89999 77.4 6.12499 77.925C4.74999 78.275 4.32499 79.025 5.04999 80.25C5.22499 80.55 3.32499 79.825 4.92499 82.425C6.49999 85.025 14.725 87.075 18 86.125C21.25 85.175 22.7 72.25 22.7 72.25Z" fill="#EDBC93"/>
<path d="M16.5 56.95C23.2517 56.95 28.725 51.4767 28.725 44.725C28.725 37.9733 23.2517 32.5 16.5 32.5C9.74831 32.5 4.27499 37.9733 4.27499 44.725C4.27499 51.4767 9.74831 56.95 16.5 56.95Z" fill="#ABE5FF"/>
<path d="M27.575 36.05C25.25 32.875 21.825 30.8 17.95 30.2C14.075 29.6 10.175 30.55 7.025 32.875C3.85 35.2 1.775 38.625 1.175 42.5C0.574995 46.375 1.525 50.275 3.85 53.425C5.75 56.025 8.4 57.9 11.45 58.8L11.075 64.675L16.95 65.175L17.25 59.35C23.75 58.675 29.225 53.65 30.25 46.95C30.85 43.1 29.9 39.2 27.575 36.05ZM25.575 46.25C24.75 51.675 19.625 55.425 14.2 54.6C11.575 54.2 9.25 52.775 7.675 50.65C6.1 48.5 5.45 45.875 5.85 43.225C6.25 40.6 7.675 38.275 9.8 36.7C11.525 35.45 13.575 34.775 15.675 34.775C15.95 34.775 16.225 34.775 16.5 34.8C16.725 34.825 16.95 34.85 17.2 34.875C19.825 35.275 22.15 36.7 23.725 38.825C25.325 40.975 25.975 43.625 25.575 46.25Z" fill="#FFB000"/>
<path d="M12.75 86.875L12.1 86.825C10 86.675 8.4 84.85 8.55 82.75L9.9 63.6C9.95 63 10.45 62.55 11.05 62.6L17.175 63.025C17.775 63.075 18.225 63.575 18.175 64.175L16.825 83.325C16.675 85.425 14.85 87 12.75 86.875Z" fill="#2475EA"/>
<path d="M28.15 81.825C27.5 81.275 26.575 80.75 26.175 79.975C27.05 77.3 25.9 70.875 24.675 68.5C23.45 66.125 18.875 60.3 17.35 58.825C15.825 57.35 13.95 60.8 14.7 62.825C15.45 64.85 16.775 66.85 16.35 68.475C15.925 70.075 15.35 72.8 15.075 75.85C14.975 76.95 16.275 84.95 17.975 86.125C22.4 89.15 26.8 92.2 31.2 95.225C31.625 93.425 32.05 91.625 32.475 89.85C32.775 88.6 33.075 87.325 33.35 86.075C31.625 84.65 29.875 83.25 28.15 81.825Z" fill="#F9D1AF"/>
<path d="M13 81C12.925 78.65 10.3 77.975 10.3 77.975C12.925 78.275 14.15 77.125 14.3 75.05C14.45 72.975 11.675 72.15 11.675 72.15C13.875 72.575 15.55 71.2 15.675 69.95C15.9 67.7 13.6 66.85 12.575 66.575C12.4 66.55 12.25 66.5 12.1 66.475C10.575 66.15 9.37499 65.95 8.97499 65.925C8.77499 65.925 6.17499 66.025 5.24999 67.925C4.59999 69.275 5.09999 71.15 6.47499 71.775C5.02499 71.75 3.64999 72.875 3.34999 74.275C3.04999 75.675 3.87499 77.25 5.19999 77.825C3.69999 78.225 3.27499 80.35 4.04999 81.7C4.24999 82.025 5.37499 83.125 7.97499 83.125C10.575 83.125 13.075 83.35 13 81Z" fill="#F9D1AF"/>
<path d="M152.75 56.275C152.275 54.475 151.85 52.675 151.525 50.85C151.05 48.225 150.85 47.55 150.45 45.775C150.45 45.775 149.9 43.45 149.225 41.1C148.375 38.15 145.725 29.425 141.725 24.3C132.75 12.875 118.325 7.4 104.325 5.45C100.2 4.875 95.95 4.925 91.825 5.25C85.15 5.775 78.45 7.225 72.45 10.225C69.2 11.85 66.175 13.95 63.65 16.55C62.925 17.3 62.3 18.3 61.475 18.925C61.225 19.125 60.9 19.225 60.65 19.4C59.175 20.425 57.775 21.7 56.45 22.9C51.05 27.8 46.425 33.575 42.825 39.925C40.65 43.775 38.825 47.825 37.425 52C35.625 57.4 34.575 63.6 37.35 68.575C39.375 72.2 43.1 74.525 46.75 76.525C53.9 80.45 61.35 83.825 69 86.575C76.7 89.35 84.625 91.5 92.675 93.025C94.675 93.4 96.7 93.75 98.725 94.05C100.55 94.325 102.7 94.275 104.425 94.925C106.25 95.6 108.4 95.525 110.325 95.725C112.575 95.95 114.8 96.15 117.05 96.375C121.925 96.85 126.825 97.3 131.7 97.775C137.15 98.3 142.925 98.75 147.775 96.225C153.175 93.425 156.275 87.35 156.975 81.325C157.675 75.275 156.3 69.2 154.675 63.35C154.05 61 153.35 58.65 152.75 56.275Z" fill="#6F3324"/>
<path d="M53.7 110.2C65.175 112.325 70.975 110.175 73.825 108.7C76.35 107.425 82.15 104.475 82.65 98.825C83 95.025 80.825 91.35 78.225 89.35C74.675 86.6 73.925 86.075 70 86.525C65.675 87 59.225 89.325 58.175 89.725C53.65 91.475 45.95 91.575 32 83.75C31.6 83.525 31.125 83.65 30.875 84.025C28.325 87.75 25.8 91.475 23.25 95.2C23 95.575 23.075 96.1 23.45 96.375C30.75 101.95 40.975 107.825 53.7 110.2Z" fill="#00953B"/>
<path d="M102.3 81.5C103.2 88.025 104.8 90.25 104.8 90.25C104.8 90.25 109.85 108.25 113.45 121.95C114.775 127.025 103.7 135.45 82.7 135.45C61.7 135.45 52.625 123.175 53.7 119.45C55.65 112.55 57.725 106.1 59.975 101.425C63.4 94.325 70.475 83.125 70.475 83.125C74.4 81.925 79.65 80.7 85.9 80.35C92.5 79.975 98.125 80.65 102.3 81.5Z" fill="#22A838"/>
<path d="M56.925 53.575C54.2 56.55 50.575 61.525 50.7 67.6C51 83.075 75.225 91.225 78.875 92.475C83.225 93.95 102.275 100.375 115.275 90.225C117.85 88.225 119.575 86.05 120.675 84.45C121.575 84.775 124.6 85.7 127.925 84.425C130.95 83.25 134.05 80.275 134.3 76.15C134.6 71.15 130.575 68.1 130.275 67.875C131.85 64.175 133.875 58 133.15 50.525C131.7 35.3 119.625 21.375 103.8 17.325C90.7 13.975 74.25 17.275 64.775 29.325C58.525 37.275 57.05 49.6 56.925 53.575Z" fill="#F9D1AF"/>
<path d="M101.675 68C100.775 71.25 98.075 74.225 94.875 73.575C92.625 73.125 91.5 69.975 92.35 66.55C93.2 63.125 96.125 60.525 98.35 61C101.75 61.7 102.5 64.95 101.675 68Z" fill="#3D2C22"/>
<path d="M78.325 59.525C77.425 62.775 74.725 65.75 71.525 65.1C69.275 64.65 68.15 61.5 69 58.075C69.85 54.65 72.775 52.05 75 52.525C78.4 53.2 79.175 56.475 78.325 59.525Z" fill="#3D2C22"/>
<path d="M79.275 71.225C79.2 71.225 79.125 71.2 79.075 71.175C77.8 70.475 77.05 69.125 77.175 67.75C77.325 66.1 78.675 64.75 80.4 64.55C80.625 64.525 80.85 64.7 80.875 64.925C80.9 65.15 80.725 65.375 80.5 65.4C79.175 65.55 78.15 66.575 78.05 67.825C77.95 68.875 78.525 69.9 79.5 70.425C79.7 70.55 79.775 70.8 79.675 71C79.575 71.15 79.425 71.225 79.275 71.225Z" fill="#F3A98A"/>
<path d="M98.3 66.075C98.9489 66.075 99.475 65.5489 99.475 64.9C99.475 64.251 98.9489 63.725 98.3 63.725C97.6511 63.725 97.125 64.251 97.125 64.9C97.125 65.5489 97.6511 66.075 98.3 66.075Z" fill="white"/>
<path d="M75.55 58.1C76.1989 58.1 76.725 57.5739 76.725 56.925C76.725 56.2761 76.1989 55.75 75.55 55.75C74.9011 55.75 74.375 56.2761 74.375 56.925C74.375 57.5739 74.9011 58.1 75.55 58.1Z" fill="white"/>
<path d="M67.7041 68.0593C67.8215 65.3141 65.3781 62.9803 62.2467 62.8464C59.1153 62.7125 56.4817 64.8294 56.3643 67.5745C56.247 70.3197 58.6904 72.6536 61.8218 72.7874C64.9531 72.9213 67.5868 70.8044 67.7041 68.0593Z" fill="#F5BAAB"/>
<path d="M106.933 80.562C107.051 77.8168 104.607 75.4829 101.476 75.3491C98.3447 75.2152 95.711 77.3321 95.5937 80.0772C95.4763 82.8224 97.9197 85.1562 101.051 85.2901C104.182 85.424 106.816 83.3071 106.933 80.562Z" fill="#F5BAAB"/>
<path d="M78.65 85.6C80.6658 85.6 82.3 83.2383 82.3 80.325C82.3 77.4117 80.6658 75.05 78.65 75.05C76.6342 75.05 75 77.4117 75 80.325C75 83.2383 76.6342 85.6 78.65 85.6Z" fill="#EB7487"/>
<path d="M77.95 17.6C74.55 19.025 71.25 21 67.925 22.675C66.15 23.575 64.4 24.5 62.625 25.35C62.225 25.55 61.8 25.7 61.45 25.975C61.075 26.25 60.825 26.55 60.6 26.95C59.95 27.95 59.175 28.55 58.35 29.375C56.575 31.175 55.65 33.85 56.025 36.35C56.575 40.05 59.625 43.15 63.25 44.125C66.875 45.1 70.875 44.075 73.85 41.8C75.725 46.675 79.875 50.625 84.85 52.225C89.825 53.825 95.5 53.075 99.875 50.225C100.975 55.35 105.15 59.725 110.225 61.05C115.3 62.375 121.075 60.65 124.575 56.725C124.175 57.175 124.125 58.4 124.1 58.975C124.05 59.775 124.1 60.575 124.25 61.375C124.55 62.95 125.25 64.475 126.275 65.725C127.3 67 128.65 67.725 129.875 68.775C131 69.75 132.275 70.3 133.8 70.425C134.75 70.5 135.725 70.325 136.5 69.725C139 67.75 137.625 63.475 137.3 60.875C136.725 56.4 136.15 51.9 135.55 47.425C135.025 43.35 134.5 39.275 133.975 35.2C131.65 31.35 126.1 23.35 115.8 18.275C98.05 9.52499 80.775 16.4 77.95 17.6Z" fill="#6F3324"/>
<path d="M60.4 22.6C64.4 21.075 83.8 14.2 105.55 23.425C128.15 33.025 136.55 52.875 138.05 56.65C138.375 52.7 138.9 40.3 130.85 28.275C129.575 26.4 124.05 18.475 113.35 13.25C111.75 12.475 92.5 3.49998 73.15 13.025C67.05 16.05 62.875 19.95 60.4 22.6Z" fill="#F29500"/>
<path d="M109.175 35.675C109.175 35.675 101.525 33.575 99.325 33.65C97.125 33.725 93.3 33.65 93.3 35.675C93.3 37.65 96.4 38.2 96.4 38.2C96.4 38.2 94.65 38.425 95.4 40.2C95.925 41.45 100.125 42.4 102.525 42.85C102.525 42.85 100.6 43.475 101.225 44.6C101.85 45.725 105.05 46.075 106 46.35C106.95 46.625 109.1 50.8 113.125 50.95C116.525 56.5 118.775 50.325 118.775 50.325L109.175 35.675Z" fill="#EDBC93"/>
<path d="M124.55 56.725L122.2 47.6C122.2 47.6 121.925 41.2 117.65 36.8C113.375 32.4 97.325 29.55 95.725 33.65C94.775 36.1 103.4 36.075 103.4 36.075C103.4 36.075 105.5 36.6 107.35 37.35C108.375 37.75 109.575 38.05 110.3 38.375C111.025 38.7 111.375 39.45 111.25 40C110.95 41.2 110.85 47.2 113.15 50.95L115.7 59.925L124.55 56.725Z" fill="#F9D1AF"/>
<path d="M101.975 94.425C96.375 99.475 97.275 114.25 104.025 115.675C110.75 117.1 127.175 105.925 133.125 103.1C139.075 100.275 145.7 92.85 142.075 83.35C138.875 74.975 130.925 56.65 129.1 52.45C128.9 51.975 128.35 51.8 127.9 52.05L114 59.675C113.65 59.875 113.475 60.275 113.6 60.675L120.675 84.425C120.675 84.425 107.575 89.35 101.975 94.425Z" fill="#00953B"/>
</g>
<defs>
<clipPath id="clip0_7684_2929">
<rect width="156.175" height="130.45" fill="white" transform="translate(1 5)"/>
</clipPath>
</defs>
</svg>
