<svg width="207" height="213" viewBox="0 0 207 213" fill="none" xmlns="http://www.w3.org/2000/svg">
<g style="mix-blend-mode:multiply" opacity="0.08">
<path d="M152.55 198.775C152.13 193.915 145.78 193.665 142.12 191.475C137.65 188.805 134.03 184.575 128.92 183.025C107.3 176.485 84.3099 176.605 61.7299 176.795C52.1799 176.875 42.5599 176.965 33.2099 178.905C24.6554 180.689 16.4876 183.984 9.08987 188.635C6.74914 189.937 4.72173 191.736 3.14987 193.905C1.27987 196.815 -0.470153 204.305 2.62985 206.815C4.48985 208.315 6.98986 208.665 9.35986 208.945C52.9077 214.037 96.8967 214.104 140.46 209.145C145.78 208.535 151.81 206.385 152.52 200.095C152.569 199.657 152.579 199.215 152.55 198.775Z" fill="#713D00"/>
</g>
<g clip-path="url(#clip0_750_2626)">
<path d="M49.4437 136.964C40.9337 136.754 29.3837 128.584 23.3037 121.614C18.0237 115.614 23.8737 105.934 25.9937 106.784C28.1164 107.63 30.2949 108.328 32.5137 108.874C39.7537 110.674 46.5937 110.714 52.6937 110.574" fill="#E30613"/>
<path d="M49.4437 136.964C40.9337 136.754 29.3837 128.584 23.3037 121.614C18.0237 115.614 23.8737 105.934 25.9937 106.784C28.1164 107.63 30.2949 108.328 32.5137 108.874C39.7537 110.674 46.5937 110.714 52.6937 110.574" stroke="#C00D0D" stroke-width="2" stroke-linecap="round" stroke-linejoin="round"/>
<path d="M97.7037 173.484C100.036 173.116 102.426 173.523 104.505 174.643C106.584 175.762 108.238 177.534 109.214 179.684C111.214 184.374 107.514 195.894 96.1537 200.494C90.1537 202.924 83.7637 202.884 80.3437 199.664C77.5137 197.004 77.1037 191.604 78.8137 187.544C81.7537 180.484 90.1637 174.704 97.7037 173.484Z" fill="#F59C00" stroke="#EF7D00" stroke-width="2" stroke-linecap="round" stroke-linejoin="round"/>
<path d="M109.704 182.074C108.774 187.744 101.704 193.824 93.9337 196.834C87.2437 199.484 79.3437 198.484 78.1037 194.554" stroke="#EF7D00" stroke-width="2" stroke-linecap="round" stroke-linejoin="round"/>
<path d="M119.939 59.5538C121.472 54.8486 118.976 49.8169 114.366 48.3153C109.755 46.8136 104.775 49.4106 103.243 54.1158C101.71 58.821 104.206 63.8527 108.816 65.3543C113.427 66.856 118.407 64.259 119.939 59.5538Z" fill="#FFCD1C" stroke="#F7A823" stroke-width="2" stroke-linecap="round" stroke-linejoin="round"/>
<path d="M111.948 51.3781C113.7 46.1786 110.99 40.5725 105.895 38.8564C100.8 37.1404 95.2507 39.9642 93.4993 45.1637C91.7479 50.3632 94.4581 55.9694 99.5526 57.6854C104.647 59.4015 110.197 56.5776 111.948 51.3781Z" fill="#FFCD1C" stroke="#F7A823" stroke-width="2.00489" stroke-linecap="round" stroke-linejoin="round"/>
<path d="M116.824 141.734C116.724 140.444 116.614 139.154 116.544 137.864C116.174 131.314 115.124 125.864 118.034 121.494C123.585 113.218 127.365 103.882 129.134 94.0742C132.134 76.9642 122.134 54.8642 99.3437 49.9642C79.6037 45.7242 64.5137 54.5442 56.3937 68.0842C49.5837 79.4842 51.0537 92.4142 51.0537 92.5742L60.0537 112.424C57.647 131.758 55.2337 151.091 52.8137 170.424C59.4029 174.024 66.5709 176.444 73.9937 177.574C79.3637 178.384 86.3337 179.184 94.9337 176.934C106.994 173.784 114.744 166.184 116.794 153.654C117.279 149.696 117.289 145.695 116.824 141.734Z" fill="#E30613" stroke="#C00D0D" stroke-width="2" stroke-linecap="round" stroke-linejoin="round"/>
<path d="M88.7137 170.084C84.8524 173.668 79.8875 175.833 74.6337 176.224C65.8137 177.124 55.1537 172.744 49.1737 167.874C46.8884 165.997 44.8698 163.817 43.1737 161.394C37.5137 152.334 38.8637 140.224 42.6037 130.904C45.2867 124.62 48.3766 118.517 51.8537 112.634C52.4337 111.744 52.7537 110.854 52.4837 110.314C52.0937 109.514 50.7437 107.714 50.1837 106.854C46.8337 101.744 47.5137 94.5442 50.9537 91.0742C51.1537 82.4842 55.0537 72.3842 62.4037 73.2042C67.3237 73.7442 69.9337 77.7942 70.4037 82.4142C70.7237 85.2142 70.1437 89.0942 69.3237 92.7142C67.3237 101.484 66.3237 100.764 70.6037 101.774C74.9837 102.274 72.6037 103.314 74.4737 94.5242C75.4237 90.0942 77.3137 85.1442 80.4737 82.0042C82.1639 80.2664 84.3278 79.0639 86.6962 78.5465C89.0645 78.0291 91.5328 78.2196 93.7937 79.0942C98.0337 80.5542 100.794 83.0942 101.964 87.7042C103.334 93.1742 102.294 96.7042 101.174 102.054C100.924 103.254 101.384 104.634 101.464 105.934C101.804 111.584 97.4637 116.494 96.3537 117.714L94.5737 119.714C94.1181 120.346 93.8417 121.089 93.7737 121.864C93.5437 125.634 95.2937 133.354 95.4737 134.864C96.8937 146.994 98.4137 160.914 88.7137 170.084Z" fill="white" stroke="#C00D0D" stroke-width="1.92" stroke-linecap="round" stroke-linejoin="round"/>
<path d="M95.0043 95.4164C95.5029 91.644 92.9111 88.1898 89.2154 87.7013C85.5196 87.2128 82.1193 89.8749 81.6207 93.6473C81.122 97.4197 83.7138 100.874 87.4096 101.362C91.1053 101.851 94.5056 99.1889 95.0043 95.4164Z" fill="white"/>
<path d="M88.1138 91.5612C88.247 90.5538 87.556 89.6315 86.5704 89.5012C85.5849 89.3709 84.678 90.082 84.5448 91.0895C84.4117 92.0969 85.1026 93.0192 86.0882 93.1495C87.0737 93.2798 87.9806 92.5687 88.1138 91.5612Z" fill="white"/>
<path d="M55.1137 87.2342C54.4537 90.7442 56.4037 94.0442 59.5037 94.6042C62.6037 95.1642 65.7237 92.7442 66.4037 89.1742C67.0837 85.6042 65.0537 82.3042 61.9237 81.7942C58.7937 81.2842 55.7837 83.7242 55.1137 87.2342Z" fill="#C00D0D"/>
<path d="M57.9637 84.6442C57.9115 84.855 57.9013 85.074 57.9339 85.2887C57.9664 85.5034 58.0411 85.7096 58.1535 85.8954C58.2659 86.0812 58.4139 86.243 58.589 86.3715C58.764 86.5 58.9628 86.5927 59.1737 86.6442C59.6169 86.6847 60.0588 86.5539 60.4085 86.2786C60.7582 86.0033 60.9891 85.6045 61.0537 85.1642C61.1072 84.9527 61.118 84.7326 61.0854 84.5169C61.0528 84.3012 60.9775 84.0941 60.8639 83.9079C60.7503 83.7216 60.6006 83.5599 60.4238 83.4322C60.2469 83.3045 60.0463 83.2134 59.8337 83.1642C59.3902 83.1241 58.9482 83.2566 58.5999 83.5342C58.2516 83.8117 58.0237 84.2129 57.9637 84.6542" fill="white"/>
<path d="M100.046 47.3491C101.202 41.4805 97.4781 35.8053 91.7287 34.6732C85.9794 33.5411 80.3818 37.3807 79.2262 43.2492C78.0706 49.1178 81.7945 54.7929 87.5439 55.9251C93.2932 57.0572 98.8908 53.2176 100.046 47.3491Z" fill="#FFCD1C" stroke="#F7A823" stroke-width="2" stroke-linecap="round" stroke-linejoin="round"/>
<path d="M104.454 145.584C116.404 160.344 146.934 158.214 146.924 147.734C146.924 144.814 142.654 142.164 137.524 142.054C130.524 138.334 123.104 129.324 116.444 122.804" fill="#E30613"/>
<path d="M104.454 145.584C116.404 160.344 146.934 158.214 146.924 147.734C146.924 144.814 142.654 142.164 137.524 142.054C130.524 138.334 123.104 129.324 116.444 122.804" stroke="#C00D0D" stroke-width="2" stroke-linecap="round" stroke-linejoin="round"/>
<path d="M54.3037 181.914C56.5637 178.514 56.8537 172.264 52.1737 164.394C47.0537 155.804 35.0537 149.164 26.8337 156.484C19.3437 163.134 24.8337 172.274 36.4137 180.744C43.2037 185.654 50.3737 187.794 54.3037 181.914Z" fill="#F59C00" stroke="#EF7D00" stroke-width="2" stroke-linecap="round" stroke-linejoin="round"/>
<path d="M47.8637 185.194C50.1037 184.254 49.2237 181.564 47.8637 178.884C46.3137 175.884 35.8637 165.014 31.5737 162.234C28.0437 159.944 24.0537 159.874 23.6237 162.294" stroke="#EF7D00" stroke-width="2" stroke-linecap="round" stroke-linejoin="round"/>
<path d="M75.9937 100.784C75.3737 103.704 71.7437 106.784 68.5037 106.104C65.2637 105.424 64.4637 101.164 65.0537 98.4842C65.6437 95.8042 67.4337 96.3342 70.6737 97.0342C73.9137 97.7342 76.5637 98.0842 75.9937 100.784Z" fill="#F59C00" stroke="#EF7D00" stroke-width="2" stroke-linecap="round" stroke-linejoin="round"/>
<path d="M79.3237 100.354C79.5337 98.6842 77.1137 97.3542 75.7937 97.5342C75.1937 96.5342 73.5237 93.9842 71.1837 93.5342C68.5537 92.9742 66.2537 94.8442 65.3737 95.5342C65.12 95.3804 64.8381 95.2791 64.5446 95.2361C64.2511 95.1931 63.9519 95.2094 63.6648 95.2839C63.3777 95.3585 63.1084 95.4899 62.8729 95.6703C62.6374 95.8507 62.4405 96.0764 62.2937 96.3342C61.4637 97.7242 61.9237 99.3942 63.9037 100.024C64.4737 99.9542 65.2137 99.8142 66.4437 99.5842C67.9061 99.395 69.387 99.751 70.6037 100.584C71.9861 101.471 73.4833 102.164 75.0537 102.644C76.6537 102.934 78.5637 102.644 79.2637 100.724C79.293 100.603 79.313 100.479 79.3237 100.354Z" fill="#F59C00" stroke="#EF7D00" stroke-width="2" stroke-linecap="round" stroke-linejoin="round"/>
<path d="M94.1637 92.0342C90.3846 91.938 86.6133 92.4272 82.9837 93.4842C86.3754 95.0282 89.5088 97.0857 92.2737 99.5842" stroke="#C00D0D" stroke-width="2.5" stroke-linecap="round" stroke-linejoin="round"/>
<g opacity="0.43">
<path opacity="0.43" d="M41.6637 94.0542C48.3353 94.0542 53.7437 88.6458 53.7437 81.9742C53.7437 75.3026 48.3353 69.8942 41.6637 69.8942C34.9921 69.8942 29.5837 75.3026 29.5837 81.9742C29.5837 88.6458 34.9921 94.0542 41.6637 94.0542Z" fill="#FFFBDA"/>
</g>
<path d="M46.0537 67.0642C42.3511 65.9597 38.3689 66.2835 34.8934 67.9719C31.4179 69.6603 28.7017 72.5904 27.2813 76.1837C25.8608 79.777 25.8392 83.7723 27.2208 87.3807C28.6024 90.9891 31.2867 93.9484 34.7437 95.6742L32.3237 102.674L37.0537 104.114L39.4437 97.1142C43.2783 97.6213 47.1635 96.6707 50.3307 94.4504C53.4979 92.2302 55.7164 88.9021 56.5474 85.1245C57.3783 81.3468 56.7612 77.395 54.818 74.0506C52.8748 70.7062 49.7471 68.213 46.0537 67.0642ZM52.2437 84.9142C51.6119 86.9921 50.3792 88.8364 48.7009 90.2148C47.0226 91.5931 44.9738 92.4438 42.8128 92.6597C40.6517 92.8755 38.4752 92.4469 36.5574 91.4277C34.6396 90.4085 33.0664 88.8444 32.0361 86.9326C31.0058 85.0208 30.5645 82.8467 30.7678 80.6845C30.9711 78.5223 31.8099 76.4686 33.1785 74.7823C34.5471 73.096 36.3842 71.8526 38.4583 71.2087C40.5325 70.5648 42.7508 70.5493 44.8337 71.1642C46.2264 71.5753 47.5239 72.2581 48.6514 73.1731C49.7788 74.0882 50.714 75.2174 51.4029 76.4957C52.0917 77.774 52.5207 79.176 52.665 80.6209C52.8094 82.0658 52.6662 83.5249 52.2437 84.9142Z" fill="#FFD136" stroke="#F8AA00" stroke-width="2" stroke-linecap="round" stroke-linejoin="round"/>
<path d="M37.7537 103.764C37.7061 103.675 37.6407 103.596 37.5617 103.532C37.4826 103.468 37.3914 103.422 37.2937 103.394L32.5337 101.994C32.3481 101.943 32.1498 101.964 31.9791 102.053C31.8083 102.142 31.6777 102.292 31.6137 102.474L26.7137 116.804C26.4689 117.545 26.522 118.351 26.8618 119.053C27.2015 119.755 27.8012 120.297 28.5337 120.564C29.3416 120.83 30.2216 120.77 30.9857 120.396C31.7498 120.023 32.3377 119.365 32.6237 118.564L37.7937 104.354C37.8268 104.258 37.8403 104.156 37.8335 104.055C37.8266 103.954 37.7995 103.855 37.7537 103.764Z" fill="#158CCB" stroke="#0077BA" stroke-width="2" stroke-linecap="round" stroke-linejoin="round"/>
<path d="M26.7537 105.484C21.7537 107.924 19.2037 114.574 21.3937 118.644C22.6854 117.627 24.2061 116.94 25.8237 116.644C26.8237 116.644 34.4937 116.974 36.4337 113.074C37.7737 110.384 36.2937 108.564 32.5037 106.014C31.6521 105.486 30.6892 105.163 29.6912 105.071C28.6933 104.979 27.6876 105.12 26.7537 105.484Z" fill="#E30613"/>
<path d="M25.5937 116.644H25.8237C26.8237 116.644 34.4937 116.974 36.4337 113.074C37.7737 110.384 36.2937 108.564 32.5037 106.014C31.6521 105.486 30.6892 105.163 29.6912 105.071C28.6932 104.979 27.6876 105.12 26.7537 105.484C21.7537 107.924 19.3937 115.204 22.3337 120.134" stroke="#C00D0D" stroke-width="2" stroke-linecap="round" stroke-linejoin="round"/>
</g>
<g clip-path="url(#clip1_750_2626)">
<path d="M177.81 43.8042C186.669 43.8042 193.85 36.9497 193.85 28.4942C193.85 20.0387 186.669 13.1842 177.81 13.1842C168.951 13.1842 161.77 20.0387 161.77 28.4942C161.77 36.9497 168.951 43.8042 177.81 43.8042Z" fill="#FFC621"/>
<path d="M181.2 12.6942L184.39 1.15421L189.27 2.85421L183.61 13.5842L181.2 12.6942Z" fill="#FFC621"/>
<path d="M173.04 12.9142L168.84 1.59419L173.89 0.484192L174.68 12.5842L173.04 12.9142Z" fill="#FFC621"/>
<path d="M164.82 17.9142L155.09 10.8442L158.62 7.0842L166.62 16.0742L164.82 17.9142Z" fill="#FFC621"/>
<path d="M193.98 34.2342L205.25 38.2542L203.2 43.0042L192.92 36.5742L193.98 34.2342Z" fill="#FFC621"/>
<path d="M194.74 26.2442L206.49 23.4842L206.96 28.6342L194.86 27.9042L194.74 26.2442Z" fill="#FFC621"/>
<path d="M189.93 16.4642L198.74 8.26419L201.76 12.4542L191.4 18.5742L189.93 16.4642Z" fill="#FFC621"/>
<path d="M169.52 42.7942L164.3 53.5642L159.81 51.0042L167.31 41.4842L169.52 42.7942Z" fill="#FFC621"/>
<path d="M178.58 44.7642L179.86 56.7642L174.69 56.5942L176.91 44.6742L178.58 44.7642Z" fill="#FFC621"/>
<path d="M188.57 40.8942L196.25 50.1542L191.91 52.9342L186.37 42.2442L188.57 40.8942Z" fill="#FFC621"/>
<path d="M161.32 26.0542L149.25 26.5042L149.78 21.3642L161.52 24.3942L161.32 26.0542Z" fill="#FFC621"/>
<path d="M162.23 35.4842L151.67 41.2542L149.77 36.4542L161.33 33.0742L162.23 35.4842Z" fill="#FFC621"/>
</g>
<defs>
<clipPath id="clip0_750_2626">
<rect width="127.87" height="169.68" fill="white" transform="translate(20.0537 33.4842)"/>
</clipPath>
<clipPath id="clip1_750_2626">
<rect width="57.71" height="56.29" fill="white" transform="translate(149.25 0.484192)"/>
</clipPath>
</defs>
</svg>
