<svg width="210" height="267" viewBox="0 0 210 267" fill="none" xmlns="http://www.w3.org/2000/svg">
<g clip-path="url(#clip0_7684_2968)">
<path d="M169.325 200.1C173.725 194.8 180.325 192 183.85 191.875C187.35 191.75 185.975 193.95 185.975 193.95C185.975 193.95 191.925 190.4 195.025 190.675C197.125 190.85 197.55 191.9 197.55 191.9C197.55 191.9 201.925 190.3 202.675 193.3C203.175 195.325 191.475 200.975 191.475 200.975L176.825 204C176.825 204 161.25 209.825 169.325 200.1Z" fill="#EDBC93"/>
<path d="M133.025 195.125C133.025 195.125 145.95 205.125 153.275 218.875C153.275 218.875 163.7 207.55 166.525 203.8C166.525 203.8 167.95 202 170.65 200.05C172.85 198.45 179.4 199.275 183.25 198.35C186.65 197.55 191.95 192.275 194.475 193.5C197.025 194.725 193.775 200.05 190.525 202.35C188.55 203.75 182.025 205.175 178.65 207.55C175.275 209.925 173.575 212.175 170.75 216.125C167.925 220.075 162.575 232.05 161.15 233.475C159.75 234.875 154.65 239.675 147.325 235.175C140 230.675 129.225 216.275 129.225 216.275L133.025 195.125Z" fill="#F9D1AF"/>
<path d="M40.775 209.725C35.45 204.8 28.15 202.825 24.475 203.175C20.8 203.525 22.525 205.625 22.525 205.625C22.525 205.625 15.8 202.75 12.625 203.45C10.45 203.925 10.15 205.075 10.15 205.075C10.15 205.075 5.35001 204.025 5.00001 207.25C4.75001 209.425 17.775 213.7 17.775 213.7L33.475 214.85C33.475 214.85 50.55 218.75 40.775 209.725Z" fill="#EDBC93"/>
<path d="M77.975 199.475C77.975 199.475 65.875 211.7 60.15 227.1C60.15 227.1 47.675 216.725 44.2 213.225C44.2 213.225 42.475 211.55 39.375 209.875C36.85 208.5 30.125 210.275 25.975 209.85C22.325 209.475 16.05 204.725 13.575 206.35C11.1 207.975 15.225 213.1 18.925 215.05C21.2 216.25 28.175 216.825 32.05 218.825C35.925 220.825 38 222.95 41.5 226.675C45 230.4 52.25 242.175 53.925 243.45C55.6 244.725 61.575 249.025 68.6 243.3C75.625 237.575 84.875 221.05 84.875 221.05L77.975 199.475Z" fill="#F9D1AF"/>
<path d="M151.9 213.875C140.9 197.925 139 193.4 115.275 190.925C115.275 191.25 119.575 199.35 117.65 202.825C115.325 207.1 115.45 210.7 118.3 215.225C119.525 215 118.975 214.875 120.2 214.675C121.475 216.5 128.775 230.025 128.775 230.025L151.425 216.025C152.175 215.575 152.375 214.6 151.9 213.875Z" fill="#5CB4ED"/>
<path d="M120.8 191.55L122.1 191.775C122.1 191.775 118.875 202.675 111.925 203.4C103.975 204.225 95.325 199.575 95.475 195.975C95.525 194.9 98.95 192.85 100.475 192C100.9 191.75 101.2 191.3 101.225 190.8L102.275 177.725L119.625 178.625L119.6 190.05C119.55 190.8 120.075 191.425 120.8 191.55Z" fill="#F9D1AF"/>
<path d="M122.075 191.825C121.675 196.275 104.275 196.475 99.975 192.325C89.925 192.65 80.425 195 80.425 198.575V256.975C80.425 260.1 82.95 262.625 86.075 262.625H131.875C135 262.625 137.525 260.1 137.525 256.975C137.5 245 137.45 216.9 137.45 201.725C137.4 198.125 127.425 193.7 122.075 191.825Z" fill="#5CB4ED"/>
<path d="M116.975 206.625C117.914 206.625 118.675 205.864 118.675 204.925C118.675 203.986 117.914 203.225 116.975 203.225C116.036 203.225 115.275 203.986 115.275 204.925C115.275 205.864 116.036 206.625 116.975 206.625Z" fill="#3E8FCE"/>
<path d="M116.975 215.55C117.914 215.55 118.675 214.789 118.675 213.85C118.675 212.911 117.914 212.15 116.975 212.15C116.036 212.15 115.275 212.911 115.275 213.85C115.275 214.789 116.036 215.55 116.975 215.55Z" fill="#3E8FCE"/>
<path d="M80.925 216.25C81.025 217.225 81.075 218.2 81.125 219.175C81.15 220.15 81.175 221.125 81.175 222.1C81.175 224.05 81.125 226.025 80.975 227.975C80.95 228.25 80.725 228.425 80.45 228.425C80.2 228.4 80.025 228.225 80 227.975C79.85 226.025 79.8 224.05 79.8 222.1C79.8 221.125 79.8 220.15 79.85 219.175C79.875 218.2 79.95 217.225 80.05 216.25C80.075 216 80.3 215.825 80.55 215.85C80.75 215.875 80.9 216.05 80.925 216.25Z" fill="#449BCE"/>
<path d="M138.075 156.275C147.175 175.55 125.05 184.775 114.575 185.1C89.125 185.9 84.85 171.8 84.85 171.8C84.85 171.8 81.3 172.9 79.35 171.375C73.55 166.8 75.075 161.6 77.5 160.75C79.65 160 83.2 163.15 83.2 163.15C83.2 163.15 82.55 161.95 82.325 161.3C81.275 159.4 75.65 148.825 79.775 137.1C84.275 124.25 97.825 117.525 109.8 117.85C120.675 118.15 132.7 124.3 137.375 135.725C140.425 143.3 138.85 153.175 138.075 156.275Z" fill="#F9D1AF"/>
<path d="M102.45 156.4C102.425 158.8 103.7 161.375 106.025 161.55C107.65 161.675 109.05 159.75 109.125 157.225C109.225 154.725 107.725 152.35 106.1 152.25C103.625 152.075 102.475 154.15 102.45 156.4Z" fill="#38261C"/>
<path d="M120.125 155.15C120.1 157.55 121.375 160.125 123.7 160.3C125.325 160.425 126.725 158.5 126.8 155.975C126.9 153.475 125.4 151.1 123.775 151C121.275 150.8 120.125 152.9 120.125 155.15Z" fill="#38261C"/>
<path d="M116.975 165.575C116.575 165.575 116.225 165.3 116.125 164.9C116.025 164.425 116.325 163.975 116.775 163.85C117.425 163.7 117.95 163.175 118.075 162.575C118.225 161.825 117.775 161.05 117.025 160.725C116.575 160.55 116.375 160.025 116.55 159.575C116.725 159.125 117.25 158.925 117.7 159.1C119.2 159.725 120.1 161.325 119.8 162.875C119.55 164.175 118.525 165.225 117.175 165.525C117.1 165.55 117.05 165.575 116.975 165.575Z" fill="#ECA784"/>
<path d="M121.15 144.575C121.025 144.575 120.9 144.55 120.775 144.5C120.35 144.3 120.175 143.775 120.375 143.35C120.725 142.6 121.8 141.3 123.5 141.125C125.05 140.975 126.55 141.775 127.325 143.175C127.55 143.6 127.4 144.125 126.975 144.35C126.55 144.575 126.025 144.425 125.8 144C125.375 143.2 124.525 142.75 123.675 142.85C122.5 142.975 121.95 144.05 121.925 144.1C121.775 144.4 121.475 144.575 121.15 144.575Z" fill="#38261C"/>
<path d="M100.925 146.225C100.8 146.225 100.675 146.2 100.55 146.15C100.125 145.95 99.95 145.425 100.15 145C100.5 144.25 101.575 142.95 103.275 142.775C104.825 142.625 106.325 143.425 107.1 144.825C107.325 145.25 107.175 145.775 106.75 146C106.325 146.225 105.8 146.075 105.575 145.65C105.15 144.85 104.3 144.4 103.45 144.5C102.275 144.625 101.725 145.7 101.7 145.75C101.55 146.05 101.25 146.225 100.925 146.225Z" fill="#38261C"/>
<path d="M105.375 155.8C105.844 155.8 106.225 155.419 106.225 154.95C106.225 154.481 105.844 154.1 105.375 154.1C104.906 154.1 104.525 154.481 104.525 154.95C104.525 155.419 104.906 155.8 105.375 155.8Z" fill="white"/>
<path d="M122.525 154.75C122.994 154.75 123.375 154.369 123.375 153.9C123.375 153.431 122.994 153.05 122.525 153.05C122.056 153.05 121.675 153.431 121.675 153.9C121.675 154.369 122.056 154.75 122.525 154.75Z" fill="white"/>
<path d="M135.44 167.236C135.953 165.087 134.376 162.87 131.918 162.284C129.46 161.698 127.052 162.964 126.54 165.113C126.027 167.262 127.604 169.479 130.062 170.065C132.52 170.652 134.927 169.385 135.44 167.236Z" fill="#F5BAAB"/>
<path d="M102.306 168.282C102.818 166.134 101.241 163.916 98.7837 163.33C96.3259 162.744 93.9181 164.011 93.4055 166.16C92.893 168.309 94.4699 170.526 96.9277 171.112C99.3854 171.698 101.793 170.431 102.306 168.282Z" fill="#F5BAAB"/>
<path d="M115.8 177.775C117.554 177.775 118.975 175.704 118.975 173.15C118.975 170.596 117.554 168.525 115.8 168.525C114.047 168.525 112.625 170.596 112.625 173.15C112.625 175.704 114.047 177.775 115.8 177.775Z" fill="#EB7487"/>
<path d="M143.15 149.15C145.675 141.3 145.05 136.05 143.6 130.675C139.75 116.5 126.025 110.525 111.975 108.575C100.7 107.025 88.35 108.075 78.9 114.95C69.4 121.85 65.7 133.65 65.375 145.125C65.1 154.925 66.425 161.525 70.85 168.5C76.525 177.4 89.95 183.55 101.75 184C101.75 184 99.075 183.3 98.4 183.05C87.15 179.325 84.825 171.75 84.825 171.75C84.825 171.75 81.125 172.175 79.15 170.7C73.9 166.825 75.05 161.55 77.475 160.7C78.775 160.25 80.6 161.225 81.825 162.075C82.925 162.925 83.95 164 85.075 165C85.075 165 84.525 162.625 84 161.2C83.775 160.6 83.5 159.575 83.3 158.3C83.05 154.85 85.425 151.85 87.425 150.1C92.55 145.625 98.95 143.65 103.925 139.025C107.5 135.675 110.75 131.6 112 126.85C112.2 127.225 112.375 127.575 112.6 127.925C115.55 132.8 120.925 136.5 125.65 139.35C128.275 140.925 131.25 142.55 133.825 144.175C135.55 145.25 138.75 148.225 138.875 151.3C138.65 153.45 138.3 155.225 138.05 156.225C139.475 155.625 142 152.7 143.15 149.15Z" fill="#754420"/>
<path d="M63.375 215.875C70.875 201.7 79.525 193.3 95.25 192.625C95.4 193.05 91.3 201.075 93.425 204.425C96.025 208.525 96.125 212.15 93.575 216.825C92.35 216.7 92.875 216.525 91.65 216.4C90.475 218.3 84.075 232.275 84.075 232.275L63.825 217.825C63.225 217.35 63.025 216.525 63.375 215.875Z" fill="#5CB4ED"/>
<path d="M90.85 6C57.125 6 29.8 26.5 29.8 51.75C29.8 70.2 44.375 86.125 65.4 93.35C66.475 93.725 67.35 94.45 67.9 95.45C69.875 99.075 73.125 103.525 77.975 106.175C78.475 106.45 79.075 106.1 79.1 105.525C79.1 104.075 79.225 101.575 79.875 99.3C80.25 97.9 81.6 97 83.05 97.15C85.625 97.4 88.225 97.525 90.875 97.525C124.6 97.525 151.925 77.025 151.925 51.775C151.925 26.525 124.575 6 90.85 6Z" fill="#F2D73A"/>
<path d="M49.85 57.75C47.975 54.2 47.9 49.25 50.05 45.175C52.475 40.65 56.725 38.975 57.9 38.575C63.75 29.075 74.075 24.225 83.275 26.3C89.35 27.675 96 32.325 98.275 39.3C99.55 43.225 99 46.525 98.375 50.35C98.225 51.25 98 52.125 97.75 53C97.6 53.55 97.45 54.125 97.225 54.65C97.075 55 96.875 55.35 96.6 55.6C96.025 56.125 95.2 56.275 94.5 56.525C91.75 57.5 89.05 58.5 86.225 59.275C83.375 60.05 80.45 60.65 77.525 61.1C77.475 61.1 77.4 61.125 77.35 61.125C76.025 61.325 74.575 61.55 73.725 62.575C73.075 63.35 72.95 64.425 72.825 65.45C72.75 66.125 72.675 66.825 72.6 67.5C72.55 67.875 72.525 68.275 72.475 68.65C72.45 68.825 72.475 69.025 72.4 69.175C72.325 69.375 72.15 69.575 72.05 69.775C71.775 70.225 71.475 70.625 71.15 71.025C70.525 71.825 69.8 72.55 69 73.175C68.475 73.6 67.85 73.975 67.175 73.975C66.525 73.975 65.95 73.6 65.525 73.1C65.1 72.6 64.85 72.025 64.575 71.425C63.65 72.425 62.3 73.025 60.95 73.075C60.275 71.925 59.425 70.8 59.025 69.525C58.775 68.675 58.625 67.9 58.075 67.175C57.7 66.675 57.275 66.25 56.825 65.825C56.625 65.625 56.4 65.45 56.25 65.25C56.075 65.025 55.95 64.75 55.725 64.55C53.625 62.425 51.275 60.4 49.85 57.75Z" fill="#753F1F"/>
<path d="M99.125 52.775C100.275 53.775 103.075 56.55 103.4 60.6C103.975 67.65 96.575 72.325 95.125 73.225C86.975 78.35 77.8 75.375 76.525 74.95C76.525 74.95 63.225 70.775 60.475 56.1C60.375 55.625 60.275 55.15 60.2 54.65C60.025 53.275 59.975 51.875 60.1 50.475C60.3 48.275 64.55 33.75 76.05 32.425C83.925 31.525 89.875 37.375 91.925 39.4C97.025 44.425 98.6 50.25 99.125 52.775Z" fill="#EA9F67"/>
<path d="M77.25 60.025C77.725 61.8 79.2 63.4 80.95 63.05C82.175 62.8 82.775 61.1 82.325 59.225C81.875 57.375 80.275 55.95 79.05 56.2C77.2 56.6 76.8 58.375 77.25 60.025Z" fill="#3D2C22"/>
<path d="M89.95 55.425C90.425 57.2 91.9 58.8 93.65 58.45C94.875 58.2 95.475 56.5 95.025 54.625C94.575 52.775 92.975 51.35 91.75 51.6C89.9 51.975 89.5 53.75 89.95 55.425Z" fill="#3D2C22"/>
<path d="M93.35 63.025C93.05 62.875 92.475 64.7 90.55 65.9C87.725 67.675 84.55 66.575 84.5 66.925C84.45 67.325 88.65 69.525 91.375 67.675C93.4 66.275 93.725 63.2 93.35 63.025Z" fill="#B33C67"/>
<path d="M79.075 59C79.434 59 79.725 58.709 79.725 58.35C79.725 57.991 79.434 57.7 79.075 57.7C78.716 57.7 78.425 57.991 78.425 58.35C78.425 58.709 78.716 59 79.075 59Z" fill="white"/>
<path d="M91.45 54.65C91.809 54.65 92.1 54.359 92.1 54C92.1 53.6411 91.809 53.35 91.45 53.35C91.091 53.35 90.8 53.6411 90.8 54C90.8 54.359 91.091 54.65 91.45 54.65Z" fill="white"/>
<path d="M98.9413 62.6228C100.652 62.5497 101.987 61.2826 101.923 59.7928C101.86 58.303 100.421 57.1545 98.7107 57.2276C97.0001 57.3008 95.6651 58.5678 95.7288 60.0576C95.7925 61.5474 97.2308 62.6959 98.9413 62.6228Z" fill="#EA7467"/>
<path d="M77.5908 69.4229C79.3013 69.3498 80.6363 68.0828 80.5727 66.593C80.509 65.1032 79.0707 63.9547 77.3601 64.0278C75.6496 64.1009 74.3145 65.368 74.3782 66.8578C74.4419 68.3476 75.8802 69.4961 77.5908 69.4229Z" fill="#EA7467"/>
<path d="M93.775 61.45C90.175 61.45 87.25 58.425 87.25 54.725C87.25 51.025 90.175 48 93.775 48C97.375 48 100.3 51.025 100.3 54.725C100.3 58.425 97.375 61.45 93.775 61.45ZM93.775 49.15C90.8 49.15 88.375 51.65 88.375 54.75C88.375 57.85 90.8 60.35 93.775 60.35C96.75 60.35 99.175 57.85 99.175 54.75C99.175 51.65 96.75 49.15 93.775 49.15Z" fill="#49220F"/>
<path d="M79.025 65.925C75.325 65.925 72.3 62.875 72.3 59.125C72.3 55.375 75.3 52.325 79.025 52.325C82.75 52.325 85.75 55.375 85.75 59.125C85.75 62.875 82.725 65.925 79.025 65.925ZM79.025 53.45C75.95 53.45 73.45 56 73.45 59.125C73.45 62.25 75.95 64.8 79.025 64.8C82.1 64.8 84.6 62.25 84.6 59.125C84.6 56 82.1 53.45 79.025 53.45Z" fill="#49220F"/>
<path d="M84.9 56.3L83.875 55.825C84.05 55.425 84.425 54.85 85.1 54.425C86.375 53.625 87.75 54.1 88 54.2L87.6 55.25C87.425 55.175 86.5 54.875 85.675 55.375C85.25 55.675 85.025 56.05 84.9 56.3Z" fill="#49220F"/>
<path d="M59.9 61.025C59.6 61.025 59.35 60.8 59.35 60.5C59.325 60.2 59.575 59.925 59.875 59.9L72.85 59C73.15 58.975 73.425 59.225 73.45 59.525C73.475 59.825 73.225 60.1 72.925 60.125L59.95 61.025C59.925 61.025 59.925 61.025 59.9 61.025Z" fill="#49220F"/>
<path d="M60.175 67.775C62.1 69.1 64.9 68.925 67.05 67.25C65.775 65.225 64.5 63.225 63.2 61.2C61.325 60.3 59.375 60.15 58.4 61.05C56.9 62.45 57.825 66.175 60.175 67.775Z" fill="#EA9F67"/>
<path d="M87.25 57.5C87.275 57.5 88.475 57.775 89.425 57.975C90.075 58.125 90.475 58.8 90.275 59.45L89.775 61" fill="#EA9F67"/>
<path d="M89.775 61.35C89.925 61.35 90.05 61.25 90.1 61.125L90.6 59.575C90.725 59.175 90.675 58.75 90.475 58.375C90.275 58 89.925 57.75 89.5 57.65C87.325 57.15 87.3 57.15 87.25 57.15C87.05 57.15 86.9 57.3 86.9 57.5C86.9 57.675 87.025 57.825 87.2 57.85C87.25 57.85 87.6 57.925 89.35 58.325C89.575 58.375 89.775 58.525 89.875 58.725C90 58.925 90.025 59.15 89.95 59.375L89.45 60.925C89.4 61.1 89.5 61.3 89.675 61.35C89.7 61.325 89.75 61.35 89.775 61.35Z" fill="#DC6E16"/>
<path d="M100.275 48.1C99.775 48.675 98.05 48.55 92.3 45.275C96.125 48.65 96.475 49.95 96.175 50.525C95.475 51.875 90.375 50.55 84.325 48.95C78.775 47.475 74.35 45.975 71.525 44.975C72.2 46.9 73.375 51.1 71.325 53.9C68.6 57.625 60.725 58.225 59.875 58.625C59.725 58.675 59.6 58.75 59.45 58.725C59.275 58.7 59.15 58.525 59.05 58.375C56.975 55.375 56.65 53.125 58.575 50.1C59.65 48.425 59.775 46.45 60.425 44.625C61.2 42.5 63.275 41.25 64.25 39.25C64.725 38.3 64.925 37.25 65.325 36.3C65.325 36.3 66.625 33.75 69.45 31.825C73.525 29.075 81.625 30.175 87.875 33.55C96.2 37.975 101.575 46.6 100.275 48.1Z" fill="#753F1F"/>
<path d="M111.1 63.075C111.25 62.55 111.5 62.1 111.8 61.725C112.125 61.35 112.5 61.05 112.925 60.825C113.35 60.6 113.825 60.475 114.325 60.425C114.85 60.375 115.375 60.45 115.9 60.6C116.425 60.75 116.9 61 117.3 61.3C117.7 61.6 118.025 61.95 118.25 62.375C118.475 62.775 118.625 63.225 118.675 63.7C118.725 64.175 118.675 64.675 118.525 65.2C118.375 65.7 118.15 66.15 117.825 66.525C117.525 66.9 117.15 67.2 116.725 67.425C116.3 67.65 115.825 67.775 115.325 67.825C114.825 67.875 114.275 67.8 113.725 67.65C113.175 67.5 112.7 67.25 112.3 66.95C111.9 66.65 111.575 66.3 111.35 65.9C111.125 65.5 110.975 65.05 110.925 64.575C110.9 64.075 110.95 63.575 111.1 63.075ZM113.825 53.9C114.05 53.15 114.375 52.525 114.8 52.025C115.225 51.525 115.7 51.075 116.25 50.725C116.775 50.375 117.325 50.05 117.9 49.775C118.475 49.5 119.025 49.225 119.525 48.95C120.025 48.675 120.475 48.375 120.85 48.05C121.225 47.725 121.475 47.35 121.625 46.875C121.725 46.575 121.75 46.275 121.725 46C121.7 45.725 121.6 45.475 121.4 45.225C121.225 44.975 120.95 44.75 120.625 44.55C120.275 44.35 119.85 44.15 119.325 44C118.825 43.85 118.425 43.775 118.075 43.725C117.725 43.7 117.425 43.675 117.15 43.675C116.875 43.675 116.625 43.675 116.375 43.675C116.125 43.675 115.9 43.625 115.65 43.55C115.075 43.375 114.675 43.075 114.45 42.625C114.225 42.175 114.2 41.65 114.375 41.075C114.475 40.725 114.625 40.425 114.825 40.2C115.025 39.95 115.275 39.75 115.575 39.6C115.875 39.425 116.275 39.275 116.725 39.175C117.2 39.075 117.7 39.025 118.25 39C118.8 39 119.425 39.025 120.075 39.125C120.725 39.225 121.425 39.375 122.15 39.575C123.525 39.975 124.65 40.475 125.55 41.05C126.45 41.625 127.15 42.3 127.65 43.025C128.125 43.75 128.425 44.55 128.525 45.4C128.625 46.25 128.525 47.15 128.25 48.05C128 48.925 127.65 49.625 127.175 50.2C126.725 50.775 126.2 51.25 125.65 51.65C125.1 52.05 124.525 52.4 123.925 52.675C123.325 52.95 122.775 53.25 122.25 53.525C121.725 53.8 121.275 54.125 120.875 54.45C120.475 54.8 120.2 55.2 120.05 55.725C119.975 55.975 119.925 56.2 119.9 56.375C119.875 56.55 119.85 56.725 119.85 56.875C119.85 57.025 119.825 57.15 119.825 57.3C119.8 57.425 119.775 57.575 119.75 57.725C119.6 58.275 119.225 58.65 118.625 58.85C118.05 59.075 117.225 59.025 116.2 58.725C115.65 58.55 115.175 58.325 114.8 58.05C114.425 57.75 114.125 57.4 113.925 57C113.725 56.6 113.6 56.125 113.575 55.6C113.55 55.125 113.65 54.55 113.825 53.9Z" fill="#BF47B8"/>
</g>
<defs>
<clipPath id="clip0_7684_2968">
<rect width="197.675" height="256.6" fill="white" transform="translate(5 6)"/>
</clipPath>
</defs>
</svg>
