<svg width="148" height="178" viewBox="0 0 148 178" fill="none" xmlns="http://www.w3.org/2000/svg">
<path d="M144.868 107.608C144.223 105.526 143.073 103.635 141.52 102.104C139.966 100.574 138.059 99.4526 135.966 98.8392C134.646 89.9908 127.91 85.8835 121.254 83.8233C117.619 83.0173 113.88 82.7856 110.174 83.1365C102.765 73.8919 93.0052 69.1904 81.1192 71.343C79.8702 71.5783 78.6579 71.978 77.5138 72.5316C72.2312 69.8903 65.0336 70.2072 59.817 72.2543C55.644 73.845 51.9477 76.4774 49.08 79.9009C47.7456 79.6161 46.389 79.4482 45.0255 79.3991C39.047 79.1966 33.2279 81.3497 28.821 85.3949C28.357 85.8106 27.9161 86.2515 27.5004 86.7155C24.2909 86.1258 20.9846 86.3528 17.8859 87.3758C12.4239 89.2869 7.80909 93.0601 4.85099 98.0336C0.717323 104.927 -0.180727 116.734 4.85099 124.843C8.49602 130.628 14.0956 133.256 20.6989 135.408C23.5912 141.47 29.0191 147.757 36.045 149.341C42.8205 150.908 49.9306 150.058 56.1455 146.938C58.4372 148.666 61.0109 149.984 63.7525 150.834C69.1744 152.702 74.884 153.596 80.6174 153.475C89.2674 153.221 97.5218 149.795 103.808 143.847C105.805 144.16 107.834 144.209 109.844 143.993C114.626 143.523 119.174 141.689 122.945 138.71C125.042 136.982 126.855 134.937 128.32 132.648C133.171 131.803 137.593 129.34 140.866 125.662C143.059 123.269 144.583 120.34 145.286 117.171C145.988 114.002 145.844 110.704 144.868 107.608Z" fill="white"/>
<path d="M79.176 154.874C73.8186 154.82 68.5026 153.929 63.4205 152.233C60.8162 151.407 58.3501 150.196 56.1041 148.641C49.7713 151.585 42.6377 152.333 35.8319 150.767C29.4795 149.341 23.5101 144.058 19.7727 136.609C13.6976 134.615 7.59616 131.842 3.687 125.622C-1.78054 116.918 -0.64477 104.385 3.687 97.2933C6.81042 92.0081 11.7115 88.0058 17.5143 86.0017C20.579 85.0027 23.8315 84.7181 27.0231 85.1697C27.2872 84.8791 27.5646 84.6018 27.8419 84.3376C32.522 80.0656 38.6761 77.7744 45.0105 77.9456C46.1707 77.9846 47.3269 78.1037 48.4706 78.3022C51.4186 75.0153 55.1087 72.4798 59.234 70.9065C65.0903 68.5529 71.6294 68.5529 77.4856 70.9065C78.5513 70.4599 79.6629 70.1321 80.8004 69.9292C92.3166 67.8426 102.671 71.8838 110.779 81.6303C114.423 81.3577 118.087 81.6337 121.649 82.4491C130.55 85.196 135.78 90.373 137.206 97.7291C139.319 98.5075 141.226 99.758 142.782 101.385C144.339 103.013 145.503 104.974 146.186 107.119C147.262 110.456 147.433 114.019 146.681 117.444C145.929 120.868 144.282 124.032 141.908 126.612C138.583 130.368 134.121 132.933 129.203 133.915C127.729 136.11 125.95 138.085 123.92 139.779C119.935 142.955 115.113 144.905 110.04 145.392C108.153 145.603 106.248 145.603 104.361 145.392C97.9126 151.27 89.5745 154.647 80.8533 154.914L79.176 154.874ZM56.2626 145.458C56.5828 145.46 56.8935 145.566 57.1474 145.762C59.313 147.39 61.7435 148.632 64.3318 149.433C69.5901 151.231 75.1261 152.081 80.6816 151.942C88.9164 151.666 96.7696 148.404 102.776 142.764C102.937 142.599 103.135 142.476 103.353 142.405C103.572 142.334 103.804 142.316 104.031 142.354C105.902 142.636 107.801 142.681 109.683 142.486C114.179 142.045 118.454 140.326 122.005 137.534C123.987 135.904 125.703 133.975 127.09 131.815C127.189 131.643 127.326 131.495 127.491 131.383C127.656 131.271 127.844 131.197 128.041 131.168C132.603 130.378 136.756 128.048 139.808 124.565C141.799 122.371 143.184 119.696 143.826 116.803C144.467 113.91 144.343 110.9 143.466 108.07C142.898 106.199 141.878 104.498 140.496 103.116C139.114 101.733 137.412 100.713 135.542 100.146C135.271 100.069 135.027 99.9163 134.84 99.7057C134.653 99.4952 134.53 99.2355 134.485 98.9574C133.482 92.1824 129.005 87.6525 120.79 85.1168C117.343 84.3754 113.803 84.1616 110.291 84.4829C110.044 84.5181 109.792 84.4878 109.56 84.3951C109.328 84.3024 109.125 84.1505 108.97 83.9546C101.39 74.5251 92.0789 70.748 81.2363 72.6762C80.1179 72.8789 79.0304 73.2251 78.0006 73.7063C77.7962 73.8106 77.5699 73.8651 77.3403 73.8651C77.1107 73.8651 76.8845 73.8106 76.68 73.7063C71.5294 71.065 64.6752 71.7253 60.1717 73.495C56.2325 74.9832 52.7436 77.4623 50.0422 80.6926C49.8723 80.9014 49.6478 81.0589 49.3936 81.1475C49.1394 81.2361 48.8656 81.2524 48.6027 81.1944C47.3511 80.9277 46.0782 80.773 44.7992 80.7322C39.2104 80.5368 33.7691 82.5482 29.6512 86.3318C29.2409 86.7143 28.8529 87.1199 28.489 87.5468C28.3308 87.7366 28.1256 87.8817 27.8939 87.9674C27.6622 88.0531 27.412 88.0766 27.1684 88.0355C24.193 87.4872 21.1274 87.6962 18.2539 88.643C13.1282 90.46 8.79804 94.01 6.01136 98.68C2.20785 105.019 1.17774 116.205 6.01136 123.957C9.36584 129.24 14.4768 131.789 21.1197 133.915C21.3087 133.975 21.4834 134.072 21.6333 134.202C21.7832 134.331 21.9051 134.49 21.9914 134.668C24.5535 140.043 29.6776 146.316 36.347 147.875C42.798 149.349 49.5609 148.542 55.4834 145.59C55.7235 145.467 55.9954 145.421 56.2626 145.458Z" fill="#BD9FCA"/>
<path d="M56.5289 75.5297C56.5852 75.2396 56.5702 74.9401 56.4851 74.6571C56.3999 74.3741 56.2473 74.1161 56.0402 73.9052C55.3316 72.7501 54.335 71.7989 53.148 71.1451C49.8595 69.8244 44.1543 65.0568 43.0317 61.7155C42.0544 58.7969 39.3206 56.1687 34.9228 58.612C33.9059 59.1799 19.3919 70.1017 20.488 71.6469C21.3464 72.8487 22.8652 72.3601 24.067 72.228C25.7295 71.95 27.4307 72.0038 29.0723 72.3865C30.2873 72.7166 31.7136 74.4863 32.6777 75.1599C33.7372 75.8802 35.0038 76.2328 36.2831 76.1636C38.2113 76.2296 41.1432 75.4504 42.4374 77.1805C44.3656 79.7558 46.1617 79.0823 49.4105 76.9164C52.3292 74.9618 54.1385 76.19 55.261 76.1372C55.4716 76.1528 55.6831 76.1232 55.8813 76.0503C56.0795 75.9774 56.2598 75.8629 56.41 75.7146C56.4616 75.6615 56.502 75.5986 56.5289 75.5297Z" fill="#F4AFBC"/>
<path d="M45.0897 79.9664C44.3695 79.9334 43.6685 79.7233 43.0488 79.3548C42.4291 78.9862 41.9099 78.4705 41.5371 77.8533C40.9296 77.0345 39.3977 77.127 37.9317 77.2326C37.3242 77.2326 36.7431 77.2986 36.2413 77.2326C34.7544 77.296 33.2866 76.8793 32.0548 76.044C31.5858 75.6905 31.1444 75.302 30.7341 74.8818C30.1851 74.2809 29.5318 73.7843 28.806 73.4159C27.3057 73.0766 25.7538 73.0318 24.2365 73.2838L23.6818 73.3631C22.9691 73.602 22.2012 73.6228 21.4766 73.4228C20.752 73.2228 20.1035 72.8111 19.6142 72.2405C19.4884 72.0625 19.4031 71.8591 19.3643 71.6447C19.3255 71.4302 19.3341 71.2098 19.3896 70.9991C20.0896 67.9351 33.8113 57.9113 34.4188 57.5811C35.2652 57.0191 36.2299 56.66 37.2377 56.5318C38.2456 56.4035 39.2695 56.5095 40.2297 56.8416C41.167 57.2539 42.002 57.8677 42.6753 58.6391C43.3487 59.4106 43.8438 60.3209 44.1256 61.3054C45.0897 64.1448 50.3724 68.7143 53.6212 70.0482C54.8758 70.6929 55.9409 71.6533 56.7115 72.8348L56.9625 73.1518C57.3053 73.5104 57.545 73.9548 57.6566 74.4382C57.7681 74.9216 57.7473 75.4262 57.5964 75.8987C57.5294 76.0639 57.4406 76.2194 57.3323 76.361C57.0832 76.6372 56.777 76.8559 56.4349 77.0018C56.0928 77.1478 55.723 77.2175 55.3513 77.2062C54.9061 77.2092 54.4624 77.156 54.0306 77.0477C53.3579 76.8568 52.6502 76.8243 51.9628 76.9526C51.2755 77.0809 50.6271 77.3666 50.0686 77.7873C48.6473 78.9679 46.9214 79.7233 45.0897 79.9664ZM39.3184 74.9214C40.0573 74.8511 40.8023 74.9583 41.4914 75.2339C42.1805 75.5096 42.7939 75.9458 43.2804 76.5062C44.5086 78.1439 45.3274 78.2495 48.7348 75.978C49.5456 75.3802 50.4812 74.9734 51.4715 74.7882C52.4617 74.6029 53.481 74.644 54.4532 74.9082C54.6813 74.9721 54.9164 75.0076 55.1532 75.0139H55.3513C55.2875 74.8662 55.203 74.7283 55.1003 74.6045L54.8362 74.2743C54.3029 73.4098 53.5573 72.696 52.6703 72.2009C49.2234 70.7878 43.188 65.9145 41.9069 62.0846C41.7151 61.4097 41.3798 60.7842 40.9239 60.2509C40.468 59.7175 39.9024 59.2889 39.2656 58.9943C38.6022 58.7897 37.9011 58.7381 37.2149 58.8433C36.5287 58.9485 35.8752 59.2079 35.3036 59.6018C33.8245 60.4602 23.0611 68.8464 21.5291 71.25C22.0542 71.3767 22.602 71.3767 23.1271 71.25L23.761 71.1576C25.5701 70.8651 27.4191 70.9324 29.2022 71.3557C30.2904 71.7984 31.2652 72.4799 32.0548 73.3499C32.3948 73.6858 32.7566 73.999 33.1377 74.2875C34.0251 74.8916 35.0917 75.1757 36.162 75.0931C36.5979 75.0931 37.0997 75.0931 37.6148 75.0931C38.1298 75.0931 38.7902 74.9214 39.3184 74.9214Z" fill="#EE8194"/>
<path d="M27.7253 68.8735C30.1282 66.4384 32.8895 64.3853 35.9134 62.7852C36.0834 62.6967 36.2815 62.6789 36.4646 62.7358C36.6477 62.7927 36.8008 62.9197 36.8907 63.089C36.9799 63.261 36.998 63.4611 36.9412 63.6463C36.8844 63.8315 36.7572 63.9871 36.5869 64.0795C33.5807 65.4512 30.7982 67.2677 28.3328 69.4678C28.2957 69.5078 28.2507 69.5397 28.2007 69.5615C28.1507 69.5834 28.0968 69.5947 28.0422 69.5947C27.9877 69.5947 27.9337 69.5834 27.8837 69.5615C27.8337 69.5397 27.7888 69.5078 27.7517 69.4678C27.7096 69.4314 27.6753 69.3867 27.6511 69.3366C27.6268 69.2865 27.613 69.232 27.6105 69.1763C27.608 69.1207 27.617 69.0652 27.6367 69.0131C27.6564 68.961 27.6866 68.9135 27.7253 68.8735Z" fill="#EE8194"/>
<path d="M34.4069 73.1122C35.2125 70.5633 36.0445 68.0277 36.7841 65.4524C36.8098 65.3606 36.8536 65.2749 36.913 65.2004C36.9724 65.1258 37.0462 65.064 37.1299 65.0184C37.2136 64.9729 37.3056 64.9446 37.4005 64.9352C37.4953 64.9258 37.5911 64.9355 37.6821 64.9637C37.8659 65.019 38.0211 65.1436 38.1148 65.3112C38.2084 65.4788 38.2332 65.6762 38.184 65.8618C37.2463 68.3842 36.2162 70.8671 35.2257 73.3499C35.1818 73.4503 35.1018 73.5306 35.0014 73.5747C34.9011 73.6187 34.7878 73.6233 34.6842 73.5876C34.5833 73.5517 34.5005 73.4776 34.4536 73.3813C34.4067 73.285 34.3994 73.1742 34.4333 73.0726L34.4069 73.1122Z" fill="#EE8194"/>
<path d="M39.4264 63.8277C40.432 65.445 41.6293 66.9349 42.9922 68.2651C44.8088 70.0357 46.895 71.5068 49.1729 72.6233" fill="#F4AFBC"/>
<path d="M40.0452 63.4451C42.2748 67.185 45.51 70.2235 49.3823 72.2143C49.4343 72.2421 49.4804 72.2798 49.5178 72.3253C49.5553 72.3709 49.5834 72.4234 49.6005 72.4798C49.6177 72.5362 49.6236 72.5954 49.6179 72.6541C49.6121 72.7128 49.5949 72.7698 49.5672 72.8218C49.5158 72.9281 49.4246 73.0099 49.3134 73.0494C49.2021 73.0889 49.0798 73.0831 48.9729 73.0331C44.8262 71.0992 41.3037 68.0432 38.8038 64.2111C38.7024 64.0489 38.6677 63.8538 38.7071 63.6667C38.7465 63.4795 38.8569 63.3149 39.0151 63.2074C39.0943 63.1537 39.1836 63.1166 39.2775 63.0982C39.3714 63.0797 39.4681 63.0804 39.5618 63.1001C39.6554 63.1198 39.7441 63.1582 39.8227 63.2129C39.9012 63.2677 39.9679 63.3377 40.0188 63.4187L40.0452 63.4451Z" fill="#EE8194"/>
<path d="M86.8363 78.0248C86.6911 77.4305 87.1797 76.7702 87.6551 76.3212C88.6354 75.1684 89.895 74.2863 91.3134 73.7591C95.1829 72.8346 102.301 68.5821 104.111 65.0824C105.695 62.0316 109.156 59.5884 113.593 63.0353C114.623 63.8409 128.781 78.3946 127.301 79.9134C126.152 81.0888 124.554 80.2964 123.247 79.9134C121.455 79.3277 119.567 79.0989 117.687 79.2398C116.3 79.4115 114.465 81.1152 113.236 81.6963C111.945 82.3114 110.486 82.4786 109.089 82.1717C106.95 81.934 103.807 80.5605 102.116 82.2509C99.5411 84.7734 97.6658 83.7037 94.4698 80.7586C91.5775 78.1173 89.372 79.1606 88.1306 78.9097C87.8953 78.8897 87.6667 78.8206 87.4597 78.7068C87.2527 78.5931 87.0719 78.4373 86.9288 78.2493C86.8929 78.1767 86.862 78.1017 86.8363 78.0248Z" fill="#F4AFBC"/>
<path d="M99.3441 84.8004C97.416 84.8004 95.6067 83.3477 93.7049 81.6044C93.1411 81.0207 92.4486 80.577 91.6827 80.3087C90.9168 80.0404 90.0987 79.955 89.2939 80.0593C88.8336 80.119 88.3675 80.119 87.9072 80.0593C87.5108 80.0173 87.1291 79.8863 86.7906 79.6758C86.4521 79.4654 86.1657 79.1811 85.9526 78.8443C85.8597 78.6842 85.7928 78.5103 85.7545 78.3292C85.6758 77.8055 85.7398 77.2703 85.9396 76.7799C86.1395 76.2895 86.4679 75.8621 86.8903 75.5426L87.2205 75.2256C88.252 74.0643 89.5738 73.1983 91.0504 72.7164C94.8935 71.7919 101.616 67.6187 103.121 64.6075C103.592 63.5876 104.281 62.6832 105.139 61.9577C105.997 61.2322 107.003 60.7032 108.087 60.4079C109.187 60.2154 110.316 60.2759 111.39 60.5848C112.463 60.8937 113.451 61.4429 114.281 62.1907C114.888 62.6662 128.293 76.0181 128.531 79.4914C128.552 79.7164 128.526 79.9434 128.453 80.1574C128.38 80.3714 128.262 80.5676 128.108 80.7328C126.655 82.2252 124.793 81.6308 123.552 81.2346L122.958 81.0498C121.303 80.506 119.558 80.2907 117.82 80.4158C116.94 80.7026 116.12 81.1504 115.403 81.7365C114.867 82.1265 114.302 82.4753 113.713 82.7798C112.233 83.4823 110.565 83.6862 108.959 83.3609C108.377 83.2949 107.77 83.1496 107.123 83.0175C105.472 82.6478 103.768 82.278 102.897 83.1232C102.445 83.6238 101.898 84.0299 101.289 84.3178C100.679 84.6057 100.018 84.7698 99.3441 84.8004ZM90.0071 77.8009C90.9874 77.7839 91.961 77.9659 92.869 78.3359C93.777 78.7059 94.6005 79.2562 95.2897 79.9536C98.7498 83.1232 99.7007 83.1232 101.391 81.4592C103.082 79.7951 105.644 80.3234 107.664 80.7724C108.259 80.8913 108.813 81.0233 109.276 81.0762C110.469 81.35 111.72 81.2151 112.828 80.6932C113.287 80.4314 113.728 80.1402 114.149 79.8216C115.149 79.0133 116.318 78.4401 117.569 78.1443C119.594 77.9832 121.632 78.221 123.565 78.8443L124.252 79.0556C125.216 79.3593 125.81 79.5178 126.233 79.3329C125.203 76.5463 114.453 65.149 112.921 63.9208C112.342 63.3933 111.653 63.0012 110.903 62.7728C110.154 62.5443 109.364 62.4854 108.589 62.6001C107.827 62.826 107.123 63.2145 106.525 63.7389C105.928 64.2634 105.451 64.9112 105.129 65.6377C103.095 69.5996 95.5142 73.9578 91.5919 74.8823C90.5118 75.3002 89.5473 75.9704 88.7788 76.8368L88.4355 77.167C88.2479 77.3282 88.0951 77.5259 87.9864 77.7481C88.1115 77.7921 88.2395 77.8274 88.3694 77.8538C88.6464 77.8741 88.9245 77.8741 89.2015 77.8538L90.0071 77.8009Z" fill="#EE8194"/>
<path d="M119.087 76.1501C116.751 73.286 113.995 70.7924 110.912 68.7544C110.827 68.7051 110.752 68.6388 110.693 68.5597C110.634 68.4806 110.592 68.3903 110.569 68.2942C110.546 68.1982 110.543 68.0985 110.559 68.0013C110.576 67.904 110.613 67.8112 110.667 67.7285C110.721 67.6458 110.791 67.5749 110.873 67.5203C110.955 67.4657 111.048 67.4284 111.145 67.4107C111.242 67.393 111.342 67.3953 111.438 67.4174C111.534 67.4395 111.625 67.481 111.704 67.5394C114.771 69.8069 117.47 72.533 119.708 75.6218C119.743 75.665 119.768 75.715 119.782 75.7686C119.797 75.8222 119.799 75.8782 119.791 75.9329C119.782 75.9877 119.762 76.04 119.732 76.0866C119.701 76.1331 119.662 76.1727 119.615 76.2029C119.534 76.2558 119.438 76.2794 119.342 76.2698C119.246 76.2602 119.156 76.218 119.087 76.1501Z" fill="#EE8194"/>
<path d="M110.808 79.3191C110.147 76.4005 109.487 73.4818 108.853 70.5367C108.815 70.3476 108.853 70.1509 108.959 69.9899C109.066 69.8289 109.232 69.7168 109.421 69.6783C109.61 69.6398 109.807 69.6779 109.968 69.7844C110.129 69.8909 110.241 70.057 110.28 70.2462C110.676 73.2045 111.178 76.1495 111.6 79.1078C111.619 79.2181 111.594 79.3316 111.53 79.4232C111.465 79.5148 111.367 79.5771 111.257 79.5965C111.162 79.6057 111.067 79.5836 110.986 79.5335C110.904 79.4834 110.842 79.4081 110.808 79.3191Z" fill="#EE8194"/>
<path d="M107.731 68.0412C104.469 71.8143 100.213 74.5963 95.4487 76.0708L107.731 68.0412Z" fill="#F4AFBC"/>
<path d="M108.283 68.5694C104.871 72.3448 100.47 75.0897 95.5786 76.4933C95.4648 76.5261 95.3426 76.5126 95.2388 76.4557C95.1349 76.3988 95.0577 76.3031 95.024 76.1896C94.9934 76.0757 95.0062 75.9546 95.0598 75.8497C95.1135 75.7447 95.2043 75.6635 95.3145 75.6217C99.9572 74.1047 104.077 71.3076 107.2 67.5524C107.324 67.4035 107.501 67.309 107.694 67.2893C107.887 67.2695 108.079 67.3261 108.231 67.4468C108.378 67.5723 108.47 67.7505 108.487 67.943C108.504 68.1355 108.445 68.3272 108.323 68.4769L108.283 68.5694Z" fill="#EE8194"/>
<path d="M52.9889 105.363C51.7397 103.083 50.8067 100.644 50.2155 98.1127C47.921 89.3093 47.7715 80.084 49.7797 71.2108L45.6196 55.9572C46.6497 54.861 55.1548 46.0654 68.0709 47.2276C75.2685 47.9728 81.8965 51.4809 86.5601 57.0137L88.1581 59.2853C87.9072 62.653 87.6431 66.0206 87.3922 69.3883C88.2928 70.7704 89.0705 72.2287 89.7165 73.7465C89.8222 73.9974 90.0995 74.6446 90.9579 77.167C91.7503 79.4518 92.2786 81.129 92.3578 81.3667C94.4049 87.6927 102.038 96.4487 96.7292 103.144C95.7554 104.314 94.5266 105.245 93.137 105.865C89.3863 107.991 77.1174 114.436 64.7296 113.314C64.7296 113.314 58.9055 112.772 56.5151 110.197C55.617 109.233 54.6397 107.899 54.6397 107.899C54.0433 107.085 53.4922 106.238 52.9889 105.363Z" fill="#EEF2FA"/>
<path d="M94.3924 109.193C94.1752 109.19 93.9636 109.124 93.7826 109.004C93.6016 108.884 93.4589 108.714 93.3713 108.516C93.2838 108.317 93.255 108.097 93.2885 107.882C93.322 107.668 93.4164 107.467 93.5604 107.305C99.3581 101.005 97.113 95.6961 94.2735 88.9607C93.7585 87.7589 93.2302 86.5043 92.7416 85.2232C92.1988 83.8185 91.7315 82.3857 91.3417 80.9311C90.967 79.4913 90.4585 78.0897 89.8229 76.7446C88.8957 74.7686 87.7906 72.8811 86.5212 71.1054C86.3669 70.8909 86.2922 70.6294 86.3099 70.3658L87.4589 55.2706C87.4799 54.9729 87.6183 54.6957 87.8437 54.5001C88.0691 54.3044 88.363 54.2063 88.6607 54.2273C88.9584 54.2483 89.2356 54.3867 89.4313 54.6121C89.6269 54.8375 89.7251 55.1314 89.704 55.4291L88.5815 70.1413C89.8306 71.9273 90.9221 73.8186 91.8435 75.7937C92.5453 77.2487 93.0984 78.7708 93.4943 80.3368C93.8598 81.7202 94.3006 83.0825 94.815 84.4177C95.2904 85.7383 95.8055 86.9005 96.3074 88.0891C99.2128 94.9697 101.96 101.467 95.1848 108.824C95.0847 108.936 94.9628 109.026 94.8266 109.09C94.6904 109.153 94.5426 109.189 94.3924 109.193Z" fill="#86B3E0"/>
<path d="M107.467 98.4558V98.3898C107.96 97.6853 108.677 97.1686 109.501 96.9238C110.232 96.8773 110.96 97.0513 111.591 97.4233C112.222 97.7953 112.727 98.3483 113.04 99.0105C115.021 102.299 114.572 106.472 113.846 110.249C113.647 111.863 113.088 113.412 112.208 114.779C111.451 115.66 110.425 116.266 109.289 116.505C108.153 116.744 106.969 116.601 105.922 116.1C105.46 115.781 105.066 115.375 104.763 114.903C104.459 114.432 104.252 113.905 104.152 113.353C103.651 110.775 103.686 108.122 104.257 105.559C104.827 102.996 105.92 100.578 107.467 98.4558Z" fill="#A6D1F0"/>
<path d="M112.59 97.0562C109.262 94.7055 103.729 98.0996 103.346 98.3769C102.534 98.8865 101.785 99.4893 101.114 100.173C100.85 102.022 100.612 103.976 100.44 106.023C100.203 108.969 100.097 111.742 100.097 114.317C101.708 114.793 103.306 115.295 104.917 115.638C106.629 116.205 108.475 116.228 110.2 115.704C112.683 114.727 113.911 111.953 114.492 109.352C114.967 107.26 115.18 105.117 115.126 102.973C114.968 100.701 114.4 98.3373 112.59 97.0562Z" fill="#A6D1F0"/>
<path d="M107.89 117.263C106.77 117.236 105.657 117.076 104.575 116.787C103.254 116.457 101.933 116.061 100.613 115.678L99.6618 115.387C99.4293 115.321 99.2248 115.181 99.0794 114.988C98.9339 114.794 98.8556 114.559 98.8562 114.317C98.8562 111.531 98.975 108.705 99.2128 105.931C99.3712 103.963 99.609 101.969 99.8863 100.015C99.9234 99.7755 100.034 99.5539 100.203 99.3807C100.932 98.6399 101.743 97.9843 102.62 97.4262C103.294 97.0036 109.223 93.385 113.185 96.1055C115.034 97.4262 116.012 99.7241 116.091 102.973C116.138 105.193 115.916 107.41 115.431 109.576C114.599 113.287 112.882 115.77 110.465 116.721C109.649 117.066 108.775 117.25 107.89 117.263ZM101.167 113.472H101.326C102.567 113.855 103.862 114.238 105.129 114.555C106.604 115.044 108.19 115.08 109.686 114.661C111.825 113.816 112.829 111.174 113.291 109.101C113.744 107.1 113.948 105.05 113.899 102.999C113.899 100.503 113.185 98.7865 111.944 97.9148C109.738 96.3564 105.71 98.1261 103.888 99.2355C103.258 99.6193 102.665 100.061 102.118 100.556C101.867 102.352 101.669 104.175 101.511 105.984C101.286 108.559 101.194 111.029 101.167 113.472Z" fill="#86B3E0"/>
<path d="M76.6294 111.108C79.8686 111.27 83.0961 111.614 86.2966 112.139C94.6036 113.459 98.7637 114.146 99.6617 114.635C100.249 114.998 100.952 115.125 101.63 114.991C102.056 114.844 102.42 114.555 102.66 114.172C103.307 113.274 102.66 112.588 102.197 111.623C102.794 111.824 103.444 111.785 104.012 111.516C104.58 111.246 105.022 110.767 105.244 110.179C105.467 109.591 105.452 108.939 105.204 108.361C104.956 107.784 104.494 107.324 103.914 107.08C104.668 106.981 105.395 106.734 106.054 106.354C106.379 106.156 106.641 105.869 106.809 105.528C106.977 105.187 107.045 104.804 107.005 104.426C106.833 103.594 106.001 103.105 105.248 102.709C105.765 102.316 106.211 101.838 106.569 101.296C106.74 101.021 106.84 100.708 106.858 100.385C106.877 100.062 106.813 99.7393 106.674 99.447C106.146 98.5357 104.852 98.5093 103.822 98.7206C104.117 98.3353 104.264 97.8574 104.237 97.3731C104.211 96.8887 104.012 96.4299 103.677 96.0793C103.611 96.0793 103.188 95.5378 102.818 95.6567C102.104 96.0869 101.451 96.611 100.877 97.2151C99.649 97.7331 98.3559 98.0797 97.0336 98.2452L92.9264 98.9583" fill="#EEF2FA"/>
<path d="M101.114 116.18C100.413 116.161 99.7286 115.971 99.1194 115.625C98.3931 115.229 93.5331 114.436 86.177 113.248C82.9924 112.737 79.7832 112.393 76.5626 112.218C76.2863 112.177 76.0352 112.034 75.8585 111.818C75.6818 111.601 75.5921 111.327 75.6069 111.048C75.6218 110.769 75.7401 110.505 75.9388 110.309C76.1375 110.113 76.4023 109.997 76.6814 109.986C79.9644 110.155 83.2357 110.503 86.4808 111.029C96.0952 112.587 99.1723 113.103 100.189 113.67C100.349 113.788 100.53 113.872 100.723 113.918C100.916 113.963 101.117 113.969 101.312 113.935C101.495 113.852 101.648 113.713 101.748 113.538C101.853 113.393 101.88 113.353 101.444 112.601L101.285 112.152C101.182 111.956 101.139 111.733 101.161 111.513C101.184 111.292 101.271 111.083 101.413 110.912C101.554 110.741 101.743 110.616 101.955 110.552C102.167 110.488 102.394 110.489 102.606 110.554C102.915 110.621 103.238 110.574 103.516 110.423C103.794 110.272 104.009 110.026 104.121 109.73C104.233 109.434 104.235 109.108 104.126 108.811C104.018 108.513 103.807 108.265 103.53 108.11C103.309 108.018 103.124 107.855 103.002 107.648C102.881 107.441 102.83 107.2 102.857 106.961C102.878 106.725 102.976 106.501 103.136 106.325C103.296 106.149 103.508 106.029 103.742 105.984C104.348 105.902 104.935 105.709 105.472 105.416C105.608 105.338 105.723 105.227 105.806 105.093C105.889 104.96 105.938 104.807 105.947 104.65C105.868 104.254 105.062 103.845 104.785 103.713C104.622 103.626 104.482 103.502 104.376 103.35C104.27 103.199 104.202 103.024 104.178 102.841C104.157 102.656 104.183 102.469 104.252 102.296C104.321 102.124 104.432 101.971 104.574 101.851C104.982 101.539 105.339 101.164 105.63 100.741C105.704 100.637 105.752 100.517 105.771 100.391C105.789 100.264 105.777 100.136 105.736 100.015C105.577 99.7375 104.891 99.6582 104.085 99.8167C103.86 99.8652 103.625 99.8416 103.414 99.7491C103.203 99.6567 103.027 99.5001 102.91 99.3016C102.779 99.1022 102.717 98.866 102.731 98.6282C102.745 98.3903 102.836 98.1634 102.989 97.981C103.122 97.8165 103.194 97.6114 103.194 97.3999C103.194 97.1884 103.122 96.9833 102.989 96.8188C102.554 97.1639 102.139 97.5343 101.748 97.9282C100.382 98.7081 98.8539 99.1602 97.2838 99.2488L93.2029 99.962C93.0562 99.9905 92.9053 99.9895 92.759 99.9589C92.6127 99.9284 92.474 99.8689 92.351 99.784C92.228 99.6991 92.1231 99.5906 92.0427 99.4646C91.9622 99.3387 91.9076 99.198 91.8822 99.0507C91.8283 98.7548 91.8939 98.4495 92.0647 98.2019C92.2356 97.9543 92.4977 97.7846 92.7935 97.73L96.9007 97.0169C98.0387 96.8749 99.1586 96.6137 100.242 96.2377C101.629 94.9171 102.183 94.5737 102.566 94.4548C102.922 94.3725 103.293 94.3934 103.637 94.515C103.981 94.6367 104.283 94.854 104.508 95.1415C104.819 95.4379 105.064 95.7974 105.226 96.196C105.388 96.5945 105.462 97.0229 105.445 97.4527C105.902 97.4746 106.347 97.6061 106.742 97.8359C107.138 98.0658 107.472 98.3873 107.717 98.7734C107.957 99.2334 108.073 99.7479 108.055 100.266C108.036 100.785 107.883 101.29 107.611 101.732C107.474 101.971 107.315 102.196 107.136 102.405C107.663 102.836 108.03 103.432 108.179 104.096C108.265 104.69 108.175 105.296 107.922 105.84C107.669 106.384 107.262 106.843 106.753 107.16C106.57 107.287 106.375 107.398 106.172 107.49C106.42 107.923 106.572 108.404 106.618 108.9C106.663 109.397 106.601 109.898 106.436 110.369C106.247 110.905 105.933 111.389 105.52 111.78C105.106 112.17 104.605 112.456 104.059 112.614C104.159 112.969 104.175 113.342 104.107 113.704C104.038 114.066 103.886 114.407 103.663 114.701C103.274 115.283 102.702 115.72 102.038 115.942C101.744 116.069 101.432 116.15 101.114 116.18Z" fill="#86B3E0"/>
<path d="M60.2515 109.153C55.6484 110.333 50.9838 111.259 46.2789 111.927C36.5588 113.247 34.6835 111.927 33.0723 111.253C30.8932 110.342 30.114 107.014 29.797 103.461C29.4801 99.9086 29.5989 96.7654 31.3026 95.5372C33.2836 94.0581 36.5192 95.2863 36.5192 95.2863L51.3106 98.4559L60.2515 109.153Z" fill="#A6D1F0"/>
<path d="M39.2137 113.644C37.0801 113.76 34.9501 113.356 33.0066 112.468L32.6236 112.297C29.705 111.068 28.9786 107.014 28.6616 103.554C28.3447 100.094 28.3315 96.3034 30.603 94.5866C32.8745 92.8697 36.2026 93.9394 36.8101 94.1507L51.5223 97.3071C51.7665 97.3612 51.9852 97.4961 52.143 97.6901L61.1367 108.427C61.2599 108.573 61.344 108.747 61.381 108.935C61.4179 109.122 61.4066 109.315 61.348 109.497C61.287 109.676 61.1827 109.837 61.0445 109.966C60.9063 110.095 60.7384 110.188 60.5556 110.236C55.9144 111.432 51.2099 112.367 46.4642 113.036C44.064 113.403 41.6415 113.606 39.2137 113.644ZM33.8254 95.8808C33.1676 95.8497 32.5164 96.0252 31.9633 96.3827C30.3917 97.5712 30.7747 101.929 30.9068 103.356C31.2634 107.318 32.135 109.655 33.5481 110.223L33.9839 110.408C35.4234 111.055 37.5893 112.019 46.2264 110.804C50.2994 110.237 54.3413 109.466 58.3369 108.493L50.7299 99.4202L36.229 96.3034H36.0705C35.3385 96.0338 34.5659 95.8909 33.7858 95.8808H33.8254Z" fill="#86B3E0"/>
<path d="M50.1617 96.5937C50.2236 96.2095 50.2502 95.8205 50.241 95.4315C47.9667 95.6007 45.6801 95.3819 43.4792 94.7844C42.7193 94.62 42.0117 94.2707 41.419 93.7675C40.7322 93.0939 40.5605 92.6449 40.0983 92.6449C39.6361 92.6449 38.9097 93.5694 38.7776 94.3486C38.6846 95.053 38.8641 95.7663 39.2795 96.3428C38.8009 96.0399 38.2355 95.9041 37.6716 95.9567C37.1077 96.0093 36.5771 96.2472 36.1627 96.6333C35.9875 96.9269 35.8799 97.2559 35.8479 97.5963C35.8159 97.9368 35.8603 98.28 35.9778 98.6011C36.258 99.228 36.647 99.8004 37.1268 100.292C36.6785 100.371 36.2536 100.55 35.8834 100.815C35.5132 101.08 35.207 101.425 34.9873 101.824C34.8803 102.212 34.8882 102.624 35.0101 103.008C35.1319 103.393 35.3626 103.733 35.6741 103.989C36.2965 104.501 37.0149 104.883 37.7871 105.112C37.2138 105.149 36.6777 105.409 36.2929 105.836C35.9081 106.263 35.7051 106.823 35.7269 107.397C35.7686 107.678 35.8722 107.946 36.0303 108.182C36.1884 108.418 36.397 108.616 36.641 108.761C36.8849 108.906 37.1582 108.996 37.441 109.022C37.7237 109.049 38.0089 109.013 38.2758 108.915C37.891 109.363 37.636 109.907 37.5382 110.489C37.4405 111.071 37.5037 111.669 37.7211 112.217C38.5135 113.775 39.6493 113.01 40.7718 112.759C42.7745 112.459 44.8076 112.419 46.8205 112.64C47.1374 112.653 49.6335 100.595 50.1617 96.5937Z" fill="#EEF2FA"/>
<path d="M39.016 114.278C38.5205 114.28 38.0358 114.133 37.6257 113.855C37.2156 113.576 36.8992 113.181 36.718 112.72C36.314 111.855 36.2435 110.872 36.5199 109.959L36.1501 109.774C35.7336 109.547 35.3774 109.223 35.111 108.831C34.8445 108.438 34.6756 107.987 34.6182 107.516C34.5783 107.098 34.6245 106.676 34.754 106.276C34.8835 105.876 35.0934 105.507 35.371 105.192C35.2125 105.073 35.054 104.954 34.9087 104.822C34.437 104.413 34.0936 103.876 33.9202 103.276C33.7468 102.676 33.7507 102.039 33.9314 101.441C34.2011 100.756 34.7007 100.187 35.3446 99.8299C35.1776 99.5666 35.0361 99.288 34.9219 98.9979C34.7341 98.4977 34.6685 97.9599 34.7305 97.4293C34.7926 96.8986 34.9804 96.3905 35.2785 95.9471C35.5657 95.6029 35.9253 95.3262 36.3316 95.1367C36.7379 94.9473 37.181 94.8497 37.6293 94.851C37.6102 94.6224 37.6102 94.3927 37.6293 94.1642C37.8538 92.8436 38.8311 91.5229 40.0725 91.5229C40.3944 91.5475 40.7066 91.6446 40.9856 91.807C41.2646 91.9694 41.5033 92.1928 41.6837 92.4606C41.8158 92.6058 41.9611 92.7775 42.1459 92.9624C42.6069 93.333 43.1506 93.5867 43.7307 93.702C45.8061 94.2711 47.9634 94.481 50.1095 94.3227C50.4004 94.3038 50.6873 94.3975 50.911 94.5843C51.1347 94.7712 51.2781 95.0369 51.3113 95.3264C51.3306 95.7994 51.2996 96.273 51.2189 96.7395C50.9283 98.9582 50.0831 103.343 49.4492 106.354C47.8908 113.829 47.8116 113.816 46.7022 113.75C44.7899 113.557 42.8614 113.592 40.9574 113.855L40.4291 114.001C39.9746 114.163 39.4983 114.257 39.016 114.278ZM38.2764 107.793C38.4437 107.796 38.6084 107.835 38.7589 107.908C38.9095 107.981 39.0423 108.086 39.148 108.216C39.3012 108.415 39.3842 108.659 39.3842 108.909C39.3842 109.16 39.3012 109.404 39.148 109.603C38.8982 109.887 38.7267 110.231 38.6503 110.602C38.5739 110.972 38.5952 111.356 38.7122 111.716C38.9235 112.138 38.9235 112.138 39.7952 111.861L40.5083 111.663C42.3333 111.37 44.1874 111.303 46.0287 111.465C46.7022 108.956 48.5115 100.252 49.0134 96.6075C47.0417 96.6348 45.0763 96.3814 43.1761 95.8547C42.2208 95.6473 41.3371 95.1918 40.614 94.534C40.4027 94.3227 40.231 94.1378 40.0857 93.9661C39.9818 94.1365 39.9102 94.3245 39.8744 94.5208C39.8235 94.9245 39.9325 95.3322 40.1782 95.6566C40.3313 95.8553 40.4144 96.0991 40.4144 96.3499C40.4144 96.6008 40.3313 96.8446 40.1782 97.0433C40.0191 97.2283 39.8036 97.3557 39.5649 97.4058C39.3261 97.456 39.0775 97.426 38.8575 97.3206C38.0519 96.9112 37.3255 97.0432 37.1406 97.3206C37.0281 97.6048 37.0281 97.9212 37.1406 98.2054C37.3894 98.691 37.71 99.1362 38.0915 99.5261C38.2136 99.6645 38.2983 99.8317 38.3376 100.012C38.3769 100.192 38.3695 100.38 38.316 100.556C38.2715 100.736 38.1812 100.901 38.0539 101.035C37.9266 101.169 37.7666 101.268 37.5897 101.322C37.2463 101.441 36.269 101.732 36.1634 102.167C36.1391 102.349 36.1629 102.533 36.2324 102.703C36.302 102.872 36.4148 103.02 36.5596 103.132C37.079 103.535 37.6707 103.835 38.3028 104.016C38.5466 104.105 38.7514 104.277 38.8817 104.501C39.012 104.726 39.0595 104.989 39.016 105.245C38.9767 105.501 38.85 105.735 38.6574 105.909C38.4648 106.082 38.2182 106.183 37.9595 106.195C37.8139 106.208 37.6723 106.25 37.5431 106.318C37.4138 106.386 37.2994 106.479 37.2067 106.592C37.1245 106.677 37.0609 106.779 37.02 106.89C36.9791 107.002 36.9617 107.12 36.969 107.239C36.991 107.354 37.0394 107.463 37.1104 107.557C37.1814 107.651 37.2731 107.728 37.3784 107.78C37.4561 107.835 37.5456 107.871 37.6397 107.884C37.7337 107.898 37.8297 107.89 37.9198 107.859C38.0348 107.82 38.155 107.798 38.2764 107.793Z" fill="#86B3E0"/>
<path d="M57.2554 109.788C59.3571 111.29 61.6964 112.429 64.1756 113.155C68.3753 114.37 71.8223 114.04 76.3257 113.552C80.1186 113.132 83.8609 112.341 87.4985 111.188" fill="#EEF2FA"/>
<path d="M70.2499 115.109C68.0876 115.126 65.9344 114.827 63.8579 114.224C61.2572 113.472 58.8048 112.279 56.6075 110.698C56.4855 110.615 56.3815 110.508 56.3018 110.384C56.222 110.26 56.1683 110.121 56.1436 109.975C56.1189 109.829 56.1239 109.68 56.1582 109.537C56.1925 109.393 56.2555 109.258 56.3434 109.14C56.4276 109.019 56.535 108.916 56.6593 108.838C56.7836 108.759 56.9222 108.706 57.0673 108.681C57.2123 108.657 57.3607 108.661 57.504 108.695C57.6473 108.728 57.7824 108.789 57.9017 108.875C59.9085 110.303 62.1406 111.383 64.505 112.071C68.5859 113.26 71.9536 112.89 76.2325 112.428C79.9537 112.022 83.6255 111.247 87.194 110.117C87.4777 110.03 87.7842 110.059 88.0465 110.198C88.3089 110.336 88.5057 110.573 88.5939 110.856C88.639 110.996 88.6558 111.143 88.6436 111.289C88.6314 111.435 88.5904 111.578 88.5229 111.708C88.4553 111.838 88.3626 111.954 88.2501 112.048C88.1376 112.142 88.0076 112.213 87.8676 112.256C84.1587 113.438 80.3404 114.243 76.4702 114.66C74.4067 114.924 72.3301 115.074 70.2499 115.109Z" fill="#86B3E0"/>
<path d="M42.0541 109.602C40.7334 116.021 48.2084 117.222 53.0288 117.341C59.2095 117.486 63.145 116.932 62.9337 109.946C59.8738 107.334 55.9681 105.926 51.9459 105.984C48.3393 106.064 44.8609 107.336 42.0541 109.602Z" fill="#A6D1F0"/>
<path d="M54.5473 118.477H53.0022C49.3043 118.385 44.3914 117.672 42.0935 114.806C41.506 114.051 41.0975 113.173 40.8984 112.237C40.6994 111.302 40.7152 110.333 40.9445 109.405C40.9935 109.144 41.134 108.91 41.3407 108.744C44.5057 106.161 48.4828 104.78 52.5679 104.848C56.653 104.916 60.5823 106.427 63.6599 109.114C63.7776 109.217 63.8734 109.342 63.9414 109.483C64.0095 109.624 64.0485 109.777 64.0561 109.933C64.1485 112.891 63.5278 115.004 62.1543 116.378C60.345 118.16 57.5981 118.477 54.5473 118.477ZM43.084 110.21C42.9776 110.762 42.9897 111.329 43.1195 111.876C43.2493 112.422 43.4938 112.935 43.8367 113.38C45.1574 115.097 48.4987 116.1 53.0814 116.219C56.8453 116.298 59.2753 116.1 60.5828 114.793C61.5682 113.585 62.0422 112.04 61.9034 110.487C59.1134 108.243 55.632 107.034 52.0513 107.067C48.8034 107.131 45.6613 108.233 43.084 110.21Z" fill="#86B3E0"/>
<path d="M56.2243 118.107C55.6696 117.143 55.7753 116.087 57.4129 115.466C57.8703 115.269 58.3742 115.204 58.8664 115.281C59.3586 115.358 59.8191 115.572 60.1947 115.9C60.5703 116.227 60.8457 116.654 60.9891 117.131C61.1325 117.608 61.138 118.116 61.0051 118.596C60.9606 118.914 60.8417 119.218 60.6582 119.481C60.4746 119.745 60.2315 119.962 59.9485 120.115C59.568 120.222 59.1669 120.235 58.7803 120.152C58.3936 120.069 58.0331 119.893 57.7298 119.639C57.1156 119.253 56.6001 118.728 56.2243 118.107Z" fill="#FFDF0C"/>
<path d="M59.3538 121.105C58.6021 121.062 57.8783 120.805 57.2671 120.365C56.5324 119.903 55.9171 119.274 55.471 118.53C55.2655 118.213 55.1339 117.853 55.0859 117.478C55.0379 117.103 55.0747 116.723 55.1937 116.364C55.3687 115.958 55.6311 115.597 55.9621 115.304C56.2932 115.012 56.6847 114.797 57.1087 114.673C57.7007 114.425 58.3483 114.34 58.9844 114.426C59.6205 114.512 60.2222 114.766 60.7273 115.162C61.2234 115.605 61.5891 116.175 61.7846 116.81C61.9801 117.446 61.9981 118.122 61.8366 118.767C61.7729 119.221 61.6002 119.653 61.3334 120.025C61.0667 120.398 60.7137 120.7 60.3047 120.907C60.0048 121.038 59.681 121.106 59.3538 121.105ZM56.9634 117.685C57.2792 118.186 57.7034 118.61 58.2048 118.926C58.5482 119.164 59.1953 119.52 59.6047 119.335C59.7578 119.239 59.8871 119.11 59.9832 118.956C60.0792 118.803 60.1395 118.63 60.1594 118.45C60.2522 118.105 60.2522 117.741 60.1594 117.396C60.0667 117.05 59.8845 116.735 59.6311 116.483C59.359 116.281 59.0377 116.156 58.7008 116.121C58.3639 116.086 58.0238 116.143 57.7162 116.285C57.3379 116.377 57.0109 116.614 56.8049 116.945C56.7578 117.203 56.8148 117.469 56.9634 117.685Z" fill="#86B3E0"/>
<path d="M49.9247 118.491C49.7899 118.247 49.7088 117.976 49.687 117.698C49.6746 117.432 49.7151 117.166 49.8062 116.915C49.8972 116.664 50.037 116.434 50.2175 116.237C50.398 116.041 50.6156 115.882 50.8577 115.77C51.0999 115.658 51.3618 115.595 51.6284 115.585C52.346 115.543 53.0661 115.601 53.7679 115.757C54.8112 115.955 56.013 116.338 55.7357 117.646C55.4055 119.164 53.8867 121.608 52.1567 120.564C51.248 120.075 50.4796 119.361 49.9247 118.491Z" fill="#FFDF0C"/>
<path d="M52.9755 121.66C52.5391 121.654 52.1116 121.536 51.734 121.317C50.6914 120.738 49.8105 119.907 49.172 118.9C48.9816 118.549 48.8648 118.162 48.8286 117.764C48.8054 117.386 48.8576 117.006 48.9822 116.648C49.1068 116.29 49.3013 115.96 49.5543 115.677C49.8074 115.395 50.114 115.165 50.4565 115.002C50.7989 114.839 51.1703 114.745 51.5492 114.727C52.3463 114.673 53.1471 114.735 53.9264 114.912C54.3907 114.962 54.8402 115.105 55.2485 115.332C55.6567 115.559 56.0155 115.865 56.3035 116.232C56.4612 116.473 56.5673 116.745 56.615 117.029C56.6627 117.313 56.6511 117.604 56.5809 117.883C56.4187 118.638 56.0998 119.35 55.6448 119.973C55.1898 120.597 54.6088 121.117 53.9396 121.502C53.6308 121.614 53.3039 121.668 52.9755 121.66ZM52.0906 116.378H51.7076C51.3958 116.384 51.0988 116.512 50.8795 116.734C50.6601 116.956 50.5356 117.254 50.5323 117.566C50.5532 117.725 50.6071 117.878 50.6907 118.015C51.1721 118.735 51.8199 119.329 52.5793 119.745C52.6892 119.81 52.8147 119.845 52.9425 119.845C53.0702 119.845 53.1957 119.81 53.3056 119.745C54.1314 119.183 54.7048 118.321 54.9036 117.342C54.928 117.285 54.9405 117.225 54.9405 117.163C54.9405 117.102 54.928 117.041 54.9036 116.985C54.8112 116.853 54.5207 116.655 53.583 116.483C53.0884 116.418 52.5891 116.396 52.0906 116.417V116.378Z" fill="#86B3E0"/>
<path d="M49.1983 117.79C49.3207 117.529 49.3858 117.244 49.3891 116.956C49.3925 116.667 49.334 116.382 49.2176 116.118C49.1013 115.854 48.9297 115.618 48.7145 115.425C48.4993 115.233 48.2455 115.089 47.9701 115.003C45.8966 114.158 44.4439 114.845 44.0081 117.13C43.946 117.349 43.9281 117.579 43.9553 117.806C43.9825 118.033 44.0543 118.252 44.1665 118.45C45.1174 119.811 48.4587 119.111 49.1983 117.79Z" fill="#FFDF0C"/>
<path d="M45.9888 120.075C45.5091 120.109 45.0279 120.032 44.5833 119.848C44.1386 119.665 43.7427 119.381 43.4267 119.018C43.2235 118.72 43.0895 118.381 43.0347 118.024C42.9799 117.668 43.0055 117.303 43.1097 116.958C43.1568 116.375 43.3504 115.813 43.6727 115.324C43.995 114.836 44.4354 114.437 44.9532 114.164C45.4709 113.891 46.0492 113.754 46.6343 113.764C47.2194 113.775 47.7923 113.933 48.2999 114.224C48.7166 114.387 49.0942 114.636 49.4083 114.955C49.7223 115.273 49.9656 115.654 50.1224 116.073C50.2451 116.422 50.2933 116.793 50.2637 117.161C50.2341 117.53 50.1275 117.888 49.9508 118.213C49.5372 118.773 49.0007 119.231 48.3826 119.551C47.7645 119.872 47.0811 120.046 46.385 120.062L45.9888 120.075ZM46.4114 115.532C46.1824 115.522 45.9548 115.572 45.7511 115.677C45.486 115.872 45.2637 116.119 45.0978 116.403C44.932 116.686 44.8262 117.001 44.787 117.328C44.709 117.537 44.709 117.766 44.787 117.975C44.9918 118.141 45.2302 118.259 45.4857 118.323C45.7412 118.387 46.0075 118.395 46.2661 118.345C46.6739 118.347 47.078 118.268 47.4545 118.111C47.8311 117.955 48.1724 117.724 48.4584 117.434C48.5126 117.318 48.5407 117.192 48.5407 117.064C48.5407 116.936 48.5126 116.81 48.4584 116.694C48.3856 116.499 48.2711 116.322 48.1228 116.176C47.9745 116.03 47.7961 115.918 47.6 115.849C47.2272 115.667 46.8244 115.555 46.4114 115.519V115.532Z" fill="#86B3E0"/>
<path d="M59.0245 91.8663C60.1597 93.4592 61.05 95.2131 61.6658 97.0696C62.0885 99.1827 62.7092 106.526 62.9865 108.031C63.2638 109.537 63.2638 110.752 62.9865 111.003C62.7092 111.254 59.9094 111.425 59.1302 109.999C58.9585 110.91 58.9189 111.94 57.0171 111.755C56.0926 111.676 54.7192 110.989 54.5079 110.091C54.3166 110.457 54.0448 110.774 53.7131 111.018C53.3813 111.263 52.9983 111.429 52.5929 111.504C52.0406 111.571 51.4815 111.461 50.9953 111.19C50.5092 110.92 50.1208 110.503 49.8855 109.999C49.6885 110.459 49.3447 110.842 48.9077 111.087C48.4707 111.332 47.9649 111.425 47.4693 111.353C46.9736 111.281 46.5157 111.046 46.1669 110.687C45.818 110.327 45.5978 109.863 45.5406 109.365C45.2225 109.732 44.8311 110.029 44.3916 110.237C43.6652 110.567 42.437 110.791 41.9087 110.237C41.3805 109.682 42.4766 106.446 43.4407 103.105C43.5199 102.524 43.6256 101.6 43.7577 100.464C44.7482 91.1002 43.9558 87.6797 44.8274 82.8593C45.5206 79.197 46.9346 75.7089 48.9875 72.5978C49.059 70.8321 48.9662 69.0636 48.7102 67.3151C47.9175 62.1567 45.8169 57.2873 42.6087 53.1708" fill="#EEF2FA"/>
<path d="M57.3469 112.904H56.8583C55.961 112.799 55.1106 112.447 54.4018 111.887C53.9124 112.287 53.3237 112.547 52.6982 112.64C52.188 112.705 51.6698 112.664 51.1764 112.518C50.6831 112.373 50.2254 112.126 49.8323 111.794C49.4822 112.074 49.08 112.28 48.6493 112.403C48.2185 112.525 47.7677 112.561 47.3231 112.508C46.8717 112.451 46.4361 112.305 46.0416 112.078C45.6471 111.851 45.3016 111.548 45.0251 111.187L44.8138 111.293C43.9026 111.702 42.0933 112.138 41.0631 111.095C40.033 110.051 40.6141 108.651 41.9216 104.187L42.2914 102.946C42.2914 102.365 42.4763 101.48 42.5819 100.424C42.9524 96.9138 43.1463 93.3876 43.163 89.8583C43.1256 87.4662 43.298 85.0755 43.6781 82.7135C44.377 79.0139 45.7852 75.4845 47.825 72.3199C47.8651 70.7257 47.7723 69.131 47.5476 67.5523C46.7994 62.5817 44.7745 57.8902 41.6707 53.9363C41.5459 53.6991 41.5102 53.4251 41.5698 53.1638C41.6295 52.9026 41.7807 52.6713 41.9961 52.5117C42.2114 52.3522 42.4767 52.275 42.744 52.2941C43.0113 52.3131 43.263 52.4272 43.4536 52.6156C46.7852 56.8683 48.964 61.9082 49.7795 67.2485C50.0419 69.0585 50.1391 70.8885 50.0701 72.7161C50.0661 72.9176 50.0067 73.1141 49.8984 73.284C47.9455 76.277 46.5994 79.6244 45.9364 83.1361C45.5853 85.3768 45.4263 87.6434 45.461 89.9111C45.4442 93.5022 45.2458 97.0902 44.8667 100.661C44.7478 101.797 44.6289 102.735 44.5497 103.303C44.556 103.36 44.556 103.417 44.5497 103.474L44.1535 104.795C43.6624 106.334 43.2568 107.899 42.9385 109.483C43.2905 109.456 43.6348 109.367 43.9554 109.219C44.248 109.086 44.5091 108.893 44.7214 108.651C44.862 108.485 45.0484 108.364 45.2574 108.303C45.4664 108.242 45.6888 108.243 45.8968 108.308C46.1032 108.373 46.2865 108.495 46.4247 108.662C46.563 108.828 46.6502 109.031 46.676 109.246C46.7083 109.502 46.8241 109.74 47.0056 109.924C47.187 110.108 47.4239 110.227 47.6797 110.263C47.929 110.293 48.1815 110.241 48.3985 110.115C48.6156 109.989 48.7852 109.795 48.8815 109.563C48.9671 109.366 49.1071 109.199 49.2849 109.079C49.4628 108.96 49.6711 108.894 49.8852 108.889C50.0979 108.876 50.3095 108.927 50.4931 109.035C50.6766 109.144 50.8236 109.304 50.9153 109.497C51.0465 109.789 51.2662 110.033 51.5434 110.194C51.8206 110.355 52.1413 110.425 52.4605 110.395C52.6888 110.347 52.9041 110.251 53.0912 110.112C53.2783 109.973 53.4326 109.794 53.5434 109.589C53.6487 109.386 53.8133 109.221 54.0152 109.114C54.2172 109.007 54.4469 108.965 54.6736 108.992C54.9004 109.019 55.1134 109.115 55.2843 109.266C55.4552 109.418 55.5758 109.618 55.63 109.84C55.8147 110.069 56.0427 110.259 56.3011 110.4C56.5595 110.54 56.8431 110.628 57.1356 110.659C57.3777 110.725 57.6331 110.725 57.8752 110.659C57.9455 110.467 57.9942 110.267 58.0205 110.064V109.853C58.0637 109.626 58.176 109.418 58.342 109.257C58.5079 109.096 58.7195 108.991 58.9477 108.955C59.176 108.918 59.4098 108.954 59.6173 109.055C59.8248 109.157 59.9959 109.32 60.1071 109.523C60.3977 110.051 61.4278 110.21 62.0749 110.17C62.0621 109.529 62.0047 108.889 61.9032 108.255C61.7975 107.634 61.6259 105.997 61.441 104.121C61.1768 101.625 60.8599 98.535 60.6222 97.3596C60.2694 96.1008 59.702 94.9124 58.9449 93.8467C58.6676 93.3977 58.3903 92.9354 58.1261 92.526C57.985 92.2649 57.953 91.9586 58.0371 91.6739C58.1213 91.3893 58.3147 91.1496 58.5751 91.0072C58.7032 90.9351 58.8444 90.8891 58.9904 90.8719C59.1364 90.8548 59.2844 90.8669 59.4257 90.9074C59.567 90.948 59.6989 91.0162 59.8136 91.1082C59.9283 91.2001 60.0236 91.314 60.0939 91.4431C60.3316 91.8657 60.5957 92.3015 60.8599 92.7637C61.758 94.0496 62.4198 95.4851 62.8145 97.0031C63.0786 98.3237 63.3955 101.308 63.6729 103.976C63.8578 105.746 64.0294 107.41 64.1219 108.004C64.4785 110.5 64.3596 111.517 63.6597 112.059C62.7305 112.535 61.6588 112.652 60.6486 112.389C60.3021 112.319 59.9652 112.208 59.6449 112.059C59.3628 112.38 59.0048 112.626 58.6034 112.774C58.202 112.921 57.7701 112.966 57.3469 112.904Z" fill="#86B3E0"/>
<path d="M87.7232 107.41H67.0152C66.4077 109.8 65.4965 113.115 66.5134 115.215C68.1642 118.622 75.4411 118.067 78.3994 117.737C80.4835 117.529 82.5791 117.459 84.6725 117.526C87.8553 117.526 88.5552 115.307 88.1854 112.573C87.9609 110.83 87.8157 109.14 87.7232 107.41Z" fill="#A6D1F0"/>
<path d="M74.2238 119.111C69.5354 119.111 66.6035 117.975 65.4942 115.704C64.3848 113.432 65.2036 109.946 65.8376 107.476L65.9168 107.133C65.9828 106.892 66.1255 106.679 66.3233 106.527C66.5211 106.374 66.7632 106.29 67.0129 106.287H87.7209C88.0076 106.287 88.2835 106.396 88.4922 106.593C88.7009 106.789 88.8266 107.058 88.8435 107.344C88.9491 109.338 89.0944 110.949 89.3057 112.429C89.4964 113.262 89.5043 114.127 89.3288 114.963C89.1532 115.8 88.7984 116.589 88.2888 117.275C87.8205 117.753 87.2512 118.119 86.6227 118.348C85.9942 118.576 85.3226 118.661 84.657 118.596C82.6075 118.529 80.5559 118.6 78.5159 118.807C77.0918 118.987 75.6589 119.088 74.2238 119.111ZM67.8846 108.546C67.3695 110.619 66.7884 113.234 67.5148 114.74C68.426 116.602 72.3484 117.302 78.265 116.641C80.3976 116.431 82.5413 116.356 84.6834 116.417C85.0309 116.47 85.3859 116.441 85.7205 116.333C86.0551 116.226 86.3601 116.042 86.6116 115.796C86.8905 115.343 87.0752 114.838 87.1546 114.311C87.234 113.785 87.2065 113.248 87.0738 112.732C86.9021 111.478 86.77 110.091 86.6644 108.546H67.8846Z" fill="#86B3E0"/>
<path d="M70.3161 91.8791C69.5294 94.4742 68.9292 97.1223 68.52 99.803C68.1106 102.127 67.5295 104.386 67.1201 106.697C66.9352 107.714 65.3768 111.531 66.2089 112.363C66.7503 112.917 68.0446 112.68 68.8502 112.363C69.3145 112.154 69.7254 111.842 70.052 111.451C70.109 111.975 70.3386 112.466 70.7047 112.845C71.0707 113.224 71.5525 113.471 72.0743 113.547C72.596 113.622 73.1281 113.522 73.5868 113.263C74.0455 113.003 74.4048 112.598 74.6083 112.112C74.8577 112.638 75.2653 113.074 75.7743 113.358C76.2833 113.643 76.8683 113.761 77.4477 113.696C77.8705 113.613 78.2695 113.437 78.6165 113.181C78.9634 112.925 79.2498 112.596 79.4551 112.217C79.6796 113.155 81.1191 113.868 82.0964 113.961C84.0906 114.145 84.1302 113.076 84.3151 112.125C85.1339 113.617 87.8413 113.564 88.3564 113.168C88.8714 112.772 88.6205 111.557 88.3564 110.065C87.7629 106.415 87.4713 102.722 87.4847 99.0239C87.4318 96.6006 87.5024 94.1763 87.696 91.7602" fill="#EEF2FA"/>
<path d="M82.4537 115.004H81.9386C80.9746 114.905 80.0585 114.534 79.2973 113.935C78.7809 114.356 78.1604 114.63 77.5012 114.727C76.9685 114.796 76.4273 114.751 75.913 114.597C75.3987 114.442 74.9228 114.18 74.5165 113.829C74.1486 114.124 73.7254 114.343 73.2718 114.472C72.8182 114.601 72.3434 114.639 71.8752 114.582C71.401 114.523 70.9439 114.368 70.5326 114.124C70.1213 113.881 69.7646 113.556 69.4848 113.169L69.2207 113.301C68.283 113.737 66.4076 114.172 65.3379 113.116C64.2682 112.059 64.8229 110.171 65.6285 107.569C65.7737 107.094 65.9058 106.684 65.9454 106.446C66.1435 105.35 66.3812 104.254 66.619 103.158C66.8567 102.062 67.134 100.781 67.3453 99.5658C67.7669 96.858 68.3803 94.1835 69.181 91.5626C69.2721 91.2789 69.4721 91.043 69.7371 90.9068C70.0022 90.7705 70.3104 90.7452 70.5942 90.8362C70.8779 90.9273 71.1138 91.1274 71.25 91.3924C71.3862 91.6574 71.4116 91.9656 71.3205 92.2493C70.5528 94.7708 69.9659 97.3439 69.564 99.9488C69.3395 101.19 69.0754 102.418 68.8113 103.633C68.5471 104.848 68.349 105.773 68.1509 106.856C68.1509 107.146 67.9528 107.635 67.7679 108.177C67.3902 109.249 67.1376 110.361 67.0151 111.491C67.4698 111.492 67.9196 111.397 68.3358 111.214C68.6467 111.063 68.925 110.852 69.1546 110.593C69.2952 110.427 69.4816 110.306 69.6906 110.245C69.8996 110.184 70.122 110.186 70.33 110.25C70.5364 110.315 70.7198 110.437 70.858 110.604C70.9962 110.77 71.0835 110.973 71.1092 111.188C71.1479 111.467 71.2752 111.727 71.4725 111.929C71.6698 112.131 71.9267 112.265 72.2054 112.31C72.4777 112.335 72.751 112.275 72.9876 112.137C73.2241 112 73.4123 111.793 73.526 111.544C73.61 111.348 73.7483 111.179 73.9247 111.059C74.1011 110.938 74.3083 110.87 74.5219 110.863C74.7355 110.856 74.9466 110.911 75.1305 111.019C75.3143 111.128 75.4633 111.288 75.5598 111.478C75.7056 111.792 75.9451 112.054 76.2455 112.226C76.5458 112.399 76.8922 112.474 77.2371 112.442C77.4835 112.388 77.7157 112.283 77.9183 112.133C78.1209 111.982 78.2894 111.791 78.4125 111.571C78.5157 111.367 78.6785 111.2 78.879 111.092C79.0795 110.983 79.3084 110.938 79.535 110.963C79.7626 110.995 79.9756 111.093 80.1472 111.246C80.3188 111.399 80.4413 111.599 80.4991 111.822C80.6937 112.075 80.9383 112.285 81.2178 112.44C81.4973 112.594 81.8056 112.69 82.1235 112.72C82.9687 112.786 82.9687 112.786 83.114 111.993V111.769C83.1592 111.543 83.2729 111.336 83.4397 111.177C83.6065 111.017 83.8183 110.913 84.0462 110.879C84.2742 110.844 84.5073 110.881 84.7139 110.983C84.9204 111.086 85.0904 111.249 85.2007 111.452C85.5176 112.033 86.7195 112.205 87.3534 112.138C87.353 111.453 87.2955 110.768 87.1817 110.091C86.5858 106.393 86.2942 102.652 86.31 98.9055C86.2552 96.4427 86.3258 93.9787 86.5213 91.523C86.5637 91.2388 86.7134 90.9817 86.9397 90.8046C87.1659 90.6275 87.4514 90.5439 87.7374 90.5709C88.0235 90.598 88.2882 90.7337 88.4772 90.9502C88.6662 91.1666 88.765 91.4472 88.7533 91.7343C88.5675 94.1111 88.5014 96.4957 88.5551 98.8791C88.5418 102.515 88.8244 106.145 89.4004 109.735C89.7702 112.376 89.6513 113.38 88.925 113.935C87.9685 114.43 86.8607 114.548 85.8214 114.265C85.4468 114.192 85.083 114.072 84.7384 113.908C84.48 114.268 84.1353 114.557 83.7361 114.748C83.3369 114.94 82.8959 115.028 82.4537 115.004Z" fill="#86B3E0"/>
<path d="M73.3403 118.755C73.8949 117.791 73.7761 116.734 72.1385 116.113C71.6817 115.92 71.1795 115.858 70.6895 115.937C70.1995 116.015 69.7415 116.23 69.368 116.557C68.9944 116.883 68.7205 117.309 68.5775 117.784C68.4345 118.259 68.4283 118.765 68.5595 119.243C68.6016 119.561 68.718 119.864 68.8993 120.128C69.0806 120.392 69.3216 120.609 69.6028 120.762C69.9834 120.869 70.3844 120.882 70.771 120.799C71.1577 120.716 71.5183 120.54 71.8215 120.287C72.4367 119.897 72.9559 119.373 73.3403 118.755Z" fill="#FFDF0C"/>
<path d="M70.197 121.686C69.8739 121.687 69.5545 121.619 69.2593 121.488C68.8468 121.281 68.4907 120.977 68.2216 120.602C67.9525 120.227 67.7783 119.792 67.7141 119.335C67.5566 118.692 67.5766 118.018 67.772 117.386C67.9674 116.753 68.3308 116.185 68.8235 115.743C69.3292 115.348 69.9307 115.095 70.5666 115.009C71.2025 114.923 71.8498 115.008 72.4421 115.254C72.8689 115.375 73.2634 115.59 73.5969 115.882C73.9305 116.174 74.1947 116.537 74.3702 116.945C74.4811 117.305 74.5137 117.684 74.4659 118.058C74.4181 118.431 74.2909 118.79 74.0929 119.111C73.6397 119.85 73.0258 120.477 72.2968 120.946C71.6819 121.389 70.9532 121.645 70.197 121.686ZM70.9761 116.694C70.5954 116.689 70.2255 116.82 69.9328 117.064C69.676 117.314 69.4914 117.629 69.3984 117.975C69.3055 118.321 69.3076 118.686 69.4045 119.031C69.4245 119.211 69.4847 119.384 69.5808 119.537C69.6768 119.69 69.8062 119.82 69.9592 119.916C70.3554 120.101 71.0025 119.745 71.3459 119.507C71.8539 119.195 72.2832 118.77 72.6006 118.265C72.6754 118.159 72.727 118.039 72.752 117.911C72.777 117.784 72.7749 117.652 72.7459 117.526C72.6666 117.288 72.3364 117.05 71.8478 116.866C71.569 116.76 71.2743 116.701 70.9761 116.694Z" fill="#86B3E0"/>
<path d="M79.6275 119.071C79.7586 118.825 79.8436 118.556 79.8784 118.279C79.8999 117.742 79.7077 117.218 79.3439 116.822C78.9801 116.426 78.4743 116.19 77.9371 116.166C77.2194 116.123 76.4993 116.181 75.7976 116.338C74.7543 116.536 73.5393 116.919 73.8166 118.213C74.1468 119.745 75.6655 122.175 77.3956 121.145C78.3043 120.656 79.0726 119.942 79.6275 119.071Z" fill="#FFDF0C"/>
<path d="M76.5749 122.242C76.224 122.238 75.8776 122.162 75.558 122.017C74.8994 121.628 74.3299 121.104 73.8863 120.481C73.4427 119.858 73.1349 119.148 72.9827 118.398C72.9118 118.118 72.8986 117.825 72.9441 117.539C72.9895 117.253 73.0924 116.979 73.2468 116.734C73.8484 116.028 74.7007 115.583 75.624 115.493C76.4078 115.317 77.2129 115.255 78.0144 115.308C78.3933 115.327 78.7647 115.42 79.1071 115.583C79.4496 115.746 79.7562 115.976 80.0093 116.259C80.2623 116.541 80.4568 116.871 80.5814 117.229C80.7059 117.588 80.7581 117.967 80.735 118.346C80.6943 118.739 80.5776 119.12 80.3916 119.468C79.7561 120.486 78.8692 121.323 77.8163 121.898C77.4392 122.118 77.0114 122.237 76.5749 122.242ZM77.4597 116.959C76.9532 116.974 76.4493 117.036 75.9542 117.144C75.0693 117.316 74.7656 117.514 74.6335 117.646C74.5015 117.778 74.5675 117.751 74.6335 118.002C74.8324 118.981 75.4058 119.844 76.2315 120.406C76.3395 120.47 76.4626 120.504 76.5881 120.504C76.7135 120.504 76.8367 120.47 76.9447 120.406C77.7129 119.991 78.3663 119.392 78.8464 118.663C78.9214 118.523 78.9706 118.371 78.9917 118.214C78.9934 118.058 78.9643 117.904 78.906 117.76C78.8478 117.616 78.7615 117.484 78.6521 117.374C78.5428 117.263 78.4126 117.176 78.2692 117.116C78.1257 117.056 77.9718 117.025 77.8163 117.025L77.4597 116.959Z" fill="#86B3E0"/>
<path d="M79.9156 119.257C79.7932 118.995 79.7281 118.711 79.7247 118.422C79.7214 118.134 79.7799 117.848 79.8962 117.584C80.0126 117.32 80.1841 117.084 80.3993 116.892C80.6145 116.7 80.8684 116.556 81.1438 116.47C83.2173 115.625 84.67 116.311 85.1718 118.596C85.2339 118.816 85.2518 119.046 85.2246 119.272C85.1974 119.499 85.1256 119.718 85.0134 119.917C83.9964 121.277 80.642 120.577 79.9156 119.257Z" fill="#FFDF0C"/>
<path d="M83.1259 121.528H82.7298C82.034 121.518 81.3499 121.347 80.7312 121.029C80.1126 120.71 79.5761 120.253 79.1639 119.692C78.9872 119.367 78.8806 119.009 78.851 118.64C78.8214 118.272 78.8695 117.901 78.9923 117.552C79.152 117.133 79.3979 116.752 79.7141 116.433C80.0303 116.115 80.4097 115.866 80.828 115.704C81.334 115.408 81.9069 115.246 82.4928 115.234C83.0786 115.221 83.658 115.358 84.1762 115.632C84.6943 115.905 85.1342 116.307 85.4542 116.798C85.7742 117.288 85.9637 117.853 86.005 118.437C86.1092 118.783 86.1349 119.147 86.08 119.503C86.0252 119.86 85.8912 120.2 85.688 120.498C85.3676 120.853 84.9702 121.13 84.5262 121.309C84.0821 121.488 83.6032 121.562 83.1259 121.528ZM82.7033 116.985C82.2802 117 81.8637 117.094 81.4751 117.262C81.282 117.333 81.1059 117.444 80.9581 117.587C80.8103 117.731 80.694 117.903 80.6167 118.094C80.5631 118.212 80.5353 118.34 80.5353 118.47C80.5353 118.6 80.5631 118.728 80.6167 118.847C80.8978 119.143 81.2354 119.38 81.6098 119.543C81.9841 119.706 82.3874 119.793 82.7958 119.798C83.0544 119.845 83.3202 119.836 83.5752 119.772C83.8303 119.708 84.0688 119.591 84.2749 119.428C84.3529 119.219 84.3529 118.989 84.2749 118.781C84.2357 118.454 84.1299 118.139 83.964 117.855C83.7982 117.571 83.5759 117.324 83.3109 117.13C83.1229 117.034 82.9145 116.984 82.7033 116.985Z" fill="#86B3E0"/>
<path d="M61.8373 8.33396C61.0185 7.79249 57.7828 5.29645 56.2773 4.50405C54.2922 3.30582 52.1371 2.41527 49.8853 1.86273C47.5873 1.4137 44.8007 0.872225 42.9254 2.35137C39.6897 4.88704 41.7632 11.8337 42.0405 12.7318C42.5849 14.6919 43.5747 16.4998 44.9328 18.0144C45.9001 19.0517 47.0394 19.914 48.3005 20.5633L61.8373 8.33396Z" fill="#EEF2FA"/>
<path d="M51.1001 3.02499C51.0136 2.91833 50.9162 2.82096 50.8096 2.73444C50.5786 2.54998 50.3258 2.39474 50.0568 2.27222C49.3772 1.95319 48.6699 1.6968 47.9437 1.50624C46.6725 1.02978 45.2792 0.987984 43.9817 1.38738C41.5913 2.36467 41.0895 5.94366 41.697 8.08313C42.3397 7.6253 43.0265 7.18508 43.7572 6.76247C46.0809 5.28672 48.5396 4.03526 51.1001 3.02499Z" fill="#A6D1F0"/>
<path d="M48.2991 21.6598C48.1249 21.6597 47.953 21.619 47.7972 21.541C46.42 20.8332 45.1738 19.8952 44.1126 18.7676C42.6554 17.1371 41.5815 15.2013 40.9694 13.102C40.2034 10.5267 38.7771 4.24031 42.2901 1.50654C44.588 -0.28956 47.7972 0.344359 50.2141 0.806591C52.5692 1.37442 54.8261 2.29143 56.9098 3.52715C58.1435 4.24112 59.3261 5.03984 60.4492 5.91755C60.885 6.24771 61.2548 6.52505 61.5057 6.68353C61.628 6.76418 61.7332 6.86812 61.8153 6.98942C61.8974 7.11071 61.9548 7.24699 61.9842 7.39048C62.0136 7.53396 62.0145 7.68183 61.9868 7.82565C61.9591 7.96948 61.9033 8.10644 61.8227 8.22871C61.742 8.35098 61.6381 8.45618 61.5168 8.53828C61.3955 8.62038 61.2592 8.67778 61.1157 8.70721C60.9722 8.73664 60.8244 8.73752 60.6805 8.70981C60.5367 8.68209 60.3998 8.62632 60.2775 8.54567C60.0002 8.36078 59.604 8.05703 59.1153 7.70045C58.085 6.89692 57.0042 6.16025 55.8797 5.49495C53.9846 4.35759 51.9271 3.51589 49.7782 2.9989C47.7444 2.58949 45.2219 2.08763 43.7296 3.26302C41.7882 4.79499 42.1976 9.02111 43.2277 12.5077C43.7321 14.2858 44.6355 15.9253 45.8691 17.3016C46.7473 18.2454 47.7843 19.0277 48.933 19.6128C49.0637 19.6797 49.1799 19.772 49.2747 19.8841C49.3695 19.9963 49.4411 20.1262 49.4853 20.2662C49.5296 20.4063 49.5456 20.5537 49.5324 20.7C49.5192 20.8463 49.477 20.9885 49.4084 21.1184C49.2993 21.3096 49.1351 21.4635 48.9372 21.5601C48.7394 21.6567 48.517 21.6914 48.2991 21.6598Z" fill="#86B3E0"/>
<path d="M66.115 6.35333C65.917 6.52725 65.7611 6.74377 65.6588 6.98662C65.5566 7.22947 65.5108 7.49233 65.5248 7.75545C65.5388 8.01856 65.6122 8.27509 65.7396 8.50574C65.867 8.73639 66.045 8.93516 66.2603 9.08711C67.7262 10.1172 69.9449 11.2398 72.0447 10.487C73.5767 9.93233 75.3464 4.9006 75.7294 3.5007C76.6539 0.238663 73.6956 0.489597 71.5825 1.98195C69.6808 3.32902 67.8846 4.82137 66.115 6.35333Z" fill="#B15EA1"/>
<path d="M70.5932 11.7803C68.8102 11.697 67.0975 11.0599 65.6935 9.9578C65.3531 9.72095 65.0713 9.40941 64.8698 9.04698C64.6682 8.68456 64.5521 8.28084 64.5304 7.8667C64.5088 7.45255 64.5821 7.03893 64.7448 6.65745C64.9075 6.27597 65.1552 5.93672 65.469 5.66565C67.0802 4.34498 68.9952 2.66776 71.0026 1.24144C72.5082 0.171704 74.6212 -0.488635 75.9419 0.449035C76.4833 0.81882 77.2625 1.76971 76.6946 3.84315C76.6946 3.90918 74.7532 10.6313 72.3761 11.4766C71.8048 11.6841 71.2009 11.787 70.5932 11.7803ZM74.4099 1.96781C73.5882 2.04169 72.8047 2.34867 72.1516 2.85265C70.2102 4.23934 68.3349 5.81093 66.7765 7.158C66.6882 7.23176 66.6184 7.32508 66.5726 7.43053C66.5267 7.53599 66.5061 7.65069 66.5124 7.76551C66.5193 7.8797 66.5513 7.99096 66.6061 8.09139C66.6608 8.19182 66.7371 8.27894 66.8293 8.34659C68.15 9.25785 70.0253 10.2219 71.7157 9.66725C72.4553 9.37671 74.0797 5.86375 74.7797 3.35449C75.0042 2.5885 74.9117 2.1923 74.7797 2.11306C74.6789 2.00909 74.5506 1.93583 74.4099 1.90177V1.96781Z" fill="#904C90"/>
<path d="M93.9955 19.0447C93.9615 19.3074 93.8682 19.5588 93.7225 19.78C93.5769 20.0011 93.3828 20.1862 93.1549 20.3212C92.927 20.4561 92.6714 20.5373 92.4074 20.5587C92.1435 20.5801 91.8781 20.5411 91.6315 20.4446C89.9675 19.7975 87.8148 18.5693 87.2733 16.3902C86.9828 15.1884 89.109 12.4282 89.6901 11.5302C90.4693 10.2095 92.3314 7.73986 93.9691 8.95487C95.9236 10.4604 94.2596 17.0637 93.9955 19.0447Z" fill="#B15EA1"/>
<path d="M92.2787 21.5543C91.9359 21.5518 91.5962 21.4892 91.275 21.3694C88.5413 20.3129 86.8244 18.7281 86.3093 16.6414C85.9924 15.3208 87.0621 13.6435 88.3828 11.7154L88.845 11.0154C89.3865 10.1174 90.8392 8.00429 92.5957 7.68733C92.9384 7.61592 93.2927 7.62153 93.633 7.70375C93.9733 7.78597 94.2911 7.94276 94.5635 8.16277C96.4916 9.64191 95.9766 13.5379 95.2238 17.7376C95.1181 18.3187 95.0257 18.8205 94.9729 19.1771C94.9183 19.5879 94.771 19.9808 94.5422 20.3263C94.3134 20.6718 94.0091 20.9607 93.6522 21.1713C93.2346 21.4143 92.7618 21.5461 92.2787 21.5543ZM93.0579 9.66832H92.9523C92.3183 9.78718 91.3278 10.7777 90.5354 12.0851C90.4166 12.2832 90.2317 12.5474 90.0072 12.8643C89.5581 13.5379 88.145 15.5981 88.2375 16.2056C88.6733 17.9489 90.5222 18.9922 91.9882 19.5601C92.0927 19.6124 92.208 19.6396 92.3249 19.6396C92.4418 19.6396 92.5572 19.6124 92.6617 19.5601C92.7571 19.5014 92.8385 19.4225 92.9001 19.329C92.9617 19.2354 93.0021 19.1295 93.0183 19.0186C93.0183 18.6356 93.1503 18.0942 93.2692 17.4734C93.5994 15.6245 94.4842 10.6852 93.3617 9.82682C93.3277 9.77308 93.2834 9.72668 93.2312 9.69039C93.179 9.6541 93.1201 9.62864 93.0579 9.61551V9.66832Z" fill="#904C90"/>
<path d="M42.5952 17.0638C38.1394 21.07 35.2242 26.5078 34.3543 32.4363C32.7024 35.6959 32.0763 39.3793 32.5582 43.0016C33.2449 46.9343 35.1209 50.5619 37.9333 53.3952C42.7801 58.9684 48.4194 61.1872 53.2926 63.0889C59.709 65.554 66.5196 66.8338 73.3931 66.866C80.2473 67.0509 85.0545 67.1169 89.8617 64.0398C92.3875 62.3752 94.5157 60.1748 96.0953 57.5949C103.24 46.6467 100.321 32.5024 99.3969 28.5404C98.4856 26.15 93.5992 14.0131 80.6963 8.79651C73.9493 6.18043 66.5376 5.81446 59.5658 7.75317C53.2475 9.45943 47.4289 12.6518 42.5952 17.0638Z" fill="#EEF2FA"/>
<path d="M70.2896 6.82773C70.2785 7.89687 70.5135 8.95423 70.9763 9.91807C71.5574 11.0538 72.7196 12.5594 76.1401 13.88C80.8271 15.5034 85.8109 16.0892 90.7466 15.5969C87.9109 13.0059 84.6553 10.9159 81.119 9.41623C77.6786 7.95614 74.0184 7.08125 70.2896 6.82773Z" fill="#A6D1F0"/>
<path d="M97.4672 25.9913C97.2496 25.9944 97.036 25.9334 96.8529 25.816C96.6697 25.6986 96.5251 25.5299 96.4371 25.331C94.9644 22.0023 92.8815 18.9787 90.296 16.4165C81.7249 8.04352 70.8426 7.96428 67.2636 7.93787H67.0919C64.6274 7.92231 62.1717 8.23316 59.7887 8.86233C59.6428 8.90568 59.4896 8.91891 59.3384 8.9012C59.1872 8.88348 59.0411 8.83521 58.9092 8.75929C58.7772 8.68337 58.6621 8.5814 58.5708 8.45959C58.4795 8.33779 58.4139 8.19868 58.378 8.05074C58.3422 7.90279 58.3368 7.74909 58.3622 7.59899C58.3876 7.44889 58.4432 7.30554 58.5258 7.17762C58.6083 7.04971 58.716 6.93992 58.8423 6.85493C58.9686 6.76994 59.1108 6.71152 59.2604 6.68324C61.8233 6.00125 64.4665 5.66808 67.1184 5.69274H67.2901C71.0804 5.69274 82.6494 5.7984 91.8676 14.8185C94.6547 17.5737 96.8952 20.8314 98.4709 24.4198C98.5326 24.5531 98.5673 24.6975 98.5728 24.8443C98.5783 24.9912 98.5545 25.1377 98.5029 25.2753C98.4513 25.4129 98.3729 25.5389 98.2722 25.646C98.1714 25.753 98.0505 25.839 97.9162 25.8989C97.7743 25.9596 97.6215 25.991 97.4672 25.9913Z" fill="#86B3E0"/>
<path d="M77.7372 43.7279C78.0713 44.5752 78.2239 45.4831 78.1853 46.3931C78.1466 47.303 77.9175 48.1947 77.5126 49.0106C76.8356 50.4098 75.6746 51.5165 74.2446 52.1259C72.8146 52.7353 71.2122 52.8062 69.7339 52.3254C68.1251 51.7566 66.8074 50.573 66.07 49.0341C65.3326 47.4951 65.2357 45.7266 65.8004 44.1163C66.3652 42.5059 67.5455 41.1853 69.0826 40.4441C70.6197 39.7028 72.388 39.6014 73.9997 40.1621C74.8438 40.4501 75.6153 40.9182 76.2607 41.5339C76.906 42.1496 77.4098 42.8982 77.7372 43.7279Z" fill="#001945"/>
<path d="M75.3474 43.6613C74.8939 43.5586 74.4182 43.64 74.0246 43.8876C73.6309 44.1351 73.3515 44.5287 73.2476 44.982C73.086 45.3974 73.0937 45.8596 73.269 46.2695C73.4443 46.6793 73.7732 47.0042 74.1853 47.1743C74.6222 47.2682 75.0784 47.1922 75.4612 46.9615C75.844 46.7309 76.1245 46.363 76.2455 45.9328C76.3371 45.7249 76.3865 45.5009 76.3909 45.2737C76.3953 45.0465 76.3545 44.8208 76.2709 44.6095C76.1874 44.3982 76.0628 44.2056 75.9043 44.0428C75.7457 43.8801 75.5564 43.7504 75.3474 43.6613Z" fill="white"/>
<path d="M52.6836 33.849C53.1285 34.9903 53.241 36.2343 53.0081 37.4369C52.7752 38.6396 52.2064 39.7516 51.3676 40.6443C50.5287 41.5371 49.4542 42.1739 48.2684 42.4812C47.0826 42.7884 45.834 42.7535 44.6672 42.3805C43.0583 41.8117 41.7406 40.628 41.0032 39.0891C40.2658 37.5502 40.1689 35.7816 40.7337 34.1713C41.2984 32.561 42.4787 31.2404 44.0158 30.4991C45.5529 29.7579 47.3212 29.6565 48.9329 30.2172C49.7848 30.513 50.5618 30.9913 51.2096 31.6186C51.8575 32.2459 52.3605 33.0071 52.6836 33.849Z" fill="#001945"/>
<path d="M50.2953 33.7696C49.8403 33.6702 49.3646 33.7527 48.9697 33.9995C48.5749 34.2463 48.2922 34.6377 48.1822 35.0902C48.0241 35.5059 48.0335 35.9668 48.2084 36.3757C48.3833 36.7846 48.7101 37.1097 49.1199 37.2825C49.5585 37.377 50.0166 37.3013 50.4015 37.0709C50.7864 36.8404 51.0694 36.4723 51.1933 36.0411C51.3747 35.6207 51.382 35.1456 51.2136 34.7198C51.0453 34.294 50.7151 33.9523 50.2953 33.7696Z" fill="white"/>
<path d="M71.6364 68.4106C64.2949 68.4833 57.0126 67.0914 50.2153 64.3165C46.4646 62.6921 29.4017 51.1099 30.6035 39.7919C30.8704 37.2646 31.6862 34.8262 32.9938 32.6471C33.5593 29.5057 34.6629 26.4854 36.2559 23.7194C38.6191 19.6657 41.961 16.2693 45.9759 13.8409C46.1008 13.7646 46.2395 13.7136 46.3841 13.6909C46.5286 13.6682 46.6763 13.6741 46.8185 13.7085C46.9608 13.7428 47.0949 13.8048 47.2132 13.891C47.3314 13.9772 47.4316 14.0858 47.5079 14.2106C47.5842 14.3355 47.6352 14.4742 47.6579 14.6188C47.6806 14.7633 47.6747 14.911 47.6403 15.0532C47.606 15.1955 47.5439 15.3296 47.4578 15.4479C47.3716 15.5661 47.263 15.6663 47.1381 15.7426C43.4488 17.9809 40.3758 21.1038 38.1973 24.8288C36.6991 27.4331 35.6709 30.2807 35.1597 33.2414C35.1325 33.3864 35.0788 33.5252 35.0013 33.6508C33.8021 35.585 33.0571 37.766 32.8222 40.0296C31.7656 50.0006 47.7588 60.83 51.1133 62.2695C62.6295 67.2748 75.0041 66.1259 76.3776 65.9674C83.7469 65.1882 91.1558 63.6298 95.4347 57.6868C100.797 50.2647 99.2382 40.756 98.6439 38.009C98.5917 37.726 98.6515 37.4338 98.8107 37.1941C98.9699 36.9544 99.216 36.7859 99.497 36.7242C99.7781 36.6625 100.072 36.7124 100.317 36.8634C100.562 37.0144 100.739 37.2547 100.81 37.5335C101.47 40.505 103.147 50.8194 97.244 58.9943C92.45 65.5976 84.4997 67.3409 76.6153 68.2389C74.9597 68.3808 73.2979 68.4381 71.6364 68.4106Z" fill="#86B3E0"/>
<path d="M53.28 47.9277C53.28 48.7069 52.765 49.2483 52.2235 49.2483C51.6821 49.2483 51.2859 48.5616 51.3255 47.7824C51.3651 47.0032 51.8405 46.4618 52.382 46.4618C52.9235 46.4618 53.3197 47.1485 53.28 47.9277Z" fill="#86B3E0"/>
<path d="M60.238 51.6517C59.7889 52.2856 59.0758 52.5497 58.6268 52.246C58.1777 51.9422 58.1909 51.1631 58.6268 50.5291C59.0626 49.8952 59.7889 49.6179 60.238 49.9217C60.4461 50.1618 60.5607 50.4689 60.5607 50.7867C60.5607 51.1045 60.4461 51.4116 60.238 51.6517Z" fill="#86B3E0"/>
<path d="M94.4562 23.6666C98.2779 23.2493 102.136 23.2981 105.946 23.8119C110.687 24.459 111.942 25.4099 112.378 25.8985L112.523 26.0834C114.398 28.6455 111.519 33.7037 109.604 36.1601C108.284 37.8128 106.722 39.2555 104.969 40.439C103.274 41.6659 101.444 42.6939 99.5144 43.503C96.5342 41.8126 94.254 39.1156 93.0827 35.8959C92.4248 33.8777 92.2069 31.7419 92.4438 29.6324C92.6807 27.5229 93.3669 25.4886 94.4562 23.6666Z" fill="#EEF2FA"/>
<path d="M112.816 25.7936C112.09 24.9087 110.703 24.605 108.194 24.0635C106.819 23.7679 105.424 23.5824 104.02 23.5088C105.169 25.3974 106.305 27.3387 107.454 29.3461C108.603 31.3535 109.527 33.0176 110.505 34.8269C113.172 31.1554 114.189 27.4708 112.816 25.7936Z" fill="#A6D1F0"/>
<path d="M99.5151 44.6783C99.2954 44.6757 99.0811 44.6095 98.8983 44.4876C98.7154 44.3657 98.5719 44.1934 98.485 43.9915C98.4286 43.8571 98.3992 43.7129 98.3985 43.5671C98.3979 43.4214 98.4259 43.2769 98.4811 43.142C98.5363 43.007 98.6175 42.8843 98.7202 42.7808C98.8228 42.6773 98.9448 42.5951 99.0793 42.5388C100.946 41.7546 102.718 40.7622 104.362 39.5805C106.032 38.4637 107.52 37.0962 108.773 35.5261C111.084 32.5414 112.893 28.4737 111.665 26.7965L111.586 26.6908C111.361 26.4399 110.265 25.5815 105.828 24.974C102.106 24.4696 98.3361 24.4208 94.6023 24.8287C94.308 24.8585 94.014 24.7701 93.785 24.5831C93.5559 24.3962 93.4104 24.1258 93.3807 23.8316C93.3509 23.5374 93.4392 23.2434 93.6262 23.0143C93.8132 22.7852 94.0835 22.6397 94.3777 22.61C98.2876 22.1861 102.235 22.2394 106.132 22.7685C111.177 23.4552 112.603 24.4853 113.25 25.2117L113.475 25.489C116.261 29.3057 111.124 36.1336 110.529 36.8996C109.14 38.6281 107.502 40.1413 105.669 41.3898C103.901 42.6631 101.997 43.7351 99.9906 44.5858C99.8391 44.6457 99.678 44.677 99.5151 44.6783Z" fill="#86B3E0"/>
<path d="M55.855 58.6374C55.4685 58.9622 54.9923 59.1615 54.4897 59.2087C53.9871 59.2558 53.4821 59.1487 53.042 58.9016C52.4618 58.645 51.9848 58.2007 51.6877 57.6401C51.3907 57.0796 51.2909 56.4354 51.4044 55.8112C51.4896 55.3446 51.7125 54.9142 52.0443 54.5753C52.3762 54.2364 52.8018 54.0045 53.2665 53.9095C54.9833 53.8434 56.7794 57.3828 55.855 58.6374Z" fill="#EE8194"/>
<path d="M54.4027 60.1969C53.7884 60.1925 53.1816 60.0621 52.6198 59.8139C51.835 59.4561 51.1934 58.8448 50.7982 58.0782C50.4029 57.3117 50.277 56.4345 50.4407 55.5877C50.5772 54.9144 50.9181 54.2995 51.4167 53.8269C51.9154 53.3542 52.5476 53.0468 53.2273 52.9464C53.9197 53.0355 54.5762 53.3059 55.1305 53.7303C55.6848 54.1547 56.1171 54.718 56.3837 55.3632C56.7732 55.9431 56.9985 56.6175 57.0358 57.3151C57.073 58.0126 56.9206 58.7072 56.595 59.3252C56.3178 59.625 55.9771 59.8589 55.5977 60.0097C55.2183 60.1605 54.81 60.2245 54.4027 60.1969ZM53.3197 54.901C53.016 54.901 52.5141 55.4425 52.3821 56.0368C52.3192 56.4384 52.3915 56.8495 52.5874 57.2056C52.7834 57.5617 53.0921 57.8427 53.465 58.0046C53.7141 58.1331 53.9903 58.2002 54.2706 58.2002C54.5509 58.2002 54.8271 58.1331 55.0762 58.0046C55.1329 57.6968 55.1282 57.3809 55.0625 57.0749C54.9968 56.769 54.8713 56.479 54.6932 56.2216C54.1914 55.3632 53.5838 54.901 53.3197 54.901Z" fill="#86B3E0"/>
<ellipse cx="73.5" cy="171" rx="33.5" ry="7" fill="#D8D8D8"/>
</svg>
