<svg width="77" height="77" viewBox="0 0 77 77" fill="none" xmlns="http://www.w3.org/2000/svg">
<path d="M55.3438 27.6722C56.9392 27.6722 58.4693 27.0384 59.5974 25.9102C60.7256 24.7821 61.3594 23.252 61.3594 21.6565C61.3594 20.0611 60.7256 18.531 59.5974 17.4028C58.4693 16.2747 56.9392 15.6409 55.3438 15.6409V15.6409C56.0236 14.7496 56.4397 13.6855 56.5449 12.5695C56.6501 11.4535 56.4401 10.3304 55.9388 9.32776C55.4375 8.32515 54.665 7.48328 53.7091 6.89783C52.7531 6.31238 51.6522 6.00682 50.5312 6.0159C50.094 6.01363 49.658 6.06207 49.2319 6.16028C49.0137 5.01165 48.4643 3.95195 47.6513 3.11175C46.8383 2.27155 45.7972 1.68757 44.6564 1.43178C43.5156 1.17599 42.3248 1.25956 41.2309 1.67219C40.137 2.08483 39.1877 2.8085 38.5 3.75403C37.7501 2.75314 36.7068 2.01087 35.5154 1.6305C34.3239 1.25013 33.0436 1.25056 31.8524 1.63173C30.6612 2.01291 29.6185 2.75588 28.8692 3.75727C28.1199 4.75867 27.7014 5.9687 27.6719 7.21903V7.21903C26.5205 6.29724 25.0696 5.8325 23.597 5.91379C22.1244 5.99507 20.7334 6.61667 19.6905 7.65957C18.6476 8.70247 18.026 10.0934 17.9448 11.566C17.8635 13.0387 18.3282 14.4896 19.25 15.6409V15.6409C17.6546 15.6409 16.1245 16.2747 14.9963 17.4028C13.8682 18.531 13.2344 20.0611 13.2344 21.6565C13.2344 23.252 13.8682 24.7821 14.9963 25.9102C16.1245 27.0384 17.6546 27.6722 19.25 27.6722H55.3438Z" fill="#FFD61D"/>
<path d="M54.0203 29.0678C55.9541 28.9896 57.7864 28.1815 59.1482 26.8063C60.51 25.4311 61.3001 23.591 61.3594 21.6565C61.1229 20.146 60.413 18.7495 59.3319 17.6684C58.2507 16.5873 56.8543 15.8773 55.3437 15.6409V15.6409C56.0235 14.7496 56.4397 13.6855 56.5449 12.5695C56.6501 11.4535 56.4401 10.3304 55.9388 9.32776C55.4375 8.32515 54.665 7.48328 53.709 6.89783C52.7531 6.31238 51.6521 6.00682 50.5312 6.0159C50.094 6.01363 49.6579 6.06208 49.2319 6.16028C49.0137 5.01165 48.4643 3.95195 47.6513 3.11175C46.8383 2.27155 45.7972 1.68757 44.6564 1.43178C43.5155 1.17599 42.3248 1.25956 41.2309 1.67219C40.137 2.08483 39.1877 2.8085 38.5 3.75403C37.75 2.75314 36.7068 2.01087 35.5154 1.6305C34.3239 1.25013 33.0436 1.25056 31.8524 1.63173C30.6612 2.01291 29.6185 2.75588 28.8692 3.75727C28.1199 4.75867 27.7014 5.9687 27.6719 7.21903V7.21903C26.5205 6.29724 25.0696 5.8325 23.597 5.91379C22.1244 5.99507 20.7334 6.61667 19.6905 7.65957C18.6476 8.70247 18.026 10.0934 17.9447 11.566C17.8635 13.0387 18.3282 14.4896 19.25 15.6409V15.6409C17.7197 15.8282 16.2961 16.5223 15.2059 17.6124C14.1157 18.7026 13.4217 20.1262 13.2344 21.6565C13.2103 23.3798 13.8035 25.0548 14.9068 26.3787C16.0101 27.7027 17.5507 28.5882 19.25 28.8753" stroke="#CCCCCC" stroke-linecap="round" stroke-linejoin="round"/>
<path d="M58.7125 30.0782L54.1406 75.7969H20.4531L15.9053 30.3188C15.8716 29.9832 15.9088 29.6442 16.0145 29.3239C16.1202 29.0036 16.2921 28.7091 16.519 28.4595C16.7459 28.2099 17.0227 28.0108 17.3316 27.8751C17.6404 27.7395 17.9743 27.6702 18.3116 27.6719H56.5469C57.1425 27.7318 57.6944 28.0115 58.0948 28.4564C58.4953 28.9013 58.7155 29.4796 58.7125 30.0782Z" fill="#FF0000"/>
<path d="M58.7125 30.0781L54.1406 75.7969H51.7344L56.5469 27.6719C57.1425 27.7317 57.6944 28.0114 58.0948 28.4564C58.4953 28.9013 58.7155 29.4795 58.7125 30.0781Z" fill="#EB304A"/>
<path d="M46.9219 75.7969H27.6719L22.8594 27.6719H51.7344L46.9219 75.7969Z" fill="#CCCCCC"/>
<path d="M39.7031 75.7969H34.8906L32.4844 27.6719H42.1094L39.7031 75.7969Z" fill="#FF0000"/>
<path d="M37.2969 63.7656C47.9284 63.7656 56.5469 57.8404 56.5469 50.5312C56.5469 43.2221 47.9284 37.2969 37.2969 37.2969C26.6654 37.2969 18.0469 43.2221 18.0469 50.5312C18.0469 57.8404 26.6654 63.7656 37.2969 63.7656Z" fill="white"/>
<path d="M37.2969 37.2969H36.0938C46.1519 37.73 54.1406 43.4569 54.1406 50.4831C54.1406 57.5094 46.1519 63.2362 36.0938 63.6694H37.2969C47.9325 63.6694 56.5469 57.75 56.5469 50.435C56.5469 43.12 47.9325 37.2969 37.2969 37.2969Z" fill="#E1E1E3"/>
<path d="M38.3316 22.8595C38.0125 22.8595 37.7065 22.7327 37.4808 22.5071C37.2552 22.2815 37.1284 21.9754 37.1284 21.6563C37.1284 20.766 36.3344 19.9238 35.1072 19.4907C34.931 19.4418 34.769 19.3517 34.6344 19.2279C34.4999 19.104 34.3966 18.9501 34.3332 18.7786C34.2698 18.6071 34.2479 18.423 34.2696 18.2414C34.2912 18.0598 34.3556 17.886 34.4575 17.7342C34.6299 17.4692 34.7218 17.16 34.7222 16.8438C34.7222 15.5445 33.0859 14.4376 31.1128 14.4376C29.1397 14.4376 27.5034 15.5445 27.5034 16.8438C27.5139 17.088 27.5797 17.3267 27.6959 17.5417C27.8015 17.7246 27.8571 17.932 27.8571 18.1432C27.8571 18.3544 27.8015 18.5619 27.6959 18.7448C27.5557 18.9315 27.3677 19.077 27.1517 19.1659C26.9358 19.2549 26.6998 19.2839 26.4687 19.2501V18.1913V19.2501C24.5197 19.2501 22.8594 20.357 22.8594 21.6563C22.8594 21.9754 22.7326 22.2815 22.507 22.5071C22.2814 22.7327 21.9753 22.8595 21.6562 22.8595C21.3372 22.8595 21.0311 22.7327 20.8055 22.5071C20.5799 22.2815 20.4531 21.9754 20.4531 21.6563C20.5522 20.413 21.091 19.2456 21.973 18.3637C22.8549 17.4817 24.0223 16.9429 25.2656 16.8438V16.8438C25.4467 15.4174 26.1758 14.1174 27.2987 13.2191C28.4215 12.3209 29.8498 11.8949 31.2812 12.0313C32.7127 11.8949 34.141 12.3209 35.2638 13.2191C36.3867 14.1174 37.1158 15.4174 37.2969 16.8438C37.3336 17.1395 37.3336 17.4385 37.2969 17.7342C38.0089 18.1168 38.6067 18.6815 39.0294 19.3705C39.4521 20.0595 39.6846 20.8482 39.7031 21.6563C39.7048 21.8296 39.6691 22.0011 39.5984 22.1593C39.5277 22.3174 39.4237 22.4584 39.2934 22.5727C39.1632 22.6869 39.0098 22.7717 38.8438 22.8212C38.6778 22.8707 38.5031 22.8837 38.3316 22.8595V22.8595Z" fill="#CCCCCC"/>
<path d="M50.5312 23.3888C50.3808 23.4229 50.2245 23.4229 50.0741 23.3888C49.9003 23.34 49.7401 23.252 49.6058 23.1316C49.4714 23.0112 49.3665 22.8615 49.2991 22.6941C49.2317 22.5268 49.2036 22.3462 49.217 22.1662C49.2303 21.9863 49.2848 21.8118 49.3762 21.6563C49.4992 21.1421 49.464 20.6027 49.275 20.1089C49.0861 19.6151 48.7523 19.1899 48.3175 18.8891C48.1808 18.7739 48.0709 18.6302 47.9955 18.4681C47.9201 18.306 47.8811 18.1294 47.8811 17.9507C47.8811 17.7719 47.9201 17.5953 47.9955 17.4332C48.0709 17.2711 48.1808 17.1274 48.3175 17.0122C48.5932 16.8392 48.811 16.5878 48.9431 16.2903C49.4244 15.1113 48.3416 13.451 46.5369 12.681C45.5378 12.224 44.4024 12.1638 43.3606 12.5125C42.8955 12.6954 42.5171 13.048 42.3019 13.4991C42.2102 13.7205 42.1612 13.9573 42.1575 14.1969C42.172 14.3936 42.1378 14.5909 42.0581 14.7713C41.9784 14.9518 41.8555 15.1098 41.7003 15.2316C41.5416 15.3533 41.3545 15.4326 41.1566 15.4621C40.9588 15.4915 40.7567 15.4702 40.5694 15.4H40.2806C39.6317 15.0414 38.8875 14.8928 38.1506 14.9747C37.4137 15.0566 36.7203 15.3649 36.1659 15.8572C35.9707 16.1073 35.6863 16.272 35.3722 16.3168C35.0582 16.3617 34.739 16.2832 34.4816 16.0978C34.23 15.9028 34.066 15.6161 34.0254 15.3004C33.9848 14.9847 34.071 14.6658 34.265 14.4135C34.9589 13.6015 35.8774 13.0129 36.905 12.7218C37.9326 12.4306 39.0233 12.4499 40.04 12.7772V12.7772C40.2668 12.2568 40.597 11.7879 41.0107 11.399C41.4244 11.0102 41.9128 10.7095 42.4462 10.5154C44.0802 9.91227 45.8853 9.97273 47.4753 10.6838C48.8276 11.0929 49.9722 12.0037 50.6745 13.2295C51.3769 14.4554 51.5839 15.9034 51.2531 17.2769C51.1297 17.5573 50.9764 17.8235 50.7959 18.071C51.3223 18.6989 51.6712 19.456 51.8066 20.2641C51.942 21.0722 51.8589 21.9017 51.5659 22.6669C51.4795 22.8729 51.3364 23.0501 51.1533 23.1779C50.9701 23.3057 50.7544 23.3788 50.5312 23.3888V23.3888Z" fill="#CCCCCC"/>
<path d="M45.7188 45.7188H28.875V55.3438H45.7188V45.7188Z" fill="#FF0000"/>
<path d="M45.7188 45.7188H43.3125V55.3438H45.7188V45.7188Z" fill="#EB304A"/>
<path d="M57.2206 14.702C57.5757 13.8566 57.7558 12.948 57.75 12.031C57.7516 11.0476 57.5522 10.0743 57.1641 9.17068C56.776 8.26709 56.2074 7.45232 55.4932 6.77636C54.7789 6.1004 53.9341 5.57751 53.0105 5.23977C52.0869 4.90203 51.104 4.75656 50.1222 4.81229C49.7256 3.69516 49.0601 2.69287 48.1843 1.89396C47.3086 1.09505 46.2495 0.524111 45.1008 0.231569C43.952 -0.0609719 42.7489 -0.06611 41.5977 0.216609C40.4464 0.499328 39.3826 1.0612 38.5 1.8526C37.5823 1.03488 36.471 0.465022 35.2715 0.197026C34.0719 -0.0709693 32.8238 -0.028226 31.6453 0.321206C30.4669 0.670638 29.3972 1.31519 28.5376 2.19377C27.678 3.07236 27.057 4.15588 26.7334 5.34166C25.888 4.98655 24.9794 4.80647 24.0625 4.81229C22.148 4.81229 20.3119 5.57283 18.9581 6.92661C17.6043 8.28039 16.8438 10.1165 16.8438 12.031C16.8378 12.9402 17.018 13.841 17.3731 14.6779C15.8389 15.091 14.4838 15.9988 13.518 17.2604C12.5522 18.5221 12.0296 20.0671 12.0313 21.656C12.0467 22.653 12.2684 23.6359 12.6826 24.5428C13.0967 25.4498 13.6942 26.2611 14.4375 26.9257L19.3703 76.9998H55.3438L60.1562 26.9257C61.0915 26.0493 61.7765 24.9396 62.1409 23.7108C62.5054 22.4819 62.536 21.1782 62.2298 19.9336C61.9235 18.689 61.2914 17.5483 60.3984 16.6289C59.5053 15.7095 58.3836 15.0444 57.1484 14.702H57.2206ZM16.9641 28.8748H21.7766L22.9075 40.2804C21.1701 41.4648 19.6889 42.987 18.5522 44.756L16.9641 28.8748ZM21.6563 74.5935L20.02 58.0626C21.4855 59.7158 23.2486 61.0789 25.2175 62.081L26.4688 74.5935H21.6563ZM28.875 74.5935L27.7441 63.236C29.5208 63.9174 31.3696 64.3937 33.2544 64.6557L33.6875 74.5935H28.875ZM38.5 74.5935H36.0938L35.5884 64.9685C36.1659 64.9685 36.7675 64.9685 37.345 64.9685C37.9225 64.9685 38.5241 64.9685 39.1016 64.9685L38.5 74.5935ZM45.7188 74.5935H40.9063L41.3875 64.6557C43.2723 64.3937 45.1211 63.9174 46.8978 63.236L45.7188 74.5935ZM52.9375 74.5935H48.125L49.3763 62.081C51.3451 61.0789 53.1082 59.7158 54.5738 58.0626L52.9375 74.5935ZM37.2969 62.5623C27.335 62.5623 19.25 57.1723 19.25 50.531C19.25 43.8898 27.335 38.4998 37.2969 38.4998C47.2588 38.4998 55.3438 43.8898 55.3438 50.531C55.3438 57.1723 47.2588 62.5623 37.2969 62.5623ZM24.1828 28.8748H31.4016L31.8106 36.647C29.5336 37.09 27.3303 37.8514 25.2656 38.9089L24.1828 28.8748ZM33.8078 28.8748H40.9063L40.5453 36.286C38.4356 36.0294 36.3025 36.0294 34.1928 36.286L33.8078 28.8748ZM42.9034 36.647L43.3125 28.8748H50.5313L49.5206 38.9089C47.4182 37.8407 45.1736 37.079 42.8553 36.647H42.9034ZM56.0897 44.756C54.953 42.987 53.4718 41.4648 51.7344 40.2804L52.9375 28.8748H57.75L56.0897 44.756ZM55.3438 26.4685H19.25C17.9736 26.4685 16.7496 25.9615 15.8471 25.059C14.9445 24.1565 14.4375 22.9324 14.4375 21.656C14.4375 20.3797 14.9445 19.1556 15.8471 18.2531C16.7496 17.3506 17.9736 16.8435 19.25 16.8435V16.8435C19.4755 16.844 19.6966 16.7811 19.888 16.6619C20.0795 16.5428 20.2336 16.3723 20.3328 16.1698C20.4328 15.9711 20.4746 15.7482 20.4533 15.5268C20.432 15.3054 20.3485 15.0945 20.2125 14.9185C19.5877 14.0855 19.25 13.0723 19.25 12.031C19.25 10.7547 19.757 9.53061 20.6596 8.62809C21.5621 7.72557 22.7861 7.21854 24.0625 7.21854C25.1065 7.22547 26.12 7.57174 26.95 8.2051C27.1376 8.32251 27.3544 8.38477 27.5756 8.38477C27.7969 8.38477 28.0137 8.32251 28.2013 8.2051C28.3897 8.11357 28.5511 7.97439 28.6692 7.80135C28.7874 7.62832 28.8583 7.42741 28.875 7.21854C28.88 6.21053 29.2014 5.22955 29.7939 4.41401C30.3864 3.59847 31.2199 2.98956 32.177 2.67319C33.1341 2.35682 34.1664 2.34897 35.1282 2.65074C36.09 2.95251 36.9327 3.54867 37.5375 4.3551C37.6524 4.50035 37.7987 4.61771 37.9653 4.69839C38.132 4.77907 38.3148 4.82099 38.5 4.82099C38.6852 4.82099 38.868 4.77907 39.0347 4.69839C39.2014 4.61771 39.3476 4.50035 39.4625 4.3551C39.9082 3.75298 40.4884 3.26323 41.1568 2.92486C41.8252 2.58649 42.5633 2.40883 43.3125 2.40604C44.4555 2.38842 45.5675 2.77826 46.4493 3.50573C47.331 4.23321 47.9251 5.25082 48.125 6.37635C48.1557 6.53735 48.2184 6.69057 48.3093 6.82695C48.4003 6.96333 48.5176 7.08012 48.6544 7.17041C48.7861 7.26169 48.9358 7.3239 49.0935 7.35294C49.2511 7.38198 49.4131 7.37718 49.5688 7.33885C49.8856 7.27148 50.2076 7.23124 50.5313 7.21854C51.8076 7.21854 53.0317 7.72557 53.9342 8.62809C54.8367 9.53061 55.3438 10.7547 55.3438 12.031C55.3368 13.0751 54.9906 14.0885 54.3572 14.9185C54.2341 15.104 54.1684 15.3216 54.1684 15.5442C54.1684 15.7667 54.2341 15.9844 54.3572 16.1698C54.4487 16.3583 54.5879 16.5196 54.7609 16.6378C54.934 16.7559 55.1349 16.8269 55.3438 16.8435C56.6201 16.8435 57.8442 17.3506 58.7467 18.2531C59.6492 19.1556 60.1562 20.3797 60.1562 21.656C60.1562 22.9324 59.6492 24.1565 58.7467 25.059C57.8442 25.9615 56.6201 26.4685 55.3438 26.4685ZM51.2531 17.2767C51.6372 15.8922 51.4677 14.4127 50.7807 13.1508C50.0937 11.889 48.9428 10.9438 47.5716 10.5151C45.9816 9.80404 44.1765 9.74358 42.5425 10.3467C42.009 10.5408 41.5206 10.8415 41.1069 11.2303C40.6933 11.6192 40.363 12.0881 40.1363 12.6085V12.6085C39.3291 12.3778 38.4819 12.3229 37.6517 12.4474C36.8215 12.5719 36.0277 12.873 35.3238 13.3304C34.1038 12.4409 32.6219 11.9836 31.1128 12.031C29.6814 11.8946 28.253 12.3205 27.1302 13.2188C26.0074 14.1171 25.2783 15.4171 25.0972 16.8435V16.8435C23.8539 16.9426 22.6865 17.4814 21.8045 18.3634C20.9226 19.2453 20.3837 20.4127 20.2847 21.656C20.2847 21.9751 20.4114 22.2811 20.6371 22.5068C20.8627 22.7324 21.1687 22.8592 21.4878 22.8592C21.8069 22.8592 22.1129 22.7324 22.3386 22.5068C22.5642 22.2811 22.6909 21.9751 22.6909 21.656C22.6909 20.3567 24.3513 19.2498 26.3003 19.2498V18.191L26.4688 19.2498C26.6786 19.2556 26.8867 19.2104 27.0753 19.1182C27.2638 19.0261 27.4273 18.8895 27.5516 18.7204C27.6572 18.5375 27.7128 18.33 27.7128 18.1189C27.7128 17.9077 27.6572 17.7002 27.5516 17.5173C27.4881 17.2986 27.4717 17.069 27.5034 16.8435C27.5034 15.5442 29.1638 14.4373 31.1128 14.4373C33.0619 14.4373 34.7222 15.5442 34.7222 16.8435C34.7218 17.1596 34.6299 17.4689 34.4575 17.7338C34.3556 17.8857 34.2912 18.0595 34.2696 18.2411C34.248 18.4227 34.2698 18.6068 34.3332 18.7783C34.3966 18.9498 34.4999 19.1037 34.6344 19.2275C34.769 19.3514 34.931 19.4415 35.1072 19.4904C36.3344 19.9235 37.1284 20.7657 37.1284 21.656C37.1284 21.9751 37.2552 22.2811 37.4808 22.5068C37.7065 22.7324 38.0125 22.8592 38.3316 22.8592C38.6507 22.8592 38.9567 22.7324 39.1823 22.5068C39.4079 22.2811 39.5347 21.9751 39.5347 21.656C39.5161 20.8479 39.2837 20.0592 38.861 19.3702C38.4383 18.6811 37.8405 18.1165 37.1284 17.7338C37.1652 17.4382 37.1652 17.1392 37.1284 16.8435C37.1221 16.3306 37.0159 15.8239 36.8156 15.3517C37.3703 15.0815 37.9793 14.9411 38.5963 14.9411C39.2133 14.9411 39.8222 15.0815 40.3769 15.3517H40.6656C40.8529 15.4218 41.055 15.4432 41.2529 15.4137C41.4507 15.3842 41.6378 15.3049 41.7966 15.1832C41.9518 15.0615 42.0746 14.9034 42.1543 14.723C42.2341 14.5425 42.2682 14.3453 42.2538 14.1485C42.2575 13.9089 42.3064 13.6721 42.3981 13.4507C42.6134 12.9996 42.9917 12.6471 43.4569 12.4642C44.4987 12.1155 45.6341 12.1757 46.6331 12.6326C48.4378 13.4026 49.5206 15.0389 49.0394 16.242C48.9073 16.5395 48.6895 16.7908 48.4138 16.9639C48.277 17.079 48.1672 17.2227 48.0918 17.3848C48.0164 17.5469 47.9773 17.7235 47.9773 17.9023C47.9773 18.0811 48.0164 18.2577 48.0918 18.4198C48.1672 18.5819 48.277 18.7255 48.4138 18.8407C48.8405 19.1573 49.161 19.596 49.3328 20.0987C49.5047 20.6014 49.5198 21.1445 49.3763 21.656C49.3091 21.8008 49.2721 21.9577 49.2674 22.1173C49.2627 22.2768 49.2905 22.4356 49.349 22.5841C49.4074 22.7326 49.4955 22.8676 49.6077 22.9811C49.7199 23.0946 49.854 23.1841 50.0019 23.2442C50.1524 23.2783 50.3086 23.2783 50.4591 23.2442C50.6946 23.2482 50.9259 23.1815 51.1231 23.0529C51.3204 22.9242 51.4746 22.7394 51.5659 22.5223C51.8589 21.7571 51.942 20.9276 51.8066 20.1195C51.6712 19.3114 51.3223 18.5542 50.7959 17.9263C50.9682 17.7245 51.1213 17.507 51.2531 17.2767V17.2767ZM27.6719 56.5467H46.9219V44.5154H27.6719V56.5467ZM30.0781 46.9217H44.5156V54.1404H30.0781V46.9217Z" fill="black"/>
</svg>
