<svg width="63" height="66" viewBox="0 0 63 66" fill="none" xmlns="http://www.w3.org/2000/svg">
<path d="M41.008 59.7144H21.7933C13.9606 59.7144 8.33081 54.5741 8.33081 47.4757V13.5747C8.33081 10.7598 10.6562 8.43445 13.4711 8.43445H41.008C45.1691 8.43445 48.5959 11.8613 48.5959 16.0224V18.5925C48.5959 20.4283 47.1273 22.1417 45.2915 22.1417C43.3333 22.1417 41.7423 20.6731 41.7423 18.7149V17.2463C41.7423 16.1448 40.8856 15.4105 39.9065 15.4105H15.4292V47.4757C15.4292 51.3921 18.9785 52.7383 21.9157 52.7383H39.7841C40.8856 52.7383 41.6199 51.8816 41.6199 50.9025V50.2906C41.6199 48.4548 43.0886 46.7414 44.9244 46.7414C46.8825 46.7414 48.4735 48.21 48.4735 50.1682V52.2488C48.5959 56.2875 45.1691 59.7144 41.008 59.7144Z" fill="#368FD7"/>
<path d="M0.988037 10.6379V55.0641C0.988037 57.1447 2.4567 59.1029 4.41488 59.5924L25.0982 65.3445C28.1578 66.2012 31.0951 63.8759 31.0951 60.8163V5.7424C31.0951 2.68274 28.2802 0.479766 25.2205 1.0917L4.53727 5.98715C2.4567 6.4767 0.988037 8.4349 0.988037 10.6379Z" fill="#368FD7"/>
<path d="M21.1809 37.073C23.0059 37.073 24.4854 35.5935 24.4854 33.7686C24.4854 31.9436 23.0059 30.4641 21.1809 30.4641C19.3559 30.4641 17.8765 31.9436 17.8765 33.7686C17.8765 35.5935 19.3559 37.073 21.1809 37.073Z" fill="white"/>
<path d="M62.0591 31.8103L52.6353 22.7537C51.0443 21.1627 48.3518 22.3866 48.3518 24.5895V43.6818C48.3518 45.8848 51.0443 47.1086 52.6353 45.5176L62.0591 36.461C63.283 35.2372 63.283 33.1566 62.0591 31.8103Z" fill="#368FD7"/>
<path d="M53.8588 38.1749H40.1515C37.9485 38.1749 36.2351 36.3391 36.2351 34.2585C36.2351 32.0555 38.0709 30.3422 40.1515 30.3422H53.8588C56.0617 30.3422 57.7751 32.1779 57.7751 34.2585C57.8975 36.3391 56.0617 38.1749 53.8588 38.1749Z" fill="#368FD7"/>
</svg>
