<svg width="30" height="30" viewBox="0 0 30 30" fill="none" xmlns="http://www.w3.org/2000/svg">
<g clip-path="url(#clip0_1945_7675)">
<path d="M13.45 22.5626H9.86255C9.50451 22.5626 9.16113 22.4203 8.90796 22.1671C8.65478 21.9139 8.51245 21.5706 8.51245 21.2125V8.7876C8.51245 8.42956 8.65478 8.08618 8.90796 7.83301C9.16113 7.57983 9.50451 7.4375 9.86255 7.4375H13.45C13.9473 7.4375 14.4242 7.23997 14.7759 6.88834C15.1275 6.53671 15.325 6.05978 15.325 5.5625C15.325 5.06522 15.1275 4.58845 14.7759 4.23682C14.4242 3.88519 13.9473 3.6875 13.45 3.6875H9.86255C8.50994 3.6875 7.21272 4.2249 6.25629 5.18134C5.29985 6.13777 4.76245 7.43499 4.76245 8.7876V21.2125C4.76245 22.5651 5.29985 23.8624 6.25629 24.8188C7.21272 25.7752 8.50994 26.3126 9.86255 26.3126H13.45C13.9473 26.3126 14.4242 26.1151 14.7759 25.7635C15.1275 25.4118 15.325 24.9349 15.325 24.4376C15.325 23.9403 15.1275 23.4634 14.7759 23.1118C14.4242 22.7602 13.9473 22.5626 13.45 22.5626Z" fill="white"/>
<path d="M25.9124 14.0374L20.7249 8.72495C20.5358 8.52597 20.2911 8.38878 20.0227 8.33127C19.7543 8.27376 19.4748 8.29865 19.2208 8.40268C18.9668 8.50672 18.7501 8.68505 18.5992 8.91431C18.4482 9.14357 18.37 9.41303 18.3749 9.68747V12.7499H13.4625C12.8657 12.7499 12.2934 12.987 11.8714 13.4089C11.4495 13.8309 11.2124 14.4032 11.2124 15C11.2124 15.5967 11.4495 16.169 11.8714 16.591C12.2934 17.013 12.8657 17.25 13.4625 17.25H18.3749V20.3125C18.379 20.5811 18.4617 20.8426 18.6128 21.0647C18.7638 21.2869 18.9766 21.4599 19.2249 21.5625C19.3929 21.6257 19.5706 21.6595 19.75 21.6624C20.1167 21.6592 20.4672 21.5109 20.7249 21.25L25.9124 15.9375C26.1569 15.6816 26.2934 15.3414 26.2934 14.9875C26.2934 14.6336 26.1569 14.2933 25.9124 14.0374Z" fill="white"/>
</g>
<defs>
<clipPath id="clip0_1945_7675">
<rect width="30" height="30" fill="white"/>
</clipPath>
</defs>
</svg>
