<svg width="19" height="19" viewBox="0 0 19 19" fill="none" xmlns="http://www.w3.org/2000/svg">
<path d="M18.3246 3.42515C18.0677 1.88383 16.4407 0.428144 14.8994 0.256887C11.1317 -0.0856288 7.36408 -0.0856288 3.59641 0.256887C2.14072 0.428144 0.513773 1.88383 0.256887 3.42515C-0.0856288 5.73713 -0.0856288 8.306 0.256887 10.618C0.513773 12.1593 2.14072 13.615 3.68204 13.7862C3.93893 13.7862 4.19581 13.8719 4.53833 13.8719C4.96647 13.8719 5.30899 14.3 5.30899 14.7282V17.3827C5.30899 17.9821 5.99402 18.2389 6.42216 17.8964L9.84732 14.6425C10.1898 14.3 10.7036 14.0431 11.303 14.0431C12.5018 14.0431 13.7862 13.9575 14.985 13.7862C16.5264 13.615 18.1533 12.2449 18.4102 10.7036C18.6671 8.306 18.6671 5.82276 18.3246 3.42515Z" fill="#929EAC"/>
</svg>
