<svg width="54" height="35" viewBox="0 0 54 35" fill="none" xmlns="http://www.w3.org/2000/svg">
<path d="M13.162 13.1295L15.0251 16.3035C15.2014 16.6034 15.5035 16.8283 15.856 16.9033L19.4817 17.678C20.1615 17.828 20.4133 18.6277 19.9601 19.1276L17.4926 21.8767C17.266 22.1516 17.1401 22.4765 17.1905 22.8264L17.5681 26.4753C17.6437 27.1501 16.9387 27.6499 16.3092 27.375L12.9102 25.9005C12.5829 25.7505 12.2052 25.7505 11.9031 25.9005L8.50404 27.375C7.87459 27.6499 7.19478 27.1501 7.24514 26.4753L7.62281 22.8264C7.64799 22.4765 7.54727 22.1266 7.32067 21.8767L4.85322 19.1276C4.40002 18.6277 4.65179 17.803 5.3316 17.678L8.95724 16.9033C9.30973 16.8283 9.61187 16.6034 9.78811 16.3035L11.6513 13.1295C11.9534 12.5547 12.8095 12.5547 13.162 13.1295Z" fill="#FFE606"/>
<path d="M27.7552 7.97909L29.6184 11.1531C29.7947 11.453 30.0968 11.6779 30.4493 11.7529L34.0749 12.5277C34.7547 12.6776 35.0065 13.4774 34.5533 13.9772L32.0859 16.7263C31.8593 17.0012 31.7334 17.3261 31.7837 17.676L32.1614 21.3249C32.2369 21.9997 31.532 22.4995 30.9025 22.2246L27.5035 20.7501C27.1761 20.6001 26.7985 20.6001 26.4963 20.7501L23.0973 22.2246C22.4679 22.4995 21.788 21.9997 21.8384 21.3249L22.2161 17.676C22.2412 17.3261 22.1405 16.9763 21.9139 16.7263L19.4465 13.9772C18.9933 13.4774 19.2451 12.6526 19.9249 12.5277L23.5505 11.7529C23.903 11.6779 24.2051 11.453 24.3814 11.1531L26.2446 7.97909C26.5467 7.40427 27.4027 7.40427 27.7552 7.97909Z" fill="#FFE606"/>
<path d="M42.3485 13.1295L44.2117 16.3035C44.3879 16.6034 44.6901 16.8283 45.0426 16.9033L48.6682 17.678C49.348 17.828 49.5998 18.6277 49.1466 19.1276L46.6791 21.8767C46.4525 22.1516 46.3266 22.4765 46.377 22.8264L46.7547 26.4753C46.8302 27.1501 46.1252 27.6499 45.4958 27.375L42.0967 25.9005C41.7694 25.7505 41.3917 25.7505 41.0896 25.9005L37.6906 27.375C37.0611 27.6499 36.3813 27.1501 36.4317 26.4753L36.8093 22.8264C36.8345 22.4765 36.7338 22.1266 36.5072 21.8767L34.0397 19.1276C33.5865 18.6277 33.8383 17.803 34.5181 17.678L38.1438 16.9033C38.4963 16.8283 38.7984 16.6034 38.9746 16.3035L40.8378 13.1295C41.14 12.5547 41.996 12.5547 42.3485 13.1295Z" fill="#FFE606"/>
</svg>
