<svg width="157" height="78" viewBox="0 0 157 78" fill="none" xmlns="http://www.w3.org/2000/svg">
<path d="M80.6321 24.9603L84.4636 31.4636C84.826 32.0781 85.4474 32.5389 86.1723 32.6926L93.6283 34.28C95.0263 34.5872 95.544 36.2259 94.612 37.25L89.5378 42.8828C89.0718 43.4461 88.8129 44.1118 88.9165 44.8287L89.6932 52.305C89.8485 53.6876 88.3987 54.7117 87.1043 54.1485L80.1143 51.1272C79.4412 50.82 78.6645 50.82 78.0432 51.1272L71.0532 54.1485C69.7587 54.7117 68.3607 53.6876 68.4643 52.305L69.241 44.8287C69.2927 44.1118 69.0856 43.3949 68.6196 42.8828L63.5454 37.25C62.6134 36.2259 63.1312 34.536 64.5292 34.28L71.9852 32.6926C72.7101 32.5389 73.3314 32.0781 73.6938 31.4636L77.5254 24.9603C78.1467 23.7825 79.9072 23.7825 80.6321 24.9603Z" fill="#FFE606"/>
<path d="M49.8454 35.2796L52.9634 40.5718C53.2584 41.0718 53.764 41.4469 54.3539 41.5719L60.4213 42.8637C61.559 43.1137 61.9803 44.4472 61.2219 45.2806L57.0927 49.8644C56.7135 50.3228 56.5028 50.8645 56.587 51.4479L57.2191 57.5318C57.3455 58.657 56.1657 59.4904 55.1123 59.032L49.4241 56.5734C48.8763 56.3234 48.2443 56.3234 47.7387 56.5734L42.0504 59.032C40.9971 59.4904 39.8594 58.657 39.9437 57.5318L40.5757 51.4479C40.6178 50.8645 40.4493 50.2811 40.0701 49.8644L35.9408 45.2806C35.1824 44.4472 35.6038 43.072 36.7414 42.8637L42.8089 41.5719C43.3988 41.4469 43.9044 41.0718 44.1993 40.5718L47.3173 35.2796C47.8229 34.3211 49.2555 34.3211 49.8454 35.2796Z" fill="#FFE606"/>
<path d="M111.564 35.2796L114.682 40.5718C114.976 41.0718 115.482 41.4469 116.072 41.5719L122.139 42.8637C123.277 43.1137 123.698 44.4472 122.94 45.2806L118.811 49.8644C118.432 50.3228 118.221 50.8645 118.305 51.4479L118.937 57.5318C119.064 58.657 117.884 59.4904 116.83 59.032L111.142 56.5734C110.594 56.3234 109.962 56.3234 109.457 56.5734L103.769 59.032C102.715 59.4904 101.578 58.657 101.662 57.5318L102.294 51.4479C102.336 50.8645 102.167 50.2811 101.788 49.8644L97.659 45.2806C96.9006 44.4472 97.3219 43.072 98.4595 42.8637L104.527 41.5719C105.117 41.4469 105.623 41.0718 105.917 40.5718L109.035 35.2796C109.541 34.3211 110.974 34.3211 111.564 35.2796Z" fill="#FFE606"/>
<path d="M145.321 29.4799L142.521 26.6799C142.121 26.2799 142.121 25.6799 142.521 25.2799L145.321 22.4799C145.721 22.0799 146.321 22.0799 146.721 22.4799L149.521 25.2799C149.921 25.6799 149.921 26.2799 149.521 26.6799L146.721 29.4799C146.321 29.8799 145.621 29.8799 145.321 29.4799Z" fill="#FFC656"/>
<path d="M134.721 62.3798L131.721 64.2799C131.021 64.6799 131.121 65.6799 131.821 65.9799L135.121 67.4799C135.821 67.7799 136.721 67.2799 136.621 66.4799L136.321 63.0799C136.321 62.3799 135.421 61.9798 134.721 62.3798Z" fill="#88E48C"/>
<path d="M151.52 50.6799L148.42 49.1799C147.12 48.5799 146.52 46.9799 147.22 45.6799L148.72 42.5799C149.32 41.2799 150.92 40.6799 152.22 41.3799L155.32 42.8799C156.62 43.4799 157.22 45.0799 156.52 46.3799L155.02 49.4799C154.42 50.7799 152.82 51.2799 151.52 50.6799Z" fill="#FFA3F6"/>
<path d="M25.9205 66.3799L20.8205 67.5799C20.1205 67.7799 19.4205 67.2799 19.2205 66.5799L18.0205 61.4799C17.8205 60.7799 18.3205 60.0799 19.0205 59.8799L24.1205 58.6799C24.8205 58.4799 25.5205 58.9799 25.7205 59.6799L26.9205 64.7799C27.1205 65.4799 26.6205 66.1799 25.9205 66.3799Z" fill="#FFC656"/>
<path d="M4.62052 38.8798L0.920523 39.4798C0.120523 39.5798 -0.279474 40.5799 0.220526 41.2799L2.62052 44.1798C3.12052 44.8798 4.22052 44.6798 4.52052 43.8798L5.82052 40.3798C6.12052 39.4798 5.42052 38.6798 4.62052 38.8798Z" fill="#88E48C"/>
<path d="M18.1205 28.28L15.6205 29.38C14.5205 29.78 13.3205 29.38 12.9205 28.28L11.8205 25.78C11.4205 24.68 11.8205 23.48 12.9205 23.08L15.4205 21.98C16.5205 21.58 17.7205 21.98 18.1205 23.08L19.2205 25.58C19.7205 26.58 19.2205 27.78 18.1205 28.28Z" fill="#FFA3F6"/>
</svg>
