<svg width="54" height="35" viewBox="0 0 54 35" fill="none" xmlns="http://www.w3.org/2000/svg">
<path d="M20.8736 10.9182C20.8736 10.9182 17.679 8.81768 16.585 7.98622C15.1409 6.97972 13.9156 6.84844 13.5655 8.59888C13.1716 10.4368 14.4407 12.6249 15.4472 13.3251C15.4472 13.3251 14.4407 13.2375 14.3532 14.2441C14.2657 15.2506 14.9658 16.4321 16.3224 17.0885C16.3224 17.0885 15.3597 17.1323 15.1846 18.0075C15.0534 18.6639 15.7973 21.4646 21.5738 20.7207L20.8736 10.9182Z" fill="#A6E8FF"/>
<path d="M18.2041 9.12427C17.2851 10.5684 16.76 12.2751 16.76 14.113C16.76 16.7387 17.8103 19.1018 19.5607 20.8085C20.1734 20.8085 20.8298 20.8085 21.5737 20.6772L20.8735 10.9185C20.8735 10.9185 19.4732 9.99949 18.2041 9.12427Z" fill="#A1DAED"/>
<path d="M33.1267 10.9174C33.1267 10.9174 36.3212 8.81688 37.4153 7.98542C38.8594 6.93516 40.0409 6.80387 40.4348 8.55432C40.8286 10.3923 39.5596 12.5803 38.5531 13.2805C38.5531 13.2805 39.5596 13.193 39.6471 14.1995C39.7346 15.206 39.0344 16.3875 37.6778 17.044C37.6778 17.044 38.6406 17.0877 38.8156 17.9629C38.9469 18.6194 38.203 21.4201 32.4265 20.6761L33.1267 10.9174Z" fill="#A6E8FF"/>
<path d="M35.7961 9.12329C36.7151 10.5674 37.2402 12.2741 37.2402 14.112C37.2402 16.7377 36.19 19.1008 34.4395 20.8075C33.8269 20.8075 33.1705 20.8075 32.4265 20.6762L33.1267 10.9175C33.1267 10.9175 34.527 9.99851 35.7961 9.12329Z" fill="#A1DAED"/>
<path d="M27.0001 17.2634H20.4797V29.7353C20.4797 30.1729 20.9611 30.4355 21.3112 30.1729L27.0001 26.2782L32.6453 30.2167C32.9954 30.4355 33.4768 30.1729 33.4768 29.7791V17.2634H27.0001Z" fill="#1B5EE0"/>
<path d="M24.0242 28.2913L26.9999 26.2783L29.8444 28.2037V21.7709H24.0242V28.2913Z" fill="#B6D921"/>
<path d="M20.4797 17.2634V22.2084C22.1864 23.9151 24.462 24.9654 27.0001 24.9654C29.5383 24.9654 31.8138 23.9151 33.5205 22.2084V17.2634H27.0001H20.4797Z" fill="#0C53BC"/>
<path d="M24.0242 24.4403C24.9432 24.7466 25.9497 24.9654 26.9999 24.9654C28.0064 24.9654 28.9254 24.7904 29.8444 24.4841V21.7709H24.0242V24.4403Z" fill="#8AC718"/>
<path d="M27.0002 23.5212C32.2077 23.5212 36.4088 19.3202 36.4088 14.1126C36.4088 8.90504 32.164 4.70398 27.0002 4.70398C21.8364 4.70398 17.5916 8.90504 17.5916 14.1126C17.5916 19.3202 21.7926 23.5212 27.0002 23.5212Z" fill="#FFD208"/>
<path d="M26.9567 20.3704C30.5014 20.3704 33.3458 17.5259 33.3458 13.9813C33.3458 10.4366 30.5014 7.59216 26.9567 7.59216C23.4121 7.59216 20.5676 10.4366 20.5676 13.9813C20.5676 17.5259 23.4121 20.3704 26.9567 20.3704Z" fill="#F5A700"/>
<path d="M27.4378 9.78002L28.5318 11.6617C28.6193 11.8368 28.7944 11.9681 29.0132 12.0118L31.1575 12.4494C31.5513 12.537 31.7264 13.0183 31.4201 13.2809L29.9759 14.9001C29.8447 15.0751 29.7571 15.2502 29.8009 15.469L30.0197 17.6132C30.0635 18.0071 29.6696 18.3134 29.2758 18.1384L27.2628 17.2632C27.0877 17.1756 26.8689 17.1756 26.6501 17.2632L24.6371 18.1384C24.287 18.3134 23.8494 18.0071 23.8932 17.6132L24.112 15.469C24.112 15.2502 24.0682 15.0751 23.9369 14.9001L22.4928 13.2809C22.2302 12.9746 22.3615 12.4932 22.7554 12.4494L24.8997 12.0118C25.1185 11.9681 25.2935 11.8368 25.381 11.6617L26.4751 9.78002C26.6939 9.42993 27.219 9.42993 27.4378 9.78002Z" fill="#FFD208"/>
<path d="M21.5301 8.42325C21.8802 8.07317 22.0114 7.54803 21.7489 7.28547C21.4863 7.0229 21.0049 7.15418 20.6111 7.50427C20.261 7.85436 20.1297 8.37949 20.3923 8.64206C20.6548 8.86086 21.1362 8.77334 21.5301 8.42325Z" fill="#FFE7AB"/>
</svg>
