<svg width="126" height="59" viewBox="0 0 126 59" fill="none" xmlns="http://www.w3.org/2000/svg">
<path d="M114.321 10.6516L111.521 7.85156C111.121 7.45156 111.121 6.85157 111.521 6.45157L114.321 3.65156C114.721 3.25156 115.321 3.25156 115.721 3.65156L118.521 6.45157C118.921 6.85157 118.921 7.45156 118.521 7.85156L115.721 10.6516C115.321 11.0516 114.621 11.0516 114.321 10.6516Z" fill="#FFC656"/>
<path d="M103.721 43.5515L100.721 45.4515C100.021 45.8515 100.121 46.8515 100.821 47.1515L104.121 48.6515C104.821 48.9515 105.721 48.4515 105.621 47.6515L105.321 44.2515C105.321 43.5515 104.421 43.1515 103.721 43.5515Z" fill="#88E48C"/>
<path d="M120.52 31.8515L117.42 30.3515C116.12 29.7515 115.52 28.1515 116.22 26.8515L117.72 23.7515C118.32 22.4515 119.92 21.8515 121.22 22.5515L124.32 24.0515C125.62 24.6515 126.22 26.2515 125.52 27.5515L124.02 30.6515C123.42 31.9515 121.82 32.4515 120.52 31.8515Z" fill="#FFA3F6"/>
<path d="M25.9205 47.5516L20.8205 48.7516C20.1205 48.9516 19.4205 48.4516 19.2205 47.7516L18.0205 42.6516C17.8205 41.9516 18.3205 41.2516 19.0205 41.0516L24.1205 39.8516C24.8205 39.6516 25.5205 40.1516 25.7205 40.8516L26.9205 45.9516C27.1205 46.6516 26.6205 47.3516 25.9205 47.5516Z" fill="#FFC656"/>
<path d="M4.62052 20.0515L0.920523 20.6515C0.120523 20.7515 -0.279474 21.7515 0.220526 22.4515L2.62052 25.3515C3.12052 26.0515 4.22052 25.8515 4.52052 25.0515L5.82052 21.5515C6.12052 20.6515 5.42052 19.8515 4.62052 20.0515Z" fill="#88E48C"/>
<path d="M18.1205 9.4516L15.6205 10.5516C14.5205 10.9516 13.3205 10.5516 12.9205 9.4516L11.8205 6.9516C11.4205 5.8516 11.8205 4.65161 12.9205 4.25161L15.4205 3.1516C16.5205 2.7516 17.7205 3.15161 18.1205 4.25161L19.2205 6.75161C19.7205 7.75161 19.2205 8.9516 18.1205 9.4516Z" fill="#FFA3F6"/>
<g clip-path="url(#clip0_9865_6072)">
<path d="M51.9 14.2C51.9 14.2 44.6 9.39999 42.1 7.49999C38.8 5.19999 36 4.89999 35.2 8.89999C34.3 13.1 37.2 18.1 39.5 19.7C39.5 19.7 37.2 19.5 37 21.8C36.8 24.1 38.4 26.8 41.5 28.3C41.5 28.3 39.3 28.4 38.9 30.4C38.6 31.9 40.3 38.3 53.5 36.6L51.9 14.2Z" fill="#A6E8FF"/>
<path d="M45.8 10.1C43.7 13.4 42.5 17.3 42.5 21.5C42.5 27.5 44.9 32.9 48.9 36.8C50.3 36.8 51.8 36.8 53.5 36.5L51.9 14.2C51.9 14.2 48.7 12.1 45.8 10.1Z" fill="#A1DAED"/>
<path d="M79.9001 14.2C79.9001 14.2 87.2001 9.4 89.7001 7.5C93.0001 5.1 95.7 4.8 96.6 8.8C97.5 13 94.6 18 92.3 19.6C92.3 19.6 94.6 19.4 94.8 21.7C95 24 93.4 26.7 90.3 28.2C90.3 28.2 92.5001 28.3 92.9001 30.3C93.2001 31.8 91.5 38.2 78.3 36.5L79.9001 14.2Z" fill="#A6E8FF"/>
<path d="M86 10.1C88.1 13.4 89.3 17.3 89.3 21.5C89.3 27.5 86.9001 32.9 82.9001 36.8C81.5001 36.8 80 36.8 78.3 36.5L79.9001 14.2C79.9001 14.2 83.1 12.1 86 10.1Z" fill="#A1DAED"/>
<path d="M65.9 28.7H51V57.2C51 58.2 52.1 58.8 52.9 58.2L65.9 49.3L78.8 58.3C79.6 58.8 80.7 58.2 80.7 57.3V28.7H65.9Z" fill="#1B5EE0"/>
<path d="M59.1 53.9L65.9 49.3L72.4 53.7V39H59.1V53.9Z" fill="#B6D921"/>
<path d="M51 28.7V40C54.9 43.9 60.1 46.3 65.9 46.3C71.7 46.3 76.9 43.9 80.8 40V28.7H65.9H51Z" fill="#0C53BC"/>
<path d="M59.1 45.1C61.2 45.8 63.5 46.3 65.9 46.3C68.2 46.3 70.3 45.9 72.4 45.2V39H59.1V45.1Z" fill="#8AC718"/>
<path d="M65.9 43C77.8 43 87.4 33.4 87.4 21.5C87.4 9.6 77.7 0 65.9 0C54.1 0 44.4 9.6 44.4 21.5C44.4 33.4 54 43 65.9 43Z" fill="#FFD208"/>
<path d="M65.8001 35.8C73.9001 35.8 80.4001 29.3 80.4001 21.2C80.4001 13.1 73.9001 6.60001 65.8001 6.60001C57.7001 6.60001 51.2001 13.1 51.2001 21.2C51.2001 29.3 57.7001 35.8 65.8001 35.8Z" fill="#F5A700"/>
<path d="M66.9 11.6L69.4 15.9C69.6 16.3 70 16.6 70.5 16.7L75.4 17.7C76.3 17.9 76.7 19 76 19.6L72.7 23.3C72.4 23.7 72.2 24.1 72.3 24.6L72.8 29.5C72.9 30.4 72 31.1 71.1 30.7L66.5 28.7C66.1 28.5 65.6 28.5 65.1 28.7L60.5 30.7C59.7 31.1 58.7 30.4 58.8 29.5L59.3 24.6C59.3 24.1 59.2 23.7 58.9 23.3L55.6 19.6C55 18.9 55.3 17.8 56.2 17.7L61.1 16.7C61.6 16.6 62 16.3 62.2 15.9L64.7 11.6C65.2 10.8 66.4 10.8 66.9 11.6Z" fill="#FFD208"/>
<path d="M53.4 8.49999C54.2 7.69999 54.5 6.49999 53.9 5.89999C53.3 5.29999 52.2 5.59999 51.3 6.39999C50.5 7.19999 50.2 8.39999 50.8 8.99999C51.4 9.49999 52.5 9.29999 53.4 8.49999Z" fill="#FFE7AB"/>
</g>
<defs>
<clipPath id="clip0_9865_6072">
<rect width="61.7" height="58.4" fill="white" transform="translate(35)"/>
</clipPath>
</defs>
</svg>
