<svg width="54" height="35" viewBox="0 0 54 35" fill="none" xmlns="http://www.w3.org/2000/svg">
<path d="M19.6442 10.974L21.3948 13.9563C21.5604 14.238 21.8443 14.4494 22.1755 14.5198L25.582 15.2478C26.2208 15.3887 26.4573 16.1401 26.0315 16.6097L23.7132 19.1928C23.5002 19.4511 23.382 19.7563 23.4293 20.0851L23.7841 23.5135C23.8551 24.1475 23.1927 24.6171 22.6013 24.3588L19.4076 22.9734C19.1001 22.8325 18.7452 22.8325 18.4613 22.9734L15.2677 24.3588C14.6763 24.6171 14.0375 24.1475 14.0848 23.5135L14.4397 20.0851C14.4634 19.7563 14.3687 19.4276 14.1558 19.1928L11.8375 16.6097C11.4116 16.1401 11.6482 15.3652 12.2869 15.2478L15.6935 14.5198C16.0247 14.4494 16.3086 14.238 16.4742 13.9563L18.2248 10.974C18.5087 10.4339 19.313 10.4339 19.6442 10.974Z" fill="#FFE606"/>
<path d="M35.775 10.974L37.5256 13.9563C37.6912 14.238 37.9751 14.4494 38.3063 14.5198L41.7129 15.2478C42.3516 15.3887 42.5882 16.1401 42.1624 16.6097L39.844 19.1928C39.6311 19.4511 39.5128 19.7563 39.5601 20.0851L39.915 23.5135C39.986 24.1475 39.3236 24.6171 38.7321 24.3588L35.5385 22.9734C35.2309 22.8325 34.8761 22.8325 34.5922 22.9734L31.3985 24.3588C30.8071 24.6171 30.1684 24.1475 30.2157 23.5135L30.5706 20.0851C30.5942 19.7563 30.4996 19.4276 30.2867 19.1928L27.9683 16.6097C27.5425 16.1401 27.779 15.3652 28.4178 15.2478L31.8244 14.5198C32.1556 14.4494 32.4394 14.238 32.605 13.9563L34.3556 10.974C34.6395 10.4339 35.4439 10.4339 35.775 10.974Z" fill="#FFE606"/>
</svg>
