<svg width="142" height="75" viewBox="0 0 142 75" fill="none" xmlns="http://www.w3.org/2000/svg">
<path d="M54.8779 24.027L58.5662 30.2871C58.9151 30.8787 59.5132 31.3223 60.211 31.4702L67.3882 32.9982C68.7339 33.294 69.2324 34.8714 68.3352 35.8572L63.4507 41.2794C63.0021 41.8216 62.7529 42.4624 62.8526 43.1525L63.6002 50.3493C63.7498 51.6802 62.3542 52.666 61.1082 52.1238L54.3795 49.2155C53.7316 48.9198 52.9839 48.9198 52.3858 49.2155L45.6572 52.1238C44.4112 52.666 43.0654 51.6802 43.1651 50.3493L43.9128 43.1525C43.9626 42.4624 43.7632 41.7723 43.3146 41.2794L38.4302 35.8572C37.533 34.8714 38.0314 33.2447 39.3771 32.9982L46.5544 31.4702C47.2521 31.3223 47.8502 30.8787 48.1991 30.2871L51.8874 24.027C52.4855 22.8932 54.1802 22.8932 54.8779 24.027Z" fill="#FFE606"/>
<path d="M92.1794 24.027L95.8677 30.2871C96.2166 30.8787 96.8147 31.3223 97.5125 31.4702L104.69 32.9982C106.035 33.294 106.534 34.8714 105.637 35.8572L100.752 41.2794C100.304 41.8216 100.054 42.4624 100.154 43.1525L100.902 50.3493C101.051 51.6802 99.6557 52.666 98.4097 52.1238L91.681 49.2155C91.0331 48.9198 90.2855 48.9198 89.6874 49.2155L82.9587 52.1238C81.7127 52.666 80.367 51.6802 80.4666 50.3493L81.2143 43.1525C81.2641 42.4624 81.0647 41.7723 80.6162 41.2794L75.7317 35.8572C74.8345 34.8714 75.3329 33.2447 76.6787 32.9982L83.8559 31.4702C84.5537 31.3223 85.1518 30.8787 85.5006 30.2871L89.1889 24.027C89.787 22.8933 91.4817 22.8933 92.1794 24.027Z" fill="#FFE606"/>
<path d="M130.321 25.3261L127.521 22.5261C127.121 22.1261 127.121 21.5261 127.521 21.1261L130.321 18.3261C130.721 17.9261 131.321 17.9261 131.721 18.3261L134.521 21.1261C134.921 21.5261 134.921 22.1261 134.521 22.5261L131.721 25.3261C131.321 25.7261 130.621 25.7261 130.321 25.3261Z" fill="#FFC656"/>
<path d="M119.721 58.2262L116.721 60.1262C116.021 60.5262 116.121 61.5262 116.821 61.8262L120.121 63.3262C120.821 63.6262 121.721 63.1262 121.621 62.3262L121.321 58.9262C121.321 58.2262 120.421 57.8262 119.721 58.2262Z" fill="#88E48C"/>
<path d="M136.52 46.5261L133.42 45.0261C132.12 44.4261 131.52 42.8261 132.22 41.5261L133.72 38.4261C134.32 37.1261 135.92 36.5261 137.22 37.2261L140.32 38.7261C141.62 39.3261 142.22 40.9261 141.52 42.2261L140.02 45.3261C139.42 46.6261 137.82 47.1261 136.52 46.5261Z" fill="#FFA3F6"/>
<path d="M25.9205 62.2261L20.8205 63.4261C20.1205 63.6261 19.4205 63.1261 19.2205 62.4261L18.0205 57.3261C17.8205 56.6261 18.3205 55.9261 19.0205 55.7261L24.1205 54.5261C24.8205 54.3261 25.5205 54.8261 25.7205 55.5261L26.9205 60.6261C27.1205 61.3261 26.6205 62.0261 25.9205 62.2261Z" fill="#FFC656"/>
<path d="M4.62052 34.726L0.920523 35.326C0.120523 35.426 -0.279474 36.426 0.220526 37.126L2.62052 40.026C3.12052 40.726 4.22052 40.526 4.52052 39.726L5.82052 36.226C6.12052 35.326 5.42052 34.526 4.62052 34.726Z" fill="#88E48C"/>
<path d="M18.1205 24.1262L15.6205 25.2262C14.5205 25.6262 13.3205 25.2262 12.9205 24.1262L11.8205 21.6262C11.4205 20.5262 11.8205 19.3262 12.9205 18.9262L15.4205 17.8262C16.5205 17.4262 17.7205 17.8262 18.1205 18.9262L19.2205 21.4262C19.7205 22.4262 19.2205 23.6262 18.1205 24.1262Z" fill="#FFA3F6"/>
</svg>
