<svg width="114" height="59" viewBox="0 0 114 59" fill="none" xmlns="http://www.w3.org/2000/svg">
<path d="M58.5297 28.6667H43.6152V57.1319C43.6152 58.1681 44.7487 58.7776 45.5243 58.1681L58.5297 49.2689L71.4754 58.229C72.3106 58.7776 73.3845 58.1681 73.3845 57.1928V28.7277H58.5297V28.6667Z" fill="#F2548D"/>
<path d="M43.6152 28.6667V40.0381C47.4852 43.9106 52.7246 46.3078 58.4999 46.3078C64.2751 46.3078 69.5145 43.9106 73.3845 40.0381V28.6667H58.4999H43.6152Z" fill="#E63C79"/>
<path d="M58.5 43C70.3741 43 80 33.3741 80 21.5C80 9.62588 70.3741 0 58.5 0C46.6259 0 37 9.62588 37 21.5C37 33.3741 46.6259 43 58.5 43Z" fill="#FFD208"/>
<path d="M58.41 35.8308C66.4701 35.8308 73.004 29.2968 73.004 21.2367C73.004 13.1766 66.4701 6.64258 58.41 6.64258C50.3499 6.64258 43.8159 13.1766 43.8159 21.2367C43.8159 29.2968 50.3499 35.8308 58.41 35.8308Z" fill="#F5A700"/>
<path d="M59.5164 11.6053L62.0241 15.8749C62.2614 16.2783 62.668 16.5809 63.1425 16.6818L68.0224 17.724C68.9374 17.9257 69.2763 19.0015 68.6663 19.6739L65.3452 23.3719C65.0402 23.7417 64.8708 24.1788 64.9386 24.6494L65.4469 29.5578C65.5485 30.4655 64.5997 31.1379 63.7525 30.7681L59.1775 28.7846C58.737 28.5829 58.2286 28.5829 57.822 28.7846L53.247 30.7681C52.3998 31.1379 51.4848 30.4655 51.5526 29.5578L52.061 24.6494C52.0948 24.1788 51.9593 23.7081 51.6543 23.3719L48.3332 19.6739C47.7232 19.0015 48.0621 17.892 48.9771 17.724L53.857 16.6818C54.3315 16.5809 54.7381 16.2783 54.9753 15.8749L57.4831 11.6053C57.8898 10.8321 59.042 10.8321 59.5164 11.6053Z" fill="#FFD208"/>
<path d="M46.0263 8.45356C46.8742 7.60574 47.1033 6.46025 46.538 5.89503C45.9728 5.32981 44.8273 5.55889 43.9795 6.40672C43.1317 7.25455 42.9025 8.4001 43.4678 8.96532C44.033 9.53054 45.1785 9.30139 46.0263 8.45356Z" fill="#FFE7AB"/>
<path d="M102.321 14.3696L99.5207 11.5696C99.1207 11.1696 99.1207 10.5696 99.5207 10.1696L102.321 7.36958C102.721 6.96958 103.321 6.96958 103.721 7.36958L106.521 10.1696C106.921 10.5696 106.921 11.1696 106.521 11.5696L103.721 14.3696C103.321 14.7696 102.621 14.7696 102.321 14.3696Z" fill="#FFC656"/>
<path d="M91.7208 47.2695L88.7208 49.1695C88.0208 49.5695 88.1208 50.5695 88.8208 50.8695L92.1208 52.3695C92.8208 52.6695 93.7208 52.1695 93.6208 51.3695L93.3208 47.9695C93.3208 47.2695 92.4208 46.8695 91.7208 47.2695Z" fill="#88E48C"/>
<path d="M108.52 35.5695L105.42 34.0695C104.12 33.4695 103.52 31.8695 104.22 30.5695L105.72 27.4695C106.32 26.1695 107.92 25.5695 109.22 26.2695L112.32 27.7695C113.62 28.3695 114.22 29.9695 113.52 31.2695L112.02 34.3695C111.42 35.6695 109.82 36.1695 108.52 35.5695Z" fill="#FFA3F6"/>
<path d="M25.9205 51.2696L20.8205 52.4696C20.1205 52.6696 19.4205 52.1696 19.2205 51.4696L18.0205 46.3696C17.8205 45.6696 18.3205 44.9696 19.0205 44.7696L24.1205 43.5696C24.8205 43.3696 25.5205 43.8696 25.7205 44.5696L26.9205 49.6696C27.1205 50.3696 26.6205 51.0696 25.9205 51.2696Z" fill="#FFC656"/>
<path d="M4.62052 23.7695L0.920523 24.3695C0.120523 24.4695 -0.279474 25.4695 0.220526 26.1695L2.62052 29.0695C3.12052 29.7695 4.22052 29.5695 4.52052 28.7695L5.82052 25.2695C6.12052 24.3695 5.42052 23.5695 4.62052 23.7695Z" fill="#88E48C"/>
<path d="M18.1205 13.1696L15.6205 14.2696C14.5205 14.6696 13.3205 14.2696 12.9205 13.1696L11.8205 10.6696C11.4205 9.56962 11.8205 8.36962 12.9205 7.96962L15.4205 6.86962C16.5205 6.46962 17.7205 6.86962 18.1205 7.96962L19.2205 10.4696C19.7205 11.4696 19.2205 12.6696 18.1205 13.1696Z" fill="#FFA3F6"/>
</svg>
