<svg width="54" height="35" viewBox="0 0 54 35" fill="none" xmlns="http://www.w3.org/2000/svg">
<path d="M27.0125 17.2639H20.6238V29.4572C20.6238 29.9011 21.1093 30.1622 21.4415 29.9011L27.0125 26.0891L32.558 29.9272C32.9157 30.1622 33.3757 29.9011 33.3757 29.4833V17.29H27.0125V17.2639Z" fill="#F2548D"/>
<path d="M20.6238 17.2639V22.135C22.2815 23.7938 24.5259 24.8206 26.9998 24.8206C29.4736 24.8206 31.718 23.7938 33.3757 22.135V17.2639H26.9998H20.6238Z" fill="#E63C79"/>
<path d="M27 23.4036C32.0864 23.4036 36.2098 19.2803 36.2098 14.1939C36.2098 9.10747 32.0864 4.98413 27 4.98413C21.9136 4.98413 17.7903 9.10747 17.7903 14.1939C17.7903 19.2803 21.9136 23.4036 27 23.4036Z" fill="#FFD208"/>
<path d="M26.9612 20.3324C30.4139 20.3324 33.2127 17.5335 33.2127 14.0809C33.2127 10.6282 30.4139 7.82935 26.9612 7.82935C23.5086 7.82935 20.7097 10.6282 20.7097 14.0809C20.7097 17.5335 23.5086 20.3324 26.9612 20.3324Z" fill="#F5A700"/>
<path d="M27.4352 9.9552L28.5094 11.7841C28.6111 11.9569 28.7853 12.0865 28.9885 12.1298L31.0789 12.5762C31.4708 12.6626 31.616 13.1234 31.3547 13.4114L29.9321 14.9956C29.8014 15.154 29.7288 15.3412 29.7579 15.5428L29.9756 17.6453C30.0192 18.0342 29.6127 18.3222 29.2498 18.1638L27.2901 17.3141C27.1014 17.2277 26.8836 17.2277 26.7094 17.3141L24.7497 18.1638C24.3868 18.3222 23.9948 18.0342 24.0239 17.6453L24.2416 15.5428C24.2561 15.3412 24.1981 15.1396 24.0674 14.9956L22.6448 13.4114C22.3835 13.1234 22.5287 12.6482 22.9206 12.5762L25.011 12.1298C25.2142 12.0865 25.3884 11.9569 25.49 11.7841L26.5642 9.9552C26.7384 9.62398 27.232 9.62398 27.4352 9.9552Z" fill="#FFD208"/>
<path d="M21.6567 8.60517C22.0199 8.24199 22.118 7.75131 21.8759 7.50919C21.6338 7.26707 21.1431 7.3652 20.7799 7.72838C20.4167 8.09156 20.3186 8.58226 20.5607 8.82438C20.8028 9.0665 21.2935 8.96834 21.6567 8.60517Z" fill="#FFE7AB"/>
</svg>
