<svg xmlns="http://www.w3.org/2000/svg" viewBox="0 0 268.99 205.44"><defs><style>.cls-1{fill:#f186b6;}.cls-2{fill:#009dda;}.cls-3{fill:#fd0;}.cls-4{fill:#ee5b99;}.cls-5,.cls-6{fill:#fff;}.cls-5{stroke:#f186b6;stroke-linecap:round;stroke-linejoin:round;stroke-width:3.33px;}.cls-7{fill:#f89c1c;}.cls-8{fill:#f48120;}</style></defs><g id="Layer_2" data-name="Layer 2"><g id="레이어_1" data-name="레이어 1"><path class="cls-1" d="M243.58,130.47c-.17,5.65,4.69,11.09,11.68,12.14A21.88,21.88,0,0,0,269,139.84l-7.4-7.74,7.37-7.39a16.8,16.8,0,0,0-13.8-3.61C247.51,122.52,243.68,126.8,243.58,130.47Z"/><path class="cls-2" d="M237.08,128.63c-1.42,5.41.47,10.64,4.21,11.7s7.93-2.48,9.35-7.89-.47-10.65-4.22-11.7S238.49,123.22,237.08,128.63Z"/><path class="cls-1" d="M222.9,122.91a11.73,11.73,0,0,0,5.83,15.32,11.25,11.25,0,0,0,15-5.89A11.73,11.73,0,0,0,237.89,117,11.25,11.25,0,0,0,222.9,122.91Z"/><path class="cls-3" d="M220.32,118.82c-2.85,4.81-2.47,10.37.84,12.41s8.3-.2,11.15-5,2.48-10.37-.84-12.41S223.17,114,220.32,118.82Z"/><path class="cls-1" d="M205.41,106.21a14.62,14.62,0,0,0,.05,20.43,14,14,0,0,0,20.07-.26c5.54-5.71,4.92-14.41-.64-20S210.94,100.49,205.41,106.21Z"/><path class="cls-4" d="M218.41,102.63a13,13,0,0,0-13,3.65,14.62,14.62,0,0,0,.05,20.43,13.87,13.87,0,0,0,9.64,4.09C222,124.16,221.43,106,218.41,102.63Z"/><path class="cls-1" d="M26,157.85c1.55,5.44-1.8,11.91-8.31,14.66a21.87,21.87,0,0,1-14,.72L9,163.9l-9-5.34a16.79,16.79,0,0,1,12.47-6.91C20.23,151.13,25,154.33,26,157.85Z"/><path class="cls-2" d="M31.86,154.46c2.71,4.89,2.18,10.43-1.19,12.38s-8.29-.43-11-5.32-2.18-10.44,1.19-12.39S29.14,149.57,31.86,154.46Z"/><path class="cls-1" d="M44.18,145.41a11.74,11.74,0,0,1-1.86,16.29,11.25,11.25,0,0,1-16-2,11.74,11.74,0,0,1,1.86-16.29A11.25,11.25,0,0,1,44.18,145.41Z"/><path class="cls-3" d="M45.66,140.81c4,3.95,5,9.43,2.27,12.23s-8.1,1.86-12-2.09-5-9.44-2.27-12.24S41.71,136.85,45.66,140.81Z"/><path class="cls-1" d="M57,124.89a14.64,14.64,0,0,1,5,19.81,14,14,0,0,1-19.52,4.72c-6.77-4.16-8.33-12.74-4.33-19.52S50.21,120.73,57,124.89Z"/><path class="cls-4" d="M57.44,124.67a13,13,0,0,0-14.15.08c-3.62,8.53,6.6,24.14,11.73,25.81a13.85,13.85,0,0,0,7.43-6.09A14.62,14.62,0,0,0,57.44,124.67Z"/><path class="cls-1" d="M199.48,40.92C185.92,20.32,161,4,128,4.46c-1.46,0-2.93,0-4.42.15a97.67,97.67,0,0,0-12.54,1.58c-1.47.27-2.91.59-4.32.95-32,7.71-52.16,29.71-60.2,53-6.44,18.69-4.89,37.93-3.83,46.37,3.2,25.47,15.55,39.33,26.52,47a119.92,119.92,0,0,0,14.2,8.5c2.89-2.83,26.58-6.78,50.93-9.76l1.44-.18.37-.05c24.7-3.22,49.27-5.35,52.83-3.3A116.36,116.36,0,0,0,200.64,137c8.73-10.16,17.26-26.65,14.05-52.12C213.62,76.45,210.35,57.43,199.48,40.92Z"/><path class="cls-5" d="M196.16,108.94c-.21-.46-.73-1.38-.73-1.38s.18-2.56.22-3.45a45.22,45.22,0,0,0-.37-8.3,42.49,42.49,0,0,0-3-11.13c-3-7.08-7.88-12.94-14.86-16.3a30.6,30.6,0,0,0-21-1.64c-7.3,2.07-12.82,7.32-16.1,14.1-3.1,6.4-3.92,13.67-3.31,20.69A57.3,57.3,0,0,0,139,112q.67,2.37,1.52,4.68c.19.51,2.17,5.26,2.17,5.26a6.21,6.21,0,0,1-.87.74,8,8,0,0,1-1.21.68,34.89,34.89,0,0,1-7.89,2.25l-.3.06a.8.8,0,0,0-.3.06,37.72,37.72,0,0,1-8.2-.26,8.44,8.44,0,0,1-1.35-.37,5.81,5.81,0,0,1-1-.5s.74-5.09.79-5.64c.17-1.63.28-3.26.32-4.9a57.29,57.29,0,0,0-.72-10.63c-1.15-7-3.74-13.79-8.33-19.22-4.86-5.76-11.5-9.48-19.1-9.67a30.68,30.68,0,0,0-19.9,6.78c-5.92,5-9.22,11.88-10.35,19.47a42.81,42.81,0,0,0-.11,11.53,45.2,45.2,0,0,0,1.7,8.13c.26.84,1.07,3.28,1.07,3.28s-.27,1-.37,1.52c-2,11,1.54,27.13,11.21,33.84s21.85,9.23,33.27,10.07A137.27,137.27,0,0,0,164,162.5c10.86-3.65,22.12-9.22,29.74-18C201.46,135.52,200.91,119.21,196.16,108.94Z"/><path class="cls-4" d="M79.2,112.3a15.1,15.1,0,1,0,13-17.17,15.25,15.25,0,0,0-13,17.17"/><path class="cls-4" d="M150.81,103.28a15.1,15.1,0,1,0,13.05-17.17,15.25,15.25,0,0,0-13.05,17.17"/><path class="cls-6" d="M157.38,95.06a4,4,0,1,0,3.41-4.49,4,4,0,0,0-3.41,4.49"/><path class="cls-6" d="M84.84,104.2a4,4,0,1,0,3.41-4.5,4,4,0,0,0-3.41,4.5"/><path class="cls-7" d="M146.88,123.09c.8,6.34-4.79,14.36-12.8,15.37s-15.42-5.37-16.22-11.72,5.75-6.74,13.77-7.75S146.08,116.75,146.88,123.09Z"/><path class="cls-7" d="M153.77,118.23c-1.21-2.31-5.56-4-9.46-2.07a25.31,25.31,0,0,0-6-3.85,13.74,13.74,0,0,0-7.76-1.56,14,14,0,0,0-7.2,3.44,25.53,25.53,0,0,0-4.75,5.2c-4.25-.86-8,1.81-8.65,4.35-.92,3.92,2.42,7.09,10,7a17.89,17.89,0,0,0,7.87-2.53,13.34,13.34,0,0,1,9.65-1.22,17.88,17.88,0,0,0,8.26.51C153.18,125.7,155.63,121.8,153.77,118.23Z"/><path class="cls-8" d="M119.82,129.18c1.86-.43,3.59-1.84,5.53-3.09.49-.32,1-.62,1.54-.94a12,12,0,0,1,1.74-.82,13.24,13.24,0,0,1,3.77-.86,13.37,13.37,0,0,1,3.84.21c1.32.27,2.32.64,3.42.94s2.15.63,3.21.86a12.2,12.2,0,0,0,3.09.38H146a.84.84,0,0,1,.3,1.64,10.29,10.29,0,0,1-3.77.38,29.34,29.34,0,0,1-3.56-.44c-1.14-.19-2.34-.5-3.29-.63a13.77,13.77,0,0,0-3,0,13.44,13.44,0,0,0-2.94.65c-.47.17-.95.35-1.41.57s-1,.49-1.47.74c-1,.51-2.06,1.06-3.21,1.51a8.24,8.24,0,0,1-3.84.64.85.85,0,0,1-.08-1.67Z"/><path class="cls-1" d="M115.47,36.39a76.6,76.6,0,0,1,7,16.2c2.16,7.92,14.38-.78,16.78-16.41"/><path class="cls-4" d="M116.43,35.82a54.32,54.32,0,0,1,6,10.54,48.26,48.26,0,0,1,2.09,5.74,2,2,0,0,0,.7,1.13,1.54,1.54,0,0,0,1.14,0,10,10,0,0,0,3.93-2.6,25.45,25.45,0,0,0,3.36-4.26A37.49,37.49,0,0,0,138.1,36a1.12,1.12,0,0,1,2.21.34,29.65,29.65,0,0,1-3.25,12,24.3,24.3,0,0,1-3.67,5.28,13,13,0,0,1-5.83,3.91A5.74,5.74,0,0,1,123,57a6.29,6.29,0,0,1-2.58-3.66c-.52-1.93-1-3.68-1.68-5.52-1.26-3.62-2.69-7.28-4.2-10.86v0a1.13,1.13,0,0,1,1.94-1.11Z"/><path class="cls-1" d="M156.29,22.68s2.93,3,11.13,7.36c9.2,4.9-7.28,17.66-28.21,6.14"/><path class="cls-4" d="M157.1,21.9a85.67,85.67,0,0,0,11.1,6.26,7.36,7.36,0,0,1,3.34,3,5.53,5.53,0,0,1,0,5.13,11.66,11.66,0,0,1-6.15,5.07,25.18,25.18,0,0,1-14.09,1.09,34.1,34.1,0,0,1-12.62-5.26,1.12,1.12,0,0,1,1.06-2h0a42.92,42.92,0,0,0,12.12,3.4,24.36,24.36,0,0,0,11.82-1.34c1.7-.74,3.37-1.85,3.95-3a1.39,1.39,0,0,0,.14-1.19,3.65,3.65,0,0,0-1.49-1.36,44.82,44.82,0,0,1-10.8-8.27A1.12,1.12,0,0,1,157,21.8Z"/><path class="cls-1" d="M90.55,36.1S69.84,29.21,68.24,7.24c-.94-12.84,16.6,2.43,34.91,2.93"/><path class="cls-4" d="M90.2,37.17A35.39,35.39,0,0,1,73.34,25.93a30.14,30.14,0,0,1-5.21-9,35.76,35.76,0,0,1-1.48-5A47.86,47.86,0,0,1,66,6.66a9.25,9.25,0,0,1,.42-3.16A4.92,4.92,0,0,1,69.23.44,7.25,7.25,0,0,1,72.65,0,18.15,18.15,0,0,1,75.4.56,85.63,85.63,0,0,1,84.8,4c6,2.35,12.06,4.48,18.38,5.09h0a1.12,1.12,0,0,1-.07,2.24c-6.8.21-13.41-1.64-19.63-3.73-3.12-1-6.2-2.18-9.12-2.93a7,7,0,0,0-3.47-.24c-.19.11-.21.09-.35.51a5.34,5.34,0,0,0-.14,1.67,31.32,31.32,0,0,0,6.11,16.86A32.91,32.91,0,0,0,83,30.07a40.85,40.85,0,0,0,8,5l.1.05a1.12,1.12,0,0,1-.81,2.08Z"/><path class="cls-1" d="M93.43,28.4C89.76,41,88.63,44.62,80.26,55.06c-3.31,4.12,5.45,5.65,15.06,1.21,7.46-3.45,17.31-11,20.15-19.88"/><path class="cls-4" d="M94.5,28.72c-.66,3.19-1.43,6.36-2.35,9.56a46.24,46.24,0,0,1-4,9.32,74.39,74.39,0,0,1-5.71,8.21c-.63.75-.7,1.09-.69.94a.67.67,0,0,0-.14-.5s0,0,0,0a1,1,0,0,1,.21.1,9.84,9.84,0,0,0,3.74.37c5.89-.39,11.6-3.38,16.74-6.88a41.59,41.59,0,0,0,7-6.11,25.31,25.31,0,0,0,5-7.68l0,0a1.13,1.13,0,0,1,2.12.74c-1.86,6.74-6.69,12-11.94,16.18A43,43,0,0,1,96,58.28a30.88,30.88,0,0,1-10.08,2.8,12.21,12.21,0,0,1-5.87-.7c-.29-.14-.58-.3-.86-.47a6.86,6.86,0,0,1-.91-.81,5,5,0,0,1-.71-1.27,4.07,4.07,0,0,1,.64-3.57A11.24,11.24,0,0,1,79,53.1a93.47,93.47,0,0,0,5.68-7.62C88.19,40.37,90,34.2,92.35,28.09a1.12,1.12,0,0,1,2.15.63Z"/><path class="cls-1" d="M107.46,200.62c-19.53,0-46.67-2.23-57.69-13.63h0c-2.79-2.88-3-7.26-.56-12.34,5.18-10.84,23.16-25.57,42.31-23.88,24.53,2.2,41.62,8.89,52.24,20.43,6.62,7.2,10.49,16.08,8.62,19.81-3,6-13.63,8.76-36.62,9.48C113.23,200.56,110.43,200.62,107.46,200.62Z"/><path class="cls-1" d="M229.3,187C217.66,199,192.11,199.64,170,199c-6.76-.21-13.23,2.06-19.78,3.39-5.87,1.19-13.51,1.84-18.69-1.86a6.1,6.1,0,0,1-2.07-2.33c-1.36-3,.41-7.42,1.49-10.26a40.38,40.38,0,0,1,5.18-9.36,56,56,0,0,1,15.49-14.06c11.12-7,24.4-9.71,37.3-10.87C212.92,151.44,238,178,229.3,187Z"/><path class="cls-4" d="M168.74,200.06c-6.23.58-12.15,2.88-18.65,4.36a37.48,37.48,0,0,1-10.15,1,17.9,17.9,0,0,1-10.28-3.55,7.92,7.92,0,0,1-2.1-2.56,8,8,0,0,1-.78-3.23,15.93,15.93,0,0,1,.94-5.48c.56-1.68,1.14-3.11,1.82-4.72a41,41,0,0,1,2.41-4.48,47.85,47.85,0,0,1,13.85-14.23,1.12,1.12,0,0,1,1.37,1.77,55.2,55.2,0,0,0-11.91,14.39,46.27,46.27,0,0,0-3.48,8.53,12.76,12.76,0,0,0-.64,4,3.07,3.07,0,0,0,1.31,2.57,14.51,14.51,0,0,0,7.78,2.6,38.49,38.49,0,0,0,9.09-.58c6.15-1,12.61-3,19.39-2.63a1.12,1.12,0,0,1,0,2.24Z"/></g></g></svg>