<svg width="54" height="35" viewBox="0 0 54 35" fill="none" xmlns="http://www.w3.org/2000/svg">
<path d="M27.7643 10.4719L29.6496 13.6835C29.8279 13.987 30.1336 14.2146 30.4903 14.2905L34.159 15.0744C34.8469 15.2262 35.1016 16.0354 34.643 16.5412L32.1463 19.3229C31.917 19.6011 31.7896 19.9299 31.8406 20.2839L32.2227 23.9761C32.2992 24.6589 31.5858 25.1646 30.9489 24.8865L27.5095 23.3944C27.1783 23.2427 26.7962 23.2427 26.4904 23.3944L23.0511 24.8865C22.4141 25.1646 21.7263 24.6589 21.7772 23.9761L22.1594 20.2839C22.1848 19.9299 22.0829 19.5758 21.8536 19.3229L19.3569 16.5412C18.8983 16.0354 19.1531 15.2009 19.841 15.0744L23.5096 14.2905C23.8663 14.2146 24.172 13.987 24.3504 13.6835L26.2357 10.4719C26.5414 9.89023 27.4076 9.89024 27.7643 10.4719Z" fill="#FFE606"/>
</svg>
