<svg width="124" height="72" viewBox="0 0 124 72" fill="none" xmlns="http://www.w3.org/2000/svg">
<g clip-path="url(#clip0_9865_6076)">
<path d="M65.3782 19.23L70.0109 27.122C70.4491 27.8677 71.2004 28.427 72.0768 28.6134L81.0918 30.5398C82.7822 30.9127 83.4082 32.9012 82.2813 34.1441L76.1461 40.9797C75.5827 41.6633 75.2697 42.4711 75.3949 43.3411L76.3339 52.4138C76.5217 54.0917 74.7688 55.3345 73.2037 54.651L64.7521 50.9846C63.9383 50.6117 62.9992 50.6117 62.2479 50.9846L53.7963 54.651C52.2312 55.3345 50.5409 54.0917 50.6661 52.4138L51.6052 43.3411C51.6678 42.4711 51.4174 41.6011 50.8539 40.9797L44.7187 34.1441C43.5918 32.9012 44.2178 30.8505 45.9082 30.5398L54.9232 28.6134C55.7997 28.427 56.5509 27.8677 56.9892 27.122L61.6219 19.23C62.3731 17.8007 64.5017 17.8007 65.3782 19.23Z" fill="#FFE606"/>
</g>
<path d="M112.321 22.6518L109.521 19.8518C109.121 19.4518 109.121 18.8518 109.521 18.4518L112.321 15.6518C112.721 15.2518 113.321 15.2518 113.721 15.6518L116.521 18.4518C116.921 18.8518 116.921 19.4518 116.521 19.8518L113.721 22.6518C113.321 23.0518 112.621 23.0518 112.321 22.6518Z" fill="#FFC656"/>
<path d="M101.721 55.5517L98.7208 57.4517C98.0208 57.8517 98.1208 58.8517 98.8208 59.1517L102.121 60.6517C102.821 60.9517 103.721 60.4517 103.621 59.6517L103.321 56.2517C103.321 55.5517 102.421 55.1517 101.721 55.5517Z" fill="#88E48C"/>
<path d="M118.52 43.8517L115.42 42.3517C114.12 41.7517 113.52 40.1517 114.22 38.8517L115.72 35.7517C116.32 34.4517 117.92 33.8517 119.22 34.5517L122.32 36.0517C123.62 36.6517 124.22 38.2517 123.52 39.5517L122.02 42.6517C121.42 43.9517 119.82 44.4517 118.52 43.8517Z" fill="#FFA3F6"/>
<path d="M25.9205 59.5518L20.8205 60.7518C20.1205 60.9518 19.4205 60.4518 19.2205 59.7518L18.0205 54.6518C17.8205 53.9518 18.3205 53.2518 19.0205 53.0518L24.1205 51.8518C24.8205 51.6518 25.5205 52.1518 25.7205 52.8518L26.9205 57.9518C27.1205 58.6518 26.6205 59.3518 25.9205 59.5518Z" fill="#FFC656"/>
<path d="M4.62052 32.0517L0.920523 32.6517C0.120523 32.7517 -0.279474 33.7517 0.220526 34.4517L2.62052 37.3517C3.12052 38.0517 4.22052 37.8517 4.52052 37.0517L5.82052 33.5517C6.12052 32.6517 5.42052 31.8517 4.62052 32.0517Z" fill="#88E48C"/>
<path d="M18.1205 21.4518L15.6205 22.5518C14.5205 22.9518 13.3205 22.5518 12.9205 21.4518L11.8205 18.9518C11.4205 17.8518 11.8205 16.6518 12.9205 16.2518L15.4205 15.1518C16.5205 14.7518 17.7205 15.1518 18.1205 16.2518L19.2205 18.7518C19.7205 19.7518 19.2205 20.9518 18.1205 21.4518Z" fill="#FFA3F6"/>
<defs>
<clipPath id="clip0_9865_6076">
<rect width="54.7023" height="56.3599" fill="white" transform="translate(28.0103 18.921) rotate(-20.2362)"/>
</clipPath>
</defs>
</svg>
