<svg xmlns="http://www.w3.org/2000/svg" viewBox="0 0 522.48 138.63"><defs><style>.cls-1{fill:#5e9ed5}</style></defs><g id="Layer_2" data-name="Layer 2"><g id="Layer_1-2" data-name="Layer 1"><path class="cls-1" d="M436.83 44.57L451.05 36a15.74 15.74 0 007.52-15.26L456.21 0l-15.07 9.14A15.74 15.74 0 00433.76 25l3.07 19.54m15.74-1.93l-13.72 7.2a31.17 31.17 0 0117.09 3.67l22.42 12.14a31.21 31.21 0 0029-.31l15.09-8.08-2.58-.23a47.64 47.64 0 01-15-3.93l-24.44-10.93a31.25 31.25 0 00-27.86.47"/><path class="cls-1" d="M476.68 80.81a46.2 46.2 0 01-26.1-15.6l-26.68-31.3c-8-9.68-20.19-12.31-30.18-7l-14 7.49 3.21 1.43a32 32 0 0113.62 12.07l21.87 32.9c11.07 15 22 18 38.4 10.5l19.86-10.49"/><path d="M414.5 59.46c1.5 10.06 4.59 19.85 9.44 27.82 5.43 5.37 11.05 8 17.49 8a28.68 28.68 0 007-.92C438.24 86.93 430 74.89 426 64.13a25.39 25.39 0 01-11.46-4.67" fill="#66b0e1"/><path d="M467 39.09c-.67 0-1.34 0-2 .07a96 96 0 01-11.32 13.2c.78.34 1.55.72 2.3 1.12l22.42 12.14a31.19 31.19 0 0029-.31l15.09-8.08-2.62-.23a47.64 47.64 0 01-15-3.93l-24.44-10.93a31.28 31.28 0 00-13.46-3" fill="#ffd857"/><path d="M445.29 59c-5.71 3.65-11.18 5.33-16.31 5.33a23.21 23.21 0 01-3-.2c4 10.76 12.28 22.8 22.44 30.19a47.9 47.9 0 008.42-3l19.86-10.49a46.2 46.2 0 01-26.1-15.6L445.29 59" fill="#a9d0ee"/><path d="M404.46 24.21a22.73 22.73 0 00-9.78 2.22q.66 2.45 1.42 4.76c4.22 12.65 10.56 22.69 18.4 28.27a95.65 95.65 0 01-.16-27.33c.26-1.79.56-3.54.91-5.27a23.72 23.72 0 00-10.79-2.65" fill="#79bbe7"/><path d="M456.21 0l-15.07 9.14A15.74 15.74 0 00433.76 25a48.39 48.39 0 0123.76-13.58L456.21 0" fill="#e890ae"/><path d="M415.25 26.86c-.35 1.73-.65 3.48-.91 5.27a95.65 95.65 0 00.16 27.33 25.39 25.39 0 0011.5 4.67 50.68 50.68 0 01-1.66-5.13 35.15 35.15 0 011.86-22.4l-2.3-2.71a27.43 27.43 0 00-8.65-7" fill="#87c9ef"/><path d="M457.52 11.47a48.39 48.39 0 00-23.76 13.58l3.07 19.52L451.05 36a15.74 15.74 0 007.52-15.26l-1.05-9.3" fill="#eda6c5"/><path d="M465 39.16a31.22 31.22 0 00-12.39 3.45l-13.72 7.2c.75-.06 1.5-.08 2.25-.08a31.1 31.1 0 0112.54 2.63A96 96 0 00465 39.16" fill="#fff196"/><path d="M426.2 36.62A35.15 35.15 0 00424.34 59a50.68 50.68 0 001.66 5.13 23.21 23.21 0 003 .2c5.13 0 10.6-1.68 16.31-5.33L426.2 36.62" fill="#c5e9fb"/><path d="M38.23 88.69a10.92 10.92 0 00-8.5-4.06h1.85a12.8 12.8 0 0010-4.77L58.23 59.3a2.6 2.6 0 00-2-4.24h-9.17a12.77 12.77 0 00-9.9 4.68L16.93 84.29V44.62A9.21 9.21 0 009 35.5l-4-.62a4.29 4.29 0 00-5 4.24v76.75a4.29 4.29 0 005 4.24l4-.62c4.63-1.06 8-4.52 8-9.12V88.31l24.2 25a10.92 10.92 0 008.45 4h10a2.61 2.61 0 002-4.24zM76.2 57.1l-5.49-.74a4.29 4.29 0 00-4.87 4.25V113a4.3 4.3 0 004.87 4.26l5.49-.75a9.2 9.2 0 008-9.12V66.22a9.21 9.21 0 00-8-9.12zm60.29-23.26l-4 .62a9.26 9.26 0 00-8 9.12v11.54h-16.62a18.6 18.6 0 00-18.6 18.6v25a18.6 18.6 0 0018.6 18.6h19.85a12.93 12.93 0 004.77 2.15l4 .62a4.25 4.25 0 005-4.24V38.08a4.29 4.29 0 00-5-4.24zm-30.25 62.64V76a9.41 9.41 0 019.42-9.41h8.86v39.29h-8.86a9.41 9.41 0 01-9.42-9.4zm243.7 42.1l4-.62a9.21 9.21 0 008-9.13V117.3h16.65a18.6 18.6 0 0018.6-18.6v-25a18.6 18.6 0 00-18.6-18.6h-19.88a9.21 9.21 0 00-4.77-2.15l-4-.63a4.31 4.31 0 00-5 4.25v77.79a4.29 4.29 0 005 4.22zm30.25-62.64v20.47a9.41 9.41 0 01-9.42 9.41h-8.86V66.53h8.86a9.41 9.41 0 019.42 9.41zM249.56 55.08c-16.33 0-29.57 6.21-29.57 31.13s13.24 31.13 29.57 31.13 29.57-6.21 29.57-31.13-13.24-31.13-29.57-31.13zm0 51.29c-6.3 0-11.41-2.13-11.41-20.16s5.11-20.16 11.41-20.16S261 68.18 261 86.21s-5.14 20.16-11.44 20.16zm62.31-51.29c-16.33 0-29.57 6.21-29.57 31.13s13.24 31.13 29.57 31.13 29.57-6.21 29.57-31.13-13.24-31.13-29.57-31.13zm0 51.29c-6.3 0-11.4-2.13-11.4-20.16s5.1-20.16 11.4-20.16 11.41 2.13 11.41 20.16-5.11 20.16-11.41 20.16zM177.5 79.83h-7.87a6.41 6.41 0 01-6.4-6.4 6.86 6.86 0 016.86-6.87h13.12a11.54 11.54 0 0011.09-8.5c.25-1 .68-3-2.84-3h-27.78a17.42 17.42 0 00-17.42 17.43v1.37a17.47 17.47 0 0017.42 17.43h9.24a6.82 6.82 0 016.82 6.82 7.73 7.73 0 01-7.73 7.73h-15.46a11.53 11.53 0 00-10.3 8.47c-.26 1-.68 3 2.83 3h29.33A18.3 18.3 0 00196.71 99a19.27 19.27 0 00-19.21-19.17zm39.31-36.25a9.21 9.21 0 00-8-9.12l-4-.62a4.29 4.29 0 00-5 4.24v77.79a4.29 4.29 0 005 4.24l4-.62a9.29 9.29 0 008-9.12z" fill="#669bd2"/></g></g></svg>