<svg width="576" height="554" viewBox="0 0 576 554" fill="none" xmlns="http://www.w3.org/2000/svg">
<g clip-path="url(#clip0_6970_3043)">
<path d="M87.2741 295.779C211.023 332.342 46.9618 420.466 147.274 495.7C179.617 519.841 242.664 471.56 303.601 488.903C359.382 504.841 372.741 547.262 421.257 535.075C466.022 523.591 442.585 465.466 499.537 406.169C520.162 384.607 493.444 356.951 532.819 337.029C581.803 312.186 597.506 240.467 501.412 209.999C419.147 183.28 478.444 91.4055 426.882 69.6088C393.835 55.5464 350.945 86.0149 312.742 99.6086C274.539 113.437 213.367 61.4057 180.555 112.03C149.383 165.936 147.508 159.843 97.3521 169.921C-2.02232 190.077 15.5557 274.686 87.2741 295.779Z" fill="#D1EEFF"/>
<path d="M407.896 211.631C401.099 194.053 384.459 184.444 365.943 183.272C344.85 181.866 222.272 202.257 188.522 213.272C170.71 219.131 159.46 235.069 158.288 254.053C156.413 283.35 165.554 337.49 177.273 366.552C184.304 384.131 200.476 395.38 219.225 394.912C254.85 394.443 376.256 372.646 396.646 364.912C414.224 358.349 426.412 343.115 426.881 324.131C427.818 295.537 417.974 238.116 407.896 211.631Z" fill="#337BDE"/>
<path d="M387.74 230.383C383.287 216.555 372.974 207.18 361.725 207.414C331.256 207.883 229.303 225.227 200.241 234.836C189.694 238.352 183.601 250.774 183.366 265.07C182.897 291.32 188.991 324.601 197.429 347.804C202.35 361.398 212.194 371.007 223.444 370.773C253.209 370.304 368.521 350.382 384.928 343.351C395.24 338.898 402.271 327.414 401.802 313.117C401.568 294.602 393.834 249.367 387.74 230.383Z" fill="#8FDBFF"/>
<path d="M327.976 278.433C326.804 277.73 301.023 262.495 269.148 255.464C265.164 254.527 261.414 257.808 261.883 261.792C263.289 281.245 267.273 304.683 272.664 324.839C273.601 328.589 278.054 330.464 281.57 328.354C309.226 311.245 328.679 288.276 329.617 287.339C331.726 284.292 331.023 280.308 327.976 278.433Z" fill="#309AFF"/>
<path d="M192.51 152.343C192.275 157.265 191.572 161.953 190.4 166.406C189.697 169.218 188.525 172.031 187.588 174.609C180.791 189.843 167.901 201.796 151.963 207.187C148.682 208.359 145.166 209.062 141.651 209.531C138.135 209.999 134.385 210.234 130.869 210.234C120.088 209.765 110.245 206.718 101.573 201.562C100.635 201.093 99.6978 200.39 98.7603 199.687C87.9791 192.187 79.776 181.171 75.5573 168.281C75.0885 166.406 74.6198 164.765 74.151 162.89C73.2135 158.203 72.7448 153.281 72.9792 148.359C73.4479 134.062 78.8385 121.172 87.5103 111.328C88.9166 109.687 90.5572 108.047 92.1978 106.641C102.51 97.0312 116.104 91.1719 130.869 90.7031C132.276 90.7031 133.448 90.7031 134.854 90.7031C136.963 90.7031 139.073 90.9375 140.948 91.1719C151.26 92.5781 160.635 96.5625 168.604 102.656C169.541 103.359 170.479 104.062 171.182 104.766C177.275 109.922 182.432 116.484 185.947 123.515C186.65 124.922 187.119 126.094 187.822 127.5C191.338 135.234 192.979 143.672 192.51 152.343Z" fill="#FF8542"/>
<path opacity="0.77" d="M158.759 188.903C155.243 189.372 151.493 189.606 147.978 189.606C137.197 189.137 127.353 186.09 118.681 180.934C117.744 180.465 116.806 179.762 115.869 179.059C105.087 171.559 96.8843 160.544 92.6656 147.653C92.1968 145.778 91.7281 144.137 91.2593 142.262C90.3218 137.575 89.8531 132.653 90.0875 127.731C90.3218 118.825 92.6656 110.388 96.4156 102.888C94.7749 104.06 93.3687 105.231 91.9625 106.638C90.3218 108.044 88.9156 109.685 87.275 111.325C78.6032 121.403 73.2126 134.294 72.7438 148.356C72.5094 153.278 72.9782 158.2 73.9157 162.887C74.3844 164.762 74.8532 166.637 75.3219 168.278C79.3063 181.169 87.5094 192.184 98.5249 199.684C99.4624 200.387 100.4 200.856 101.337 201.559C109.775 206.715 119.853 209.996 130.634 210.231C134.384 210.465 137.9 210.231 141.415 209.528C144.931 209.059 148.447 208.121 151.728 207.184C166.728 202.262 179.149 191.481 186.181 177.419C181.024 181.403 175.4 184.45 169.071 186.559C165.79 187.497 162.275 188.2 158.759 188.903Z" fill="#E66633"/>
<path d="M152.197 108.983C151.962 109.686 151.728 111.093 151.259 112.499C151.025 113.436 150.556 114.374 150.087 115.311C150.087 115.546 149.853 115.546 149.853 115.78C147.744 119.296 144.931 121.405 140.947 123.749C134.384 127.499 128.994 129.843 126.884 130.78C121.728 132.889 118.681 134.061 115.869 135.233C112.822 136.405 110.01 137.343 105.556 139.218C97.119 142.967 94.3065 144.608 93.369 145.311C90.7909 147.186 86.5722 149.764 83.0566 154.217C79.7754 158.202 77.4316 162.889 76.0254 167.811C75.5566 165.936 75.0879 164.295 74.6191 162.421C76.2598 158.671 78.1347 155.155 80.7129 152.108C84.6972 147.186 88.9159 144.374 91.7284 142.499C92.9003 141.796 95.7128 139.921 104.385 135.936C108.838 134.061 111.65 132.889 114.697 131.718C117.51 130.78 120.556 129.374 125.713 127.499C127.822 126.561 133.213 124.452 139.306 120.702C143.056 118.358 145.4 116.718 147.041 113.671V113.436C147.509 112.499 147.978 111.561 148.212 110.624C148.681 109.452 148.681 108.515 148.916 107.811C149.15 106.874 149.384 104.53 148.916 102.421C147.978 98.6709 144.697 96.3271 141.65 94.4521C138.369 92.3428 134.619 90.7021 130.634 89.7646C132.041 89.7646 133.213 89.7646 134.619 89.7646C136.728 89.7646 138.838 89.999 140.713 90.2334C141.65 90.7021 142.353 91.1709 143.291 91.874C145.166 93.0459 147.041 94.2178 148.447 95.8584C150.322 97.7334 151.494 99.6083 151.962 101.952C152.9 105.233 152.431 108.046 152.197 108.983Z" fill="#824D3F"/>
<path d="M171.414 104.531C170.242 109.219 168.602 113.672 166.961 118.125C166.727 118.828 166.258 120 165.555 121.641C165.086 122.578 164.617 123.516 164.149 124.453C162.274 128.437 158.992 134.297 154.07 141.797C147.977 151.172 141.414 160.078 134.383 168.515C124.539 180.234 113.524 191.25 101.571 201.328C100.633 200.859 99.6958 200.156 98.7583 199.453C110.946 189.375 121.961 178.125 132.039 166.406C139.071 158.203 145.633 149.297 151.492 140.156C156.649 132.187 159.695 126.562 161.57 122.578C162.039 121.406 162.508 120.469 162.977 119.766C163.445 118.594 163.914 117.656 164.149 117.187C166.024 112.5 167.664 107.578 168.836 102.656C169.539 103.125 170.477 103.828 171.414 104.531Z" fill="#824D3F"/>
<path d="M190.399 166.404C189.696 169.216 188.524 172.029 187.586 174.607C187.821 165.466 186.415 153.748 179.852 142.263C178.211 139.451 176.571 137.342 175.165 135.232C174.461 134.295 173.524 133.357 172.821 132.654C171.883 131.482 170.946 130.545 170.008 129.842C168.133 127.967 166.258 126.326 164.383 124.685C163.446 123.982 162.743 123.279 161.805 122.81C158.055 119.998 154.071 117.654 150.321 115.779C149.383 115.31 148.446 114.842 147.508 114.373C135.555 108.748 125.009 107.576 122.196 107.107C110.712 105.936 98.9931 107.342 87.7432 111.326C89.1494 109.686 90.79 108.045 92.4306 106.639C95.2431 105.936 98.0556 105.232 100.868 104.764C108.134 103.592 115.399 103.357 122.43 104.061C125.009 104.295 132.274 105.232 141.18 108.279C143.758 109.217 146.337 110.154 148.915 111.326C149.852 111.795 150.79 112.264 151.727 112.732C153.368 113.67 155.008 114.373 156.649 115.31C158.993 116.717 161.337 118.123 163.446 119.764C164.383 120.467 165.086 121.17 166.024 121.639C168.368 123.514 170.477 125.389 172.586 127.498C173.29 128.201 173.993 128.904 174.696 129.607C175.399 130.31 176.102 131.248 176.805 131.951C178.68 134.295 180.79 137.107 182.899 140.388C187.586 149.295 189.696 158.435 190.399 166.404Z" fill="#824D3F"/>
<path d="M188.056 127.498C186.885 126.795 185.478 126.326 183.603 126.326C182.9 126.326 181.494 126.561 179.853 127.732C178.213 128.904 177.041 130.311 176.338 131.717C175.869 132.654 175.4 133.826 174.931 134.998C174.697 135.701 174.463 136.404 174.228 137.107C172.119 144.607 171.65 150.935 171.65 153.279V153.514C170.947 166.17 170.713 172.263 168.838 179.529C168.135 181.873 167.197 185.623 165.322 189.841C163.213 194.529 160.4 198.748 156.885 202.498C155.244 204.138 153.603 205.779 151.728 207.185C148.447 208.357 144.932 209.06 141.416 209.529C146.572 207.185 150.791 204.138 154.541 200.154C162.041 192.185 164.385 183.513 165.557 178.591C167.432 171.795 167.666 165.701 168.369 153.279V153.045C168.603 150.467 168.838 143.904 171.181 136.17C171.416 134.998 171.885 133.826 172.588 132.42C172.822 131.951 173.056 131.248 173.525 130.545C173.76 130.076 173.994 129.842 174.228 129.373C175.4 127.732 176.572 126.326 178.213 125.154C180.556 123.514 182.431 123.279 183.369 123.045C184.306 123.045 185.244 123.045 186.181 123.279C186.885 124.686 187.588 126.092 188.056 127.498Z" fill="#824D3F"/>
<path d="M122.427 364.914C123.365 363.508 124.302 362.805 125.708 363.508C127.818 364.68 129.458 366.555 130.865 368.664C132.037 370.539 132.974 372.414 133.208 374.524C128.521 374.524 124.068 374.993 119.615 376.164C119.615 375.227 119.849 374.055 119.849 373.118C120.083 371.946 120.787 367.258 122.427 364.914Z" fill="#FFC000"/>
<path d="M139.771 368.196C141.178 367.024 142.584 365.852 144.224 365.383C146.803 364.446 147.506 366.555 147.506 368.899C147.74 372.649 147.506 376.399 145.865 379.68C144.928 378.508 143.756 377.805 142.349 377.102C141.412 376.633 140.474 376.399 139.537 375.93C138.599 375.696 137.896 375.461 136.959 375.227C136.49 375.227 136.021 374.992 135.553 374.992C134.146 374.758 135.318 373.586 135.787 372.883C136.724 371.477 138.131 369.602 139.771 368.196Z" fill="#FFC000"/>
<path d="M161.567 379.916C161.332 379.448 160.863 379.448 160.395 379.213C157.113 377.573 153.363 377.807 150.082 379.448C150.082 379.448 149.848 379.448 149.848 379.682C149.613 379.682 147.738 380.854 147.973 381.088C149.848 383.901 151.254 386.713 152.895 389.76C153.129 390.229 153.363 390.698 153.598 391.166C155.004 390.463 156.41 389.291 157.582 388.12C158.754 386.948 159.692 385.776 160.629 384.37C161.098 383.432 161.567 382.26 161.801 381.088V380.854C161.801 380.385 161.801 380.151 161.567 379.916Z" fill="#FFC000"/>
<path d="M154.771 397.492C154.771 397.023 154.536 396.789 154.536 396.32C154.302 395.383 154.302 394.68 154.302 393.742C155.005 393.508 155.708 393.508 156.411 393.273C157.817 393.039 159.224 393.039 160.63 393.273C162.974 393.742 165.083 395.148 166.958 396.555C167.192 396.789 167.192 396.789 167.427 397.023C167.427 397.258 167.192 397.492 167.192 397.727C164.849 400.07 162.036 402.18 158.755 402.648C158.052 402.883 157.349 402.883 156.645 402.883H155.942C155.942 401.476 155.474 400.305 155.474 398.898C154.771 398.664 154.771 398.195 154.771 397.492Z" fill="#FFC000"/>
<path d="M167.428 408.977C167.428 409.68 166.725 410.383 166.256 410.852C165.788 411.555 165.319 412.024 164.85 412.492C163.678 413.664 162.506 414.602 160.866 415.305C160.397 415.539 159.928 415.774 159.459 415.774C159.225 415.774 158.053 416.242 158.053 416.008C157.116 413.196 156.413 410.383 155.944 407.571L156.647 407.102C158.053 406.164 159.928 406.164 161.569 406.399C162.741 406.633 163.913 406.868 164.85 407.102C165.788 407.336 167.428 407.805 167.428 408.977Z" fill="#FFC000"/>
<path d="M165.084 418.35C165.318 418.35 165.787 418.35 166.022 418.35C167.193 418.35 170.006 418.818 170.475 420.225C170.709 420.928 170.006 422.1 169.537 422.568C168.365 424.443 166.49 425.85 164.615 426.787C163.912 427.021 162.74 427.725 162.037 427.256C161.569 427.021 161.569 426.318 161.569 426.084C161.334 425.615 161.1 424.912 160.865 424.443C160.631 423.975 160.397 423.506 160.397 423.037C160.397 422.803 160.162 422.568 160.162 422.334C160.162 422.1 160.162 421.865 159.928 421.631C159.694 420.693 158.99 420.225 159.928 419.521C161.569 418.818 163.209 418.35 165.084 418.35Z" fill="#FFC000"/>
<path d="M173.052 433.587C173.052 433.353 173.286 433.353 173.286 433.118C173.755 432.649 173.989 431.946 173.989 431.243C173.989 430.774 173.52 430.54 173.052 430.306C170.474 429.134 167.192 428.899 164.614 430.306C164.145 430.54 163.677 431.009 163.208 431.243C163.911 432.649 164.38 433.821 165.083 435.228C165.552 436.165 165.786 437.337 166.489 438.274C166.489 438.274 166.489 438.274 166.724 438.274C168.13 438.04 169.302 437.337 170.474 436.399C171.177 435.931 171.645 435.228 172.349 434.759C172.583 434.524 172.817 434.056 173.052 433.587Z" fill="#FFC000"/>
<path d="M73.445 464.523C73.445 463.117 73.445 461.945 73.2106 460.773C72.5075 457.492 69.9294 455.148 67.5856 452.804C59.8513 444.367 57.0388 433.586 58.2107 422.336C58.445 419.757 60.32 416.008 62.6638 414.836C63.6013 414.367 64.5388 414.601 65.4763 415.07C66.8825 415.773 67.3512 417.648 68.0544 419.289C70.6325 427.023 75.0856 433.82 81.1793 439.211C82.8199 440.617 84.6949 442.023 86.5699 442.023C88.4449 442.023 90.3199 441.085 91.9605 440.382C96.8823 437.804 101.804 435.461 107.195 434.054C111.882 432.882 116.804 432.179 121.492 432.648C123.835 432.882 126.179 433.351 128.523 434.289C129.695 434.757 130.867 435.226 131.804 435.695C132.742 436.164 133.913 437.101 135.085 436.398C136.023 435.929 136.257 434.757 136.726 434.054C139.304 428.195 140.007 421.164 137.898 415.07C137.429 413.664 136.96 413.195 135.554 413.898C134.616 414.367 133.679 414.836 132.742 415.304C128.054 417.648 123.132 419.757 117.742 420.461C110.945 421.632 103.21 420.461 98.2886 415.773C91.4917 409.679 91.023 398.429 95.4761 390.461C99.9292 382.492 108.367 377.336 117.273 374.992C125.945 372.648 135.32 373.117 143.523 377.336C152.663 382.258 156.882 391.164 160.163 400.539C166.96 419.757 171.413 440.851 165.085 460.304C163.444 465.695 160.398 471.085 159.694 476.476C159.226 480.226 159.694 484.21 159.929 487.96C160.163 490.304 160.632 492.648 160.866 494.757C161.101 496.632 161.335 498.741 160.632 500.616C159.694 502.491 157.82 503.429 155.945 503.898C152.663 504.835 148.913 505.538 145.632 505.07C143.757 504.835 142.351 504.132 141.179 502.491C140.241 500.851 139.773 499.21 139.538 497.335C139.304 496.398 139.304 494.991 138.601 494.054C138.132 493.585 137.195 493.585 136.726 493.82C133.913 494.523 131.335 495.46 128.523 496.163C123.835 497.101 118.913 497.57 113.992 498.038C113.288 498.038 112.117 498.038 111.648 498.507C111.414 498.741 111.179 498.976 111.179 499.21C110.71 500.382 110.71 501.788 110.71 502.96C110.71 505.773 110.007 507.648 107.429 508.585C104.148 509.757 100.632 510.46 96.8823 510.226C94.3042 509.991 91.4917 508.82 90.0855 506.71C88.2105 503.663 88.9136 499.679 88.4449 496.163C87.5074 490.773 83.523 486.32 80.2418 482.101C75.7887 477.413 73.445 470.851 73.445 464.523Z" fill="#68C429"/>
<path fill-rule="evenodd" clip-rule="evenodd" d="M131.569 449.29C131.1 449.29 130.866 449.29 130.397 449.29C128.991 449.29 127.819 448.821 126.647 448.118C125.475 447.415 124.304 446.009 124.538 444.368C125.241 441.556 128.757 442.493 130.632 443.431C132.272 444.134 134.616 446.243 133.444 448.118C132.975 449.056 132.272 449.29 131.569 449.29Z" fill="#32A622"/>
<path fill-rule="evenodd" clip-rule="evenodd" d="M106.723 446.947C106.489 446.713 106.255 446.713 106.02 446.478C105.083 445.541 105.083 444.134 105.552 443.197C106.255 442.025 107.427 441.322 108.598 440.853C109.067 440.619 109.77 440.384 110.239 440.15C111.645 439.681 113.052 439.681 114.458 439.916C115.63 440.15 117.036 440.619 117.739 441.791C118.676 443.197 117.739 444.838 116.801 445.541C115.864 446.244 114.926 446.713 113.755 446.947C111.88 447.65 109.067 448.119 106.723 446.947Z" fill="#32A622"/>
<path fill-rule="evenodd" clip-rule="evenodd" d="M99.2253 453.043C98.0535 453.747 96.8816 454.215 95.9441 454.45C94.7722 454.684 93.6004 454.45 93.1316 453.278C92.1941 451.168 94.3035 448.825 95.9441 447.887C96.6472 447.419 97.3503 447.184 98.0535 446.95C99.6941 446.481 101.335 447.419 101.569 449.059C101.803 450.7 100.632 452.106 99.2253 453.043Z" fill="#32A622"/>
<path d="M126.179 399.138C132.133 399.138 136.96 394.311 136.96 388.356C136.96 382.402 132.133 377.575 126.179 377.575C120.225 377.575 115.398 382.402 115.398 388.356C115.398 394.311 120.225 399.138 126.179 399.138Z" fill="#F2FAFF"/>
<path d="M124.07 396.09C126.918 396.09 129.227 393.781 129.227 390.934C129.227 388.086 126.918 385.777 124.07 385.777C121.223 385.777 118.914 388.086 118.914 390.934C118.914 393.781 121.223 396.09 124.07 396.09Z" fill="#423D53"/>
<path d="M256.492 33.7479C265.812 33.7479 273.367 26.1927 273.367 16.873C273.367 7.5532 265.812 -0.00195312 256.492 -0.00195312C247.172 -0.00195312 239.617 7.5532 239.617 16.873C239.617 26.1927 247.172 33.7479 256.492 33.7479Z" fill="#D1EEFF"/>
<path d="M565.866 359.292C571.432 359.292 575.944 354.78 575.944 349.214C575.944 343.648 571.432 339.136 565.866 339.136C560.3 339.136 555.788 343.648 555.788 349.214C555.788 354.78 560.3 359.292 565.866 359.292Z" fill="#D1EEFF"/>
<path d="M53.5238 379.446C67.5034 379.446 78.8362 368.113 78.8362 354.134C78.8362 340.154 67.5034 328.821 53.5238 328.821C39.5442 328.821 28.2114 340.154 28.2114 354.134C28.2114 368.113 39.5442 379.446 53.5238 379.446Z" fill="#D1EEFF"/>
<path d="M393.6 153.043C428.29 153.043 456.412 124.921 456.412 90.2311C456.412 55.5409 428.29 27.4189 393.6 27.4189C358.91 27.4189 330.788 55.5409 330.788 90.2311C330.788 124.921 358.91 153.043 393.6 153.043Z" fill="#5CBFF7"/>
<path d="M433.443 108.037C433.443 106.162 433.911 104.287 434.146 102.178C434.38 100.068 434.615 97.7246 434.849 95.8496C435.552 81.3184 429.927 71.4747 422.662 64.9123C419.146 61.631 414.458 57.4123 404.38 55.0686C404.38 55.0686 402.505 54.5998 401.568 54.3654C401.333 54.3654 400.865 54.1311 400.162 54.1311C399.693 54.1311 398.99 53.8967 398.755 53.8967C386.568 52.0217 380.005 54.5998 375.084 56.7092C365.943 60.6935 357.74 67.9591 353.521 82.0215C352.818 83.8965 352.349 86.0059 351.881 88.1152C351.412 89.9902 351.178 91.8652 350.474 93.7402C349.537 97.2558 348.834 101.24 349.303 104.99C350.24 118.349 365.943 125.849 377.896 129.365C381.177 130.303 384.224 131.006 386.568 131.474C388.677 131.943 391.724 132.178 395.005 132.412C407.427 133.115 425.24 131.474 430.865 119.053C432.505 115.537 433.208 111.787 433.443 108.037Z" fill="#F2FAFF"/>
<path d="M365.24 48.5028C357.037 49.9091 350.943 56.4715 349.068 65.6121C347.662 72.4089 349.537 79.4402 353.053 84.362L357.506 85.7682L385.396 58.1121L384.224 53.8934C378.834 49.9091 371.803 47.5653 365.24 48.5028Z" fill="#F2FAFF"/>
<path d="M359.381 74.0493C358.678 75.2212 357.038 74.9868 356.569 73.815C354.459 68.19 356.334 61.8619 360.788 58.3463C364.772 55.2994 370.397 54.8307 374.85 57.4088C376.022 57.8776 375.787 59.5182 374.85 59.9869C372.506 61.1588 369.928 62.565 367.116 64.9088C363.6 68.19 361.022 71.4712 359.381 74.0493Z" fill="#FF88DB"/>
<path d="M435.083 60.6919C442.348 64.6763 445.864 73.1137 444.692 82.2543C443.755 89.0511 439.536 95.1448 434.614 98.6605H429.927L413.052 63.27L415.63 59.7544C421.724 57.1763 429.224 57.4107 435.083 60.6919Z" fill="#F2FAFF"/>
<path d="M432.036 86.7073C432.27 87.8792 433.911 88.348 434.614 87.4105C438.364 82.9574 438.833 76.3949 435.786 71.4731C432.973 67.2543 427.817 65.145 422.895 65.8481C421.723 66.0825 421.255 67.4887 422.192 68.4262C424.067 70.3012 425.942 72.6449 427.817 75.6918C430.161 79.6761 431.333 83.6605 432.036 86.7073Z" fill="#FF88DB"/>
<path d="M384.694 110.846C384.46 110.846 384.46 110.846 384.225 110.846C382.116 110.378 380.475 109.206 379.538 107.565C379.303 107.096 379.303 106.628 379.772 106.159C380.241 105.924 380.71 105.924 381.178 106.393C382.116 107.799 383.522 108.503 384.694 108.737C386.569 109.206 388.678 108.737 390.319 107.799C390.788 107.565 391.256 107.565 391.725 108.034C391.96 108.503 391.96 108.971 391.491 109.44C389.381 110.612 387.038 111.081 384.694 110.846Z" fill="#76BEE2"/>
<path d="M395.944 112.718C394.538 112.484 393.131 111.781 391.96 111.078C391.256 110.609 390.553 109.906 390.085 109.203C389.85 108.734 389.85 108.265 390.319 107.797C390.788 107.562 391.256 107.562 391.725 108.031C392.194 108.5 392.663 108.968 393.131 109.437C395.241 110.843 398.522 111.547 400.631 109.672C401.1 109.437 401.569 109.437 402.038 109.906C402.272 110.375 402.272 110.843 401.803 111.312C399.928 112.718 397.819 112.953 395.944 112.718Z" fill="#76BEE2"/>
<path d="M402.273 101.238C401.57 105.456 404.148 109.206 408.367 109.909C412.351 110.612 416.336 107.8 417.039 103.581C417.742 99.3625 415.164 95.6126 410.945 94.9094C406.961 94.2063 402.976 97.0188 402.273 101.238Z" fill="#098ED1"/>
<path d="M410.477 99.831C410.242 101.003 410.945 101.94 412.117 102.175C413.289 102.409 414.227 101.706 414.461 100.534C414.695 99.3623 413.992 98.4248 412.82 98.1904C411.883 97.956 410.711 98.6592 410.477 99.831Z" fill="#F2FAFF"/>
<path d="M367.819 95.1418C367.116 99.3605 369.694 103.111 373.913 103.814C377.897 104.517 381.882 101.704 382.585 97.4855C383.288 93.2668 380.71 89.5168 376.491 88.8137C372.507 88.345 368.522 91.1574 367.819 95.1418Z" fill="#098ED1"/>
<path d="M376.022 93.7356C375.788 94.9075 376.491 95.845 377.663 96.0794C378.835 96.3137 379.772 95.6106 380.007 94.4388C380.241 93.2669 379.538 92.3294 378.366 92.095C377.429 91.8606 376.257 92.7981 376.022 93.7356Z" fill="#F2FAFF"/>
<path d="M391.959 101.94C388.209 101.237 387.272 101.94 387.037 102.877C386.569 104.987 389.147 107.565 391.022 107.799C392.662 108.034 395.944 106.627 396.412 104.518C396.412 103.346 395.709 102.643 391.959 101.94Z" fill="#FF88DB"/>
<path d="M396.178 111.782C395.709 112.485 394.537 114.595 391.725 115.298C391.256 115.298 390.318 115.532 389.381 115.532C387.037 115.063 385.396 112.954 384.693 110.142C385.396 110.376 386.803 110.376 388.209 110.142C389.381 109.907 390.318 109.438 390.787 109.204C391.021 109.673 391.49 109.907 391.959 110.376C393.6 111.079 395.24 111.548 396.178 111.782Z" fill="#FFC2D5"/>
<path d="M389.382 116.234C389.382 116.234 389.147 116.234 389.382 116.234C386.569 115.765 384.46 113.187 383.757 109.906C383.757 109.672 383.757 109.203 383.991 108.968C384.226 108.734 384.694 108.734 384.929 108.734C385.397 108.968 386.569 108.968 387.976 108.5C388.679 108.265 389.616 108.031 390.085 107.562C390.554 107.328 391.022 107.328 391.257 107.797C391.491 108.265 391.96 108.5 392.194 108.734C393.601 109.906 395.007 110.375 395.944 110.375C396.179 110.375 396.647 110.609 396.647 110.843C396.882 111.078 396.882 111.547 396.647 111.781C396.179 112.484 394.772 114.828 391.726 115.765C391.726 116.234 390.554 116.468 389.382 116.234ZM386.101 110.843C386.804 112.718 388.21 113.89 389.616 114.359C390.554 114.593 391.257 114.359 391.491 114.125C392.897 113.656 393.835 112.953 394.538 112.25C393.601 112.015 392.429 111.312 391.257 110.609C391.022 110.375 390.788 110.14 390.554 109.906C389.851 110.14 389.147 110.375 388.444 110.609C387.507 110.843 386.804 110.843 386.101 110.843Z" fill="#76BEE2"/>
<path d="M502.817 383.201L516.177 386.716L513.833 356.716C513.598 354.607 511.02 353.67 509.614 355.31L489.927 378.044L497.895 381.56L497.661 382.029L500.708 382.732L502.817 383.669V383.201Z" fill="#F259A6"/>
<path d="M499.303 394.215C497.896 393.746 496.256 394.215 496.021 395.153L494.615 399.84L500.006 401.715L501.412 397.028C501.646 396.09 500.709 394.684 499.303 394.215Z" fill="#843A68"/>
<path d="M472.35 414.606L482.663 416.716L480.788 394.216C480.553 392.575 478.678 391.872 477.741 393.278L463.21 409.919C462.975 410.153 463.21 410.388 463.21 410.388L469.772 413.669L469.538 413.903L470.944 414.138L472.116 414.606H472.35Z" fill="#F259A6"/>
<path d="M446.334 404.528L459.928 407.34L457.584 377.34C457.349 375.231 454.771 374.294 453.365 375.934L433.678 398.668L443.053 403.122L442.818 403.59L444.928 404.059L446.334 404.762V404.528Z" fill="#F259A6"/>
<path d="M463.226 410.081L453.606 439.239L490.778 451.502L500.397 422.343L463.226 410.081Z" fill="#F6B960"/>
<path d="M494.382 442.968L455.71 430.077L446.804 437.343L497.663 454.218L494.382 442.968Z" fill="#F259A6"/>
<path d="M517.584 427.965L531.178 430.778L528.834 400.778C528.599 398.669 526.021 397.731 524.615 399.372L504.928 422.106L514.303 426.559L514.068 427.028L516.178 427.496L517.584 428.2V427.965Z" fill="#F259A6"/>
<path d="M436.866 433.367L429.523 455.625L500.973 479.196L508.316 456.937L436.866 433.367Z" fill="#F6B960"/>
<path d="M503.287 382.26L489.928 378.041L488.756 381.791L501.881 386.01L515.006 390.463L516.412 386.713L507.74 383.9L503.287 382.26Z" fill="#FFD08A"/>
<path d="M500.24 391.165L491.1 388.118L481.725 416.477L490.865 419.524L500.24 422.571L509.615 394.212L506.334 393.04L500.24 391.165Z" fill="#FCCD67"/>
<path d="M446.1 417.885L442.35 416.713L432.975 413.666L419.147 446.01C417.975 449.056 419.381 452.572 422.428 453.51L429.459 455.853L442.35 460.072L451.725 419.76L446.1 417.885Z" fill="#FCCD67"/>
<path d="M446.803 403.117L433.678 398.664L430.865 407.101L443.99 411.555L457.115 415.773L459.928 407.336L450.553 404.289L446.803 403.117Z" fill="#FFD08A"/>
<path d="M522.975 443.197L517.35 441.322L513.6 440.15L504.225 437.104L487.819 475.072L500.71 479.291L508.21 481.635C511.022 482.572 514.304 480.931 515.007 477.885L522.975 443.197Z" fill="#FCCD67"/>
<path d="M521.803 427.73L518.053 426.559L504.928 422.34L502.115 430.777L515.24 434.996L528.599 439.449L531.178 431.012L521.803 427.73Z" fill="#FFD08A"/>
<path d="M470.71 449.998C466.257 448.592 461.569 450.233 460.397 453.748L456.882 464.764L473.054 470.154L476.569 459.139C477.975 455.623 475.163 451.639 470.71 449.998Z" fill="#B56C48"/>
<path d="M501.883 386.014L488.758 381.795L490.867 387.889L491.102 388.123L500.242 391.17L509.617 394.217L515.008 390.467L508.445 388.123L501.883 386.014Z" fill="#E8B36B"/>
<path d="M518.054 435.936L515.241 434.998L502.116 430.779L504.226 436.873L513.601 440.154L522.975 443.201L528.6 439.451L518.054 435.936Z" fill="#E8B36B"/>
<path d="M443.991 411.559L430.866 407.105L432.976 413.434L442.351 416.48L451.725 419.762L457.116 415.777L446.804 412.496L443.991 411.559Z" fill="#E8B36B"/>
<path d="M440.944 420.934C439.538 420.465 437.897 420.934 437.663 421.871L436.257 426.559L441.647 428.434L443.054 423.746C443.288 422.575 442.351 421.403 440.944 420.934Z" fill="#B56C48"/>
<path d="M512.193 444.371C510.787 443.903 509.146 444.371 508.912 445.309L507.506 449.996L512.896 451.871L514.303 447.184C514.771 446.246 513.834 445.075 512.193 444.371Z" fill="#B56C48"/>
<path d="M462.273 130.078C462.976 132.656 461.335 135.469 458.757 136.406C455.945 137.11 453.366 135.703 452.429 132.891C451.726 130.313 453.366 127.5 455.945 126.563C458.757 125.86 461.569 127.5 462.273 130.078Z" fill="#663D20"/>
<path d="M459.946 132.468L455.885 133.611L461.79 154.593L465.85 153.45L459.946 132.468Z" fill="#663D20"/>
<path d="M482.897 152.578L448.21 162.422C447.273 162.656 446.569 162.187 446.335 161.25C445.398 157.734 447.507 153.75 451.023 152.813L475.632 146.016C479.147 145.078 483.132 147.188 484.069 150.703C484.069 151.406 483.6 152.344 482.897 152.578Z" fill="#D93E23"/>
<path d="M433.445 206.955C439.4 206.955 444.226 202.128 444.226 196.174C444.226 190.219 439.4 185.393 433.445 185.393C427.491 185.393 422.664 190.219 422.664 196.174C422.664 202.128 427.491 206.955 433.445 206.955Z" fill="#D93E23"/>
<path d="M512.195 184.687C518.15 184.687 522.976 179.86 522.976 173.906C522.976 167.952 518.15 163.125 512.195 163.125C506.241 163.125 501.414 167.952 501.414 173.906C501.414 179.86 506.241 184.687 512.195 184.687Z" fill="#D93E23"/>
<path d="M507.977 209.531L455.946 224.296C448.211 226.405 440.243 221.952 438.133 214.218L428.758 180.937C426.649 173.203 431.102 165.234 438.836 163.125L490.867 148.359C498.602 146.25 506.57 150.703 508.68 158.437L518.055 191.718C520.164 199.452 515.477 207.421 507.977 209.531Z" fill="#F75031"/>
<path d="M502.117 202.029L456.883 214.685C451.727 216.092 446.336 213.045 444.695 207.889L437.664 182.576C436.258 177.42 439.305 172.029 444.461 170.389L489.695 157.733C494.851 156.326 500.242 159.373 501.883 164.529L508.914 189.842C510.32 195.232 507.273 200.623 502.117 202.029Z" fill="#FBD82B"/>
<path d="M465.554 183.985C466.96 188.673 464.147 193.36 459.46 194.767C454.772 196.173 450.085 193.36 448.679 188.673C447.272 183.985 450.085 179.298 454.772 177.892C459.46 176.72 464.147 179.298 465.554 183.985Z" fill="#F2FAFF"/>
<path d="M495.556 175.548C496.962 180.235 494.149 184.923 489.462 186.329C484.774 187.735 480.087 184.923 478.681 180.235C477.274 175.548 480.087 170.86 484.774 169.454C489.227 168.282 494.149 170.86 495.556 175.548Z" fill="#F2FAFF"/>
<path d="M462.507 184.924C463.445 187.971 461.57 191.252 458.523 191.955C455.476 192.892 452.195 191.017 451.492 187.971C450.554 184.924 452.429 181.642 455.476 180.939C458.523 180.002 461.804 181.642 462.507 184.924Z" fill="#663D20"/>
<path d="M492.508 176.483C493.446 179.53 491.571 182.811 488.524 183.514C485.477 184.452 482.196 182.577 481.493 179.53C480.555 176.483 482.43 173.202 485.477 172.498C488.524 171.561 491.571 173.436 492.508 176.483Z" fill="#663D20"/>
<path d="M486.649 197.11L467.665 202.501C466.493 202.735 465.087 202.032 464.853 200.86C464.618 199.688 465.321 198.282 466.493 198.048L485.477 192.657C486.649 192.423 488.056 193.126 488.29 194.298C488.524 195.47 487.821 196.642 486.649 197.11Z" fill="#663D20"/>
</g>
<defs>
<clipPath id="clip0_6970_3043">
<rect width="575.388" height="553.122" fill="white" transform="translate(0.556641)"/>
</clipPath>
</defs>
</svg>
