<svg width="559" height="471" viewBox="0 0 559 471" fill="none" xmlns="http://www.w3.org/2000/svg">
<g clip-path="url(#clip0_6970_3162)">
<path d="M262.977 451.501C261.074 451.501 259.172 451.501 257.27 451.501C254.179 451.501 251.564 448.648 251.801 445.557C251.801 442.466 254.655 440.088 257.746 440.088C259.648 440.088 261.312 440.088 263.214 440.088H264.641C267.732 440.088 270.348 442.703 270.348 445.794C270.348 448.886 267.732 451.501 264.641 451.501H262.977ZM293.649 449.123C290.796 449.123 288.418 447.221 287.943 444.368C287.467 441.277 289.607 438.186 292.698 437.71C295.076 437.235 297.216 436.997 299.593 436.521C302.684 435.808 305.775 437.948 306.489 441.039C307.202 444.13 305.062 447.221 301.971 447.934C299.593 448.41 297.216 448.886 294.838 449.361C294.125 448.886 293.887 449.123 293.649 449.123ZM228.5 448.41C228.262 448.41 227.786 448.41 227.311 448.41C224.933 447.934 222.555 447.459 220.178 446.983C217.087 446.27 215.185 443.179 215.898 440.088C216.611 436.997 219.702 435.095 222.793 435.808C224.933 436.284 227.311 436.759 229.451 437.235C232.542 437.71 234.682 440.801 233.969 443.892C233.731 446.508 231.353 448.41 228.5 448.41ZM328.601 439.612C326.224 439.612 324.084 438.186 323.133 435.808C321.944 432.955 323.608 429.626 326.462 428.437C328.601 427.724 330.741 426.773 332.881 425.822C335.735 424.633 339.063 426.059 340.49 428.913C341.679 431.766 340.252 435.095 337.399 436.521C335.259 437.473 332.881 438.424 330.504 439.137C329.79 439.612 329.077 439.612 328.601 439.612ZM193.785 438.186C193.072 438.186 192.359 437.948 191.645 437.71C189.268 436.759 187.128 435.808 184.75 434.857C181.897 433.668 180.47 430.102 181.897 427.248C183.323 424.395 186.652 422.968 189.505 424.395C191.645 425.346 193.785 426.297 195.925 427.011C198.778 428.199 200.205 431.528 199.016 434.381C198.303 436.759 195.925 438.186 193.785 438.186ZM360.938 423.682C359.036 423.682 357.134 422.731 355.945 421.066C354.281 418.451 354.994 414.884 357.847 413.22C359.749 412.031 361.652 410.842 363.554 409.416C366.169 407.751 369.736 408.227 371.638 410.842C373.302 413.458 372.827 417.024 370.211 418.926C368.071 420.353 366.169 421.542 364.029 422.968C363.078 423.444 361.889 423.682 360.938 423.682ZM161.686 421.304C160.497 421.304 159.546 421.066 158.595 420.353C156.455 418.926 154.553 417.737 152.413 416.311C149.798 414.409 149.322 410.842 150.986 408.227C152.889 405.611 156.455 405.136 159.071 406.8C160.973 408.227 162.875 409.416 164.777 410.604C167.393 412.269 168.106 415.835 166.442 418.451C165.253 420.591 163.588 421.304 161.686 421.304ZM389.709 401.569C388.282 401.569 386.618 400.856 385.429 399.667C383.289 397.289 383.289 393.723 385.667 391.583C387.331 389.918 388.995 388.492 390.66 386.827C392.8 384.687 396.604 384.45 398.744 386.827C400.884 388.967 401.122 392.772 398.744 394.911C397.08 396.576 395.177 398.24 393.513 400.142C392.562 401.094 391.135 401.569 389.709 401.569ZM133.391 398.716C131.965 398.716 130.538 398.24 129.349 397.051C127.685 395.387 125.783 393.485 124.118 391.82C121.978 389.443 121.978 385.876 124.356 383.736C126.734 381.596 130.3 381.596 132.44 383.974C134.105 385.638 135.531 387.303 137.196 388.967C139.573 391.107 139.573 394.911 137.196 397.051C136.482 398.24 134.818 398.716 133.391 398.716ZM413.486 374.463C412.297 374.463 411.108 374.225 410.157 373.274C407.541 371.372 407.066 367.806 408.968 365.19C410.395 363.288 411.584 361.386 413.01 359.484C414.675 356.868 418.241 356.155 421.094 357.819C423.71 359.484 424.423 363.05 422.759 365.903C421.332 368.043 419.906 369.946 418.479 371.848C417.052 373.75 415.388 374.463 413.486 374.463ZM110.09 371.134C108.188 371.134 106.523 370.183 105.334 368.757C103.908 366.854 102.481 364.715 101.292 362.575C99.6278 359.959 100.341 356.393 103.194 354.728C105.81 353.064 109.376 353.777 111.041 356.63C112.23 358.532 113.656 360.435 114.845 362.337C116.747 364.952 116.034 368.519 113.419 370.421C112.467 370.659 111.279 371.134 110.09 371.134ZM431.794 343.077C431.081 343.077 430.13 342.84 429.416 342.602C426.563 341.175 425.374 337.846 426.563 334.993C427.514 332.853 428.465 330.713 429.416 328.573C430.605 325.72 433.934 324.293 437.025 325.482C439.878 326.671 441.305 330 440.116 333.091C439.165 335.469 438.214 337.609 437.263 339.749C436.074 341.889 433.934 343.077 431.794 343.077ZM92.4947 339.511C90.3547 339.511 88.2148 338.322 87.2637 335.944C86.3126 333.804 85.3615 331.427 84.4105 329.049C83.2216 326.196 84.6482 322.867 87.7393 321.678C90.5925 320.489 93.9213 321.916 95.1102 325.007C95.8235 327.147 96.7746 329.287 97.7256 331.427C98.9145 334.28 97.7256 337.609 94.6346 339.035C94.1591 339.273 93.4458 339.511 92.4947 339.511ZM443.683 308.838C443.207 308.838 442.732 308.838 442.256 308.601C439.165 307.887 437.263 304.796 437.976 301.705C438.452 299.565 438.927 297.188 439.403 295.048C440.116 291.957 442.969 289.817 446.06 290.53C449.151 291.243 451.291 294.097 450.578 297.188C450.103 299.565 449.627 301.943 448.914 304.321C448.676 307.174 446.298 308.838 443.683 308.838ZM81.5572 305.034C78.9417 305.034 76.564 303.132 75.8507 300.516C75.3752 298.139 74.8996 295.761 74.4241 293.383C73.9485 290.292 76.0885 287.201 79.1795 286.726C82.2705 286.25 85.3615 288.39 85.8371 291.481C86.3126 293.859 86.7882 295.999 87.2637 298.376C87.977 301.467 85.8371 304.558 82.7461 305.272C82.2705 305.034 82.0327 305.034 81.5572 305.034ZM448.438 273.173C445.109 272.935 442.494 270.319 442.732 267.228C442.732 264.851 442.969 262.711 442.969 260.333C442.969 258.431 442.969 256.291 442.969 254.389C442.969 251.298 445.347 248.444 448.438 248.444C451.529 248.207 454.382 250.822 454.382 253.913C454.382 256.053 454.382 258.193 454.382 260.333C454.382 262.711 454.382 265.326 454.145 267.704C454.145 270.557 451.529 273.173 448.438 273.173ZM77.5151 269.131C74.4241 269.131 71.8086 266.515 71.8086 263.424C71.8086 262.473 71.8086 261.284 71.8086 260.333C71.8086 258.906 71.8086 257.48 71.8086 256.053C71.8086 252.962 74.4241 250.347 77.5151 250.347C77.5151 250.347 77.5151 250.347 77.7529 250.347C80.8439 250.347 83.4594 252.962 83.4594 256.291C83.4594 257.718 83.4594 258.906 83.4594 260.333C83.4594 261.284 83.4594 262.235 83.4594 263.424C83.2216 266.277 80.8439 268.893 77.5151 269.131ZM80.3684 232.989C80.1306 232.989 79.655 232.989 79.4173 232.989C76.3262 232.514 74.1863 229.423 74.6618 226.332C75.1374 223.954 75.6129 221.576 76.0885 219.199C76.8018 216.108 79.8928 214.205 82.9838 214.919C86.0749 215.632 87.977 218.723 87.2637 221.814C86.7882 223.954 86.3126 226.332 85.8371 228.709C85.5993 231.087 83.2216 232.989 80.3684 232.989ZM445.347 230.849C442.732 230.849 440.116 228.947 439.641 226.094C439.165 223.716 438.689 221.576 438.214 219.436C437.501 216.345 439.403 213.254 442.494 212.541C445.585 211.828 448.676 213.73 449.389 216.821C449.865 219.199 450.34 221.576 450.816 223.954C451.529 227.045 449.389 230.136 446.298 230.612C446.06 230.849 445.585 230.849 445.347 230.849ZM90.3547 198.037C89.6414 198.037 88.9281 197.799 88.2148 197.561C85.3615 196.373 83.6972 193.044 84.886 190.191C85.8371 187.813 86.7882 185.673 87.7393 183.295C88.9281 180.442 92.4947 179.015 95.3479 180.442C98.2012 181.631 99.6278 185.197 98.2012 188.051C97.2501 190.191 96.299 192.33 95.5857 194.47C94.6346 196.61 92.4947 198.037 90.3547 198.037ZM435.123 196.135C432.745 196.135 430.605 194.708 429.892 192.568C428.941 190.428 428.228 188.288 427.276 186.148C426.088 183.295 427.276 179.966 430.13 178.54C432.983 177.113 436.312 178.54 437.738 181.393C438.69 183.533 439.641 185.911 440.592 188.051C441.781 190.904 440.354 194.233 437.501 195.421C436.55 196.135 435.836 196.135 435.123 196.135ZM106.761 165.938C105.81 165.938 104.621 165.7 103.67 164.987C101.054 163.322 100.341 159.756 102.006 157.14C103.432 155 104.621 153.098 106.048 150.958C107.95 148.343 111.516 147.629 114.132 149.532C116.747 151.434 117.461 155 115.558 157.616C114.132 159.518 112.943 161.42 111.754 163.322C110.565 164.987 108.663 165.938 106.761 165.938ZM418.241 164.273C416.339 164.273 414.437 163.322 413.486 161.658C412.297 159.756 410.87 157.854 409.681 155.951C407.779 153.336 408.493 149.769 411.108 147.867C413.724 145.965 417.29 146.678 419.192 149.294C420.619 151.196 422.046 153.336 423.234 155.476C424.899 158.091 424.185 161.658 421.57 163.322C420.381 163.798 419.43 164.273 418.241 164.273ZM129.111 137.405C127.685 137.405 126.258 136.93 125.069 135.741C122.692 133.601 122.692 129.797 124.832 127.657C126.496 125.992 128.16 124.09 130.063 122.426C132.44 120.286 136.007 120.286 138.147 122.664C140.287 125.041 140.287 128.608 137.909 130.748C136.245 132.412 134.58 134.077 132.916 135.741C132.202 136.93 130.776 137.405 129.111 137.405ZM395.415 135.979C393.989 135.979 392.324 135.503 391.373 134.314C389.709 132.65 388.044 130.986 386.38 129.559C384.002 127.419 384.002 123.852 386.142 121.475C388.282 119.097 391.849 119.097 394.226 121.237C396.128 122.901 397.793 124.566 399.457 126.468C401.597 128.846 401.597 132.412 399.457 134.552C398.506 135.503 397.08 135.979 395.415 135.979ZM156.693 113.866C154.791 113.866 153.126 112.915 151.937 111.488C150.035 108.873 150.749 105.306 153.364 103.404C155.266 101.977 157.406 100.551 159.546 99.3619C162.162 97.6975 165.728 98.4109 167.393 101.026C169.057 103.642 168.344 107.208 165.728 108.873C163.826 110.062 161.924 111.488 160.022 112.677C158.833 113.628 157.882 113.866 156.693 113.866ZM367.834 112.677C366.645 112.677 365.694 112.439 364.505 111.726C362.603 110.537 360.701 109.111 358.798 107.922C356.183 106.257 355.232 102.691 356.896 100.075C358.561 97.4598 362.127 96.5087 364.743 98.1731C366.883 99.5997 368.785 100.789 370.925 102.215C373.54 104.117 374.254 107.684 372.351 110.299C371.4 111.964 369.736 112.677 367.834 112.677ZM188.079 96.0331C185.939 96.0331 183.799 94.8443 182.848 92.7043C181.659 89.8511 182.848 86.5223 185.701 85.0957C187.841 84.1446 190.219 83.1935 192.359 82.2424C195.212 81.0536 198.541 82.4802 199.729 85.5712C200.918 88.4245 199.492 91.7533 196.401 92.9421C194.261 93.8932 192.121 94.6065 189.981 95.5576C189.743 96.0331 189.03 96.0331 188.079 96.0331ZM335.972 95.3198C335.259 95.3198 334.546 95.0821 333.595 94.8443C331.455 93.8932 329.315 93.1799 327.175 92.2288C324.322 91.0399 322.657 87.7111 323.846 84.8579C325.035 82.0046 328.364 80.3402 331.217 81.5291C333.595 82.4802 335.735 83.4313 338.112 84.3824C340.966 85.5712 342.392 88.9 341.203 91.991C340.49 93.8932 338.35 95.3198 335.972 95.3198ZM222.555 84.8579C219.94 84.8579 217.562 82.9557 216.849 80.3402C216.136 77.2492 218.038 74.1582 221.129 73.4449C223.507 72.9693 225.884 72.4938 228.262 72.0183C231.353 71.5427 234.444 73.4449 234.92 76.5359C235.395 79.6269 233.493 82.718 230.402 83.1935C228.024 83.669 225.884 84.1446 223.744 84.6201C223.269 84.8579 222.793 84.8579 222.555 84.8579ZM301.496 84.3824C301.02 84.3824 300.782 84.3823 300.307 84.1446C298.167 83.669 295.789 83.1935 293.411 82.9557C290.32 82.4802 288.18 79.3892 288.656 76.2981C289.131 73.2071 292.222 71.0672 295.313 71.5427C297.691 72.0183 300.069 72.4938 302.447 72.9693C305.538 73.6827 307.44 76.7737 306.964 79.8647C306.489 82.4802 304.111 84.3824 301.496 84.3824ZM258.459 80.3402C255.368 80.3402 252.752 77.9625 252.752 74.6337C252.752 71.5427 255.13 68.9272 258.459 68.6895C260.123 68.6895 261.788 68.6895 263.214 68.6895C264.165 68.6895 264.879 68.6895 265.83 68.6895C268.921 68.6895 271.536 71.3049 271.536 74.6337C271.536 77.7248 268.921 80.3402 265.83 80.3402C263.214 80.3402 260.837 80.3402 258.459 80.3402Z" fill="#97D1F7"/>
<path d="M227.31 417.021C249.661 412.503 264.165 394.67 269.633 372.795C275.815 347.83 275.815 197.796 269.633 155.235C266.305 132.884 249.423 116.24 227.31 111.009C192.596 102.925 126.495 102.925 89.4028 111.009C67.0524 115.765 50.4084 132.884 47.0796 155.235C40.6598 197.558 41.8486 346.641 47.0796 372.795C51.5972 394.908 67.0524 412.503 89.4028 417.021C123.404 423.916 193.547 423.916 227.31 417.021Z" fill="#5AB2FA"/>
<path d="M213.996 368.518C233.018 365.902 247.76 354.251 249.9 339.747C255.844 300.04 255.844 198.274 249.9 158.566C247.76 144.062 232.78 133.362 213.996 129.795C179.757 123.376 135.056 124.089 102.719 129.795C83.6977 133.124 68.9559 144.062 66.8159 158.566C60.8716 197.56 61.3472 317.159 66.8159 339.747C70.1447 354.014 83.6977 365.664 102.719 368.518C126.734 372.084 187.841 372.084 213.996 368.518Z" fill="#9EDFFF"/>
<path d="M57.7767 249.402C56.1123 241.318 55.6368 237.989 48.0281 231.569C40.6572 225.387 40.8949 226.1 37.8039 221.107C37.8039 221.107 34.9507 217.541 33.0485 221.82C31.1463 225.863 35.4262 232.045 35.4262 232.045C35.4262 232.045 16.8801 222.058 10.4602 219.681C10.4602 219.681 6.18035 218.967 6.41812 222.058C6.89367 225.625 21.3977 233.709 21.3977 233.709C21.3977 233.709 7.60698 228.24 4.75373 228.002C1.90047 227.765 0.711615 229.429 0.711615 230.618C0.711615 231.807 1.42493 234.66 8.08252 237.276C8.08252 237.276 20.6844 242.269 23.7754 243.933C23.7754 243.933 6.65589 238.94 3.3271 239.178C-0.239469 239.416 -0.00169807 241.555 0.236073 242.507C0.473844 243.458 1.18716 245.36 5.94258 246.786C10.698 248.213 16.4045 250.353 23.5376 252.255C23.5376 252.255 13.3135 252.017 9.98469 253.444C6.65589 254.871 6.65589 257.724 8.55806 258.675C10.4602 259.626 16.1667 259.388 19.7333 259.626C24.0132 259.864 23.7754 258.675 27.5798 261.053C32.573 263.906 37.5661 265.333 43.2727 265.57C43.2727 265.57 54.6857 294.103 58.2522 295.767C61.8188 297.432 84.1693 297.432 82.2671 290.774C79.6516 282.928 59.9166 259.626 57.7767 249.402Z" fill="#F9D1AF"/>
<path d="M37.3276 237.274C36.6143 240.841 37.3276 245.121 37.3276 245.121C38.7542 253.68 42.083 253.918 42.083 253.918C37.0898 246.072 40.1809 236.799 40.1809 236.799C37.8031 234.897 36.1387 232.994 34.9499 231.568C35.1877 232.043 35.4254 232.281 35.4254 232.281C35.4254 232.281 33.9988 231.568 31.6211 230.379C33.9988 234.183 37.3276 237.274 37.3276 237.274Z" fill="#F9BF8E"/>
<path d="M26.153 256.297C26.153 248.451 28.2929 235.849 28.2929 235.849C24.2508 234.185 17.1177 230.856 14.74 229.667C18.3065 231.807 21.3976 233.709 21.3976 233.709C21.3976 233.709 16.6421 231.807 11.8867 230.143C16.4044 232.758 25.4397 237.038 25.4397 237.038C23.062 253.682 26.153 256.297 26.153 256.297Z" fill="#F9BF8E"/>
<path d="M20.923 243.22C20.923 243.22 23.063 243.696 25.9162 244.885V247.024C25.9162 247.024 20.2097 244.409 17.3564 242.507L20.923 243.22Z" fill="#F9BF8E"/>
<path d="M20.2098 252.256C20.2098 252.256 23.3008 252.256 25.6785 252.494C25.6785 252.494 25.6785 254.634 25.4408 254.634C25.203 254.634 18.3076 252.256 18.3076 252.256H20.2098Z" fill="#F9BF8E"/>
<path d="M142.9 223.006C152.887 232.755 153.838 238.937 129.585 268.658C112.228 289.82 87.0241 328.339 71.5689 312.408C58.4915 299.093 83.4575 269.847 107.948 240.125C125.305 218.964 136.48 216.824 142.9 223.006Z" fill="#F89C05"/>
<path d="M87.4977 313.12C79.6513 319.064 70.8537 315.973 53.4964 296.238C47.7899 289.58 37.328 275.79 35.9014 269.37C35.9014 269.37 39.4679 263.426 47.0766 257.957C51.5943 254.628 59.2029 248.684 62.7695 250.824C62.7695 250.824 76.798 268.657 82.029 274.839C103.428 299.567 95.3442 307.413 87.4977 313.12Z" fill="#F89C05"/>
<path d="M110.088 292.912C110.088 292.912 108.185 284.114 110.801 258.197C110.801 258.197 101.052 267.946 104.857 298.856L110.088 292.912Z" fill="#EB8313"/>
<path d="M172.383 223.481C184.747 217.061 199.251 226.572 221.601 262C237.532 287.441 264.638 324.533 244.665 334.044C227.783 342.129 201.629 316.211 179.278 280.546C163.347 255.104 164.536 227.523 172.383 223.481Z" fill="#F89C05"/>
<path d="M210.901 359.249C209.474 350.214 203.292 336.423 202.579 323.108C202.103 312.408 202.817 294.575 202.817 283.162C202.817 271.749 201.39 256.77 198.537 247.021C191.404 221.817 175.949 214.446 157.64 213.971C157.402 213.971 155.738 213.971 155.738 213.971C155.263 213.971 152.409 214.208 152.409 214.208C135.528 215.635 121.024 223.244 114.128 247.259C111.275 257.007 109.848 271.987 109.848 283.4C109.848 294.813 110.799 312.646 110.086 323.345C109.373 336.661 103.191 350.451 101.764 359.487C101.288 362.102 101.289 364.48 102.002 366.144C102.715 367.809 104.855 369.235 107.946 370.186C119.597 373.753 144.563 374.942 155.5 374.942C155.738 374.942 155.738 374.942 155.976 374.942C156.214 374.942 156.214 374.942 156.451 374.942C167.389 374.942 192.355 373.753 204.006 370.186C207.097 369.235 209.237 368.046 209.95 366.144C211.377 364.242 211.377 362.102 210.901 359.249Z" fill="#EAF0F4"/>
<path d="M131.963 220.625L132.201 220.388C132.201 220.388 132.201 220.388 131.963 220.625Z" fill="#E1E8EB"/>
<path d="M134.341 219.202C134.579 219.202 134.816 218.964 135.054 218.964C134.816 218.964 134.579 218.964 134.341 219.202Z" fill="#E1E8EB"/>
<path d="M137.669 217.774C137.194 223.243 136.243 231.802 135.529 241.789C137.669 243.215 140.047 244.166 142.662 244.166C143.138 244.166 143.614 244.166 144.327 243.929C149.32 243.215 154.313 235.369 156.929 231.089C159.544 235.607 164.775 243.215 169.531 243.929C170.006 243.929 170.482 244.166 171.195 244.166C173.573 244.166 175.713 243.453 177.853 242.026C177.139 232.04 176.188 223.48 175.713 217.774C173.81 217.06 174.048 216.585 172.146 216.109C171.671 217.06 171.195 219.914 168.342 221.578C164.537 223.956 158.593 226.571 157.166 227.285C155.74 226.571 152.173 226.571 148.369 224.194C145.278 222.291 142.9 217.774 142.425 216.823C139.809 217.298 139.571 216.823 137.669 217.774C137.431 217.774 137.431 217.774 137.669 217.774Z" fill="#C3CFD5"/>
<path d="M136.243 233.467C136.243 233.467 130.299 252.013 133.39 303.134C133.39 303.134 135.054 259.146 139.096 237.271L136.243 233.467Z" fill="#C3CFD5"/>
<path d="M173.334 219.202C173.334 216.825 170.719 215.398 166.914 214.447C166.914 211.594 166.677 208.978 166.677 207.552C166.677 198.754 161.921 195.663 156.215 195.663C150.508 195.663 145.753 198.754 145.753 207.552C145.753 208.978 145.753 211.832 145.753 214.685C142.186 215.636 139.809 217.062 139.809 218.965C139.809 224.433 146.942 226.098 155.026 227.049C155.501 227.049 155.977 227.049 156.453 227.049C156.928 227.049 157.404 227.049 157.641 227.049C166.439 226.573 173.334 224.909 173.334 219.202Z" fill="#F5C6A2"/>
<path d="M133.624 352.354C135.05 324.772 133.148 316.688 133.148 286.491C133.148 262.952 136.001 231.328 137.428 218.251C126.491 222.531 116.742 230.615 111.749 247.259C108.896 257.008 107.707 270.798 107.707 282.211C107.707 293.624 109.371 313.122 108.896 323.821C108.182 336.899 101.525 350.927 100.098 359.725C99.6225 362.34 99.6225 364.718 100.336 366.382C101.049 368.047 103.427 369.473 106.756 370.424C112.938 372.089 122.211 373.278 131.722 373.991L132.197 373.753C133.624 368.998 133.624 352.354 133.624 352.354Z" fill="#F89C05"/>
<path d="M179.277 352.352C177.85 324.77 179.515 316.686 179.515 286.252C179.515 262.474 176.662 231.089 175.473 217.773C185.697 222.053 194.019 230.851 198.774 247.495C201.627 257.243 203.054 272.223 203.054 283.636C203.054 295.049 202.103 312.882 202.816 323.582C203.53 336.897 209.712 350.688 211.138 359.723C211.614 362.338 211.614 364.716 210.901 366.38C210.187 368.045 208.047 369.471 204.956 370.423C199.25 372.087 190.214 373.276 181.179 373.989L180.704 373.751C179.277 368.996 179.277 352.352 179.277 352.352Z" fill="#F89C05"/>
<path d="M175.95 233.467C175.95 233.467 181.894 252.013 178.803 303.134C178.803 303.134 177.139 259.146 173.097 237.271L175.95 233.467Z" fill="#C3CFD5"/>
<path d="M137.431 217.773C136.718 218.011 126.018 222.767 125.543 223.48C125.305 223.718 123.165 224.907 123.165 224.907C124.829 228.711 130.06 237.984 135.529 241.551C136.242 231.802 136.956 223.242 137.431 217.773Z" fill="#E18055"/>
<path d="M175.473 217.773C175.948 223.242 176.899 232.04 177.613 242.026C183.081 238.697 189.026 229.662 190.452 225.144C189.977 224.669 187.599 223.242 187.599 223.242C183.795 220.864 179.515 219.438 175.473 217.773Z" fill="#E18055"/>
<path d="M140.283 215.396C140.758 215.158 141.472 215.634 141.709 216.11C142.423 217.536 143.849 219.676 147.416 222.054C152.885 225.383 156.689 227.285 156.689 227.285C156.689 227.285 149.556 241.313 143.849 242.264C134.576 243.691 126.73 229.425 125.303 224.907C125.065 224.194 125.303 223.243 125.779 222.529C127.681 220.865 131.961 217.536 140.283 215.396Z" fill="#EAF0F4"/>
<path d="M173.335 215.396C172.859 215.158 172.146 215.634 171.908 216.11C171.195 217.536 169.768 219.676 166.202 222.054C160.733 225.383 156.929 227.285 156.929 227.285C156.929 227.285 164.062 241.313 169.768 242.264C179.041 243.691 186.888 229.425 188.314 224.907C188.552 224.194 188.315 223.243 187.839 222.529C186.175 220.865 181.657 217.536 173.335 215.396Z" fill="#EAF0F4"/>
<path d="M81.3173 273.888C81.3173 273.888 76.0864 281.021 74.1842 284.826C74.1842 284.826 71.5687 282.924 77.7508 269.608L81.3173 273.888Z" fill="#EB8313"/>
<path d="M105.57 340.462C105.57 340.462 113.892 344.98 124.829 344.266C125.542 344.266 126.018 344.742 126.018 345.455L125.78 349.497C125.78 349.973 125.305 350.448 124.829 350.448C121.738 350.448 111.514 349.973 104.143 346.406C103.905 346.168 103.667 344.742 105.57 340.462Z" fill="#E87F23"/>
<path d="M206.146 340.462C206.146 340.462 197.824 344.98 186.886 344.266C186.173 344.266 185.697 344.742 185.697 345.455L185.935 349.497C185.935 349.973 186.411 350.448 186.886 350.448C189.977 350.448 200.201 349.973 207.572 346.406C207.81 346.168 208.048 344.742 206.146 340.462Z" fill="#E87F23"/>
<path d="M258.219 225.622C259.646 225.147 260.359 223.244 259.646 222.055C259.17 220.629 257.506 219.916 256.079 219.916C256.793 219.202 256.317 218.013 255.604 217.538C254.891 217.062 253.702 217.3 252.988 217.538C252.988 215.873 251.562 214.685 249.897 214.685C213.994 217.776 203.77 239.651 203.77 239.651C176.426 228.475 154.076 243.93 154.076 243.93C153.125 244.406 151.698 244.882 151.698 246.784C151.698 247.259 151.936 247.973 152.173 248.21C150.747 248.21 148.845 250.35 149.32 251.777C149.32 252.015 149.32 252.015 149.32 252.252C149.32 252.49 149.082 252.49 148.845 252.728C147.656 253.441 147.18 254.392 146.942 255.343C146.467 257.246 147.418 257.483 148.131 257.959C149.796 258.672 151.936 257.246 153.838 256.77C166.202 253.204 179.042 251.539 191.881 252.252C195.21 252.49 198.777 252.728 202.105 252.252C207.574 251.539 212.567 248.686 217.56 246.07C231.113 238.462 243.953 230.377 258.219 225.622Z" fill="#F2FAFF" stroke="#E5EAE4" stroke-width="2.11783" stroke-miterlimit="10" stroke-linecap="round" stroke-linejoin="round"/>
<path d="M211.616 242.742C211.616 242.742 222.553 228.714 257.268 222.056C257.268 222.056 262.261 219.916 262.974 226.098C263.688 232.043 272.248 299.808 272.248 301.71C272.248 303.612 271.296 304.563 269.632 305.514C267.968 306.465 256.317 307.892 226.596 317.403C226.596 317.403 223.505 323.822 212.329 321.92C212.329 321.92 177.139 326.2 165.726 331.907C165.726 331.907 162.397 332.858 161.922 328.578C161.446 324.298 146.229 260.575 146.229 260.575C146.229 260.575 145.991 257.246 149.558 255.107C154.789 252.016 171.908 242.505 199.252 246.547C199.252 246.309 207.574 246.071 211.616 242.742Z" fill="#1789D9"/>
<path d="M211.618 242.742C207.575 246.07 199.253 246.308 199.253 246.308H199.016L212.331 321.682C223.506 323.822 226.359 317.164 226.359 317.164C226.359 317.164 226.359 317.164 226.597 317.164C224.219 303.373 215.897 258.91 212.806 241.553C212.093 242.266 211.618 242.742 211.618 242.742Z" fill="#2672C9"/>
<path d="M146.706 260.811C146.468 260.811 146.23 260.811 145.992 260.573C145.279 260.097 145.041 259.384 145.517 258.671C148.846 252.726 171.434 240.838 199.253 244.88C200.204 244.88 207.1 244.404 210.666 241.789C212.093 240.362 224.457 227.047 260.36 221.341C261.074 221.103 261.787 221.816 262.025 222.529C262.263 223.243 261.549 223.956 260.836 224.194C224.457 230.138 212.806 243.691 212.806 243.929L212.568 244.167C208.051 247.733 199.729 247.971 199.491 247.971H199.253C171.196 243.929 150.51 256.293 148.132 260.573C147.657 260.573 147.181 260.811 146.706 260.811Z" fill="#2672C9"/>
<path d="M223.744 246.545C228.023 243.929 241.101 237.034 253.465 236.083C254.892 236.083 256.08 236.796 256.318 238.223L257.983 250.112C258.22 251.3 257.269 252.489 256.08 252.727C251.325 253.678 239.912 256.294 228.737 262.476C227.31 263.427 225.17 262.476 224.932 260.811L222.555 248.923C222.555 247.972 222.792 247.02 223.744 246.545Z" fill="#EAE56C"/>
<path d="M243.952 299.567C242.525 295.763 239.197 293.147 234.917 292.434C230.161 291.483 224.217 291.721 220.175 294.336C218.986 295.049 217.797 296.001 217.322 297.427C217.084 298.854 218.035 300.518 219.224 300.28C219.224 300.28 214.944 301.945 215.657 304.798C216.371 307.651 219.937 308.127 219.937 308.127C219.937 308.127 215.42 307.889 215.182 311.456C214.944 315.022 220.888 315.736 220.888 315.736C220.888 315.736 217.084 315.26 216.846 318.351C216.608 320.491 219.699 321.204 224.93 323.582C224.93 323.582 226.833 324.533 227.784 326.435C227.784 326.435 230.161 330.24 235.155 332.142C238.008 333.331 242.763 332.617 245.616 327.862C247.519 324.533 247.519 320.966 247.281 314.547C247.519 308.365 243.952 299.567 243.952 299.567Z" fill="#FCE3CB"/>
<path d="M219.464 308.125C219.939 308.125 220.177 308.125 220.177 308.125C220.177 308.125 219.939 308.125 219.702 308.125C219.464 307.887 219.464 308.125 219.464 308.125Z" fill="#F5B17E"/>
<path d="M228.497 298.376C233.252 298.376 235.868 299.327 235.868 299.327C235.868 299.327 235.392 297.188 230.875 296.712C227.784 296.474 221.602 296.712 217.56 298.852C217.797 299.565 218.511 300.041 219.462 300.041C219.462 300.041 219.224 300.279 218.748 300.516C218.748 300.516 223.742 298.376 228.497 298.376Z" fill="#F5C6A2"/>
<path d="M219.701 307.887C220.652 307.649 223.268 307.411 226.596 307.411C229.212 307.411 233.254 307.649 236.583 309.551C236.583 309.551 235.869 306.936 231.827 305.985C228.736 305.271 222.554 305.033 217.323 306.698C218.037 307.411 219.225 307.887 219.701 307.887Z" fill="#F5C6A2"/>
<path d="M233.967 320.726C233.967 320.726 233.492 317.873 230.876 316.446C227.072 314.306 221.841 313.355 217.323 314.306C218.988 315.257 221.128 315.733 221.128 315.733C221.128 315.733 220.652 315.733 220.176 315.733C222.079 315.733 227.547 316.208 230.401 318.11C233.492 319.775 233.967 320.726 233.967 320.726Z" fill="#F5C6A2"/>
<path d="M209.716 155.476C227.073 192.331 184.75 209.926 164.777 210.639C116.034 212.066 107.95 185.198 107.95 185.198C107.95 185.198 100.579 186.386 97.0124 183.295C87.7393 174.736 89.166 165.7 93.9214 164.274C97.9635 162.847 104.859 168.791 104.859 168.791C104.859 168.791 103.67 166.414 103.194 165.225C101.292 161.658 90.3548 141.448 98.2013 118.859C106.761 94.369 132.678 81.5294 155.504 82.0049C176.19 82.4805 199.254 94.369 208.289 116.244C214.234 130.748 211.38 149.532 209.716 155.476Z" fill="#FCE3CB"/>
<path d="M141.713 155.713C141.713 160.231 144.091 165.224 148.608 165.462C151.699 165.7 154.315 161.895 154.553 157.14C154.79 152.385 151.937 147.867 148.846 147.629C143.853 147.391 141.713 151.433 141.713 155.713Z" fill="#574238"/>
<path d="M175.476 153.338C175.476 157.856 177.853 162.849 182.371 163.087C185.462 163.325 188.077 159.52 188.315 154.765C188.553 150.01 185.7 145.492 182.609 145.254C177.616 145.016 175.476 149.058 175.476 153.338Z" fill="#574238"/>
<path d="M179.28 180.918C176.189 181.869 169.769 183.772 163.587 183.296C155.741 182.583 145.754 175.45 145.754 175.687C144.328 179.73 148.845 194.709 161.447 195.66C174.525 196.849 181.658 180.205 179.28 180.918Z" fill="#EB7485"/>
<path d="M170.246 162.374C172.385 163.325 173.574 165.465 173.337 167.843C173.099 169.745 171.434 171.172 169.532 171.647" stroke="#F4AC88" stroke-width="3.32594" stroke-miterlimit="10" stroke-linecap="round" stroke-linejoin="round"/>
<path d="M187.841 131.224C186.652 129.084 184.512 127.895 182.134 128.133C179.043 128.37 177.617 131.224 177.379 131.461" stroke="#574238" stroke-width="3.32594" stroke-miterlimit="10" stroke-linecap="round" stroke-linejoin="round"/>
<path d="M149.083 134.314C147.894 132.174 145.754 130.986 143.377 131.223C140.285 131.461 138.859 134.314 138.621 134.552" stroke="#574238" stroke-width="3.32594" stroke-miterlimit="10" stroke-linecap="round" stroke-linejoin="round"/>
<path d="M147.182 154.524C148.101 154.524 148.846 153.779 148.846 152.86C148.846 151.94 148.101 151.195 147.182 151.195C146.263 151.195 145.518 151.94 145.518 152.86C145.518 153.779 146.263 154.524 147.182 154.524Z" fill="#F2FAFF"/>
<path d="M179.994 152.624C180.914 152.624 181.659 151.879 181.659 150.959C181.659 150.04 180.914 149.295 179.994 149.295C179.075 149.295 178.33 150.04 178.33 150.959C178.33 151.879 179.075 152.624 179.994 152.624Z" fill="#F2FAFF"/>
<path d="M204.882 176.57C205.857 172.482 202.816 168.255 198.09 167.128C193.364 166.001 188.742 168.4 187.767 172.488C186.792 176.575 189.833 180.802 194.559 181.93C199.285 183.057 203.907 180.657 204.882 176.57Z" fill="#F5BBA9"/>
<path d="M141.44 178.455C142.414 174.367 139.373 170.14 134.647 169.013C129.921 167.885 125.3 170.285 124.325 174.372C123.35 178.46 126.391 182.687 131.117 183.814C135.843 184.942 140.465 182.542 141.44 178.455Z" fill="#F5BBA9"/>
<path d="M70.8557 134.317C71.569 158.332 76.3244 170.221 77.0377 193.522C77.9888 218.964 75.6111 216.586 85.5975 216.348C111.752 215.635 146.229 209.928 146.229 209.928C146.229 209.928 135.054 207.551 133.865 207.075C112.466 199.942 107.948 185.438 107.948 185.438C107.948 185.438 100.577 186.627 97.0105 183.536C87.7374 174.976 89.164 165.941 93.9195 164.514C96.535 163.563 99.8638 165.465 102.241 167.13C104.381 168.794 106.284 170.696 108.424 172.836C108.424 172.836 107.235 168.319 106.284 165.703C105.808 164.514 105.332 162.612 104.857 160.234C104.381 153.577 108.899 147.87 112.703 144.541C122.452 135.982 134.816 132.177 144.327 123.38C151.222 116.96 157.404 109.114 159.782 100.078C160.258 100.792 160.495 101.505 160.971 102.218C166.677 111.491 176.902 118.624 185.937 124.093C190.93 127.184 196.637 130.275 201.63 133.366C204.959 135.506 211.141 141.213 211.378 146.919C210.903 150.961 210.19 154.29 209.714 156.43C223.98 186.627 195.21 204.698 174.286 210.166C174.048 210.166 224.456 197.802 223.505 193.76C221.127 182.109 216.847 159.521 218.987 152.863C223.743 137.884 225.169 125.044 220.176 110.302C211.141 83.672 186.65 68.9302 159.782 65.1259C138.145 62.0348 114.606 64.1748 96.535 77.2522C78.4643 89.6163 70.1424 112.205 70.8557 134.317Z" fill="#82512F"/>
<path d="M442.254 205.409H361.649C340.25 205.409 322.893 188.052 322.893 166.653V86.286C322.893 64.8866 340.25 47.5293 361.649 47.5293H442.254C463.653 47.5293 481.01 64.8866 481.01 86.286V166.653C481.01 188.052 463.653 205.409 442.254 205.409Z" fill="#FF9CEB"/>
<path d="M474.591 471H390.42C369.02 471 351.663 453.642 351.663 432.243V351.639C351.663 330.239 369.02 312.882 390.42 312.882H474.591C495.99 312.882 513.347 330.239 513.347 351.639V432.243C513.585 453.642 496.228 471 474.591 471Z" fill="#A5D42F"/>
<path d="M394.224 139.784C388.755 136.693 382.098 137.644 377.342 140.022C370.922 143.35 368.782 150.008 366.88 155.952C364.74 162.61 364.74 167.841 364.74 169.743C364.265 176.876 360.223 187.1 343.341 200.891C348.81 203.982 355.229 205.646 361.887 205.646H378.769C383.524 201.129 388.042 195.898 392.084 189.954C402.784 174.498 403.497 164.512 403.259 159.281C402.784 154.763 402.308 144.301 394.224 139.784Z" fill="#FFD324"/>
<path d="M504.549 86.2867C502.885 87 501.221 87.9511 501.221 87.9511C500.27 88.6644 499.081 89.3777 498.13 90.0911C498.843 87.2378 499.556 84.6223 500.507 81.7691C500.745 80.818 501.221 79.6291 501.221 78.4403C501.221 76.5381 501.458 74.6359 501.458 72.7338C501.458 67.9783 501.221 62.9851 500.27 58.4675C498.367 48.4811 494.325 39.208 488.143 31.1238C473.639 12.5777 450.338 3.78012 427.749 0.689099C419.19 -0.499757 376.391 -3.11524 357.131 24.4662C352.851 30.4105 350.949 36.3548 349.76 40.3969C350.949 39.6836 352.376 38.4947 352.376 37.5436C352.138 35.1659 344.767 33.5015 338.823 33.5015C332.403 33.2637 330.739 34.9281 323.843 35.1659C319.088 35.1659 315.284 34.6904 312.668 33.9771C311.004 47.2922 317.661 59.6563 328.361 63.9362C338.347 68.2161 348.096 63.6985 349.998 62.7474C349.998 59.4186 350.236 56.0898 350.236 52.761C348.809 65.3629 351.663 74.3982 353.565 78.9158C358.796 91.2799 368.069 99.1264 377.817 107.211C380.908 109.826 383.999 112.204 387.328 114.344C393.273 118.386 399.692 122.19 406.35 125.281C412.77 128.134 419.427 130.274 426.085 132.414C427.749 132.89 429.652 133.603 431.316 133.841C438.211 135.03 442.253 132.414 448.911 130.988C452.24 130.274 457.233 129.561 463.415 130.274C466.982 129.323 471.975 127.421 476.73 123.617C488.619 114.581 491.234 101.504 491.948 97.462C496.703 114.819 513.585 125.757 529.991 123.617C544.257 121.715 556.146 110.064 558.999 95.0843C548.775 96.5109 541.642 94.6087 536.886 92.7065C530.704 90.0911 529.991 87.4756 523.096 85.8112C513.109 82.9579 505.976 85.8112 504.549 86.2867Z" fill="#F18A00"/>
<path d="M461.036 200.655C460.561 198.752 460.085 197.088 459.848 195.424C454.379 173.311 450.337 156.667 438.686 145.254C432.742 139.547 425.371 134.792 416.573 131.463C415.147 130.988 413.72 130.512 412.293 130.274C406.111 128.61 398.978 129.799 393.034 133.128C392.321 132.89 389.467 132.414 386.614 133.841C383.761 135.505 381.859 138.596 381.859 142.163C377.817 157.38 374.488 180.206 379.719 205.648H442.253C449.148 205.41 455.33 203.746 461.036 200.655Z" fill="#FFD324"/>
<path d="M414.197 205.409C402.07 200.416 395.413 188.527 399.93 172.834C402.308 164.274 402.07 157.141 406.35 149.533C410.155 143.113 414.434 137.406 419.903 132.651C418.714 132.175 417.525 131.7 416.337 131.224C414.91 130.749 413.483 130.273 412.057 130.035C408.728 129.084 404.924 129.084 401.357 129.798C401.357 130.273 401.595 130.986 401.595 131.462C401.595 131.462 401.595 131.937 401.595 132.175C401.595 133.126 396.839 145.015 390.42 161.421C386.615 161.183 382.811 160.708 379.007 160.47C380.671 154.05 382.335 147.393 384 140.973C380.909 140.735 378.055 140.497 374.964 140.022C374.489 143.113 373.776 148.344 372.824 154.526C370.447 171.17 370.209 177.114 368.545 187.814C367.831 192.094 366.88 198.038 365.216 205.171H414.197V205.409Z" fill="#2779CC"/>
<path d="M427.272 147.394C420.853 144.303 413.244 145.968 408.251 149.296C401.355 153.814 399.453 161.661 398.027 169.031C396.124 177.116 396.6 183.298 396.838 185.438C397.076 190.669 395.649 197.326 390.418 205.648H430.126C440.35 187.102 440.112 175.451 439.399 169.507C438.448 164.038 436.783 151.912 427.272 147.394Z" fill="#FFD324"/>
<path d="M351.188 78.4428C323.131 110.542 360.699 140.501 380.672 146.921C429.415 162.376 445.346 137.648 445.346 137.648C445.346 137.648 452.479 140.977 456.759 138.837C468.647 132.892 469.598 123.382 465.556 120.528C461.752 117.913 453.192 121.955 453.192 121.955C453.192 121.955 455.094 120.053 455.808 118.864C458.899 115.773 475.543 98.4156 473.878 73.6874C472.214 46.3437 449.863 26.1332 426.562 20.1889C405.4 14.7202 378.77 20.1889 363.552 39.4484C353.804 52.288 351.426 72.023 351.188 78.4428Z" fill="#FCD4B1"/>
<path d="M423.472 101.743C422.045 106.974 417.765 111.729 412.534 110.778C408.968 110.065 407.065 105.072 408.492 99.3651C409.919 93.8964 414.674 89.6165 418.241 90.3298C423.709 91.7565 424.898 96.9874 423.472 101.743Z" fill="#493529"/>
<path d="M385.903 88.193C384.477 93.424 380.197 98.1794 374.966 97.2283C371.399 96.515 369.497 91.5218 370.924 85.8153C372.35 80.3466 377.106 76.0667 380.672 76.78C385.903 77.9689 387.092 83.1998 385.903 88.193Z" fill="#493529"/>
<path d="M374.727 112.921C377.58 114.823 383.525 118.39 389.707 119.816C397.791 121.481 409.917 116.963 409.917 117.201C410.155 121.718 401.358 135.509 388.518 132.894C374.965 130.278 372.587 111.494 374.727 112.921Z" fill="#F6798D"/>
<path d="M389.232 96.9883C386.854 97.2261 384.952 99.1282 384.714 101.506C384.476 103.408 385.665 105.31 387.329 106.261" stroke="#FAAE8E" stroke-width="3.48715" stroke-miterlimit="10" stroke-linecap="round" stroke-linejoin="round"/>
<path d="M410.393 103.407C411.444 103.407 412.296 102.555 412.296 101.505C412.296 100.454 411.444 99.6025 410.393 99.6025C409.343 99.6025 408.491 100.454 408.491 101.505C408.491 102.555 409.343 103.407 410.393 103.407Z" fill="#F2FAFF"/>
<path d="M373.54 90.3288C374.59 90.3288 375.442 89.4771 375.442 88.4266C375.442 87.376 374.59 86.5244 373.54 86.5244C372.489 86.5244 371.638 87.376 371.638 88.4266C371.638 89.4771 372.489 90.3288 373.54 90.3288Z" fill="#F2FAFF"/>
<path d="M368.761 101.946C368.952 97.4849 364.959 93.6914 359.842 93.4726C354.725 93.2539 350.423 96.6928 350.232 101.154C350.041 105.614 354.035 109.408 359.151 109.627C364.268 109.845 368.571 106.406 368.761 101.946Z" fill="#F5BAAB"/>
<path d="M432.099 122.211C432.29 117.75 428.297 113.957 423.18 113.738C418.063 113.52 413.761 116.958 413.57 121.419C413.379 125.88 417.373 129.673 422.489 129.892C427.606 130.111 431.909 126.672 432.099 122.211Z" fill="#F5BAAB"/>
<path d="M387.804 16.3835C378.531 21.1389 369.496 25.6565 360.223 30.412C357.845 39.4473 355.468 48.4826 353.09 57.5179L382.098 67.2665L387.091 63.9377L388.042 69.4064L418.715 79.1551L423.232 74.6374L423.946 80.8195C444.394 87.0015 464.842 93.4213 485.528 99.6034C483.151 81.295 480.773 63.2244 478.395 44.916C474.591 38.734 465.793 25.8943 449.149 17.5723C420.379 3.54383 392.56 14.4813 387.804 16.3835Z" fill="#F18A00"/>
<path d="M390.894 19.9495C392.321 18.7606 390.894 16.1451 389.23 17.334C383.999 21.1383 379.243 25.4182 376.152 31.3625C373.299 36.8312 371.635 43.251 373.061 49.4331C373.537 51.3353 376.39 50.3842 375.914 48.482C374.488 43.0133 376.39 37.069 379.005 32.3136C382.096 27.0826 386.376 23.2783 390.894 19.9495Z" fill="#EE7504"/>
<path d="M440.591 67.0259C438.688 62.9838 437.737 58.4662 437.975 54.1863C438.213 49.1931 440.353 44.4377 442.493 40.1578C443.444 38.4934 440.591 37.0668 439.877 38.7312C437.5 43.7244 435.36 48.9553 435.122 54.4241C434.884 59.4173 436.073 64.4105 438.213 68.9281C438.926 70.117 441.304 68.6903 440.591 67.0259Z" fill="#EE7504"/>
<path d="M410.631 57.9959C409.204 53.716 408.729 49.1984 409.442 44.9185C410.393 39.9253 412.771 35.6454 415.386 31.3655C416.337 29.7011 413.959 28.0367 413.008 29.7011C409.917 34.4566 407.302 39.212 406.351 44.6807C405.4 49.6739 406.113 54.6671 407.777 59.4225C408.491 61.0869 411.344 59.6603 410.631 57.9959Z" fill="#EE7504"/>
<path d="M490.285 97.7032C490.761 97.7032 491.236 97.7032 491.712 97.2277C492.901 96.2766 492.425 95.3255 491.712 94.3744C490.761 92.9478 490.523 91.0456 490.285 89.3812C489.81 87.4791 489.334 85.5769 489.096 83.6747C488.621 80.5837 488.621 77.4927 489.096 74.4017C489.334 72.4995 486.481 71.7862 486.243 73.6883C485.292 78.206 485.767 82.9614 486.719 87.4791C486.956 89.3812 487.67 91.2834 487.907 93.1856C488.145 94.1367 487.907 95.3255 488.383 96.2766C488.383 96.7521 489.334 97.4655 490.285 97.7032Z" fill="#EE7504"/>
<path d="M470.549 111.254C469.361 106.261 470.787 101.268 471.976 96.5121C472.927 91.7567 473.165 87.239 472.689 82.4836C471.263 73.4483 467.458 64.413 468.41 55.1399C468.647 53.2378 465.794 52.5245 465.556 54.4266C464.367 64.1752 468.41 73.2105 469.598 82.7214C470.312 87.7146 469.836 92.47 468.647 97.4632C467.458 102.456 466.507 107.212 467.696 112.205C467.934 114.107 470.787 113.156 470.549 111.254Z" fill="#EE7504"/>
<path d="M184.033 405.374H133.15C129.821 405.374 126.968 402.521 126.968 399.192V394.199C126.968 390.87 129.821 388.017 133.15 388.017H184.033C187.362 388.017 190.215 390.87 190.215 394.199V399.192C190.215 402.758 187.362 405.374 184.033 405.374Z" fill="#2D8FE0"/>
<path d="M481.249 434.384C454.38 437.475 428.226 433.195 401.833 439.377C395.175 441.041 398.029 461.727 399.693 471.001H474.591C488.144 471.001 500.033 464.105 506.928 453.406C505.501 445.084 490.997 433.433 481.249 434.384Z" fill="#FA8E28"/>
<path d="M384.951 366.616C384 363.763 384 360.91 385.427 358.294C387.091 354.966 390.658 352.588 393.987 352.112C410.869 336.182 432.03 330.237 446.772 328.098C449.387 327.622 452.003 327.622 454.618 327.622C454.856 325.958 455.332 324.531 456.283 323.104C457.709 320.489 460.087 318.587 462.94 317.636C465.794 316.922 468.647 317.16 471.025 318.587C471.976 319.062 472.689 319.776 473.64 320.489C476.969 318.587 481.011 318.349 484.34 320.251C489.571 323.104 491.473 329.762 488.62 335.231C488.382 335.468 488.144 335.944 488.144 336.182C490.046 337.371 491.948 338.559 493.851 339.748C508.355 350.448 517.152 364.952 520.243 370.659C524.048 377.554 526.425 382.547 528.09 386.827C529.041 386.827 529.992 386.827 530.943 387.065C533.796 387.778 536.174 389.443 537.601 392.058C539.027 394.673 539.503 397.527 538.789 400.38C537.838 404.184 534.985 407.275 531.419 408.464C531.419 409.653 531.418 410.842 531.181 411.793C529.754 417.262 524.761 420.828 519.53 420.353C518.341 422.255 515.963 427.01 513.823 433.43C512.872 435.808 512.635 438.186 512.159 441.039C511.683 444.605 511.208 448.41 509.306 451.739C504.313 461.012 489.571 474.802 446.059 465.767C443.443 465.292 440.828 464.578 438.212 463.865C401.12 454.592 382.336 440.088 382.098 420.591C382.098 416.786 383.287 413.22 384.238 409.653C384.952 407.038 385.903 404.66 386.14 402.282C387.091 394.911 387.091 386.827 386.854 384.449C384.714 382.785 382.574 380.645 382.098 375.176C381.623 371.61 382.812 368.519 384.951 366.616Z" fill="#FCDB50"/>
<path d="M384.477 411.319C385.428 409.893 386.379 408.466 387.568 406.088C393.75 386.353 402.547 378.982 416.338 382.787C420.856 383.976 423.947 388.256 425.849 391.584C428.702 396.34 430.129 405.375 424.422 420.117L425.849 423.683L433.22 425.348C432.982 425.348 438.213 413.935 438.689 412.984C443.444 404.424 450.339 395.626 460.801 394.913C470.074 394.2 479.11 400.382 483.627 408.228C488.145 415.599 488.621 424.872 486.956 433.194C486.956 434.145 487.432 435.572 488.145 437.236C489.809 441.041 491.949 446.509 488.383 453.643C481.725 466.72 464.843 471.238 440.353 466.245C438.213 465.769 436.073 465.293 433.933 464.818C407.303 457.923 377.344 442.23 380.672 420.592C381.386 415.837 382.812 413.697 384.477 411.319Z" fill="#FFF9BF"/>
<path d="M414.437 401.567C411.109 396.574 404.451 395.623 399.458 399.427C394.702 403.231 393.514 410.602 396.842 415.596C400.171 420.589 406.829 421.54 411.822 417.736C416.815 413.931 418.004 406.798 414.437 401.567Z" fill="url(#paint0_radial_6970_3162)"/>
<path d="M406.114 405.133C405.639 406.797 403.974 407.986 402.548 407.51C400.883 407.035 399.932 405.37 400.408 403.706C400.883 402.042 402.548 400.853 403.974 401.328C405.639 401.566 406.59 403.231 406.114 405.133Z" fill="#F2FAFF"/>
<path d="M469.36 416.549C465.556 411.081 457.947 409.654 452.478 413.458C447.009 417.263 445.583 424.871 449.387 430.34C453.191 435.809 460.8 437.235 466.269 433.431C471.738 429.627 473.164 422.018 469.36 416.549Z" fill="url(#paint1_radial_6970_3162)"/>
<path d="M458.661 420.115C458.185 422.017 456.283 422.968 454.381 422.493C452.479 422.017 451.527 420.115 452.003 418.213C452.479 416.311 454.381 415.36 456.283 415.835C458.185 416.311 459.136 418.213 458.661 420.115Z" fill="#F2FAFF"/>
<path d="M425.848 420.83C424.659 420.592 419.666 420.117 418.002 425.11C416.813 428.676 418.477 433.67 421.568 435.81C427.037 439.614 432.03 434.621 435.835 431.292C437.737 429.628 437.261 430.341 437.023 428.676C436.786 425.585 432.268 422.494 425.848 420.83Z" fill="#F3A001"/>
<path d="M414.674 422.494C415.15 419.165 418.479 418.214 420.857 418.689C427.752 414.172 432.032 417.738 434.885 423.445C439.64 424.633 441.543 428.438 439.64 431.053C437.976 433.431 435.361 433.669 432.27 431.529C429.654 429.864 426.801 427.962 424.423 427.249C421.332 426.298 419.668 427.011 416.814 426.06C415.15 425.585 414.437 423.682 414.674 422.494Z" fill="#F3A001"/>
<path d="M418.478 427.009L418.715 427.246C419.191 427.484 419.904 427.484 420.38 427.246C420.618 427.246 421.093 427.246 421.331 427.009C421.569 427.009 421.806 427.009 422.282 427.009C423.471 427.246 424.66 427.484 425.849 428.198C426.324 428.435 426.8 428.911 427.513 429.386C427.989 429.862 428.702 430.1 429.177 430.575C430.128 431.289 431.317 431.764 432.268 432.24C432.506 432.24 432.744 432.477 432.982 432.477C433.457 432.477 433.457 431.764 433.219 431.526C432.982 431.289 432.506 431.051 432.031 430.813C431.317 430.337 430.604 429.862 429.891 429.386C429.415 428.911 428.702 428.673 428.226 428.198C427.751 427.722 427.275 427.246 426.562 427.009C425.373 426.295 423.946 425.82 422.52 425.582C422.044 425.582 421.806 425.582 421.331 425.582C420.855 425.582 420.618 425.82 420.38 425.82C420.142 425.82 419.667 425.82 419.429 426.058C419.191 426.058 418.715 426.058 418.478 426.058C418.002 426.295 418.24 426.771 418.478 427.009Z" fill="#EC7C03"/>
<path d="M375.678 456.018C372.825 459.346 370.923 462.2 369.972 465.053C375.916 468.857 383.049 471.235 390.896 471.235H402.784C403.26 468.144 402.546 466.004 402.546 466.004C411.344 459.822 417.526 449.122 409.917 441.989C403.497 435.332 392.56 436.996 375.678 456.018Z" fill="#FCDB50"/>
</g>
<defs>
<radialGradient id="paint0_radial_6970_3162" cx="0" cy="0" r="1" gradientUnits="userSpaceOnUse" gradientTransform="translate(405.819 408.698) rotate(-168.492) scale(11.1396)">
<stop stop-color="#801400"/>
<stop offset="0.6058" stop-color="#7B1400"/>
<stop offset="0.999" stop-color="#741500"/>
</radialGradient>
<radialGradient id="paint1_radial_6970_3162" cx="0" cy="0" r="1" gradientUnits="userSpaceOnUse" gradientTransform="translate(459.35 423.568) rotate(-168.492) scale(12.1582)">
<stop stop-color="#801400"/>
<stop offset="0.6058" stop-color="#7B1400"/>
<stop offset="0.999" stop-color="#741500"/>
</radialGradient>
<clipPath id="clip0_6970_3162">
<rect width="559" height="470.787" fill="white" transform="translate(0 0.212891)"/>
</clipPath>
</defs>
</svg>
