<svg width="452" height="515" viewBox="0 0 452 515" fill="none" xmlns="http://www.w3.org/2000/svg">
<g clip-path="url(#clip0_6970_2907)">
<path d="M223.758 509.87C336.605 509.87 428.086 418.388 428.086 305.541C428.086 192.693 336.605 101.212 223.758 101.212C110.91 101.212 19.4287 192.693 19.4287 305.541C19.4287 418.388 110.91 509.87 223.758 509.87Z" fill="#D1EEFF"/>
<path d="M211.372 476.353C202.618 426.178 185.11 397.14 136.003 395.859C136.003 395.859 146.465 412.3 143.262 419.559C139.206 428.526 140.06 435.572 146.465 444.113C148.814 443.472 147.746 443.259 150.095 442.618C152.87 446.034 169.524 471.869 169.524 471.869L211.372 476.353Z" fill="#F77F1E"/>
<path d="M153.512 397.143C153.512 397.143 163.76 399.492 164.614 403.549C165.895 409.527 152.017 419.348 138.139 420.843C122.339 422.551 105.045 413.157 105.258 406.111C105.472 403.335 116.574 397.357 116.574 397.357L118.709 369.601L153.298 371.309L153.512 397.143Z" fill="#F8E5D4"/>
<path d="M157.995 398.425C150.522 408.46 118.709 407.392 114.225 398.425C94.1552 399.065 75.1528 403.763 75.1528 411.022C75.1528 450.308 84.5473 489.593 84.5473 489.593C80.2771 503.045 78.142 511.158 78.142 511.158L185.324 513.507C185.324 513.507 184.47 502.404 181.481 489.593C181.481 489.593 188.953 465.467 188.953 426.395C188.953 419.135 168.884 402.268 157.995 398.425Z" fill="#F77F1E"/>
<path d="M135.789 427.035C137.676 427.035 139.205 425.506 139.205 423.619C139.205 421.733 137.676 420.203 135.789 420.203C133.903 420.203 132.373 421.733 132.373 423.619C132.373 425.506 133.903 427.035 135.789 427.035Z" fill="#E86A1A"/>
<path d="M135.789 444.969C137.676 444.969 139.205 443.44 139.205 441.553C139.205 439.666 137.676 438.137 135.789 438.137C133.903 438.137 132.373 439.666 132.373 441.553C132.373 443.44 133.903 444.969 135.789 444.969Z" fill="#C85710"/>
<path d="M78.9958 449.24C79.4228 451.161 79.8498 453.083 80.0634 455.005C80.2769 456.926 80.7039 458.848 80.9174 460.769C81.1309 462.691 81.3444 464.612 81.5579 466.534C81.7714 468.456 81.9849 470.377 81.9849 472.299C81.9849 472.726 81.5579 473.366 81.1309 473.366C80.7039 473.366 80.2769 473.153 80.0634 472.512C79.6363 470.591 79.2093 468.669 78.9958 466.748C78.5688 464.826 78.3553 462.904 78.1418 460.983C77.9283 459.061 77.7147 457.14 77.5012 455.218C77.2877 453.296 77.0742 451.375 77.0742 449.24C77.0742 448.813 77.5012 448.386 77.9283 448.386C78.5688 448.386 78.9958 448.813 78.9958 449.24Z" fill="#C85710"/>
<path d="M183.616 471.229C183.616 469.521 183.829 467.813 184.043 466.105C184.256 464.397 184.47 462.689 184.897 460.981C185.11 459.273 185.537 457.565 185.751 455.857C186.178 454.149 186.391 452.441 186.818 450.732C187.032 450.305 187.459 449.878 188.099 450.092C188.526 450.305 188.74 450.732 188.74 451.159C188.526 452.868 188.526 454.576 188.099 456.284C187.886 457.992 187.672 459.7 187.245 461.408C187.032 463.116 186.605 464.824 186.391 466.532C185.964 468.24 185.751 469.948 185.11 471.656C184.897 472.083 184.47 472.51 184.043 472.297C183.829 472.083 183.616 471.656 183.616 471.229Z" fill="#ED6B1A"/>
<path d="M193.437 326.467C213.293 364.472 169.524 384.755 148.386 386.25C97.3573 389.88 87.5359 361.91 87.5359 361.91C87.5359 361.91 79.8495 363.405 76.0064 360.202C65.9714 351.661 67.039 342.054 71.9497 340.345C76.2199 338.637 83.6927 344.616 83.6927 344.616C83.6927 344.616 82.4117 342.267 81.7711 340.986C79.4225 337.143 67.466 316.432 74.7253 292.519C82.8387 266.258 109.527 251.739 133.44 251.525C155.218 251.312 179.986 262.628 190.234 285.26C197.066 300.206 194.718 320.062 193.437 326.467Z" fill="#F8E5D4"/>
<path d="M121.91 329.457C122.124 334.368 124.9 339.278 129.597 339.492C132.799 339.705 135.575 335.649 135.575 330.525C135.575 325.4 132.372 320.917 129.17 320.703C123.832 320.703 121.697 324.973 121.91 329.457Z" fill="#34261F"/>
<path d="M157.14 325.615C157.353 330.526 160.129 335.437 164.826 335.65C168.029 335.864 170.804 331.807 170.804 326.683C170.804 321.559 167.602 317.075 164.399 316.861C159.275 316.861 157.14 321.132 157.14 325.615Z" fill="#34261F"/>
<path d="M162.478 354.438C159.275 355.719 152.656 357.854 146.251 357.427C137.924 357 127.249 349.741 127.249 350.168C125.968 354.651 131.305 370.024 144.543 370.664C157.994 371.305 164.826 353.584 162.478 354.438Z" fill="#E78492"/>
<path d="M152.015 335.437C154.364 336.291 155.859 338.639 155.432 340.988C155.218 342.909 153.723 344.617 151.588 345.044" stroke="#F0B699" stroke-width="3.49665" stroke-miterlimit="10" stroke-linecap="round" stroke-linejoin="round"/>
<path d="M169.31 301.912C168.029 299.777 165.68 298.496 163.118 298.923C159.915 299.35 158.421 302.339 158.421 302.552" stroke="#34261F" stroke-width="3.49665" stroke-miterlimit="10" stroke-linecap="round" stroke-linejoin="round"/>
<path d="M128.743 306.826C127.462 304.691 125.113 303.41 122.551 303.837C119.349 304.264 117.854 307.253 117.854 307.466" stroke="#34261F" stroke-width="3.49665" stroke-miterlimit="10" stroke-linecap="round" stroke-linejoin="round"/>
<path d="M127.462 327.963C128.406 327.963 129.171 327.198 129.171 326.255C129.171 325.312 128.406 324.547 127.462 324.547C126.519 324.547 125.754 325.312 125.754 326.255C125.754 327.198 126.519 327.963 127.462 327.963Z" fill="white"/>
<path d="M161.837 324.547C162.78 324.547 163.545 323.782 163.545 322.839C163.545 321.896 162.78 321.131 161.837 321.131C160.893 321.131 160.128 321.896 160.128 322.839C160.128 323.782 160.893 324.547 161.837 324.547Z" fill="white"/>
<path d="M188.999 348.638C189.866 344.242 186.536 339.883 181.561 338.901C176.587 337.92 171.851 340.689 170.984 345.085C170.117 349.481 173.447 353.84 178.421 354.821C183.396 355.803 188.132 353.034 188.999 348.638Z" fill="#F1C6B9"/>
<path d="M122.451 353.509C123.318 349.113 119.988 344.754 115.013 343.772C110.039 342.791 105.303 345.56 104.436 349.956C103.569 354.352 106.899 358.711 111.874 359.693C116.848 360.674 121.584 357.905 122.451 353.509Z" fill="#F1C6B9"/>
<path d="M44.8345 302.13C46.9696 297.86 47.8237 287.825 48.2507 286.33C49.3182 281.42 50.8128 276.722 52.9479 272.025C57.0046 262.844 63.1964 254.517 71.3097 248.326C89.6716 233.807 114.439 230.604 137.284 232.953C165.681 235.729 191.943 250.247 202.618 277.79C204.967 283.768 206.461 290.174 206.675 296.579C206.888 299.781 206.675 302.771 206.461 305.973C206.034 310.457 204.113 315.154 206.248 319.424C207.102 321.132 208.596 322.841 208.596 324.762C208.596 327.111 207.102 329.246 207.742 331.594C208.169 333.516 210.305 334.584 210.945 336.505C211.799 338.854 211.799 341.629 211.159 343.978C210.518 346.54 211.372 347.394 212.867 349.316C214.788 351.664 215.429 355.08 213.721 358.07C213.507 358.497 213.294 358.924 213.08 359.351C212.867 360.418 214.148 362.126 214.575 363.194C215.002 364.475 215.215 365.969 215.215 367.464C215.002 370.24 213.294 372.588 210.945 373.869C208.81 375.15 203.686 375.364 198.561 377.072C190.448 379.421 178.278 381.983 161.624 384.331C161.411 384.331 161.197 383.904 161.411 383.904C182.975 377.072 209.45 357.856 193.224 326.684C193.651 324.549 194.291 321.132 194.505 316.649C193.864 312.165 193.01 307.895 192.583 305.546C190.235 293.163 181.054 274.587 170.378 267.542C160.343 281.42 139.633 291.882 122.552 294.017C115.933 294.871 111.023 296.152 104.617 297.006C92.0202 298.714 84.9743 307.468 83.0528 320.919C81.7717 329.459 83.9068 338 85.1879 341.202C86.2554 343.978 87.5365 348.675 87.5365 348.675C85.1878 346.754 83.0527 344.619 80.7041 343.124C78.142 341.629 74.5124 339.708 71.7367 340.775C67.0395 342.697 65.7585 352.091 75.7934 360.632C79.6366 363.834 87.3229 362.34 87.3229 362.34C87.3229 362.34 92.6607 377.286 115.506 383.904C117.001 384.331 117.001 385.185 116.787 385.826C116.574 386.466 115.933 387.107 114.439 387.107C97.1444 386.68 64.2639 390.737 48.0372 384.118C39.7103 380.702 32.451 373.229 39.9238 359.991C40.3508 359.351 40.7778 358.924 40.7778 358.283C41.2048 356.575 40.1373 354.867 39.4968 353.372C38.8562 351.237 38.2157 349.102 38.6427 346.754C38.6427 344.619 39.2833 342.91 40.5643 341.202C43.3399 337.146 40.5643 335.224 39.4968 331.381C38.8562 329.032 38.8562 326.684 39.9238 324.762C40.7778 322.414 42.0589 319.638 42.0589 317.503C42.0589 316.222 41.6319 315.581 41.2048 314.3C40.7778 312.806 40.7778 311.311 40.9913 309.603C41.8454 306.614 43.5535 304.479 44.8345 302.13Z" fill="#E39012"/>
<path d="M172.3 257.291L196.64 295.723V305.544L165.895 308.106L161.838 303.623L159.703 308.747L127.463 310.882L124.26 305.544L122.125 311.522L79.6367 315.579L90.0987 267.112L172.3 257.291Z" fill="#E39012"/>
<path d="M168.67 259.854C167.389 258.359 169.524 256.224 170.806 257.719C174.862 262.843 178.492 267.967 180.2 274.373C181.694 280.351 181.908 287.183 178.919 292.734C178.065 294.443 175.503 292.948 176.357 291.24C178.919 286.329 178.492 279.924 177.211 274.586C175.503 269.035 172.3 264.338 168.67 259.854Z" fill="#E07B12"/>
<path d="M109.101 294.015C111.877 290.598 113.798 286.328 114.652 282.058C115.506 277.147 114.652 272.023 113.585 267.326C113.158 265.404 116.147 264.55 116.574 266.472C117.855 271.81 118.709 277.361 117.641 282.912C116.787 287.823 114.439 292.307 111.236 296.15C109.955 297.644 107.82 295.509 109.101 294.015Z" fill="#E07B12"/>
<path d="M140.487 292.307C143.049 288.464 144.33 284.194 144.757 279.71C145.184 274.586 143.689 269.889 141.981 265.191C141.341 263.27 144.116 262.202 144.757 264.124C146.465 269.462 147.96 274.799 147.746 280.351C147.319 285.261 145.611 290.172 142.835 294.229C141.768 295.723 139.419 294.015 140.487 292.307Z" fill="#E07B12"/>
<path d="M49.1045 364.046C49.9585 361.057 51.4531 357.854 51.6666 354.651C51.6666 353.157 51.4531 351.449 51.026 349.954C50.599 348.459 49.5315 346.965 49.318 345.47C48.6774 342.481 49.745 339.919 51.026 337.357C52.5206 334.368 53.5882 331.165 54.0152 327.962C54.4422 324.76 54.0152 321.557 53.1611 318.355C52.3071 315.365 51.6666 313.444 52.9476 310.455C55.9368 303.622 60.207 297.431 60.634 289.958C60.634 288.036 63.8366 288.036 63.6231 289.958C63.4096 295.936 61.061 301.274 58.4989 306.398C57.2178 308.96 54.6557 312.163 55.2962 315.152C55.9368 317.928 57.0043 320.49 57.2178 323.479C57.4313 326.254 57.2178 329.244 56.5773 332.019C55.9368 335.008 54.4422 337.57 53.3747 340.346C52.7341 341.841 52.0936 343.335 52.5206 345.043C52.9476 346.538 53.8017 347.819 54.2287 349.1C55.0827 351.662 55.2962 354.438 54.6557 357.213C53.5882 362.551 48.0369 372.373 55.0827 375.575C56.7908 376.429 55.2962 378.991 53.5882 378.137C47.8234 375.789 47.6099 369.17 49.1045 364.046Z" fill="#E07B12"/>
<path d="M69.3883 330.311C71.7369 325.828 71.3099 320.49 71.5234 315.579C71.7369 310.668 72.3774 306.185 74.299 301.701C77.7152 293.161 83.6934 285.261 84.761 276.08C84.9745 274.158 87.9636 274.158 87.7501 276.08C86.4691 285.901 80.7043 293.588 77.0746 302.555C75.1531 307.252 74.5125 312.163 74.5125 317.287C74.5125 322.411 74.299 327.322 71.9504 332.019C71.3099 333.514 68.5343 332.019 69.3883 330.311Z" fill="#E07B12"/>
<path d="M136.004 405.466C136.004 405.466 132.588 419.558 116.148 412.939C104.832 408.455 107.394 399.702 114.653 398.207C115.721 399.915 120.418 405.039 136.004 405.466Z" fill="#FADF2F"/>
<path d="M136.004 405.466C136.004 405.466 139.42 419.558 155.86 412.939C167.176 408.455 164.614 399.702 157.355 398.207C156.287 399.915 151.804 405.039 136.004 405.466Z" fill="#FADF2F"/>
<path d="M440.255 514.352H7.47089C3.4142 514.352 -0.00195312 510.509 -0.00195312 505.811L6.40334 485.742C7.89791 480.404 9.81949 477.201 13.8762 477.201H433.636C437.693 477.201 439.188 480.404 441.109 485.742L447.514 505.811C447.728 510.509 444.312 514.352 440.255 514.352Z" fill="#ABD3FF"/>
<path d="M148.815 483.178C148.815 483.178 155.221 479.548 159.918 479.335C159.918 479.335 212.441 483.178 223.117 485.74C223.117 485.74 224.611 485.74 224.184 488.516C224.184 488.943 223.971 489.37 223.971 489.797C223.757 490.651 223.117 491.505 222.049 491.505C216.925 491.719 198.35 492.573 176.785 497.27H173.796C173.796 497.27 153.299 497.27 121.486 501.326H117.43C113.159 499.191 100.776 492.786 92.2354 488.943C92.2354 488.943 91.3814 485.74 92.6624 484.032C94.157 482.324 105.046 480.616 130.24 481.684L148.815 483.178Z" fill="#D94A4B"/>
<path d="M149.456 478.268C149.456 478.268 155.861 474.638 160.558 474.425C160.558 474.425 210.946 475.919 221.622 478.268C221.622 478.268 223.117 478.268 222.69 481.044C222.263 483.819 222.049 486.168 222.049 486.168C222.049 486.168 203.047 486.381 177.639 492.146H174.65C174.65 492.146 155.22 491.719 123.408 495.776H119.351C115.081 493.641 100.989 486.168 92.8756 483.819C92.8756 483.819 90.7405 482.752 92.2351 481.044C93.7297 479.336 105.686 475.279 131.094 476.346L149.456 478.268Z" fill="#ECDBBB"/>
<path d="M176.145 485.528C176.145 485.528 153.726 479.977 124.048 487.236C124.048 487.236 121.273 488.944 118.07 487.45C113.586 485.528 92.876 476.561 92.876 476.561C92.876 476.561 118.711 468.661 148.816 475.92C148.816 475.92 151.164 474.425 159.277 472.504C165.469 471.009 183.831 470.582 198.136 471.223C209.239 471.65 215.217 472.504 218.206 473.358C219.914 473.785 221.836 476.134 218.42 477.201C214.79 478.269 193.226 476.347 176.145 485.528Z" fill="#FFF5D3"/>
<path d="M218.206 477.202C221.622 476.134 219.7 473.786 217.992 473.359C215.003 472.505 209.025 471.864 197.922 471.224C183.617 470.583 165.255 470.797 159.064 472.505C151.591 474.426 149.456 476.348 149.242 476.561C154.58 478.483 166.536 482.326 174.65 485.315C175.717 485.529 176.144 485.529 176.144 485.529C193.225 476.348 214.79 478.27 218.206 477.202Z" fill="#FFF9E6"/>
<path d="M356.132 486.596H262.402C258.985 486.596 257.064 485.955 255.356 485.315L249.591 482.752C248.096 481.685 247.456 479.763 248.096 478.055L272.65 400.124C274.572 393.719 278.842 388.595 285.247 388.595H387.518C393.497 388.595 396.913 393.505 394.991 399.484L371.505 475.28C369.156 481.258 362.538 486.596 356.132 486.596Z" fill="#C6D8EB"/>
<path d="M371.292 475.281L393.924 403.328C396.273 395.855 394.565 391.585 387.092 391.585H293.147C285.675 391.585 280.55 395.428 278.202 402.901L255.783 475.708C253.435 483.181 256.21 486.597 263.683 486.597H356.346C363.819 486.597 368.73 482.754 371.292 475.281Z" fill="#A6B5C7"/>
<path d="M275.853 493.854C276.28 493.854 276.493 493.854 276.92 493.854H342.254C346.311 493.854 348.659 490.438 347.378 486.382L340.333 463.963C339.051 459.906 336.489 457.771 332.219 457.771L261.547 456.49C257.704 456.49 258.985 459.693 260.266 463.536L267.739 490.011C268.166 491.506 269.447 492.573 270.942 492.787L275.853 493.854Z" fill="#C6D8EB"/>
<path d="M270.089 486.595L261.548 456.49L376.63 457.985L386.452 486.809C387.946 491.719 386.238 493.854 381.327 493.854H277.348C272.437 493.854 271.797 491.506 270.089 486.595Z" fill="#B3C3D6"/>
<path d="M4.05473 502.823C2.98718 502.823 2.13314 502.61 1.27911 502.183L-0.00195312 505.812C-0.00195312 510.509 3.4142 514.353 7.47089 514.353H440.255C444.312 514.353 447.728 510.509 447.728 505.812L446.66 502.396C446.02 502.61 445.166 502.823 444.312 502.823H4.05473V502.823Z" fill="#81B8F2"/>
<path d="M56.366 431.939C62.7713 419.555 71.7387 407.385 85.8303 402.688C99.922 397.991 94.5842 427.028 89.46 438.771C84.5493 450.514 82.6277 452.009 82.6277 452.009C82.6277 452.009 106.114 454.998 114.014 456.706C114.014 456.706 124.476 467.808 121.273 482.754C121.273 482.754 84.3358 490.227 62.9848 486.811C56.1525 485.743 48.8932 479.765 48.2526 466.314C47.8256 457.346 49.9607 444.536 56.366 431.939Z" fill="#F77F1E"/>
<path d="M92.0216 435.356L85.4028 452.224C85.4028 452.224 116.789 445.391 118.924 451.797" stroke="#ED6B1A" stroke-width="2.7468" stroke-miterlimit="10" stroke-linecap="round" stroke-linejoin="round"/>
<path d="M118.497 456.066C118.497 456.066 120.205 445.604 127.892 441.121C127.892 441.121 135.151 437.491 138.353 441.548C138.353 441.548 140.489 445.391 138.14 448.166L118.497 456.066Z" fill="#F8E5D4"/>
<path d="M163.762 465.035L155.862 470.8L167.819 479.981C168.459 480.408 169.313 479.981 169.1 479.127L163.762 465.035Z" fill="#E8DBC4"/>
<path d="M133.658 427.67L128.96 431.086C128.106 431.727 128.106 433.221 128.96 434.289L155.863 470.799L163.762 465.034L136.647 428.524C135.793 427.457 134.512 427.03 133.658 427.67Z" fill="#289D6C"/>
<path d="M166.964 473.79L168.886 479.128C169.099 479.982 168.459 480.409 167.605 479.982L163.121 476.566L166.964 473.79Z" fill="#289D6C"/>
<path d="M109.103 461.831C109.103 461.831 114.227 454.358 122.981 448.807C130.668 443.896 140.276 437.277 144.119 438.345C147.748 439.413 153.94 444.537 152.659 446.672C152.659 446.672 151.378 449.875 144.119 446.672C144.119 446.672 140.916 448.166 136.646 450.942C136.646 450.942 141.13 450.515 145.827 451.583C149.029 452.437 150.524 453.291 150.737 455.639C151.165 458.415 149.456 459.482 149.456 459.482L145.613 460.337C145.613 460.337 147.962 460.977 150.097 461.831C151.805 462.685 153.086 463.966 152.659 466.315C152.446 467.596 151.378 468.663 150.31 469.09C150.31 469.09 152.873 469.731 152.659 472.72C152.659 475.282 148.816 475.709 145.613 475.923C129.6 476.99 127.892 481.901 120.206 480.833C111.879 479.766 103.552 472.08 109.103 461.831Z" fill="#F8E5D4"/>
<path d="M137.5 457.991C140.063 458.631 142.838 459.485 145.4 460.339C145.614 460.339 149.03 459.485 149.03 459.485C149.03 459.485 149.244 459.272 149.671 459.058C142.411 457.137 137.5 457.991 137.5 457.991Z" fill="#F0C5B2"/>
<path d="M138.568 466.958C144.12 467.599 148.39 468.666 151.165 469.52C150.738 469.307 150.311 469.093 150.311 469.093C150.952 468.88 151.592 468.239 152.233 467.385C142.198 465.25 138.568 466.958 138.568 466.958Z" fill="#F0C5B2"/>
<path d="M137.5 450.944C139.209 450.944 139.636 450.944 139.636 450.944C138.782 450.731 138.141 450.731 137.5 450.944Z" fill="#F2C196"/>
<path d="M131.735 450.943C133.87 450.943 135.365 450.943 136.433 450.943C137.5 450.303 138.568 449.662 139.422 449.235C138.995 449.235 138.781 449.235 138.781 449.235C133.23 449.022 131.735 450.943 131.735 450.943Z" fill="#F0C5B2"/>
<path d="M64.4793 147.759C62.7713 145.197 62.7713 141.781 64.0523 139.005C65.3334 136.443 68.109 133.454 74.5143 132.813C74.5143 132.813 81.5601 131.746 84.9763 134.735L85.8303 105.911C85.8303 105.911 85.1898 96.0895 97.7868 98.2246L112.306 100.36C112.306 100.36 118.284 100.787 117.43 107.619C117.43 107.619 117.003 113.384 109.53 113.597C109.53 113.597 107.395 113.811 98.4274 111.676C98.4274 111.676 94.5842 110.822 94.3707 111.462C94.3707 111.462 92.8761 111.889 93.0896 114.665C93.3031 117.654 92.6626 141.781 92.6626 141.781C92.6626 141.781 92.8761 151.602 77.7169 152.67C77.5034 152.883 68.3225 153.524 64.4793 147.759Z" fill="#FDB436"/>
<path d="M100.563 175.3C99.2816 162.916 114.654 156.297 122.554 165.905C123.408 166.973 124.262 168.254 125.116 169.748L133.23 149.892C133.23 149.892 135.365 140.925 144.759 144.981C153.94 149.038 168.886 155.87 168.886 155.87C168.886 155.87 176.359 159.073 174.223 166.759L160.559 196.651C160.559 196.651 156.502 209.888 138.994 202.202C137.927 201.775 136.859 200.921 135.792 200.067C133.443 197.932 130.027 193.234 133.23 186.616C134.724 183.413 137.5 181.064 140.916 180.21C144.759 179.356 150.31 180.424 156.289 188.751L162.694 175.3C162.694 175.3 166.11 171.456 161.413 167.827L142.411 158.646C142.411 158.646 137.5 155.87 135.365 160.781C133.23 165.692 129.173 178.502 127.038 181.491C127.038 181.491 124.049 189.605 113.8 188.324C112.733 188.11 111.452 187.897 110.384 187.47C107.608 186.189 102.484 183.199 100.776 176.581C100.776 176.581 100.776 175.94 100.563 175.3Z" fill="#35BD37"/>
<path d="M398.623 201.99C397.555 199.642 383.464 171.245 379.193 162.705C378.339 160.997 377.912 159.289 377.912 157.58L377.699 144.983C373.215 145.837 366.81 146.051 361.686 145.837C358.91 145.624 355.921 145.41 352.932 144.983V157.58C352.932 159.289 352.505 161.21 351.651 162.705C347.38 171.245 333.502 199.642 332.435 201.99C330.3 206.901 329.659 211.385 333.075 216.082C335.424 219.285 339.481 220.993 343.11 222.06C356.988 226.331 374.069 226.331 387.947 222.06C391.577 220.993 395.634 219.285 397.982 216.082C401.398 211.385 400.758 206.688 398.623 201.99Z" fill="#56BAF7"/>
<path d="M377.912 144.982C377.912 144.982 383.25 143.274 383.25 141.353C383.25 141.353 383.25 140.712 383.25 139.645C382.823 138.791 381.969 138.364 380.902 137.509C380.688 137.296 380.261 137.082 379.834 136.869C375.777 137.937 369.159 138.15 363.821 137.937C358.27 137.723 351.224 137.082 348.662 135.588C348.448 135.588 348.021 135.801 347.808 135.801C347.808 137.723 347.808 141.353 347.808 141.353C347.808 143.061 353.145 144.769 353.145 144.769C355.921 145.196 359.124 145.409 361.899 145.623C367.024 146.05 373.429 145.836 377.912 144.982Z" fill="#45BAF2"/>
<path d="M347.808 136.015C347.808 137.936 347.808 141.566 347.808 141.566C347.808 143.274 353.145 144.982 353.145 144.982C355.921 145.409 359.124 145.623 361.899 145.836C367.237 146.05 373.429 145.836 378.126 144.982C378.126 144.982 383.464 143.274 383.464 141.353C383.464 141.353 383.464 140.712 383.464 139.644C383.464 138.15 383.464 135.801 383.464 134.947C383.25 135.801 381.969 136.442 380.048 136.869C375.991 137.936 369.372 138.15 363.821 137.936C358.27 137.723 351.224 137.082 348.662 135.588L347.808 134.947V136.015Z" fill="#51C5FD"/>
<path d="M383.25 134.948C383.25 137.297 375.35 139.218 365.529 139.218C355.707 139.218 347.808 137.51 347.808 135.161C347.808 132.813 355.707 130.678 365.529 130.678C375.35 130.678 383.25 132.599 383.25 134.948Z" fill="#72D6FE"/>
<path d="M394.993 210.958C393.926 217.149 381.969 220.352 366.596 220.565H364.248C348.875 220.352 336.919 217.363 335.851 211.171C334.997 205.833 344.818 187.471 344.818 187.471C345.032 187.258 345.032 187.044 345.245 186.831C345.459 186.404 345.886 186.19 346.099 185.977C347.594 185.336 350.797 184.696 355.067 184.269C358.483 184.055 362.113 184.055 365.102 183.842H365.529C368.304 183.842 371.721 183.842 374.923 184.055H375.137C380.047 184.482 383.464 185.123 384.745 186.19L384.958 186.404C385.172 186.404 385.172 186.617 385.172 186.617C385.385 186.831 385.599 187.258 385.812 187.471C385.812 187.258 395.847 205.62 394.993 210.958Z" fill="#FFC204"/>
<path d="M385.598 186.617C385.598 188.325 376.631 189.82 365.528 189.82C354.426 189.82 345.672 188.539 345.458 186.831C345.458 186.404 345.672 186.19 346.313 185.977C347.807 185.336 351.01 184.696 355.28 184.269C358.269 184.055 361.685 183.842 365.315 183.842C368.945 183.842 372.147 184.055 375.136 184.269H375.35C380.261 184.696 383.677 185.336 384.958 186.404L385.171 186.617C385.385 186.617 385.385 186.831 385.385 186.831C385.598 186.404 385.598 186.404 385.598 186.617Z" fill="#FFDC04"/>
<path opacity="0.57" d="M349.943 202.631C351.122 202.631 352.078 201.675 352.078 200.495C352.078 199.316 351.122 198.36 349.943 198.36C348.764 198.36 347.808 199.316 347.808 200.495C347.808 201.675 348.764 202.631 349.943 202.631Z" fill="white"/>
<path opacity="0.57" d="M377.059 203.699C379.299 203.699 381.115 201.883 381.115 199.643C381.115 197.402 379.299 195.586 377.059 195.586C374.818 195.586 373.002 197.402 373.002 199.643C373.002 201.883 374.818 203.699 377.059 203.699Z" fill="white"/>
<path opacity="0.57" d="M358.696 213.306C359.875 213.306 360.831 212.35 360.831 211.171C360.831 209.992 359.875 209.036 358.696 209.036C357.517 209.036 356.561 209.992 356.561 211.171C356.561 212.35 357.517 213.306 358.696 213.306Z" fill="white"/>
<path d="M378.34 134.947C378.34 136.655 372.575 137.295 365.529 137.295C358.484 137.295 352.719 136.655 352.719 134.947C352.719 133.239 358.484 132.385 365.529 132.385C372.575 132.385 378.34 133.239 378.34 134.947Z" fill="#51B3F0"/>
<path d="M261.336 48.6886C261.336 51.8912 258.774 54.4534 255.358 54.4534C252.155 54.4534 249.38 51.8912 249.38 48.6886C249.38 45.4859 251.942 42.9238 255.358 42.9238C258.774 42.9238 261.336 45.4859 261.336 48.6886Z" fill="#663D20"/>
<path d="M257.92 50.3965H253.009V75.8041H257.92V50.3965Z" fill="#663D20"/>
<path d="M277.35 80.0734H235.502C234.435 80.0734 233.581 79.2194 233.581 78.1518C233.581 73.8816 237.21 70.252 241.48 70.252H271.158C275.428 70.252 279.058 73.8816 279.058 78.1518C279.058 79.4329 278.204 80.0734 277.35 80.0734Z" fill="#D93E23"/>
<path d="M208.386 125.977C215.343 125.977 220.983 120.337 220.983 113.38C220.983 106.423 215.343 100.783 208.386 100.783C201.428 100.783 195.789 106.423 195.789 113.38C195.789 120.337 201.428 125.977 208.386 125.977Z" fill="#D93E23"/>
<path d="M303.397 125.977C310.355 125.977 315.994 120.337 315.994 113.38C315.994 106.423 310.355 100.783 303.397 100.783C296.44 100.783 290.8 106.423 290.8 113.38C290.8 120.337 296.44 125.977 303.397 125.977Z" fill="#D93E23"/>
<path d="M287.384 151.816H224.399C215.218 151.816 207.531 144.343 207.531 134.948V94.8087C207.531 85.6278 215.004 77.9414 224.399 77.9414H287.384C296.565 77.9414 304.251 85.4142 304.251 94.8087V134.948C304.251 144.343 296.778 151.816 287.384 151.816Z" fill="#F75031"/>
<path d="M283.114 141.566H228.669C222.264 141.566 217.14 136.442 217.14 130.036V99.718C217.14 93.3127 222.264 88.1885 228.669 88.1885H283.114C289.519 88.1885 294.644 93.3127 294.644 99.718V130.25C294.644 136.442 289.519 141.566 283.114 141.566Z" fill="#FBD82B"/>
<path d="M248.098 109.965C248.098 115.517 243.615 120.214 237.85 120.214C232.299 120.214 227.602 115.73 227.602 109.965C227.602 104.414 232.085 99.7168 237.85 99.7168C243.401 99.7168 248.098 104.2 248.098 109.965Z" fill="white"/>
<path d="M284.181 109.965C284.181 115.517 279.697 120.214 273.933 120.214C268.381 120.214 263.684 115.73 263.684 109.965C263.684 104.414 268.168 99.7168 273.933 99.7168C279.697 99.7168 284.181 104.2 284.181 109.965Z" fill="white"/>
<path d="M244.469 109.965C244.469 113.595 241.48 116.584 237.85 116.584C234.221 116.584 231.231 113.595 231.231 109.965C231.231 106.336 234.221 103.347 237.85 103.347C241.48 103.133 244.469 106.122 244.469 109.965Z" fill="#663D20"/>
<path d="M280.766 109.965C280.766 113.595 277.777 116.584 274.147 116.584C270.517 116.584 267.528 113.595 267.528 109.965C267.528 106.336 270.517 103.347 274.147 103.347C277.777 103.133 280.766 106.122 280.766 109.965Z" fill="#663D20"/>
<path d="M267.528 131.104H244.683C243.188 131.104 241.907 129.823 241.907 128.328C241.907 126.834 243.188 125.553 244.683 125.553H267.528C269.023 125.553 270.304 126.834 270.304 128.328C270.09 130.036 269.023 131.104 267.528 131.104Z" fill="#663D20"/>
<path d="M386.452 320.7C387.306 320.914 387.52 322.195 386.666 322.622C380.474 326.465 353.358 344.827 344.391 350.591C342.469 351.872 336.277 348.883 334.569 347.602C333.715 346.962 287.384 322.408 286.743 321.554C288.238 320.487 317.275 297.854 317.275 297.854L386.452 320.7Z" fill="#F74FA2"/>
<path d="M345.671 344.828C350.795 341.839 373.427 326.466 382.395 320.915C379.833 317.926 381.114 307.891 381.754 307.25C371.719 313.655 356.987 324.331 347.593 331.804C339.479 337.995 342.895 346.109 345.671 344.828Z" fill="#FFF7D3"/>
<path d="M265.392 324.329L337.985 351.232C338.626 351.445 339.907 351.659 341.402 351.659C342.683 351.659 344.177 351.018 344.604 350.805C343.964 350.805 342.469 350.378 341.402 349.097C340.334 347.602 336.918 339.916 341.829 335.005C324.321 325.183 264.752 307.035 264.752 307.035C264.752 307.035 264.111 307.676 263.684 307.676C258.773 314.081 263.044 323.475 265.392 324.329Z" fill="#FF6BB3"/>
<path d="M263.684 307.462L341.829 334.791L384.531 308.53C385.385 308.102 385.171 306.608 384.317 306.394L310.443 282.695C308.735 282.268 307.027 282.481 305.532 283.122L263.684 307.462Z" fill="#FF6BB3"/>
<path d="M274.572 300.417C273.718 300.631 273.504 301.912 274.145 302.339C280.55 306.609 299.553 319.42 308.52 325.825C310.442 327.106 317.06 324.331 318.982 323.05C319.836 322.409 347.592 307.89 348.019 307.036C346.525 305.969 325.814 288.461 325.814 288.461L274.572 300.417Z" fill="#FBBC00"/>
<path d="M307.453 319.633C303.183 316.857 288.024 307.036 278.629 300.844C281.405 297.855 277.135 288.674 276.708 288.033C287.169 295.293 292.721 299.136 303.183 306.395C307.666 309.598 309.161 316.216 309.161 317.925C309.161 319.633 308.307 320.273 307.453 319.633Z" fill="#FFF7D3"/>
<path d="M374.067 309.386L315.566 326.681C315.139 326.894 313.217 327.321 311.723 327.108C310.228 326.894 308.52 326.04 308.52 326.04C309.161 326.04 310.869 325.613 311.936 324.332C313.217 322.837 313.217 320.916 313.004 319.635C312.79 315.365 310.015 312.162 308.734 310.881C330.298 305.116 351.649 299.138 373.213 293.373C373.854 293.8 376.843 296.789 376.843 301.486C377.27 305.97 374.708 308.746 374.067 309.386Z" fill="#FBD100"/>
<path d="M373.427 293.373L308.947 310.881L273.932 289.316C273.078 288.676 273.291 287.395 274.359 287.181L334.141 273.303C335.85 272.876 337.771 273.089 339.479 274.157L373.427 293.373Z" fill="#FBD100"/>
<path d="M277.135 280.56C276.281 280.773 276.068 281.841 276.922 282.268C282.259 286.111 298.7 297.641 306.599 303.405C308.308 304.686 313.859 302.124 315.567 301.057C316.421 300.416 343.11 288.887 343.537 288.033C342.256 286.965 324.534 271.379 324.534 271.379L277.135 280.56Z" fill="#FF7700"/>
<path d="M305.531 297.854C301.902 295.292 288.878 286.538 280.764 280.987C283.113 278.424 279.483 270.098 279.056 269.457C288.024 275.862 292.934 279.278 301.902 285.897C305.745 288.673 307.026 294.651 307.026 296.146C307.026 297.854 306.172 298.281 305.531 297.854Z" fill="#FFF7D3"/>
<path d="M365.741 290.166L312.364 304.257C311.937 304.471 310.015 304.685 309.161 304.685C307.88 304.685 306.813 304.044 306.386 303.617C307.026 303.617 308.307 303.19 309.375 302.122C310.442 300.841 310.442 299.133 310.442 298.066C310.229 294.223 307.88 291.447 306.813 290.379C325.175 285.042 351.65 277.782 365.101 276.074C365.528 276.501 368.304 279.063 368.304 283.334C368.304 286.963 366.168 289.525 365.741 290.166Z" fill="#FF9100"/>
<path d="M365.101 275.862L306.813 290.167L276.708 270.738C275.854 270.311 276.067 269.03 276.921 268.816L331.366 257.927C332.861 257.5 334.569 257.714 335.85 258.568L365.101 275.862Z" fill="#FF9100"/>
</g>
<defs>
<clipPath id="clip0_6970_2907">
<rect width="452" height="513.918" fill="white" transform="translate(0 0.4375)"/>
</clipPath>
</defs>
</svg>
