<svg width="209" height="205" viewBox="0 0 209 205" fill="none" xmlns="http://www.w3.org/2000/svg">
<path d="M165.96 19.8487C165.32 18.8247 165.32 17.5447 165.832 16.5207C166.344 15.4967 167.368 14.3447 169.8 14.0887C169.8 14.0887 172.488 13.7047 173.768 14.8567L174.152 3.84868C174.152 3.84868 173.896 0.136674 178.76 0.904674L184.264 1.67266C184.264 1.67266 186.568 1.80068 186.184 4.48868C186.184 4.48868 186.056 6.66466 183.112 6.79266C183.112 6.79266 182.344 6.92067 178.888 6.02467C178.888 6.02467 177.48 5.64067 177.352 5.89667C177.352 5.89667 176.84 6.02467 176.84 7.17667C176.968 8.32867 176.712 17.5447 176.712 17.5447C176.712 17.5447 176.84 21.2567 170.952 21.7687C170.952 21.8967 167.496 22.1527 165.96 19.8487Z" fill="#FADC1C"/>
<path d="M179.784 30.4727C179.272 25.7367 185.16 23.1767 188.232 26.8887C188.616 27.2727 188.872 27.7847 189.256 28.2967L192.328 20.7447C192.328 20.7447 193.096 17.2887 196.68 18.8247C200.136 20.3607 205.896 23.0487 205.896 23.0487C205.896 23.0487 208.712 24.3287 207.944 27.2727L202.696 38.6647C202.696 38.6647 201.16 43.7847 194.504 40.8407C194.12 40.7127 193.736 40.3287 193.224 40.0727C192.328 39.3047 191.048 37.5127 192.2 34.9527C192.712 33.6727 193.864 32.7767 195.144 32.5207C196.552 32.1367 198.728 32.6487 201.032 35.8487L203.464 30.7287C203.464 30.7287 204.744 29.3207 202.952 27.9127L195.656 24.4567C195.656 24.4567 193.736 23.4327 192.968 25.2247C192.2 27.1447 190.536 32.0087 189.768 33.1607C189.768 33.1607 188.616 36.2327 184.648 35.7207C184.264 35.5927 183.752 35.5927 183.368 35.3367C182.344 34.8247 180.296 33.6727 179.656 31.1127C179.912 30.9847 179.912 30.7287 179.784 30.4727Z" fill="#FF8542"/>
<path d="M14.7915 111.113C15.1755 112.137 15.8155 113.161 16.5835 114.057C24.0075 123.529 37.5754 124.553 47.6875 119.177C55.1115 115.209 58.0555 106.249 52.4235 99.4647C49.4795 95.8807 45.1275 93.8327 40.7755 92.6807C36.1675 91.5287 30.1515 90.6327 25.6715 92.5527C24.7755 92.9367 23.8795 93.5767 23.2395 94.3447C22.2155 95.7527 22.2155 97.5447 22.8555 99.0807C23.7515 101.257 25.9274 101.641 27.2074 103.305C28.1034 104.329 27.9755 106.121 26.9515 107.017C23.8795 109.961 20.8075 103.689 17.7355 103.945C14.6635 104.073 13.7674 107.785 14.4074 110.217C14.5354 110.473 14.6635 110.729 14.7915 111.113Z" fill="#FFFAFF"/>
<path d="M42.3123 97.0327C42.3123 96.7767 42.1842 96.5207 42.1842 96.3927C41.6722 94.9847 40.6483 93.9607 38.8563 93.7047C38.4723 93.7047 33.9922 93.0647 34.7602 96.7767C34.8882 97.1607 35.0162 97.5447 35.1442 97.9287C35.2722 98.5687 35.2722 99.4647 36.1682 100.233C36.9362 100.873 37.9602 100.745 38.6002 100.745C39.7522 100.745 41.5442 99.7207 42.1842 98.6967C42.1842 98.1847 42.3123 97.5447 42.3123 97.0327Z" fill="#AFABFF"/>
<path d="M49.9909 102.153C49.8629 101.513 49.4789 100.873 48.9669 100.361C47.6869 99.0807 44.7429 98.8247 43.7189 100.617C43.5909 101.001 43.4629 101.385 43.4629 101.769C43.4629 102.537 43.7189 103.049 44.1029 103.689C44.2309 103.945 44.3589 104.201 44.4869 104.457C44.6149 104.841 44.6149 105.097 44.7429 105.481C45.3829 106.633 47.0469 106.249 47.9429 105.865C48.5829 105.609 49.2229 105.097 49.6069 104.585C50.1189 103.817 50.2469 103.049 49.9909 102.153Z" fill="#FF9320"/>
<path d="M30.2803 113.417C30.1523 112.649 29.8964 112.009 29.2564 111.625C28.2324 111.113 26.8244 111.241 25.6724 111.369C24.3924 111.497 23.3684 111.881 22.8564 113.033C22.4724 113.929 22.4724 115.081 22.8564 116.105C23.6244 117.641 25.8004 118.153 27.3364 117.897C28.4884 117.641 29.5123 116.745 30.0243 115.593C30.2803 114.825 30.4083 114.057 30.2803 113.417Z" fill="#FFDE26"/>
<path d="M41.1602 113.929C41.0322 113.673 40.7762 113.417 40.5202 113.161C40.1362 112.905 39.6242 112.649 39.1122 112.521C37.9602 112.137 36.6801 111.753 35.5281 112.521C34.6321 113.161 33.9922 114.185 33.9922 115.337C34.1202 117.257 35.4001 119.305 37.4481 119.433C38.9841 119.561 40.3921 118.537 40.9041 117.129C41.0321 116.617 41.1602 115.977 41.1602 115.465C41.4162 114.953 41.2882 114.441 41.1602 113.929Z" fill="#48B54A"/>
<path d="M49.4802 108.809C49.2242 108.681 48.9682 108.553 48.7122 108.553C47.6882 108.297 46.7922 108.297 45.7682 108.169C44.8722 108.041 44.2322 108.041 43.7202 108.809C42.9522 109.833 42.9522 111.113 43.3362 112.265C43.5922 113.161 44.1042 114.185 44.8722 114.825C45.5122 115.337 46.5362 115.465 47.3042 115.209C47.9442 115.081 48.4562 114.697 48.9682 114.313C49.4802 114.057 49.8642 113.673 50.2482 113.289C50.8882 112.393 51.1442 110.601 50.5042 109.577C50.1202 109.193 49.8642 108.937 49.4802 108.809Z" fill="#FFDE26"/>
<path d="M125.641 4.74471C125.641 4.74471 125.641 4.61671 125.641 4.74471H125.513C125.385 4.74471 125.385 4.74471 125.257 4.74471C124.745 4.74471 124.233 4.6167 123.849 4.6167C115.145 4.6167 107.977 11.6567 107.977 20.4887C107.977 21.0007 107.977 21.5127 108.105 22.0247C108.105 22.1527 108.105 22.4087 108.233 22.5367C108.233 22.9207 108.361 23.1767 108.361 23.5607C108.361 23.6887 108.489 23.9447 108.489 24.0727C108.617 24.3287 108.617 24.7127 108.745 24.9687C108.745 25.0967 108.873 25.3527 108.873 25.4807C109.001 25.7367 109.129 25.9927 109.129 26.2487C109.257 26.3767 109.257 26.6327 109.385 26.7607C109.513 27.0167 109.641 27.2727 109.769 27.5287C109.897 27.6567 109.897 27.9127 110.025 28.0407C110.153 28.2967 110.409 28.5527 110.537 28.9367C110.665 29.0647 110.665 29.1927 110.793 29.3207C111.049 29.7047 111.305 30.0887 111.689 30.4727C114.633 34.0567 118.985 36.2327 123.977 36.2327C132.681 36.2327 139.849 29.1927 139.849 20.3607C139.721 12.2967 133.577 5.64071 125.641 4.74471Z" fill="#4FC244"/>
<mask id="mask0_1186_7132" style="mask-type:alpha" maskUnits="userSpaceOnUse" x="107" y="4" width="33" height="33">
<path d="M125.641 4.74471C125.641 4.74471 125.641 4.61671 125.641 4.74471H125.513C125.385 4.74471 125.385 4.74471 125.257 4.74471C124.745 4.74471 124.233 4.6167 123.849 4.6167C115.145 4.6167 107.977 11.6567 107.977 20.4887C107.977 21.0007 107.977 21.5127 108.105 22.0247C108.105 22.1527 108.105 22.4087 108.233 22.5367C108.233 22.9207 108.361 23.1767 108.361 23.5607C108.361 23.6887 108.489 23.9447 108.489 24.0727C108.617 24.3287 108.617 24.7127 108.745 24.9687C108.745 25.0967 108.873 25.3527 108.873 25.4807C109.001 25.7367 109.129 25.9927 109.129 26.2487C109.257 26.3767 109.257 26.6327 109.385 26.7607C109.513 27.0167 109.641 27.2727 109.769 27.5287C109.897 27.6567 109.897 27.9127 110.025 28.0407C110.153 28.2967 110.409 28.5527 110.537 28.9367C110.665 29.0647 110.665 29.1927 110.793 29.3207C111.049 29.7047 111.305 30.0887 111.689 30.4727C114.633 34.0567 118.985 36.2327 123.977 36.2327C132.681 36.2327 139.849 29.1927 139.849 20.3607C139.721 12.2967 133.577 5.64071 125.641 4.74471Z" fill="#52B34D"/>
</mask>
<g mask="url(#mask0_1186_7132)">
<path d="M142.28 11.2727C142.28 11.2727 127.176 12.1687 120.648 0.776733L119.24 3.08074C119.24 3.08074 128.2 13.3207 140.616 12.5527L142.28 11.2727Z" fill="#34B326"/>
<path d="M141.641 15.3687C141.641 15.3687 127.561 17.8007 115.913 4.10474L112.201 6.79272C112.201 6.79272 123.977 19.3367 141.641 19.2087V15.3687Z" fill="#34B326"/>
<path d="M141.257 24.8407C141.257 24.8407 121.161 23.5607 109.641 10.3767L108.873 11.5287C108.873 11.5287 121.033 25.0967 140.105 25.6087L141.257 24.8407Z" fill="#34B326"/>
<path d="M140.232 27.2727C140.232 27.2727 118.344 25.8647 108.232 13.0647L106.312 20.1047C106.312 20.1047 121.16 33.5447 136.904 32.0087L140.232 27.2727Z" fill="#34B326"/>
<path d="M132.425 35.4647C132.425 35.4647 112.713 34.0567 106.953 24.5847C106.953 24.5847 110.665 33.6727 116.553 35.4647C122.441 37.2567 127.049 37.8967 132.425 35.4647Z" fill="#34B326"/>
</g>
<path d="M125.384 24.9687C124.36 24.5847 123.208 24.2007 122.184 23.8167C111.56 19.5927 103.88 13.9607 105.032 11.1447C105.544 9.7367 108.232 9.3527 112.072 9.8647C112.2 9.7367 112.328 9.6087 112.328 9.4807C112.456 9.3527 112.584 9.22469 112.712 9.09669C104.648 7.17669 98.632 7.1767 97.736 9.4807C96.328 12.9367 106.824 20.3607 121.16 26.1207C121.928 26.3767 122.568 26.6327 123.336 26.8887C124.104 26.3767 124.744 25.7367 125.384 24.9687Z" fill="#DB3D35"/>
<path d="M139.72 19.9767C139.72 20.1047 139.72 20.2327 139.72 20.4887V20.6167C139.72 20.7447 139.72 21.0007 139.72 21.1287C142.408 23.1767 143.816 25.0967 143.304 26.3767C142.152 29.1927 132.68 28.0407 122.184 23.8167C111.56 19.5927 103.88 13.9607 105.032 11.1447C105.544 9.7367 108.232 9.3527 112.072 9.8647C112.2 9.7367 112.328 9.6087 112.328 9.4807C112.456 9.3527 112.584 9.22469 112.712 9.09669C104.648 7.17669 98.632 7.1767 97.736 9.4807C96.328 12.9367 106.824 20.3607 121.16 26.1207C135.496 31.7527 148.296 33.5447 149.576 30.0887C150.6 27.7847 146.504 23.9447 139.72 19.9767Z" fill="#548BD8"/>
<path d="M189.758 82.9554C200.408 68.5836 193.479 51.2603 175.899 52.5435C164.094 48.8223 153.187 47.924 147.669 55.6232C142.279 63.4508 144.076 75.3845 149.08 78.8492C154.213 82.3138 180.262 86.6767 180.775 86.9334C181.417 87.0617 183.983 88.0882 186.422 86.1634C188.09 85.1369 189.758 82.9554 189.758 82.9554Z" fill="#2B1710"/>
<path d="M189.755 82.4415C200.405 68.0697 193.476 50.7464 175.896 52.0296C164.091 48.3083 153.184 47.4101 147.666 55.1093C142.276 62.9369 144.073 74.8706 149.077 78.3353C154.21 81.7999 180.259 86.1628 180.772 86.4195C181.414 86.5478 183.98 87.5743 186.419 85.6495C187.958 84.623 189.755 82.4415 189.755 82.4415Z" fill="#2B1811"/>
<path d="M140.352 203.961L143.046 182.146L167.427 182.66L202.715 183.301L205.025 203.961H140.352Z" fill="#B45ADB"/>
<path d="M169.609 203.961L166.657 184.199L142.79 180.478L140.352 203.961H169.609Z" fill="#9D52D1"/>
<path d="M176.538 104.384C188.344 109.26 197.711 112.083 200.149 119.269C202.459 126.327 203.485 166.491 205.795 183.558C206.18 186.252 204.512 188.691 201.946 189.589C184.622 195.492 154.082 192.797 142.277 187.921C140.48 187.151 139.454 185.354 139.582 183.429C141.892 154.044 142.918 142.495 142.918 142.495C134.321 148.398 122.515 145.062 119.564 137.362C116.613 129.663 104.55 100.15 104.679 97.0699C104.807 93.9902 114.303 92.322 114.303 92.322C114.303 92.322 129.06 117.473 130.984 116.318C132.781 115.163 133.679 114.008 133.679 114.008L125.852 104.127C125.338 103.486 125.595 102.459 126.365 102.203L135.347 98.4814C135.732 98.3531 136.117 98.3531 136.502 98.4814L152.414 106.951C155.365 105.667 162.551 104.512 162.551 104.512L176.538 104.384Z" fill="#36BDB2"/>
<path d="M163.835 57.8039C160.499 71.0209 178.335 78.3351 178.463 78.7201C178.592 79.105 178.335 81.9281 178.335 81.9281C183.468 77.9501 186.804 83.7246 185.393 87.9591C183.981 92.0654 177.565 92.8353 175.512 92.4504C173.844 99.6363 176.025 103.358 176.539 104.384C169.609 111.698 158.702 109.902 158.83 109.004C158.959 107.977 159.215 103.871 158.317 103.614C157.419 103.358 150.618 102.844 148.308 96.1716C145.87 89.3707 144.972 82.1847 145.742 76.0254C146.512 69.7377 151.131 56.649 163.835 57.8039Z" fill="#FFD7CF"/>
<path d="M114.303 92.1936C114.303 92.0653 114.303 91.937 114.303 91.8087C114.303 88.9856 116.741 89.3706 118.666 88.9856C120.591 88.729 119.564 85.9059 115.715 86.2909C113.02 86.5475 109.94 87.3175 107.887 88.2157C106.219 88.9856 105.449 88.4723 102.755 88.6007C101.343 88.6007 101.215 90.2688 101.728 91.552C102.498 93.4768 103.524 95.9149 104.423 96.8131C111.994 99.3796 114.303 92.1936 114.303 92.1936Z" fill="#FFD7CF"/>
<path d="M154.467 80.3883C154.595 80.3883 154.595 80.3883 154.724 80.5166C155.494 81.0299 154.467 83.083 153.825 83.468C152.414 84.2379 152.414 82.4414 152.799 81.5432C152.927 80.9016 153.825 80.1317 154.467 80.3883Z" fill="#F5B7A5"/>
<path d="M149.72 72.0472C150.746 71.9189 152.029 72.0473 153.184 73.4588C153.441 73.7154 153.954 73.5871 153.826 73.2021C153.698 72.3039 153.313 71.149 152.158 70.764C151.003 70.3791 149.976 70.8924 149.335 71.4056C149.078 71.6623 149.335 72.0472 149.72 72.0472Z" fill="#643003"/>
<path d="M159.856 74.3573C161.14 73.844 163.578 73.4591 166.401 75.2556C166.786 75.5122 167.299 75.1272 167.171 74.7423C166.786 73.9724 165.759 72.8175 164.348 72.3042C161.781 71.5343 160.37 72.8175 159.471 73.844C159.215 74.1007 159.6 74.4856 159.856 74.3573Z" fill="#643003"/>
<path d="M163.82 79.2544C164.087 78.1524 163.578 77.0833 162.682 76.8665C161.787 76.6497 160.845 77.3674 160.578 78.4694C160.311 79.5715 160.821 80.6406 161.716 80.8574C162.611 81.0741 163.554 80.3565 163.82 79.2544Z" fill="#4A0A02"/>
<path d="M152.612 77.5435C152.729 76.4156 152.081 75.4242 151.164 75.3291C150.248 75.234 149.41 76.0713 149.293 77.1992C149.176 78.3271 149.824 79.3185 150.74 79.4136C151.657 79.5087 152.495 78.6714 152.612 77.5435Z" fill="#4A0A02"/>
<path d="M178.334 86.1625C178.976 84.751 181.157 82.4412 182.312 83.0828C183.467 83.7244 183.467 86.1625 182.312 86.9324C181.157 87.7024 177.179 88.7289 178.334 86.1625Z" fill="#F5B7A5"/>
<path d="M145.356 128.123L132.396 112.083L133.807 113.88C133.807 113.88 132.909 115.035 131.112 116.19C129.316 117.344 114.431 92.1936 114.431 92.1936C114.431 92.1936 104.935 93.9901 104.807 96.9415C104.678 100.021 116.74 129.535 119.692 137.234C122.643 144.933 134.32 148.27 143.046 142.367L145.356 128.123Z" fill="#27ABB0"/>
<path d="M153.697 86.9326C155.237 87.3175 158.701 87.4459 159.471 90.1406C160.113 92.9636 156.007 95.6584 154.338 95.0168C152.67 94.3752 149.976 86.0343 153.697 86.9326Z" fill="#F09576"/>
<path d="M117.994 69.2244C118.29 68.7111 118.92 68.5187 119.55 68.8395C120.18 69.1603 120.254 69.8019 119.957 70.3151L115.549 77.8219C115.253 78.3352 114.623 78.5276 113.994 78.2068C113.475 77.8219 113.29 77.2444 113.586 76.7312L117.994 69.2244Z" fill="#7979F5"/>
<path d="M113.037 66.3442C113.336 65.8344 113.964 65.6402 114.59 65.9539C115.104 66.3318 115.286 66.9021 114.987 67.4119L110.661 74.8031C110.362 75.3128 109.733 75.5071 109.108 75.1933C108.593 74.8155 108.412 74.2451 108.711 73.7354L113.037 66.3442Z" fill="#7979F5"/>
<path d="M17.169 28.8046C12.2272 37.257 10.9204 46.7695 14.6039 49.3359C18.7197 52.2037 28.2727 49.0085 32.5257 39.72C36.7788 30.4315 36.89 20.5767 32.7741 17.7089C28.6583 14.841 22.3031 20.0234 17.169 28.8046Z" fill="#51C9EF"/>
<path d="M82.5442 52.6519L38.0302 25.3397L23.4492 50.3861L69.396 75.3895L82.5442 52.6519Z" fill="#7979F5"/>
<path d="M129.502 82.3723L88.0684 57.5623L76.4754 77.6897L119.197 99.1221L129.502 82.3723Z" fill="#7979F5"/>
<path d="M29.6549 16.4824C30.2565 15.4713 31.7338 14.9503 32.7532 15.6894L38.8829 19.1204C39.9023 19.8594 40.3986 21.2324 39.797 22.2435L21.6641 53.4566C21.0625 54.4677 19.5852 54.9887 18.5658 54.2497L12.4361 50.8187C11.4167 50.0796 10.9204 48.7066 11.522 47.6955L29.6549 16.4824Z" fill="#515FCF"/>
<path d="M82.8404 52.2031C83.2112 51.5623 84.1679 51.2944 84.7537 51.6674L88.6078 53.8518C89.2552 54.3315 89.5475 55.1585 89.1766 55.7994L75.2385 79.7779C74.8677 80.4188 73.911 80.6866 73.3252 80.3136L69.4711 78.1292C68.8237 77.6495 68.5314 76.8225 68.9023 76.1817L82.8404 52.2031Z" fill="#515FCF"/>
<path d="M107.975 59.7668C108.275 59.2613 108.833 59.2002 109.554 59.4237L127.28 70.6211C128.012 70.8624 127.917 71.7235 127.616 72.229L125.75 75.1558C125.449 75.6613 124.891 75.7225 124.17 75.499L106.444 64.3015C105.712 64.0603 105.807 63.1991 106.108 62.6936L107.975 59.7668Z" fill="#515FCF"/>
<path d="M127.358 82.0243C128.03 80.8779 129.293 80.2432 130.482 80.5053C131.74 80.6321 133.233 80.9082 134.492 81.035C134.989 81.127 135.458 81.4254 135.704 81.8522C135.951 82.2789 135.864 82.8981 135.654 83.304C132.967 87.8896 126.473 99.2255 123.786 103.811C123.465 104.281 123.02 104.538 122.605 104.588C122.037 104.631 121.609 104.404 121.211 103.97C120.484 102.968 119.481 101.745 118.754 100.742C117.986 99.6682 117.815 98.3447 118.486 97.1983C120.501 93.759 125.273 85.5988 127.358 82.0243Z" fill="#515FCF"/>
<path d="M39.365 29.7017C39.1084 29.7017 38.98 29.7017 38.8517 29.83C38.7234 29.9583 38.5951 29.9583 38.4668 30.0866C38.3384 30.2149 38.2101 30.3433 38.2101 30.4716C37.9535 30.9849 37.9535 31.4981 38.3384 32.0114C38.4668 32.1397 38.5951 32.2681 38.7234 32.3964C39.2367 32.653 39.75 33.038 40.2632 33.2946C40.3916 33.423 40.6482 33.4229 40.9048 33.4229C41.4181 33.4229 41.9314 33.1663 42.188 32.653C42.3164 32.5247 42.3164 32.3964 42.3164 32.2681C42.3164 32.1397 42.3164 31.8831 42.3164 31.7548C42.3164 31.6265 42.188 31.3698 42.0597 31.2415C41.9314 31.1132 41.8031 30.9849 41.6748 30.8565C41.1615 30.5999 40.6482 30.2149 40.1349 29.9583C39.8783 29.83 39.75 29.7017 39.365 29.7017C39.4933 29.7017 39.4933 29.7017 39.365 29.7017Z" fill="#938FFF"/>
<path d="M45.7807 33.4231C45.5241 33.4231 45.3958 33.5514 45.1391 33.6797C44.6259 33.9364 44.3692 34.578 44.4975 35.0913C44.4975 35.2196 44.4975 35.3479 44.6259 35.6045C44.7542 35.8612 44.8825 35.9895 45.1391 36.2461C50.5286 39.5825 56.0464 42.5338 61.4358 45.6135C61.5641 45.6135 61.5641 45.7418 61.6924 45.7418C61.8208 45.7418 62.0774 45.8702 62.2057 45.8702C62.719 45.8702 63.104 45.4852 63.3606 45.1002C63.3606 44.9719 63.4889 44.8436 63.4889 44.7153C63.4889 44.587 63.4889 44.4586 63.4889 44.202C63.4889 43.9454 63.3606 43.817 63.3606 43.6887C63.2323 43.4321 63.104 43.3038 62.8473 43.1754C57.4579 39.8391 51.9401 36.8877 46.5507 33.8081C46.4223 33.8081 46.4223 33.6797 46.294 33.6797C46.1657 33.6797 46.0374 33.6797 45.9091 33.5514C45.7807 33.4231 45.7807 33.4231 45.7807 33.4231Z" fill="#938FFF"/>
<path d="M87.2273 94.8885C90.9125 94.8885 93.9 91.9011 93.9 88.2159C93.9 84.5307 90.9125 81.5432 87.2273 81.5432C83.5421 81.5432 80.5547 84.5307 80.5547 88.2159C80.5547 91.9011 83.5421 94.8885 87.2273 94.8885Z" fill="#788BFF"/>
<path d="M77.6035 88.2158C77.6035 82.8264 81.9664 78.5918 87.2275 78.5918C92.4887 78.5918 96.8516 82.9547 96.8516 88.2158C96.8516 93.6053 92.4887 97.8398 87.2275 97.8398C81.9664 97.8398 77.6035 93.4769 77.6035 88.2158ZM80.6832 88.2158C80.6832 91.9371 83.6346 94.8885 87.2275 94.8885C90.8205 94.8885 93.7719 91.8088 93.7719 88.2158C93.7719 84.4945 90.8205 81.5432 87.2275 81.5432C83.6346 81.5432 80.6832 84.4945 80.6832 88.2158Z" fill="#5D63D6"/>
<path d="M86.1913 109.267L92.552 106.719L124.022 203.885L117.94 203.898L86.1913 109.267Z" fill="#7171F5"/>
<path d="M86.1615 113.398L89.3428 107.148L120.304 203.813L117.834 203.839L86.1615 113.398Z" fill="#5563CF"/>
<path d="M89.7833 108.292L81.5334 106.835L47.8576 204.031L53.9401 204.044L89.7833 108.292Z" fill="#7171F5"/>
<path d="M84.1484 108.619L89.8266 108.234L88.6717 203.961H84.9184L84.1484 108.619Z" fill="#5563CF"/>
<path d="M87.8796 113.539L84.5674 107.987L51.268 203.929L54.0674 203.971L87.8796 113.539Z" fill="#5563CF"/>
<path d="M76.2324 104.641C76.2324 103.871 76.8339 103.229 77.676 103.229H96.5632C97.4053 103.229 98.0068 103.871 98.0068 104.641V107.592C98.0068 108.362 97.4053 109.004 96.5632 109.004H77.676C76.8339 109.004 76.2324 108.362 76.2324 107.592V104.641Z" fill="#416AAD"/>
<path d="M87.3405 90.5283C88.6149 90.4704 89.601 89.3903 89.5431 88.116C89.4851 86.8416 88.4051 85.8555 87.1307 85.9134C85.8563 85.9713 84.8702 87.0514 84.9281 88.3258C84.9861 89.6001 86.0661 90.5863 87.3405 90.5283Z" fill="#3F6ACF"/>
<path d="M90.7353 91.5518H83.4639V103.165H90.7353V91.5518Z" fill="#788BFF"/>
<path d="M136.117 98.9946C134.962 94.8883 135.09 89.3705 136.502 86.5475C137.913 83.7245 137.657 78.2067 136.887 77.1801C136.117 76.1536 134.192 74.2288 134.192 74.2288C132.781 74.742 133.166 77.5651 133.551 78.2067C133.936 78.8483 133.166 81.0297 133.166 81.0297C133.166 81.0297 131.241 74.8704 130.214 74.742C129.188 74.6137 128.546 76.6668 128.546 76.6668C126.621 77.0518 126.621 79.6182 125.21 82.6979C123.798 85.7776 120.847 90.3971 122.643 95.0166C124.44 99.6362 125.466 103.101 125.466 103.101C132.781 103.357 136.117 98.9946 136.117 98.9946Z" fill="#FFD7CF"/>
<path d="M143.945 126.583L139.454 183.429C139.326 185.354 140.481 187.279 142.277 187.921C142.79 188.177 143.304 187.792 143.432 187.279L148.308 146.858C148.693 143.907 152.158 142.495 154.468 144.292C161.653 149.809 174.229 158.792 179.618 158.535C184.238 158.407 187.702 154.686 189.756 151.734C190.526 150.708 189.371 149.296 188.216 149.809C185.521 150.964 181.928 153.274 179.618 152.504C160.242 146.216 143.945 126.583 143.945 126.583Z" fill="#27ABB0"/>
</svg>
