<svg width="132" height="127" viewBox="0 0 132 127" fill="none" xmlns="http://www.w3.org/2000/svg">
<path d="M19.8942 67.5395C48.2836 75.8883 10.6461 96.011 33.6588 113.19C41.0787 118.703 55.5423 107.678 69.5219 111.638C82.3187 115.277 85.3834 124.964 96.5134 122.181C106.783 119.559 101.406 106.286 114.472 92.7464C119.203 87.8228 113.074 81.5077 122.107 76.9587C133.344 71.2858 136.947 54.9093 114.902 47.952C96.0294 41.8509 109.633 20.8719 97.8038 15.8948C90.2225 12.6837 80.383 19.641 71.6189 22.7451C62.8547 25.9026 48.8213 14.0216 41.2938 25.5815C34.1427 37.8906 33.7125 36.4991 22.2062 38.8004C-0.591338 43.403 3.44125 62.7229 19.8942 67.5395Z" fill="#FFD704"/>
<path d="M93.4478 48.3264C91.8885 44.3126 88.071 42.1183 83.8233 41.8507C78.9842 41.5296 50.8637 46.1857 43.1211 48.701C39.0348 50.039 36.4539 53.6782 36.1851 58.0131C35.7549 64.7029 37.8519 77.0655 40.5403 83.7017C42.1533 87.7156 45.8633 90.2844 50.1647 90.1774C58.3374 90.0703 86.1891 85.0932 90.8669 83.3271C94.8995 81.8286 97.6954 78.3499 97.803 74.015C98.0181 67.4858 95.7598 54.3739 93.4478 48.3264Z" fill="#337BDE"/>
<path d="M88.824 52.608C87.8024 49.4505 85.4366 47.3098 82.8557 47.3633C75.8659 47.4703 52.4769 51.4306 45.8097 53.6249C43.3902 54.4276 41.9922 57.2641 41.9384 60.5287C41.8309 66.5227 43.2289 74.1222 45.1645 79.4205C46.2936 82.5245 48.5519 84.7188 51.1327 84.6652C57.9612 84.5582 84.415 80.0092 88.1787 78.4036C90.5445 77.3868 92.1576 74.7644 92.05 71.4998C91.9963 67.2719 90.2219 56.943 88.824 52.608Z" fill="#8FDBFF"/>
<path d="M75.113 63.5795C74.8442 63.4189 68.9298 59.9403 61.6173 58.3347C60.7033 58.1206 59.843 58.8699 59.9505 59.7797C60.2731 64.2217 61.1872 69.5735 62.4238 74.176C62.6389 75.0323 63.6605 75.4604 64.467 74.9788C70.8116 71.072 75.2743 65.8272 75.4894 65.6131C75.9733 64.9174 75.812 64.0076 75.113 63.5795Z" fill="#309AFF"/>
<path d="M44.0013 36.5048C43.9546 37.4803 43.8146 38.4093 43.5813 39.2919C43.4412 39.8493 43.2079 40.4067 43.0212 40.9177C41.6678 43.9371 39.1011 46.3061 35.9276 47.3745C35.2743 47.6067 34.5742 47.7461 33.8742 47.839C33.1742 47.9319 32.4275 47.9783 31.7275 47.9783C29.5807 47.8854 27.6206 47.2816 25.8939 46.2596C25.7072 46.1667 25.5206 46.0274 25.3339 45.888C23.1871 44.4016 21.5538 42.2184 20.7137 39.6635C20.6204 39.2919 20.527 38.9668 20.4337 38.5951C20.247 37.6661 20.1537 36.6906 20.2004 35.7151C20.2937 32.8816 21.3671 30.3268 23.0938 28.3758C23.3738 28.0507 23.7005 27.7255 24.0272 27.4468C26.0806 25.5423 28.7874 24.381 31.7275 24.2881C32.0075 24.2881 32.2408 24.2881 32.5208 24.2881C32.9409 24.2881 33.3609 24.3345 33.7342 24.381C35.7876 24.6597 37.6544 25.4494 39.2411 26.6571C39.4278 26.7965 39.6144 26.9358 39.7544 27.0752C40.9678 28.0971 41.9945 29.3977 42.6946 30.7913C42.8346 31.07 42.9279 31.3023 43.0679 31.581C43.7679 33.1139 44.0946 34.7861 44.0013 36.5048Z" fill="#FF8542"/>
<path opacity="0.77" d="M37.2808 43.7508C36.5808 43.8437 35.8341 43.8902 35.1341 43.8902C32.9873 43.7973 31.0272 43.1934 29.3005 42.1715C29.1138 42.0786 28.9272 41.9392 28.7405 41.7999C26.5937 40.3134 24.9603 38.1302 24.1203 35.5754C24.027 35.2037 23.9336 34.8786 23.8403 34.507C23.6536 33.5779 23.5603 32.6025 23.607 31.627C23.6536 29.8618 24.1203 28.1896 24.867 26.7031C24.5403 26.9354 24.2603 27.1676 23.9803 27.4463C23.6536 27.7251 23.3736 28.0502 23.0469 28.3754C21.3202 30.3728 20.2468 32.9276 20.1535 35.7147C20.1068 36.6902 20.2002 37.6657 20.3868 38.5947C20.4802 38.9663 20.5735 39.3379 20.6668 39.6631C21.4602 42.2179 23.0936 44.4011 25.287 45.8876C25.4737 46.0269 25.6604 46.1198 25.847 46.2592C27.5271 47.2811 29.5339 47.9314 31.6806 47.9779C32.4273 48.0244 33.1273 47.9779 33.8273 47.8385C34.5274 47.7456 35.2274 47.5598 35.8808 47.374C38.8675 46.3986 41.341 44.2618 42.741 41.4747C41.7143 42.2644 40.5943 42.8682 39.3342 43.2863C38.6809 43.4721 37.9808 43.6115 37.2808 43.7508Z" fill="#E66633"/>
<path d="M35.9736 27.9111C35.9269 28.0504 35.8803 28.3291 35.7869 28.6078C35.7403 28.7937 35.6469 28.9795 35.5536 29.1653C35.5536 29.2117 35.5069 29.2117 35.5069 29.2582C35.0869 29.9549 34.5269 30.373 33.7335 30.8375C32.4268 31.5807 31.3534 32.0453 30.9334 32.2311C29.9067 32.6491 29.3 32.8814 28.74 33.1136C28.1333 33.3459 27.5733 33.5317 26.6866 33.9033C25.0065 34.6465 24.4465 34.9717 24.2598 35.1111C23.7465 35.4827 22.9065 35.9936 22.2064 36.8762C21.5531 37.6659 21.0864 38.5949 20.8064 39.5704C20.713 39.1988 20.6197 38.8736 20.5264 38.502C20.853 37.7588 21.2264 37.062 21.7397 36.4581C22.5331 35.4827 23.3731 34.9252 23.9332 34.5536C24.1665 34.4143 24.7265 34.0427 26.4533 33.253C27.34 32.8814 27.9 32.6491 28.5067 32.4169C29.0667 32.2311 29.6734 31.9524 30.7001 31.5807C31.1201 31.3949 32.1935 30.9769 33.4069 30.2336C34.1536 29.7691 34.6202 29.444 34.9469 28.8401V28.7937C35.0402 28.6078 35.1336 28.422 35.1803 28.2362C35.2736 28.004 35.2736 27.8182 35.3203 27.6788C35.3669 27.493 35.4136 27.0285 35.3203 26.6104C35.1336 25.8672 34.4802 25.4027 33.8735 25.0311C33.2202 24.613 32.4735 24.2879 31.6801 24.1021C31.9601 24.1021 32.1935 24.1021 32.4735 24.1021C32.8935 24.1021 33.3135 24.1485 33.6869 24.195C33.8735 24.2879 34.0135 24.3808 34.2002 24.5201C34.5736 24.7524 34.9469 24.9846 35.2269 25.3098C35.6003 25.6814 35.8336 26.053 35.927 26.5175C36.1136 27.1678 36.0203 27.7253 35.9736 27.9111Z" fill="#824D3F"/>
<path d="M39.8012 27.0283C39.5679 27.9574 39.2412 28.84 38.9145 29.7225C38.8678 29.8619 38.7745 30.0941 38.6345 30.4193C38.5412 30.6051 38.4478 30.7909 38.3545 30.9767C37.9811 31.7664 37.3278 32.9277 36.3477 34.4141C35.1344 36.2722 33.8276 38.0374 32.4276 39.7096C30.4675 42.0322 28.2741 44.2154 25.894 46.2128C25.7073 46.1199 25.5207 45.9806 25.334 45.8412C27.7607 43.8438 29.9542 41.6141 31.9609 39.2915C33.361 37.6657 34.6677 35.9006 35.8344 34.089C36.8611 32.5096 37.4678 31.3948 37.8411 30.6051C37.9345 30.3729 38.0278 30.1871 38.1211 30.0477C38.2145 29.8154 38.3078 29.6296 38.3545 29.5367C38.7278 28.6077 39.0545 27.6322 39.2878 26.6567C39.4279 26.7496 39.6145 26.889 39.8012 27.0283Z" fill="#824D3F"/>
<path d="M43.5814 39.2919C43.4414 39.8493 43.208 40.4067 43.0214 40.9177C43.068 39.1061 42.788 36.7835 41.4813 34.5074C41.1546 33.95 40.828 33.5319 40.5479 33.1139C40.4079 32.928 40.2213 32.7422 40.0813 32.6029C39.8946 32.3706 39.7079 32.1848 39.5212 32.0455C39.1479 31.6739 38.7745 31.3487 38.4012 31.0235C38.2145 30.8842 38.0745 30.7448 37.8878 30.6519C37.1412 30.0945 36.3478 29.63 35.6011 29.2584C35.4144 29.1655 35.2277 29.0726 35.0411 28.9797C32.661 27.8648 30.5609 27.6326 30.0009 27.5397C27.7141 27.3074 25.3807 27.5861 23.1406 28.3758C23.4206 28.0506 23.7473 27.7255 24.074 27.4468C24.634 27.3074 25.194 27.1681 25.7541 27.0752C27.2008 26.8429 28.6475 26.7965 30.0476 26.9358C30.5609 26.9823 32.0076 27.1681 33.781 27.7719C34.2944 27.9577 34.8077 28.1435 35.3211 28.3758C35.5078 28.4687 35.6944 28.5616 35.8811 28.6545C36.2078 28.8403 36.5345 28.9797 36.8611 29.1655C37.3278 29.4442 37.7945 29.7229 38.2145 30.0481C38.4012 30.1874 38.5412 30.3268 38.7279 30.4197C39.1946 30.7913 39.6146 31.1629 40.0346 31.581C40.1746 31.7203 40.3146 31.8597 40.4546 31.999C40.5946 32.1384 40.7346 32.3242 40.8746 32.4635C41.248 32.928 41.668 33.4855 42.088 34.1358C43.0214 35.9009 43.4414 37.7125 43.5814 39.2919Z" fill="#824D3F"/>
<path d="M43.1142 31.5808C42.8808 31.4415 42.6008 31.3486 42.2275 31.3486C42.0875 31.3486 41.8074 31.395 41.4808 31.6273C41.1541 31.8595 40.9207 32.1382 40.7807 32.4169C40.6874 32.6028 40.5941 32.835 40.5007 33.0673C40.4541 33.2066 40.4074 33.346 40.3607 33.4853C39.9407 34.9718 39.8474 36.226 39.8474 36.6905V36.7369C39.7074 39.2453 39.6607 40.453 39.2874 41.893C39.1474 42.3576 38.9607 43.1008 38.5873 43.9369C38.1673 44.8659 37.6073 45.7021 36.9073 46.4453C36.5806 46.7705 36.2539 47.0956 35.8806 47.3743C35.2272 47.6066 34.5272 47.7459 33.8271 47.8388C34.8539 47.3743 35.6939 46.7705 36.4406 45.9808C37.934 44.4014 38.4007 42.6827 38.634 41.7072C39.0073 40.3601 39.054 39.1524 39.194 36.6905V36.644C39.2407 36.1331 39.2874 34.8324 39.754 33.2995C39.8007 33.0673 39.894 32.835 40.034 32.5563C40.0807 32.4634 40.1274 32.324 40.2207 32.1847C40.2674 32.0918 40.3141 32.0453 40.3607 31.9524C40.5941 31.6273 40.8274 31.3486 41.1541 31.1163C41.6208 30.7911 41.9941 30.7447 42.1808 30.6982C42.3675 30.6982 42.5541 30.6982 42.7408 30.7447C42.8808 31.0234 43.0208 31.3021 43.1142 31.5808Z" fill="#824D3F"/>
<path d="M27.9587 83.3265C28.1738 83.0054 28.3888 82.8448 28.7114 83.0054C29.1954 83.273 29.5717 83.7011 29.8943 84.1828C30.1632 84.6109 30.3782 85.039 30.432 85.5207C29.3567 85.5207 28.3351 85.6277 27.3135 85.8953C27.3135 85.6813 27.3672 85.4137 27.3672 85.1996C27.421 84.932 27.5823 83.8617 27.9587 83.3265Z" fill="#FFC000"/>
<path d="M31.9379 84.0756C32.2605 83.808 32.5831 83.5404 32.9595 83.4334C33.5509 83.2193 33.7122 83.701 33.7122 84.2361C33.766 85.0924 33.7122 85.9487 33.3358 86.698C33.1208 86.4304 32.8519 86.2698 32.5293 86.1093C32.3143 86.0022 32.0992 85.9487 31.8841 85.8417C31.669 85.7882 31.5077 85.7347 31.2927 85.6811C31.1851 85.6811 31.0776 85.6276 30.9701 85.6276C30.6475 85.5741 30.9163 85.3065 31.0238 85.146C31.2389 84.8249 31.5615 84.3967 31.9379 84.0756Z" fill="#FFC000"/>
<path d="M36.9376 86.7516C36.8839 86.6446 36.7763 86.6446 36.6688 86.5911C35.916 86.2165 35.0558 86.27 34.303 86.6446C34.303 86.6446 34.2492 86.6446 34.2492 86.6981C34.1955 86.6981 33.7653 86.9657 33.8191 87.0192C34.2492 87.6614 34.5718 88.3037 34.9482 88.9994C35.002 89.1064 35.0558 89.2135 35.1095 89.3205C35.4321 89.1599 35.7547 88.8924 36.0236 88.6248C36.2924 88.3572 36.5075 88.0896 36.7226 87.7685C36.8301 87.5544 36.9376 87.2868 36.9914 87.0192V86.9657C36.9914 86.8587 36.9914 86.8052 36.9376 86.7516Z" fill="#FFC000"/>
<path d="M35.379 90.7657C35.379 90.6586 35.3253 90.6051 35.3253 90.4981C35.2715 90.284 35.2715 90.1235 35.2715 89.9094C35.4328 89.8559 35.5941 89.8559 35.7554 89.8023C36.078 89.7488 36.4006 89.7488 36.7232 89.8023C37.2609 89.9094 37.7448 90.2305 38.1749 90.5516C38.2287 90.6051 38.2287 90.6051 38.2825 90.6586C38.2825 90.7121 38.2287 90.7657 38.2287 90.8192C37.691 91.3544 37.0458 91.836 36.2931 91.9431C36.1318 91.9966 35.9705 91.9966 35.8092 91.9966H35.6479C35.6479 91.6755 35.5403 91.4079 35.5403 91.0868C35.379 91.0333 35.379 90.9262 35.379 90.7657Z" fill="#FFC000"/>
<path d="M38.2821 93.388C38.2821 93.5485 38.1208 93.7091 38.0132 93.8161C37.9057 93.9767 37.7982 94.0837 37.6906 94.1907C37.4218 94.4583 37.153 94.6724 36.7766 94.8329C36.669 94.8865 36.5615 94.94 36.454 94.94C36.4002 94.94 36.1314 95.047 36.1314 94.9935C35.9163 94.3513 35.755 93.7091 35.6475 93.0669L35.8088 92.9598C36.1314 92.7457 36.5615 92.7457 36.9379 92.7993C37.2067 92.8528 37.4756 92.9063 37.6906 92.9598C37.9057 93.0133 38.2821 93.1204 38.2821 93.388Z" fill="#FFC000"/>
<path d="M37.7447 95.5283C37.7985 95.5283 37.906 95.5283 37.9598 95.5283C38.2286 95.5283 38.8738 95.6354 38.9814 95.9565C39.0351 96.117 38.8738 96.3846 38.7663 96.4916C38.4975 96.9198 38.0673 97.2409 37.6372 97.455C37.4759 97.5085 37.207 97.669 37.0457 97.562C36.9382 97.5085 36.9382 97.3479 36.9382 97.2944C36.8844 97.1874 36.8307 97.0268 36.7769 96.9198C36.7231 96.8127 36.6694 96.7057 36.6694 96.5987C36.6694 96.5452 36.6156 96.4916 36.6156 96.4381C36.6156 96.3846 36.6156 96.3311 36.5618 96.2776C36.5081 96.0635 36.3467 95.9565 36.5618 95.7959C36.9382 95.6354 37.3146 95.5283 37.7447 95.5283Z" fill="#FFC000"/>
<path d="M39.5727 99.0071C39.5727 98.9536 39.6265 98.9536 39.6265 98.9C39.734 98.793 39.7878 98.6325 39.7878 98.4719C39.7878 98.3649 39.6802 98.3114 39.5727 98.2578C38.9813 97.9902 38.2285 97.9367 37.6371 98.2578C37.5295 98.3114 37.422 98.4184 37.3145 98.4719C37.4758 98.793 37.5833 99.0606 37.7446 99.3817C37.8521 99.5958 37.9059 99.8634 38.0672 100.077C38.0672 100.077 38.0672 100.077 38.121 100.077C38.4436 100.024 38.7124 99.8634 38.9813 99.6493C39.1426 99.5423 39.2501 99.3817 39.4114 99.2747C39.4652 99.2212 39.5189 99.1141 39.5727 99.0071Z" fill="#FFC000"/>
<path d="M16.7215 106.072C16.7215 105.751 16.7215 105.483 16.6677 105.216C16.5064 104.466 15.915 103.931 15.3773 103.396C13.603 101.469 12.9578 99.0075 13.2266 96.4386C13.2804 95.8499 13.7105 94.9937 14.2482 94.7261C14.4633 94.619 14.6783 94.6726 14.8934 94.7796C15.216 94.9402 15.3235 95.3683 15.4849 95.7429C16.0763 97.509 17.0979 99.061 18.4959 100.292C18.8722 100.613 19.3024 100.934 19.7325 100.934C20.1627 100.934 20.5928 100.72 20.9692 100.56C22.0983 99.9708 23.2274 99.4356 24.4641 99.1145C25.5394 98.8469 26.6686 98.6864 27.7439 98.7934C28.2816 98.847 28.8193 98.954 29.3569 99.1681C29.6258 99.2751 29.8946 99.3821 30.1097 99.4892C30.3248 99.5962 30.5936 99.8103 30.8624 99.6497C31.0775 99.5427 31.1313 99.2751 31.2388 99.1145C31.8303 97.7766 31.9916 96.1711 31.5077 94.7796C31.4001 94.4585 31.2926 94.3515 30.97 94.512C30.7549 94.619 30.5398 94.7261 30.3248 94.8331C29.2494 95.3683 28.1203 95.8499 26.8836 96.0105C25.3244 96.2781 23.55 96.0105 22.4209 94.9401C20.8616 93.5487 20.7541 90.9798 21.7757 89.1602C22.7973 87.3406 24.7329 86.1632 26.7761 85.628C28.7655 85.0929 30.9162 85.1999 32.7981 86.1632C34.895 87.2871 35.8629 89.3208 36.6156 91.4615C38.1749 95.8499 39.1965 100.667 37.7447 105.109C37.3684 106.339 36.6694 107.57 36.5081 108.801C36.4005 109.658 36.5081 110.567 36.5618 111.424C36.6156 111.959 36.7231 112.494 36.7769 112.976C36.8307 113.404 36.8844 113.885 36.7231 114.314C36.5081 114.742 36.0779 114.956 35.6478 115.063C34.895 115.277 34.0347 115.437 33.282 115.33C32.8519 115.277 32.5293 115.116 32.2604 114.742C32.0453 114.367 31.9378 113.993 31.884 113.564C31.8303 113.35 31.8303 113.029 31.669 112.815C31.5614 112.708 31.3464 112.708 31.2388 112.762C30.5936 112.922 30.0022 113.136 29.3569 113.297C28.2816 113.511 27.1525 113.618 26.0233 113.725C25.862 113.725 25.5932 113.725 25.4857 113.832C25.4319 113.885 25.3781 113.939 25.3781 113.993C25.2706 114.26 25.2706 114.581 25.2706 114.849C25.2706 115.491 25.1093 115.919 24.5178 116.133C23.7651 116.401 22.9586 116.561 22.0983 116.508C21.5068 116.454 20.8616 116.187 20.539 115.705C20.1089 115.009 20.2702 114.1 20.1627 113.297C19.9476 112.066 19.0335 111.049 18.2808 110.086C17.2592 109.015 16.7215 107.517 16.7215 106.072Z" fill="#68C429"/>
<path fill-rule="evenodd" clip-rule="evenodd" d="M30.0555 102.593C29.948 102.593 29.8942 102.593 29.7867 102.593C29.4641 102.593 29.1952 102.486 28.9264 102.325C28.6575 102.165 28.3887 101.844 28.4425 101.469C28.6038 100.827 29.4103 101.041 29.8404 101.255C30.2168 101.416 30.7545 101.897 30.4856 102.325C30.3781 102.54 30.2168 102.593 30.0555 102.593Z" fill="#32A622"/>
<path fill-rule="evenodd" clip-rule="evenodd" d="M24.3561 102.058C24.3023 102.004 24.2485 102.004 24.1948 101.951C23.9797 101.737 23.9797 101.415 24.0872 101.201C24.2485 100.934 24.5174 100.773 24.7862 100.666C24.8938 100.613 25.0551 100.559 25.1626 100.506C25.4852 100.399 25.8078 100.399 26.1304 100.452C26.3993 100.506 26.7219 100.613 26.8832 100.88C27.0982 101.201 26.8832 101.576 26.6681 101.737C26.453 101.897 26.2379 102.004 25.9691 102.058C25.539 102.218 24.8938 102.325 24.3561 102.058Z" fill="#32A622"/>
<path fill-rule="evenodd" clip-rule="evenodd" d="M22.6356 103.449C22.3667 103.61 22.0979 103.717 21.8828 103.77C21.614 103.824 21.3452 103.77 21.2376 103.503C21.0225 103.021 21.5065 102.486 21.8828 102.272C22.0441 102.165 22.2054 102.111 22.3667 102.058C22.7431 101.951 23.1195 102.165 23.1733 102.539C23.227 102.914 22.9582 103.235 22.6356 103.449Z" fill="#32A622"/>
<path d="M28.819 91.1404C30.185 91.1404 31.2923 90.0382 31.2923 88.6786C31.2923 87.319 30.185 86.2168 28.819 86.2168C27.453 86.2168 26.3457 87.319 26.3457 88.6786C26.3457 90.0382 27.453 91.1404 28.819 91.1404Z" fill="#F2FAFF"/>
<path d="M28.3352 90.4446C28.9885 90.4446 29.5181 89.9175 29.5181 89.2672C29.5181 88.617 28.9885 88.0898 28.3352 88.0898C27.6819 88.0898 27.1523 88.617 27.1523 89.2672C27.1523 89.9175 27.6819 90.4446 28.3352 90.4446Z" fill="#423D53"/>
<path d="M63.2267 16.5244C65.3648 16.5244 67.098 14.7993 67.098 12.6712C67.098 10.543 65.3648 8.81787 63.2267 8.81787C61.0887 8.81787 59.3555 10.543 59.3555 12.6712C59.3555 14.7993 61.0887 16.5244 63.2267 16.5244Z" fill="#FFD704"/>
<path d="M129.688 82.043C130.965 82.043 132 81.0127 132 79.7417C132 78.4707 130.965 77.4404 129.688 77.4404C128.411 77.4404 127.376 78.4707 127.376 79.7417C127.376 81.0127 128.411 82.043 129.688 82.043Z" fill="#FFD704"/>
<path d="M12.1517 86.6453C15.3587 86.6453 17.9586 84.0576 17.9586 80.8654C17.9586 77.6732 15.3587 75.0854 12.1517 75.0854C8.94458 75.0854 6.34473 77.6732 6.34473 80.8654C6.34473 84.0576 8.94458 86.6453 12.1517 86.6453Z" fill="#FFD704"/>
<path d="M90.1686 34.9473C98.1269 34.9473 104.578 28.5258 104.578 20.6045C104.578 12.6832 98.1269 6.26172 90.1686 6.26172C82.2103 6.26172 75.7588 12.6832 75.7588 20.6045C75.7588 28.5258 82.2103 34.9473 90.1686 34.9473Z" fill="#5CBFF7"/>
<path d="M99.3095 24.6714C99.3095 24.2432 99.4171 23.8151 99.4708 23.3334C99.5246 22.8518 99.5784 22.3166 99.6321 21.8885C99.7934 18.5703 98.503 16.3226 96.8362 14.8241C96.0297 14.0748 94.9543 13.1115 92.6423 12.5763C92.6423 12.5763 92.2122 12.4693 91.9971 12.4158C91.9433 12.4158 91.8358 12.3623 91.6745 12.3623C91.567 12.3623 91.4057 12.3088 91.3519 12.3088C88.556 11.8806 87.0505 12.4693 85.9213 12.951C83.8244 13.8608 81.9425 15.5198 80.9747 18.7309C80.8134 19.159 80.7059 19.6407 80.5983 20.1224C80.4908 20.5505 80.437 20.9787 80.2757 21.4068C80.0607 22.2096 79.8993 23.1194 80.0069 23.9757C80.222 27.0262 83.8244 28.7387 86.5666 29.5415C87.3193 29.7556 88.0183 29.9161 88.556 30.0232C89.0399 30.1302 89.7389 30.1837 90.4916 30.2372C93.3413 30.3978 97.4277 30.0232 98.7181 27.1867C99.0945 26.384 99.2558 25.5277 99.3095 24.6714Z" fill="#F2FAFF"/>
<path d="M83.6634 11.0778C81.7815 11.3989 80.3836 12.8974 79.9534 14.9846C79.6308 16.5366 80.061 18.1421 80.8675 19.266L81.8891 19.5871L88.2874 13.272L88.0186 12.3087C86.7819 11.3989 85.1689 10.8637 83.6634 11.0778Z" fill="#F2FAFF"/>
<path d="M82.3194 16.9114C82.1581 17.179 81.7817 17.1255 81.6742 16.8579C81.1903 15.5734 81.6204 14.1285 82.642 13.3257C83.5561 12.63 84.8465 12.5229 85.8681 13.1116C86.1369 13.2187 86.0831 13.5933 85.8681 13.7003C85.3304 13.9679 84.7389 14.289 84.0937 14.8242C83.2872 15.5734 82.6958 16.3227 82.3194 16.9114Z" fill="#FF88DB"/>
<path d="M99.686 13.8604C101.353 14.7702 102.159 16.6968 101.89 18.784C101.675 20.336 100.708 21.7275 99.5785 22.5303H98.5031L94.6318 14.4491L95.2233 13.6463C96.6212 13.0576 98.3418 13.1111 99.686 13.8604Z" fill="#F2FAFF"/>
<path d="M98.9869 19.8008C99.0407 20.0684 99.4171 20.1755 99.5784 19.9614C100.439 18.9446 100.546 17.4461 99.8472 16.3222C99.202 15.3589 98.0191 14.8772 96.89 15.0377C96.6211 15.0913 96.5136 15.4124 96.7287 15.6264C97.1588 16.0546 97.589 16.5898 98.0191 17.2855C98.5568 18.1953 98.8256 19.1051 98.9869 19.8008Z" fill="#FF88DB"/>
<path d="M88.1264 25.3135C88.0726 25.3135 88.0726 25.3135 88.0189 25.3135C87.535 25.2065 87.1586 24.9389 86.9435 24.5643C86.8898 24.4572 86.8898 24.3502 86.9973 24.2432C87.1048 24.1896 87.2124 24.1896 87.3199 24.2967C87.535 24.6178 87.8576 24.7783 88.1264 24.8319C88.5565 24.9389 89.0405 24.8319 89.4168 24.6178C89.5244 24.5643 89.6319 24.5643 89.7394 24.6713C89.7932 24.7783 89.7932 24.8854 89.6857 24.9924C89.2018 25.26 88.6641 25.367 88.1264 25.3135Z" fill="#76BEE2"/>
<path d="M90.7067 25.7415C90.3841 25.688 90.0614 25.5275 89.7926 25.3669C89.6313 25.2599 89.47 25.0993 89.3625 24.9388C89.3087 24.8317 89.3087 24.7247 89.4162 24.6177C89.5238 24.5642 89.6313 24.5642 89.7388 24.6712C89.8464 24.7782 89.9539 24.8853 90.0614 24.9923C90.5454 25.3134 91.2981 25.474 91.782 25.0458C91.8896 24.9923 91.9971 24.9923 92.1046 25.0993C92.1584 25.2064 92.1584 25.3134 92.0509 25.4204C91.6207 25.7415 91.1368 25.7951 90.7067 25.7415Z" fill="#76BEE2"/>
<path d="M92.1592 23.1195C91.9979 24.0828 92.5894 24.9391 93.5572 25.0996C94.4712 25.2602 95.3853 24.618 95.5466 23.6547C95.7079 22.6913 95.1165 21.835 94.1486 21.6745C93.2346 21.5139 92.3205 22.1562 92.1592 23.1195Z" fill="#098ED1"/>
<path d="M94.0406 22.798C93.9868 23.0656 94.1481 23.2796 94.417 23.3331C94.6858 23.3867 94.9009 23.2261 94.9546 22.9585C95.0084 22.6909 94.8471 22.4769 94.5783 22.4233C94.3632 22.3698 94.0943 22.5304 94.0406 22.798Z" fill="#F2FAFF"/>
<path d="M84.2549 21.7276C84.0936 22.6909 84.6851 23.5472 85.6529 23.7078C86.5669 23.8683 87.481 23.2261 87.6423 22.2628C87.8036 21.2995 87.2121 20.4432 86.2443 20.2826C85.3303 20.1756 84.4162 20.8178 84.2549 21.7276Z" fill="#098ED1"/>
<path d="M86.1363 21.4069C86.0825 21.6745 86.2438 21.8885 86.5127 21.942C86.7815 21.9956 86.9966 21.835 87.0503 21.5674C87.1041 21.2998 86.9428 21.0858 86.674 21.0322C86.4589 20.9787 86.19 21.1928 86.1363 21.4069Z" fill="#F2FAFF"/>
<path d="M89.7933 23.2796C88.933 23.119 88.718 23.2796 88.6642 23.4937C88.5567 23.9753 89.1481 24.564 89.5783 24.6175C89.9546 24.671 90.7074 24.3499 90.8149 23.8683C90.8149 23.6007 90.6536 23.4401 89.7933 23.2796Z" fill="#FF88DB"/>
<path d="M90.7606 25.5272C90.6531 25.6877 90.3842 26.1694 89.739 26.3299C89.6315 26.3299 89.4164 26.3835 89.2013 26.3835C88.6637 26.2764 88.2873 25.7948 88.126 25.1525C88.2873 25.2061 88.6099 25.2061 88.9325 25.1525C89.2013 25.099 89.4164 24.992 89.5239 24.9385C89.5777 25.0455 89.6852 25.099 89.7928 25.2061C90.1692 25.3666 90.5455 25.4737 90.7606 25.5272Z" fill="#FFC2D5"/>
<path d="M89.2016 26.5441C89.2016 26.5441 89.1478 26.5441 89.2016 26.5441C88.5563 26.4371 88.0724 25.8484 87.9111 25.0991C87.9111 25.0456 87.9111 24.9386 87.9649 24.8851C88.0187 24.8316 88.1262 24.8316 88.18 24.8316C88.2875 24.8851 88.5563 24.8851 88.879 24.778C89.0403 24.7245 89.2553 24.671 89.3629 24.564C89.4704 24.5104 89.5779 24.5104 89.6317 24.6175C89.6855 24.7245 89.793 24.778 89.8468 24.8316C90.1694 25.0991 90.492 25.2062 90.7071 25.2062C90.7608 25.2062 90.8684 25.2597 90.8684 25.3132C90.9221 25.3667 90.9221 25.4738 90.8684 25.5273C90.7608 25.6878 90.4382 26.223 89.7392 26.4371C89.7392 26.5441 89.4704 26.5976 89.2016 26.5441ZM88.4488 25.3132C88.6101 25.7414 88.9327 26.0089 89.2553 26.116C89.4704 26.1695 89.6317 26.116 89.6855 26.0625C90.0081 25.9554 90.2232 25.7949 90.3845 25.6343C90.1694 25.5808 89.9005 25.4202 89.6317 25.2597C89.5779 25.2062 89.5242 25.1527 89.4704 25.0991C89.3091 25.1527 89.1478 25.2062 88.9865 25.2597C88.7714 25.3132 88.6101 25.3132 88.4488 25.3132Z" fill="#76BEE2"/>
<path d="M115.224 87.5013L118.289 88.3041L117.751 81.4538C117.697 80.9721 117.106 80.7581 116.783 81.1327L112.267 86.3239L114.095 87.1267L114.041 87.2337L114.74 87.3943L115.224 87.6083V87.5013Z" fill="#F259A6"/>
<path d="M114.417 90.0166C114.095 89.9096 113.718 90.0166 113.664 90.2307L113.342 91.301L114.578 91.7292L114.901 90.6588C114.955 90.4447 114.74 90.1236 114.417 90.0166Z" fill="#843A68"/>
<path d="M108.234 94.6727L110.6 95.1543L110.17 90.0166C110.116 89.642 109.686 89.4814 109.471 89.8025L106.137 93.6023C106.083 93.6558 106.137 93.7093 106.137 93.7093L107.643 94.4586L107.589 94.5121L107.912 94.5656L108.18 94.6727H108.234Z" fill="#F259A6"/>
<path d="M102.266 92.3713L105.384 93.0135L104.847 86.1633C104.793 85.6816 104.201 85.4675 103.879 85.8421L99.3623 91.0334L101.513 92.0502L101.459 92.1573L101.943 92.2643L102.266 92.4248V92.3713Z" fill="#F259A6"/>
<path d="M106.14 93.6392L103.934 100.297L112.461 103.097L114.668 96.4393L106.14 93.6392Z" fill="#E98D39"/>
<path d="M113.288 101.149L104.416 98.2051L102.373 99.8641L114.041 103.717L113.288 101.149Z" fill="#F259A6"/>
<path d="M118.611 97.7229L121.73 98.3651L121.192 91.5148C121.139 91.0332 120.547 90.8191 120.225 91.1937L115.708 96.385L117.859 97.4018L117.805 97.5088L118.289 97.6159L118.611 97.7764V97.7229Z" fill="#F259A6"/>
<path d="M100.094 98.9565L98.4092 104.039L114.801 109.421L116.485 104.339L100.094 98.9565Z" fill="#E98D39"/>
<path d="M115.332 87.2871L112.267 86.3237L111.998 87.18L115.009 88.1433L118.02 89.1602L118.343 88.3039L116.353 87.6617L115.332 87.2871Z" fill="#FFB445"/>
<path d="M114.632 89.3207L112.535 88.625L110.385 95.1007L112.482 95.7964L114.632 96.4921L116.783 90.0165L116.03 89.7489L114.632 89.3207Z" fill="#F5A03B"/>
<path d="M102.322 95.2329H101.879L99.2211 94.3511L96.0289 101.844C95.7601 102.54 96.0827 103.343 96.7817 103.557L98.3947 104.092L101.352 105.055L103.503 95.8501L102.322 95.2329Z" fill="#F5A03B"/>
<path d="M102.373 92.05L99.362 91.0332L98.7168 92.9598L101.728 93.9767L104.739 94.94L105.384 93.0134L103.233 92.3176L102.373 92.05Z" fill="#FFB445"/>
<path d="M119.848 101.202L118.558 100.773L117.698 100.506L115.611 99.6416L111.783 108.48L114.74 109.443L116.461 109.979C117.106 110.193 117.859 109.818 118.02 109.122L119.848 101.202Z" fill="#F5A03B"/>
<path d="M119.579 97.6699L118.719 97.4023L115.708 96.439L115.062 98.3656L118.073 99.3289L121.138 100.346L121.73 98.4191L119.579 97.6699Z" fill="#FFB445"/>
<path d="M107.858 102.754C106.836 102.433 105.761 102.807 105.492 103.61L104.686 106.125L108.396 107.356L109.202 104.841C109.525 104.038 108.879 103.128 107.858 102.754Z" fill="#A0532D"/>
<path d="M115.008 88.1435L111.997 87.1802L112.481 88.5716L112.535 88.6252L114.632 89.3209L116.782 90.0166L118.019 89.1603L116.514 88.6252L115.008 88.1435Z" fill="#E89636"/>
<path d="M118.719 99.5431L118.074 99.329L115.062 98.3657L115.546 99.7572L117.697 100.506L119.848 101.202L121.138 100.346L118.719 99.5431Z" fill="#E89636"/>
<path d="M101.728 93.9768L98.7168 92.96L99.2007 94.4049L101.351 95.1007L103.502 95.8499L104.739 94.9401L102.373 94.1909L101.728 93.9768Z" fill="#E89636"/>
<path d="M101.029 96.1177C100.707 96.0106 100.33 96.1177 100.277 96.3317L99.9541 97.4021L101.191 97.8302L101.513 96.7599C101.567 96.4923 101.352 96.2247 101.029 96.1177Z" fill="#A0532D"/>
<path d="M117.374 101.47C117.052 101.363 116.675 101.47 116.621 101.684L116.299 102.754L117.535 103.182L117.858 102.112C117.966 101.898 117.751 101.63 117.374 101.47Z" fill="#A0532D"/>
<path d="M105.923 29.7028C106.084 30.2915 105.708 30.9338 105.116 31.1478C104.471 31.3084 103.879 30.9873 103.664 30.3451C103.503 29.7564 103.879 29.1142 104.471 28.9001C105.116 28.7395 105.761 29.1142 105.923 29.7028Z" fill="#663D20"/>
<path d="M105.389 30.2488L104.457 30.5098L105.812 35.3008L106.743 35.0398L105.389 30.2488Z" fill="#663D20"/>
<path d="M110.655 34.8404L102.697 37.0881C102.482 37.1416 102.321 37.0346 102.267 36.8205C102.052 36.0178 102.536 35.108 103.342 34.8939L108.988 33.3419C109.794 33.1278 110.708 33.6095 110.924 34.4122C110.924 34.5728 110.816 34.7869 110.655 34.8404Z" fill="#D93E23"/>
<path d="M99.3092 47.2571C100.675 47.2571 101.783 46.1549 101.783 44.7953C101.783 43.4357 100.675 42.3335 99.3092 42.3335C97.9433 42.3335 96.8359 43.4357 96.8359 44.7953C96.8359 46.1549 97.9433 47.2571 99.3092 47.2571Z" fill="#D93E23"/>
<path d="M117.376 42.1727C118.742 42.1727 119.849 41.0705 119.849 39.7108C119.849 38.3512 118.742 37.249 117.376 37.249C116.01 37.249 114.902 38.3512 114.902 39.7108C114.902 41.0705 116.01 42.1727 117.376 42.1727Z" fill="#D93E23"/>
<path d="M116.408 47.8454L104.471 51.217C102.697 51.6987 100.869 50.6819 100.385 48.9158L98.2342 41.3162C97.7503 39.5501 98.7719 37.7305 100.546 37.2489L112.483 33.8772C114.257 33.3956 116.085 34.4124 116.569 36.1785L118.72 43.7781C119.204 45.5441 118.128 47.3637 116.408 47.8454Z" fill="#F75031"/>
<path d="M115.063 46.1331L104.686 49.0231C103.503 49.3442 102.266 48.6485 101.89 47.4711L100.277 41.6911C99.9543 40.5137 100.653 39.2828 101.836 38.9082L112.213 36.0182C113.396 35.6971 114.633 36.3929 115.009 37.5703L116.622 43.3502C116.945 44.5811 116.246 45.812 115.063 46.1331Z" fill="#FBD82B"/>
<path d="M106.675 42.0118C106.998 43.0822 106.353 44.1526 105.277 44.4737C104.202 44.7948 103.127 44.1526 102.804 43.0822C102.481 42.0118 103.127 40.9415 104.202 40.6204C105.277 40.3528 106.353 40.9415 106.675 42.0118Z" fill="#F2FAFF"/>
<path d="M113.558 40.0856C113.881 41.1559 113.236 42.2263 112.16 42.5474C111.085 42.8685 110.009 42.2263 109.687 41.1559C109.364 40.0856 110.009 39.0152 111.085 38.6941C112.106 38.4265 113.236 39.0152 113.558 40.0856Z" fill="#F2FAFF"/>
<path d="M105.976 42.2259C106.191 42.9216 105.761 43.6709 105.062 43.8314C104.363 44.0455 103.611 43.6174 103.449 42.9216C103.234 42.2259 103.664 41.4766 104.363 41.3161C105.062 41.102 105.815 41.4766 105.976 42.2259Z" fill="#663D20"/>
<path d="M112.859 40.2997C113.074 40.9954 112.644 41.7447 111.945 41.9052C111.246 42.1193 110.493 41.6911 110.332 40.9954C110.117 40.2997 110.547 39.5504 111.246 39.3899C111.945 39.1758 112.644 39.6039 112.859 40.2997Z" fill="#663D20"/>
<path d="M111.515 45.009L107.159 46.2399C106.891 46.2935 106.568 46.1329 106.514 45.8653C106.46 45.5977 106.622 45.2766 106.891 45.2231L111.246 43.9922C111.515 43.9387 111.837 44.0992 111.891 44.3668C111.945 44.6344 111.783 44.902 111.515 45.009Z" fill="#663D20"/>
</svg>
