<svg width="226" height="223" viewBox="0 0 226 223" fill="none" xmlns="http://www.w3.org/2000/svg">
<path d="M123.76 134.4C125.68 133.76 131.696 130.688 132.208 129.024C132.72 127.36 134.256 117.376 133.36 116.608C132.464 115.84 131.952 116.992 131.056 118.784C130.16 120.576 128.368 123.136 128.368 123.136C128.368 123.136 125.808 124.544 124.016 130.432C122.096 136.32 123.76 134.4 123.76 134.4Z" fill="#873131"/>
<path d="M139.888 130.176C142.064 128.128 147.056 118.016 146.16 114.176C145.52 111.872 144.368 112.512 142.96 113.92C140.656 116.096 138.864 118.784 136.816 121.216C135.024 123.264 131.824 123.264 129.776 125.312C129.008 126.08 124.4 131.584 125.68 132.608L130.672 136.704L135.408 133.376L139.888 130.176Z" fill="#9C3938"/>
<path d="M63.2168 151.595C59.1208 151.723 41.8408 155.179 40.1768 159.019C38.7688 162.091 31.3451 204.203 33.3931 219.563C33.9051 223.275 46.9608 222.891 46.9608 222.891H74.6088H94.1928C96.1128 220.459 90.7368 208.555 90.9928 203.179C91.7608 183.979 95.7288 154.411 92.5288 153.387C86.6408 151.339 71.7928 151.211 63.2168 151.595Z" fill="#FF709F"/>
<path d="M44.0162 156.288C43.8882 156.288 31.6002 157.952 27.2482 171.264C23.7922 181.76 22.7682 191.232 24.6882 205.824C25.7122 213.76 29.8082 219.52 33.6482 221.312C39.2802 224.128 35.5682 218.88 39.5362 214.784C40.0482 214.272 41.5842 212.864 41.9682 212.096C44.5282 206.464 47.9842 182.528 48.2402 176.256C48.4962 170.88 49.5202 164.48 47.6002 159.36C46.7042 157.44 46.0642 156.032 44.0162 156.288Z" fill="#FF709F"/>
<path d="M79.4719 152.064C83.3119 151.552 97.6479 154.112 104.816 156.16C111.344 157.952 118 160.768 122.352 166.144C124.144 168.32 126.064 171.648 124.528 174.464C122.992 177.152 119.152 177.792 116.336 177.92C110.32 178.176 102.896 178.688 94.8319 178.048C93.4239 177.92 91.7599 178.432 91.2479 180.096C90.6079 182.656 90.4799 187.264 90.4799 187.264C87.2799 181.248 84.2079 176.384 81.9039 169.984C80.4959 166.272 73.4559 152.832 79.4719 152.064Z" fill="#FF709F"/>
<path d="M120.048 131.2C120.56 130.048 121.84 129.664 122.992 130.048C127.6 131.968 137.328 136.96 138.352 139.648C139.504 142.848 127.984 169.984 124.912 173.824C121.84 177.664 117.744 177.408 115.312 176.896C112.368 176.256 107.504 171.136 109.04 160.64C110.32 151.808 117.104 137.472 120.048 131.2Z" fill="#FF709F"/>
<path d="M92.4011 202.496C95.8571 201.856 106.225 197.632 109.169 199.552C112.113 201.472 118.897 210.304 118.897 212.48C118.897 214.656 116.465 217.216 113.777 215.552C111.089 213.888 105.969 210.816 102.641 210.56C99.4411 210.432 92.9131 211.968 91.8891 211.2C90.8651 210.56 92.4011 202.496 92.4011 202.496Z" fill="#9C3938"/>
<path d="M30.9605 218.624C33.9045 222.08 32.7525 224.512 63.3445 221.184C71.2805 220.288 97.1365 217.344 98.4165 216.064C99.8245 214.912 99.4405 197.376 97.1365 196.992C94.8325 196.608 40.4325 200.96 33.7765 202.496C27.1205 204.032 25.3285 211.712 30.9605 218.624Z" fill="#FF709F"/>
<path d="M50.9283 133.504C50.9283 137.216 52.0803 150.272 49.6483 153.344C48.6243 154.752 46.3203 154.88 46.3203 155.904C46.3203 156.928 57.5843 168.064 67.9523 167.296C77.9363 166.656 77.4243 156.8 72.8163 151.808C72.4323 151.424 71.2803 151.552 70.8963 151.296C69.8723 150.528 69.8723 150.272 69.6163 149.76C68.3363 146.944 68.4643 135.424 68.4643 135.424L50.9283 133.504Z" fill="#9C3938"/>
<path d="M46.7042 154.88C47.0882 154.752 47.6002 154.88 47.7282 155.264C48.3682 156.288 48.8802 157.44 51.9522 159.872C55.7922 162.944 60.5282 165.632 66.0322 166.272C68.9762 166.656 73.3282 166.272 74.6082 163.2C76.1442 159.488 74.0962 155.136 72.0482 151.936C71.9202 151.68 72.0482 151.424 72.3042 151.424C73.2002 151.296 74.2242 151.424 74.7362 151.552C74.9922 151.552 75.2482 151.68 75.3762 151.936C76.6562 154.24 77.6802 157.696 77.9362 159.488C78.5762 163.456 77.1682 167.68 73.0722 169.216C66.5442 171.52 58.2242 168.448 52.7202 164.864C49.3922 162.688 46.3202 160 43.6322 157.056C43.3762 156.672 43.5042 156.16 43.8882 156.032L46.7042 154.88Z" fill="#FADCEE"/>
<path d="M46.576 183.808C46.32 184.576 46.064 185.6 46.064 186.624C46.064 190.208 44.144 200.576 50.416 200.064C55.92 199.552 66.032 198.528 71.024 198.272C72.048 198.272 74.096 198.144 70.512 195.84C68.976 194.816 59.504 195.2 56.048 193.152C52.848 191.232 51.184 186.88 49.52 184.32C48.24 182.016 47.088 182.4 46.576 183.808Z" fill="#ED5A8A"/>
<path d="M116.209 217.216L160.369 214.912C163.313 214.912 166.513 212.48 167.665 209.536L182.001 177.92C183.793 173.056 179.185 170.24 176.113 170.24H130.417C127.473 170.24 124.273 172.672 123.121 175.616L111.089 209.536C110.193 212.48 112.113 217.216 116.209 217.216Z" fill="#E8E8FF"/>
<path d="M117.873 218.88L162.033 216.576C164.977 216.576 168.177 214.144 169.329 211.2L183.665 179.584C185.457 174.72 180.849 171.904 177.777 171.904H132.081C129.137 171.904 125.937 174.336 124.785 177.28L112.753 211.2C111.857 214.144 113.777 218.88 117.873 218.88Z" fill="#163AA8"/>
<path d="M118.769 218.88H164.465C167.409 218.88 170.609 216.448 171.761 213.504L183.793 179.584C184.817 176.64 183.281 174.208 180.337 174.208H134.513C131.569 174.208 128.369 176.64 127.217 179.584L115.185 213.504C114.161 216.448 115.825 218.88 118.769 218.88Z" fill="#1941BB"/>
<path d="M97.0082 222.976H165.232C167.536 222.976 169.456 221.056 169.456 218.752C169.456 216.448 167.536 214.528 165.232 214.528H97.0082C94.7042 214.528 92.7842 216.448 92.7842 218.752C92.7842 221.056 94.7042 222.976 97.0082 222.976Z" fill="#1941BB"/>
<path d="M142.959 195.072C142.575 194.816 142.703 194.304 143.087 194.048C144.111 193.536 145.391 193.024 146.543 193.536C148.079 194.304 151.663 200.192 155.247 201.344C155.503 201.472 155.631 201.856 155.375 201.984C153.583 203.264 148.719 205.824 145.775 199.168C144.751 196.864 143.727 195.584 142.959 195.072Z" fill="#608BD3"/>
<path d="M151.279 194.816C151.023 194.944 150.639 194.816 150.639 194.56C150.383 193.536 149.743 191.872 150.639 190.848C151.535 190.08 152.431 189.44 153.071 189.056C153.327 188.928 153.583 189.056 153.711 189.312C153.839 190.208 154.095 191.872 154.095 192.256C153.839 193.152 152.175 194.304 151.279 194.816Z" fill="#608BD3"/>
<path d="M152.559 195.712C153.455 195.2 154.607 194.944 155.887 195.328C157.423 195.84 160.111 197.248 161.775 197.76C162.159 197.888 162.159 198.272 161.903 198.528C161.135 199.04 159.983 199.68 158.959 199.68C157.295 199.68 156.143 199.168 154.607 197.632C153.967 196.992 153.327 196.736 152.815 196.608C151.663 196.224 151.919 195.968 152.559 195.712Z" fill="#608BD3"/>
<path d="M173.553 208.384L169.073 220.416L163.185 216.576L173.553 208.384Z" fill="#1941BB"/>
<path d="M64.752 97.9201C66.416 102.016 68.976 107.264 71.536 109.056C72.56 109.696 73.712 110.208 74.864 110.72C75.888 111.36 77.04 112.128 77.296 113.28C77.552 114.048 77.296 114.816 76.912 115.456C76.4 116.096 76.4 117.12 76.912 117.888C79.6 122.24 81.136 127.232 78.576 132.224C77.68 133.888 76.4 135.296 74.736 136.32C67.824 140.544 59.248 136.576 52.336 134.4C49.648 133.632 45.936 133.248 44.016 130.944C42.736 129.408 42.352 126.976 43.376 125.184C44.272 123.392 46.448 122.24 48.496 122.496C49.008 122.496 49.776 122.624 49.904 122.112C49.904 121.856 49.776 121.6 49.648 121.344C47.984 118.912 44.784 116.992 45.296 114.048C45.68 111.744 46.064 105.216 46.576 102.912C47.344 99.5841 50.544 98.6881 52.464 97.2801C54.512 95.7441 59.248 93.0561 61.424 91.7761C61.424 91.9041 64.752 97.6641 64.752 97.9201Z" fill="#9C3938"/>
<path d="M51.6965 129.92C51.4405 129.024 50.4165 125.696 48.7525 125.824C46.9605 125.952 46.7045 128 48.1125 129.152C49.3925 130.432 52.0805 131.456 51.6965 129.92Z" fill="#FF8246"/>
<path d="M64.2399 107.52C62.8319 107.52 60.6559 107.904 58.6079 110.336C58.3519 110.72 57.7119 110.464 57.7119 110.08C57.8399 109.184 58.3519 107.776 59.5039 107.008C61.6799 105.6 63.2159 106.368 64.3679 106.88C64.7519 107.136 64.6239 107.52 64.2399 107.52Z" fill="#381A00"/>
<path d="M65.599 114.122C66.3579 113.743 66.5889 112.666 66.115 111.718C65.6412 110.769 64.6418 110.308 63.8829 110.687C63.124 111.066 62.893 112.142 63.3668 113.091C63.8407 114.039 64.8401 114.501 65.599 114.122Z" fill="#400700"/>
<path d="M78.0646 120.192C78.0646 120.192 74.8646 121.984 71.5366 123.008C68.9766 123.776 70.7686 127.488 73.8406 128.256C76.9126 129.024 79.6006 128.256 79.6006 128.256C79.6006 128.256 80.4966 124.416 78.0646 120.192Z" fill="#6E2217"/>
<path d="M150.896 48.768H129.904C126.96 48.768 124.656 46.464 124.656 43.52V36.736C124.656 33.792 126.96 31.488 129.904 31.488H146.8C149.744 31.488 152.048 33.792 152.048 36.736V47.7441C151.92 48.3841 151.536 48.768 150.896 48.768Z" fill="#5E7DF8"/>
<path d="M144.752 34.9441C142.32 35.0721 140.144 36.3521 138.48 38.1441C137.456 39.1681 136.688 40.3201 135.792 41.4721C135.152 40.7041 134.64 39.8081 133.872 39.1681C133.36 38.5281 132.208 38.7841 131.696 39.1681C131.184 39.6801 130.928 40.7041 131.44 41.3441C132.464 42.6241 133.488 44.0321 134.256 45.4401C134.768 46.3361 136.304 46.3361 136.944 45.5681C138.224 43.9041 139.504 42.1121 140.912 40.5761C142.32 39.0401 143.6 37.5041 145.264 36.3521C145.776 35.8401 145.392 34.9441 144.752 34.9441Z" fill="white"/>
<path d="M157.297 82.9439H216.433C221.681 82.9439 225.905 78.7199 225.905 73.4719V61.1839C225.905 55.9359 221.681 51.7119 216.433 51.7119H164.721C159.473 51.7119 155.249 55.9359 155.249 61.1839V81.0239C155.377 82.0479 156.145 82.9439 157.297 82.9439Z" fill="white"/>
<path d="M170.865 64.6399H215.409C216.305 64.6399 217.073 63.8719 217.073 62.9759V60.7999C217.073 59.9039 216.305 59.1359 215.409 59.1359H170.865C169.969 59.1359 169.201 59.9039 169.201 60.7999V62.9759C169.201 63.8719 169.969 64.6399 170.865 64.6399Z" fill="#4DC3FF"/>
<path d="M197.617 75.008H215.409C216.305 75.008 217.073 74.24 217.073 73.344V71.296C217.073 70.4 216.305 69.632 215.409 69.632H197.617C196.721 69.632 195.953 70.4 195.953 71.296V73.472C195.953 74.368 196.721 75.008 197.617 75.008Z" fill="#4DC3FF"/>
<path d="M174.065 22.784H214.001C219.249 22.784 223.473 18.56 223.473 13.312V9.47199C223.473 4.22399 219.249 0 214.001 0H181.489C176.241 0 172.017 4.22399 172.017 9.47199V20.736C172.017 21.888 172.913 22.784 174.065 22.784Z" fill="white"/>
<path d="M62.7042 94.3359C62.7042 94.3359 51.4402 97.0239 49.3922 103.936C46.7042 113.024 47.4722 118.528 49.9042 121.088C50.5442 121.728 50.0322 122.752 49.1362 122.752C46.9602 122.752 44.2722 123.392 43.5042 125.568C41.7122 130.816 47.4721 134.656 54.0001 133.248L55.4081 137.088C56.3041 139.52 56.0482 142.336 54.5122 144.384C53.8722 145.408 53.3602 146.56 53.8722 148.224C55.1522 152.064 57.3282 156.16 52.0802 161.28C46.8321 166.4 39.7922 166.656 37.7442 170.624C35.5682 174.592 42.2242 185.6 30.3202 193.28C18.2882 201.088 9.20015 201.344 2.80015 195.328C-3.59985 189.312 2.41615 181.504 6.51215 174.72C10.6082 167.808 5.87215 164.48 2.41615 156.544C-1.03985 148.608 1.13615 138.752 9.84015 132.608C18.6721 126.464 27.5042 125.696 26.2242 115.968C25.0722 106.24 21.7441 97.7919 38.7682 88.4479C41.7121 86.9119 61.5522 78.0799 62.7042 94.3359Z" fill="#2A3C85"/>
<path d="M49.5193 87.68C49.5193 87.68 47.2153 82.688 54.7673 79.744C61.1673 77.312 64.4953 80.512 65.6473 83.712C66.9273 86.912 65.9033 90.496 67.5673 93.184C69.2313 95.872 71.0233 95.104 70.3833 98.688C69.7433 102.272 66.7993 102.784 67.6953 104.32C68.5913 105.856 62.7033 94.336 57.5833 96.128L49.5193 87.68Z" fill="#2A3C85"/>
<path d="M131.186 111.616C138.609 111.616 144.626 105.599 144.626 98.1761C144.626 90.7534 138.609 84.7361 131.186 84.7361C123.763 84.7361 117.746 90.7534 117.746 98.1761C117.746 105.599 123.763 111.616 131.186 111.616Z" fill="white"/>
<path d="M137.842 97.4081C137.714 97.2801 133.618 93.8241 128.37 91.6481C127.73 91.3921 126.962 91.7761 126.962 92.5441C126.706 96.0001 126.578 100.096 126.962 103.808C126.962 104.448 127.73 104.96 128.37 104.704C133.618 102.528 137.714 99.0721 137.842 98.9441C138.354 98.5601 138.354 97.7921 137.842 97.4081Z" fill="#4DC3FF"/>
<path d="M49 85.0001C49 85.0001 46.5768 86.016 44.5288 88.32C40.9448 92.416 37.4888 101.376 41.8408 117.376L35.5688 119.168C35.5688 119.168 33.0088 108.288 34.0328 100.224C34.6728 95.232 36.7208 91.392 38.6408 88.832C39.7928 87.424 43.752 84.6161 49 85.0001Z" fill="#3A73EC"/>
<path d="M43.5044 140.544C49.8667 140.544 55.0244 135.386 55.0244 129.024C55.0244 122.662 49.8667 117.504 43.5044 117.504C37.1421 117.504 31.9844 122.662 31.9844 129.024C31.9844 135.386 37.1421 140.544 43.5044 140.544Z" fill="#008BCC"/>
<path d="M41.8403 140.544C48.2026 140.544 53.3603 135.386 53.3603 129.024C53.3603 122.662 48.2026 117.504 41.8403 117.504C35.478 117.504 30.3203 122.662 30.3203 129.024C30.3203 135.386 35.478 140.544 41.8403 140.544Z" fill="#00A9F8"/>
<path d="M40.8164 136.448C44.7045 136.448 47.8564 133.124 47.8564 129.024C47.8564 124.924 44.7045 121.6 40.8164 121.6C36.9283 121.6 33.7764 124.924 33.7764 129.024C33.7764 133.124 36.9283 136.448 40.8164 136.448Z" fill="#3A73EC"/>
</svg>
