<svg width="151" height="126" viewBox="0 0 151 126" fill="none" xmlns="http://www.w3.org/2000/svg">
<g clip-path="url(#clip0_10529_5794)">
<path d="M71.3958 120.897C70.9268 120.897 70.4579 120.897 69.989 120.897C69.2269 120.897 68.5821 120.201 68.6407 119.448C68.6407 118.694 69.3442 118.115 70.1062 118.115C70.5751 118.115 70.9855 118.115 71.4544 118.115H71.8061C72.5682 118.115 73.213 118.752 73.213 119.506C73.213 120.259 72.5682 120.897 71.8061 120.897H71.3958ZM78.9576 120.317C78.2542 120.317 77.668 119.854 77.5507 119.158C77.4335 118.404 77.9611 117.651 78.7231 117.535C79.3093 117.419 79.8369 117.361 80.423 117.245C81.1851 117.071 81.9471 117.593 82.123 118.346C82.2988 119.1 81.7713 119.854 81.0092 120.027C80.423 120.143 79.8369 120.259 79.2507 120.375C79.0748 120.259 79.0162 120.317 78.9576 120.317ZM62.8961 120.143C62.8375 120.143 62.7203 120.143 62.603 120.143C62.0169 120.027 61.4307 119.912 60.8445 119.796C60.0824 119.622 59.6135 118.868 59.7894 118.115C59.9652 117.361 60.7272 116.897 61.4893 117.071C62.0169 117.187 62.603 117.303 63.1306 117.419C63.8926 117.535 64.4202 118.288 64.2444 119.042C64.1857 119.68 63.5995 120.143 62.8961 120.143ZM87.5745 117.999C86.9883 117.999 86.4607 117.651 86.2263 117.071C85.9332 116.375 86.3435 115.564 87.0469 115.274C87.5745 115.1 88.1021 114.868 88.6296 114.636C89.333 114.347 90.1537 114.694 90.5054 115.39C90.7985 116.086 90.4468 116.897 89.7434 117.245C89.2158 117.477 88.6296 117.709 88.0434 117.883C87.8676 117.999 87.6917 117.999 87.5745 117.999ZM54.3378 117.651C54.162 117.651 53.9861 117.593 53.8103 117.535C53.2241 117.303 52.6965 117.071 52.1103 116.839C51.4069 116.549 51.0552 115.68 51.4069 114.984C51.7586 114.289 52.5793 113.941 53.2827 114.289C53.8103 114.52 54.3378 114.752 54.8654 114.926C55.5688 115.216 55.9205 116.028 55.6274 116.723C55.4516 117.303 54.8654 117.651 54.3378 117.651ZM95.5466 114.115C95.0776 114.115 94.6087 113.883 94.3156 113.477C93.9053 112.839 94.0811 111.97 94.7845 111.564C95.2535 111.274 95.7224 110.984 96.1914 110.637C96.8362 110.231 97.7155 110.347 98.1844 110.984C98.5947 111.622 98.4775 112.492 97.8327 112.955C97.3051 113.303 96.8362 113.593 96.3086 113.941C96.0742 114.057 95.7811 114.115 95.5466 114.115ZM46.4244 113.535C46.1313 113.535 45.8968 113.477 45.6623 113.303C45.1348 112.955 44.6658 112.666 44.1382 112.318C43.4934 111.854 43.3762 110.984 43.7865 110.347C44.2555 109.709 45.1348 109.593 45.7796 109.999C46.2485 110.347 46.7175 110.637 47.1864 110.926C47.8312 111.332 48.0071 112.202 47.5967 112.839C47.3036 113.361 46.8933 113.535 46.4244 113.535ZM102.639 108.724C102.288 108.724 101.877 108.55 101.584 108.26C101.057 107.68 101.057 106.811 101.643 106.289C102.053 105.883 102.464 105.535 102.874 105.13C103.401 104.608 104.339 104.55 104.867 105.13C105.394 105.651 105.453 106.579 104.867 107.101C104.457 107.506 103.988 107.912 103.577 108.376C103.343 108.608 102.991 108.724 102.639 108.724ZM39.4488 108.028C39.0971 108.028 38.7453 107.912 38.4523 107.622C38.0419 107.217 37.573 106.753 37.1627 106.347C36.6351 105.767 36.6351 104.898 37.2213 104.376C37.8075 103.854 38.6867 103.854 39.2143 104.434C39.6246 104.84 39.9763 105.246 40.3867 105.651C40.9728 106.173 40.9728 107.101 40.3867 107.622C40.2108 107.912 39.8005 108.028 39.4488 108.028ZM108.501 102.115C108.208 102.115 107.915 102.057 107.681 101.825C107.036 101.362 106.919 100.492 107.388 99.8546C107.739 99.3908 108.032 98.9271 108.384 98.4633C108.794 97.8257 109.674 97.6518 110.377 98.0575C111.022 98.4633 111.198 99.3328 110.787 100.028C110.436 100.55 110.084 101.014 109.732 101.478C109.381 101.941 108.97 102.115 108.501 102.115ZM33.7042 101.304C33.2352 101.304 32.8249 101.072 32.5318 100.724C32.1801 100.26 31.8284 99.7386 31.5353 99.2169C31.125 98.5793 31.3008 97.7097 32.0042 97.304C32.649 96.8982 33.5283 97.0721 33.9386 97.7677C34.2317 98.2315 34.5834 98.6952 34.8765 99.1589C35.3455 99.7966 35.1696 100.666 34.5248 101.13C34.2903 101.188 33.9973 101.304 33.7042 101.304ZM113.015 94.4635C112.839 94.4635 112.605 94.4056 112.429 94.3476C111.725 93.9998 111.432 93.1882 111.725 92.4926C111.96 91.9709 112.194 91.4492 112.429 90.9275C112.722 90.2319 113.542 89.8841 114.304 90.1739C115.008 90.4637 115.36 91.2753 115.067 92.0289C114.832 92.6086 114.598 93.1303 114.363 93.652C114.07 94.1737 113.542 94.4635 113.015 94.4635ZM29.3664 93.594C28.8388 93.594 28.3113 93.3042 28.0768 92.7245C27.8423 92.2028 27.6079 91.6231 27.3734 91.0434C27.0803 90.3478 27.432 89.5362 28.194 89.2464C28.8975 88.9566 29.7181 89.3044 30.0112 90.058C30.1871 90.5797 30.4215 91.1014 30.656 91.6231C30.9491 92.3187 30.656 93.1303 29.894 93.4781C29.7767 93.536 29.6009 93.594 29.3664 93.594ZM115.946 86.1161C115.829 86.1161 115.711 86.1161 115.594 86.0582C114.832 85.8843 114.363 85.1307 114.539 84.3771C114.656 83.8554 114.773 83.2757 114.891 82.754C115.067 82.0004 115.77 81.4787 116.532 81.6526C117.294 81.8265 117.822 82.5221 117.646 83.2757C117.528 83.8554 117.411 84.4351 117.235 85.0147C117.177 85.7104 116.591 86.1161 115.946 86.1161ZM26.67 85.1886C26.0252 85.1886 25.439 84.7249 25.2631 84.0872C25.1459 83.5076 25.0286 82.9279 24.9114 82.3482C24.7942 81.5946 25.3217 80.841 26.0838 80.7251C26.8458 80.6092 27.6078 81.1309 27.7251 81.8845C27.8423 82.4641 27.9596 82.9859 28.0768 83.5655C28.2527 84.3191 27.7251 85.0727 26.963 85.2466C26.8458 85.1886 26.7872 85.1886 26.67 85.1886ZM117.118 77.4209C116.298 77.3629 115.653 76.7253 115.711 75.9717C115.711 75.392 115.77 74.8703 115.77 74.2906C115.77 73.8269 115.77 73.3052 115.77 72.8414C115.77 72.0879 116.356 71.3922 117.118 71.3922C117.88 71.3343 118.584 71.9719 118.584 72.7255C118.584 73.2472 118.584 73.7689 118.584 74.2906C118.584 74.8703 118.584 75.508 118.525 76.0876C118.525 76.7833 117.88 77.4209 117.118 77.4209ZM25.6734 76.4355C24.9114 76.4355 24.2666 75.7978 24.2666 75.0442C24.2666 74.8123 24.2666 74.5225 24.2666 74.2906C24.2666 73.9428 24.2666 73.595 24.2666 73.2472C24.2666 72.4936 24.9114 71.856 25.6734 71.856C25.6734 71.856 25.6734 71.856 25.7321 71.856C26.4941 71.856 27.1389 72.4936 27.1389 73.3052C27.1389 73.653 27.1389 73.9428 27.1389 74.2906C27.1389 74.5225 27.1389 74.7544 27.1389 75.0442C27.0803 75.7398 26.4941 76.3775 25.6734 76.4355ZM26.3769 67.6243C26.3182 67.6243 26.201 67.6243 26.1424 67.6243C25.3804 67.5084 24.8528 66.7548 24.97 66.0012C25.0873 65.4215 25.2045 64.8418 25.3217 64.2622C25.4976 63.5086 26.2596 63.0448 27.0217 63.2187C27.7837 63.3926 28.2527 64.1462 28.0768 64.8998C27.9596 65.4215 27.8423 66.0012 27.7251 66.5809C27.6665 67.1606 27.0803 67.6243 26.3769 67.6243ZM116.356 67.1026C115.711 67.1026 115.067 66.6388 114.949 65.9432C114.832 65.3635 114.715 64.8418 114.598 64.3201C114.422 63.5665 114.891 62.813 115.653 62.6391C116.415 62.4651 117.177 62.9289 117.353 63.6825C117.47 64.2622 117.587 64.8418 117.704 65.4215C117.88 66.1751 117.353 66.9287 116.591 67.0446C116.532 67.1026 116.415 67.1026 116.356 67.1026ZM28.8388 59.103C28.663 59.103 28.4871 59.045 28.3113 58.9871C27.6078 58.6972 27.1975 57.8857 27.4906 57.1901C27.7251 56.6104 27.9596 56.0887 28.194 55.509C28.4871 54.8134 29.3664 54.4656 30.0698 54.8134C30.7732 55.1032 31.125 55.9727 30.7732 56.6683C30.5388 57.1901 30.3043 57.7118 30.1284 58.2335C29.894 58.7552 29.3664 59.103 28.8388 59.103ZM113.836 58.6393C113.249 58.6393 112.722 58.2914 112.546 57.7697C112.311 57.248 112.136 56.7263 111.901 56.2046C111.608 55.509 111.901 54.6974 112.605 54.3496C113.308 54.0018 114.129 54.3496 114.48 55.0452C114.715 55.5669 114.949 56.1466 115.184 56.6683C115.477 57.364 115.125 58.1755 114.422 58.4653C114.187 58.6393 114.011 58.6393 113.836 58.6393ZM32.8835 51.2773C32.649 51.2773 32.3559 51.2193 32.1215 51.0454C31.4767 50.6397 31.3008 49.7701 31.7111 49.1325C32.0629 48.6108 32.3559 48.147 32.7077 47.6253C33.1766 46.9877 34.0559 46.8138 34.7007 47.2775C35.3455 47.7413 35.5213 48.6108 35.0524 49.2484C34.7007 49.7122 34.4076 50.1759 34.1145 50.6397C33.8214 51.0454 33.3525 51.2773 32.8835 51.2773ZM109.674 50.8715C109.205 50.8715 108.736 50.6397 108.501 50.2339C108.208 49.7701 107.856 49.3064 107.563 48.8426C107.094 48.205 107.27 47.3355 107.915 46.8717C108.56 46.408 109.439 46.5819 109.908 47.2195C110.26 47.6833 110.612 48.205 110.905 48.7267C111.315 49.3644 111.139 50.2339 110.494 50.6397C110.201 50.7556 109.967 50.8715 109.674 50.8715ZM38.3936 44.3211C38.0419 44.3211 37.6902 44.2052 37.3971 43.9154C36.8109 43.3936 36.8109 42.4662 37.3385 41.9444C37.7488 41.5387 38.1592 41.0749 38.6281 40.6691C39.2143 40.1474 40.0936 40.1474 40.6211 40.7271C41.1487 41.3068 41.1487 42.1763 40.5625 42.698C40.1522 43.1038 39.7419 43.5096 39.3315 43.9154C39.1557 44.2052 38.804 44.3211 38.3936 44.3211ZM104.046 43.9733C103.695 43.9733 103.284 43.8574 103.05 43.5676C102.639 43.1618 102.229 42.756 101.819 42.4082C101.233 41.8865 101.233 41.017 101.76 40.4373C102.288 39.8576 103.167 39.8576 103.753 40.3793C104.222 40.7851 104.632 41.1909 105.043 41.6546C105.57 42.2343 105.57 43.1038 105.043 43.6255C104.808 43.8574 104.457 43.9733 104.046 43.9733ZM45.1934 38.5823C44.7244 38.5823 44.3141 38.3504 44.021 38.0026C43.5521 37.365 43.7279 36.4954 44.3727 36.0317C44.8417 35.6839 45.3692 35.3361 45.8968 35.0462C46.5416 34.6405 47.4209 34.8144 47.8312 35.452C48.2415 36.0897 48.0657 36.9592 47.4209 37.365C46.9519 37.6548 46.483 38.0026 46.014 38.2925C45.7209 38.5243 45.4865 38.5823 45.1934 38.5823ZM97.2465 38.2925C96.9534 38.2925 96.719 38.2345 96.4259 38.0606C95.9569 37.7707 95.488 37.4229 95.019 37.1331C94.3742 36.7273 94.1397 35.8578 94.5501 35.2201C94.9604 34.5825 95.8397 34.3506 96.4845 34.7564C97.012 35.1042 97.481 35.3941 98.0086 35.7419C98.6534 36.2056 98.8292 37.0751 98.3603 37.7128C98.1258 38.1186 97.7155 38.2925 97.2465 38.2925ZM52.931 34.2347C52.4034 34.2347 51.8759 33.9448 51.6414 33.4231C51.3483 32.7275 51.6414 31.916 52.3448 31.5682C52.8724 31.3363 53.4586 31.1044 53.9861 30.8725C54.6896 30.5827 55.5102 30.9305 55.8033 31.6841C56.0964 32.3797 55.7447 33.1913 54.9826 33.4811C54.4551 33.713 53.9275 33.8869 53.4 34.1188C53.3413 34.2347 53.1655 34.2347 52.931 34.2347ZM89.3917 34.0608C89.2158 34.0608 89.0399 34.0028 88.8055 33.9448C88.2779 33.713 87.7503 33.5391 87.2228 33.3072C86.5194 33.0174 86.109 32.2058 86.4021 31.5102C86.6952 30.8146 87.5159 30.4088 88.2193 30.6986C88.8055 30.9305 89.333 31.1624 89.9192 31.3943C90.6226 31.6841 90.9743 32.4956 90.6813 33.2492C90.5054 33.713 89.9778 34.0608 89.3917 34.0608ZM61.4307 31.5102C60.7859 31.5102 60.1997 31.0464 60.0238 30.4088C59.848 29.6552 60.3169 28.9016 61.079 28.7277C61.6651 28.6118 62.2513 28.4958 62.8375 28.3799C63.5996 28.264 64.3616 28.7277 64.4788 29.4813C64.5961 30.2349 64.1271 30.9885 63.3651 31.1044C62.7789 31.2204 62.2513 31.3363 61.7238 31.4522C61.6065 31.5102 61.4893 31.5102 61.4307 31.5102ZM80.892 31.3943C80.7747 31.3943 80.7161 31.3943 80.5989 31.3363C80.0713 31.2203 79.4851 31.1044 78.899 31.0464C78.1369 30.9305 77.6094 30.1769 77.7266 29.4233C77.8438 28.6698 78.6059 28.148 79.3679 28.264C79.9541 28.3799 80.5403 28.4958 81.1265 28.6118C81.8885 28.7857 82.3574 29.5393 82.2402 30.2929C82.123 30.9305 81.5368 31.3943 80.892 31.3943ZM70.2821 30.4088C69.52 30.4088 68.8752 29.8291 68.8752 29.0176C68.8752 28.264 69.4614 27.6263 70.2821 27.5684C70.6924 27.5684 71.1027 27.5684 71.4544 27.5684C71.6889 27.5684 71.8648 27.5684 72.0992 27.5684C72.8613 27.5684 73.5061 28.206 73.5061 29.0176C73.5061 29.7711 72.8613 30.4088 72.0992 30.4088C71.4544 30.4088 70.8682 30.4088 70.2821 30.4088Z" fill="#97E6FF"/>
<path d="M62.6035 112.491C68.1136 111.389 71.6893 107.042 73.0375 101.709C74.5616 95.6221 74.5616 59.0443 73.0375 48.668C72.2169 43.219 68.055 39.1612 62.6035 37.8859C54.0452 35.915 37.7493 35.915 28.6048 37.8859C23.0947 39.0453 18.9914 43.219 18.1707 48.668C16.588 58.9863 16.8811 95.3323 18.1707 101.709C19.2845 107.1 23.0947 111.389 28.6048 112.491C36.9872 114.172 54.2797 114.172 62.6035 112.491Z" fill="#4386EB"/>
<path d="M59.3209 100.666C64.0103 100.028 67.6447 97.1874 68.1722 93.6514C69.6377 83.9707 69.6377 59.1604 68.1722 49.4797C67.6447 45.9436 63.9517 43.3351 59.3209 42.4656C50.8798 40.9004 39.8595 41.0743 31.8874 42.4656C27.198 43.2771 23.5636 45.9436 23.0361 49.4797C21.5706 58.9865 21.6878 88.1444 23.0361 93.6514C23.8567 97.1295 27.198 99.9699 31.8874 100.666C37.8079 101.535 52.8728 101.535 59.3209 100.666Z" fill="#9EDFFF"/>
<path d="M20.8077 71.6247C20.3974 69.6538 20.2802 68.8422 18.4044 67.2771C16.5872 65.7699 16.6458 65.9438 15.8838 64.7265C15.8838 64.7265 15.1804 63.857 14.7114 64.9004C14.2425 65.8858 15.2976 67.393 15.2976 67.393C15.2976 67.393 10.7254 64.9584 9.14267 64.3787C9.14267 64.3787 8.08754 64.2048 8.14616 64.9584C8.2634 65.8279 11.8391 67.7988 11.8391 67.7988C11.8391 67.7988 8.43925 66.4655 7.73583 66.4076C7.03241 66.3496 6.73932 66.7554 6.73932 67.0452C6.73932 67.335 6.91517 68.0307 8.55649 68.6683C8.55649 68.6683 11.6633 69.8856 12.4253 70.2914C12.4253 70.2914 8.20478 69.0741 7.38412 69.1321C6.50485 69.19 6.56346 69.7117 6.62208 69.9436C6.6807 70.1755 6.85656 70.6392 8.02892 70.987C9.20129 71.3348 10.6081 71.8566 12.3667 72.3203C12.3667 72.3203 9.8461 72.2623 9.02544 72.6101C8.20478 72.9579 8.20478 73.6536 8.67373 73.8854C9.14267 74.1173 10.5495 74.0593 11.4288 74.1173C12.4839 74.1753 12.4253 73.8854 13.3632 74.4651C14.5942 75.1607 15.8252 75.5085 17.232 75.5665C17.232 75.5665 20.0457 82.5227 20.925 82.9285C21.8043 83.3342 27.3144 83.3342 26.8454 81.7111C26.2006 79.7982 21.3353 74.1173 20.8077 71.6247Z" fill="#F9D1AF"/>
<path d="M15.7662 68.6684C15.5904 69.5379 15.7662 70.5813 15.7662 70.5813C16.1179 72.6682 16.9386 72.7261 16.9386 72.7261C15.7076 70.8132 16.4696 68.5524 16.4696 68.5524C15.8835 68.0887 15.4731 67.625 15.18 67.2771C15.2387 67.3931 15.2973 67.451 15.2973 67.451C15.2973 67.451 14.9456 67.2771 14.3594 66.9873C14.9456 67.9148 15.7662 68.6684 15.7662 68.6684Z" fill="#F9BF8E"/>
<path d="M13.0112 73.3054C13.0112 71.3925 13.5388 68.3202 13.5388 68.3202C12.5423 67.9144 10.7837 67.1028 10.1976 66.813C11.0768 67.3347 11.8389 67.7984 11.8389 67.7984C11.8389 67.7984 10.6665 67.3347 9.49414 66.9289C10.6079 67.5666 12.8354 68.61 12.8354 68.61C12.2492 72.6678 13.0112 73.3054 13.0112 73.3054Z" fill="#F9BF8E"/>
<path d="M11.722 70.1173C11.722 70.1173 12.2496 70.2332 12.953 70.523V71.0448C12.953 71.0448 11.5462 70.4071 10.8428 69.9434L11.722 70.1173Z" fill="#F9BF8E"/>
<path d="M11.5461 72.3203C11.5461 72.3203 12.3081 72.3203 12.8943 72.3783C12.8943 72.3783 12.8943 72.9 12.8357 72.9C12.7771 72.9 11.0771 72.3203 11.0771 72.3203H11.5461Z" fill="#F9BF8E"/>
<path d="M41.7939 65.1897C44.2559 67.5664 44.4903 69.0736 38.5113 76.3196C34.2321 81.4787 28.0186 90.8696 24.2084 86.9857C20.9844 83.7395 27.1393 76.6094 33.177 69.3634C37.4561 64.2043 40.2112 63.6825 41.7939 65.1897Z" fill="#F89C05"/>
<path d="M28.1352 87.1596C26.2008 88.6088 24.0319 87.8552 19.7528 83.0438C18.346 81.4207 15.7667 78.0586 15.415 76.4934C15.415 76.4934 16.2943 75.0442 18.1701 73.711C19.2839 72.8994 21.1596 71.4502 22.0389 71.9719C22.0389 71.9719 25.4974 76.3195 26.787 77.8267C32.0627 83.8554 30.0696 85.7683 28.1352 87.1596Z" fill="#F89C05"/>
<path d="M33.7041 82.2324C33.7041 82.2324 33.2351 80.0876 33.8799 73.769C33.8799 73.769 31.4766 76.1457 32.4145 83.6816L33.7041 82.2324Z" fill="#EB8313"/>
<path d="M49.0621 65.3054C52.1103 63.7403 55.686 66.059 61.1961 74.6962C65.1235 80.8988 71.806 89.9418 66.8821 92.2606C62.7202 94.2315 56.2722 87.913 50.762 79.2177C46.8346 73.0152 47.1277 66.2909 49.0621 65.3054Z" fill="#F89C05"/>
<path d="M58.5579 98.4058C58.2062 96.203 56.6821 92.8409 56.5062 89.5947C56.389 86.9861 56.5648 82.6385 56.5648 79.856C56.5648 77.0735 56.2131 73.4216 55.5097 71.0449C53.7512 64.9003 49.941 63.1032 45.4273 62.9873C45.3687 62.9873 44.9584 62.9873 44.9584 62.9873C44.8412 62.9873 44.1377 63.0453 44.1377 63.0453C39.9758 63.3931 36.4001 65.2481 34.7002 71.1028C33.9968 73.4795 33.645 77.1315 33.645 79.914C33.645 82.6964 33.8795 87.0441 33.7037 89.6526C33.5278 92.8988 32.0037 96.261 31.652 98.4638C31.5348 99.1014 31.5348 99.6811 31.7106 100.087C31.8865 100.493 32.4141 100.84 33.1761 101.072C36.0484 101.942 42.2033 102.232 44.8998 102.232C44.9584 102.232 44.9584 102.232 45.017 102.232C45.0756 102.232 45.0756 102.232 45.1343 102.232C47.8307 102.232 53.9856 101.942 56.8579 101.072C57.62 100.84 58.1475 100.551 58.3234 100.087C58.6751 99.6231 58.6751 99.1014 58.5579 98.4058Z" fill="#EAF0F4"/>
<path d="M39.0967 64.6098L39.1557 64.5518C39.1557 64.5518 39.1557 64.5518 39.0967 64.6098Z" fill="#E1E8EB"/>
<path d="M39.6826 64.2617C39.7412 64.2617 39.7999 64.2041 39.8585 64.2041C39.7999 64.2041 39.7412 64.2041 39.6826 64.2617Z" fill="#E1E8EB"/>
<path d="M40.5032 63.9141C40.3859 65.2473 40.1514 67.3342 39.9756 69.7689C40.5032 70.1167 41.0893 70.3485 41.7341 70.3485C41.8514 70.3485 41.9686 70.3485 42.1445 70.2906C43.3755 70.1167 44.6064 68.2037 45.2512 67.1603C45.896 68.2617 47.1857 70.1167 48.358 70.2906C48.4753 70.2906 48.5925 70.3485 48.7683 70.3485C49.3545 70.3485 49.8821 70.1746 50.4097 69.8268C50.2338 67.3922 49.9993 65.3053 49.8821 63.9141C49.4132 63.7402 49.4718 63.6242 49.0028 63.5083C48.8856 63.7402 48.7683 64.4358 48.0649 64.8416C47.127 65.4212 45.6616 66.0589 45.3099 66.2328C44.9581 66.0589 44.0789 66.0589 43.141 65.4792C42.3789 65.0155 41.7928 63.9141 41.6755 63.6822C41.0307 63.7981 40.9721 63.6822 40.5032 63.9141C40.4445 63.9141 40.4445 63.9141 40.5032 63.9141Z" fill="#C3CFD5"/>
<path d="M40.1526 67.7397C40.1526 67.7397 38.6871 72.2613 39.4491 84.7244C39.4491 84.7244 39.8595 74.0003 40.856 68.6672L40.1526 67.7397Z" fill="#C3CFD5"/>
<path d="M49.2964 64.2623C49.2964 63.6826 48.6516 63.3348 47.7137 63.1029C47.7137 62.4073 47.6551 61.7696 47.6551 61.4218C47.6551 59.277 46.4828 58.5234 45.0759 58.5234C43.6691 58.5234 42.4967 59.277 42.4967 61.4218C42.4967 61.7696 42.4967 62.4653 42.4967 63.1609C41.6174 63.3927 41.0312 63.7406 41.0312 64.2043C41.0312 65.5376 42.7898 65.9433 44.7828 66.1752C44.9001 66.1752 45.0173 66.1752 45.1345 66.1752C45.2518 66.1752 45.369 66.1752 45.4276 66.1752C47.5965 66.0593 49.2964 65.6535 49.2964 64.2623Z" fill="#F5C6A2"/>
<path d="M39.5071 96.7243C39.8588 90 39.3898 88.0291 39.3898 80.6671C39.3898 74.9283 40.0932 67.2185 40.445 64.0303C37.7485 65.0737 35.3452 67.0446 34.1142 71.1024C33.4107 73.4791 33.1177 76.8412 33.1177 79.6237C33.1177 82.4062 33.528 87.1595 33.4107 89.7681C33.2349 92.9563 31.5936 96.3765 31.2419 98.5213C31.1246 99.1589 31.1246 99.7386 31.3005 100.144C31.4763 100.55 32.0625 100.898 32.8832 101.13C34.4073 101.536 36.6934 101.825 39.0381 101.999L39.1554 101.941C39.5071 100.782 39.5071 96.7243 39.5071 96.7243Z" fill="#F89C05"/>
<path d="M50.7621 96.724C50.4104 89.9997 50.8207 88.0288 50.8207 80.6089C50.8207 74.8121 50.1173 67.1603 49.8242 63.9141C52.3448 64.9575 54.3965 67.1023 55.5688 71.1601C56.2722 73.5368 56.624 77.1888 56.624 79.9712C56.624 82.7537 56.3895 87.1013 56.5653 89.7099C56.7412 92.9561 58.2653 96.3182 58.617 98.521C58.7342 99.1587 58.7342 99.7384 58.5584 100.144C58.3825 100.55 57.8549 100.898 57.0929 101.13C55.6861 101.535 53.4586 101.825 51.2311 101.999L51.1138 101.941C50.7621 100.782 50.7621 96.724 50.7621 96.724Z" fill="#F89C05"/>
<path d="M49.9417 67.7397C49.9417 67.7397 51.4072 72.2613 50.6451 84.7244C50.6451 84.7244 50.2348 74.0003 49.2383 68.6672L49.9417 67.7397Z" fill="#C3CFD5"/>
<path d="M40.4448 63.9146C40.269 63.9725 37.6312 65.1319 37.5139 65.3058C37.4553 65.3638 36.9277 65.6536 36.9277 65.6536C37.3381 66.5811 38.6277 68.8418 39.9759 69.7114C40.1518 67.3347 40.3276 65.2478 40.4448 63.9146Z" fill="#E18055"/>
<path d="M49.8242 63.9146C49.9415 65.2478 50.1759 67.3926 50.3518 69.8273C51.7 69.0158 53.1655 66.813 53.5172 65.7116C53.3999 65.5956 52.8138 65.2478 52.8138 65.2478C51.8759 64.6681 50.8207 64.3203 49.8242 63.9146Z" fill="#E18055"/>
<path d="M41.1486 63.3348C41.2658 63.2768 41.4417 63.3927 41.5003 63.5087C41.6761 63.8565 42.0278 64.3782 42.9071 64.9579C44.2553 65.7694 45.1932 66.2332 45.1932 66.2332C45.1932 66.2332 43.4347 69.6533 42.0278 69.8852C39.7417 70.233 37.8073 66.7549 37.4556 65.6535C37.397 65.4796 37.4556 65.2477 37.5729 65.0738C38.0418 64.668 39.0969 63.8565 41.1486 63.3348Z" fill="#EAF0F4"/>
<path d="M49.2966 63.3348C49.1794 63.2768 49.0035 63.3927 48.9449 63.5087C48.7691 63.8565 48.4173 64.3782 47.5381 64.9579C46.1898 65.7694 45.252 66.2332 45.252 66.2332C45.252 66.2332 47.0105 69.6533 48.4173 69.8852C50.7035 70.233 52.6379 66.7549 52.9896 65.6535C53.0482 65.4796 52.9896 65.2477 52.8723 65.0738C52.462 64.668 51.3483 63.8565 49.2966 63.3348Z" fill="#EAF0F4"/>
<path d="M26.6108 77.5947C26.6108 77.5947 25.3212 79.3337 24.8523 80.2612C24.8523 80.2612 24.2074 79.7975 25.7315 76.5513L26.6108 77.5947Z" fill="#EB8313"/>
<path d="M32.59 93.8257C32.59 93.8257 34.6417 94.9271 37.3381 94.7532C37.514 94.7532 37.6312 94.8691 37.6312 95.043L37.5726 96.0285C37.5726 96.1444 37.4553 96.2604 37.3381 96.2604C36.5761 96.2604 34.0555 96.1444 32.2383 95.2749C32.1797 95.2169 32.1211 94.8691 32.59 93.8257Z" fill="#E87F23"/>
<path d="M57.3859 93.8257C57.3859 93.8257 55.3343 94.9271 52.6378 94.7532C52.462 94.7532 52.3447 94.8691 52.3447 95.043L52.4033 96.0285C52.4033 96.1444 52.5206 96.2604 52.6378 96.2604C53.3999 96.2604 55.9204 96.1444 57.7376 95.2749C57.7962 95.2169 57.8549 94.8691 57.3859 93.8257Z" fill="#E87F23"/>
<path d="M70.2228 65.8272C70.5745 65.7112 70.7503 65.2475 70.5745 64.9577C70.4573 64.6099 70.0469 64.4359 69.6952 64.4359C69.8711 64.262 69.7538 63.9722 69.578 63.8563C69.4021 63.7403 69.109 63.7983 68.9332 63.8563C68.9332 63.4505 68.5815 63.1606 68.1711 63.1606C59.3198 63.9142 56.7992 69.2473 56.7992 69.2473C50.058 66.5228 44.5479 70.2907 44.5479 70.2907C44.3134 70.4067 43.9617 70.5226 43.9617 70.9863C43.9617 71.1023 44.0204 71.2762 44.079 71.3342C43.7273 71.3342 43.2583 71.8559 43.3756 72.2037C43.3756 72.2616 43.3756 72.2616 43.3756 72.3196C43.3756 72.3776 43.3169 72.3776 43.2583 72.4355C42.9652 72.6095 42.848 72.8413 42.7894 73.0732C42.6721 73.5369 42.9066 73.5949 43.0825 73.7109C43.4928 73.8848 44.0204 73.5369 44.4893 73.421C47.5375 72.5515 50.7029 72.1457 53.8682 72.3196C54.6889 72.3776 55.5682 72.4356 56.3888 72.3196C57.7371 72.1457 58.968 71.4501 60.199 70.8124C63.5403 68.9575 66.7057 66.9865 70.2228 65.8272Z" fill="#F2FAFF" stroke="#E5EAE4" stroke-width="1.15466" stroke-miterlimit="10" stroke-linecap="round" stroke-linejoin="round"/>
<path d="M58.7332 70.0007C58.7332 70.0007 61.4296 66.5805 69.9879 64.9574C69.9879 64.9574 71.2189 64.4357 71.3948 65.9429C71.5706 67.3921 73.6809 83.913 73.6809 84.3767C73.6809 84.8405 73.4464 85.0723 73.0361 85.3042C72.6257 85.5361 69.7534 85.8839 62.4261 88.2026C62.4261 88.2026 61.6641 89.7678 58.909 89.304C58.909 89.304 50.2335 90.3474 47.4198 91.7387C47.4198 91.7387 46.5992 91.9706 46.4819 90.9271C46.3647 89.8837 42.6131 74.3483 42.6131 74.3483C42.6131 74.3483 42.5545 73.5367 43.4338 73.015C44.7234 72.2614 48.9439 69.9427 55.685 70.9281C55.685 70.8702 57.7367 70.8122 58.7332 70.0007Z" fill="#1789D9"/>
<path d="M58.7337 70.0013C57.7372 70.8128 55.6856 70.8708 55.6856 70.8708H55.627L58.9096 89.2467C61.6646 89.7684 62.3681 88.1453 62.3681 88.1453C62.3681 88.1453 62.3681 88.1453 62.4267 88.1453C61.8405 84.7831 59.7889 73.9431 59.0268 69.7114C58.851 69.8853 58.7337 70.0013 58.7337 70.0013Z" fill="#2672C9"/>
<path d="M42.731 74.406C42.6724 74.406 42.6138 74.406 42.5552 74.3481C42.3793 74.2321 42.3207 74.0582 42.4379 73.8843C43.2586 72.4351 48.8274 69.5367 55.6857 70.5222C55.9202 70.5222 57.6201 70.4062 58.4994 69.7686C58.8511 69.4208 61.8993 66.1746 70.7506 64.7833C70.9265 64.7254 71.1023 64.8993 71.161 65.0732C71.2196 65.2471 71.0437 65.421 70.8679 65.479C61.8993 66.9282 59.027 70.2323 59.027 70.2903L58.9683 70.3483C57.8546 71.2178 55.8029 71.2758 55.7443 71.2758H55.6857C48.7687 70.2903 43.6689 73.3046 43.0827 74.3481C42.9655 74.3481 42.8483 74.406 42.731 74.406Z" fill="#2672C9"/>
<path d="M61.7238 70.9285C62.7789 70.2909 66.0029 68.6098 69.0511 68.3779C69.4028 68.3779 69.6959 68.5518 69.7545 68.8996L70.1648 71.798C70.2234 72.0879 69.9889 72.3777 69.6959 72.4357C68.5235 72.6676 65.7098 73.3052 62.9547 74.8124C62.603 75.0443 62.0755 74.8124 62.0168 74.4066L61.4307 71.5082C61.4307 71.2763 61.4893 71.0445 61.7238 70.9285Z" fill="#EAE56C"/>
<path d="M66.7069 83.8553C66.3551 82.9279 65.5345 82.2902 64.4794 82.1163C63.307 81.8844 61.8415 81.9424 60.845 82.58C60.5519 82.7539 60.2588 82.9858 60.1416 83.3336C60.083 83.6814 60.3174 84.0872 60.6105 84.0292C60.6105 84.0292 59.5554 84.435 59.7313 85.1306C59.9071 85.8263 60.7864 85.9422 60.7864 85.9422C60.7864 85.9422 59.6726 85.8842 59.614 86.7537C59.5554 87.6233 61.0209 87.7972 61.0209 87.7972C61.0209 87.7972 60.083 87.6812 60.0243 88.4348C59.9657 88.9565 60.7278 89.1304 62.0174 89.7101C62.0174 89.7101 62.4863 89.942 62.7208 90.4057C62.7208 90.4057 63.307 91.3332 64.538 91.797C65.2414 92.0868 66.4138 91.9129 67.1172 90.7535C67.5861 89.942 67.5861 89.0725 67.5275 87.5073C67.5861 86.0002 66.7069 83.8553 66.7069 83.8553Z" fill="#FCE3CB"/>
<path d="M60.6699 85.9426C60.7872 85.9426 60.8458 85.9426 60.8458 85.9426C60.8458 85.9426 60.7872 85.9426 60.7285 85.9426C60.6699 85.8839 60.6699 85.9426 60.6699 85.9426Z" fill="#F5B17E"/>
<path d="M62.8966 83.5655C64.069 83.5655 64.7138 83.7974 64.7138 83.7974C64.7138 83.7974 64.5966 83.2756 63.4828 83.1597C62.7208 83.1017 61.1967 83.1597 60.2002 83.6814C60.2588 83.8553 60.4347 83.9713 60.6691 83.9713C60.6691 83.9713 60.6105 84.0292 60.4933 84.0872C60.4933 84.0872 61.7243 83.5655 62.8966 83.5655Z" fill="#F5C6A2"/>
<path d="M60.7278 85.884C60.9623 85.826 61.6071 85.768 62.4277 85.768C63.0725 85.768 64.069 85.826 64.8897 86.2898C64.8897 86.2898 64.7138 85.6521 63.7173 85.4202C62.9553 85.2463 61.4312 85.1884 60.1416 85.5941C60.3175 85.768 60.6105 85.884 60.7278 85.884Z" fill="#F5C6A2"/>
<path d="M64.2449 89.0144C64.2449 89.0144 64.1276 88.3188 63.4828 87.971C62.545 87.4493 61.2554 87.2174 60.1416 87.4493C60.5519 87.6811 61.0795 87.7971 61.0795 87.7971C61.0795 87.7971 60.9623 87.7971 60.845 87.7971C61.314 87.7971 62.6622 87.913 63.3656 88.3768C64.1277 88.7825 64.2449 89.0144 64.2449 89.0144Z" fill="#F5C6A2"/>
<path d="M58.2655 48.7268C62.5447 57.7118 52.1106 62.0014 47.1867 62.1753C35.1699 62.5232 33.1769 55.9728 33.1769 55.9728C33.1769 55.9728 31.3597 56.2626 30.4804 55.509C28.1943 53.4222 28.546 51.2194 29.7184 50.8716C30.7149 50.5238 32.4148 51.973 32.4148 51.973C32.4148 51.973 32.1217 51.3933 32.0045 51.1035C31.5355 50.2339 28.8391 45.3066 30.7735 39.7997C32.8838 33.829 39.2732 30.6987 44.9005 30.8146C50.0003 30.9306 55.6863 33.829 57.9138 39.162C59.3793 42.6981 58.6759 47.2776 58.2655 48.7268Z" fill="#FCE3CB"/>
<path d="M41.5 48.7849C41.5 49.8863 42.0862 51.1036 43.1999 51.1616C43.962 51.2195 44.6068 50.292 44.6654 49.1327C44.724 47.9733 44.0206 46.8719 43.2586 46.814C42.0276 46.756 41.5 47.7415 41.5 48.7849Z" fill="#574238"/>
<path d="M49.8242 48.2053C49.8242 49.3067 50.4104 50.524 51.5241 50.582C52.2862 50.6399 52.931 49.7125 52.9896 48.5531C53.0482 47.3937 52.3448 46.2923 51.5828 46.2344C50.3518 46.1764 49.8242 47.1619 49.8242 48.2053Z" fill="#574238"/>
<path d="M50.7622 54.9295C50.0001 55.1614 48.4175 55.6252 46.8934 55.5092C44.959 55.3353 42.497 53.5963 42.497 53.6542C42.1453 54.6397 43.259 58.2917 46.3658 58.5236C49.5898 58.8134 51.3484 54.7556 50.7622 54.9295Z" fill="#EB7485"/>
<path d="M48.5352 50.4082C49.0628 50.6401 49.3559 51.1618 49.2973 51.7415C49.2386 52.2052 48.8283 52.553 48.3594 52.669" stroke="#F4AC88" stroke-width="1.81334" stroke-miterlimit="10" stroke-linecap="round" stroke-linejoin="round"/>
<path d="M52.8722 42.8141C52.5791 42.2924 52.0515 42.0026 51.4653 42.0605C50.7033 42.1185 50.3516 42.8141 50.293 42.8721" stroke="#574238" stroke-width="0.912677" stroke-miterlimit="10" stroke-linecap="round" stroke-linejoin="round"/>
<path d="M43.3175 43.5675C43.0244 43.0458 42.4968 42.756 41.9107 42.814C41.1486 42.8719 40.7969 43.5675 40.7383 43.6255" stroke="#574238" stroke-width="0.912677" stroke-miterlimit="10" stroke-linecap="round" stroke-linejoin="round"/>
<path d="M42.8488 48.4951C43.0754 48.4951 43.2591 48.3135 43.2591 48.0894C43.2591 47.8653 43.0754 47.6836 42.8488 47.6836C42.6222 47.6836 42.4385 47.8653 42.4385 48.0894C42.4385 48.3135 42.6222 48.4951 42.8488 48.4951Z" fill="#F2FAFF"/>
<path d="M50.9377 48.0313C51.1643 48.0313 51.348 47.8496 51.348 47.6255C51.348 47.4014 51.1643 47.2197 50.9377 47.2197C50.7111 47.2197 50.5273 47.4014 50.5273 47.6255C50.5273 47.8496 50.7111 48.0313 50.9377 48.0313Z" fill="#F2FAFF"/>
<path d="M57.0735 53.8696C57.3138 52.8731 56.5641 51.8425 55.399 51.5676C54.2338 51.2928 53.0945 51.8779 52.8541 52.8744C52.6138 53.8709 53.3635 54.9015 54.5286 55.1763C55.6938 55.4511 56.8331 54.8661 57.0735 53.8696Z" fill="#F5BBA9"/>
<path d="M41.4338 54.3286C41.6742 53.332 40.9245 52.3014 39.7593 52.0266C38.5942 51.7518 37.4548 52.3368 37.2145 53.3334C36.9741 54.3299 37.7238 55.3605 38.889 55.6353C40.0541 55.9101 41.1935 55.3251 41.4338 54.3286Z" fill="#F5BBA9"/>
<path d="M24.0319 43.5675C24.2077 49.4222 25.3801 52.3207 25.556 58.0015C25.7904 64.2041 25.2043 63.6244 27.6662 63.5665C34.1143 63.3926 42.6139 62.0013 42.6139 62.0013C42.6139 62.0013 39.8589 61.4216 39.5658 61.3057C34.2901 59.5667 33.1764 56.0306 33.1764 56.0306C33.1764 56.0306 31.3592 56.3204 30.4799 55.5669C28.1938 53.48 28.5455 51.2772 29.7179 50.9294C30.3627 50.6975 31.1833 51.1613 31.7695 51.5671C32.2971 51.9728 32.766 52.4366 33.2936 52.9583C33.2936 52.9583 33.0005 51.8569 32.766 51.2193C32.6488 50.9294 32.5316 50.4657 32.4143 49.886C32.2971 48.2629 33.4108 46.8717 34.3487 46.0601C36.7521 43.9732 39.8002 43.0458 42.145 40.9009C43.8449 39.3358 45.369 37.4229 45.9552 35.2201C46.0724 35.394 46.131 35.5679 46.2483 35.7418C47.6551 38.0025 50.1757 39.7416 52.4032 41.0748C53.6342 41.8284 55.041 42.582 56.272 43.3356C57.0927 43.8573 58.6167 45.2485 58.6754 46.6398C58.5581 47.6252 58.3823 48.4368 58.265 48.9585C61.7821 56.3204 54.6893 60.726 49.5309 62.0593C49.4723 62.0593 61.8994 59.0449 61.6649 58.0595C61.0787 55.2191 60.0236 49.7121 60.5512 48.089C61.7235 44.437 62.0752 41.3067 60.8442 37.7127C58.6167 31.2203 52.5791 27.6263 45.9552 26.6988C40.6209 25.9452 34.8177 26.4669 30.3627 29.6551C25.9077 32.6695 23.856 38.1764 24.0319 43.5675Z" fill="#82512F"/>
<path d="M115.594 60.8995H95.7228C90.4471 60.8995 86.168 56.6678 86.168 51.4507V31.8575C86.168 26.6404 90.4471 22.4087 95.7228 22.4087H115.594C120.87 22.4087 125.149 26.6404 125.149 31.8575V51.4507C125.149 56.6678 120.87 60.8995 115.594 60.8995Z" fill="#FF9CEB"/>
<path d="M123.566 125.65H102.816C97.5399 125.65 93.2607 121.419 93.2607 116.202V96.5504C93.2607 91.3332 97.5399 87.1016 102.816 87.1016H123.566C128.842 87.1016 133.121 91.3332 133.121 96.5504V116.202C133.18 121.419 128.901 125.65 123.566 125.65Z" fill="#A5D42F"/>
<path d="M103.752 44.9006C102.404 44.147 100.763 44.3789 99.5904 44.9586C98.0078 45.7701 97.4802 47.3933 97.0112 48.8425C96.4837 50.4656 96.4837 51.7409 96.4837 52.2046C96.3664 53.9436 95.3699 56.4363 91.208 59.7984C92.5562 60.552 94.1389 60.9578 95.7802 60.9578H99.9422C101.115 59.8564 102.228 58.5811 103.225 57.1319C105.863 53.364 106.038 50.9293 105.98 49.654C105.863 48.5526 105.745 46.002 103.752 44.9006Z" fill="#FFD324"/>
<path d="M130.952 31.8584C130.541 32.0323 130.131 32.2642 130.131 32.2642C129.897 32.4381 129.603 32.612 129.369 32.7859C129.545 32.0903 129.721 31.4527 129.955 30.757C130.014 30.5252 130.131 30.2353 130.131 29.9455C130.131 29.4817 130.19 29.018 130.19 28.5543C130.19 27.3949 130.131 26.1776 129.897 25.0762C129.428 22.6415 128.431 20.3808 126.907 18.4098C123.331 13.8883 117.587 11.7435 112.018 10.9899C109.908 10.7001 99.3564 10.0624 94.6083 16.7867C93.5531 18.2359 93.0842 19.6851 92.7911 20.6706C93.0842 20.4967 93.4359 20.2068 93.4359 19.975C93.3773 19.3953 91.5601 18.9895 90.0947 18.9895C88.512 18.9316 88.1016 19.3373 86.4017 19.3953C85.2293 19.3953 84.2914 19.2794 83.6466 19.1055C83.2363 22.3517 84.8776 25.366 87.5155 26.4094C89.9774 27.4529 92.3808 26.3515 92.8497 26.1196C92.8497 25.308 92.9083 24.4965 92.9083 23.6849C92.5566 26.7572 93.2601 28.96 93.729 30.0614C95.0186 33.0758 97.3047 34.9887 99.7081 36.9596C100.47 37.5973 101.232 38.177 102.053 38.6987C103.518 39.6841 105.101 40.6116 106.742 41.3652C108.325 42.0608 109.966 42.5825 111.608 43.1042C112.018 43.2202 112.487 43.3941 112.897 43.452C114.597 43.7419 115.594 43.1042 117.235 42.7564C118.056 42.5825 119.287 42.4086 120.811 42.5825C121.69 42.3507 122.921 41.8869 124.093 40.9594C127.024 38.7566 127.669 35.5684 127.845 34.5829C129.017 38.8146 133.179 41.4811 137.224 40.9594C140.741 40.4957 143.672 37.6552 144.375 34.0033C141.855 34.3511 140.096 33.8873 138.924 33.4236C137.4 32.7859 137.224 32.1483 135.524 31.7425C133.062 31.0469 131.303 31.7425 130.952 31.8584Z" fill="#F18A00"/>
<path d="M120.224 59.741C120.107 59.2773 119.989 58.8715 119.931 58.4657C118.583 53.0747 117.586 49.0169 114.714 46.2345C113.248 44.8432 111.431 43.6839 109.262 42.8723C108.911 42.7564 108.559 42.6405 108.207 42.5825C106.683 42.1767 104.925 42.4666 103.459 43.2781C103.283 43.2201 102.58 43.1042 101.876 43.452C101.173 43.8578 100.704 44.6114 100.704 45.4809C99.7075 49.1909 98.8869 54.7558 100.176 60.9584H115.593C117.293 60.9004 118.817 60.4946 120.224 59.741Z" fill="#FFD324"/>
<path d="M108.677 60.9006C105.687 59.6833 104.046 56.7849 105.16 52.959C105.746 50.8721 105.687 49.1331 106.743 47.2781C107.68 45.7129 108.736 44.3217 110.084 43.1624C109.791 43.0464 109.498 42.9305 109.205 42.8145C108.853 42.6986 108.501 42.5827 108.149 42.5247C107.329 42.2928 106.391 42.2928 105.512 42.4667C105.512 42.5827 105.57 42.7566 105.57 42.8725C105.57 42.8725 105.57 42.9884 105.57 43.0464C105.57 43.2783 104.398 46.1767 102.815 50.1765C101.877 50.1185 100.939 50.0026 100.001 49.9446C100.412 48.3795 100.822 46.7564 101.232 45.1912C100.47 45.1333 99.767 45.0753 99.0049 44.9594C98.8877 45.7129 98.7118 46.9882 98.4774 48.4954C97.8912 52.5532 97.8325 54.0024 97.4222 56.611C97.2464 57.6544 97.0119 59.1036 96.6016 60.8426H108.677V60.9006Z" fill="#2779CC"/>
<path d="M111.9 46.7564C110.318 46.0028 108.442 46.4086 107.211 47.2202C105.511 48.3215 105.042 50.2345 104.69 52.0315C104.221 54.0024 104.339 55.5096 104.397 56.0313C104.456 57.3066 104.104 58.9297 102.814 60.9586H112.604C115.124 56.4371 115.066 53.5966 114.89 52.1474C114.655 50.8142 114.245 47.8578 111.9 46.7564Z" fill="#FFD324"/>
<path d="M93.1426 29.9457C86.2256 37.7714 95.4873 45.0754 100.411 46.6405C112.428 50.4084 116.355 44.3797 116.355 44.3797C116.355 44.3797 118.114 45.1913 119.169 44.6696C122.1 43.2204 122.335 40.9017 121.338 40.206C120.4 39.5684 118.29 40.5539 118.29 40.5539C118.29 40.5539 118.759 40.0901 118.935 39.8003C119.697 39.0467 123.8 34.815 123.39 28.7863C122.979 22.12 117.469 17.1927 111.725 15.7435C106.508 14.4102 99.9423 15.7435 96.1908 20.4389C93.7874 23.5692 93.2012 28.3806 93.1426 29.9457Z" fill="#FCD4B1"/>
<path d="M110.963 35.6262C110.611 36.9015 109.556 38.0608 108.266 37.8289C107.387 37.655 106.918 36.4377 107.27 35.0465C107.622 33.7132 108.794 32.6698 109.673 32.8437C111.021 33.1915 111.314 34.4668 110.963 35.6262Z" fill="#493529"/>
<path d="M101.701 32.3225C101.349 33.5977 100.294 34.7571 99.0046 34.5252C98.1253 34.3513 97.6564 33.134 98.0081 31.7428C98.3598 30.4095 99.5322 29.3661 100.411 29.54C101.701 29.8298 101.994 31.1051 101.701 32.3225Z" fill="#493529"/>
<path d="M98.9453 38.3513C99.6487 38.8151 101.114 39.6846 102.638 40.0324C104.631 40.4382 107.621 39.3368 107.621 39.3948C107.679 40.4962 105.511 43.8583 102.345 43.2207C99.0039 42.583 98.4177 38.0035 98.9453 38.3513Z" fill="#F6798D"/>
<path d="M102.522 34.4673C101.935 34.5253 101.466 34.989 101.408 35.5687C101.349 36.0324 101.642 36.4962 102.053 36.728" stroke="#FAAE8E" stroke-width="1.90123" stroke-miterlimit="10" stroke-linecap="round" stroke-linejoin="round"/>
<path d="M107.738 36.032C107.997 36.032 108.207 35.8244 108.207 35.5682C108.207 35.3121 107.997 35.1045 107.738 35.1045C107.479 35.1045 107.27 35.3121 107.27 35.5682C107.27 35.8244 107.479 36.032 107.738 36.032Z" fill="#F2FAFF"/>
<path d="M98.6525 32.844C98.9115 32.844 99.1215 32.6364 99.1215 32.3802C99.1215 32.1241 98.9115 31.9165 98.6525 31.9165C98.3936 31.9165 98.1836 32.1241 98.1836 32.3802C98.1836 32.6364 98.3936 32.844 98.6525 32.844Z" fill="#F2FAFF"/>
<path d="M97.4745 35.6756C97.5216 34.5881 96.5371 33.6633 95.2756 33.6099C94.0141 33.5566 92.9534 34.395 92.9064 35.4825C92.8594 36.57 93.8439 37.4949 95.1054 37.5482C96.3668 37.6015 97.4275 36.7632 97.4745 35.6756Z" fill="#F5BAAB"/>
<path d="M113.09 40.6166C113.137 39.529 112.152 38.6042 110.891 38.5509C109.629 38.4975 108.569 39.3359 108.522 40.4234C108.475 41.511 109.459 42.4358 110.721 42.4891C111.982 42.5425 113.043 41.7041 113.09 40.6166Z" fill="#F5BAAB"/>
<path d="M102.17 14.8159C99.8835 15.9753 97.656 17.0767 95.3699 18.236C94.7837 20.4388 94.1975 22.6416 93.6113 24.8444L100.763 27.2211L101.994 26.4095L102.228 27.7428L109.79 30.1195L110.904 29.0181L111.08 30.5253C116.121 32.0324 121.162 33.5976 126.262 35.1047C125.676 30.6412 125.089 26.2356 124.503 21.7721C123.565 20.2649 121.396 17.1346 117.293 15.1057C110.2 11.6856 103.342 14.3522 102.17 14.8159Z" fill="#F18A00"/>
<path d="M102.932 15.6851C103.284 15.3952 102.932 14.7576 102.522 15.0474C101.232 15.9749 100.06 17.0184 99.2975 18.4676C98.5941 19.8008 98.1837 21.366 98.5355 22.8731C98.6527 23.3369 99.3561 23.105 99.2389 22.6413C98.8872 21.308 99.3561 19.8588 100.001 18.6994C100.763 17.4241 101.818 16.4966 102.932 15.6851Z" fill="#EE7504"/>
<path d="M115.183 27.1631C114.714 26.1776 114.479 25.0762 114.538 24.0328C114.597 22.8155 115.124 21.6561 115.652 20.6127C115.886 20.2069 115.183 19.8591 115.007 20.2649C114.421 21.4822 113.893 22.7575 113.835 24.0908C113.776 25.3081 114.069 26.5254 114.597 27.6268C114.772 27.9166 115.359 27.5688 115.183 27.1631Z" fill="#EE7504"/>
<path d="M107.797 24.9603C107.445 23.9169 107.328 22.8155 107.504 21.7721C107.738 20.5547 108.324 19.5113 108.969 18.4679C109.204 18.0621 108.618 17.6563 108.383 18.0621C107.621 19.2215 106.976 20.3808 106.742 21.7141C106.507 22.9314 106.683 24.1488 107.093 25.3081C107.269 25.7139 107.973 25.3661 107.797 24.9603Z" fill="#EE7504"/>
<path d="M127.435 34.6413C127.552 34.6413 127.669 34.6413 127.787 34.5253C128.08 34.2935 127.962 34.0616 127.787 33.8297C127.552 33.4819 127.493 33.0182 127.435 32.6124C127.318 32.1486 127.2 31.6849 127.142 31.2211C127.025 30.4676 127.025 29.714 127.142 28.9604C127.2 28.4966 126.497 28.3227 126.438 28.7865C126.204 29.8879 126.321 31.0472 126.556 32.1486C126.614 32.6124 126.79 33.0761 126.849 33.5399C126.907 33.7717 126.849 34.0616 126.966 34.2935C126.966 34.4094 127.2 34.5833 127.435 34.6413Z" fill="#EE7504"/>
<path d="M122.569 37.9451C122.276 36.7277 122.628 35.5104 122.921 34.351C123.156 33.1917 123.214 32.0903 123.097 30.9309C122.745 28.7281 121.807 26.5253 122.042 24.2646C122.101 23.8008 121.397 23.6269 121.339 24.0907C121.045 26.4674 122.042 28.6702 122.335 30.9889C122.511 32.2062 122.394 33.3656 122.101 34.5829C121.807 35.8002 121.573 36.9596 121.866 38.1769C121.925 38.6407 122.628 38.4088 122.569 37.9451Z" fill="#EE7504"/>
<path d="M51.9346 109.651H39.3903C38.5696 109.651 37.8662 108.956 37.8662 108.144V106.927C37.8662 106.115 38.5696 105.419 39.3903 105.419H51.9346C52.7553 105.419 53.4587 106.115 53.4587 106.927V108.144C53.4587 109.013 52.7553 109.651 51.9346 109.651Z" fill="#3F6BDE"/>
<path d="M125.208 116.723C118.584 117.477 112.136 116.433 105.629 117.941C103.988 118.346 104.691 123.39 105.102 125.65H123.566C126.908 125.65 129.839 123.969 131.539 121.361C131.187 119.332 127.611 116.491 125.208 116.723Z" fill="#FA8E28"/>
<path d="M101.467 100.202C101.233 99.5068 101.233 98.8112 101.585 98.1735C101.995 97.362 102.874 96.7823 103.695 96.6663C107.857 92.7825 113.074 91.3333 116.708 90.8116C117.353 90.6956 117.998 90.6956 118.643 90.6956C118.701 90.2899 118.818 89.9421 119.053 89.5942C119.405 88.9566 119.991 88.4928 120.694 88.261C121.398 88.0871 122.101 88.145 122.687 88.4928C122.922 88.6088 123.098 88.7827 123.332 88.9566C124.153 88.4928 125.149 88.4349 125.97 88.8986C127.259 89.5942 127.728 91.2173 127.025 92.5506C126.966 92.6086 126.908 92.7245 126.908 92.7825C127.377 93.0723 127.846 93.3622 128.315 93.652C131.89 96.2606 134.059 99.7966 134.821 101.188C135.759 102.869 136.345 104.086 136.756 105.13C136.99 105.13 137.225 105.13 137.459 105.188C138.162 105.362 138.749 105.767 139.1 106.405C139.452 107.043 139.569 107.738 139.393 108.434C139.159 109.361 138.456 110.115 137.576 110.405C137.576 110.695 137.576 110.984 137.518 111.216C137.166 112.55 135.935 113.419 134.645 113.303C134.352 113.767 133.766 114.926 133.239 116.491C133.004 117.071 132.945 117.651 132.828 118.346C132.711 119.216 132.594 120.143 132.125 120.955C130.894 123.216 127.259 126.578 116.532 124.375C115.887 124.259 115.243 124.085 114.598 123.911C105.453 121.651 100.823 118.115 100.764 113.361C100.764 112.434 101.057 111.564 101.292 110.695C101.467 110.057 101.702 109.477 101.76 108.898C101.995 107.101 101.995 105.13 101.936 104.55C101.409 104.144 100.881 103.623 100.764 102.289C100.647 101.42 100.94 100.666 101.467 100.202Z" fill="#FCDB50"/>
<path d="M101.35 111.101C101.585 110.753 101.819 110.405 102.112 109.825C103.636 105.014 105.805 103.217 109.205 104.145C110.319 104.434 111.081 105.478 111.55 106.289C112.253 107.449 112.605 109.652 111.198 113.246L111.55 114.115L113.367 114.521C113.308 114.521 114.598 111.738 114.715 111.507C115.888 109.42 117.588 107.275 120.167 107.101C122.453 106.927 124.68 108.434 125.794 110.347C126.908 112.144 127.025 114.405 126.615 116.434C126.615 116.666 126.732 117.013 126.908 117.419C127.318 118.347 127.846 119.68 126.966 121.419C125.325 124.607 121.163 125.709 115.126 124.491C114.598 124.375 114.07 124.259 113.543 124.144C106.978 122.462 99.5917 118.637 100.412 113.361C100.588 112.202 100.94 111.68 101.35 111.101Z" fill="#FFF9BF"/>
<path d="M108.736 108.724C107.916 107.507 106.274 107.275 105.043 108.202C103.871 109.13 103.578 110.927 104.399 112.144C105.219 113.362 106.861 113.593 108.092 112.666C109.323 111.738 109.616 109.999 108.736 108.724Z" fill="url(#paint0_radial_10529_5794)"/>
<path d="M106.684 109.593C106.567 109.999 106.157 110.289 105.805 110.173C105.394 110.057 105.16 109.651 105.277 109.246C105.394 108.84 105.805 108.55 106.157 108.666C106.567 108.724 106.801 109.13 106.684 109.593Z" fill="#F2FAFF"/>
<path d="M122.277 112.376C121.339 111.043 119.463 110.695 118.115 111.622C116.767 112.55 116.415 114.405 117.353 115.738C118.291 117.071 120.166 117.419 121.515 116.492C122.863 115.564 123.215 113.709 122.277 112.376Z" fill="url(#paint1_radial_10529_5794)"/>
<path d="M119.639 113.245C119.522 113.709 119.053 113.941 118.584 113.825C118.115 113.709 117.88 113.245 117.998 112.782C118.115 112.318 118.584 112.086 119.053 112.202C119.522 112.318 119.756 112.782 119.639 113.245Z" fill="#F2FAFF"/>
<path d="M111.55 113.419C111.257 113.361 110.026 113.245 109.616 114.463C109.322 115.332 109.733 116.55 110.495 117.071C111.843 117.999 113.074 116.781 114.012 115.97C114.481 115.564 114.364 115.738 114.305 115.332C114.246 114.579 113.133 113.825 111.55 113.419Z" fill="#F3A001"/>
<path d="M108.795 113.825C108.912 113.014 109.733 112.782 110.319 112.898C112.019 111.796 113.074 112.666 113.778 114.057C114.95 114.347 115.419 115.275 114.95 115.912C114.54 116.492 113.895 116.55 113.133 116.028C112.488 115.622 111.785 115.159 111.199 114.985C110.436 114.753 110.026 114.927 109.323 114.695C108.912 114.579 108.737 114.115 108.795 113.825Z" fill="#F3A001"/>
<path d="M109.733 114.926L109.791 114.984C109.909 115.042 110.084 115.042 110.202 114.984C110.26 114.984 110.378 114.984 110.436 114.926C110.495 114.926 110.553 114.926 110.671 114.926C110.964 114.984 111.257 115.042 111.55 115.216C111.667 115.274 111.784 115.39 111.96 115.506C112.077 115.622 112.253 115.68 112.371 115.796C112.605 115.97 112.898 116.086 113.133 116.202C113.191 116.202 113.25 116.26 113.308 116.26C113.426 116.26 113.426 116.086 113.367 116.028C113.308 115.97 113.191 115.912 113.074 115.854C112.898 115.738 112.722 115.622 112.546 115.506C112.429 115.39 112.253 115.332 112.136 115.216C112.019 115.1 111.902 114.984 111.726 114.926C111.433 114.753 111.081 114.637 110.729 114.579C110.612 114.579 110.553 114.579 110.436 114.579C110.319 114.579 110.26 114.637 110.202 114.637C110.143 114.637 110.026 114.637 109.967 114.695C109.909 114.695 109.791 114.695 109.733 114.695C109.615 114.753 109.674 114.868 109.733 114.926Z" fill="#EC7C03"/>
<path d="M99.1813 121.998C98.4778 122.809 98.0089 123.505 97.7744 124.201C99.2399 125.128 100.998 125.708 102.933 125.708H105.864C105.981 124.954 105.805 124.433 105.805 124.433C107.974 122.925 109.498 120.317 107.622 118.578C106.04 116.955 103.343 117.36 99.1813 121.998Z" fill="#FCDB50"/>
</g>
<defs>
<radialGradient id="paint0_radial_10529_5794" cx="0" cy="0" r="1" gradientUnits="userSpaceOnUse" gradientTransform="translate(106.612 110.463) rotate(-168.617) scale(2.74509 2.717)">
<stop stop-color="#801400"/>
<stop offset="0.6058" stop-color="#7B1400"/>
<stop offset="0.999" stop-color="#741500"/>
</radialGradient>
<radialGradient id="paint1_radial_10529_5794" cx="0" cy="0" r="1" gradientUnits="userSpaceOnUse" gradientTransform="translate(119.809 114.087) rotate(-168.617) scale(2.99609 2.96545)">
<stop stop-color="#801400"/>
<stop offset="0.6058" stop-color="#7B1400"/>
<stop offset="0.999" stop-color="#741500"/>
</radialGradient>
<clipPath id="clip0_10529_5794">
<rect width="150.592" height="125.42" fill="white" transform="translate(0.204102)"/>
</clipPath>
</defs>
</svg>
