<svg width="42" height="42" viewBox="0 0 42 42" fill="none" xmlns="http://www.w3.org/2000/svg">
<path d="M21 42C32.55 42 42 32.55 42 21C42 9.45 32.55 0 21 0C9.45 0 0 9.45 0 21C0 32.55 9.45 42 21 42Z" fill="#95B0E5"/>
<path d="M26.2509 30.1875C25.2009 28.2187 23.2321 26.6437 21.7883 25.725C20.2133 24.675 18.9009 22.9687 20.2134 21.1312C21.9197 18.6375 21.7884 15.75 20.7384 14.0437C19.9509 12.7312 18.5072 11.9437 16.9322 11.9437C15.3572 11.9437 13.9134 12.7312 13.1259 14.0437C12.0759 15.75 11.9446 18.6375 13.5196 21C14.0446 21.6562 14.8321 22.7062 14.1759 23.4937C13.6509 24.0187 13.1259 24.4125 12.4696 24.8062C12.3384 24.9375 12.0758 24.9375 11.9446 25.0687C10.6321 25.725 8.53216 26.5125 9.05716 27.6937C10.5009 30.975 17.3259 33.4687 22.9696 32.4187C22.8384 32.4187 27.0384 31.7625 26.2509 30.1875Z" fill="white"/>
<path d="M29.7932 31.1063C31.4994 31.1063 33.4681 29.6626 33.5994 27.8251C33.7306 26.5126 31.7619 26.2501 30.9744 25.8563C29.3994 25.2001 29.0056 24.5438 29.9244 23.1001C31.2369 21.0001 31.4994 19.1626 30.5806 17.7188C29.9244 16.5376 28.7431 15.8813 27.2994 15.8813C25.9869 15.8813 24.8056 16.5376 24.0181 17.7188C23.0994 19.1626 23.2306 21.1313 24.6744 23.1001C25.7244 24.4126 24.8057 24.9376 23.8869 25.3313C23.6244 25.4626 23.6244 25.7251 23.8869 25.7251C25.5932 26.9063 26.9056 28.3501 27.5619 29.9251C27.9556 30.7126 28.6119 31.1063 29.3994 31.1063C29.5307 31.1063 29.7932 31.1063 29.7932 31.1063Z" fill="white"/>
</svg>
