<svg width="225" height="181" viewBox="0 0 225 181" fill="none" xmlns="http://www.w3.org/2000/svg">
<path d="M22.9655 8.83199C22.5815 7.42399 22.7094 6.27199 23.2214 5.24799C23.7334 4.22399 24.7575 3.584 26.1655 3.2L33.8455 1.02398C36.2775 0.383984 38.4535 0 40.2455 0C42.0375 0 43.7014 0.128 44.9814 0.64C46.2614 1.152 47.2855 1.792 48.0535 2.56C48.8215 3.456 49.3335 4.35198 49.7175 5.50398C49.9735 6.39998 50.1014 7.16798 50.1014 8.06398C50.1014 8.83198 49.9735 9.59999 49.7175 10.368C49.4615 11.136 49.0775 11.776 48.5655 12.416C48.0535 13.056 47.4135 13.568 46.6455 14.08V14.208C47.5415 14.08 48.4375 14.208 49.3335 14.336C50.2295 14.464 50.9975 14.848 51.7655 15.232C52.5335 15.744 53.0455 16.256 53.6855 17.024C54.1975 17.792 54.5815 18.56 54.8375 19.584C55.2215 21.12 55.3495 22.528 55.0935 23.936C54.8375 25.344 54.3255 26.624 53.3015 27.904C52.4055 29.184 50.9975 30.336 49.2055 31.36C47.4135 32.384 45.2375 33.28 42.5495 34.048L35.2535 36.096C33.8455 36.48 32.6935 36.352 31.6695 35.84C30.6455 35.328 30.0054 34.304 29.6214 32.896L22.9655 8.83199ZM37.1735 13.952C37.8135 13.824 38.3255 13.568 38.7095 13.312C39.0935 13.056 39.4775 12.672 39.7335 12.416C39.9895 12.032 40.1175 11.648 40.1175 11.264C40.1175 10.88 40.1175 10.368 39.9895 9.98398C39.8615 9.47198 39.7335 9.08799 39.4775 8.83199C39.2215 8.57599 38.9654 8.31998 38.5814 8.06398C38.1974 7.93598 37.8135 7.80799 37.1735 7.80799C36.6615 7.80799 36.0214 7.93598 35.3814 8.06398L33.4614 8.576L35.1255 14.592L37.1735 13.952ZM41.0135 27.008C41.7815 26.752 42.4215 26.496 42.9335 26.24C43.4455 25.984 43.8295 25.6 44.0855 25.216C44.3415 24.832 44.5975 24.448 44.5975 23.936C44.5975 23.424 44.5975 23.04 44.4695 22.528C44.3415 22.016 44.0855 21.632 43.8295 21.248C43.5735 20.864 43.1895 20.608 42.8055 20.48C42.4215 20.352 41.9095 20.224 41.2695 20.224C40.6295 20.224 39.9894 20.352 39.2214 20.608L36.9175 21.248L38.7095 27.776L41.0135 27.008Z" fill="#69BF47"/>
<path d="M116.023 25.0879C116.791 25.0879 117.431 25.4719 117.815 25.9839C118.199 26.4959 118.455 27.2639 118.327 28.2879C118.327 29.3119 117.943 30.0799 117.559 30.5919C117.047 31.1039 116.407 31.2319 115.639 31.2319L102.967 30.5919C101.815 30.5919 100.919 30.2079 100.279 29.4399C99.6388 28.7999 99.3828 27.9039 99.3828 26.8799C99.3828 26.1119 99.6388 25.4719 99.8948 24.8319C100.151 24.1919 100.663 23.6799 101.175 23.0399L105.143 19.1999C105.911 18.4319 106.679 17.6639 107.319 17.0239C107.959 16.3839 108.471 15.8719 108.855 15.3599C109.239 14.8479 109.495 14.3359 109.751 13.9519C110.007 13.5679 110.135 13.0559 110.135 12.5439C110.135 11.7759 110.007 11.1359 109.623 10.7519C109.239 10.3679 108.471 10.1119 107.447 10.1119C107.063 10.1119 106.679 10.1119 106.295 10.1119C105.911 10.1119 105.655 10.2399 105.399 10.2399C105.143 10.3679 104.887 10.3679 104.631 10.3679C104.375 10.3679 104.119 10.4959 103.863 10.3679C103.223 10.3679 102.711 10.1119 102.327 9.5999C101.943 9.2159 101.815 8.57589 101.815 7.80788C101.815 7.03989 102.199 6.2719 102.711 5.7599C102.967 5.5039 103.351 5.24789 103.863 4.99189C104.247 4.73589 104.887 4.6079 105.399 4.4799C105.911 4.3519 106.679 4.22388 107.447 4.22388C108.215 4.22388 109.111 4.09588 110.007 4.22388C111.543 4.35188 112.951 4.47989 113.975 4.99189C115.127 5.37589 116.023 5.88788 116.791 6.52788C117.559 7.16788 118.071 7.93589 118.327 8.83189C118.583 9.72789 118.839 10.6239 118.711 11.7759C118.711 12.7999 118.455 13.6959 118.071 14.5919C117.687 15.4879 117.303 16.3839 116.535 17.2799C115.895 18.1759 114.999 19.0719 114.103 19.9679C113.079 20.8639 111.927 22.0159 110.519 23.0399L108.727 24.5759L116.023 25.0879Z" fill="#69BF47"/>
<path d="M75.063 69.0797L83.7671 77.5277C83.7671 77.5277 94.391 76.6317 97.463 75.0957C99.895 73.8157 102.455 72.5357 104.887 71.2557C106.295 70.4877 107.703 69.7197 108.599 68.5677C110.391 66.3917 111.031 61.3997 111.031 61.3997L100.791 51.2877L53.431 18.5197C50.231 16.3437 46.263 19.9277 48.183 23.2557L75.063 69.0797Z" fill="#FFF0C7"/>
<path d="M182.198 116.184C179.382 113.496 176.054 109.528 171.83 110.808C166.198 112.472 160.95 116.568 155.062 118.488C148.918 120.408 142.774 121.816 136.63 123.736C123.19 127.832 110.646 134.104 98.1024 140.376C88.8864 145.112 79.4144 150.104 72.8864 158.04C71.7344 159.448 70.7104 160.984 70.1984 162.776C69.8144 164.056 69.8145 165.336 69.8145 166.616C69.8145 171.48 70.4544 176.216 71.4784 180.952H104.758C104.502 176.984 105.142 173.016 107.83 170.2C109.494 168.536 111.67 167.384 113.846 166.488C123.574 162.52 134.198 160.728 144.694 161.496C136.118 167 128.31 173.656 121.27 180.952H161.846C169.27 177.112 176.822 173.272 183.734 168.664C187.062 166.488 190.39 163.928 192.822 160.728C199.094 152.664 198.582 141.016 194.102 131.8C191.414 125.912 186.934 120.792 182.198 116.184Z" fill="#60ADED"/>
<path d="M181.175 12.2478C176.823 12.1198 172.855 13.9118 169.911 16.9838C166.583 20.5678 165.687 25.4317 162.615 29.0157C154.295 38.7437 160.695 56.5358 176.567 56.1518C186.423 55.8958 193.463 49.1117 196.919 42.4557C202.551 32.0877 194.231 12.5038 181.175 12.2478Z" fill="#FF9429"/>
<path d="M165.304 38.3598C165.944 38.8718 167.48 39.7678 171.32 40.1518C174.392 40.5358 171.32 44.1198 170.296 45.0158C167.736 47.0638 164.28 46.4238 163 43.0958C162.36 41.5598 162.232 36.3118 165.304 38.3598Z" fill="#F35329"/>
<path d="M186.936 39.7678C187.32 38.9998 188.728 35.9278 190.392 36.1838C192.056 36.5678 192.056 38.4878 190.52 39.5118C188.984 40.5358 186.424 41.1758 186.936 39.7678Z" fill="#F96400"/>
<path d="M168.887 32.8558L169.015 32.9838C169.527 33.6238 168.247 35.1598 167.607 35.2878C166.199 35.6718 166.583 34.0078 167.095 33.3678C167.479 33.1118 168.375 32.5998 168.887 32.8558Z" fill="#F96400"/>
<path d="M166.584 24.5358C167.48 24.6638 168.632 25.0478 169.4 26.5838C169.528 26.8398 170.04 26.8398 170.04 26.4558C170.168 25.6878 170.04 24.5358 169.144 23.8958C168.12 23.2558 167.224 23.5118 166.456 23.7678C166.2 24.1518 166.2 24.5358 166.584 24.5358Z" fill="#642E00"/>
<path d="M175.16 28.8877C176.44 28.7597 178.616 29.0157 180.664 31.1917C180.92 31.4477 181.56 31.3197 181.432 30.9357C181.304 30.1677 180.664 28.8877 179.512 28.2477C177.336 26.9677 175.928 27.8637 174.904 28.5037C174.52 28.6317 174.776 29.0157 175.16 28.8877Z" fill="#642E00"/>
<path d="M177.497 34.0803C177.993 33.224 177.8 32.185 177.066 31.7597C176.332 31.3344 175.335 31.6837 174.839 32.54C174.343 33.3963 174.535 34.4353 175.269 34.8606C176.003 35.2859 177.001 34.9366 177.497 34.0803Z" fill="#4A0800"/>
<path d="M167.851 30.1086C168.209 29.1859 167.858 28.1891 167.068 27.8822C166.277 27.5753 165.345 28.0744 164.987 28.9971C164.629 29.9198 164.98 30.9167 165.771 31.2236C166.562 31.5305 167.493 31.0313 167.851 30.1086Z" fill="#4A0800"/>
<path d="M174.903 53.4639L169.783 69.4639C169.783 69.4639 173.239 75.9919 178.103 76.2479C183.095 76.3759 188.727 69.5919 188.727 69.5919L190.135 49.3679L174.903 53.4639Z" fill="#FF9429"/>
<path d="M187.447 3.92777C182.583 3.67177 177.591 3.92776 172.855 5.33576C168.375 6.74376 162.871 9.43176 160.311 13.6558C159.671 14.6798 159.415 15.9598 159.671 17.1118C159.799 17.8798 160.311 18.5198 160.823 19.0318C163.511 21.7198 168.247 22.1038 171.831 21.9758C173.751 21.9758 175.543 21.4638 177.079 20.4398C177.719 19.9278 178.359 19.4158 179.127 19.1598C183.351 17.4958 186.423 22.6158 185.271 26.1998C183.735 30.6798 183.351 34.7758 185.655 34.9038C187.959 35.0318 190.519 31.9598 193.463 34.3918C196.407 36.8238 193.463 44.5038 188.471 44.2478C183.479 44.1198 179.255 55.2558 184.119 59.0958C188.983 62.9358 193.591 62.1678 195.895 65.1118C198.327 68.0558 200.375 71.1278 203.703 73.1758C208.695 76.1198 215.095 75.6078 219.703 72.2798C225.079 68.5678 225.719 61.6558 223.415 55.8958C221.367 50.9038 217.783 47.4478 213.431 44.5038C209.975 42.1998 210.487 37.7198 210.743 34.0078C211.127 27.8638 211.127 19.5438 205.367 12.8878C199.863 6.10377 193.079 4.18377 187.447 3.92777Z" fill="#933430"/>
<path d="M189.111 67.1597C197.175 69.5917 204.343 74.7117 208.951 81.8797C214.967 91.6077 217.783 104.024 218.679 108.376C218.935 109.4 218.167 110.168 216.887 110.424C215.607 110.68 198.455 114.52 198.455 114.52L191.927 149.336L144.567 132.44L148.407 94.8077C148.535 93.7837 147.639 93.0157 146.615 93.2717L132.279 96.7277L126.007 75.8637C126.007 75.8637 146.615 60.6317 171.063 64.7277C170.423 64.5997 170.551 68.5677 170.551 68.9517C170.679 71.3837 172.471 73.0477 174.775 73.6877C176.567 74.1997 178.615 74.0717 180.535 73.6877C184.119 73.1757 188.215 70.9997 189.111 67.1597Z" fill="#FFF6BA"/>
<path d="M222.999 170L100.791 51.2878L102.968 64.3438L86.4555 57.6878L91.1915 72.4078L75.0635 69.0798L186.551 180.952H204.499C213.587 180.952 219.499 176.5 222.999 170Z" fill="#8F84E3"/>
<path d="M214.199 111.064C214.199 111.064 210.487 141.016 209.591 144.856C208.695 148.824 205.367 153.176 200.247 152.152C196.791 151.512 172.343 141.016 162.999 134.744C161.847 133.976 157.879 132.056 156.855 131.544C152.887 129.24 148.663 126.552 144.311 125.144C141.111 124.248 137.527 124.12 134.583 122.584C134.071 122.328 133.687 122.072 133.431 121.56C133.047 120.792 133.303 119.896 133.687 119.128C134.967 116.568 137.271 114.648 139.831 113.368C142.391 112.088 145.207 111.448 148.023 110.936C149.559 110.68 151.223 110.552 152.759 110.936C154.295 111.32 155.575 112.344 156.727 113.496C159.159 115.8 161.079 118.488 162.615 121.432C162.999 122.2 163.383 123.096 163.895 123.736C165.431 125.656 169.527 126.296 171.703 126.936C175.159 127.96 178.615 128.856 182.071 129.752C185.399 130.648 188.727 131.544 192.055 132.312C193.463 132.696 195.639 133.592 197.175 133.336H197.303C197.047 132.696 198.455 114.776 198.455 114.776L214.199 111.064Z" fill="#FF9429"/>
<path d="M68.2793 28.7598C68.2793 28.7598 68.4073 32.7278 64.5673 35.7998C60.7273 38.8718 57.0153 38.3598 57.0153 38.3598L45.7513 18.9038C44.0873 16.0878 47.6713 13.0158 50.2313 15.0638L68.2793 28.7598Z" fill="#825B44"/>
<path d="M96.1836 89.9438C94.2636 88.0238 92.9836 86.8718 92.4716 86.2318C91.7036 83.2878 89.1437 79.7038 88.3757 78.9358C86.3277 76.8878 83.2557 76.8878 81.3357 74.8398C79.1597 72.4078 76.3436 67.5438 73.9116 65.3678C72.5036 64.0878 71.3516 63.3198 70.7116 65.6238C69.8156 69.4638 75.9597 81.7518 78.1357 83.7998L82.6157 86.9998L87.3516 90.3278C91.1916 94.0398 94.1356 96.8558 100.024 100.184C104.248 102.616 110.008 104.024 110.008 104.024C110.008 104.024 99.3836 93.0158 96.1836 89.9438Z" fill="#FF9429"/>
<path d="M7.3499 105.728L23.0939 108.416C24.8859 108.672 25.9099 107.52 26.1659 106.24C26.4219 104.96 25.7819 103.424 23.9899 103.168L9.78189 100.736C6.83789 100.224 5.5579 98.4319 6.0699 95.2319C6.5819 92.1599 8.2459 90.8799 11.1899 91.3919L25.5259 93.8239C27.3179 94.0799 28.4699 92.6719 28.7259 91.0079C28.9819 89.5999 28.3419 88.0639 26.5499 87.8079L10.4219 85.12C6.58189 84.48 4.91792 81.9199 5.68592 77.6959C6.45392 73.3439 8.62991 71.5519 12.5979 72.1919L33.0779 75.6479C39.6059 76.7999 42.0379 83.3279 41.0139 89.3439C40.1179 94.5919 37.1739 98.6879 32.3099 98.9439C36.9179 100.224 39.0939 105.856 38.0699 112C36.9179 118.528 32.6939 123.52 24.5019 122.112L5.17392 118.912C1.07792 118.272 -0.586107 115.712 0.181893 111.36C0.693893 106.752 3.1259 104.96 7.3499 105.728Z" fill="#69BF47"/>
</svg>
