<svg width="128" height="142" viewBox="0 0 128 142" fill="none" xmlns="http://www.w3.org/2000/svg">
<path d="M65.8528 133.991C95.534 133.991 119.595 109.93 119.595 80.2488C119.595 50.5677 95.534 26.5063 65.8528 26.5063C36.1717 26.5063 12.1104 50.5677 12.1104 80.2488C12.1104 109.93 36.1717 133.991 65.8528 133.991Z" fill="#FF99CB"/>
<path d="M62.596 125.175C60.2935 111.978 55.6886 104.34 42.7725 104.003C42.7725 104.003 45.5242 108.328 44.6818 110.237C43.6148 112.595 43.8394 114.449 45.5242 116.695C46.1419 116.526 45.8611 116.47 46.4788 116.302C47.2089 117.2 51.5891 123.995 51.5891 123.995L62.596 125.175Z" fill="#F77F1E"/>
<path d="M47.3776 104.341C47.3776 104.341 50.0731 104.959 50.2978 106.026C50.6347 107.598 46.9845 110.181 43.3343 110.574C39.1786 111.024 34.6299 108.553 34.6861 106.7C34.7422 105.97 37.6624 104.397 37.6624 104.397L38.224 97.0967L47.3214 97.5459L47.3776 104.341Z" fill="#F8E5D4"/>
<path d="M48.5566 104.678C46.5911 107.317 38.2237 107.036 37.0444 104.678C31.7656 104.846 26.7676 106.082 26.7676 107.991C26.7676 118.324 29.2385 128.657 29.2385 128.657C28.1154 132.195 27.5538 134.329 27.5538 134.329L55.7447 134.946C55.7447 134.946 55.5201 132.026 54.7339 128.657C54.7339 128.657 56.6994 122.311 56.6994 112.034C56.6994 110.125 51.4206 105.689 48.5566 104.678Z" fill="#F77F1E"/>
<path d="M42.7159 112.203C43.2121 112.203 43.6144 111.801 43.6144 111.304C43.6144 110.808 43.2121 110.406 42.7159 110.406C42.2197 110.406 41.8174 110.808 41.8174 111.304C41.8174 111.801 42.2197 112.203 42.7159 112.203Z" fill="#E86A1A"/>
<path d="M42.7159 116.92C43.2121 116.92 43.6144 116.517 43.6144 116.021C43.6144 115.525 43.2121 115.123 42.7159 115.123C42.2197 115.123 41.8174 115.525 41.8174 116.021C41.8174 116.517 42.2197 116.92 42.7159 116.92Z" fill="#C85710"/>
<path d="M27.7779 118.043C27.8902 118.548 28.0025 119.054 28.0587 119.559C28.1148 120.065 28.2271 120.57 28.2833 121.075C28.3395 121.581 28.3956 122.086 28.4518 122.592C28.5079 123.097 28.5641 123.603 28.5641 124.108C28.5641 124.22 28.4518 124.389 28.3394 124.389C28.2271 124.389 28.1148 124.333 28.0587 124.164C27.9463 123.659 27.834 123.153 27.7779 122.648C27.6656 122.142 27.6094 121.637 27.5532 121.132C27.4971 120.626 27.4409 120.121 27.3848 119.615C27.3286 119.11 27.2725 118.605 27.2725 118.043C27.2725 117.931 27.3848 117.818 27.4971 117.818C27.6656 117.818 27.7779 117.931 27.7779 118.043Z" fill="#C85710"/>
<path d="M55.2949 123.827C55.2949 123.378 55.3511 122.929 55.4072 122.48C55.4634 122.03 55.5195 121.581 55.6319 121.132C55.688 120.683 55.8003 120.233 55.8565 119.784C55.9688 119.335 56.025 118.886 56.1373 118.436C56.1934 118.324 56.3058 118.212 56.4742 118.268C56.5865 118.324 56.6427 118.436 56.6427 118.549C56.5865 118.998 56.5865 119.447 56.4742 119.896C56.4181 120.346 56.3619 120.795 56.2496 121.244C56.1934 121.693 56.0811 122.143 56.025 122.592C55.9127 123.041 55.8565 123.49 55.688 123.94C55.6319 124.052 55.5195 124.164 55.4072 124.108C55.3511 124.052 55.2949 123.94 55.2949 123.827Z" fill="#ED6B1A"/>
<path d="M57.8788 85.752C63.1014 95.748 51.5892 101.083 46.0296 101.476C32.6081 102.431 30.0248 95.0741 30.0248 95.0741C30.0248 95.0741 28.0032 95.4672 26.9923 94.6249C24.3529 92.3786 24.6337 89.8515 25.9254 89.4022C27.0485 88.953 29.014 90.5254 29.014 90.5254C29.014 90.5254 28.6771 89.9076 28.5086 89.5707C27.8909 88.5599 24.746 83.1126 26.6554 76.823C28.7894 69.9157 35.809 66.097 42.0986 66.0408C47.8267 65.9847 54.3409 68.961 57.0365 74.9137C58.8335 78.8447 58.2158 84.0673 57.8788 85.752Z" fill="#F8E5D4"/>
<path d="M39.0663 86.5383C39.1225 87.8299 39.8525 89.1215 41.088 89.1777C41.9303 89.2338 42.6604 88.1668 42.6604 86.8191C42.6604 85.4713 41.818 84.292 40.9757 84.2358C39.5717 84.2358 39.0102 85.359 39.0663 86.5383Z" fill="#34261F"/>
<path d="M48.332 85.5275C48.3882 86.8192 49.1182 88.1108 50.3537 88.1669C51.196 88.2231 51.9261 87.1561 51.9261 85.8083C51.9261 84.4606 51.0837 83.2813 50.2414 83.2251C48.8936 83.2251 48.332 84.3482 48.332 85.5275Z" fill="#34261F"/>
<path d="M49.7364 93.1089C48.8941 93.4458 47.1532 94.0074 45.4685 93.8951C43.2783 93.7828 40.4705 91.8734 40.4705 91.9857C40.1335 93.165 41.5375 97.2083 45.0192 97.3768C48.5571 97.5453 50.3542 92.8842 49.7364 93.1089Z" fill="#E78492"/>
<path d="M46.9844 88.1108C47.6021 88.3355 47.9952 88.9532 47.8829 89.5709C47.8267 90.0763 47.4336 90.5256 46.8721 90.6379" stroke="#F0B699" stroke-width="0.966993" stroke-miterlimit="10" stroke-linecap="round" stroke-linejoin="round"/>
<path d="M51.533 79.294C51.196 78.7325 50.5783 78.3955 49.9044 78.5078C49.062 78.6202 48.6689 79.4064 48.6689 79.4625" stroke="#34261F" stroke-width="0.966993" stroke-miterlimit="10" stroke-linecap="round" stroke-linejoin="round"/>
<path d="M40.863 80.5855C40.5261 80.024 39.9084 79.687 39.2345 79.7994C38.3921 79.9117 37.999 80.6979 37.999 80.754" stroke="#34261F" stroke-width="0.966993" stroke-miterlimit="10" stroke-linecap="round" stroke-linejoin="round"/>
<path d="M40.5264 86.1451C40.7745 86.1451 40.9757 85.944 40.9757 85.6958C40.9757 85.4477 40.7745 85.2466 40.5264 85.2466C40.2783 85.2466 40.0771 85.4477 40.0771 85.6958C40.0771 85.944 40.2783 86.1451 40.5264 86.1451Z" fill="white"/>
<path d="M49.5674 85.2467C49.8155 85.2467 50.0167 85.0455 50.0167 84.7974C50.0167 84.5493 49.8155 84.3481 49.5674 84.3481C49.3193 84.3481 49.1182 84.5493 49.1182 84.7974C49.1182 85.0455 49.3193 85.2467 49.5674 85.2467Z" fill="white"/>
<path d="M56.7117 91.5831C56.9398 90.4268 56.0639 89.2802 54.7555 89.0222C53.4471 88.7641 52.2015 89.4923 51.9735 90.6485C51.7454 91.8048 52.6212 92.9514 53.9297 93.2094C55.2381 93.4675 56.4837 92.7393 56.7117 91.5831Z" fill="#F1C6B9"/>
<path d="M39.2078 92.8648C39.4359 91.7085 38.56 90.562 37.2516 90.3039C35.9432 90.0458 34.6976 90.774 34.4696 91.9303C34.2415 93.0866 35.1173 94.2331 36.4258 94.4912C37.7342 94.7492 38.9798 94.0211 39.2078 92.8648Z" fill="#F1C6B9"/>
<path d="M18.7934 79.3502C19.355 78.2271 19.5796 75.5877 19.6919 75.1946C19.9727 73.903 20.3658 72.6675 20.9274 71.4321C21.9943 69.0173 23.6229 66.8272 25.7569 65.1986C30.5864 61.3799 37.1006 60.5376 43.1095 61.1553C50.5784 61.8853 57.4857 65.704 60.2936 72.9483C60.9113 74.5207 61.3044 76.2054 61.3606 77.8901C61.4167 78.7325 61.3606 79.5187 61.3044 80.3611C61.1921 81.5404 60.6867 82.7758 61.2483 83.899C61.4729 84.3482 61.866 84.7975 61.866 85.3029C61.866 85.9206 61.4729 86.4822 61.6414 87.0999C61.7537 87.6053 62.3153 87.8861 62.4837 88.3915C62.7084 89.0093 62.7084 89.7393 62.5399 90.357C62.3714 91.0309 62.596 91.2556 62.9891 91.761C63.4945 92.3787 63.663 93.2772 63.2138 94.0634C63.1576 94.1757 63.1015 94.2881 63.0453 94.4004C62.9891 94.6812 63.3261 95.1304 63.4384 95.4112C63.5507 95.7481 63.6069 96.1412 63.6069 96.5343C63.5507 97.2644 63.1015 97.8821 62.4837 98.2191C61.9221 98.556 60.5744 98.6122 59.2266 99.0614C57.0926 99.6791 53.8917 100.353 49.5114 100.971C49.4552 100.971 49.3991 100.858 49.4552 100.858C55.1271 99.0614 62.0906 94.0073 57.8227 85.8083C57.935 85.2467 58.1035 84.3482 58.1596 83.1689C57.9911 81.9896 57.7665 80.8665 57.6542 80.2487C57.0365 76.9916 54.6217 72.1059 51.8138 70.2528C49.1745 73.903 43.7272 76.6547 39.2346 77.2163C37.4937 77.4409 36.2021 77.7778 34.5174 78.0025C31.2041 78.4517 29.3509 80.7542 28.8455 84.2921C28.5086 86.5384 29.0702 88.7846 29.4071 89.627C29.6879 90.3571 30.0248 91.5925 30.0248 91.5925C29.4071 91.0871 28.8455 90.5255 28.2278 90.1324C27.5539 89.7393 26.5992 89.2339 25.8692 89.5147C24.6337 90.0201 24.2968 92.491 26.9362 94.7373C27.947 95.5797 29.9687 95.1866 29.9687 95.1866C29.9687 95.1866 31.3726 99.1176 37.3814 100.858C37.7745 100.971 37.7745 101.195 37.7184 101.364C37.6622 101.532 37.4937 101.701 37.1006 101.701C32.5519 101.589 23.9037 102.655 19.6357 100.915C17.4456 100.016 15.5363 98.0506 17.5018 94.5688C17.6141 94.4004 17.7264 94.2881 17.7264 94.1196C17.8387 93.6703 17.5579 93.2211 17.3895 92.828C17.221 92.2664 17.0525 91.7048 17.1648 91.0871C17.1648 90.5255 17.3333 90.0763 17.6702 89.627C18.4003 88.56 17.6702 88.0546 17.3895 87.0438C17.221 86.426 17.221 85.8083 17.5018 85.3029C17.7264 84.6852 18.0633 83.9551 18.0633 83.3936C18.0633 83.0566 17.951 82.8881 17.8387 82.5512C17.7264 82.1581 17.7264 81.765 17.7826 81.3157C18.0072 80.5295 18.4564 79.968 18.7934 79.3502Z" fill="#E39012"/>
<path d="M52.3195 67.5571L58.7214 77.6654V80.2487L50.6348 80.9226L49.5678 79.7432L49.0062 81.091L40.5265 81.6526L39.6841 80.2487L39.1226 81.8211L27.9473 82.8881L30.699 70.1404L52.3195 67.5571Z" fill="#E39012"/>
<path d="M51.3646 68.2313C51.0277 67.8382 51.5893 67.2766 51.9262 67.6697C52.9932 69.0175 53.9479 70.3653 54.3971 72.05C54.7902 73.6224 54.8464 75.4194 54.0602 76.8795C53.8356 77.3288 53.1617 76.9357 53.3863 76.4864C54.0602 75.1948 53.9479 73.5101 53.6109 72.1061C53.1617 70.6461 52.3193 69.4106 51.3646 68.2313Z" fill="#E07B12"/>
<path d="M35.6967 77.2162C36.4267 76.3177 36.9321 75.1945 37.1568 74.0714C37.3814 72.7798 37.1568 71.432 36.876 70.1965C36.7637 69.6911 37.5499 69.4665 37.6622 69.9719C37.9991 71.3758 38.2237 72.8359 37.943 74.296C37.7183 75.5876 37.1006 76.7669 36.2582 77.7778C35.9213 78.1709 35.3597 77.6093 35.6967 77.2162Z" fill="#E07B12"/>
<path d="M43.9514 76.7667C44.6253 75.7559 44.9622 74.6327 45.0745 73.4534C45.1868 72.1057 44.7937 70.8702 44.3445 69.6348C44.176 69.1293 44.9061 68.8486 45.0745 69.354C45.5238 70.7579 45.9169 72.1618 45.8607 73.6219C45.7484 74.9135 45.2992 76.2052 44.5691 77.2721C44.2883 77.6652 43.6706 77.216 43.9514 76.7667Z" fill="#E07B12"/>
<path d="M19.9162 95.6356C20.1408 94.8494 20.5339 94.0071 20.5901 93.1647C20.5901 92.7716 20.5339 92.3224 20.4216 91.9293C20.3093 91.5362 20.0285 91.1431 19.9724 90.75C19.8039 89.9638 20.0847 89.2899 20.4216 88.616C20.8147 87.8298 21.0955 86.9874 21.2078 86.1451C21.3201 85.3027 21.2078 84.4603 20.9832 83.618C20.7586 82.8318 20.5901 82.3264 20.927 81.5402C21.7132 79.7431 22.8364 78.1146 22.9487 76.1491C22.9487 75.6437 23.7911 75.6437 23.7349 76.1491C23.6787 77.7215 23.061 79.1254 22.3871 80.4732C22.0502 81.1471 21.3763 81.9894 21.5448 82.7756C21.7132 83.5057 21.994 84.1796 22.0502 84.9658C22.1063 85.6958 22.0502 86.482 21.8817 87.2121C21.7132 87.9983 21.3201 88.6721 21.0394 89.4022C20.8709 89.7953 20.7024 90.1884 20.8147 90.6376C20.927 91.0307 21.1517 91.3677 21.264 91.7046C21.4886 92.3785 21.5448 93.1086 21.3763 93.8386C21.0955 95.2425 19.6354 97.8258 21.4886 98.6681C21.9379 98.8928 21.5448 99.5666 21.0955 99.342C19.5793 98.7243 19.5231 96.9834 19.9162 95.6356Z" fill="#E07B12"/>
<path d="M25.2515 86.7626C25.8693 85.5833 25.7569 84.1794 25.8131 82.8878C25.8693 81.5962 26.0377 80.4169 26.5431 79.2376C27.4417 76.9913 29.0141 74.9135 29.2948 72.4987C29.351 71.9933 30.1372 71.9933 30.081 72.4987C29.7441 75.0819 28.2279 77.1036 27.2732 79.4622C26.7678 80.6976 26.5993 81.9893 26.5993 83.337C26.5993 84.6848 26.5431 85.9764 25.9254 87.2119C25.7569 87.605 25.0269 87.2119 25.2515 86.7626Z" fill="#E07B12"/>
<path d="M42.7723 106.53C42.7723 106.53 41.8738 110.236 37.5497 108.495C34.5734 107.316 35.2473 105.014 37.1566 104.621C37.4374 105.07 38.6729 106.418 42.7723 106.53Z" fill="#FADF2F"/>
<path d="M42.7725 106.53C42.7725 106.53 43.671 110.236 47.9951 108.495C50.9714 107.316 50.2975 105.014 48.3882 104.621C48.1074 105.07 46.9281 106.418 42.7725 106.53Z" fill="#FADF2F"/>
<path d="M122.796 135.17H8.9655C7.89852 135.17 7 134.159 7 132.924L8.68472 127.645C9.07782 126.241 9.58323 125.398 10.6502 125.398H121.055C122.122 125.398 122.515 126.241 123.021 127.645L124.706 132.924C124.762 134.159 123.863 135.17 122.796 135.17Z" fill="#ABD3FF"/>
<path d="M46.1415 126.971C46.1415 126.971 47.8263 126.017 49.0617 125.96C49.0617 125.96 62.8764 126.971 65.6843 127.645C65.6843 127.645 66.0774 127.645 65.965 128.375C65.965 128.488 65.9089 128.6 65.9089 128.712C65.8527 128.937 65.6843 129.161 65.4035 129.161C64.0557 129.218 59.17 129.442 53.4981 130.678H52.7119C52.7119 130.678 47.3208 130.678 38.9534 131.745H37.8864C36.7633 131.183 33.5062 129.498 31.2599 128.488C31.2599 128.488 31.0352 127.645 31.3722 127.196C31.7653 126.747 34.6293 126.297 41.2559 126.578L46.1415 126.971Z" fill="#D94A4B"/>
<path d="M46.3099 125.68C46.3099 125.68 47.9946 124.725 49.2301 124.669C49.2301 124.669 62.4832 125.062 65.2911 125.68C65.2911 125.68 65.6842 125.68 65.5719 126.41C65.4595 127.14 65.4034 127.758 65.4034 127.758C65.4034 127.758 60.4054 127.814 53.7227 129.33H52.9365C52.9365 129.33 47.8262 129.218 39.4587 130.285H38.3917C37.2686 129.723 33.5622 127.758 31.4282 127.14C31.4282 127.14 30.8667 126.859 31.2598 126.41C31.6529 125.961 34.7977 124.894 41.4804 125.174L46.3099 125.68Z" fill="#ECDBBB"/>
<path d="M53.3291 127.589C53.3291 127.589 47.4325 126.129 39.6267 128.039C39.6267 128.039 38.8966 128.488 38.0543 128.095C36.875 127.589 31.4277 125.231 31.4277 125.231C31.4277 125.231 38.2228 123.153 46.1409 125.062C46.1409 125.062 46.7587 124.669 48.8926 124.164C50.5212 123.771 55.3507 123.658 59.1133 123.827C62.0334 123.939 63.6058 124.164 64.392 124.388C64.8413 124.501 65.3467 125.118 64.4482 125.399C63.4935 125.68 57.8216 125.175 53.3291 127.589Z" fill="#FFF5D3"/>
<path d="M64.3927 125.399C65.2912 125.118 64.7858 124.5 64.3365 124.388C63.5503 124.164 61.9779 123.995 59.0578 123.827C55.2952 123.658 50.4657 123.714 48.8371 124.164C46.8716 124.669 46.3101 125.174 46.2539 125.231C47.6578 125.736 50.8026 126.747 52.9366 127.533C53.2174 127.589 53.3297 127.589 53.3297 127.589C57.8223 125.174 63.4942 125.68 64.3927 125.399Z" fill="#FFF9E6"/>
<path d="M100.67 127.869H76.017C75.1185 127.869 74.6131 127.701 74.1639 127.532L72.6476 126.859C72.2545 126.578 72.086 126.072 72.2545 125.623L78.7126 105.126C79.218 103.441 80.3412 102.093 82.0259 102.093H108.925C110.498 102.093 111.396 103.385 110.891 104.957L104.713 124.893C104.096 126.465 102.355 127.869 100.67 127.869Z" fill="#C6D8EB"/>
<path d="M104.657 124.894L110.61 105.969C111.228 104.003 110.778 102.88 108.813 102.88H84.1037C82.1382 102.88 80.7905 103.891 80.1727 105.856L74.2762 125.006C73.6585 126.971 74.3885 127.87 76.354 127.87H100.726C102.692 127.87 103.983 126.859 104.657 124.894Z" fill="#A6B5C7"/>
<path d="M79.5556 129.778C79.6679 129.778 79.724 129.778 79.8363 129.778H97.0205C98.0875 129.778 98.7052 128.88 98.3682 127.813L96.515 121.916C96.1781 120.849 95.5042 120.288 94.3811 120.288L75.793 119.951C74.7822 119.951 75.1191 120.793 75.4561 121.804L77.4216 128.767C77.5339 129.16 77.8708 129.441 78.2639 129.497L79.5556 129.778Z" fill="#C6D8EB"/>
<path d="M78.0393 127.869L75.793 119.951L106.062 120.344L108.645 127.925C109.038 129.217 108.589 129.778 107.297 129.778H79.9486C78.657 129.778 78.4885 129.16 78.0393 127.869Z" fill="#B3C3D6"/>
<path d="M8.06699 132.138C7.7862 132.138 7.56157 132.082 7.33694 131.969L7 132.924C7 134.159 7.89852 135.17 8.9655 135.17H122.796C123.863 135.17 124.762 134.159 124.762 132.924L124.481 132.025C124.312 132.082 124.088 132.138 123.863 132.138H8.06699Z" fill="#81B8F2"/>
<path d="M21.8255 113.494C23.5102 110.237 25.8688 107.036 29.5752 105.8C33.2816 104.565 31.8776 112.202 30.5299 115.291C29.2383 118.38 28.7328 118.773 28.7328 118.773C28.7328 118.773 34.9101 119.559 36.988 120.008C36.988 120.008 39.7397 122.928 38.8973 126.859C38.8973 126.859 29.1821 128.825 23.5664 127.926C21.7693 127.646 19.86 126.073 19.6915 122.535C19.5792 120.177 20.1408 116.807 21.8255 113.494Z" fill="#F77F1E"/>
<path d="M31.2038 114.393L29.4629 118.829C29.4629 118.829 37.718 117.032 38.2796 118.717" stroke="#ED6B1A" stroke-width="0.759625" stroke-miterlimit="10" stroke-linecap="round" stroke-linejoin="round"/>
<path d="M38.167 119.84C38.167 119.84 38.6163 117.088 40.6379 115.909C40.6379 115.909 42.5473 114.954 43.3896 116.021C43.3896 116.021 43.9512 117.032 43.3335 117.762L38.167 119.84Z" fill="#F8E5D4"/>
<path d="M50.072 122.198L47.9941 123.714L51.1389 126.129C51.3074 126.242 51.532 126.129 51.4759 125.905L50.072 122.198Z" fill="#E8DBC4"/>
<path d="M42.1539 112.371L40.9185 113.269C40.6938 113.438 40.6938 113.831 40.9185 114.112L47.9943 123.714L50.0721 122.198L42.9401 112.595C42.7155 112.314 42.3786 112.202 42.1539 112.371Z" fill="#289D6C"/>
<path d="M50.9141 124.501L51.4196 125.905C51.4757 126.13 51.3073 126.242 51.0826 126.13L49.9033 125.231L50.9141 124.501Z" fill="#289D6C"/>
<path d="M35.6964 121.355C35.6964 121.355 37.0442 119.39 39.3466 117.93C41.3683 116.638 43.8954 114.897 44.9062 115.178C45.8609 115.459 47.4894 116.807 47.1525 117.368C47.1525 117.368 46.8155 118.211 44.9062 117.368C44.9062 117.368 44.0638 117.761 42.9407 118.491C42.9407 118.491 44.12 118.379 45.3554 118.66C46.1978 118.884 46.5909 119.109 46.6471 119.727C46.7594 120.457 46.3101 120.738 46.3101 120.738L45.2993 120.962C45.2993 120.962 45.917 121.131 46.4786 121.355C46.9278 121.58 47.2648 121.917 47.1525 122.535C47.0963 122.872 46.8155 123.152 46.5347 123.265C46.5347 123.265 47.2086 123.433 47.1525 124.219C47.1525 124.893 46.1416 125.006 45.2993 125.062C41.0875 125.343 40.6382 126.634 38.6166 126.353C36.4264 126.073 34.2363 124.051 35.6964 121.355Z" fill="#F8E5D4"/>
<path d="M43.166 120.345C43.8399 120.513 44.5699 120.738 45.2438 120.962C45.3 120.962 46.1985 120.738 46.1985 120.738C46.1985 120.738 46.2547 120.682 46.367 120.625C44.4576 120.12 43.166 120.345 43.166 120.345Z" fill="#F0C5B2"/>
<path d="M43.4463 122.703C44.9064 122.871 46.0295 123.152 46.7596 123.377C46.6473 123.321 46.5349 123.264 46.5349 123.264C46.7034 123.208 46.8719 123.04 47.0404 122.815C44.401 122.254 43.4463 122.703 43.4463 122.703Z" fill="#F0C5B2"/>
<path d="M43.166 118.491C43.6153 118.491 43.7276 118.491 43.7276 118.491C43.503 118.435 43.3345 118.435 43.166 118.491Z" fill="#F2C196"/>
<path d="M41.6494 118.491C42.211 118.491 42.6041 118.491 42.8849 118.491C43.1657 118.323 43.4464 118.154 43.6711 118.042C43.5588 118.042 43.5026 118.042 43.5026 118.042C42.0425 117.986 41.6494 118.491 41.6494 118.491Z" fill="#F0C5B2"/>
<path d="M23.9599 38.7485C23.5107 38.0746 23.5107 37.1761 23.8476 36.4461C24.1845 35.7722 24.9146 34.986 26.5993 34.8175C26.5993 34.8175 28.4525 34.5367 29.351 35.3229L29.5756 27.7417C29.5756 27.7417 29.4072 25.1584 32.7204 25.72L36.5391 26.2816C36.5391 26.2816 38.1115 26.3939 37.8869 28.1909C37.8869 28.1909 37.7746 29.7072 35.8091 29.7633C35.8091 29.7633 35.2475 29.8195 32.8889 29.2579C32.8889 29.2579 31.8781 29.0333 31.8219 29.2018C31.8219 29.2018 31.4288 29.3141 31.485 30.0441C31.5411 30.8303 31.3727 37.1761 31.3727 37.1761C31.3727 37.1761 31.4288 39.7593 27.4417 40.0401C27.3855 40.0963 24.9707 40.2647 23.9599 38.7485Z" fill="#FDC536"/>
<path d="M33.4505 45.9931C33.1135 42.736 37.1569 40.9951 39.2347 43.5222C39.4593 43.803 39.6839 44.1399 39.9086 44.533L42.0425 39.3104C42.0425 39.3104 42.6041 36.9518 45.075 38.0188C47.4898 39.0858 51.4208 40.8828 51.4208 40.8828C51.4208 40.8828 53.3863 41.7252 52.8247 43.7468L49.2307 51.6088C49.2307 51.6088 48.1637 55.0906 43.5588 53.0689C43.278 52.9566 42.9972 52.732 42.7164 52.5074C42.0987 51.9458 41.2002 50.7103 42.0425 48.9694C42.4356 48.1271 43.1657 47.5094 44.0642 47.2847C45.075 47.0601 46.5351 47.3409 48.1075 49.531L49.7922 45.9931C49.7922 45.9931 50.6908 44.9823 49.4553 44.0276L44.4573 41.6128C44.4573 41.6128 43.1657 40.8828 42.6041 42.1744C42.0425 43.466 40.9756 46.8355 40.414 47.6217C40.414 47.6217 39.6278 49.7556 36.9322 49.4187C36.6514 49.3625 36.3145 49.3064 36.0337 49.1941C35.3037 48.8571 33.9559 48.0709 33.5066 46.3301C33.5066 46.3301 33.5066 46.1616 33.4505 45.9931Z" fill="#35BD37"/>
<path d="M111.846 53.0121C111.565 52.3943 107.859 44.9254 106.735 42.6791C106.511 42.2299 106.398 41.7806 106.398 41.3313L106.342 38.0181C105.163 38.2427 103.478 38.2989 102.13 38.2427C101.4 38.1865 100.614 38.1304 99.828 38.0181V41.3313C99.828 41.7806 99.7157 42.286 99.4911 42.6791C98.3679 44.9254 94.7177 52.3943 94.4369 53.0121C93.8754 54.3037 93.7069 55.483 94.6054 56.7184C95.2231 57.5608 96.2901 58.01 97.2448 58.2908C100.895 59.414 105.388 59.414 109.038 58.2908C109.992 58.01 111.059 57.5608 111.677 56.7184C112.576 55.483 112.407 54.2475 111.846 53.0121Z" fill="#56BAF7"/>
<path d="M106.399 38.0178C106.399 38.0178 107.803 37.5685 107.803 37.0631C107.803 37.0631 107.803 36.8946 107.803 36.6139C107.69 36.3892 107.466 36.2769 107.185 36.0523C107.129 35.9961 107.016 35.94 106.904 35.8838C105.837 36.1646 104.096 36.2208 102.692 36.1646C101.232 36.1084 99.379 35.94 98.7051 35.5469C98.6489 35.5469 98.5366 35.603 98.4805 35.603C98.4805 36.1084 98.4805 37.0631 98.4805 37.0631C98.4805 37.5124 99.8844 37.9616 99.8844 37.9616C100.614 38.074 101.457 38.1301 102.187 38.1863C103.535 38.2986 105.219 38.2424 106.399 38.0178Z" fill="#45BAF2"/>
<path d="M98.4805 35.6592C98.4805 36.1646 98.4805 37.1193 98.4805 37.1193C98.4805 37.5685 99.8844 38.0178 99.8844 38.0178C100.614 38.1301 101.457 38.1863 102.187 38.2424C103.591 38.2986 105.219 38.2424 106.455 38.0178C106.455 38.0178 107.859 37.5686 107.859 37.0631C107.859 37.0631 107.859 36.8947 107.859 36.6139C107.859 36.2208 107.859 35.603 107.859 35.3784C107.803 35.603 107.466 35.7715 106.96 35.8838C105.893 36.1646 104.152 36.2208 102.692 36.1646C101.232 36.1085 99.379 35.94 98.7051 35.5469L98.4805 35.3784V35.6592Z" fill="#51C5FD"/>
<path d="M107.803 35.3785C107.803 35.9962 105.725 36.5017 103.142 36.5017C100.558 36.5017 98.4805 36.0524 98.4805 35.4347C98.4805 34.8169 100.558 34.2554 103.142 34.2554C105.725 34.2554 107.803 34.7608 107.803 35.3785Z" fill="#72D6FE"/>
<path d="M110.891 55.3707C110.61 56.9993 107.465 57.8417 103.422 57.8978H102.804C98.7607 57.8417 95.6159 57.0555 95.3351 55.4269C95.1105 54.023 97.6937 49.1934 97.6937 49.1934C97.7499 49.1373 97.7499 49.0811 97.806 49.025C97.8622 48.9127 97.9745 48.8565 98.0307 48.8003C98.4238 48.6319 99.2661 48.4634 100.389 48.3511C101.288 48.2949 102.242 48.2949 103.029 48.2388H103.141C103.871 48.2388 104.77 48.2388 105.612 48.2949H105.668C106.96 48.4072 107.858 48.5757 108.195 48.8565L108.251 48.9127C108.307 48.9127 108.307 48.9688 108.307 48.9688C108.364 49.025 108.42 49.1373 108.476 49.1934C108.476 49.1373 111.115 53.9668 110.891 55.3707Z" fill="#FFC204"/>
<path d="M108.42 48.9688C108.42 49.4181 106.061 49.8112 103.141 49.8112C100.221 49.8112 97.9185 49.4742 97.8623 49.025C97.8623 48.9127 97.9185 48.8565 98.0869 48.8003C98.48 48.6319 99.3224 48.4634 100.446 48.3511C101.232 48.2949 102.13 48.2388 103.085 48.2388C104.04 48.2388 104.882 48.2949 105.668 48.3511H105.724C107.016 48.4634 107.914 48.6319 108.251 48.9127L108.308 48.9688C108.364 48.9688 108.364 49.025 108.364 49.025C108.42 48.9127 108.42 48.9127 108.42 48.9688Z" fill="#FFDC04"/>
<path opacity="0.57" d="M99.042 53.1808C99.3522 53.1808 99.6036 52.9293 99.6036 52.6192C99.6036 52.309 99.3522 52.0576 99.042 52.0576C98.7319 52.0576 98.4805 52.309 98.4805 52.6192C98.4805 52.9293 98.7319 53.1808 99.042 53.1808Z" fill="white"/>
<path opacity="0.57" d="M106.174 53.4616C106.764 53.4616 107.241 52.9839 107.241 52.3946C107.241 51.8053 106.764 51.3276 106.174 51.3276C105.585 51.3276 105.107 51.8053 105.107 52.3946C105.107 52.9839 105.585 53.4616 106.174 53.4616Z" fill="white"/>
<path opacity="0.57" d="M101.344 55.9884C101.654 55.9884 101.905 55.737 101.905 55.4268C101.905 55.1167 101.654 54.8652 101.344 54.8652C101.034 54.8652 100.782 55.1167 100.782 55.4268C100.782 55.737 101.034 55.9884 101.344 55.9884Z" fill="white"/>
<path d="M106.511 35.3785C106.511 35.8277 104.995 35.9962 103.142 35.9962C101.289 35.9962 99.7725 35.8277 99.7725 35.3785C99.7725 34.9292 101.289 34.7046 103.142 34.7046C104.995 34.7046 106.511 34.9292 106.511 35.3785Z" fill="#51B3F0"/>
<path d="M75.7366 12.6915C75.7366 13.5339 75.0627 14.2078 74.1642 14.2078C73.3218 14.2078 72.5918 13.5339 72.5918 12.6915C72.5918 11.8492 73.2657 11.1753 74.1642 11.1753C75.0627 11.1753 75.7366 11.8492 75.7366 12.6915Z" fill="#663D20"/>
<path d="M74.8375 13.1406H73.5459V19.8233H74.8375V13.1406Z" fill="#663D20"/>
<path d="M79.9488 20.9465H68.9419C68.6612 20.9465 68.4365 20.7219 68.4365 20.4411C68.4365 19.318 69.3912 18.3633 70.5143 18.3633H78.3202C79.4433 18.3633 80.398 19.318 80.398 20.4411C80.398 20.778 80.1734 20.9465 79.9488 20.9465Z" fill="#D93E23"/>
<path d="M61.8094 33.0201C63.6392 33.0201 65.1227 31.5367 65.1227 29.7068C65.1227 27.877 63.6392 26.3936 61.8094 26.3936C59.9795 26.3936 58.4961 27.877 58.4961 29.7068C58.4961 31.5367 59.9795 33.0201 61.8094 33.0201Z" fill="#D93E23"/>
<path d="M86.7996 33.0201C88.6295 33.0201 90.1129 31.5367 90.1129 29.7068C90.1129 27.877 88.6295 26.3936 86.7996 26.3936C84.9697 26.3936 83.4863 27.877 83.4863 29.7068C83.4863 31.5367 84.9697 33.0201 86.7996 33.0201Z" fill="#D93E23"/>
<path d="M82.5878 39.8157H66.0214C63.6066 39.8157 61.585 37.8502 61.585 35.3792V24.8217C61.585 22.4069 63.5505 20.3853 66.0214 20.3853H82.5878C85.0025 20.3853 87.0242 22.3508 87.0242 24.8217V35.3792C87.0242 37.8502 85.0587 39.8157 82.5878 39.8157Z" fill="#F75031"/>
<path d="M81.4649 37.1204H67.1448C65.4601 37.1204 64.1123 35.7726 64.1123 34.0879V26.1135C64.1123 24.4288 65.4601 23.0811 67.1448 23.0811H81.4649C83.1496 23.0811 84.4974 24.4288 84.4974 26.1135V34.144C84.4974 35.7726 83.1496 37.1204 81.4649 37.1204Z" fill="#FBD82B"/>
<path d="M72.2544 28.8083C72.2544 30.2684 71.0751 31.5039 69.5588 31.5039C68.0987 31.5039 66.8633 30.3246 66.8633 28.8083C66.8633 27.3483 68.0426 26.1128 69.5588 26.1128C71.0189 26.1128 72.2544 27.2921 72.2544 28.8083Z" fill="white"/>
<path d="M81.7456 28.8083C81.7456 30.2684 80.5663 31.5039 79.05 31.5039C77.59 31.5039 76.3545 30.3246 76.3545 28.8083C76.3545 27.3483 77.5338 26.1128 79.05 26.1128C80.5663 26.1128 81.7456 27.2921 81.7456 28.8083Z" fill="white"/>
<path d="M71.3001 28.8086C71.3001 29.7633 70.5139 30.5495 69.5592 30.5495C68.6046 30.5495 67.8184 29.7633 67.8184 28.8086C67.8184 27.854 68.6046 27.0678 69.5592 27.0678C70.5139 27.0116 71.3001 27.7978 71.3001 28.8086Z" fill="#663D20"/>
<path d="M80.847 28.8086C80.847 29.7633 80.0608 30.5495 79.1061 30.5495C78.1514 30.5495 77.3652 29.7633 77.3652 28.8086C77.3652 27.854 78.1514 27.0678 79.1061 27.0678C80.0608 27.0116 80.847 27.7978 80.847 28.8086Z" fill="#663D20"/>
<path d="M77.3648 34.3683H71.356C70.9629 34.3683 70.626 34.0313 70.626 33.6382C70.626 33.2451 70.9629 32.9082 71.356 32.9082H77.3648C77.7579 32.9082 78.0949 33.2451 78.0949 33.6382C78.0387 34.0875 77.7579 34.3683 77.3648 34.3683Z" fill="#663D20"/>
<path d="M108.645 84.2349C108.87 84.2911 108.926 84.628 108.702 84.7403C107.073 85.7511 99.941 90.5807 97.5824 92.0969C97.077 92.4339 95.4484 91.6477 94.9991 91.3107C94.7745 91.1422 82.5884 84.6842 82.4199 84.4595C82.813 84.1787 90.4504 78.2261 90.4504 78.2261L108.645 84.2349Z" fill="#5473E2"/>
<path d="M97.919 90.5809C99.2668 89.7947 105.219 85.7514 107.578 84.2913C106.904 83.5051 107.241 80.8657 107.41 80.6973C104.77 82.382 100.895 85.1898 98.4244 87.1553C96.2905 88.7839 97.189 90.9179 97.919 90.5809Z" fill="#FFF7D3"/>
<path d="M76.8039 85.1898L95.8974 92.2657C96.0658 92.3218 96.4028 92.378 96.7959 92.378C97.1328 92.378 97.5259 92.2095 97.6382 92.1533C97.4698 92.1533 97.0767 92.041 96.7959 91.7041C96.5151 91.311 95.6166 89.2893 96.9082 87.9977C92.3033 85.4145 76.6354 80.6411 76.6354 80.6411C76.6354 80.6411 76.467 80.8096 76.3546 80.8096C75.063 82.4943 76.1862 84.9652 76.8039 85.1898Z" fill="#6B8CFF"/>
<path d="M76.3545 80.7533L96.908 87.9415L108.139 81.0341C108.364 80.9218 108.308 80.5287 108.083 80.4726L88.6529 74.2391C88.2037 74.1268 87.7544 74.1829 87.3613 74.3514L76.3545 80.7533Z" fill="#6B8CFF"/>
<path d="M79.2181 78.9002C78.9935 78.9563 78.9373 79.2933 79.1058 79.4056C80.7905 80.5287 85.7885 83.8982 88.1471 85.5829C88.6525 85.9198 90.3934 85.1898 90.8988 84.8529C91.1234 84.6844 98.4239 80.8657 98.5362 80.6411C98.1431 80.3603 92.6958 75.7554 92.6958 75.7554L79.2181 78.9002Z" fill="#FBBC00"/>
<path d="M87.8659 83.9543C86.7428 83.2243 82.7556 80.6411 80.2847 79.0125C81.0148 78.2263 79.8916 75.8115 79.7793 75.6431C82.531 77.5524 83.9911 78.5632 86.7428 80.4726C87.9221 81.315 88.3152 83.0558 88.3152 83.5051C88.3152 83.9543 88.0906 84.1228 87.8659 83.9543Z" fill="#FFF7D3"/>
<path d="M105.388 81.2587L90.0007 85.8074C89.8883 85.8636 89.3829 85.9759 88.9898 85.9197C88.5967 85.8636 88.1475 85.6389 88.1475 85.6389C88.3159 85.6389 88.7652 85.5266 89.046 85.1897C89.3829 84.7966 89.3829 84.2912 89.3268 83.9542C89.2706 82.8311 88.5406 81.9887 88.2036 81.6518C93.8755 80.1355 99.4912 78.5631 105.163 77.0469C105.332 77.1592 106.118 77.9454 106.118 79.1809C106.23 80.3602 105.556 81.0902 105.388 81.2587Z" fill="#FBD100"/>
<path d="M105.219 77.0474L88.2595 81.6523L79.0497 75.9804C78.8251 75.8119 78.8813 75.475 79.1621 75.4188L94.8861 71.7686C95.3353 71.6563 95.8408 71.7124 96.29 71.9932L105.219 77.0474Z" fill="#FBD100"/>
<path d="M79.8925 73.6779C79.6679 73.7341 79.6117 74.0149 79.8364 74.1272C81.2403 75.138 85.5644 78.1705 87.6422 79.6868C88.0915 80.0237 89.5516 79.3498 90.0008 79.069C90.2254 78.9006 97.2451 75.8681 97.3574 75.6434C97.0205 75.3627 92.3594 71.2632 92.3594 71.2632L79.8925 73.6779Z" fill="#338D3C"/>
<path d="M87.361 78.2267C86.4063 77.5528 82.9807 75.2504 80.8467 73.7903C81.4645 73.1164 80.5098 70.9263 80.3975 70.7578C82.7561 72.4425 84.0477 73.341 86.4063 75.0819C87.4171 75.812 87.7541 77.3844 87.7541 77.7775C87.7541 78.2267 87.5294 78.339 87.361 78.2267Z" fill="#FFF7D3"/>
<path d="M103.198 76.2044L89.1586 79.9108C89.0462 79.967 88.5408 80.0231 88.3162 80.0231C87.9793 80.0231 87.7608 79.809 87.6484 79.6966C87.8169 79.6966 88.0916 79.63 88.3724 79.3492C88.6531 79.0123 88.6531 78.563 88.6531 78.2822C88.597 77.2714 87.9468 76.4549 87.6661 76.1741C92.4956 74.7702 99.4915 72.9473 103.029 72.498C103.142 72.6104 103.872 73.2842 103.872 74.4074C103.872 75.3621 103.31 76.0359 103.198 76.2044Z" fill="#3FA549"/>
<path d="M103.029 72.4423L87.6979 76.2048L79.7797 71.0945C79.5551 70.9822 79.6112 70.6453 79.8359 70.5891L94.156 67.7251C94.5491 67.6128 94.9983 67.6689 95.3353 67.8936L103.029 72.4423Z" fill="#3FA549"/>
</svg>
