<svg width="48" height="48" viewBox="0 0 48 48" fill="none" xmlns="http://www.w3.org/2000/svg">
<path d="M6 36.5C6 36.8978 6.15804 37.2794 6.43934 37.5607C6.72064 37.842 7.10218 38 7.5 38C7.89782 38 8.27936 37.842 8.56066 37.5607C8.84196 37.2794 9 36.8978 9 36.5V11.5C9 11.1022 8.84196 10.7206 8.56066 10.4393C8.27936 10.158 7.89782 10 7.5 10C7.10218 10 6.72064 10.158 6.43934 10.4393C6.15804 10.7206 6 11.1022 6 11.5V36.5ZM39 36.5C39 36.8978 39.158 37.2794 39.4393 37.5607C39.7206 37.842 40.1022 38 40.5 38C40.8978 38 41.2794 37.842 41.5607 37.5607C41.842 37.2794 42 36.8978 42 36.5V11.5C42 11.1022 41.842 10.7206 41.5607 10.4393C41.2794 10.158 40.8978 10 40.5 10C40.1022 10 39.7206 10.158 39.4393 10.4393C39.158 10.7206 39 11.1022 39 11.5V36.5ZM28.3 28.1C28.0743 28.4036 27.9717 28.7813 28.0127 29.1574C28.0537 29.5335 28.2353 29.8802 28.5211 30.1281C28.8069 30.3759 29.1758 30.5067 29.5539 30.494C29.932 30.4814 30.2914 30.3264 30.56 30.06L35.3 25.32C35.7 25.08 36 24.58 36 24C36.0049 23.7387 35.9433 23.4804 35.8208 23.2494C35.6983 23.0185 35.5191 22.8225 35.3 22.68L30.56 17.94L30.4 17.8C30.1111 17.5836 29.7539 17.4787 29.3939 17.5044C29.0339 17.5301 28.6952 17.6848 28.44 17.94L28.3 18.1C27.86 18.7 27.9 19.52 28.44 20.06L30.88 22.5H17.12L19.56 20.06L19.72 19.86C19.9054 19.604 20.0053 19.2961 20.0053 18.98C20.0053 18.6639 19.9054 18.356 19.72 18.1L19.56 17.94L19.36 17.78C19.104 17.5946 18.7961 17.4947 18.48 17.4947C18.1639 17.4947 17.856 17.5946 17.6 17.78L17.44 17.94L12.7 22.68L12.56 22.78C12.3828 22.9298 12.2408 23.1167 12.144 23.3276C12.0472 23.5384 11.998 23.768 12 24C12 24.58 12.28 25.08 12.7 25.32L17.44 30.06L17.6 30.2C17.8879 30.4048 18.2389 30.5013 18.591 30.4727C18.9432 30.444 19.2739 30.292 19.5249 30.0433C19.7759 29.7947 19.9311 29.4654 19.9632 29.1136C19.9952 28.7617 19.902 28.4099 19.7 28.12L19.56 27.94L17.12 25.5H30.88L28.44 27.94L28.3 28.1Z" fill="white"/>
</svg>
