<svg width="48" height="48" viewBox="0 0 48 48" fill="none" xmlns="http://www.w3.org/2000/svg">
<path d="M11.5 6C11.1022 6 10.7206 6.15804 10.4393 6.43934C10.158 6.72064 10 7.10218 10 7.5C10 7.89782 10.158 8.27936 10.4393 8.56066C10.7206 8.84196 11.1022 9 11.5 9H36.5C36.8978 9 37.2794 8.84196 37.5607 8.56066C37.842 8.27936 38 7.89782 38 7.5C38 7.10218 37.842 6.72064 37.5607 6.43934C37.2794 6.15804 36.8978 6 36.5 6H11.5ZM18.44 28.44C18.6952 28.1848 19.0339 28.0301 19.3939 28.0044C19.7539 27.9787 20.1111 28.0836 20.4 28.3L20.56 28.44L23 30.88V17.12L20.56 19.56L20.4 19.7C20.1111 19.9166 19.7538 20.0218 19.3937 19.9962C19.0335 19.9706 18.6947 19.816 18.4393 19.5607C18.184 19.3053 18.0294 18.9665 18.0038 18.6063C17.9782 18.2462 18.0834 17.8889 18.3 17.6L18.44 17.44L23.18 12.7C23.42 12.3 23.92 12 24.5 12C25 12 25.46 12.2 25.72 12.56L25.82 12.7L30.56 17.44L30.7 17.6C31.1 18.14 31.1 18.84 30.72 19.38L30.56 19.58L30.4 19.7C29.88 20.1 29.16 20.1 28.64 19.72L28.44 19.56L26 17.12V30.88L28.44 28.44C28.6952 28.1848 29.0339 28.0301 29.3939 28.0044C29.7539 27.9787 30.1111 28.0836 30.4 28.3L30.56 28.44C31.1 28.98 31.16 29.8 30.72 30.4L30.56 30.56L25.84 35.3C25.6957 35.522 25.4965 35.7031 25.2618 35.8257C25.0271 35.9484 24.7647 36.0084 24.5 36C24.2387 36.0049 23.9804 35.9433 23.7494 35.8208C23.5185 35.6983 23.3225 35.5191 23.18 35.3L18.44 30.56C18.1591 30.2787 18.0013 29.8975 18.0013 29.5C18.0013 29.1025 18.1591 28.7213 18.44 28.44ZM10 40.5C10 39.68 10.68 39 11.5 39H36.5C36.8978 39 37.2794 39.158 37.5607 39.4393C37.842 39.7206 38 40.1022 38 40.5C38 40.8978 37.842 41.2794 37.5607 41.5607C37.2794 41.842 36.8978 42 36.5 42H11.5C11.1022 42 10.7206 41.842 10.4393 41.5607C10.158 41.2794 10 40.8978 10 40.5Z" fill="white"/>
</svg>
