<svg width="336" height="37" viewBox="0 0 336 37" fill="none" xmlns="http://www.w3.org/2000/svg">
<rect width="157" height="37" rx="18.5" fill="#FFD857"/>
<path d="M24.6611 30.5H29.6748V21.8174H33.4434C33.4876 21.8174 33.5319 21.8174 33.5762 21.8174C33.6204 21.8174 33.6592 21.8174 33.6924 21.8174L38.1582 30.5H43.8359L38.7891 21.0703C40.1172 20.5501 41.1686 19.6758 41.9434 18.4473C42.7292 17.2188 43.1221 15.8187 43.1221 14.2471V14.2139C43.1221 12.609 42.779 11.2367 42.0928 10.0967C41.4176 8.94564 40.4382 8.06576 39.1543 7.45703C37.8815 6.84831 36.3486 6.54395 34.5557 6.54395H24.6611V30.5ZM29.6748 18.0156V10.4619H33.9414C35.181 10.4619 36.166 10.7995 36.8965 11.4746C37.627 12.1497 37.9922 13.0628 37.9922 14.2139V14.2471C37.9922 15.4202 37.638 16.3444 36.9297 17.0195C36.2324 17.6836 35.2585 18.0156 34.0078 18.0156H29.6748ZM53.9629 30.8652C55.2357 30.8652 56.3424 30.6992 57.2832 30.3672C58.235 30.0352 59.0374 29.5924 59.6904 29.0391C60.3545 28.4857 60.8802 27.877 61.2676 27.2129C61.6549 26.5488 61.915 25.8903 62.0479 25.2373L62.0977 25.0547H57.6484L57.6152 25.1543C57.5046 25.4863 57.2943 25.8128 56.9844 26.1338C56.6745 26.4548 56.276 26.7204 55.7891 26.9307C55.3021 27.141 54.7266 27.2461 54.0625 27.2461C53.2214 27.2461 52.4964 27.0635 51.8877 26.6982C51.279 26.3219 50.8086 25.7852 50.4766 25.0879C50.1556 24.3906 49.9951 23.5495 49.9951 22.5645V20.6885C49.9951 19.6702 50.1556 18.8125 50.4766 18.1152C50.8086 17.4069 51.2624 16.8701 51.8379 16.5049C52.4245 16.1396 53.0941 15.957 53.8467 15.957C54.5993 15.957 55.2578 16.1341 55.8223 16.4883C56.3978 16.8424 56.846 17.3737 57.167 18.082C57.488 18.7793 57.6484 19.6481 57.6484 20.6885V22.5479L59.9561 19.6924H47.5879V22.7471H62.2471V21.2529C62.2471 19.46 61.8984 17.8939 61.2012 16.5547C60.515 15.2155 59.5355 14.1807 58.2627 13.4502C57.001 12.7087 55.5013 12.3379 53.7637 12.3379C52.026 12.3379 50.5153 12.7197 49.2314 13.4834C47.9587 14.236 46.9681 15.3096 46.2598 16.7041C45.5625 18.0876 45.2139 19.7256 45.2139 21.6182V21.6348C45.2139 23.5273 45.5625 25.1654 46.2598 26.5488C46.9681 27.9323 47.9753 29.0003 49.2812 29.7529C50.5872 30.4945 52.1478 30.8652 53.9629 30.8652ZM68.7881 30.5H74.25L80.3594 12.7031H75.2959L71.627 26.2168H71.5273L67.8086 12.7031H62.6289L68.7881 30.5ZM82.1523 30.5H87V12.7031H82.1523V30.5ZM84.5762 10.4121C85.3066 10.4121 85.9209 10.1631 86.4189 9.66504C86.917 9.16699 87.166 8.57487 87.166 7.88867C87.166 7.19141 86.917 6.59928 86.4189 6.1123C85.9209 5.61426 85.3066 5.36523 84.5762 5.36523C83.8457 5.36523 83.2314 5.61426 82.7334 6.1123C82.2354 6.59928 81.9863 7.19141 81.9863 7.88867C81.9863 8.57487 82.2354 9.16699 82.7334 9.66504C83.2314 10.1631 83.8457 10.4121 84.5762 10.4121ZM98.3555 30.8652C99.6283 30.8652 100.735 30.6992 101.676 30.3672C102.628 30.0352 103.43 29.5924 104.083 29.0391C104.747 28.4857 105.273 27.877 105.66 27.2129C106.048 26.5488 106.308 25.8903 106.44 25.2373L106.49 25.0547H102.041L102.008 25.1543C101.897 25.4863 101.687 25.8128 101.377 26.1338C101.067 26.4548 100.669 26.7204 100.182 26.9307C99.6947 27.141 99.1191 27.2461 98.4551 27.2461C97.6139 27.2461 96.889 27.0635 96.2803 26.6982C95.6715 26.3219 95.2012 25.7852 94.8691 25.0879C94.5482 24.3906 94.3877 23.5495 94.3877 22.5645V20.6885C94.3877 19.6702 94.5482 18.8125 94.8691 18.1152C95.2012 17.4069 95.6549 16.8701 96.2305 16.5049C96.8171 16.1396 97.4867 15.957 98.2393 15.957C98.9919 15.957 99.6504 16.1341 100.215 16.4883C100.79 16.8424 101.239 17.3737 101.56 18.082C101.881 18.7793 102.041 19.6481 102.041 20.6885V22.5479L104.349 19.6924H91.9805V22.7471H106.64V21.2529C106.64 19.46 106.291 17.8939 105.594 16.5547C104.908 15.2155 103.928 14.1807 102.655 13.4502C101.394 12.7087 99.8939 12.3379 98.1562 12.3379C96.4186 12.3379 94.9079 12.7197 93.624 13.4834C92.3512 14.236 91.3607 15.3096 90.6523 16.7041C89.9551 18.0876 89.6064 19.7256 89.6064 21.6182V21.6348C89.6064 23.5273 89.9551 25.1654 90.6523 26.5488C91.3607 27.9323 92.3678 29.0003 93.6738 29.7529C94.9798 30.4945 96.5404 30.8652 98.3555 30.8652ZM112.517 30.5H117.613L120.817 17.916H120.917L124.138 30.5H129.301L134.016 12.7031H129.234L126.528 25.9014H126.429L123.258 12.7031H118.609L115.455 25.9014H115.355L112.666 12.7031H107.785L112.517 30.5Z" fill="white"/>
<path d="M165.612 30.5H166.907V18.9619H178.495V17.7666H166.907V7.73926H179.491V6.54395H165.612V30.5ZM188.224 30.7822C189.751 30.7822 191.09 30.4225 192.241 29.7031C193.403 28.9837 194.305 27.9544 194.947 26.6152C195.6 25.276 195.927 23.6934 195.927 21.8672V21.834C195.927 20.0078 195.6 18.4307 194.947 17.1025C194.305 15.7744 193.403 14.7507 192.241 14.0312C191.09 13.3118 189.751 12.9521 188.224 12.9521C186.696 12.9521 185.352 13.3118 184.189 14.0312C183.038 14.7507 182.142 15.7744 181.5 17.1025C180.858 18.4307 180.537 20.0078 180.537 21.834V21.8672C180.537 23.6823 180.858 25.2594 181.5 26.5986C182.142 27.9378 183.038 28.9671 184.189 29.6865C185.352 30.4059 186.696 30.7712 188.224 30.7822ZM188.224 29.6201C186.94 29.609 185.816 29.2936 184.854 28.6738C183.902 28.054 183.16 27.1631 182.629 26.001C182.098 24.8389 181.832 23.4609 181.832 21.8672V21.834C181.832 20.2402 182.098 18.8678 182.629 17.7168C183.16 16.5658 183.902 15.6803 184.854 15.0605C185.816 14.4297 186.94 14.1143 188.224 14.1143C189.496 14.1143 190.614 14.4242 191.577 15.0439C192.54 15.6637 193.287 16.5547 193.818 17.7168C194.361 18.8678 194.632 20.2402 194.632 21.834V21.8672C194.632 23.4609 194.366 24.8389 193.835 26.001C193.304 27.1631 192.557 28.0596 191.594 28.6904C190.631 29.3102 189.507 29.6201 188.224 29.6201ZM198.898 30.5H200.177V19.7588C200.177 18.6631 200.354 17.6947 200.708 16.8535C201.062 16.0013 201.571 15.3428 202.235 14.8779C202.899 14.402 203.685 14.1641 204.593 14.1641C205.002 14.1641 205.356 14.2028 205.655 14.2803C205.954 14.3467 206.192 14.4242 206.369 14.5127V13.2344C206.214 13.168 205.993 13.1071 205.705 13.0518C205.417 12.9854 205.102 12.9521 204.759 12.9521C203.619 12.9521 202.661 13.2731 201.887 13.915C201.112 14.5459 200.559 15.4313 200.227 16.5713H200.177V13.2344H198.898V30.5ZM223.402 30.8486C225.062 30.8486 226.512 30.5775 227.752 30.0352C229.003 29.4928 229.971 28.7347 230.657 27.7607C231.354 26.7868 231.703 25.6468 231.703 24.3408V24.3242C231.703 22.6419 231.177 21.3138 230.126 20.3398C229.086 19.3548 227.348 18.5856 224.913 18.0322L222.323 17.4346C220.353 16.9808 218.92 16.3555 218.023 15.5586C217.127 14.7507 216.679 13.6992 216.679 12.4043V12.3877C216.679 11.4027 216.95 10.5394 217.492 9.79785C218.046 9.04525 218.804 8.45866 219.767 8.03809C220.741 7.61751 221.864 7.40723 223.137 7.40723C224.421 7.40723 225.549 7.63411 226.523 8.08789C227.508 8.5306 228.3 9.15592 228.897 9.96387C229.495 10.7607 229.844 11.707 229.943 12.8027L229.977 13.0186H231.271L231.255 12.8027C231.155 11.4857 230.751 10.3291 230.043 9.33301C229.335 8.33691 228.388 7.56771 227.204 7.02539C226.02 6.47201 224.67 6.19531 223.153 6.19531C221.659 6.19531 220.326 6.46094 219.152 6.99219C217.979 7.52344 217.055 8.25944 216.38 9.2002C215.705 10.1299 215.362 11.1979 215.351 12.4043V12.4375C215.351 14.0645 215.871 15.376 216.911 16.3721C217.963 17.3571 219.634 18.1152 221.925 18.6465L224.498 19.2275C226.612 19.7145 228.117 20.3564 229.014 21.1533C229.921 21.9502 230.375 23.0238 230.375 24.374V24.3906C230.375 25.4421 230.087 26.3607 229.512 27.1465C228.936 27.9323 228.128 28.5465 227.088 28.9893C226.048 29.4209 224.836 29.6367 223.452 29.6367C222.058 29.6367 220.824 29.4154 219.75 28.9727C218.688 28.5189 217.835 27.888 217.193 27.0801C216.562 26.2721 216.192 25.3258 216.081 24.2412L216.064 24.0254H214.753L214.77 24.2412C214.869 25.5693 215.29 26.7314 216.031 27.7275C216.773 28.7236 217.774 29.4928 219.036 30.0352C220.309 30.5775 221.764 30.8486 223.402 30.8486ZM239.705 30.7822C239.949 30.7822 240.181 30.7712 240.402 30.749C240.635 30.7269 240.828 30.6937 240.983 30.6494V29.5869C240.862 29.609 240.707 29.6312 240.519 29.6533C240.341 29.6644 240.142 29.6699 239.921 29.6699C239.069 29.6699 238.438 29.4541 238.028 29.0225C237.619 28.5798 237.414 27.8548 237.414 26.8477V14.3467H240.983V13.2344H237.414V8.56934H236.119V13.2344H233.546V14.3467H236.119V26.9141C236.119 28.2311 236.412 29.2051 236.999 29.8359C237.597 30.4668 238.499 30.7822 239.705 30.7822ZM250.197 30.7656C251.702 30.7656 252.97 30.4004 253.999 29.6699C255.039 28.9395 255.759 28.0208 256.157 26.9141H256.19V30.5H257.469V13.2344H256.19V23.5439C256.19 24.7393 255.952 25.7962 255.477 26.7148C255.012 27.6224 254.348 28.3307 253.484 28.8398C252.632 29.349 251.636 29.6035 250.496 29.6035C248.847 29.6035 247.558 29.1221 246.628 28.1592C245.698 27.1963 245.233 25.7907 245.233 23.9424V13.2344H243.955V24.0918C243.955 25.4974 244.204 26.6982 244.702 27.6943C245.211 28.6904 245.931 29.4541 246.86 29.9854C247.79 30.5055 248.902 30.7656 250.197 30.7656ZM267.679 30.7822C269.206 30.7822 270.54 30.3506 271.68 29.4873C272.831 28.613 273.628 27.4564 274.07 26.0176H274.153V30.5H275.432V6.54395H274.153V17.8164H274.12C273.7 16.3444 272.908 15.1657 271.746 14.2803C270.584 13.3949 269.228 12.9521 267.679 12.9521C266.262 12.9521 265.006 13.3229 263.91 14.0645C262.814 14.806 261.957 15.8464 261.337 17.1855C260.728 18.5137 260.424 20.0632 260.424 21.834V21.8506C260.424 23.6325 260.728 25.193 261.337 26.5322C261.946 27.8714 262.798 28.9173 263.894 29.6699C264.989 30.4115 266.251 30.7822 267.679 30.7822ZM267.895 29.6201C266.666 29.6201 265.587 29.2992 264.657 28.6572C263.728 28.0042 263.003 27.0967 262.482 25.9346C261.973 24.7614 261.719 23.4001 261.719 21.8506V21.834C261.719 20.2845 261.973 18.9342 262.482 17.7832C263.003 16.6211 263.728 15.7191 264.657 15.0771C265.587 14.4352 266.666 14.1143 267.895 14.1143C269.112 14.1143 270.191 14.4408 271.132 15.0938C272.073 15.7467 272.809 16.6598 273.34 17.833C273.882 18.9951 274.153 20.3398 274.153 21.8672V21.8838C274.153 23.4001 273.888 24.7448 273.356 25.918C272.825 27.0801 272.089 27.9876 271.148 28.6406C270.208 29.2936 269.123 29.6201 267.895 29.6201ZM286.256 30.7822C287.174 30.7822 288.021 30.666 288.796 30.4336C289.582 30.1901 290.279 29.847 290.888 29.4043C291.496 28.9616 292 28.4303 292.398 27.8105C292.808 27.1797 293.101 26.4769 293.278 25.7021L293.312 25.5527H292.017L291.983 25.6855C291.762 26.4935 291.391 27.1963 290.871 27.7939C290.362 28.3805 289.72 28.8343 288.945 29.1553C288.171 29.4652 287.28 29.6201 286.272 29.6201C284.989 29.6201 283.86 29.3213 282.886 28.7236C281.923 28.126 281.17 27.2516 280.628 26.1006C280.097 24.9495 279.831 23.5439 279.831 21.8838V21.4521C279.831 19.9469 280.097 18.6465 280.628 17.5508C281.159 16.4551 281.89 15.6084 282.819 15.0107C283.76 14.4131 284.839 14.1143 286.057 14.1143C287.274 14.1143 288.348 14.4131 289.277 15.0107C290.218 15.5973 290.949 16.4385 291.469 17.5342C292 18.6299 292.266 19.9359 292.266 21.4521V21.8838L292.93 21.0039H279.184V22.083H293.527V21.4688C293.527 19.7422 293.212 18.2425 292.581 16.9697C291.961 15.6969 291.092 14.7119 289.975 14.0146C288.857 13.3063 287.551 12.9521 286.057 12.9521C284.574 12.9521 283.268 13.3118 282.139 14.0312C281.01 14.7507 280.13 15.7799 279.499 17.1191C278.868 18.4473 278.553 20.0299 278.553 21.8672V21.8838C278.553 23.721 278.868 25.3092 279.499 26.6484C280.141 27.9766 281.037 29.0003 282.188 29.7197C283.34 30.4281 284.695 30.7822 286.256 30.7822ZM296.482 30.5H297.761V20.1904C297.761 18.984 297.999 17.9271 298.475 17.0195C298.951 16.112 299.615 15.4036 300.467 14.8945C301.33 14.3854 302.332 14.1309 303.472 14.1309C305.121 14.1309 306.41 14.6123 307.34 15.5752C308.27 16.5381 308.734 17.9437 308.734 19.792V30.5H310.013V19.6426C310.013 17.5286 309.454 15.8906 308.336 14.7285C307.229 13.5553 305.707 12.9688 303.771 12.9688C302.265 12.9688 300.993 13.334 299.952 14.0645C298.923 14.7949 298.209 15.7135 297.811 16.8203H297.761V13.2344H296.482V30.5ZM318.264 30.7822C318.507 30.7822 318.74 30.7712 318.961 30.749C319.193 30.7269 319.387 30.6937 319.542 30.6494V29.5869C319.42 29.609 319.265 29.6312 319.077 29.6533C318.9 29.6644 318.701 29.6699 318.479 29.6699C317.627 29.6699 316.996 29.4541 316.587 29.0225C316.177 28.5798 315.973 27.8548 315.973 26.8477V14.3467H319.542V13.2344H315.973V8.56934H314.678V13.2344H312.104V14.3467H314.678V26.9141C314.678 28.2311 314.971 29.2051 315.558 29.8359C316.155 30.4668 317.057 30.7822 318.264 30.7822ZM328.291 30.7822C329.52 30.7822 330.604 30.5775 331.545 30.168C332.486 29.7585 333.222 29.194 333.753 28.4746C334.295 27.7441 334.566 26.9085 334.566 25.9678V25.9512C334.566 24.7559 334.196 23.8096 333.454 23.1123C332.713 22.404 331.495 21.8506 329.802 21.4521L327.378 20.8877C326.006 20.5667 325.015 20.1517 324.406 19.6426C323.809 19.1224 323.51 18.4473 323.51 17.6172V17.6006C323.51 16.9255 323.703 16.3223 324.091 15.791C324.478 15.2487 325.015 14.8281 325.701 14.5293C326.398 14.2194 327.19 14.0645 328.075 14.0645C329.47 14.0645 330.604 14.4352 331.479 15.1768C332.353 15.9072 332.873 16.8812 333.039 18.0986L333.056 18.2148H334.301L334.284 18.0654C334.174 17.0361 333.847 16.1396 333.305 15.376C332.773 14.6123 332.065 14.0202 331.18 13.5996C330.294 13.168 329.259 12.9521 328.075 12.9521C326.946 12.9521 325.939 13.1514 325.054 13.5498C324.168 13.9482 323.471 14.5016 322.962 15.21C322.464 15.9072 322.215 16.7152 322.215 17.6338V17.6504C322.215 18.7682 322.602 19.6813 323.377 20.3896C324.163 21.0869 325.369 21.6292 326.996 22.0166L329.42 22.5811C330.814 22.902 331.805 23.3281 332.392 23.8594C332.978 24.3796 333.271 25.099 333.271 26.0176V26.0342C333.271 26.7425 333.061 27.3734 332.641 27.9268C332.22 28.4801 331.633 28.9118 330.881 29.2217C330.139 29.5205 329.271 29.6699 328.274 29.6699C326.813 29.6699 325.602 29.2992 324.639 28.5576C323.676 27.805 323.111 26.8421 322.945 25.6689L322.929 25.5195H321.65L321.667 25.6689C321.778 26.665 322.121 27.5505 322.696 28.3252C323.283 29.0889 324.052 29.6921 325.004 30.1348C325.956 30.5664 327.051 30.7822 328.291 30.7822Z" fill="#8C8E90"/>
</svg>
