<svg width="292" height="45.4" xmlns="http://www.w3.org/2000/svg" xml:space="preserve" version="1.1">
 <style type="text/css">.st0{fill:#5E9ED5;}
	.st1{fill:#66B0E1;}
	.st2{fill:#FFD857;}
	.st3{fill:#A9D0EE;}
	.st4{fill:#79BBE7;}
	.st5{fill:#E890AE;}
	.st6{fill:#87C9EF;}
	.st7{fill:#EDA6C5;}
	.st8{fill:#FFF196;}
	.st9{fill:#C5E9FB;}
	.st10{fill:#669BD2;}
	.st11{fill:#8C8E90;}
	.st12{fill:#FFFFFF;}</style>

 <g>
  <title>Layer 1</title>
  <g stroke="null" id="Layer_2_1_">
   <g stroke="null" id="Layer_1-2">
    <path stroke="null" id="svg_1" d="m20.1,3.9764l69.1,0c10.5,0 19,8.5 19,19l0,0c0,10.5 -8.5,19 -19,19l-69.1,0c-10.5,0 -19,-8.5 -19,-19l0,0c0,-10.5 8.5,-19 19,-19z" class="st0"/>
    <path stroke="null" id="svg_2" d="m309.3,-67.9236l10.1,-6c3.7,-2.2 5.8,-6.5 5.3,-10.8l-1.7,-14.8l-10.6,6.5c-3.9,2.3 -5.9,6.8 -5.2,11.3l2.1,13.8" class="st0"/>
    <path stroke="null" id="svg_3" d="m320.5,-69.3236l-9.7,5.1c4.2,-0.3 8.4,0.6 12.1,2.6l15.9,8.6c6.5,3.3 14.2,3.2 20.5,-0.2l10.7,-5.7l-1.9,-0.2c-3.7,-0.3 -7.3,-1.3 -10.6,-2.8l-17.3,-7.7c-6.2,-3.1 -13.5,-2.9 -19.7,0.3" class="st0"/>
    <path stroke="null" id="svg_4" d="m337.5,-42.3236c-7.2,-1.5 -13.7,-5.4 -18.5,-11l-18.9,-22.2c-5.6,-6.9 -14.3,-8.7 -21.4,-5l-9.9,5.3l2.3,1c4,1.8 7.3,4.8 9.6,8.5l15.5,23.3c7.8,10.6 15.6,12.7 27.2,7.4l14.1,-7.3" class="st0"/>
    <path stroke="null" id="svg_5" d="m293.5,-57.4236c0.9,6.9 3.2,13.6 6.7,19.7c3.8,3.8 7.8,5.6 12.4,5.6c1.7,0 3.3,-0.2 4.9,-0.7c-7.2,-5.2 -13,-13.8 -15.9,-21.4c-2.9,-0.3 -5.7,-1.4 -8.1,-3.2" class="st1"/>
    <path stroke="null" id="svg_6" d="m330.7,-71.8236c-0.5,0 -1,0 -1.4,0c-2.4,3.4 -5.1,6.5 -8,9.3c0.6,0.2 1.1,0.5 1.6,0.8l15.9,8.6c6.5,3.3 14.2,3.2 20.5,-0.2l10.7,-5.7l-1.9,-0.2c-3.7,-0.3 -7.3,-1.3 -10.6,-2.8l-17.3,-7.7c-2.9,-1.4 -6.2,-2.1 -9.5,-2.1" class="st2"/>
    <path stroke="null" id="svg_7" d="m315.3,-57.7236c-3.4,2.3 -7.4,3.7 -11.5,3.8c-0.7,0 -1.4,0 -2.1,-0.1c2.9,7.6 8.7,16.1 15.9,21.4c2,-0.5 4,-1.2 6,-2.1l14.1,-7.4c-7.2,-1.5 -13.7,-5.4 -18.5,-11l-3.9,-4.6" class="st3"/>
    <path stroke="null" id="svg_8" d="m286.4,-82.4236c-2.4,0 -4.8,0.5 -6.9,1.6c0.3,1.2 0.6,2.3 1,3.4c3,9 7.5,16.1 13,20c-1,-6.4 -1,-12.9 -0.1,-19.4c0.2,-1.3 0.4,-2.5 0.6,-3.7c-2.4,-1.2 -5,-1.9 -7.6,-1.9" class="st4"/>
    <path stroke="null" id="svg_9" d="m323,-99.5236l-10.6,6.5c-3.9,2.3 -5.9,6.8 -5.2,11.3l0,0c4.6,-4.8 10.4,-8.1 16.9,-9.6l-1.1,-8.2" class="st5"/>
    <path stroke="null" id="svg_10" d="m294,-80.5236c-0.2,1.2 -0.5,2.5 -0.6,3.7c-0.9,6.4 -0.8,12.9 0.1,19.4c2.4,1.8 5.2,2.9 8.1,3.3c-0.4,-1.2 -0.8,-2.4 -1.1,-3.6c-1.3,-5.3 -0.8,-10.9 1.3,-15.9l-1.6,-1.9c-1.7,-2.1 -3.8,-3.8 -6.2,-5" class="st6"/>
    <path stroke="null" id="svg_11" d="m324,-91.4236c-6.4,1.5 -12.3,4.9 -16.8,9.6l2.2,13.8l10.1,-6c3.7,-2.2 5.8,-6.5 5.3,-10.8l-0.8,-6.6" class="st7"/>
    <path stroke="null" id="svg_12" d="m329.2,-71.8236c-3.1,0.2 -6,1 -8.8,2.4l-9.7,5.1c0.5,0 1.1,-0.1 1.6,-0.1c3.1,0 6.1,0.6 8.9,1.9c3,-2.8 5.6,-5.9 8,-9.3" class="st8"/>
    <path stroke="null" id="svg_13" d="m301.8,-73.6236c-2.2,5 -2.6,10.6 -1.3,15.9c0.3,1.2 0.7,2.4 1.1,3.6c0.7,0.1 1.4,0.1 2.1,0.1c4.1,-0.1 8.1,-1.4 11.5,-3.8l-13.4,-15.8" class="st9"/>
    <path stroke="null" id="svg_14" d="m27.1,-36.7236c-1.5,-1.8 -3.7,-2.9 -6,-2.9l1.3,0c2.7,0 5.3,-1.2 7.1,-3.4l11.7,-14.5c0.6,-0.8 0.5,-1.9 -0.3,-2.6c-0.3,-0.3 -0.7,-0.4 -1.2,-0.4l-6.5,0c-2.7,0 -5.3,1.2 -7,3.3l-14.2,17.4l0,-28.1c0,-3.3 -2.4,-6 -5.7,-6.5l-2.8,-0.5c-1.6,-0.3 -3.2,0.8 -3.5,2.4c0,0.2 0,0.4 0,0.6l0,54.4c0,1.7 1.3,3 3,3c0.2,0 0.4,0 0.6,0l2.8,-0.4c3.3,-0.8 5.6,-3.2 5.6,-6.5l0,-15.6l17.1,17.7c1.5,1.8 3.7,2.8 6,2.8l7.1,0c1,0 1.8,-0.8 1.9,-1.8c0,-0.4 -0.1,-0.8 -0.4,-1.2l-16.6,-17.2z" class="st10"/>
    <path stroke="null" id="svg_15" d="m54,-59.1236l-3.9,-0.5c-1.6,-0.2 -3.2,0.9 -3.4,2.5c0,0.2 0,0.3 0,0.5l0,37.1c0,1.7 1.3,3 3,3c0.2,0 0.3,0 0.5,0l3.9,-0.5c3.2,-0.4 5.6,-3.2 5.6,-6.5l0,-29.1c-0.1,-3.3 -2.5,-6 -5.7,-6.5z" class="st10"/>
    <path stroke="null" id="svg_16" d="m96.7,-75.5236l-2.8,0.4c-3.2,0.5 -5.6,3.2 -5.6,6.5l0,8.1l-11.9,0c-7.3,0 -13.2,5.9 -13.2,13.2c0,0 0,0 0,0l0,17.7c0,7.3 5.9,13.2 13.2,13.2l12.2,0l1.9,0c1,0.7 2.2,1.3 3.4,1.5l2.8,0.4c1.6,0.3 3.2,-0.8 3.5,-2.4c0,-0.2 0,-0.4 0,-0.6l0,-55c0,-1.7 -1.3,-3 -3,-3c-0.2,0 -0.4,0 -0.5,0zm-21.5,44.3l0,-14.5c0,-3.7 3,-6.7 6.7,-6.7l6.3,0l0,27.9l-6.3,0c-3.7,0 -6.7,-3 -6.7,-6.7c0,0 0,0 0,0z" class="st10"/>
    <path stroke="null" id="svg_17" d="m247.8,-1.4236l2.8,-0.4c3.2,-0.4 5.6,-3.2 5.6,-6.4l0,-8.2l11.8,0c7.3,0 13.2,-5.9 13.2,-13.2c0,0 0,0 0,0l0,-17.7c0,-7.3 -5.9,-13.2 -13.2,-13.2c0,0 0,0 0,0l-12.2,0l-1.8,0c-0.9,-0.8 -2.1,-1.4 -3.4,-1.5l-2.8,-0.5c-1.6,-0.3 -3.2,0.8 -3.5,2.4c0,0.2 0,0.4 0,0.6l0,55.1c0,1.7 1.3,3 2.9,3.1c0.2,0 0.4,0 0.6,-0.1zm21.4,-44.3l0,14.5c0,3.7 -3,6.7 -6.7,6.7l0,0l-6.3,0l0,-27.9l6.3,0c3.7,0 6.7,3 6.7,6.7z" class="st10"/>
    <path stroke="null" id="svg_18" d="m176.7,-60.5236c-11.6,0 -20.9,4.4 -20.9,22s9.4,22 20.9,22s20.9,-4.4 20.9,-22s-9.3,-22 -20.9,-22zm0,36.3c-4.5,0 -8.1,-1.5 -8.1,-14.3s3.6,-14.3 8.1,-14.3s8.1,1.5 8.1,14.3s-3.6,14.3 -8.1,14.3z" class="st10"/>
    <path stroke="null" id="svg_19" d="m220.8,-60.5236c-11.6,0 -20.9,4.4 -20.9,22s9.4,22 20.9,22s20.9,-4.4 20.9,-22s-9.3,-22 -20.9,-22zm0,36.3c-4.5,0 -8.1,-1.5 -8.1,-14.3s3.6,-14.3 8.1,-14.3s8.1,1.5 8.1,14.3s-3.6,14.3 -8.1,14.3z" class="st10"/>
    <path stroke="null" id="svg_20" d="m125.7,-43.0236l-5.6,0c-2.5,0 -4.5,-2 -4.5,-4.5c0,-2.7 2.2,-4.9 4.9,-4.9l9.3,0c3.7,0 6.9,-2.5 7.9,-6c0.2,-0.7 0.5,-2.1 -2,-2.1l-19.7,0c-6.8,0 -12.3,5.5 -12.3,12.3l0,1c0.1,6.8 5.6,12.3 12.3,12.3l6.5,0c2.7,0 4.8,2.1 4.8,4.8c0,0 0,0 0,0c0,3 -2.4,5.5 -5.4,5.5c0,0 0,0 0,0l-10.4,0l-0.6,0c-3.5,0.2 -6.4,2.7 -7.3,6c-0.2,0.7 -0.5,2.1 2,2.1l20.8,0c7.2,0 13,-5.8 13,-13c-0.1,-7.4 -6.2,-13.5 -13.7,-13.5z" class="st10"/>
    <path stroke="null" id="svg_21" d="m153.5,-68.6236c0,-3.3 -2.4,-6 -5.6,-6.5l-2.8,-0.4c-1.6,-0.3 -3.2,0.8 -3.5,2.4c0,0.2 0,0.4 0,0.6l0,55.1c0,1.7 1.3,3 3,3c0.2,0 0.4,0 0.6,0l2.8,-0.4c3.2,-0.5 5.6,-3.2 5.6,-6.5l0,-47.3l-0.1,0z" class="st10"/>
    <path stroke="null" id="svg_22" d="m116.7,10.1764l13.3,0l0,1.4l-11.7,0l0,10l10,0l0,1.4l-10,0l0,11.9l-1.6,0l0,-24.7z" class="st11"/>
    <path stroke="null" id="svg_23" d="m130.9,25.8764c0,-6 3.7,-9.5 8.1,-9.5s8,3.5 8,9.5s-3.7,9.4 -8,9.4s-8.1,-3.5 -8.1,-9.4zm14.5,0c0,-4.8 -2.8,-8.1 -6.4,-8.1s-6.4,3.3 -6.4,8.1s2.8,8 6.4,8s6.4,-3.2 6.4,-8z" class="st11"/>
    <path stroke="null" id="svg_24" d="m150.9,16.8764l1.3,0l0.2,3.4l0.1,0c1.2,-2.2 3,-3.8 5.1,-3.8c0.6,0 1.2,0.1 1.8,0.4l-0.4,1.3c-0.5,-0.2 -1,-0.2 -1.5,-0.2c-1.6,0 -3.6,1.2 -4.9,4.6l0,12.3l-1.5,0l0,-18l-0.2,0z" class="st11"/>
    <path stroke="null" id="svg_25" d="m172.7,11.5764l-7.9,0l0,-1.4l17.4,0l0,1.4l-7.9,0l0,23.3l-1.6,0l0,-23.3z" class="st11"/>
    <path stroke="null" id="svg_26" d="m181.5,25.8764c0,-5.9 3.8,-9.5 7.8,-9.5c4.2,0 6.9,3 6.9,8.3c0,0.5 0,0.9 -0.1,1.3l-13,0c0,4.6 2.7,7.9 6.8,7.9c1.7,0 3.4,-0.5 4.9,-1.5l0.6,1c-1.6,1.2 -3.6,1.8 -5.6,1.8c-4.6,0.1 -8.3,-3.5 -8.3,-9.3zm13.2,-1.2c0,-4.6 -2.1,-7 -5.4,-7c-3.1,0 -5.8,2.6 -6.2,7l11.6,0z" class="st11"/>
    <path stroke="null" id="svg_27" d="m197.6,30.3764c0,-4 3.6,-5.9 11.6,-6.8c0,-2.8 -0.7,-5.8 -4.3,-5.8c-2.1,0.1 -4.1,0.8 -5.8,2.1l-0.7,-1.1c1.9,-1.4 4.2,-2.3 6.6,-2.3c4.2,0 5.6,3.1 5.6,6.9l0,11.5l-1.3,0l-0.2,-2.4l-0.1,0c-1.8,1.5 -4,2.8 -6.4,2.8c-2.6,0 -5,-1.5 -5,-4.9zm11.7,0.6l0,-6.2c-7.5,0.9 -10.1,2.6 -10.1,5.5c0,2.6 1.8,3.6 3.9,3.6s3.9,-1 6.2,-2.9z" class="st11"/>
    <path stroke="null" id="svg_28" d="m214.2,25.8764c0,-6 3.8,-9.5 8.1,-9.5c2,0 3.9,0.8 5.3,2.2l-0.9,1c-1.1,-1.2 -2.7,-1.8 -4.4,-1.8c-3.7,0 -6.6,3.3 -6.6,8.1s2.6,8 6.6,8c1.8,0 3.5,-0.7 4.9,-2l0.8,1c-1.5,1.5 -3.6,2.4 -5.7,2.4c-4.5,0 -8.1,-3.5 -8.1,-9.4z" class="st11"/>
    <path stroke="null" id="svg_29" d="m231.1,7.8764l1.5,0l0,7.9l0,4c1.9,-1.9 3.8,-3.3 6.2,-3.3c3.7,0 5.4,2.2 5.4,6.9l0,11.5l-1.5,0l0,-11.4c0,-3.8 -1.2,-5.7 -4.1,-5.7c-2.2,0 -3.7,1.2 -5.9,3.4l0,13.6l-1.5,0l-0.1,-26.9z" class="st11"/>
    <path stroke="null" id="svg_30" d="m247.7,25.8764c0,-5.9 3.8,-9.5 7.8,-9.5c4.2,0 6.8,3 6.8,8.3c0,0.5 0,0.9 -0.1,1.3l-13,0c0,4.6 2.7,7.9 6.8,7.9c1.7,0 3.4,-0.5 4.9,-1.4l0.6,1c-1.6,1.2 -3.6,1.8 -5.6,1.8c-4.5,0 -8.2,-3.6 -8.2,-9.4zm13.2,-1.2c0,-4.6 -2.1,-7 -5.4,-7c-3.1,0 -5.8,2.6 -6.2,7l11.6,0z" class="st11"/>
    <path stroke="null" id="svg_31" d="m265.8,16.8764l1.3,0l0.2,3.4l0.1,0c1.2,-2.2 3,-3.8 5.1,-3.8c0.6,0 1.2,0.1 1.8,0.4l-0.4,1.3c-0.5,-0.2 -1,-0.2 -1.5,-0.2c-1.6,0 -3.6,1.2 -4.9,4.6l0,12.3l-1.5,0l-0.2,-18z" class="st11"/>
    <path stroke="null" id="svg_32" d="m273.9,32.7764l0.8,-1c1.6,1.4 3.7,2.2 5.8,2.1c2.9,0 4.4,-1.7 4.4,-3.6c0,-2.3 -2.3,-3.3 -4.4,-4c-2.8,-1 -5.6,-2.1 -5.6,-5.1c0,-2.6 2,-4.8 5.8,-4.8c1.9,0 3.7,0.7 5.1,1.9l-0.9,1c-1.2,-1 -2.7,-1.5 -4.3,-1.5c-2.8,0 -4.1,1.7 -4.1,3.3c0,2.1 1.9,2.8 4.1,3.7c2.8,1.1 5.9,2 5.9,5.5c0,2.7 -2.2,5.1 -6,5.1c-2.5,0 -4.9,-0.9 -6.6,-2.6z" class="st11"/>
   </g>
   <g stroke="null" id="svg_33">
    <g stroke="null" id="svg_34">
     <path stroke="null" id="svg_35" d="m31.2,19.7764l-5.9,0c-0.1,-0.6 -0.2,-1.2 -0.5,-1.7c-0.2,-0.5 -0.6,-0.9 -1,-1.3c-0.4,-0.3 -0.9,-0.6 -1.4,-0.8s-1.2,-0.3 -1.8,-0.3c-1.2,0 -2.2,0.3 -3.1,0.9s-1.5,1.4 -2,2.5s-0.7,2.4 -0.7,4c0,1.6 0.2,3 0.7,4.1s1.1,1.9 2,2.5c0.8,0.6 1.8,0.8 3,0.8c0.7,0 1.2,-0.1 1.8,-0.2c0.5,-0.2 1,-0.4 1.4,-0.7c0.4,-0.3 0.7,-0.7 1,-1.2c0.3,-0.5 0.4,-1 0.6,-1.6l5.9,0c-0.1,1.1 -0.4,2.1 -0.9,3.2c-0.5,1 -1.2,2 -2.1,2.9c-0.9,0.9 -2,1.5 -3.3,2.1c-1.3,0.5 -2.8,0.8 -4.5,0.8c-2.2,0 -4.2,-0.5 -5.9,-1.5c-1.7,-1 -3.1,-2.4 -4.1,-4.3c-1,-1.9 -1.5,-4.1 -1.5,-6.8c0,-2.7 0.5,-5 1.5,-6.8c1,-1.9 2.4,-3.3 4.2,-4.2s3.7,-1.5 5.9,-1.5c1.5,0 2.8,0.2 4.1,0.6c1.3,0.4 2.4,1 3.3,1.8s1.7,1.7 2.3,2.9c0.5,1 0.9,2.3 1,3.8z" class="st12"/>
     <path stroke="null" id="svg_36" d="m40.4,10.9764l0,24.4l-5.8,0l0,-24.4l5.8,0z" class="st12"/>
     <path stroke="null" id="svg_37" d="m49.2,35.5764c-1.2,0 -2.2,-0.2 -3.1,-0.6c-0.9,-0.4 -1.6,-1 -2.1,-1.8c-0.5,-0.8 -0.8,-1.8 -0.8,-3c0,-1 0.2,-1.9 0.5,-2.6c0.4,-0.7 0.8,-1.3 1.5,-1.7c0.6,-0.4 1.3,-0.8 2.2,-1c0.8,-0.2 1.7,-0.4 2.6,-0.5c1,-0.1 1.9,-0.2 2.5,-0.3c0.6,-0.1 1.1,-0.3 1.4,-0.5s0.4,-0.5 0.4,-0.9l0,-0.1c0,-0.6 -0.2,-1.1 -0.6,-1.4s-1,-0.5 -1.7,-0.5c-0.8,0 -1.4,0.2 -1.9,0.5s-0.8,0.8 -0.9,1.4l-5.4,-0.2c0.2,-1.1 0.6,-2.1 1.2,-3c0.7,-0.9 1.6,-1.6 2.7,-2.1c1.2,-0.5 2.6,-0.8 4.2,-0.8c1.2,0 2.2,0.1 3.2,0.4c1,0.3 1.8,0.7 2.6,1.2c0.7,0.5 1.3,1.2 1.7,1.9c0.4,0.8 0.6,1.6 0.6,2.6l0,12.4l-5.5,0l0,-2.5l-0.1,0c-0.3,0.6 -0.7,1.1 -1.2,1.6c-0.5,0.4 -1.1,0.8 -1.8,1s-1.3,0.5 -2.2,0.5zm1.8,-3.8c0.6,0 1.2,-0.1 1.7,-0.4c0.5,-0.3 0.9,-0.6 1.2,-1.1c0.3,-0.4 0.5,-1 0.5,-1.6l0,-1.7c-0.2,0.1 -0.4,0.2 -0.6,0.2s-0.5,0.3 -0.8,0.3c-0.3,0.1 -0.6,0.1 -0.9,0.2c-0.3,0 -0.6,0.1 -0.8,0.1c-0.5,0.1 -1,0.2 -1.4,0.4c-0.4,0.2 -0.7,0.4 -0.9,0.7c-0.2,0.3 -0.3,0.6 -0.3,1c0,0.6 0.2,1.1 0.6,1.4c0.5,0.4 1.1,0.5 1.7,0.5z" class="st12"/>
     <path stroke="null" id="svg_38" d="m79.7,22.5764l-5.3,0.1c-0.1,-0.4 -0.2,-0.7 -0.5,-1c-0.2,-0.3 -0.6,-0.5 -1,-0.7s-0.8,-0.3 -1.4,-0.3c-0.7,0 -1.2,0.1 -1.7,0.4c-0.5,0.3 -0.7,0.6 -0.7,1.1c0,0.4 0.1,0.7 0.4,0.9c0.3,0.3 0.8,0.5 1.6,0.6l3.5,0.7c1.8,0.3 3.2,0.9 4.1,1.7c0.9,0.8 1.3,1.9 1.4,3.2c0,1.3 -0.4,2.3 -1.1,3.3c-0.7,0.9 -1.7,1.6 -3,2.2c-1.3,0.5 -2.7,0.8 -4.4,0.8c-2.6,0 -4.7,-0.5 -6.2,-1.6c-1.5,-1.1 -2.4,-2.5 -2.6,-4.3l5.7,-0.1c0.1,0.7 0.5,1.2 1,1.5c0.5,0.3 1.2,0.5 2,0.5c0.7,0 1.4,-0.1 1.8,-0.4c0.5,-0.3 0.7,-0.6 0.7,-1.1c0,-0.4 -0.2,-0.7 -0.5,-1s-0.9,-0.4 -1.7,-0.6l-3.2,-0.6c-1.8,-0.3 -3.2,-1 -4.1,-1.8c-0.9,-0.9 -1.3,-2 -1.3,-3.4c0,-1.2 0.3,-2.3 1,-3.1c0.7,-0.9 1.6,-1.5 2.8,-2c1.2,-0.5 2.6,-0.7 4.3,-0.7c2.5,0 4.4,0.5 5.9,1.6c1.5,0.9 2.3,2.3 2.5,4.1z" class="st12"/>
     <path stroke="null" id="svg_39" d="m98.9,22.5764l-5.3,0.1c-0.1,-0.4 -0.2,-0.7 -0.5,-1c-0.2,-0.3 -0.6,-0.5 -1,-0.7s-0.8,-0.3 -1.4,-0.3c-0.7,0 -1.2,0.1 -1.7,0.4c-0.5,0.3 -0.7,0.6 -0.7,1.1c0,0.4 0.1,0.7 0.4,0.9c0.3,0.3 0.8,0.5 1.6,0.6l3.5,0.7c1.8,0.3 3.2,0.9 4.1,1.7c0.9,0.8 1.3,1.9 1.4,3.2c0,1.3 -0.4,2.3 -1.1,3.3c-0.7,0.9 -1.7,1.6 -3,2.2c-1.3,0.5 -2.7,0.8 -4.4,0.8c-2.6,0 -4.7,-0.5 -6.2,-1.6c-1.5,-1.1 -2.4,-2.5 -2.6,-4.3l5.7,-0.1c0.1,0.7 0.5,1.2 1,1.5c0.5,0.3 1.2,0.5 2,0.5c0.7,0 1.4,-0.1 1.8,-0.4c0.5,-0.3 0.7,-0.6 0.7,-1.1c0,-0.4 -0.2,-0.7 -0.5,-1s-0.9,-0.4 -1.7,-0.6l-3.2,-0.6c-1.8,-0.3 -3.2,-1 -4.1,-1.8c-0.9,-0.9 -1.3,-2 -1.3,-3.4c0,-1.2 0.3,-2.3 1,-3.1c0.7,-0.9 1.6,-1.5 2.8,-2c1.2,-0.5 2.6,-0.7 4.3,-0.7c2.5,0 4.4,0.5 5.9,1.6c1.6,0.9 2.4,2.3 2.5,4.1z" class="st12"/>
    </g>
   </g>
  </g>
 </g>
</svg>