<svg width="291.96" height="45.43999999999999" xmlns="http://www.w3.org/2000/svg">
 <defs>
  <style>.cls-1{fill:#eda6c5;}.cls-2{fill:#fff;}.cls-3{fill:#5e9ed5;}.cls-4{fill:#66b0e1;}.cls-5{fill:#ffd857;}.cls-6{fill:#a9d0ee;}.cls-7{fill:#79bbe7;}.cls-8{fill:#e890ae;}.cls-9{fill:#87c9ef;}.cls-10{fill:#fff196;}.cls-11{fill:#c5e9fb;}.cls-12{fill:#669bd2;}.cls-13{fill:#8c8e90;}</style>
 </defs>
 <title>kidsloop_live_students</title>
 <g>
  <title>Layer 1</title>
  <rect stroke-width="99" fill="#ff7f00" id="svg_1" rx="18.96" height="37.92" width="106.97" y="3.90271" x="1.74728" class="cls-1"/>
  <path id="svg_2" d="m26.89728,10.38271l6.43,0l0,18.93l9.21,0l0,5.39l-15.64,0l0,-24.32z" class="cls-2"/>
  <path id="svg_3" d="m44.40728,10.46271a3.19,3.19 0 0 1 3.51,-3.22c2.1,0 3.52,1.27 3.52,3.22a3.19,3.19 0 0 1 -3.52,3.22a3.19,3.19 0 0 1 -3.51,-3.22zm0.3,5.53l6.43,0l0,18.71l-6.43,0l0,-18.71z" class="cls-2"/>
  <path id="svg_4" d="m52.26728,15.99271l6.43,0l2,8.16q0.67,2.81 1.35,5.84l0.15,0q0.67,-3 1.34,-5.84l2,-8.16l6.18,0l-5.91,18.71l-7.41,0l-6.13,-18.71z" class="cls-2"/>
  <path id="svg_5" d="m71.49728,25.38271c0,-6.06 4.41,-9.8 9,-9.8c5.53,0 8.15,4 8.15,9a13.48,13.48 0 0 1 -0.26,2.69l-10.68,0c0.6,2.25 2.24,3 4.34,3a8,8 0 0 0 3.89,-1.13l2,3.82a12.61,12.61 0 0 1 -6.81,2.17c-5.44,0.02 -9.63,-3.57 -9.63,-9.75zm11.67,-2.25c0,-1.42 -0.6,-2.69 -2.54,-2.69a3,3 0 0 0 -3,2.69l5.54,0z" class="cls-2"/>
  <path id="svg_26" d="m117.35728,10.05271l13.35,0l0,1.38l-11.74,0l0,10l10,0l0,1.39l-10,0l0,11.93l-1.61,0l0,-24.7z" class="cls-13"/>
  <path id="svg_27" d="m131.49728,25.76271c0,-6 3.74,-9.47 8.05,-9.47s8,3.48 8,9.47s-3.74,9.39 -8,9.39s-8.05,-3.44 -8.05,-9.39zm14.48,0c0,-4.79 -2.77,-8.08 -6.43,-8.08s-6.44,3.29 -6.44,8.08s2.77,8 6.44,8s6.43,-3.21 6.43,-8z" class="cls-13"/>
  <path id="svg_28" d="m151.51728,16.74271l1.31,0l0.19,3.37l0.07,0c1.2,-2.21 3,-3.82 5.09,-3.82a3.54,3.54 0 0 1 1.76,0.38l-0.41,1.35a4.59,4.59 0 0 0 -1.54,-0.23c-1.64,0 -3.55,1.23 -4.94,4.64l0,12.27l-1.53,0l0,-17.96z" class="cls-13"/>
  <path id="svg_29" d="m166.07728,31.38271l1,-1.09a9.61,9.61 0 0 0 7.29,3.37c3.82,0 6.21,-2.06 6.21,-5.05s-2,-4.12 -4.45,-5.2l-3.74,-1.68c-2.13,-1 -5,-2.47 -5,-6.14s3,-6 7.11,-6a9.39,9.39 0 0 1 6.85,2.92l-0.94,1.08a8,8 0 0 0 -5.91,-2.54c-3.29,0 -5.5,1.75 -5.5,4.49c0,2.91 2.47,4 4.27,4.79l3.78,1.68c2.73,1.23 5.2,2.73 5.2,6.51s-3.11,6.62 -7.86,6.62a10.62,10.62 0 0 1 -8.31,-3.76z" class="cls-13"/>
  <path id="svg_30" d="m185.37728,29.80271l0,-11.67l-2.76,0l0,-1.24l2.84,-0.15l0.19,-6l1.31,0l0,6l5.23,0l0,1.39l-5.27,0l0,11.78c0,2.32 0.56,3.89 3.06,3.89a5.24,5.24 0 0 0 2.29,-0.56l0.48,1.09a6.59,6.59 0 0 1 -2.95,0.82c-3.45,0 -4.42,-2.17 -4.42,-5.35z" class="cls-13"/>
  <path id="svg_31" d="m194.76728,28.27271l0,-11.53l1.54,0l0,11.34c0,3.85 1.23,5.69 4.15,5.69c2.17,0 3.74,-1.16 5.87,-3.75l0,-13.28l1.54,0l0,18l-1.31,0l-0.15,-3l-0.08,0c-1.79,2.1 -3.66,3.48 -6.13,3.48c-3.71,-0.07 -5.43,-2.31 -5.43,-6.95z" class="cls-13"/>
  <path id="svg_32" d="m211.83728,25.76271c0,-5.8 3.66,-9.47 8,-9.47c2.17,0 3.63,0.83 5.43,2.25l-0.07,-3.33l0,-7.45l1.53,0l0,26.94l-1.31,0l-0.15,-2.35l-0.11,0a8.41,8.41 0 0 1 -5.88,2.8c-4.53,0 -7.44,-3.33 -7.44,-9.39zm13.32,5l0,-10.72a7.56,7.56 0 0 0 -5.32,-2.36c-3.63,0 -6.4,3.55 -6.4,8.08c0,4.83 2.14,8 6,8c2.01,0.01 3.81,-1.04 5.72,-2.99l0,-0.01z" class="cls-13"/>
  <path id="svg_33" d="m230.61728,25.76271c0,-5.87 3.82,-9.47 7.82,-9.47c4.23,0 6.85,3 6.85,8.31a7.88,7.88 0 0 1 -0.08,1.35l-13,0c0,4.56 2.73,7.85 6.81,7.85a8.51,8.51 0 0 0 4.86,-1.45l0.64,1a9.27,9.27 0 0 1 -5.65,1.76c-4.55,0.04 -8.25,-3.48 -8.25,-9.35zm13.21,-1.16c0,-4.64 -2.14,-7 -5.39,-7c-3.07,0 -5.84,2.62 -6.21,7l11.6,0z" class="cls-13"/>
  <path id="svg_34" d="m248.68728,16.74271l1.31,0l0.19,2.81l0.07,0c1.84,-1.83 3.71,-3.26 6.18,-3.26c3.7,0 5.42,2.25 5.42,6.89l0,11.52l-1.53,0l0,-11.32c0,-3.82 -1.24,-5.69 -4.16,-5.69c-2.17,0 -3.74,1.16 -5.94,3.44l0,13.58l-1.54,0l0,-17.97z" class="cls-13"/>
  <path id="svg_35" d="m267.43728,29.80271l0,-11.67l-2.82,0l0,-1.24l2.84,-0.15l0.19,-6l1.31,0l0,6l5.24,0l0,1.39l-5.24,0l0,11.78c0,2.32 0.56,3.89 3.07,3.89a5.23,5.23 0 0 0 2.28,-0.56l0.49,1.09a6.59,6.59 0 0 1 -3,0.82c-3.39,0 -4.36,-2.17 -4.36,-5.35z" class="cls-13"/>
  <path id="svg_36" d="m274.50728,32.64271l0.82,-1a8.19,8.19 0 0 0 5.8,2.13c2.88,0 4.38,-1.68 4.38,-3.59c0,-2.28 -2.32,-3.29 -4.42,-4c-2.76,-1 -5.61,-2.06 -5.61,-5.12c0,-2.55 2,-4.76 5.76,-4.76a8,8 0 0 1 5.09,1.88l-0.86,1a6.72,6.72 0 0 0 -4.3,-1.5c-2.84,0 -4.12,1.65 -4.12,3.33c0,2.06 1.95,2.84 4.12,3.67c2.84,1.08 5.91,2 5.91,5.46c0,2.69 -2.17,5.05 -6,5.05a9,9 0 0 1 -6.57,-2.55z" class="cls-13"/>
 </g>
</svg>