<svg width="331" height="46" xmlns="http://www.w3.org/2000/svg" fill="none">
 <defs>
  <clipPath id="clip0">
   <rect id="svg_1" fill="white" height="141.44" width="369.96"/>
  </clipPath>
 </defs>
 <g>
  <title>Layer 1</title>
  <g id="svg_2" clip-path="url(#clip0)">
   <path id="svg_3" fill="#5E9ED5" d="m310.89114,-67.87906l10.07,-6c1.83,-1.1001 3.305,-2.7029 4.25,-4.6176c0.945,-1.9148 1.32,-4.0607 1.08,-6.1824l-1.71,-14.76l-10.63,6.47c-1.891,1.14601 -3.398,2.8287 -4.329,4.8339c-0.931,2.0052 -1.245,4.2421 -0.901,6.4261l2.17,13.83"/>
   <path id="svg_4" fill="#5E9ED5" d="m322.04114,-69.26906l-9.72,5.1c4.199,-0.3091 8.399,0.5933 12.1,2.6l15.88,8.59c3.187,1.6303 6.722,2.463 10.301,2.4264c3.579,-0.0366 7.096,-0.9413 10.249,-2.6364l10.73,-5.72l-1.85,-0.18c-3.671,-0.3396 -7.262,-1.2787 -10.63,-2.78l-17.29,-7.73c-3.09,-1.4751 -6.48,-2.2131 -9.904,-2.1558c-3.423,0.0572 -6.787,0.9082 -9.826,2.4858"/>
   <path id="svg_5" fill="#5E9ED5" d="m339.11114,-42.21906c-7.225,-1.4745 -13.739,-5.3516 -18.48,-11l-18.9,-22.22c-5.64,-6.86 -14.29,-8.72 -21.37,-5l-9.9,5.31l2.27,1c3.976,1.8476 7.327,4.8156 9.64,8.54l15.49,23.29c7.83,10.64 15.6,12.72 27.18,7.44l14.07,-7.43"/>
   <path id="svg_6" fill="#66B0E1" d="m295.08114,-57.33906c0.914,6.9425 3.187,13.6368 6.69,19.7c3.84,3.8 7.82,5.64 12.38,5.64c1.667,-0.0147 3.326,-0.233 4.94,-0.65c-7.2,-5.23 -13,-13.76 -15.9,-21.38c-2.936,-0.4134 -5.723,-1.5509 -8.11,-3.31"/>
   <path id="svg_7" fill="#FFD857" d="m332.24114,-71.75906c-0.48,0 -1,0 -1.43,0.05c-2.377,3.3502 -5.055,6.4765 -8,9.34c0.56,0.25 1.1,0.51 1.63,0.8l15.88,8.59c3.186,1.632 6.721,2.4656 10.301,2.429c3.58,-0.0366 7.097,-0.9422 10.249,-2.639l10.71,-5.72l-1.85,-0.18c-3.671,-0.3396 -7.262,-1.2787 -10.63,-2.78l-17.29,-7.73c-2.976,-1.4208 -6.232,-2.1588 -9.53,-2.16"/>
   <path id="svg_8" fill="#A9D0EE" d="m316.88114,-57.65906c-3.406,2.343 -7.417,3.6522 -11.55,3.77c-0.716,-0.0016 -1.43,-0.0483 -2.14,-0.14c2.86,7.62 8.7,16.15 15.9,21.38c2.044,-0.5312 4.036,-1.2475 5.95,-2.14l14.07,-7.43c-7.225,-1.4745 -13.739,-5.3516 -18.48,-11l-3.75,-4.39"/>
   <path id="svg_9" fill="#79BBE7" d="m287.97114,-82.28906c-2.394,0.0001 -4.758,0.5329 -6.92,1.56c0.31,1.16 0.64,2.29 1,3.37c3,9 7.48,16.07 13,20c-0.963,-6.4112 -1.004,-12.9273 -0.12,-19.35c0.19,-1.26 0.4,-2.51 0.65,-3.73c-2.362,-1.2213 -4.981,-1.8623 -7.64,-1.87"/>
   <path id="svg_10" fill="#E890AE" d="m324.58114,-99.43906l-10.63,6.47c-1.891,1.14601 -3.398,2.8287 -4.329,4.8339c-0.931,2.0052 -1.245,4.2421 -0.901,6.4261l0,0c4.575,-4.7636 10.43,-8.10129 16.86,-9.61l-1,-8.12z"/>
   <path id="svg_11" fill="#87C9EF" d="m295.58114,-80.43906c-0.25,1.22 -0.46,2.47 -0.65,3.73c-0.884,6.4227 -0.843,12.9388 0.12,19.35c2.387,1.7591 5.174,2.8966 8.11,3.31c-0.442,-1.1861 -0.823,-2.3944 -1.14,-3.62c-1.31,-5.2884 -0.847,-10.861 1.32,-15.86l-1.61,-1.91c-1.684,-2.0719 -3.778,-3.7741 -6.15,-5z"/>
   <path id="svg_12" fill="#EDA6C5" d="m325.58114,-91.31906c-6.417,1.51865 -12.258,4.8593 -16.82,9.62l2.17,13.82l10.07,-6c1.83,-1.1001 3.305,-2.7029 4.25,-4.6176c0.945,-1.9148 1.32,-4.0607 1.08,-6.1824l-0.75,-6.64z"/>
   <path id="svg_13" fill="#FFF196" d="m330.81114,-71.70906c-3.061,0.1954 -6.048,1.0264 -8.77,2.44l-9.72,5.1c0.53,0 1.07,-0.06 1.6,-0.06c3.053,0.0029 6.073,0.6361 8.87,1.86c2.945,-2.8634 5.623,-5.9898 8,-9.34"/>
   <path id="svg_14" fill="#C5E9FB" d="m303.37114,-73.50906c-2.167,4.999 -2.631,10.5716 -1.32,15.86c0.317,1.2256 0.697,2.4339 1.14,3.62c0.71,0.0917 1.424,0.1384 2.14,0.14c4.133,-0.1178 8.144,-1.427 11.55,-3.77l-13.51,-15.85z"/>
   <path id="svg_15" fill="#669BD2" d="m28.65114,-36.63906c-0.7229,-0.8961 -1.6367,-1.6196 -2.6746,-2.1178c-1.038,-0.4982 -2.174,-0.7586 -3.3254,-0.7622l1.31,0c1.3563,0.0017 2.6957,-0.3011 3.9194,-0.8861c1.2236,-0.585 2.3003,-1.4372 3.1506,-2.4939l11.78,-14.54c0.2194,-0.27 0.3576,-0.5967 0.3988,-0.9422c0.0412,-0.3454 -0.0164,-0.6955 -0.1661,-1.0095c-0.1497,-0.3141 -0.3854,-0.5792 -0.6796,-0.7648c-0.2943,-0.1855 -0.6352,-0.2838 -0.9831,-0.2835l-6.48,0c-1.3388,0.0002 -2.661,0.2972 -3.8714,0.8695c-1.2104,0.5723 -2.2789,1.4058 -3.1286,2.4405l-14.32,17.37l0,-28.08c0.0017,-1.5788 -0.5704,-3.1044 -1.6098,-4.2928c-1.03935,-1.1884 -2.4752,-1.9586 -4.04017,-2.1672l-2.83,-0.45c-0.43601,-0.0768 -0.8836,-0.0562 -1.31069,0.0604c-0.42708,0.1166 -0.82306,0.3263 -1.15953,0.614c-0.33648,0.2878 -0.6051,0.6464 -0.7866,1.0502c-0.1815,0.4038 -0.27138,0.8428 -0.26318,1.2854l0,54.35c-0.00643,0.4408 0.08437,0.8776 0.26595,1.2793c0.18157,0.4017 0.44944,0.7585 0.78456,1.0449c0.33513,0.2865 0.72926,0.4955 1.15435,0.6123c0.4251,0.1168 0.87071,0.1385 1.30514,0.0635l2.83,-0.44c3.29,-0.75 5.64997,-3.2 5.64997,-6.46l0,-15.62l17.14,17.72c0.7269,0.888 1.6426,1.6028 2.6805,2.0923c1.038,0.4896 2.172,0.7416 3.3195,0.7377l7.06,0c0.3488,0.0022 0.691,-0.0947 0.9867,-0.2795c0.2958,-0.1848 0.533,-0.4498 0.6839,-0.7642c0.1509,-0.3144 0.2093,-0.6653 0.1685,-1.0116c-0.0408,-0.3464 -0.1792,-0.674 -0.3991,-0.9447l-16.56,-17.28z"/>
   <path id="svg_16" fill="#669BD2" d="m55.58114,-59.00906l-3.89,-0.52c-0.43,-0.0653 -0.869,-0.0363 -1.2866,0.085c-0.4177,0.1213 -0.804,0.3319 -1.1321,0.6172c-0.3282,0.2854 -0.5904,0.6387 -0.7685,1.0355c-0.1781,0.3967 -0.2677,0.8274 -0.2628,1.2623l0,37.09c-0.0049,0.4349 0.0847,0.8656 0.2628,1.2624c0.1781,0.3967 0.4403,0.75 0.7685,1.0354c0.3281,0.2854 0.7144,0.496 1.1321,0.6172c0.4176,0.1213 0.8566,0.1503 1.2866,0.085l3.89,-0.47c1.5623,-0.2128 2.9945,-0.9845 4.0315,-2.1723c1.037,-1.1877 1.6084,-2.711 1.6085,-4.2877l0,-29.18c-0.0001,-1.5767 -0.5715,-3.1 -1.6085,-4.2877c-1.037,-1.1878 -2.4692,-1.9595 -4.0315,-2.1723l0,0z"/>
   <path id="svg_17" fill="#669BD2" d="m98.23114,-75.43906l-2.84,0.44c-1.5588,0.2208 -2.9863,0.9948 -4.0217,2.1808c-1.0355,1.186 -1.6099,2.7048 -1.6183,4.2792l0,8.1l-11.79,0c-1.732,0 -3.4471,0.3416 -5.0469,1.0054c-1.5998,0.6637 -3.053,1.6365 -4.2763,2.8626c-1.2234,1.2261 -2.1928,2.6815 -2.8529,4.2828c-0.6601,1.6014 -0.9979,3.3172 -0.9939,5.0492l0,17.74c0,3.4929 1.3875,6.8427 3.8574,9.3126c2.4699,2.4698 5.8197,3.8574 9.3126,3.8574l12.19,0l1.87,0c1.0074,0.7342 2.1542,1.2549 3.37,1.53l2.84,0.44c0.4344,0.075 0.88,0.0533 1.3051,-0.0635c0.4251,-0.1168 0.8193,-0.3258 1.1544,-0.6123c0.3351,-0.2864 0.603,-0.6432 0.7845,-1.0449c0.182,-0.4017 0.272,-0.8385 0.266,-1.2793l0,-55.08c0.006,-0.4408 -0.084,-0.8776 -0.266,-1.2793c-0.1815,-0.4018 -0.4494,-0.7585 -0.7845,-1.045c-0.3351,-0.2864 -0.7293,-0.4954 -1.1544,-0.6122c-0.4251,-0.1168 -0.8707,-0.1385 -1.3051,-0.0635l0,0zm-21.42,44.31l0,-14.49c0,-1.7664 0.7017,-3.4603 1.9507,-4.7093c1.249,-1.249 2.943,-1.9507 4.7093,-1.9507l6.28,0l0,27.84l-6.28,0c-0.8771,0 -1.7456,-0.1733 -2.5556,-0.5098c-0.81,-0.3366 -1.5455,-0.8299 -2.1644,-1.4515c-0.6188,-0.6216 -1.1088,-1.3593 -1.4417,-2.1708c-0.3329,-0.8115 -0.5023,-1.6808 -0.4983,-2.5579l0,0z"/>
   <path id="svg_18" fill="#669BD2" d="m249.37114,-1.30906l2.83,-0.45c1.562,-0.2085 2.996,-0.9777 4.033,-2.1642c1.038,-1.1865 1.609,-2.7096 1.607,-4.2858l0,-8.17l11.79,0c1.73,0 3.442,-0.3407 5.04,-1.0025c1.598,-0.6619 3.05,-1.632 4.273,-2.8549c1.223,-1.223 2.193,-2.6748 2.855,-4.2727c0.661,-1.5978 1.002,-3.3104 1.002,-5.0399l0,-17.74c-0.001,-1.7282 -0.343,-3.4392 -1.006,-5.0354c-0.662,-1.5961 -1.633,-3.0461 -2.856,-4.2672c-1.222,-1.2211 -2.674,-2.1894 -4.271,-2.8495c-1.597,-0.6601 -3.309,-0.9992 -5.037,-0.9979l-12.19,0l-1.86,0c-0.95,-0.8266 -2.122,-1.3553 -3.37,-1.52l-2.84,-0.48c-0.434,-0.075 -0.88,-0.0533 -1.305,0.0635c-0.425,0.1168 -0.819,0.3258 -1.154,0.6122c-0.336,0.2865 -0.603,0.6432 -0.785,1.045c-0.182,0.4017 -0.272,0.8385 -0.266,1.2793l0,55.12c-0.008,0.4416 0.082,0.8796 0.263,1.2825c0.181,0.403 0.448,0.761 0.784,1.0486c0.335,0.2875 0.73,0.4974 1.155,0.6148c0.426,0.1174 0.873,0.1393 1.308,0.0641l0,0zm21.42,-44.36l0,14.49c0,1.769 -0.703,3.4655 -1.954,4.7164c-1.25,1.2509 -2.947,1.9536 -4.716,1.9536l-6.28,0l0,-27.82l6.28,0c1.767,0 3.462,0.7013 4.713,1.9501c1.25,1.2487 1.954,2.9426 1.957,4.7099l0,0z"/>
   <path id="svg_19" fill="#669BD2" d="m178.29114,-60.43906c-11.57,0 -20.94,4.4 -20.94,22c0,17.6 9.37,22 20.94,22c11.57,0 20.94,-4.39 20.94,-22c0,-17.61 -9.38,-22 -20.94,-22zm0,36.32c-4.46,0 -8.08,-1.51 -8.08,-14.28c0,-12.77 3.62,-14.27 8.08,-14.27c4.46,0 8.07,1.51 8.07,14.27c0,12.76 -3.61,14.28 -8.07,14.28z"/>
   <path id="svg_20" fill="#669BD2" d="m222.41114,-60.43906c-11.56,0 -20.94,4.4 -20.94,22c0,17.6 9.38,22 20.94,22c11.56,0 20.94,-4.39 20.94,-22c0,-17.61 -9.37,-22 -20.94,-22zm0,36.32c-4.46,0 -8.07,-1.51 -8.07,-14.28c0,-12.77 3.61,-14.27 8.07,-14.27c4.46,0 8.08,1.51 8.08,14.27c0,12.76 -3.62,14.28 -8.08,14.28z"/>
   <path id="svg_21" fill="#669BD2" d="m127.26114,-42.90906l-5.57,0c-1.201,0 -2.354,-0.4773 -3.203,-1.3268c-0.85,-0.8495 -1.327,-2.0018 -1.327,-3.2032c0.003,-1.2881 0.516,-2.5228 1.426,-3.4336c0.911,-0.9109 2.146,-1.4238 3.434,-1.4264l9.29,0c1.784,-0.0058 3.517,-0.5954 4.935,-1.6789c1.417,-1.0834 2.441,-2.6011 2.915,-4.3211c0.18,-0.67 0.48,-2.11 -2,-2.11l-19.68,0c-3.272,0.0026 -6.409,1.3036 -8.723,3.6172c-2.313,2.3137 -3.614,5.4508 -3.617,8.7228l0,1c0.026,3.26 1.336,6.3783 3.646,8.6789c2.31,2.3006 5.434,3.5981 8.694,3.6111l6.54,0c0.634,-0.0013 1.262,0.1224 1.848,0.364c0.586,0.2417 1.118,0.5965 1.567,1.0442c0.448,0.4477 0.804,0.9795 1.047,1.565c0.243,0.5854 0.368,1.213 0.368,1.8468c0.005,0.723 -0.133,1.4399 -0.406,2.1094c-0.273,0.6695 -0.675,1.2783 -1.185,1.7914c-0.509,0.5131 -1.115,0.9204 -1.783,1.1983c-0.667,0.2779 -1.383,0.4209 -2.106,0.4209l-10.39,0l-0.55,0c-1.688,0.1197 -3.296,0.7617 -4.602,1.8368c-1.307,1.0752 -2.246,2.5302 -2.688,4.1632c-0.19,0.68 -0.49,2.11 2,2.11l20.77,0c3.448,0 6.754,-1.3696 9.192,-3.8076c2.438,-2.438 3.808,-5.7446 3.808,-9.1924c-0.018,-3.6081 -1.465,-7.062 -4.023,-9.6068c-2.557,-2.5447 -6.019,-3.9732 -9.627,-3.9732l0,0z"/>
   <path id="svg_22" fill="#669BD2" d="m155.10114,-68.57906c0,-1.5767 -0.572,-3.1 -1.608,-4.2877c-1.037,-1.1878 -2.47,-1.9595 -4.032,-2.1723l-2.83,-0.4c-0.434,-0.075 -0.88,-0.0533 -1.305,0.0635c-0.425,0.1168 -0.819,0.3258 -1.154,0.6122c-0.336,0.2865 -0.603,0.6432 -0.785,1.045c-0.182,0.4017 -0.272,0.8385 -0.266,1.2793l0,55.05c-0.006,0.4408 0.084,0.8776 0.266,1.2793c0.182,0.4017 0.449,0.7585 0.785,1.0449c0.335,0.2865 0.729,0.4955 1.154,0.6123c0.425,0.1168 0.871,0.1385 1.305,0.0635l2.83,-0.44c1.556,-0.2267 2.98,-1.0024 4.015,-2.1871c1.034,-1.1847 1.61,-2.7003 1.625,-4.2729l0,-47.29z"/>
   <path id="svg_23" fill="#8C8E90" d="m154.32114,10.23094l13.35,0l0,1.38l-11.74,0l0,10l10,0l0,1.39l-10,0l0,11.93l-1.61,0l0,-24.7z"/>
   <path id="svg_24" fill="#8C8E90" d="m168.46114,25.94094c0,-6 3.74,-9.47 8.05,-9.47c4.31,0 8,3.48 8,9.47c0,5.99 -3.74,9.39 -8,9.39c-4.26,0 -8.05,-3.44 -8.05,-9.39zm14.48,0c0,-4.79 -2.77,-8.08 -6.43,-8.08c-3.66,0 -6.44,3.29 -6.44,8.08c0,4.79 2.77,8 6.44,8c3.67,0 6.43,-3.21 6.43,-8l0,0z"/>
   <path id="svg_25" fill="#8C8E90" d="m188.48114,16.92094l1.31,0l0.19,3.37l0.07,0c1.2,-2.21 3,-3.82 5.09,-3.82c0.61,-0.027 1.216,0.104 1.76,0.38l-0.41,1.35c-0.496,-0.164 -1.017,-0.242 -1.54,-0.23c-1.64,0 -3.55,1.23 -4.94,4.64l0,12.27l-1.53,0l0,-17.96z"/>
   <path id="svg_26" fill="#8C8E90" d="m203.04114,31.56094l1,-1.09c0.9,1.054 2.018,1.901 3.276,2.483c1.258,0.582 2.628,0.884 4.014,0.887c3.82,0 6.21,-2.06 6.21,-5.05c0,-2.99 -2,-4.12 -4.45,-5.2l-3.74,-1.68c-2.13,-1 -5,-2.47 -5,-6.14c0,-3.67 3,-6 7.11,-6c1.281,-0.006 2.549,0.25 3.727,0.752c1.178,0.502 2.241,1.24 3.123,2.168l-0.94,1.08c-0.756,-0.809 -1.671,-1.453 -2.688,-1.89c-1.018,-0.437 -2.115,-0.659 -3.222,-0.65c-3.29,0 -5.5,1.75 -5.5,4.49c0,2.91 2.47,4 4.27,4.79l3.78,1.68c2.73,1.23 5.2,2.73 5.2,6.51c0,3.78 -3.11,6.62 -7.86,6.62c-1.577,0.03 -3.142,-0.292 -4.579,-0.942c-1.438,-0.651 -2.712,-1.613 -3.731,-2.818z"/>
   <path id="svg_27" fill="#8C8E90" d="m222.34114,29.98094l0,-11.67l-2.76,0l0,-1.24l2.84,-0.15l0.19,-6l1.31,0l0,6l5.23,0l0,1.39l-5.27,0l0,11.78c0,2.32 0.56,3.89 3.06,3.89c0.796,-0.01 1.579,-0.202 2.29,-0.56l0.48,1.09c-0.905,0.501 -1.916,0.782 -2.95,0.82c-3.45,0 -4.42,-2.17 -4.42,-5.35z"/>
   <path id="svg_28" fill="#8C8E90" d="m231.73114,28.45094l0,-11.53l1.54,0l0,11.34c0,3.85 1.23,5.69 4.15,5.69c2.17,0 3.74,-1.16 5.87,-3.75l0,-13.28l1.54,0l0,18l-1.31,0l-0.15,-3l-0.08,0c-1.79,2.1 -3.66,3.48 -6.13,3.48c-3.71,-0.07 -5.43,-2.31 -5.43,-6.95z"/>
   <path id="svg_29" fill="#8C8E90" d="m248.80114,25.94094c0,-5.8 3.66,-9.47 8,-9.47c2.17,0 3.63,0.83 5.43,2.25l-0.07,-3.33l0,-7.45l1.53,0l0,26.94l-1.31,0l-0.15,-2.35l-0.11,0c-0.745,0.834 -1.648,1.512 -2.658,1.992c-1.01,0.481 -2.105,0.756 -3.222,0.808c-4.53,0 -7.44,-3.33 -7.44,-9.39zm13.32,5l0,-10.72c-0.687,-0.725 -1.511,-1.307 -2.424,-1.712c-0.913,-0.406 -1.897,-0.626 -2.896,-0.648c-3.63,0 -6.4,3.55 -6.4,8.08c0,4.83 2.14,8 6,8c2.01,0.01 3.81,-1.04 5.72,-2.99l0,-0.01z"/>
   <path id="svg_30" fill="#8C8E90" d="m267.58114,25.94094c0,-5.87 3.82,-9.47 7.82,-9.47c4.23,0 6.85,3 6.85,8.31c0.012,0.451 -0.015,0.903 -0.08,1.35l-13,0c0,4.56 2.73,7.85 6.81,7.85c1.73,0.022 3.425,-0.484 4.86,-1.45l0.64,1c-1.64,1.188 -3.625,1.806 -5.65,1.76c-4.55,0.04 -8.25,-3.48 -8.25,-9.35zm13.21,-1.16c0,-4.64 -2.14,-7 -5.39,-7c-3.07,0 -5.84,2.62 -6.21,7l11.6,0z"/>
   <path id="svg_31" fill="#8C8E90" d="m285.65114,16.92094l1.31,0l0.19,2.81l0.07,0c1.84,-1.83 3.71,-3.26 6.18,-3.26c3.7,0 5.42,2.25 5.42,6.89l0,11.52l-1.53,0l0,-11.32c0,-3.82 -1.24,-5.69 -4.16,-5.69c-2.17,0 -3.74,1.16 -5.94,3.44l0,13.58l-1.54,0l0,-17.97z"/>
   <path id="svg_32" fill="#8C8E90" d="m304.40114,29.98094l0,-11.67l-2.82,0l0,-1.24l2.84,-0.15l0.19,-6l1.31,0l0,6l5.24,0l0,1.39l-5.24,0l0,11.78c0,2.32 0.56,3.89 3.07,3.89c0.793,-0.011 1.572,-0.203 2.28,-0.56l0.49,1.09c-0.92,0.509 -1.949,0.79 -3,0.82c-3.39,0 -4.36,-2.17 -4.36,-5.35z"/>
   <path id="svg_33" fill="#8C8E90" d="m311.47114,32.82094l0.82,-1c1.581,1.44 3.663,2.204 5.8,2.13c2.88,0 4.38,-1.68 4.38,-3.59c0,-2.28 -2.32,-3.29 -4.42,-4c-2.76,-1 -5.61,-2.06 -5.61,-5.12c0,-2.55 2,-4.76 5.76,-4.76c1.864,0.015 3.664,0.679 5.09,1.88l-0.86,1c-1.215,-0.985 -2.736,-1.516 -4.3,-1.5c-2.84,0 -4.12,1.65 -4.12,3.33c0,2.06 1.95,2.84 4.12,3.67c2.84,1.08 5.91,2 5.91,5.46c0,2.69 -2.17,5.05 -6,5.05c-1.21,0.039 -2.416,-0.167 -3.545,-0.605c-1.129,-0.438 -2.158,-1.1 -3.025,-1.945l0,0z"/>
   <rect id="svg_34" fill="#FFD857" rx="18.5" height="37" width="142" y="4.56094" x="2.58114"/>
   <path id="svg_35" fill="white" d="m43.98734,27.62294c0,1.417 -0.3593,2.678 -1.0781,3.782c-0.7187,1.094 -1.7552,1.948 -3.1093,2.562c-1.3542,0.604 -2.9428,0.906 -4.7657,0.906c-1.5208,0 -2.7969,-0.104 -3.8281,-0.312c-1.0312,-0.219 -2.1042,-0.594 -3.2188,-1.125l0,-5.5c1.1771,0.604 2.4011,1.078 3.6719,1.422c1.2709,0.333 2.4375,0.5 3.5,0.5c0.9167,0 1.5886,-0.156 2.0157,-0.469c0.427,-0.323 0.6406,-0.734 0.6406,-1.234c0,-0.313 -0.0886,-0.584 -0.2656,-0.813c-0.1667,-0.239 -0.4428,-0.479 -0.8282,-0.719c-0.375,-0.239 -1.3854,-0.729 -3.0312,-1.468c-1.4896,-0.677 -2.6094,-1.334 -3.3594,-1.969c-0.7396,-0.635 -1.2917,-1.365 -1.6562,-2.187c-0.3542,-0.823 -0.5313,-1.797 -0.5313,-2.922c0,-2.105 0.7656,-3.745 2.2969,-4.922c1.5312,-1.177 3.6354,-1.766 6.3125,-1.766c2.3646,0 4.776,0.547 7.2343,1.641l-1.8906,4.765c-2.1354,-0.979 -3.9791,-1.468 -5.5312,-1.468c-0.8021,0 -1.3854,0.14 -1.75,0.422c-0.3646,0.281 -0.5469,0.63 -0.5469,1.046c0,0.448 0.2292,0.849 0.6875,1.204c0.4688,0.354 1.7292,1 3.7812,1.937c1.9688,0.885 3.3334,1.839 4.0938,2.859c0.7708,1.011 1.1562,2.287 1.1562,3.828zm11.8438,2.422c0.8229,0 1.8073,-0.203 2.9531,-0.609l0,4.453c-0.8229,0.354 -1.6093,0.604 -2.3593,0.75c-0.7396,0.156 -1.6094,0.234 -2.6094,0.234c-2.0521,0 -3.5313,-0.5 -4.4375,-1.5c-0.9063,-1.01 -1.3594,-2.557 -1.3594,-4.64l0,-7.297l-2.1406,0l0,-2.484l2.7187,-1.922l1.5782,-3.719l4,0l0,3.547l4.3437,0l0,4.578l-4.3437,0l0,6.891c0,1.145 0.552,1.718 1.6562,1.718zm18.6562,4.516l-0.7656,-2.203l-0.3594,0c-0.5104,0.812 -1.2239,1.437 -2.1406,1.875c-0.9062,0.427 -1.9739,0.64 -3.2031,0.64c-1.9479,0 -3.4635,-0.562 -4.5469,-1.687c-1.0833,-1.135 -1.625,-2.734 -1.625,-4.797l0,-11.531l6.1094,0l0,9.672c0,1.156 0.1615,2.031 0.4844,2.625c0.3333,0.594 0.875,0.89 1.625,0.89c1.0521,0 1.8021,-0.411 2.25,-1.234c0.4479,-0.833 0.6718,-2.234 0.6718,-4.203l0,-7.75l6.1094,0l0,17.703l-4.6094,0zm14.3282,0.312c-1.2604,0 -2.3646,-0.359 -3.3125,-1.078c-0.9375,-0.718 -1.6667,-1.776 -2.1875,-3.172c-0.5104,-1.395 -0.7656,-3.026 -0.7656,-4.89c0,-2.875 0.5781,-5.125 1.7343,-6.75c1.1563,-1.625 2.7448,-2.438 4.7657,-2.438c0.9895,0 1.8541,0.198 2.5937,0.594c0.75,0.396 1.4323,1.063 2.0469,2l0.125,0c-0.1979,-1.385 -0.2969,-2.771 -0.2969,-4.156l0,-4.734l6.1563,0l0,24.312l-4.6094,0l-1.3125,-2.234l-0.2344,0c-1.0521,1.698 -2.6198,2.546 -4.7031,2.546zm2.5,-4.828c0.9791,0 1.6666,-0.307 2.0625,-0.922c0.4062,-0.614 0.625,-1.562 0.6562,-2.843l0,-0.485c0,-1.562 -0.2239,-2.672 -0.6719,-3.328c-0.4479,-0.666 -1.151,-1 -2.1093,-1c-0.8021,0 -1.4271,0.38 -1.875,1.141c-0.4375,0.75 -0.6563,1.823 -0.6563,3.219c0,1.375 0.224,2.422 0.6719,3.14c0.4479,0.719 1.0885,1.078 1.9219,1.078zm10.4536,-13.187l6.437,0l3,10.156c0.146,0.531 0.245,1.172 0.297,1.922l0.125,0c0.083,-0.719 0.208,-1.349 0.375,-1.891l3.078,-10.187l6.234,0l-7,18.828c-0.895,2.396 -2,4.089 -3.312,5.078c-1.302,0.99 -3.005,1.485 -5.11,1.485c-0.812,0 -1.645,-0.089 -2.5,-0.266l0,-4.797c0.553,0.125 1.183,0.187 1.891,0.187c0.542,0 1.016,-0.104 1.422,-0.312c0.406,-0.208 0.76,-0.505 1.063,-0.891c0.302,-0.375 0.624,-0.994 0.968,-1.859l-6.968,-17.453z"/>
  </g>
 </g>
</svg>