<svg width="288.96" height="45.440000000000005" xmlns="http://www.w3.org/2000/svg">
 <defs>
  <style>.cls-1{fill:#5e9ed5;}.cls-2{fill:#fff;}.cls-3{fill:#66b0e1;}.cls-4{fill:#ffd857;}.cls-5{fill:#a9d0ee;}.cls-6{fill:#79bbe7;}.cls-7{fill:#e890ae;}.cls-8{fill:#87c9ef;}.cls-9{fill:#eda6c5;}.cls-10{fill:#fff196;}.cls-11{fill:#c5e9fb;}.cls-12{fill:#669bd2;}.cls-13{fill:#8c8e90;}</style>
 </defs>
 <title>kidsloop_live_teachers</title>
 <g>
  <title>Layer 1</title>
  <rect id="svg_1" rx="18.96" height="37.92" width="106.97" y="3.51838" x="1.13" class="cls-1"/>
  <path id="svg_2" d="m26.28,9.99838l6.43,0l0,18.93l9.21,0l0,5.39l-15.64,0l0,-24.32z" class="cls-2"/>
  <path id="svg_3" d="m43.79,10.07838a3.19,3.19 0 0 1 3.51,-3.22c2.1,0 3.52,1.27 3.52,3.22s-1.42,3.21 -3.52,3.21a3.18,3.18 0 0 1 -3.51,-3.21zm0.3,5.53l6.43,0l0,18.71l-6.43,0l0,-18.71z" class="cls-2"/>
  <path id="svg_4" d="m51.65,15.60838l6.43,0l2,8.16q0.67,2.81 1.35,5.84l0.15,0q0.67,-3 1.34,-5.84l2,-8.16l6.18,0l-5.91,18.71l-7.41,0l-6.13,-18.71z" class="cls-2"/>
  <path id="svg_5" d="m70.88,24.99838c0,-6.06 4.41,-9.8 9,-9.8c5.53,0 8.15,4 8.15,9a13.57,13.57 0 0 1 -0.26,2.69l-10.68,0c0.6,2.25 2.24,3 4.34,3a8,8 0 0 0 3.89,-1.13l2,3.82a12.61,12.61 0 0 1 -6.81,2.17c-5.44,0.02 -9.63,-3.57 -9.63,-9.75zm11.67,-2.25c0,-1.42 -0.6,-2.69 -2.54,-2.69a3,3 0 0 0 -3,2.69l5.54,0z" class="cls-2"/>
  <path id="svg_26" d="m116.74,9.66838l13.35,0l0,1.38l-11.74,0l0,10l10,0l0,1.39l-10,0l0,11.93l-1.61,0l0,-24.7z" class="cls-13"/>
  <path id="svg_27" d="m130.88,25.37838c0,-6 3.74,-9.47 8.05,-9.47s8,3.48 8,9.47s-3.74,9.39 -8,9.39s-8.05,-3.44 -8.05,-9.39zm14.48,0c0,-4.79 -2.77,-8.08 -6.43,-8.08s-6.44,3.29 -6.44,8.08s2.77,8 6.44,8s6.43,-3.21 6.43,-8z" class="cls-13"/>
  <path id="svg_28" d="m150.9,16.35838l1.31,0l0.19,3.37l0.07,0c1.2,-2.21 3,-3.82 5.09,-3.82a3.54,3.54 0 0 1 1.76,0.38l-0.41,1.34a4.87,4.87 0 0 0 -1.54,-0.22c-1.64,0 -3.55,1.24 -4.94,4.64l0,12.27l-1.53,0l0,-17.96z" class="cls-13"/>
  <path id="svg_29" d="m172.68,11.04838l-7.86,0l0,-1.38l17.36,0l0,1.38l-7.9,0l0,23.27l-1.6,0l0,-23.27z" class="cls-13"/>
  <path id="svg_30" d="m181.47,25.37838c0,-5.87 3.82,-9.47 7.82,-9.47c4.23,0 6.85,3 6.85,8.31a7.88,7.88 0 0 1 -0.08,1.35l-13,0c0,4.56 2.73,7.85 6.81,7.85a8.44,8.44 0 0 0 4.86,-1.46l0.64,1a9.3,9.3 0 0 1 -5.65,1.76c-4.55,0.05 -8.25,-3.47 -8.25,-9.34zm13.21,-1.16c0,-4.64 -2.14,-7 -5.39,-7c-3.07,0 -5.84,2.62 -6.21,7l11.6,0z" class="cls-13"/>
  <path id="svg_31" d="m197.63,29.86838c0,-4 3.63,-5.87 11.64,-6.77c0,-2.81 -0.71,-5.8 -4.27,-5.8a10.19,10.19 0 0 0 -5.76,2.06l-0.71,-1.13a11.54,11.54 0 0 1 6.62,-2.32c4.23,0 5.65,3.11 5.65,6.89l0,11.52l-1.31,0l-0.18,-2.36l-0.08,0c-1.83,1.5 -4,2.81 -6.4,2.81c-2.83,0 -5.2,-1.5 -5.2,-4.9zm11.64,0.64l0,-6.22c-7.52,0.9 -10.07,2.59 -10.07,5.5c0,2.62 1.8,3.63 3.9,3.63s3.9,-1.01 6.17,-2.91z" class="cls-13"/>
  <path id="svg_32" d="m214.25,25.37838c0,-6 3.81,-9.47 8.15,-9.47a7.17,7.17 0 0 1 5.28,2.25l-0.86,1a6,6 0 0 0 -4.38,-1.83c-3.7,0 -6.58,3.29 -6.58,8.08s2.61,8 6.58,8a7.21,7.21 0 0 0 4.86,-2l0.79,1a8.08,8.08 0 0 1 -5.72,2.39c-4.61,-0.03 -8.12,-3.47 -8.12,-9.42z" class="cls-13"/>
  <path id="svg_33" d="m231.05,7.37838l1.53,0l0,7.86l0,4c1.91,-1.87 3.78,-3.3 6.25,-3.3c3.71,0 5.43,2.25 5.43,6.89l0,11.52l-1.54,0l0,-11.35c0,-3.82 -1.23,-5.69 -4.15,-5.69c-2.17,0 -3.74,1.16 -5.95,3.44l0,13.58l-1.53,0l-0.04,-26.95z" class="cls-13"/>
  <path id="svg_34" d="m247.73,25.37838c0,-5.87 3.82,-9.47 7.82,-9.47c4.23,0 6.85,3 6.85,8.31a9,9 0 0 1 -0.07,1.35l-13,0c0,4.56 2.74,7.85 6.81,7.85a8.45,8.45 0 0 0 4.86,-1.42l0.63,1a9.25,9.25 0 0 1 -5.65,1.76c-4.54,0.01 -8.25,-3.51 -8.25,-9.38zm13.21,-1.16c0,-4.64 -2.13,-7 -5.39,-7c-3.06,0 -5.83,2.62 -6.21,7l11.6,0z" class="cls-13"/>
  <path id="svg_35" d="m265.81,16.35838l1.31,0l0.18,3.37l0.08,0c1.2,-2.21 2.95,-3.82 5.09,-3.82a3.53,3.53 0 0 1 1.75,0.38l-0.41,1.34a4.81,4.81 0 0 0 -1.53,-0.22c-1.65,0 -3.56,1.24 -4.94,4.64l0,12.27l-1.53,0l0,-17.96z" class="cls-13"/>
  <path id="svg_36" d="m273.85,32.25838l0.82,-1a8.19,8.19 0 0 0 5.8,2.13c2.88,0 4.38,-1.68 4.38,-3.59c0,-2.28 -2.32,-3.29 -4.41,-4c-2.77,-1 -5.62,-2.06 -5.62,-5.12c0,-2.55 2,-4.76 5.77,-4.76a7.94,7.94 0 0 1 5.08,1.88l-0.86,1a6.7,6.7 0 0 0 -4.3,-1.5c-2.84,0 -4.11,1.65 -4.11,3.33c0,2.06 1.94,2.84 4.11,3.67c2.84,1.08 5.91,2 5.91,5.46c0,2.69 -2.17,5.05 -6,5.05a9,9 0 0 1 -6.57,-2.55z" class="cls-13"/>
 </g>
</svg>