<svg width="335" height="37" viewBox="0 0 335 37" fill="none" xmlns="http://www.w3.org/2000/svg">
<rect width="157" height="37" rx="18.5" fill="#FFD857"/>
<path d="M20.7344 23.3311H27.8398C29.5221 23.3311 30.9941 22.9935 32.2559 22.3184C33.5176 21.6432 34.4971 20.6914 35.1943 19.4629C35.9027 18.2344 36.2568 16.7956 36.2568 15.1465V15.1133C36.2568 13.4753 35.9027 12.042 35.1943 10.8135C34.4971 9.58496 33.5176 8.63314 32.2559 7.95801C30.9941 7.27181 29.5221 6.92871 27.8398 6.92871H20.7344V10.8965H26.6113C28.0501 10.8965 29.168 11.2617 29.9648 11.9922C30.7728 12.7227 31.1768 13.7686 31.1768 15.1299V15.1631C31.1768 16.5244 30.7728 17.5758 29.9648 18.3174C29.168 19.0479 28.0501 19.4131 26.6113 19.4131H20.7344V23.3311ZM18.2109 30.8848H23.2246V6.92871H18.2109V30.8848Z" fill="white"/>
<path d="M38.8135 30.8848H43.6611V20.9238C43.6611 20.0605 43.8105 19.3301 44.1094 18.7324C44.4082 18.1348 44.8398 17.681 45.4043 17.3711C45.9688 17.0612 46.6494 16.9062 47.4463 16.9062C47.8005 16.9062 48.1325 16.9339 48.4424 16.9893C48.7523 17.0335 49.0068 17.0944 49.2061 17.1719V12.9053C49.029 12.8499 48.8187 12.8057 48.5752 12.7725C48.3317 12.7393 48.0771 12.7227 47.8115 12.7227C46.7712 12.7227 45.9023 13.027 45.2051 13.6357C44.5078 14.2445 44.0264 15.0967 43.7607 16.1924H43.6611V13.0879H38.8135V30.8848Z" fill="white"/>
<path d="M58.7354 31.25C60.0081 31.25 61.1149 31.084 62.0557 30.752C63.0075 30.4199 63.8099 29.9772 64.4629 29.4238C65.127 28.8704 65.6527 28.2617 66.04 27.5977C66.4274 26.9336 66.6875 26.2751 66.8203 25.6221L66.8701 25.4395H62.4209L62.3877 25.5391C62.277 25.8711 62.0667 26.1976 61.7568 26.5186C61.4469 26.8395 61.0485 27.1051 60.5615 27.3154C60.0745 27.5257 59.499 27.6309 58.835 27.6309C57.9938 27.6309 57.2689 27.4482 56.6602 27.083C56.0514 26.7067 55.5811 26.1699 55.249 25.4727C54.9281 24.7754 54.7676 23.9342 54.7676 22.9492V21.0732C54.7676 20.055 54.9281 19.1973 55.249 18.5C55.5811 17.7917 56.0348 17.2549 56.6104 16.8896C57.1969 16.5244 57.8665 16.3418 58.6191 16.3418C59.3717 16.3418 60.0303 16.5189 60.5947 16.873C61.1702 17.2272 61.6185 17.7585 61.9395 18.4668C62.2604 19.1641 62.4209 20.0329 62.4209 21.0732V22.9326L64.7285 20.0771H52.3604V23.1318H67.0195V21.6377C67.0195 19.8447 66.6709 18.2786 65.9736 16.9395C65.2874 15.6003 64.3079 14.5654 63.0352 13.835C61.7734 13.0934 60.2738 12.7227 58.5361 12.7227C56.7985 12.7227 55.2878 13.1045 54.0039 13.8682C52.7311 14.6208 51.7406 15.6943 51.0322 17.0889C50.335 18.4723 49.9863 20.1104 49.9863 22.0029V22.0195C49.9863 23.9121 50.335 25.5501 51.0322 26.9336C51.7406 28.3171 52.7477 29.3851 54.0537 30.1377C55.3597 30.8792 56.9202 31.25 58.7354 31.25Z" fill="white"/>
<path d="M73.5605 30.8848H79.0225L85.1318 13.0879H80.0684L76.3994 26.6016H76.2998L72.5811 13.0879H67.4014L73.5605 30.8848Z" fill="white"/>
<path d="M86.9248 30.8848H91.7725V13.0879H86.9248V30.8848ZM89.3486 10.7969C90.0791 10.7969 90.6934 10.5479 91.1914 10.0498C91.6895 9.55176 91.9385 8.95964 91.9385 8.27344C91.9385 7.57617 91.6895 6.98405 91.1914 6.49707C90.6934 5.99902 90.0791 5.75 89.3486 5.75C88.6182 5.75 88.0039 5.99902 87.5059 6.49707C87.0078 6.98405 86.7588 7.57617 86.7588 8.27344C86.7588 8.95964 87.0078 9.55176 87.5059 10.0498C88.0039 10.5479 88.6182 10.7969 89.3486 10.7969Z" fill="white"/>
<path d="M103.128 31.25C104.401 31.25 105.507 31.084 106.448 30.752C107.4 30.4199 108.202 29.9772 108.855 29.4238C109.52 28.8704 110.045 28.2617 110.433 27.5977C110.82 26.9336 111.08 26.2751 111.213 25.6221L111.263 25.4395H106.813L106.78 25.5391C106.67 25.8711 106.459 26.1976 106.149 26.5186C105.84 26.8395 105.441 27.1051 104.954 27.3154C104.467 27.5257 103.892 27.6309 103.228 27.6309C102.386 27.6309 101.661 27.4482 101.053 27.083C100.444 26.7067 99.9736 26.1699 99.6416 25.4727C99.3206 24.7754 99.1602 23.9342 99.1602 22.9492V21.0732C99.1602 20.055 99.3206 19.1973 99.6416 18.5C99.9736 17.7917 100.427 17.2549 101.003 16.8896C101.59 16.5244 102.259 16.3418 103.012 16.3418C103.764 16.3418 104.423 16.5189 104.987 16.873C105.563 17.2272 106.011 17.7585 106.332 18.4668C106.653 19.1641 106.813 20.0329 106.813 21.0732V22.9326L109.121 20.0771H96.7529V23.1318H111.412V21.6377C111.412 19.8447 111.063 18.2786 110.366 16.9395C109.68 15.6003 108.701 14.5654 107.428 13.835C106.166 13.0934 104.666 12.7227 102.929 12.7227C101.191 12.7227 99.6803 13.1045 98.3965 13.8682C97.1237 14.6208 96.1331 15.6943 95.4248 17.0889C94.7275 18.4723 94.3789 20.1104 94.3789 22.0029V22.0195C94.3789 23.9121 94.7275 25.5501 95.4248 26.9336C96.1331 28.3171 97.1403 29.3851 98.4463 30.1377C99.7523 30.8792 101.313 31.25 103.128 31.25Z" fill="white"/>
<path d="M117.289 30.8848H122.386L125.59 18.3008H125.689L128.91 30.8848H134.073L138.788 13.0879H134.007L131.301 26.2861H131.201L128.03 13.0879H123.382L120.228 26.2861H120.128L117.438 13.0879H112.558L117.289 30.8848Z" fill="white"/>
<path d="M163 30.3389H164.295V18.8008H175.883V17.6055H164.295V7.57812H176.879V6.38281H163V30.3389Z" fill="#8C8E90"/>
<path d="M185.611 30.6211C187.139 30.6211 188.478 30.2614 189.629 29.542C190.791 28.8226 191.693 27.7933 192.335 26.4541C192.988 25.1149 193.314 23.5322 193.314 21.7061V21.6729C193.314 19.8467 192.988 18.2695 192.335 16.9414C191.693 15.6133 190.791 14.5895 189.629 13.8701C188.478 13.1507 187.139 12.791 185.611 12.791C184.084 12.791 182.739 13.1507 181.577 13.8701C180.426 14.5895 179.53 15.6133 178.888 16.9414C178.246 18.2695 177.925 19.8467 177.925 21.6729V21.7061C177.925 23.5212 178.246 25.0983 178.888 26.4375C179.53 27.7767 180.426 28.806 181.577 29.5254C182.739 30.2448 184.084 30.61 185.611 30.6211ZM185.611 29.459C184.327 29.4479 183.204 29.1325 182.241 28.5127C181.289 27.8929 180.548 27.002 180.017 25.8398C179.485 24.6777 179.22 23.2998 179.22 21.7061V21.6729C179.22 20.0791 179.485 18.7067 180.017 17.5557C180.548 16.4046 181.289 15.5192 182.241 14.8994C183.204 14.2686 184.327 13.9531 185.611 13.9531C186.884 13.9531 188.002 14.263 188.965 14.8828C189.928 15.5026 190.675 16.3936 191.206 17.5557C191.748 18.7067 192.02 20.0791 192.02 21.6729V21.7061C192.02 23.2998 191.754 24.6777 191.223 25.8398C190.691 27.002 189.944 27.8984 188.981 28.5293C188.019 29.1491 186.895 29.459 185.611 29.459Z" fill="#8C8E90"/>
<path d="M196.286 30.3389H197.564V19.5977C197.564 18.502 197.742 17.5335 198.096 16.6924C198.45 15.8402 198.959 15.1816 199.623 14.7168C200.287 14.2409 201.073 14.0029 201.98 14.0029C202.39 14.0029 202.744 14.0417 203.043 14.1191C203.342 14.1855 203.58 14.263 203.757 14.3516V13.0732C203.602 13.0068 203.381 12.946 203.093 12.8906C202.805 12.8242 202.49 12.791 202.146 12.791C201.007 12.791 200.049 13.112 199.274 13.7539C198.5 14.3848 197.946 15.2702 197.614 16.4102H197.564V13.0732H196.286V30.3389Z" fill="#8C8E90"/>
<path d="M219.927 30.3389H221.222V7.57812H229.622V6.38281H211.526V7.57812H219.927V30.3389Z" fill="#8C8E90"/>
<path d="M234.835 30.6211C235.754 30.6211 236.6 30.5049 237.375 30.2725C238.161 30.029 238.858 29.6859 239.467 29.2432C240.076 28.8005 240.579 28.2692 240.978 27.6494C241.387 27.0186 241.68 26.3158 241.857 25.541L241.891 25.3916H240.596L240.562 25.5244C240.341 26.3324 239.97 27.0352 239.45 27.6328C238.941 28.2194 238.299 28.6732 237.524 28.9941C236.75 29.304 235.859 29.459 234.852 29.459C233.568 29.459 232.439 29.1602 231.465 28.5625C230.502 27.9648 229.749 27.0905 229.207 25.9395C228.676 24.7884 228.41 23.3828 228.41 21.7227V21.291C228.41 19.7858 228.676 18.4854 229.207 17.3896C229.738 16.2939 230.469 15.4473 231.398 14.8496C232.339 14.252 233.418 13.9531 234.636 13.9531C235.853 13.9531 236.927 14.252 237.856 14.8496C238.797 15.4362 239.528 16.2773 240.048 17.373C240.579 18.4688 240.845 19.7747 240.845 21.291V21.7227L241.509 20.8428H227.763V21.9219H242.106V21.3076C242.106 19.5811 241.791 18.0814 241.16 16.8086C240.54 15.5358 239.672 14.5508 238.554 13.8535C237.436 13.1452 236.13 12.791 234.636 12.791C233.153 12.791 231.847 13.1507 230.718 13.8701C229.589 14.5895 228.709 15.6188 228.078 16.958C227.447 18.2861 227.132 19.8688 227.132 21.7061V21.7227C227.132 23.5599 227.447 25.1481 228.078 26.4873C228.72 27.8154 229.617 28.8392 230.768 29.5586C231.919 30.2669 233.274 30.6211 234.835 30.6211Z" fill="#8C8E90"/>
<path d="M250.258 30.6211C251.221 30.6211 252.128 30.4551 252.98 30.123C253.833 29.791 254.569 29.3317 255.188 28.7451C255.819 28.1475 256.279 27.4668 256.566 26.7031H256.616V30.3389H257.878V18.668C257.878 17.4616 257.629 16.4212 257.131 15.5469C256.633 14.6615 255.924 13.9808 255.006 13.5049C254.087 13.029 252.997 12.791 251.735 12.791C250.518 12.791 249.439 12.9958 248.498 13.4053C247.568 13.8037 246.821 14.3792 246.257 15.1318C245.692 15.8844 245.338 16.792 245.194 17.8545L245.161 18.0537H246.39L246.423 17.8711C246.644 16.6094 247.22 15.641 248.149 14.9658C249.079 14.2907 250.274 13.9531 251.735 13.9531C253.263 13.9531 254.458 14.3792 255.321 15.2314C256.185 16.0837 256.616 17.2624 256.616 18.7676V23.9307C256.616 24.96 256.334 25.8952 255.77 26.7363C255.216 27.5775 254.475 28.2471 253.545 28.7451C252.615 29.2321 251.58 29.4756 250.44 29.4756C249.101 29.4756 248 29.1214 247.137 28.4131C246.273 27.7048 245.842 26.7972 245.842 25.6904V25.6738C245.842 24.5228 246.273 23.6208 247.137 22.9678C248 22.3037 249.234 21.9108 250.839 21.7891L257.247 21.3076V20.2617L250.656 20.7432C248.675 20.876 247.159 21.363 246.107 22.2041C245.067 23.0452 244.547 24.2018 244.547 25.6738V25.6904C244.547 26.6644 244.79 27.5221 245.277 28.2637C245.764 29.0052 246.434 29.5863 247.286 30.0068C248.149 30.4163 249.14 30.6211 250.258 30.6211Z" fill="#8C8E90"/>
<path d="M268.37 30.6211C269.576 30.6211 270.656 30.3997 271.607 29.957C272.57 29.5033 273.362 28.8835 273.981 28.0977C274.612 27.3008 275.022 26.3822 275.21 25.3418L275.243 25.1924H273.965L273.932 25.3418C273.655 26.5814 273.013 27.5775 272.006 28.3301C271.01 29.0827 269.798 29.459 268.37 29.459C267.097 29.459 265.979 29.1491 265.017 28.5293C264.065 27.8984 263.329 27.002 262.809 25.8398C262.288 24.6777 262.028 23.2998 262.028 21.7061V21.6895C262.028 20.1068 262.288 18.7399 262.809 17.5889C263.329 16.4268 264.059 15.5303 265 14.8994C265.952 14.2686 267.07 13.9531 268.354 13.9531C269.814 13.9531 271.043 14.3405 272.039 15.1152C273.046 15.8789 273.683 16.8639 273.948 18.0703L273.981 18.2197H275.26L275.227 18.0537C275.049 17.0576 274.651 16.1611 274.031 15.3643C273.411 14.5674 272.615 13.9421 271.641 13.4883C270.678 13.0234 269.582 12.791 268.354 12.791C266.815 12.791 265.47 13.1562 264.319 13.8867C263.179 14.6061 262.294 15.6354 261.663 16.9746C261.043 18.3027 260.733 19.8743 260.733 21.6895V21.7061C260.733 23.5212 261.043 25.0983 261.663 26.4375C262.294 27.7767 263.179 28.8115 264.319 29.542C265.459 30.2614 266.81 30.6211 268.37 30.6211Z" fill="#8C8E90"/>
<path d="M278.265 30.3389H279.543V20.0459C279.543 18.8395 279.781 17.7826 280.257 16.875C280.733 15.9674 281.397 15.2591 282.249 14.75C283.112 14.2298 284.103 13.9697 285.221 13.9697C286.881 13.9697 288.187 14.4678 289.139 15.4639C290.102 16.46 290.583 17.9043 290.583 19.7969V30.3389H291.861V19.6475C291.861 18.2197 291.601 16.9967 291.081 15.9785C290.572 14.9603 289.847 14.18 288.906 13.6377C287.965 13.0843 286.853 12.8076 285.569 12.8076C284.075 12.8076 282.802 13.1784 281.751 13.9199C280.7 14.6504 279.975 15.5911 279.576 16.7422H279.543V6.38281H278.265V30.3389Z" fill="#8C8E90"/>
<path d="M302.437 30.6211C303.355 30.6211 304.202 30.5049 304.977 30.2725C305.762 30.029 306.46 29.6859 307.068 29.2432C307.677 28.8005 308.181 28.2692 308.579 27.6494C308.989 27.0186 309.282 26.3158 309.459 25.541L309.492 25.3916H308.197L308.164 25.5244C307.943 26.3324 307.572 27.0352 307.052 27.6328C306.543 28.2194 305.901 28.6732 305.126 28.9941C304.351 29.304 303.46 29.459 302.453 29.459C301.169 29.459 300.04 29.1602 299.066 28.5625C298.104 27.9648 297.351 27.0905 296.809 25.9395C296.277 24.7884 296.012 23.3828 296.012 21.7227V21.291C296.012 19.7858 296.277 18.4854 296.809 17.3896C297.34 16.2939 298.07 15.4473 299 14.8496C299.941 14.252 301.02 13.9531 302.237 13.9531C303.455 13.9531 304.528 14.252 305.458 14.8496C306.399 15.4362 307.129 16.2773 307.649 17.373C308.181 18.4688 308.446 19.7747 308.446 21.291V21.7227L309.11 20.8428H295.364V21.9219H309.708V21.3076C309.708 19.5811 309.393 18.0814 308.762 16.8086C308.142 15.5358 307.273 14.5508 306.155 13.8535C305.037 13.1452 303.731 12.791 302.237 12.791C300.754 12.791 299.448 13.1507 298.319 13.8701C297.19 14.5895 296.311 15.6188 295.68 16.958C295.049 18.2861 294.733 19.8688 294.733 21.7061V21.7227C294.733 23.5599 295.049 25.1481 295.68 26.4873C296.322 27.8154 297.218 28.8392 298.369 29.5586C299.52 30.2669 300.876 30.6211 302.437 30.6211Z" fill="#8C8E90"/>
<path d="M312.663 30.3389H313.941V19.5977C313.941 18.502 314.118 17.5335 314.473 16.6924C314.827 15.8402 315.336 15.1816 316 14.7168C316.664 14.2409 317.45 14.0029 318.357 14.0029C318.767 14.0029 319.121 14.0417 319.42 14.1191C319.719 14.1855 319.957 14.263 320.134 14.3516V13.0732C319.979 13.0068 319.757 12.946 319.47 12.8906C319.182 12.8242 318.867 12.791 318.523 12.791C317.383 12.791 316.426 13.112 315.651 13.7539C314.877 14.3848 314.323 15.2702 313.991 16.4102H313.941V13.0732H312.663V30.3389Z" fill="#8C8E90"/>
<path d="M327.97 30.6211C329.198 30.6211 330.283 30.4163 331.224 30.0068C332.164 29.5973 332.9 29.0329 333.432 28.3135C333.974 27.583 334.245 26.7474 334.245 25.8066V25.79C334.245 24.5947 333.874 23.6484 333.133 22.9512C332.391 22.2428 331.174 21.6895 329.48 21.291L327.057 20.7266C325.684 20.4056 324.694 19.9906 324.085 19.4814C323.487 18.9613 323.188 18.2861 323.188 17.4561V17.4395C323.188 16.7643 323.382 16.1611 323.77 15.6299C324.157 15.0876 324.694 14.667 325.38 14.3682C326.077 14.0583 326.868 13.9033 327.754 13.9033C329.148 13.9033 330.283 14.2741 331.157 15.0156C332.032 15.7461 332.552 16.7201 332.718 17.9375L332.734 18.0537H333.979L333.963 17.9043C333.852 16.875 333.526 15.9785 332.983 15.2148C332.452 14.4512 331.744 13.859 330.858 13.4385C329.973 13.0068 328.938 12.791 327.754 12.791C326.625 12.791 325.618 12.9902 324.732 13.3887C323.847 13.7871 323.15 14.3405 322.641 15.0488C322.143 15.7461 321.894 16.554 321.894 17.4727V17.4893C321.894 18.6071 322.281 19.5202 323.056 20.2285C323.841 20.9258 325.048 21.4681 326.675 21.8555L329.099 22.4199C330.493 22.7409 331.484 23.167 332.07 23.6982C332.657 24.2184 332.95 24.9378 332.95 25.8564V25.873C332.95 26.5814 332.74 27.2122 332.319 27.7656C331.899 28.319 331.312 28.7507 330.56 29.0605C329.818 29.3594 328.949 29.5088 327.953 29.5088C326.492 29.5088 325.28 29.138 324.317 28.3965C323.354 27.6439 322.79 26.681 322.624 25.5078L322.607 25.3584H321.329L321.346 25.5078C321.456 26.5039 321.799 27.3893 322.375 28.1641C322.962 28.9277 323.731 29.5309 324.683 29.9736C325.634 30.4053 326.73 30.6211 327.97 30.6211Z" fill="#8C8E90"/>
</svg>
