<svg width="26" height="26" viewBox="0 0 26 26" fill="none" xmlns="http://www.w3.org/2000/svg">
<path d="M23.3001 25.6499H2.30009C1.30009 25.6499 0.800104 24.8499 0.700104 24.2499C0.600104 23.9499 0.600098 23.5499 0.600098 23.3499C0.600098 23.1499 0.800095 23.1499 0.800095 23.1499H23.2001C23.9001 23.1499 24.5001 23.7499 24.5001 24.4499C24.5001 25.1499 24.0001 25.6499 23.3001 25.6499Z" fill="#8E8E8E"/>
<path d="M24.0002 7.94999L10.7002 21.25C10.3002 21.65 9.80015 21.95 9.30015 22.05L2.10015 24.35C1.20015 24.65 0.400156 23.85 0.700156 22.95L3.00016 15.75C3.20016 15.25 3.40015 14.75 3.80015 14.35L17.1001 1.05C18.4001 -0.35 20.6002 -0.35 22.0002 1.05L23.9002 2.94999C25.4002 4.44999 25.4002 6.64999 24.0002 7.94999Z" fill="#8E8E8E"/>
<path d="M9.30014 22.1499C9.50014 22.0499 9.80015 21.9499 10.0002 21.7499L3.20015 15.1499C3.10015 15.3499 3.00015 15.5499 2.90015 15.8499L1.40015 20.4499L4.80014 23.5499L9.30014 22.1499Z" fill="#FFC720"/>
<path d="M4.9002 23.55L1.50021 20.45L0.700203 22.95C0.400203 23.85 1.3002 24.65 2.2002 24.45L4.9002 23.55Z" fill="#8E8E8E"/>
</svg>
