<svg xmlns="http://www.w3.org/2000/svg" width="46" height="44" fill="none" viewBox="0 0 46 44">
    <g clip-path="url(#clip0)">
        <path fill="#FD443C" d="M24.04 44.157c4.766-.045 6.93-1.88 7.664-2.704.1-.115.178-.25.23-.397.05-.148.075-.305.07-.463l-.202-17.471-.1-8.56c-.013-1.046-.302-2.068-.834-2.94L24.52 1.202c-.105-.172-.248-.314-.416-.411-.168-.098-.356-.148-.546-.146-.19.002-.376.055-.542.156-.166.1-.306.245-.408.42l-6.136 10.53c-.517.889-.787 1.924-.774 2.976l.082 6.974.222 19.046c.001.166.033.33.093.482.06.152.148.29.257.404.776.827 2.984 2.57 7.688 2.523zm-6.23-30.38l2.377-4.107c.044-.078.11-.138.19-.171.078-.033.165-.037.246-.01.978.296 1.99.436 3.005.415 1.014 0 2.023-.16 2.996-.472.08-.027.167-.024.246.008.079.032.146.09.192.167l2.457 4.06.02 2.071s-1.8 1.926-5.835 1.965c-4.03.038-5.873-1.852-5.873-1.852l-.02-2.075z"/>
    </g>
    <defs>
        <clipPath id="clip0">
            <path fill="#fff" d="M0 0H42V43.149H0z" transform="matrix(1 0 -0.0825651 0.996586 3.56274 0.373901)"/>
        </clipPath>
    </defs>
</svg>
