<svg width="25" height="26" viewBox="0 0 25 26" fill="none" xmlns="http://www.w3.org/2000/svg">
<path d="M22.7 25.6499H1.7C0.699997 25.6499 0.200006 24.8499 0.100006 24.2499C6.10203e-06 23.9499 0 23.5499 0 23.3499C0 23.1499 0.199997 23.1499 0.199997 23.1499H22.6C23.3 23.1499 23.9 23.7499 23.9 24.4499C23.9 25.1499 23.4 25.6499 22.7 25.6499Z" fill="#E63E3E"/>
<path d="M23.4001 7.94999L10.1001 21.25C9.70006 21.65 9.20005 21.95 8.70005 22.05L1.50005 24.35C0.600052 24.65 -0.199942 23.85 0.100058 22.95L2.40006 15.75C2.60006 15.25 2.80005 14.75 3.20005 14.35L16.5001 1.05C17.8001 -0.35 20.0001 -0.35 21.4001 1.05L23.3001 2.94999C24.8001 4.44999 24.8001 6.64999 23.4001 7.94999Z" fill="#E63E3E"/>
<path d="M8.70004 22.1499C8.90004 22.0499 9.20006 21.9499 9.40005 21.7499L2.60005 15.1499C2.50005 15.3499 2.40005 15.5499 2.30005 15.8499L0.800049 20.4499L4.20004 23.5499L8.70004 22.1499Z" fill="#FFC720"/>
<path d="M4.3001 23.55L0.900109 20.45L0.100105 22.95C-0.199895 23.85 0.700106 24.65 1.60011 24.45L4.3001 23.55Z" fill="#E63E3E"/>
</svg>
