<svg width="26" height="26" viewBox="0 0 26 26" fill="none" xmlns="http://www.w3.org/2000/svg">
<path d="M23.5 25.6499H2.50005C1.50005 25.6499 1.00005 24.8499 0.900055 24.2499C0.800055 23.9499 0.800049 23.5499 0.800049 23.3499C0.800049 23.1499 1.00005 23.1499 1.00005 23.1499H23.4001C24.1001 23.1499 24.7001 23.7499 24.7001 24.4499C24.7001 25.1499 24.2 25.6499 23.5 25.6499Z" fill="white"/>
<path d="M24.2001 7.94999L10.9001 21.25C10.5001 21.65 10.0001 21.95 9.5001 22.05L2.3001 24.35C1.4001 24.65 0.600107 23.85 0.900107 22.95L3.20011 15.75C3.40011 15.25 3.6001 14.75 4.0001 14.35L17.3001 1.05C18.6001 -0.35 20.8001 -0.35 22.2001 1.05L24.1001 2.94999C25.6001 4.44999 25.6001 6.64999 24.2001 7.94999Z" fill="white"/>
<path d="M24.2001 7.94999L10.9001 21.25C10.5001 21.65 10.0001 21.95 9.5001 22.05L2.3001 24.35C1.4001 24.65 0.600107 23.85 0.900107 22.95L3.20011 15.75C3.40011 15.25 3.6001 14.75 4.0001 14.35L17.3001 1.05C18.6001 -0.35 20.8001 -0.35 22.2001 1.05L24.1001 2.94999C25.6001 4.44999 25.6001 6.64999 24.2001 7.94999Z" fill="white"/>
<path d="M9.50009 22.1499C9.70009 22.0499 10.0001 21.9499 10.2001 21.7499L3.4001 15.1499C3.3001 15.3499 3.2001 15.5499 3.1001 15.8499L1.6001 20.4499L5.00009 23.5499L9.50009 22.1499Z" fill="#FFC720"/>
<path d="M5.10015 23.55L1.70016 20.45L0.900154 22.95C0.600154 23.85 1.50015 24.65 2.40015 24.45L5.10015 23.55Z" fill="white"/>
</svg>
