<?xml version="1.0" encoding="UTF-8" standalone="no"?>
<svg
   xmlns:osb="http://www.openswatchbook.org/uri/2009/osb"
   xmlns:dc="http://purl.org/dc/elements/1.1/"
   xmlns:cc="http://creativecommons.org/ns#"
   xmlns:rdf="http://www.w3.org/1999/02/22-rdf-syntax-ns#"
   xmlns:svg="http://www.w3.org/2000/svg"
   xmlns="http://www.w3.org/2000/svg"
   xmlns:xlink="http://www.w3.org/1999/xlink"
   xmlns:sodipodi="http://sodipodi.sourceforge.net/DTD/sodipodi-0.dtd"
   xmlns:inkscape="http://www.inkscape.org/namespaces/inkscape"
   width="46"
   height="44"
   fill="none"
   viewBox="0 0 46 44"
   version="1.1"
   id="svg70"
   sodipodi:docname="white.svg"
   inkscape:version="1.0.2 (e86c870879, 2021-01-15, custom)">
  <metadata
     id="metadata74">
    <rdf:RDF>
      <cc:Work
         rdf:about="">
        <dc:format>image/svg+xml</dc:format>
        <dc:type
           rdf:resource="http://purl.org/dc/dcmitype/StillImage" />
      </cc:Work>
    </rdf:RDF>
  </metadata>
  <sodipodi:namedview
     pagecolor="#ffffff"
     bordercolor="#666666"
     borderopacity="1"
     objecttolerance="10"
     gridtolerance="10"
     guidetolerance="10"
     inkscape:pageopacity="0"
     inkscape:pageshadow="2"
     inkscape:window-width="936"
     inkscape:window-height="1024"
     id="namedview72"
     showgrid="false"
     inkscape:zoom="10.956522"
     inkscape:cx="16.063492"
     inkscape:cy="22"
     inkscape:window-x="964"
     inkscape:window-y="16"
     inkscape:window-maximized="0"
     inkscape:current-layer="svg70" />
  <g
     clip-path="url(#clip0)"
     id="g63"
     style="stroke:url(#linearGradient2845);stroke-opacity:1;opacity:0.66591018;stroke-linejoin:round;stroke-linecap:round;paint-order:stroke markers fill">
    <path
       fill="#fff"
       d="M24.04 44.157c4.766-.045 6.93-1.88 7.664-2.704.1-.115.178-.25.23-.397.05-.148.075-.305.07-.463l-.202-17.471-.1-8.56c-.013-1.046-.302-2.068-.834-2.94L24.52 1.202c-.105-.172-.248-.314-.416-.411-.168-.098-.356-.148-.546-.146-.19.002-.376.055-.542.156-.166.1-.306.245-.408.42l-6.136 10.53c-.517.889-.787 1.924-.774 2.976l.082 6.974.222 19.046c.001.166.033.33.093.482.06.152.148.29.257.404.776.827 2.984 2.57 7.688 2.523zm-6.23-30.38l2.377-4.107c.044-.078.11-.138.19-.171.078-.033.165-.037.246-.01.978.296 1.99.436 3.005.415 1.014 0 2.023-.16 2.996-.472.08-.027.167-.024.246.008.079.032.146.09.192.167l2.457 4.06.02 2.071s-1.8 1.926-5.835 1.965c-4.03.038-5.873-1.852-5.873-1.852l-.02-2.075z"
       id="path61"
       style="stroke:url(#linearGradient2845);stroke-opacity:1;stroke-linejoin:round;stroke-linecap:round;paint-order:stroke markers fill" />
  </g>
  <defs
     id="defs68">
    <linearGradient
       id="linearGradient2843"
       osb:paint="solid">
      <stop
         style="stop-color:#000000;stop-opacity:1;"
         offset="0"
         id="stop2841" />
    </linearGradient>
    <clipPath
       id="clip0">
      <path
         fill="#fff"
         d="M0 0H42V43.149H0z"
         transform="matrix(1 0 -0.0825651 0.996586 3.56274 0.373901)"
         id="path65" />
    </clipPath>
    <linearGradient
       inkscape:collect="always"
       xlink:href="#linearGradient2843"
       id="linearGradient2845"
       x1="15.19755"
       y1="21.874746"
       x2="32.504631"
       y2="21.874746"
       gradientUnits="userSpaceOnUse" />
  </defs>
</svg>
