<svg width="34" height="34" viewBox="0 0 34 34" fill="none" xmlns="http://www.w3.org/2000/svg">
<path d="M23.4178 6.3042H24.4237C25.6072 6.3042 26.7422 6.77435 27.5791 7.61124C28.416 8.44812 28.8862 9.58317 28.8862 10.7667V26.9167C28.8862 27.1158 28.8071 27.3068 28.6662 27.4476C28.5254 27.5884 28.3345 27.6675 28.1353 27.6675H27.1295C25.9509 27.6676 24.8201 27.2013 23.984 26.3705C23.1479 25.5398 22.6745 24.412 22.667 23.2334V7.08337C22.667 6.88423 22.7461 6.69326 22.8869 6.55245C23.0277 6.41164 23.2187 6.33253 23.4178 6.33253V6.3042Z" fill="#FFC720"/>
<path d="M14.6341 13.019H15.5833C16.7668 13.019 17.9019 13.4892 18.7388 14.3261C19.5756 15.163 20.0458 16.298 20.0458 17.4815V26.9165C20.0458 27.1157 19.9667 27.3067 19.8259 27.4475C19.6851 27.5883 19.4941 27.6674 19.295 27.6674H18.4166C17.8282 27.6749 17.2442 27.5659 16.698 27.3468C16.1519 27.1276 15.6545 26.8026 15.2345 26.3905C14.8145 25.9784 14.4801 25.4873 14.2506 24.9454C14.0212 24.4035 13.9011 23.8216 13.8975 23.2332V13.7557C13.9011 13.5615 13.9799 13.3762 14.1172 13.2388C14.2546 13.1015 14.4399 13.0227 14.6341 13.019Z" fill="#3984F7"/>
<path d="M5.85092 18.8701H6.85676C7.44397 18.8683 8.02578 18.9823 8.56883 19.2058C9.11189 19.4292 9.6055 19.7576 10.0214 20.1722C10.4373 20.5867 10.7672 21.0793 10.9924 21.6216C11.2175 22.164 11.3334 22.7454 11.3334 23.3326V26.9168C11.3334 27.1159 11.2543 27.3069 11.1135 27.4477C10.9727 27.5885 10.7817 27.6676 10.5826 27.6676H9.57676C8.39812 27.6677 7.26734 27.2014 6.43127 26.3706C5.5952 25.5399 5.12174 24.4121 5.11426 23.2335V19.6068C5.11789 19.4126 5.19667 19.2273 5.33404 19.0899C5.47141 18.9526 5.65668 18.8738 5.85092 18.8701Z" fill="#FF70C8"/>
</svg>
