<svg width="25" height="27" viewBox="0 0 25 27" fill="none" xmlns="http://www.w3.org/2000/svg">
<path d="M21.7119 14.9804C21.2729 14.5414 21.1632 13.9927 21.1632 13.444C21.1632 12.8952 21.4376 12.3465 21.7119 11.9075L24.0166 9.32846C24.3459 8.99922 24.5105 8.50535 24.6202 8.01149C24.73 7.51763 24.5105 7.02377 24.291 6.63966C24.0166 6.20067 23.6874 5.92632 23.1935 5.7617C22.7545 5.59708 22.2607 5.48734 21.8217 5.59708L18.4195 6.36529C17.8708 6.42016 17.2672 6.36529 16.7733 6.09092C16.2795 5.81656 15.9502 5.3776 15.7307 4.88374L14.6882 1.59134C14.5235 1.09748 14.2492 0.76822 13.8651 0.43898C13.4261 0.164613 13.042 0 12.5481 0C12.0542 0 11.5604 0.164613 11.2311 0.43898C10.7921 0.658473 10.5727 1.09748 10.408 1.59134L9.36544 4.88374C9.20082 5.43247 8.76184 5.87143 8.26798 6.09092C7.77412 6.36529 7.22538 6.52991 6.62178 6.36529L3.21963 5.59708C2.72577 5.54221 2.23191 5.5422 1.8478 5.7617C1.40881 5.98119 1.0247 6.25554 0.750334 6.63966C0.475967 7.07864 0.421095 7.5725 0.421095 8.01149C0.475968 8.50535 0.695461 8.94435 1.0247 9.32846L3.32938 11.9075C3.76837 12.3465 3.93299 12.8952 3.93299 13.444C3.93299 13.9927 3.65862 14.5414 3.32938 14.9804L1.0247 17.5595C0.695461 17.8887 0.530842 18.3826 0.421095 18.8764C0.311348 19.3703 0.475967 19.8642 0.750334 20.2483C1.0247 20.6873 1.29907 21.0165 1.8478 21.1262C2.28679 21.2908 2.72577 21.4006 3.21963 21.2909L6.62178 20.5226C7.22538 20.4678 7.77412 20.5226 8.26798 20.797C8.76184 21.0714 9.09108 21.5103 9.36544 22.0042L10.408 25.2966C10.5727 25.7904 10.847 26.1197 11.2311 26.4489C11.6701 26.7233 12.0542 26.8879 12.5481 26.8879C13.042 26.8879 13.5358 26.7233 13.8651 26.4489C14.304 26.2294 14.5235 25.7904 14.6882 25.2966L15.7307 22.0042C15.8954 21.4555 16.3344 21.0165 16.7733 20.797C17.2672 20.5226 17.8708 20.358 18.4195 20.5226L21.8766 21.2909C22.3704 21.4006 22.8643 21.4006 23.3033 21.1262C23.6874 20.9616 24.1264 20.6324 24.3459 20.2483C24.5653 19.8642 24.6751 19.3154 24.6751 18.8764C24.5653 18.3826 24.4007 17.9436 24.0715 17.5595L21.7119 14.9804Z" fill="#FFC720"/>
<path d="M12.5483 18.437C15.3365 18.437 17.5967 16.1768 17.5967 13.3887C17.5967 10.6006 15.3365 8.34033 12.5483 8.34033C9.76022 8.34033 7.5 10.6006 7.5 13.3887C7.5 16.1768 9.76022 18.437 12.5483 18.437Z" fill="#3984F7"/>
<path d="M12.439 16.0772C13.9543 16.0772 15.1826 14.8488 15.1826 13.3335C15.1826 11.8182 13.9543 10.5898 12.439 10.5898C10.9237 10.5898 9.69531 11.8182 9.69531 13.3335C9.69531 14.8488 10.9237 16.0772 12.439 16.0772Z" fill="#FF70C8"/>
</svg>
