<svg xmlns="http://www.w3.org/2000/svg" xmlns:xlink="http://www.w3.org/1999/xlink" viewBox="0 0 337.15 416.97"><defs><style>.cls-1{fill:none;clip-rule:evenodd;}.cls-2{fill:#c4be9f;}.cls-10,.cls-11,.cls-12,.cls-13,.cls-14,.cls-15,.cls-16,.cls-2,.cls-21,.cls-22,.cls-23,.cls-24,.cls-25,.cls-26,.cls-28,.cls-29,.cls-3,.cls-30,.cls-31,.cls-32,.cls-33,.cls-34,.cls-35,.cls-37,.cls-4,.cls-5,.cls-6,.cls-7,.cls-8,.cls-9{fill-rule:evenodd;}.cls-3{fill:#fff;}.cls-4{fill:#5a3d1d;}.cls-18,.cls-5{fill:#92a13a;}.cls-6{fill:#ffd24d;}.cls-7{fill:#f4b12e;}.cls-19,.cls-8{fill:#d45027;}.cls-9{fill:#bbcc32;}.cls-10,.cls-20{fill:#f15b25;}.cls-11{fill:#e6e7e7;}.cls-12{fill:#eba023;}.cls-13{fill:#d9bb8c;}.cls-14{fill:#b39261;}.cls-15{fill:#80c6c0;}.cls-16,.cls-17{fill:#64aba5;}.cls-21{fill:#848688;}.cls-22{fill:#faf2e8;}.cls-23{fill:#ccc;}.cls-24{fill:#010101;}.cls-25{fill:#333;}.cls-26{fill:#768336;}.cls-27{clip-path:url(#clip-path);}.cls-28{fill:#d1bf9b;}.cls-29{fill:#b39f78;}.cls-30,.cls-38{fill:#bfac86;}.cls-31{fill:#c9b794;}.cls-32{fill:#4c3634;}.cls-33{fill:#2a1816;}.cls-34{fill:#452614;}.cls-35{fill:#1c1212;}.cls-36{opacity:0.55;}.cls-37{fill:#715722;}.cls-38{font-size:35.27px;font-family:BadanamuHandwriting_Bold, BadanamuHandwriting;letter-spacing:-0.06em;}.cls-39{letter-spacing:-0.04em;}.cls-40{letter-spacing:-0.03em;}.cls-41{letter-spacing:-0.02em;}.cls-42{letter-spacing:-0.06em;}.cls-43{letter-spacing:-0.03em;}.cls-44{letter-spacing:-0.03em;}.cls-45{letter-spacing:-0.04em;}</style><clipPath id="clip-path"><path class="cls-1" d="M98,376.05c.06,1.54-73.77,31.6-74.83,32.55a5,5,0,0,1-8.31-3.52,4.9,4.9,0,0,1,.16-1.44c.53-2.08-1.66-61.67.59-61.76C16,341.87,63.88,256,66.87,257c2.18.78-36.41-65.59-33.26-64.4,4.12,1.56.15-53.58,34.33-80.89,25.56-20.43,85.83-14.57,114.11-16,35.74-1.86,69.51,80.19,86.9,90.63,16.5,9.9-58.5,111.62-54.64,113.3,3.26,1.43-79.27-15-76.91-13.89C141.48,287.66,98,375.57,98,376.05Z"/></clipPath></defs><title>Asset 1</title><g id="Layer_2" data-name="Layer 2"><g id="Layer_1-2" data-name="Layer 1"><path class="cls-2" d="M267.06,65.38c-1.36,5.22-1.18,9.11-4.08,13.88-5.71,9.4-20,11.59-29.39,6.94h0c-6-3-11.23-7.55-13.62-14,0-.1-.08-.2-.11-.3L217.1,77.3l-28.57-10c-.95-2-2.56-3.23-4-4.92l-10.25-4.33c-2.05-1-2.33-3.1-1.88-5.08,1.92-8.45,8-17.62,12.38-25.13-3.84-2.4-7.77-4.66-11.7-6.91,7.07-6.13,14.16-12.26,21.69-17.82,5.65-1.06,9.41-.76,15.54-1l13.53,7.63-1.48,2.12c4.33,0,8.41,2.25,11.83,4.82l.09.07.08.06a18.05,18.05,0,0,1,6.5,13.44,18.94,18.94,0,0,1,8.82-2.19,24.47,24.47,0,0,1,13.87,4.57c8.36,5.77,14.55,17.08,8.7,26.71C270.61,62.08,269.73,63.55,267.06,65.38Z"/><path class="cls-3" d="M271.78,68.66c-1.36,5.22-1.18,9.1-4.08,13.88-5.71,9.4-20,11.59-29.38,6.94h0c-6-3-11.23-7.55-13.63-14,0-.1-.07-.21-.11-.31l-2.74,5.39-28.56-10c-.95-2-2.57-3.23-4-4.92L179,61.32c-2-1-2.32-3.09-1.87-5.07,1.92-8.46,8-17.62,12.37-25.14-3.84-2.39-7.76-4.65-11.69-6.9C184.9,18.08,192,12,199.52,6.39c5.66-1.06,9.41-.76,15.55-1L228.59,13l-1.48,2.11c4.34.05,8.42,2.26,11.83,4.83L239,20l.08.07a18,18,0,0,1,6.51,13.44,18.67,18.67,0,0,1,8.82-2.19,24.47,24.47,0,0,1,13.87,4.57C276.66,41.67,282.86,53,277,62.61,275.33,65.36,274.46,66.83,271.78,68.66Z"/><path class="cls-4" d="M245.52,67c.19-3.85-1.41-4.89-4.29-7.06-.1-1.16,1.72-3.66,2.8-5.44,2.7.87,5.88,1.66,9.16-1.85l-5.32-2.4a24.77,24.77,0,0,1-7.5-7.9c14.25-20.46,43.43,3.17,34,18.67l-.47.77a12.6,12.6,0,0,1-6.24,5.67c.93,2,.56,8.3-.88,10.67L265.09,81c-4.64,7.63-17,10-25.42,5.78-13.88-7-14.31-18-12.45-23.53l-6.91,13.6-24.83-8.69c-.46-1-2.8-3-4.29-5l-10.9-4.61c-2.33-1.12,10.91-24.31,13.4-28.41-3.61-2.31-6.95-4.34-10.59-6.42,3.36-2.92,9.87-8.38,9.8-8.27l9.46-6.64L202,9l12.32-.51L224.15,14l-5.51,7.89c3.54-2.75,8.48-7,18.47.49,5.2,4.51,7.16,11.46,3.76,18.27l-1.24,2c-1.89,3-9.58,9.2-11.77,10.75-7.57,5.33-7.12,2.28-.46,8.81,1.63-2.68,7-1.74,9.83-1,4.14,1.11,5.82,6.32,7.46,7.94l.83-2.23ZM209.47,37l-2.95,4.86-5,8.19c1.94-.08,7.58-4.21,9.77-5.52,1-.59,4.94-2,3.6-3.17-.84-.73-2.24-1.21-3.2-2.07C210.55,38.25,210.79,37.85,209.47,37Z"/><polygon class="cls-5" points="220.21 12.7 222.38 14.02 222.41 14.45 213.2 14.94 208.02 11.15 210.26 10.05 216.05 12.82 213.79 10.3 217.73 12.29 218.52 12.02 219.9 13.21 220.21 12.7"/><path class="cls-6" d="M232.17,22.07l.65,2-.89-.38c-.69-.42-1.26-1.83-1.75-2.31l.32,1.79L228,21.06l.94,2.16-4.24-1.48,2.65,2.63-4.47.44,2.74,1.24-.81.59a34.5,34.5,0,0,0-9,12.73l-5-3.35c1.31-1.59,4.22-7.59,7.84-11.86s7.93-6.83,16.35-1.45l-.31.51Z"/><path class="cls-5" d="M219,18.1l-2.46.76,2.14.58-1,.51-1.65.3,1.51,1.05-.54.34-4.17,2.47,1.85,1.56-4.28,1.92,2.06,1.75-2.91,2.84.51.31.22.28-3.18.94,1,2-3.05-.64,1.35,2.67-3.57.83,2.43,1.15L200,49.13l.76.47-1.34,1.63-2.14-.47-3.58,8.53-.64.69a2.28,2.28,0,0,1-2.78,1.12l9.17-20.36c2.35-3.83,5-7.52,7.28-11.34l5.19-7.71,2.22-3.91c1.08-1.78,1.19-1.76,3.09-1.63l2.41.06h.68Z"/><path class="cls-7" d="M239.47,40.6c-3.11,7.07-25.84,19.59-28.15,22.76.27.16,10.31.66,11.61.73,3.72.2,2.26,1.09.59,4.13-1.2,2.18-1.68,3.78-3.33,6.49l-21.7-6.21c5-8.37,3.71-8.13,10.47-12.15,4.26-2.54,7.35-4.55,11.68-7.52,20.85-14.3,5.11-19,1.39-7.7l-4.38-.79C223,29.6,225.9,25.61,232.08,25.17l3.49.14C237.44,25.92,244.86,30.22,239.47,40.6Z"/><path class="cls-8" d="M251.65,46.7c1.19.72,1.74,1.9,2.73,2.87l-.79,1.52-5.39-2.72C248,47.54,250.49,46,251.65,46.7Z"/><path class="cls-6" d="M208,48c4.23-1.54,5.83-4.26,9.5-6,1.16-.57,4,.54,5.6.46.06-2.53,1.95-5,4.67-6.59,1.44-.44,3.21.86,2.26,2.43l-.78,1.28C226.62,44,209,54.3,204.79,56.24L200,52.57Z"/><path class="cls-8" d="M266.18,69.35l-2,.77,2.76,1.44.3,1.86c-2.71,7.06-7.83,13.94-18.23,13.82l-2.06-.6,2.65-.38c2.19-.7,8.1-3.54,9.64-6.06L261,77.39c2-3.29-.33-7.88-.46-10.79Z"/><path class="cls-8" d="M238.15,62.92l.69.69c.89.54,1.43,2,2.19,2.5-.91-.06-5.11-.51-5.57-.37-1.62-.86-3.53-2.66-5.1-3.62C231,61.14,237.13,62.3,238.15,62.92Z"/><path class="cls-8" d="M236.82,66.94c.62-.6,4.18-.27,5.08.28-.19.09,2.28,3.44,2.21,4.49q-1,1.79-3.49.94l.09-2.3L239,71.89l-1.56-1.36,1.8-1.27c-.87-.07-1.43.69-2.41.09l-.47-1,.24-.83,2,.73Z"/><path class="cls-6" d="M215.59,62.1a38.91,38.91,0,0,1,6-3.47c.3,0,3.61,3.57,4.36,4.21l-.29.5C221.86,62.32,218.19,62.86,215.59,62.1Z"/><path class="cls-9" d="M186.78,23.38c2.95-2.82,13.21-13,16.77-12.67,2.31.18,6.94,4.46,8.88,5.64l-3.21,5.44-4.17,6.93-17,31.71-6.29-2.52c.24-1.25,6.89-14.48,8.87-17.48,2.09-3.17,10.57-14.67,7-17.3C192.2,25.64,195.52,29.42,186.78,23.38Z"/><path class="cls-8" d="M267.52,40.77c-.58.15-1.72.45-1.51.54s2,.63,3.09,1c.46.48.93,1,1.38,1.53l-1.83.22,2.59.72q.7.9,1.38,1.89a1.69,1.69,0,0,1,.21.29l-2.19,0,2.66.9a15.8,15.8,0,0,1,.8,2.48l-3.82-1,4.11,2.33a23.87,23.87,0,0,1,.29,2.48l-4.26-1.73,4.22,3.22a19.29,19.29,0,0,1-1,3.24l-4.26-2.58,3.85,3.5A20.16,20.16,0,0,1,272,61.92l-4.57-2.08L271.27,63a14.39,14.39,0,0,1-1.53,1.68l-3.68-2.06,2.8,2.8a10.77,10.77,0,0,1-1.08.73l-.14.08L264,64.45l3.16,2c-1.73.44-4.37-.59-6.21-1.65l1.86-1.32c3.05-2,5.56-8.37,6.31-12.15.55-2.76-.48-6-2.7-8.86s-5.5-5.08-5.41-5.63A21.86,21.86,0,0,1,267.52,40.77Z"/><path class="cls-6" d="M199.09,54.18l4,3-.72,1.45-5.89,8.52c-1.11-.8-2.18-2.52-3.23-3.58Z"/><path class="cls-10" d="M238.81,73.7c-2.07-1.25-4.23-2.44-3.43-6.12l-6.11-3.88C225.12,70.89,235,85.51,245.8,85c11.88-.57,17.74-9.17,10.55-20.21,4.18-2.73,8.17-4.91,10-10.5,1.55-4.66,1.2-10-2.79-13.15-4.89-3.9-6.92-6.55-13.17-4.24a24.29,24.29,0,0,0-8,5.07c-.78.81,1.09,2.43,3.23,4.07.41.59.9.91,1.59.27,1.65-.36,3.57-3.47,6.72.27,1.52,1.79,2.57,4.61,1,7.21l-.47.77c-3.46,5.69-6.8,1.53-9.3,2.18-.75.2-.7,1.6-1.46,2.85l.77.46C250.77,64,246.26,78.37,238.81,73.7Z"/><path class="cls-2" d="M101.59,18.78a16.77,16.77,0,0,1,6-3.62c6.28-1.69,12.35-3.28,18.45-5.54,9.59-4.56,10.17-5.94,13.16-7.34C145-.15,146.42,1.55,151.53.75c3.56-.56,5.71-1.24,9.46-.23,4.29,1.77,6.93,6.51,8.15,10.81,2.39,8.41.43,15-7.7,18.18a31.82,31.82,0,0,0-6.15,2.85,24.8,24.8,0,0,1-12.18,3.37c-9.56-.22-19.15,5.32-28.37,7.57a28.54,28.54,0,0,1-9.4.58c-5.23-.43-16.7.29-19.89-4.45C86.62,31.77,95.85,24,101.59,18.78Z"/><path class="cls-3" d="M101.66,22.68a16.62,16.62,0,0,1,6-3.62c6.28-1.7,12.35-3.29,18.45-5.54,9.59-4.57,10.18-5.95,13.16-7.35,5.81-2.43,7.26-.73,12.37-1.53,3.57-.56,5.71-1.24,9.46-.23,4.29,1.77,6.93,6.52,8.15,10.81,2.39,8.41.43,15-7.7,18.19a31.42,31.42,0,0,0-6.14,2.85,24.75,24.75,0,0,1-12.19,3.36C133.62,39.4,124,45,114.81,47.19a28.5,28.5,0,0,1-9.39.58c-5.24-.43-16.71.29-19.9-4.44C86.69,35.66,95.92,27.91,101.66,22.68Z"/><path class="cls-4" d="M88.33,41.44c1.67,2.47,14.25,2.7,17.36,3,8,.65,10-1.26,18.33-3.64,5.72-1.64,13.76-5.07,18.21-4.56,2.05.24,6.49-.77,9-1.61,2-.68,3.07-2,5.08-2.81,3.15-1.35,5.11-1.65,8.11-3.67,4.91-3.3,1.68-19.62-5.93-20.93-2.7-.47-3.72.39-6.36.81s-3.37-.94-5.82-.76c-1.37.11-11.18,4.28-13,5.51-.82.93.33,1.1-5.76,3.84-2.15.8-4.2,1.56-6.42,2.32-4.21,1.44-8.57,2.33-12.62,3.42C103,23.83,93.36,37.41,88.33,41.44Z"/><path class="cls-8" d="M153.34,9.9a6.19,6.19,0,0,1,4,1.53c.61.53-.06-3,.6-2.92a1.46,1.46,0,0,1,1.44,2l1,.95.42-1.76c3.1,4.1,3.73,8.11,4,13.26.13,2.45-3.4,6-6.32,6.4-.67-1.95,1.6-8.12-.89-12.58C156.63,11.53,153.33,9.92,153.34,9.9Z"/><path class="cls-10" d="M153.34,9.9a6.19,6.19,0,0,1,4,1.53c.61.53-.06-3,.6-2.92a1.46,1.46,0,0,1,1.44,2l1,.95.42-1.76a18.7,18.7,0,0,1,3.69,9.57c-1.88,2-3.81,3.28-5.71,3.15a11.25,11.25,0,0,0-1.2-5.64C156.63,11.53,153.33,9.92,153.34,9.9Z"/><path class="cls-11" d="M156.87,22.86a20.33,20.33,0,0,1,.1,5.84,3,3,0,0,1-1.47,2.2c0-1.51.43-7.6-.11-9.08-1.7-3.43-4-8.08-7.63-9.8-1.92-.92-5.49-2.83-1.31-2.85C152.92,9.49,156.67,19.71,156.87,22.86Z"/><path class="cls-11" d="M142,10.42a17.11,17.11,0,0,1,11.17,10.49c.58,2.53,3,8.74-1,11.43a9.56,9.56,0,0,1-2.11,1c3.1-3.74,3.67-14.9-9.26-22.65C140.6,10.56,142.18,10.67,142,10.42Z"/><path class="cls-11" d="M140.54,13.51c1.84-.63,4.69,2.13,6,4l-1.07.27C143.79,15.27,142.08,14.85,140.54,13.51Z"/><path class="cls-11" d="M147.28,18.65c2.74,3.88,4.95,10.92,1,13.39.78-3.72-.18-8.31-2.11-13.38Z"/><path class="cls-6" d="M130.7,24.88l-5.87,2-4.13,1.58-1.56.65-4.31,1.31-3.49,1.46c2-3.3,1.64-5.77-2.19-7.34,2.45-.54,4.93-.92,6-1.8l3.12,1.83-.18-2.35L122.41,24l-2.09-2.54c-.09-1.35.54-.3,2-.39l3.77.51-1.57-2.06,2.15-1,3.2,1.76-1-2.27,1.34-.19,2,1.47.28-1.53,2.66,1.45-1.18-1.71-.82-.92,3.7,1.63-1.85-3.22,6.51,3-2.66-3.27c2.53.81,4.79,3,6.88,6.1C140.74,21.41,135.67,23.49,130.7,24.88Z"/><path class="cls-12" d="M145.14,33.91l-2.62-.56c-3.88,1-19.6,5.26-25.7,7.58,1.5-3.29-.44-6-4.67-7.41l.49-.47,33.23-10.32C146.75,26,148,30.88,145.14,33.91Z"/><path class="cls-11" d="M136.24,13.5c.07-1.45,2.64-1.61,3.84-.52Z"/><path class="cls-13" d="M106.93,35.14c3.77-.46,6.87.47,7.48,4.7l.18,1.6a59,59,0,0,1-12,1c.84-3.58.68-5.67-3.74-9a38.15,38.15,0,0,1,6.67-7.12,2.79,2.79,0,0,1,4.27,2C111,31.37,108.76,32.62,106.93,35.14Z"/><path class="cls-14" d="M106.93,35.14c3.77-.46,6.87.47,7.48,4.7l.18,1.6a59,59,0,0,1-12,1c.49-2.11.64-3.69-.22-5.33Z"/><path class="cls-2" d="M187.94,78c1,7.19-8.61,8.7-13.48,10.35-1.69,3.78-3.14,9.8-5.64,13-2.74,2.83-10.67,6.47-14.21,8.27-11.91,6.09-23.62,12.79-35.41,19.13l-4.91-2.43,2.46-9.71,9.35-15.31c-9,1.86-18.19,5.47-27.5,5.4-3.41,0-6.1-4.45-7.25-7.21-1.07-2.58-1.65-7.3,0-9.61,2.8-3.93,11.89-4.69,16.21-5.55-4.53-10.11-3.31-21.49-1.33-31.2,11.35,5.33,27.68,11.9,39.94,17.09l6.71-9.74,3.85.29,3.45,8.55,22.69-4.86C183.87,69.12,187.34,73.69,187.94,78Z"/><path class="cls-3" d="M186.1,76.89c1,7.18-10.22,9.49-15.1,11.13.45,3.9-1.45,9.21-4,12.2-2.74,2.84-10.67,6.47-14.21,8.28-11.9,6.08-23.62,12.78-35.41,19.12l-6-2.07,1.54-11L123,99.6c-9,1.87-17.73,5.18-27,5.11-3.42,0-6.27-3.52-7.42-6.28-1.07-2.58-2-7.93-.3-10.25,2.81-3.93,12.31-4.66,16.63-5.52-4.53-10.12-2.46-20.95-.48-30.66,11.35,5.33,25.9,10.9,38.16,16.08l6.7-9.15,4,.33,4.07,8L180,62C182.25,66.25,185.5,72.53,186.1,76.89Z"/><path class="cls-4" d="M131.27,115.41l.22-.48.48.21c6.06-3.66,11.6-6.59,17.88-9.81,3.21-1.63,5.79-3.25,8.92-5,6.31-3.45,3.41-.94,6.78-8.48l-.37.18-2.53-5.25.2-.47,17-5.75.22-.48.48.22c1.91-4.27,1.35-3.56-.47-7.44-.91-1.93-1.76-5.18-2.75-6.76l-.07-.35-22.05,4.72-.11.33-3.79-9.38-.62-.05-7.09,10.3-.28-.15-35.58-15c-2.16,2.82-3.51-.4-3.51,6.11,0,2.72-.11,5.08-.06,7.64.08,3.45,1.47,11.58,4,13.68l-.32.72c-1.57-.25-14.16,3-16.24,3.7-5.71,2,.34,13.72,3.42,13.74,5.67,0,30.52-7,32.72-6.22L117,113.42l-1.26,2.31L113.93,123l1.7.84,15.64-8.41Zm20.2-23.15c-.33.75-9.06,6.15-9.68,6.11L144.35,94l1-2.19a1.09,1.09,0,0,0,.08-.83l5.06-.88c.19.26,1.17,1.85,1,2.15Zm-32.58-3,0-.84-.2-.1-.57.62-.43,1L114,88l-.35-.47-.51-.2-2.38-3.1.22-.48-.16-.94-.59,0-.22.48-.35-.47-.24.49-.84-.69.55-.6-.91-1.85-.49-.22-.13-.35-1.86-7.5-.26-1.88.29-.13-.29-9.35c2.59,1.86,1.23-.09,3.24.81l3.62,1.62,11.93,5.08.74.29c1.54.69-1.27,2.88.42,4.25l1.22-3.51,13.92,5.93.33-.19-.17,1.13-.59,0c-.33,1.7-4.66,7.53-6,9.53-.71,1.09-6.59,8.17-7.31,4l-.27-.7-.22.48L125.94,91l-4.13-.8.17-.69L121.34,91l-2.55-.77.1-.9Zm-3.47-20.11c.77,3.58,29.75,6.74,14.42,13.63-3.6,1.61-8,1.37-12-2.31-4.54-4.11-3.6-9.81-4.22-10.41l.21-.45,1,.14.59-.6Zm17.07,8.5c-2.8,2.9-2.85,4.53-8.68,1.92L122.36,79c-4.07-1.82-7.2-4.25-6.62-7.89Z"/><path class="cls-15" d="M161.83,96.31c.81,1,.69.09.3,1.29l-.49-.21-2.94-.31.6.5-2.65,1.56-.41-.69c.55,3.22-.71,2.55-3.15,1.2l.76.9L151,103l-.49-.73-1,1.89-.5.14-2.18-1,.66.41-2.22,2.65-.37-.17L143,104.51l.61,2.31-2.73.71-.59,0-3.67,2.09-.31-1c.56,3.27-1,3.46-3.36,1.68l.39.13-1,3-.55,0-1.23-1.58c-1.2,3.69.65,3-2.54,1.17l.13,2.48-.62.24-1.6-1.54.35,1.94-.31.49-2-.15.45.07-2.11,2.27-.29-.13-4.89,2.85-.24-.44,32.91-52.65,12.07,27.82Zm-10.36-4c.14-.3-.84-1.89-1-2.15l-5.06.88a1.09,1.09,0,0,1-.08.83l-1,2.19-2.56,4.36C142.41,98.41,151.14,93,151.47,92.26Z"/><path class="cls-16" d="M128.47,97.05a26.82,26.82,0,0,1,2.85-4.58c1.12-1.42,1.7-3.26,2.64-4.64,1.31-1.94,4.39-7.25,5.72-8.09a14.16,14.16,0,0,1,1.73-2.82c1-1.5.48-2.06,1.78-1.12l-9.12,14.52-4.88,7.05-2.27,3.94L123.51,107l-.74.65-1,2.64-.54-.24-.42,1.56-.47-.22-4,8.08c-.94-2.67,3.33-8.29,5.2-11.24C123.68,104.8,126.1,100.17,128.47,97.05Z"/><path class="cls-10" d="M122,93.3l6.08.57v.3l-3.9.25-.33.58-1.45-.65-.71.18,1,.52-1.29.32-.49-.24-2.77.72-.37.48-.17.24-.54-.36-.34.52c-1.49-.24-13.58,2.08-15.87,2.51-7.65,1.46-6.8,4-10.34-6.11l2.87-1.38,1.52,1.9-.28-2.34.27-.41,4.16.88-.19.75-.26-2.35,3.7-.41-.15.29.83,2.69.31-.08-.71-3.15,3.2-1,1.12,3.13.37-.11-.61-3.24.59-.45,2.61,2.36L109.21,88l.42-.54,6.26,3.39.72.35c2.47,1.1,9.53,1.8,11.68,1.74v.37Z"/><path class="cls-8" d="M91.05,90.89l.28-.88c.39-.88,7.69-2.33,9-2.65.81-.19,1.67-.2,2.48-.33s1.2-.61,2.11-.76c1.43-.24,3.1-1.12,4.59-.55Z"/><path class="cls-9" d="M118.89,89.29l0-.84-.2-.1-.57.62-.43,1L114,88l-.35-.47-.51-.2-2.38-3.1.22-.48-.16-.94-.59,0-.22.48-.35-.47-.24.49-.84-.69.55-.6-.91-1.85-.49-.22-.13-.35-1.86-7.5-.26-1.88.29-.13-.29-9.35c2.59,1.86,1.23-.09,3.24.81l3.62,1.62,11.93,5.08.74.29c1.54.69-1.27,2.88.42,4.25l1.22-3.51,13.92,5.93.33-.19-.17,1.13-.59,0c-.33,1.7-4.66,7.53-6,9.53-.71,1.09-6.59,8.17-7.31,4l-.27-.7-.22.48L125.94,91l-4.13-.8.17-.69L121.34,91l-2.55-.77.1-.9Zm-3.47-20.11-.59.6-1-.14-.21.45c.62.6-.32,6.3,4.22,10.41,4.06,3.68,8.45,3.92,12,2.31,15.33-6.89-13.65-10-14.42-13.63Zm17.07,8.5-16.75-6.62v0l16.72,6.61Z"/><path class="cls-16" d="M162.19,93.57l-.05-1.18-.37.08c-1.06.87.62.45-.68.32l1-1.57.81.09.13.33-.21.48.48.22-.72.82.56.85-.54,1.2-1-1Z"/><path class="cls-16" d="M161.58,90.4l.32-.72c.32.25.71.36.51.8s-.23.28-.67.86l-.48-.21-1.07-.84.52-.57.35.68Z"/><polygon class="cls-16" points="160.91 88.65 161.04 87.57 161.5 88.63 161.35 89.71 160.35 89.27 160.91 88.65"/><polygon class="cls-16" points="160.19 87.96 160.32 88.91 159.73 88.7 160.19 87.96"/><path class="cls-16" d="M158.64,85.32l.54-1.79c.45.37.67.37.37,1l-.11.24C159.14,85.5,159.17,85.22,158.64,85.32Z"/><polygon class="cls-16" points="158.29 82.84 158.08 83.33 157.59 83.11 158.24 81.66 158.51 82.36 158.99 82.58 158.78 83.06 158.29 82.84"/><path class="cls-5" d="M128.73,67.3c.37,0,.36-.12.83.08L131,68c1.44.65,1.23,1.11,2.09,1.81l-.22.48c-.95-.52-.94-.48-.9-1.2l-3.47-1.33-.72-.33-.25.53-1.07-.83-14.22-5.78-.49-.21-.48-.22-1.32-.3a4,4,0,0,0-.5-.81,7.75,7.75,0,0,0-2.39-.48l1.5-1.42,7.36,3.64.5.18Z"/><rect class="cls-17" x="156.96" y="81.43" width="0.79" height="0.53" transform="translate(18.53 191.98) rotate(-65.9)"/><polygon class="cls-5" points="137.54 72.55 137.41 72.2 138.59 72.15 137.54 72.55"/><polygon class="cls-16" points="156.88 80.18 157.28 79.43 157.6 80.5 156.9 81.14 156.88 80.18"/><path class="cls-5" d="M142.71,73l-.46,1-.83-.7C142.31,72.57,141.6,72.51,142.71,73Z"/><rect class="cls-18" x="137.28" y="70.85" width="0.53" height="0.79" transform="translate(16.33 167.68) rotate(-65.89)"/><rect class="cls-18" x="135.59" y="70.09" width="0.53" height="0.79" transform="translate(16.07 165.76) rotate(-65.92)"/><path class="cls-16" d="M144.72,73l-1,2.17-.72-.32.43-1C143.77,73.19,144.05,72.79,144.72,73Z"/><path class="cls-16" d="M147.78,66.83l.56-.62.22-.48.32-.72.48.21L149,66a1.38,1.38,0,0,1,.05,1.18c-.85,1.91-3.21,3.94-3.91,5.5l-.48-.22Z"/><path class="cls-10" d="M162.64,73.77l.24.11,3.79-.75-.19-.34,3.9-.71-.2.38,2.08-1.54.31.24L174,73.63l-.76-2.75,1-.48,4.7,8.7-.39-.27-16.55,6c-1.29-2.78-5.78-8.62-3.68-11.21l.25-.12L160,76l-.61-2.18.05-.26Z"/><path class="cls-8" d="M175.83,67.77l-1.76,1.83c-1.26-.53-6.9,1.27-8.88,1.39a41.41,41.41,0,0,0-4.37.63c-.71.12-4.28,1.16-4.38,1.11l-.24-.1c-.93-.42-.12,0-.67-.82Z"/><path class="cls-8" d="M180.08,78.07l-.71-.88c.62-1.92-.45.25.16-1.67l.49.22a2.76,2.76,0,0,0,.65,1.74Z"/><rect class="cls-19" x="178.87" y="74.21" width="0.53" height="0.53" transform="translate(38 207.58) rotate(-65.9)"/><rect class="cls-19" x="176.6" y="69.92" width="0.79" height="0.53" transform="translate(40.65 203.09) rotate(-65.9)"/><path class="cls-4" d="M137.43,101.64l.61.56,16.28-9-.28-.36-5.6-10.69-1-.42-10,19.86Zm14-9.38c-.33.75-9.06,6.15-9.68,6.11L144.35,94l1-2.19a1.09,1.09,0,0,0,.08-.83l5.06-.88C150.63,90.37,151.61,92,151.47,92.26Z"/><path class="cls-10" d="M147.72,87.68l.25-1.32c1.05.56.5.17,1,1l-.47.36.5.23.72.33a2.44,2.44,0,0,1-2.58.58c-.33-.15-.33-.54-.15-.94S147.45,87.71,147.72,87.68Z"/><rect class="cls-20" x="147.06" y="85.19" width="1.2" height="0.8" transform="translate(9.24 185.44) rotate(-65.9)"/><path class="cls-4" d="M115.42,69.18l-.59.6-1-.14-.21.45c.62.6-.32,6.3,4.22,10.41,4.06,3.68,8.45,3.92,12,2.31,15.33-6.89-13.65-10-14.42-13.63Zm17.07,8.5c-2.8,2.9-2.85,4.53-8.68,1.92L122.36,79c-4.07-1.82-7.2-4.25-6.62-7.89Z"/><path class="cls-5" d="M116.64,78.13l-.49-.21-.05-1.19-.48-.21.22-.48.58.09,1,.9c.31.24,3.25,2.33,3.3,2.35l1.93.86c2.52,1.13,4.11.68,6.47,1.74-.91.27-4.83,1-5.78.6l-1-.43c-1.22-.55-1.11-1-2.2-1.56l-.34.43-.3.12Z"/><path class="cls-2" d="M291.89,86c1.78-4.53,6.91-5.19,11.08-3.79,3.39-5,9.48-1.51,13.72-.07C324,84.6,337,122.93,336.36,128.82c-.37,3.59-4.85,4.91-7.75,5.75-9,2.6-18.2,3.45-27.29,5.39-14,3-27.7,6.66-41.34,10.9l0-2.46-5.16.09-14.1-40.71c-.51-3.09-1.29-6.32,1.1-8.92,1.87-2,4.5-2.42,7.11-2.71,1.81-4.54,8.18-6.38,12.82-3.81a8.6,8.6,0,0,1,9.58-2.22c2.87-3.37,8.16-3.34,11.7-1.05C284.78,86.26,288.84,85.19,291.89,86Z"/><path class="cls-3" d="M292,89.89c1.79-4.53,6.91-5.19,11.09-3.79,3.38-5,9.47-1.51,13.72-.07,7.33,2.49,20.27,40.82,19.66,46.71-.36,3.59-4.85,4.91-7.75,5.75-9,2.6-18.2,3.45-27.28,5.38-14,3-27.7,6.67-41.35,10.91l0-2.46-5.16.09-14.1-40.71c-.5-3.09-1.29-6.32,1.1-8.92,1.87-2,4.51-2.42,7.11-2.71,1.81-4.54,8.18-6.39,12.83-3.82A8.61,8.61,0,0,1,271.43,94c2.86-3.38,8.16-3.34,11.69-1.06C284.86,90.18,288.92,89.11,292,89.89Z"/><path class="cls-4" d="M300.64,140.29c4.29-.91,31.83-4.78,32.15-7.92.12-1.15-9.24-26-10.52-29.65-1.39-4-3.29-12.08-6.68-13.23-3-1-10.76-6-10.12,2.35-1-2.06-11.69-6.37-10.37,3.13-2.34-.16-3.52-2.54-7-1.34-3.82,1.32-.7,3.67-5.21,4.4-1.82-4-10.38-4.55-9.48,1.9-2-1-3.07-3.66-6.4-2.68-4.24,1.24-2.84,4.44-4.44,5.16-2.43-5.92-11.06-4-10.36,1-4.16.68-9,.1-8.26,5l.4,2.47,13.13,37.9,6.26-.1v1.2C274.47,146.47,288.43,142.9,300.64,140.29Z"/><path class="cls-15" d="M317.55,101.48l.24-.77c-4.12-1.21-34.14,6.42-37,7-7.27,1.57-11.54,2.25-16.72,3.51a59.57,59.57,0,0,1-9.81,1.71c-1.06-.92-2.45-3.48-3-6.47l6.29-1.46c1,6,4.82.38,4.94-.81l5.3-.86c1.11,6,4.86,1.37,5.89-1.67l5.66-.92c-3,4.22,7.72,4.6,4.54-1.3,2-.4,4-.91,6.3-1.18.56,1.25,1.26,7.45,4.6,2.43,2-4.12-2.25-3.9,6.53-5.32l.39,0c-1.08,5.55,3.95,6,4.08.69l-.17-1.06.65-.46,4.93-1.48c-2.36,5.12,5.79,5.15,3.75-1.73l1.49-.61,2,9.81.11.71,12.09,29.63c.6,1.69-.61,1.75-3.64,2.34l-54.87,10.5-7.51,3.09-9.81-32.68L306,103.74Z"/><path class="cls-16" d="M317.67,100.69c-4.55-1-34,6.45-36.85,7.06-7.27,1.57-11.54,2.25-16.72,3.51a59.57,59.57,0,0,1-9.81,1.71c-1.06-.92-2.45-3.48-3-6.47l6.29-1.46c1,6,4.82.38,4.94-.81l5.3-.86c1.11,6,4.86,1.37,5.89-1.67l5.66-.92c-3,4.22,7.72,4.6,4.54-1.3,2-.4,4-.91,6.3-1.18.56,1.25,1.26,7.45,4.6,2.43,2-4.12-2.25-3.9,6.53-5.32l.39,0c-1.08,5.55,3.95,6,4.08.69l-.17-1.06.65-.46,4.93-1.48c-2.36,5.12,5.79,5.15,3.75-1.73l1.49-.61,2,9.71-.81.19Zm-58,29.45c13-12.72,29-21.1,47-26.55l-.74.15-51.08,10.45Z"/><path class="cls-10" d="M309.06,88.09c2.53-.65,7.45,4,4.71,6.9-.42.44-1,1.17-1.88.61,1.33-5-1.62-6-4.65-5.94A1.31,1.31,0,0,1,309.06,88.09Z"/><path class="cls-10" d="M303.33,98.71c-1.29-1.26-.43-2.31-.64-3.6-.55-3.12-6.36.69-5.69-1.9a1.73,1.73,0,0,1,1.48-2l1.06-.17C304,90.86,306.72,95.63,303.33,98.71Z"/><path class="cls-10" d="M289.84,94.41c1.17-.19,4.35,2,4.5,2.9a3.46,3.46,0,0,1-.91,3l-1.06.17c-.85-4.62-3.39-3.49-5.82-3.67C287.13,95.53,288.64,94.16,289.84,94.41Z"/><path class="cls-10" d="M277.79,96.09A4.64,4.64,0,0,1,282,98.22l.73,2.51c.19,1.18-.84,1.44-2,1.64l-.17-1.06c-.53-3.27-2.2-3.36-4.92-3.55C275.76,96.28,276.53,96.29,277.79,96.09Z"/><path class="cls-21" d="M276.55,99.06c1.16-.19,1.25.24,1.59.83l-2.81.54C275.44,99.68,275.39,99.25,276.55,99.06Z"/><path class="cls-10" d="M267.73,98.32c1.43-.24,4,1.44,4.19,2.67.26,1.64.35,1.72-.34,3.22-1,1.09-1.62,1.06-1.95-.07.31-4-1.4-3.79-4-4.28A2.93,2.93,0,0,1,267.73,98.32Z"/><path class="cls-10" d="M255.77,100.62c.39-.32.32-.42,1-.53l.7-.11c1.34-.22,2.18.53,3,1,1.78,2,.28,6.32-1.08,4.88l-.44-2.18C258.67,101.79,256.47,102.17,255.77,100.62Z"/><path class="cls-21" d="M255.76,102.79l1.06-.17.12.71-2.12.34C255.13,103,254.75,103,255.76,102.79Z"/><path class="cls-22" d="M261.87,144.93,262,146l-3.49.56-12.34-36.87,2,2.23c1.59,1.33,6,16.47,6.54,20,2.9,4.79,2.65,11.7,6.37,12.74C261.35,143.12,261.76,144.3,261.87,144.93Z"/><path class="cls-4" d="M311.23,107.21l-.57-1-1,.15c-.44.73-.25,1.13-1.24,1.29-3.56.1-9.15.88-10.59,2.46l4.9,17.41,13.43-1.37-.18-1.28Z"/><path class="cls-22" d="M304,125l-.34-2.08c-.44-2.69-2.46-6.22-3-9.66-.09-.53-.89-3.24.22-3.15,2.45-.54,4.92-.85,7.39-1.34,2-.32,6.8,12.44,6,15l.94,1.37Z"/><path class="cls-22" d="M247.39,107.05l2.12-.35c.85,3.42,4,7.38,5.13,11.48s3.13,8.4,4,13.16l2.79,11.12c-2.94.41-2.77-5-3.92-8-.68-1.78-2.84-7.9-3.23-9.36a87.63,87.63,0,0,0-2.94-9.76C250.51,113.39,247.64,108.58,247.39,107.05Z"/><path class="cls-4" d="M305.62,114.27l-1.54.26.28,1.77a5,5,0,0,1-.07,1.82L305,118l.23,1.41c.32,2,1,2.64,2.51,3.2Z"/><path class="cls-4" d="M309.55,122.05l.12-1.82.66-.11.64,1.7.46.65c-.49-3-2-9.62-4.51-9.4Z"/><path class="cls-2" d="M84.32,71.51c-4.66,15.71-23.7,23.5-38,14.82-9-5.46-16.5-17.38-14.23-28.08,2.2-12,13.32-21.17,25.39-21.74C74.89,35.69,88.22,55.42,84.32,71.51Z"/><path class="cls-3" d="M88.36,73.07c-4.66,15.72-23.7,23.5-38,14.83-9-5.47-16.5-17.39-14.23-28.09,2.2-12,13.32-21.17,25.39-21.74C78.93,37.26,92.26,57,88.36,73.07Z"/><path class="cls-4" d="M38.77,60.33a16.54,16.54,0,0,0,2.11,13c1.79,2.82,5.92,9.22,9.32,11.28l1.57.95c11.65,7.08,25,2.74,32.3-9.23l.13-.23c3.48-5,2.36-16.53-1.16-21.48a48,48,0,0,0-5.22-7.51C64.42,33.49,41.86,43.37,38.77,60.33Z"/><path class="cls-23" d="M77.74,48.89,78,49c1.2.73,2,1.16,1.7,2.26L81,53.39c.1.67-3.47,4-2.88,4-.72,1-.63.63-1.58.57l-.31-.49-4.42-1.76.12-.24L68.32,53.3c-3.08-1.87-.63-1.73-1.79-2.62,3.31-8.52,4.27-8.3,11.17-2.73l-.13.22C75.07,46.65,76,47.52,77.74,48.89Z"/><path class="cls-3" d="M78.29,49.22c1,.62,1.67,1.07,1.38,2.07L81,53.39c.1.67-3.47,4-2.88,4-.66.91-.64.68-1.37.59A28.32,28.32,0,0,0,78.29,49.22Z"/><path class="cls-23" d="M52.38,56.81l-.23-.13-2.69.15c-.07-1.72.16-2.36-.18-3a4.59,4.59,0,0,1-.84-2.12c0-1.74,2.76-3.87,4.17-4.86,5.32-3.73,6.55-2.91,11.74.4l.67.41.27-.45c.92.67.8.66.22,1.67l-.76-.77-.14.22.56,3.49Z"/><path class="cls-3" d="M84.33,61.79l.35.88.26,3.18L84.88,68l.09.36-.1,1.17-4,3.39-1.32-.76-1.48-.6c1.82,3.91,2.61,8.52-2.67,11L75,84.34l-.84-.19.45.27-.28.45c-1.31-.25.42-.37-.94,0l-.63.53-.86.4c-1.67-1.64-5.05-3.15-5.23-5.21a20,20,0,0,1,.53-3.33,18.1,18.1,0,0,0,.17-2.19l9.37-4.9L76.63,70l1,.94.45.27L77.26,70l.33-.6-.15-8.23.11-1.3c.94-1.55,3-3.8,5.43-2.31L83.89,60C84.52,60.38,84.3,61.12,84.33,61.79Z"/><path class="cls-23" d="M48.82,72.77c-1.25-.42-1.77-1-4.42-2.3l-.83-.3c-1.29-4-1.22-6.59,3-9.66,2.78-2,4.58-2.74,7.52-.23,1.31,1.12,2.16,6,2.27,7.6.28,3.93-3.41,3.18-5.55,6.11Z"/><path class="cls-23" d="M52.06,82.1c.45-1-3.92-6.12,2.74-9.08l.55-.89.58,0,.81-.83.19.21.27-.45,8.73,4.3c-.46,1.52-.09,4.14-.46,5.74C64.27,88.63,54.82,86.46,52.06,82.1Z"/><path class="cls-3" d="M52.06,82.1a1.1,1.1,0,0,0-.06-.67,40.78,40.78,0,0,0,12.44-6.77l1.49.74c-.46,1.52-.09,4.14-.46,5.74C64.27,88.63,54.82,86.46,52.06,82.1Z"/><path class="cls-24" d="M64,72.59l-1.63-.79h0l-4-2L55.46,58.56l10.35-5.78,7.36,5.13c.23,0-.18-.24.52.18l1.12.69,0,.26.59.41.07-.27a5.57,5.57,0,0,1,.87.93h0c.28.42,0,.62,0,1.73a8,8,0,0,1-.11,2.7l.09.36.59,3.68L65.15,73.17l-1.27-.41Z"/><path class="cls-25" d="M76.05,59.77a2.81,2.81,0,0,1,.27.34h0c.28.42,0,.62,0,1.73a8,8,0,0,1-.11,2.7l.09.36.59,3.68-9.84,3.84A36.65,36.65,0,0,0,76.05,59.77Z"/><path class="cls-24" d="M59.92,42.66l6.34,3.47,3.38-3.22C65.84,41.94,62.44,41.6,59.92,42.66Z"/><path class="cls-25" d="M84.32,71.51l-3.12,3-.71,4.66A24.6,24.6,0,0,0,84.32,71.51Z"/><path class="cls-25" d="M69.89,86.37l-3.81-2.69L63.25,87.4C66,87.8,68.38,87.72,69.89,86.37Z"/><path class="cls-24" d="M49.83,82.45a30.09,30.09,0,0,1-7.41-10.52l7.44,3.21Z"/><path class="cls-24" d="M41.93,63c-.78-3.85.18-7.75,3.74-11.72l1.77,5.11Z"/><path class="cls-2" d="M303.46,218.88c-11.49-2-32.93-11.39-37.1-23.75-1.78-5.25,1.1-9.84,5.15-13,7.45-5.89,17.19-11,25.8-14.72,3.39-1.49,6.64-7.19,8.64-10.79l2.33-4.21a6.09,6.09,0,0,1-1.2-7.81c4.66-8.5,20.81,3.16,24.69,7.49,4.69,5.24.1,11.57-6,10.29l-3.14,4.89c-7.4,12.18-3.21,24.33-5.39,37.31C315.78,212.94,314.5,220.85,303.46,218.88Z"/><path class="cls-3" d="M306.91,222.19c-11.49-2.05-32.92-11.39-37.1-23.75-1.77-5.25,1.1-9.84,5.16-13,7.45-5.9,17.19-11,25.8-14.73,3.38-1.48,6.63-7.19,8.64-10.79l2.33-4.21a6.08,6.08,0,0,1-1.2-7.81c4.65-8.5,20.81,3.16,24.69,7.5,4.69,5.23.09,11.57-6.05,10.28l-3.13,4.89c-7.4,12.18-3.22,24.33-5.4,37.31C319.24,216.26,318,224.17,306.91,222.19Z"/><path class="cls-4" d="M282.55,184.52c-4,2.38-11.61,6.55-9.49,12.82.86,2.54,9.08,10.54,12.48,12.6,7.25,4.41,13.63,7.39,22,8.88,8.73,1.56,8.44-3.73,9.75-11.55,2.12-12.59-2.2-25.28,5.85-38.52l2.26-3.73L328,161.5c4.09,2.48,7.49-.74,4.7-3.86-1.23-1.38-7.62-5.76-9.85-7.12-2.05-1.24-6.26-2.71-7.81-2-2.91.72-1.69,3.92.76,7.14-4.21,6.94-7.93,15.65-13.62,18.15A156.29,156.29,0,0,0,282.55,184.52Z"/><path class="cls-15" d="M331,160.9l-1.39.51c-1.43-1.08-2.71-2.78-4-.58l-4.53,7.45-5.12,11c-.77,3.51-.92,9.49-1.27,11.78,1.46,5.3-17.11-9.13-21.88-9.85,2.45-2.56,8.57-5.81,12.28-7.47,4.08-1.83,8.87-12,10.05-11.83l1,.24-1.41-1.54,2.61.81-1.65-2.14,2.85,1.28-2.14-2.16,2.75,1.26-2.48-2.73.38-.85.57-.17c-.54-2-4.48-5.19-1.61-5.92l.54-.15c1.06.35,5.55,1.81,6.14,2.16l7.16,4.35c.7.43,2.63,2.54,1.94,3.92Z"/><path class="cls-16" d="M331,160.9l-1.39.51c-1.43-1.08-2.71-2.78-4-.58l-4.53,7.45-5.12,11c-.77,3.51-.92,9.49-1.27,11.78.58,2.14-2.07,1.07-5.76-1a142,142,0,0,1,15.55-37l5.4,3.28c.7.43,2.63,2.54,1.94,3.92Z"/><path class="cls-5" d="M310.73,196.64c-4-2.42-7.07-3.22-11.82-6.11l-2.76-1.28-4-2.43-1.23-1.73,2.68.64-2.3-1.39c3.16-4.34,16.68,8.08,20.37,8.44l2.37,1.89C317.07,197.94,313.89,198.56,310.73,196.64Z"/><path class="cls-26" d="M310.73,196.64c-1.1-.67-2.14-1.21-3.16-1.71.31-1.16.63-2.33.95-3.52a9.5,9.5,0,0,0,3.14,1.37l2.37,1.89C317.07,197.94,313.89,198.56,310.73,196.64Z"/><path class="cls-9" d="M310.78,202.25l4.15,1.93c1,1,1.21,3-1.33,3.69l-1.12-.49c-1.59-1.87-3.88-.45-.66,1.51.5-.23,2.2,0,1.58,1-.15.25-6.8.1-7.7.12,1,.82,13.21.39,5.5,2.86l-.18.28,2.08.4c-1,1-.66.44-2,.81l1.28,1.71-1.05.25-.81-.35c-4,.76-11.47-1.83-27.07-10.95-4.87-3-7.88-8.26-8.41-10.6-1.63-1.78,9.78-8.43,11.54-9.14L312.2,199l1.49.1.63.87C314.06,201.26,311.38,202.3,310.78,202.25Z"/><path class="cls-5" d="M310.78,202.25l4.15,1.93c1,1,1.21,3-1.33,3.69l-1.12-.49c-1.59-1.87-3.88-.45-.66,1.51.5-.23,2.2,0,1.58,1-.15.25-6.8.1-7.7.12,1,.82,13.21.39,5.5,2.86l-.18.28,2.08.4c-1,1-.66.44-2,.81l1.28,1.71-1.05.25-.81-.35c-1.94.37-4.73-.06-8.91-1.67,2.27-5.37,3.85-11.37,5.62-18l5,2.67,1.49.1.63.87C314.06,201.26,311.38,202.3,310.78,202.25Z"/><path class="cls-4" d="M284.15,198.05c-.52.84.94,2.92,1.53,3.28,1.48.9,2.25.33,3.34-.33,0-.47-.27-2.51-.68-2.76C287.29,197.6,284.61,197.29,284.15,198.05Z"/><path class="cls-5" d="M287.58,200.13l-1.43-.87c.52-.59,1-.15,1.78.3Z"/><path class="cls-4" d="M291.91,196.88c-1.43,2.35.2,4.43,2.1,5.59,1,.61,2.69-.1,3.4-1.1l-1.94.19-.07-.41,1.43-.11a7.92,7.92,0,0,0,1-2.87l-2.65-2.08A2.15,2.15,0,0,0,291.91,196.88Z"/><path class="cls-5" d="M294.21,198.27c.28-.47.69-.76,1.09-.51.93.56.07.38,1.09,1.44l-.53.86c-.4.66-.72.74-1.38.34l-.29-.17C293.21,199.63,293.77,199,294.21,198.27Z"/><path class="cls-4" d="M289.27,196.06l-.15-1.08c-2.8-.93-3-3.85.28-2.36.74.44,1.43.42.52,1.09l.4.63.63.85.58-.9c0-.82.37-1.74-.57-2.3-1.6-1-4.06-1.71-4.94-.26-.59,1-1.08,2.87.15,3.62C287.24,196,288,196.6,289.27,196.06Z"/><path class="cls-4" d="M309.91,186.62l-1.26-1.15a2.1,2.1,0,0,1-1.88-2.72c1.29-2.12,1.45-.31,2.82-1.42.73.53,1.72,1.7,1.31,2.36s-.3.28-1,1l.3,1.35,1-.94c.52-.37,1-3.31-.27-4.09l-2.29-1.39c-2.21-1.35-6.48,3.91-1.76,6.78A2.88,2.88,0,0,0,309.91,186.62Z"/><path class="cls-3" d="M69.16,124.85l-.19-.78h1L70,124l-.5-1.52a10.65,10.65,0,0,0-1.15,1.09A6.65,6.65,0,0,0,66.94,126a1.94,1.94,0,0,1,0,.2l.24.07A8.88,8.88,0,0,0,69.16,124.85Z"/><path class="cls-2" d="M48,138.88c-6.32,3.23-15.48-2-21.57-3.73-2.92.26-5.28-.14-7.38-2.55-1.88,3.07-6.26,3.13-9.41,2.81C4.75,134.91,3.8,131.25,0,129L14.22,96.87c3.39-.94,10-1.68,13.23-.11,4.12,2,4.18,7.54,5,11.47l5.29-12.85a18,18,0,0,0,6.12.42c6.69-.56,9.41,2.77,13.32,7.58C63.15,99.6,80.28,96,84.27,119.57l-8.87,2.81a69.48,69.48,0,0,1,4.44,5.74C78.16,142.1,60.47,148.48,48,138.88Z"/><path class="cls-3" d="M51.22,140.55c-6.33,3.23-15.49-2-21.58-3.73-2.91.26-5.28-.14-7.37-2.55-1.88,3.07-6.26,3.13-9.42,2.81-4.88-.5-5.83-4.16-9.63-6.37L17.44,98.54c3.39-.94,10-1.69,13.24-.11,4.12,2,4.17,7.54,5,11.47L41,97.05a18.15,18.15,0,0,0,6.11.42c6.7-.56,9.41,2.77,13.33,7.58,5.94-3.78,23.06-7.42,27.05,16.19l-8.86,2.81a67.7,67.7,0,0,1,4.43,5.74C81.38,143.77,63.7,150.15,51.22,140.55Z"/><path class="cls-4" d="M77.67,137c1.09-2,2-2.51,2.53-6.53l-1.67-2.39a7,7,0,0,0-1.5-1.76c-1.53-1.71-3.31-.8-5.37-.08-1.78,1.86-4,3-4.72,2.8l-2.08-.53c-1.2-.3-.79-2.36-.58-3.19.77-3.07,4.52-6.53,6.91-6.56l1.41,4.3,11.45-3.63-.17-.52c.09-5.17-4.64-11.14-10.39-12.59l-1.3-.32c-6.57-1.66-8.74,1-12.5,2.39-2.2-2.45-3.63-4.83-6.54-7.17s-7.37-.28-10.5-1L35.08,118.6c-.52-.21-2.91-12.16-3.17-13.71-1.21-7.34-8-3.17-12.23-4.62L6.73,129.58A34.51,34.51,0,0,1,11,133.35c1.85,1.66,3.19.76,5.54.92,5.93.41,3.11-7,6.08-10.56.08-.13.86-.18,1,.19.7,2.27-3.08,8.64,4.24,10.48l1.91-.38c5.67,1.58,10.81,3.36,16.22,4.73,2.54.64,4.17-.85,5.92-1.56,1.24,1.78,3,3,6,3.72l1.3.33C68.16,143.48,72.67,141.52,77.67,137Z"/><path class="cls-8" d="M52.3,102.06a6.47,6.47,0,0,0-4.11.08l-1.95-1,4.51-.31Z"/><path class="cls-5" d="M72.45,107.19,66.58,109c0-.7-1.2-1.68-.77-2C67,106,71,106.82,72.45,107.19Z"/><path class="cls-8" d="M55.07,104.73c1.5,1.68,6,6.49,4.94,10.23-.56,1.74-.62,4-3.33,7l-1.77-.67a14.76,14.76,0,0,0,2.29-4.81l2.27-.16-2-1-.08-.68,2.64-.37-2.64-.74-.08-.71,2.16-.72-2.23-.42c-.36-.21-.37-.38-.65-1.12l1.69-1.16c-.87-.26-2.27.55-2.6-.33l1.66-1.37-2.24.36-.93-.89,1.6-1.45-2.65.3,1.53-1.41-2.27.54c-1-.43.2-.7.86-.81s.32-.53-1.38-.19a2.25,2.25,0,0,1-1.38-.51l2.26-.28L49,102.65c.66-.55,2.45-.47,3.61-.18C53.59,102.72,54.5,103.93,55.07,104.73Z"/><path class="cls-9" d="M78.66,131.49l-1.24,3.84c-1,2-1.82,1.71-3.92,3.17-5.17,2.08-3.87,2-9.91,1.72l-1.81-.56c-6.2-1.56-6.91-13-4.59-16.18,1.87-2.57,4.83-11.58,11.61-13.89a7.81,7.81,0,0,1,5.07-1c3.89.53,8.28,3.59,8.45,10l-5.85,2.2c0-1-.24-3-2.35-3.71-7.23-1.82-14.16,6.2-12.05,13.16C65.35,141,75.66,128.33,78.66,131.49Z"/><path class="cls-5" d="M66.08,109.61c-.67-.17-.22.68-1.43.38l-.93-2,1.12-.62C65.17,108.33,66.14,108.08,66.08,109.61Z"/><polygon class="cls-5" points="64.31 110.88 61.28 109.16 63.03 108.09 64.31 110.88"/><path class="cls-16" d="M21.22,101.35c.86,0,5.65-.1,5.68-.09.8.2,2,.55,1.86,1.37l-4.46.31Z"/><path class="cls-5" d="M62.45,110.41c2.33.79-.39,1.94-1.66,2.43l-.62-3.47,1.08.54Z"/><path class="cls-15" d="M15.65,132.75l-1.41.21,1.22-1.64c4-11.35,4.7-13.75,8.52-23.49,1.29-3.3,1.72-4.66,6-3.57l.41-.07,4.69,27.12-.63-.08-3.88.79.07.37c-2.74-.76-1.2-8.61-3.5-9.19l-1.56-.39a10.79,10.79,0,0,0-4.56-.33L17.8,133Z"/><path class="cls-16" d="M16.65,120l-.27,1-4.11,9.76C7,129,12.26,122.32,14,117.85c1.72-4.29,5.26-10.59,6.35-14.91,4.87,1.23,1.57,3.55.13,7.62C20,111.91,16.67,120,16.65,120Z"/><path class="cls-5" d="M73.25,121.65l-1.16-3.07c1.51-1.07,3.38.27,3.62,2.51Z"/><path class="cls-10" d="M45,123.81c2.39,1.62,5.82,5,5,8.17-.67,2.51-4.69,5.15-7.19,4.8L36,134l.39-2.4c1.5.52,2.15,1.37,4.23,1.9l.78.2c3.5.64,4.08-.75,4.48-1.91,1.53-4.43-4.72-8.48-7.49-8l-2.27,5.31-.44-.19c.16-8.64-1.51-3.63,2-13,1.21-3.24,4.07-11.5,5.8-13.59,5.79,1.46,13.87,7.55,12.34,13.63l-.19.78C53.54,125.13,45.73,121.72,45,123.81Z"/><polygon class="cls-8" points="56 122.3 55.33 123.01 54.66 121.75 56 122.3"/><path class="cls-5" d="M79,130.23c-1.68-.38-3.14.24-4.31,0-.55-.14-2.05-2.71-2.2-3.33,1,0,1.56-.86,2.49-.62,1.69,0,2.59,1.49,3,2.64Z"/><polygon class="cls-8" points="54.28 122.19 55.11 123.44 51.13 123.56 54.28 122.19"/><path class="cls-5" d="M55,125l-.33,1.29c-.87-.49-.69-.2-.51-1.19Z"/><path class="cls-5" d="M71.58,127.64l1.86,3.09-1.54-.22-.07,1.16c-.66.39-.35.94-1.62.13L69.65,133l-1.44.27c-2.64-.38-3.1-1.94-3.25-3.67l1.51.58C68.63,130.48,69.84,128.65,71.58,127.64Z"/><path class="cls-8" d="M50.93,127.86l1.81-1.09-2.29.2-.4-.52,2.29-.67-2.66.24-.5-.61,2.6-.4-3.07-.27-.39-.47a12.61,12.61,0,0,1,2.29,0l1,.08,1.73,2.1L53.5,128Z"/><path class="cls-8" d="M39.13,125.12c.86.22,1.35.23,1.13,1.1s-1,.47-1.89.28l.92-.32Z"/><path class="cls-8" d="M53.64,128.92l-2.23,0c.24-.52,1.76-.49,2.38-.38Z"/><path class="cls-3" d="M41.6,125.59a12.23,12.23,0,0,1,3.26,2.89l-.28,1.58-3.49-1.71Z"/><path class="cls-8" d="M50.91,136.25l-3,.92c.92-.6,2.62-1.53,2.17-2.47l1.59.1-1.08-.73,2.25-.07-1.6-.93.22-.42,2.24-.22-2.13-.71,2-.3-1.82-.33,1.84-.84-2.08-.05,0-.81,2.44,0a19.85,19.85,0,0,1,.32,2l-.26,1C53.72,133.67,52.28,135.89,50.91,136.25Z"/><polygon class="cls-8" points="37.66 128.24 38.1 127.06 40.49 128.05 37.66 128.24"/><path class="cls-16" d="M25.1,123.78c.74,0,.56-.13,1.11,0s1.09,2.24,1.2,2.86l-2.75-1,1.49-.62-1.31-.17Z"/><path class="cls-8" d="M38.33,131.13l-1.86-.95c.32-.58,3.48-1.27,4.18-1.1.53.14,3.75,1.57,3.64,2,.34.65-1.06,1.68-1.35,1.52l-3.2-.71,1.5-1.84Z"/><path class="cls-16" d="M24.75,126.28c.78.88,2.66,1,2.86,1.75s.16,2.21.32,3.16l-3.23-1.43,2.15-.83-2.06-.59Z"/><path class="cls-5" d="M53,136.47l1.72-2.67,1.58,2.53,1,1.64a23.32,23.32,0,0,0-3.85-.42Z"/><polygon class="cls-5" points="53.95 138.09 58.57 138.84 60.44 140.65 56.22 139.43 53.95 138.09"/><path class="cls-16" d="M25,130.65l3.15,1.53-.16.75a2.91,2.91,0,0,1-3.14-1.29Z"/><path class="cls-4" d="M26.63,107.59l-4.07,10.64.83,1,5.92-.1C28.67,116.85,29,108.38,26.63,107.59Z"/><path class="cls-16" d="M25.09,116.55l.64-2.4.41-1.56.26-1C27.66,113.72,28.18,118.45,25.09,116.55Z"/><path class="cls-4" d="M45.91,108.05c-1.69.29-3.55,6.37-3.6,9.69,2.75,1.6,3.59,1.54,5.18,1.58C54.52,117.24,50.83,108,45.91,108.05Z"/><path class="cls-8" d="M44.19,112.36c.31-1.23.52-2.2,1.92-1.67C45.91,113.11,45.08,112.67,44.19,112.36Z"/><path class="cls-8" d="M43.38,117.32a4.67,4.67,0,0,1,3.3-1.22l2.78.77C48.82,119,45,118.88,43.38,117.32Z"/><path class="cls-3" d="M47.52,109.48c2.62,1.92,3.14,4,2.07,6.61l-3.37-.93Z"/><path class="cls-8" d="M43.34,115.87c.58-3,1-2.56,2.45-2.6C45.64,115,43.84,117,43.34,115.87Z"/><polygon class="cls-8" points="44.97 110.09 45.74 109.03 46.74 108.97 46.32 109.96 44.97 110.09"/><path class="cls-2" d="M209.63,146.85c-11.34-2.73-20.77-9.51-28.93-17.6,1.26-1.65,2.36-3.49,4.28-4.44-6-4.64-9.25-12.63-9-20.14.55-15.08,19.73-31.5,35.65-25.42l-.06,8.11c12.32,3.18,18.18,14.11,12.92,26.91-1.9,4.17-4.7,8.43-9,10.45-3,1.42-6.52,1.66-9.85,1.73l-1.52,3.63a38.34,38.34,0,0,1,4.54,4.38C212.05,138.31,214.12,143,209.63,146.85Z"/><path class="cls-3" d="M213.62,148.35c-11.34-2.73-20.77-9.51-28.93-17.6,1.27-1.64,2.36-3.48,4.28-4.43-6.05-4.65-9.25-12.64-9-20.15.54-15.08,19.72-31.49,35.64-25.42l0,8.12c12.32,3.17,18.17,14.1,12.91,26.9-1.9,4.17-4.69,8.44-9,10.46-3,1.41-6.52,1.65-9.85,1.72l-1.52,3.63A37.76,37.76,0,0,1,212.7,136C216,139.82,218.11,144.48,213.62,148.35Z"/><path class="cls-4" d="M185.85,119.43c1.59,2,3.14,4.29,5.5,5.72l1,.59,10.8,4.77-.3.54c-4.57-2.77-12-5.37-14.82-.81l-.23.31c5.35,5.3,16.2,13.1,25.25,15.28,4.47-3.85-6.38-12.75-7.69-13.45l2.8-6.71c8.87-.12,13-.74,17.7-9.62,2.89-5.41,3.19-16.88-2.38-20.26L218,92.51l-4.77-2.16,0-8.16c-6.14-3-20.18,4.45-25.26,10a22.54,22.54,0,0,0-2.21,27.25Zm24.33-33.54,1.51.12.1,3.95c-2.64,1-7.63-.49-12.39,2.9-5.16,3.66-5.87,4.78-7.35,11.26-2,9,2.68,17.54,13.08,20.95-1.39,2.77.06,2.66-3.82,1.19a33.9,33.9,0,0,1-5.7-2.48c-8.79-5.35-11.71-15.49-6.63-23.84l1.64-2.7c1.59-2.62,7.48-7,9.61-8.19.78-.44,4-1.86,5.2-2.35C206.33,86.35,210,86,210.18,85.89Z"/><path class="cls-6" d="M187.28,119.68c-3.24-4-3.64-10.86-3.69-12.18.27-5.91,1.41-17.46,21-23.69l1.66-.51,5.78-.82L211.68,85c-10.31-3-46,21.6-13.88,41.09,1.17.71,6.29,1.48,7.65,2.61.34.29.23,1,.07,1.33l-.08.21c-4.26-1.73-8.78-3.17-12.4-5.37C191.6,123.76,188.34,121.2,187.28,119.68Z"/><path class="cls-5" d="M226.46,102.11c-.5-.83-.72-.81-.77-1.78A1.67,1.67,0,0,1,226.46,102.11Z"/><polygon class="cls-5" points="225.65 102.14 226.02 103.69 227.18 104.4 227.01 105.09 226.67 105.67 225.86 105.71 224.28 105.9 223.15 105.38 225.14 102.1 225.09 101.29 225.65 102.14"/><path class="cls-9" d="M205.26,94c.89.54,2.35-.72,2.47.71-1.83-.54-2.11.56-4.29-.76l1.26-.2.37.13Z"/><path class="cls-5" d="M226.68,110.43l-.36,1.1-.61-.37A.9.9,0,0,0,225,111l.53-.47-.38-.22c-1.09-.18-.48.7-3.52-.29.85-1.4,2.61-2.24,3.88-1.61l.21,1.27-.33.24c.08.12.47,1,.77.47l.41-2.1.45.25Z"/><path class="cls-5" d="M225.2,112.44l-.58-.35.35-.58C225,111.82,225.12,112.13,225.2,112.44Z"/><path class="cls-5" d="M219.64,109.85c-1.74,1.52-2.46-.46-.49-1.35C219.88,109.06,219.6,108.9,219.64,109.85Z"/><path class="cls-5" d="M224.24,115.75c-.87,1.45-3.19,5-5,5.21-1-1-2.83-3.89-1.12-6,.66-1.09,1.47-1.23,2.66-1.34Z"/><path class="cls-15" d="M195.62,101.6l3,1.18-.49,4.29.38.24-.08,1-.35.58-.09.23,3,1.1.1-.27c-.15,2.51,2.22,3.82,3.2,5.93a15.6,15.6,0,0,1-1,6.51l-3.46-2.11,2.26-2-3,1.25-1.28-1,2.34-2-2.93,1.13-.55-.75,2.05-2.28-2.39,1.61-1-1.92,3-2.88c-1-.68-3.46,2.31-3.53.41-.05-1.36,1.62-1,2.7-2.82l-2.89,1.28-.44-.55,2.46-2.32-2.26.79-.36-.42,2.77-2.38-2.4.91-.3-.59,1.91-2-1.17-.32c-1.45-.56-.71-1-.13-2.18Z"/><path class="cls-6" d="M203.06,132.22l2.57,1.37c3.75,3,6.39,6.12,7.32,9.22-8.13-2.9-15.51-7.82-22.55-13.66l4.33,2.12L193.48,129l3.93,2.56-1.28-2.22,3.62,2.57-.73-1.56A27.27,27.27,0,0,1,203.06,132.22Z"/><path class="cls-7" d="M207.62,135.31c2.69,2.48,4.57,5,5.33,7.5a57,57,0,0,1-8.25-3.73A36.53,36.53,0,0,0,207.62,135.31Z"/><path class="cls-9" d="M206.07,104.05l-1,2.45,0,0c-3.54,10.78,1.28,1.81,5.39,10.67,0,.94-.63,2.2-2.35,3.85l-.85.54c-4.29,3.3-1.93.13-1.65-4,0-2.44.25-2.29-1.68-4.19-2.71-2.67-1.48-5.07-2.49-8.26-.78-.47-1,.37-1.4,1l.09,1.32-.87-.47.08-1,.21-3.73-3.9-2.79c-.71.7,1.42-1.8,1.57-2.16l.58.35,7.85.54.24-.39.38.24c4.44,2.21,2.26,2.13-.18,6Z"/><path class="cls-15" d="M206.25,106.58l.8-2,3-5.84,0-.82-8-2.48-1.72-.61c1.59-1.1,9.51,3.63,9.89-.24l.18-.5L205,92.19c2.49-.81,9.1-.6,13.41,1.85,3.76,2.94,5.56,3.09,5.23,4.49,1.7,4.1-3.94,6.52.3,8.64L221,109.36l-.23.38-.23-.93c-.19-2.18-3.41-1.14-3.57,1.53.3,1.06,1,1.08,2.23,1,.17-.5.16-.12.48-.64l.58-1,.39.24-.24.38c.22.82,1.23.71,2.05,1l1.11.08.4,0c-1.73,3,.33,1-3.27.71a5.21,5.21,0,0,0-3.64,2c-2.24,3.1-.06,5.89.7,7.51l.17,1-9.4,1.56c-.57.24-2.18.13-1.54-.93.26-.42.21-.67.55-.47,3.49-2.27,5.15-6.2,2.14-9.24-1.75-1.77-4.58-1.44-5-3C204.43,109.42,206,107.69,206.25,106.58Z"/><path class="cls-16" d="M213,92.19A17.61,17.61,0,0,1,218.38,94c3.76,2.94,5.56,3.09,5.23,4.49,1.7,4.1-3.94,6.52.3,8.64L221,109.36l-.23.38-.23-.93c-.19-2.18-3.41-1.14-3.57,1.53.3,1.06,1,1.08,2.23,1,.17-.5.16-.12.48-.64l.58-1,.39.24-.24.38c.22.82,1.23.71,2.05,1l1.11.08.4,0c-1.73,3,.33,1-3.27.71a5.21,5.21,0,0,0-3.64,2c-2.24,3.1-.06,5.89.7,7.51l.17,1-4.55.75C217,112.66,217.53,100.37,213,92.19Z"/><path class="cls-6" d="M189,130.73l.7-1,8,6.2c4,2.43,6.67,4.3,10.39,6a51.51,51.51,0,0,0,5.06,1.73l-.28,1C208.93,145.71,192.68,134,189,130.73Z"/><path class="cls-7" d="M204.05,139.79a42.57,42.57,0,0,0,4,2.07,51.51,51.51,0,0,0,5.06,1.73l-.28,1c-1.67.49-5.56-1.34-9.76-3.85C203.43,140.41,203.74,140.11,204.05,139.79Z"/><path class="cls-2" d="M250.1,148.67a16.78,16.78,0,0,1,3.09,6.26c1.14,6.4,2.19,12.59,3.9,18.86,3.72,10,5,10.66,6.17,13.75,1.92,6,.1,7.3.45,12.46.25,3.6.74,5.79-.6,9.44-2.13,4.12-7.09,6.34-11.48,7.18-8.58,1.64-15-.89-17.44-9.25a31.14,31.14,0,0,0-2.3-6.38,24.71,24.71,0,0,1-2.29-12.43c1.05-9.51-3.64-19.54-5.07-28.92a28.58,28.58,0,0,1,.24-9.41c.89-5.18,1.17-16.67,6.16-19.43C238.47,132.63,245.39,142.5,250.1,148.67Z"/><path class="cls-3" d="M246.21,148.41a16.67,16.67,0,0,1,3.09,6.25c1.14,6.4,2.19,12.59,3.91,18.86,3.71,10,5,10.66,6.17,13.75,1.91,6,.09,7.3.45,12.46.24,3.6.73,5.8-.6,9.44-2.14,4.12-7.09,6.34-11.48,7.18-8.58,1.64-15-.88-17.44-9.25a31.77,31.77,0,0,0-2.31-6.38,24.71,24.71,0,0,1-2.29-12.43c1.06-9.51-3.63-19.54-5.07-28.92a28.86,28.86,0,0,1,.24-9.41c.89-5.18,1.18-16.67,6.17-19.43C234.58,132.36,241.5,142.23,246.21,148.41Z"/><path class="cls-4" d="M228.69,133.49c-2.61,1.45-3.94,14-4.47,17-1.34,7.86.38,10.1,2,18.57,1.14,5.84,3.85,14.16,2.95,18.54-.41,2,.2,6.54.83,9.11.49,2.05,1.66,3.23,2.35,5.3,1.07,3.26,1.2,5.24,3,8.41,2.86,5.17,19.4,3.38,21.37-4.09.7-2.65-.07-3.74-.25-6.41s1.22-3.27,1.25-5.73c0-1.37-3.28-11.51-4.35-13.43-.85-.9-1.12.23-3.32-6.07-.61-2.21-1.19-4.32-1.75-6.6-1.07-4.32-1.58-8.74-2.31-12.87C245,149.6,232.26,138.85,228.69,133.49Z"/><path class="cls-8" d="M254.43,201a6.22,6.22,0,0,1-1.87,3.85c-.58.55,2.95.2,2.86.85a1.47,1.47,0,0,1-2.09,1.26l-1,.92,1.71.57c-4.35,2.73-8.4,3-13.55,2.81-2.46-.08-5.66-3.91-5.83-6.85,2-.5,8,2.31,12.61.21C252.52,204.14,254.41,201,254.43,201Z"/><path class="cls-10" d="M254.43,201a6.22,6.22,0,0,1-1.87,3.85c-.58.55,2.95.2,2.86.85a1.47,1.47,0,0,1-2.09,1.26l-1,.92,1.71.57a18.72,18.72,0,0,1-9.86,2.84c-1.79-2-2.92-4.09-2.63-6a11.13,11.13,0,0,0,5.72-.7C252.52,204.14,254.41,201,254.43,201Z"/><path class="cls-11" d="M241.21,203.39a20.74,20.74,0,0,1-5.82-.41,3,3,0,0,1-2.07-1.66c1.51.13,7.54,1.1,9.07.69,3.56-1.39,8.39-3.28,10.42-6.75,1.08-1.84,3.3-5.22,2.95-1C254.88,200.62,244.37,203.46,241.21,203.39Z"/><path class="cls-11" d="M254.9,189.67a17.13,17.13,0,0,1-11.42,10.22c-2.57.35-9,2.24-11.3-2a9.33,9.33,0,0,1-.83-2.19c3.45,3.41,14.52,5,23.37-7.25C254.89,188.26,254.64,189.82,254.9,189.67Z"/><path class="cls-11" d="M252,187.94c.47,1.88-2.53,4.48-4.46,5.61l-.18-1.09C249.92,191,250.48,189.35,252,187.94Z"/><path class="cls-11" d="M246.24,194.2c-4.09,2.39-11.31,4-13.42-.17,3.64,1.1,8.29.55,13.52-.93Z"/><path class="cls-6" d="M241.49,177.14l-1.44-6-1.22-4.25-.51-1.61-.92-4.4-1.16-3.61c3.12,2.28,5.6,2.14,7.51-1.54.32,2.49.48,5,1.26,6.14l-2.09,3,2.35,0L243.14,169l2.71-1.85c1.35,0,.25.56.21,2.06l-.83,3.7,2.18-1.38.85,2.23-2,3,2.34-.77.08,1.35L247,179.24l1.5.41-1.67,2.51,1.8-1,1-.73-2,3.53,3.37-1.55-3.59,6.21,3.49-2.36c-1,2.45-3.4,4.52-6.68,6.32C244.07,187.45,242.43,182.22,241.49,177.14Z"/><path class="cls-12" d="M231.23,190.74l.78-2.56c-.7-4-3.52-20-5.31-26.26,3.16,1.78,6,.08,7.79-4l.43.53,7.39,34C239,193,234,193.85,231.23,190.74Z"/><path class="cls-11" d="M252.34,183.66c1.44.19,1.37,2.76.18,3.87Z"/><path class="cls-13" d="M233.33,152.57c.14,3.8-1.06,6.8-5.32,7.05l-1.62,0a59.12,59.12,0,0,1,.09-12.05c3.49,1.14,5.58,1.17,9.33-2.95a38.29,38.29,0,0,1,6.52,7.27c1,1.47-.05,3.82-2.4,4.08C236.73,157,235.69,154.61,233.33,152.57Z"/><path class="cls-14" d="M233.33,152.57c.14,3.8-1.06,6.8-5.32,7.05l-1.62,0a59.12,59.12,0,0,1,.09-12.05c2.05.67,3.62,1,5.33.24Z"/><path class="cls-2" d="M298.07,246.82c-4.56,15.4-23.23,23-37.23,14.53-8.81-5.36-16.17-17-13.95-27.53,2.16-11.76,13.05-20.75,24.89-21.31C288.83,211.71,301.89,231.05,298.07,246.82Z"/><path class="cls-3" d="M302,248.35c-4.56,15.4-23.23,23-37.23,14.53-8.81-5.35-16.17-17-14-27.53,2.16-11.76,13-20.75,24.89-21.3C292.79,213.25,305.85,232.58,302,248.35Z"/><path class="cls-4" d="M253.43,235.86a16.28,16.28,0,0,0,2.06,12.79c1.76,2.76,5.81,9,9.14,11l1.54.93c11.42,6.94,24.53,2.68,31.66-9l.13-.22c3.41-4.89,2.31-16.2-1.14-21.05a46.71,46.71,0,0,0-5.11-7.36C278.57,209.56,256.45,219.24,253.43,235.86Z"/><path class="cls-23" d="M291.63,224.65l.22.13c1.17.72,2,1.14,1.66,2.22l1.29,2.06c.1.66-3.4,3.91-2.82,3.93-.71,1-.62.62-1.55.56l-.3-.48-4.33-1.73.1-.24L282.39,229c-3-1.84-.61-1.69-1.75-2.57,3.24-8.34,4.19-8.13,10.95-2.67l-.13.21C289,222.46,289.88,223.31,291.63,224.65Z"/><path class="cls-3" d="M292.16,225c1,.61,1.64,1.05,1.35,2l1.29,2.06c.1.66-3.4,3.91-2.82,3.93-.65.89-.63.66-1.35.58A27.76,27.76,0,0,0,292.16,225Z"/><path class="cls-23" d="M266.76,232.42l-.22-.14-2.63.15c-.07-1.69.16-2.31-.18-3a4.5,4.5,0,0,1-.83-2.07c0-1.71,2.71-3.8,4.09-4.77,5.22-3.65,6.42-2.85,11.51.4l.66.4.27-.44c.9.65.78.64.21,1.63l-.75-.75-.13.22.54,3.41Z"/><path class="cls-3" d="M298.08,237.3l.35.85.25,3.12-.06,2.07.09.35-.1,1.15-3.88,3.33-1.29-.76-1.45-.58c1.78,3.84,2.55,8.35-2.62,10.75l-.46,1.81-.83-.19.44.27-.26.44c-1.29-.24.41-.36-.93,0l-.62.53-.84.39c-1.64-1.61-4.95-3.09-5.13-5.11a19,19,0,0,1,.53-3.26,19.08,19.08,0,0,0,.16-2.15l9.18-4.81-.07-.25.92.92.44.27-.75-1.18.32-.59-.14-8.06.1-1.28c.93-1.52,2.92-3.72,5.33-2.26l.89,2.42C298.27,235.91,298.05,236.64,298.08,237.3Z"/><path class="cls-23" d="M263.28,248.05c-1.22-.41-1.73-1-4.34-2.25l-.81-.29c-1.26-3.9-1.2-6.46,3-9.47,2.73-2,4.49-2.69,7.37-.23,1.29,1.1,2.12,5.91,2.23,7.45.27,3.85-3.35,3.12-5.44,6Z"/><path class="cls-23" d="M266.45,257.2c.45-1-3.84-6,2.69-8.9l.54-.88.57.05.79-.82.18.21.27-.44,8.56,4.21c-.45,1.5-.09,4.06-.45,5.63C278.42,263.6,269.16,261.48,266.45,257.2Z"/><path class="cls-3" d="M266.45,257.2a1.07,1.07,0,0,0-.06-.66,40.16,40.16,0,0,0,12.2-6.63l1.46.72c-.45,1.5-.09,4.06-.45,5.63C278.42,263.6,269.16,261.48,266.45,257.2Z"/><path class="cls-24" d="M278.13,247.88l-1.6-.77h0l-3.93-1.91-2.79-11.05,10.14-5.67,7.21,5c.23-.05-.17-.23.51.18l1.1.67,0,.26.58.4.07-.27a6.48,6.48,0,0,1,.86.92h0c.26.41,0,.61,0,1.69a8,8,0,0,1-.11,2.65l.09.35.58,3.61-11.52,4.49-1.24-.39Z"/><path class="cls-25" d="M290,235.32a3.05,3.05,0,0,1,.27.33h0c.26.41,0,.61,0,1.69a8,8,0,0,1-.11,2.65l.09.35.58,3.61-9.65,3.76A36,36,0,0,0,290,235.32Z"/><path class="cls-24" d="M274.15,218.54l6.22,3.41,3.31-3.16C280,217.84,276.63,217.5,274.15,218.54Z"/><path class="cls-25" d="M298.07,246.82l-3.05,3-.7,4.57A24.05,24.05,0,0,0,298.07,246.82Z"/><path class="cls-25" d="M283.93,261.38l-3.73-2.64-2.78,3.66C280.1,262.79,282.45,262.71,283.93,261.38Z"/><path class="cls-24" d="M264.27,257.54A29.49,29.49,0,0,1,257,247.23l7.3,3.15Z"/><path class="cls-24" d="M256.52,238.48c-.76-3.78.18-7.6,3.67-11.49l1.74,5Z"/><path class="cls-2" d="M62.35,265.91c-11.94-2.88-21.86-10-30.45-18.53,1.33-1.73,2.49-3.66,4.51-4.67-6.37-4.88-9.73-13.29-9.45-21.2.58-15.87,20.76-33.14,37.51-26.75l0,8.54c13,3.34,19.13,14.85,13.59,28.32-2,4.38-4.94,8.87-9.45,11-3.15,1.49-6.86,1.74-10.37,1.81l-1.59,3.83a40,40,0,0,1,4.78,4.61C64.9,256.92,67.08,261.83,62.35,265.91Z"/><path class="cls-3" d="M66.56,267.49c-11.94-2.87-21.86-10-30.45-18.52,1.33-1.74,2.48-3.67,4.5-4.67-6.36-4.89-9.73-13.3-9.45-21.2.58-15.87,20.76-33.15,37.52-26.76l-.06,8.55c13,3.34,19.13,14.84,13.59,28.31-2,4.39-4.94,8.88-9.45,11-3.15,1.49-6.86,1.74-10.37,1.82l-1.59,3.82a40.05,40.05,0,0,1,4.78,4.61C69.1,258.51,71.28,263.41,66.56,267.49Z"/><path class="cls-4" d="M37.32,237.05c1.68,2.14,3.31,4.51,5.79,6l1,.62,11.36,5-.32.57c-4.8-2.92-12.67-5.66-15.59-.85l-.25.32c5.64,5.58,17.05,13.79,26.58,16.09,4.7-4.06-6.71-13.42-8.09-14.17l2.94-7c9.34-.13,13.66-.79,18.63-10.12,3-5.7,3.36-17.77-2.51-21.33l-5.68-3.45-5-2.27.06-8.6c-6.47-3.17-21.24,4.69-26.59,10.52-8.12,8.85-7.27,21.1-2.33,28.68Zm25.61-35.3,1.59.13.1,4.16c-2.77,1.09-8-.52-13,3-5.42,3.86-6.18,5-7.73,11.85-2.15,9.46,2.82,18.46,13.76,22-1.45,2.92.06,2.8-4,1.26a35.94,35.94,0,0,1-6-2.61c-9.26-5.63-12.32-16.3-7-25.09l1.73-2.84c1.68-2.76,7.88-7.34,10.12-8.62.82-.47,4.2-2,5.47-2.47C58.88,202.23,62.69,201.89,62.93,201.75Z"/><path class="cls-6" d="M38.83,237.32C35.41,233.07,35,225.88,35,224.49c.28-6.21,1.48-18.37,22.09-24.93l1.75-.53,6.08-.86-.37,2.68c-10.84-3.2-48.36,22.73-14.59,43.24,1.22.75,6.61,1.55,8,2.75.36.3.25,1.06.08,1.4l-.09.22c-4.48-1.82-9.24-3.34-13-5.65C43.38,241.6,39.94,238.91,38.83,237.32Z"/><path class="cls-5" d="M80.06,218.82c-.52-.87-.76-.85-.8-1.88A1.76,1.76,0,0,1,80.06,218.82Z"/><polygon class="cls-5" points="79.21 218.86 79.6 220.49 80.82 221.23 80.64 221.96 80.28 222.57 79.43 222.61 77.77 222.81 76.58 222.27 78.68 218.81 78.62 217.96 79.21 218.86"/><path class="cls-9" d="M57.75,210.27c.94.57,2.47-.75,2.6.75-1.93-.56-2.22.6-4.51-.8l1.32-.21.39.14Z"/><path class="cls-5" d="M80.3,227.58l-.39,1.15-.63-.38c-.4-.24-.4-.16-.74-.17l.57-.49-.4-.24c-1.15-.19-.51.74-3.7-.3.89-1.48,2.74-2.36,4.08-1.69l.22,1.33L79,227c.08.13.5,1,.81.5l.44-2.22.47.27Z"/><path class="cls-5" d="M78.74,229.69l-.61-.37.37-.61C78.57,229,78.65,229.37,78.74,229.69Z"/><path class="cls-5" d="M72.89,227c-1.83,1.59-2.59-.48-.52-1.43C73.13,226.13,72.85,226,72.89,227Z"/><path class="cls-5" d="M77.73,233.18c-.92,1.52-3.36,5.31-5.27,5.48-1.1-1-3-4.09-1.19-6.28.7-1.15,1.55-1.3,2.8-1.41Z"/><path class="cls-15" d="M47.61,218.29l3.13,1.24L50.22,224l.41.25-.09,1.06-.37.61-.09.24,3.2,1.16.1-.29c-.15,2.64,2.34,4,3.38,6.25a16.33,16.33,0,0,1-1,6.84l-3.64-2.22,2.37-2.09-3.19,1.32-1.35-1.1L52.37,234l-3.09,1.19-.58-.8L50.86,232l-2.51,1.7-1.1-2,3.15-3c-1-.72-3.64,2.43-3.72.44,0-1.44,1.71-1.11,2.84-3l-3,1.35-.46-.59,2.59-2.43-2.38.82-.38-.44,2.92-2.5-2.54,1-.31-.62,2-2.09-1.23-.34c-1.52-.59-.75-1-.14-2.29Z"/><path class="cls-6" d="M55.44,250.51,58.15,252c3.94,3.22,6.71,6.45,7.7,9.7-8.56-3-16.33-8.23-23.73-14.37l4.55,2.23-1.32-2.4,4.14,2.7-1.35-2.35L52,250.17l-.76-1.64A29.66,29.66,0,0,1,55.44,250.51Z"/><path class="cls-7" d="M60.23,253.76c2.83,2.62,4.82,5.25,5.62,7.89a60.39,60.39,0,0,1-8.69-3.92A36.61,36.61,0,0,0,60.23,253.76Z"/><path class="cls-9" d="M58.6,220.86l-1.05,2.58,0,0c-3.73,11.35,1.34,1.91,5.68,11.23,0,1-.66,2.32-2.47,4.06l-.9.57c-4.52,3.47-2,.13-1.74-4.25,0-2.57.26-2.41-1.77-4.4-2.85-2.81-1.55-5.35-2.62-8.7-.82-.49-1.07.38-1.48,1.06l.1,1.38-.91-.49.08-1.06.22-3.92L47.61,216c-.75.73,1.49-1.89,1.65-2.28l.61.37,8.27.58.24-.41.41.25c4.67,2.33,2.37,2.24-.2,6.27Z"/><path class="cls-15" d="M58.8,223.53l.83-2.11,3.14-6.15,0-.86-8.42-2.61-1.81-.64c1.67-1.16,10,3.82,10.41-.25l.19-.53-5.66-2c2.62-.85,9.57-.63,14.11,2,4,3.1,5.85,3.25,5.51,4.73,1.78,4.31-4.16,6.85.31,9.08l-3.06,2.31-.25.41-.24-1c-.2-2.31-3.59-1.21-3.75,1.61.31,1.11,1,1.13,2.35,1,.17-.52.16-.12.5-.67l.61-1,.41.25-.25.4c.23.87,1.29.75,2.15,1l1.18.09.41,0c-1.82,3.16.35,1.1-3.44.75a5.48,5.48,0,0,0-3.83,2.12c-2.36,3.25-.06,6.19.74,7.9l.18,1.06L61.2,242.1c-.6.25-2.3.14-1.62-1,.26-.44.22-.7.57-.49,3.67-2.39,5.42-6.53,2.25-9.73-1.84-1.86-4.82-1.51-5.23-3.19C56.88,226.51,58.57,224.69,58.8,223.53Z"/><path class="cls-16" d="M65.94,208.38a18.72,18.72,0,0,1,5.62,2c4,3.1,5.85,3.25,5.51,4.73,1.78,4.31-4.16,6.85.31,9.08l-3.06,2.31-.25.41-.24-1c-.2-2.31-3.59-1.21-3.75,1.61.31,1.11,1,1.13,2.35,1,.17-.52.16-.12.5-.67l.61-1,.41.25-.25.4c.23.87,1.29.75,2.15,1l1.18.09.41,0c-1.82,3.16.35,1.1-3.44.75a5.48,5.48,0,0,0-3.83,2.12c-2.36,3.25-.06,6.19.74,7.9l.18,1.06-4.79.8C70.12,229.92,70.67,217,65.94,208.38Z"/><path class="cls-6" d="M40.65,248.94l.74-1.07,8.41,6.53c4.2,2.55,7,4.52,11,6.26a55,55,0,0,0,5.32,1.82l-.29,1C61.62,264.71,44.52,252.39,40.65,248.94Z"/><path class="cls-7" d="M56.48,258.47a44.81,44.81,0,0,0,4.27,2.19,55,55,0,0,0,5.32,1.82l-.29,1c-1.77.51-5.86-1.41-10.28-4.06C55.83,259.13,56.16,258.81,56.48,258.47Z"/><path class="cls-2" d="M137.48,279.33c-1.34-2.42.22-4.92,2.35-6.25-1-3.31,2.76-4.72,4.93-6.07,3.75-2.32,25.31,5.85,27.69,8.25,1.45,1.46.41,3.92-.27,5.5-2.11,4.89-5.07,9.26-7.51,14-3.75,7.23-7.09,14.61-10.17,22.15l-1.07-.9-1.83,2.31-23-8.53c-1.54-.9-3.25-1.72-3.53-3.72a6,6,0,0,1,1.38-4.11c-1.34-2.44.15-5.91,3-7a4.94,4.94,0,0,1,2.5-5c-.45-2.48,1.48-4.8,3.77-5.53A4.77,4.77,0,0,1,137.48,279.33Z"/><path class="cls-3" d="M139.24,280.72c-1.35-2.43.21-4.92,2.34-6.26-1-3.31,2.76-4.71,4.94-6.06,3.74-2.33,25.31,5.85,27.68,8.25,1.45,1.46.41,3.91-.27,5.49-2.1,4.9-5.07,9.27-7.51,14-3.75,7.24-7.09,14.62-10.17,22.16l-1.07-.9-1.83,2.3-23-8.53c-1.54-.89-3.24-1.72-3.53-3.71-.22-1.57.57-2.86,1.39-4.11-1.35-2.44.14-5.92,3-7a4.91,4.91,0,0,1,2.49-5c-.45-2.48,1.48-4.8,3.77-5.53A4.75,4.75,0,0,1,139.24,280.72Z"/><path class="cls-4" d="M164.57,295.14c1.15-2.22,9.42-15.74,8.15-17-.46-.47-14.8-5.35-16.86-6.11-2.26-.82-6.51-2.92-8.24-1.84-1.52.94-6.54,2.57-2.63,5.3-1.27-.3-7,2.84-2.38,5.7-.92,1-2.39.63-3.12,2.59-.8,2.16,1.36,1.64,0,3.89-2.44-.67-5.76,2.92-2.59,4.86-1.15.5-2.72,0-3.5,1.85-1,2.31.93,2.86.67,3.82-3.49-1.07-5.78,3.41-3.33,4.91-1.21,2.08-3.24,4-.81,5.43l1.23.72,21.45,7.94,2.22-2.8.52.44C157.81,308.9,161.29,301.46,164.57,295.14Z"/><path class="cls-15" d="M153.6,273.65l-.25-.39c-2,1.38-9.53,17.36-10.28,18.83-1.94,3.77-3.19,5.89-4.51,8.63a33.65,33.65,0,0,1-2.8,4.94,7.18,7.18,0,0,1-3.93-1l1.63-3.3c3,1.74,1.91-2,1.44-2.47l1.54-2.64c3,1.68,2.36-1.65,1.39-3.2l1.64-2.82c.78,2.85,4.82-1.74,1.07-2.48.54-1,1.07-2.11,1.76-3.2.76.21,3.74,2.15,2.74-1.14-1.1-2.36-2.53-.42,0-4.8l.16-.16c2.05,2.48,4.07.43,1.78-1.55l-.53-.31,0-.45,1.13-2.7c1.4,2.88,4.37-.69.6-2.28l.27-.88,5.06,2.65.35.21,17.42,5.4c1,.35.55.9-.28,2.45l-15.24,28-1.36,4.43-17.94-7.52,13.89-26.27Z"/><path class="cls-16" d="M153.3,273.31c-2.11,1.62-9.49,17.32-10.23,18.78-1.94,3.77-3.19,5.89-4.51,8.63a33.65,33.65,0,0,1-2.8,4.94,7.18,7.18,0,0,1-3.93-1l1.63-3.3c3,1.74,1.91-2,1.44-2.47l1.54-2.64c3,1.68,2.36-1.65,1.39-3.2l1.64-2.82c.78,2.85,4.82-1.74,1.07-2.48.54-1,1.07-2.11,1.76-3.2.76.21,3.74,2.15,2.74-1.14-1.1-2.36-2.53-.42,0-4.8l.16-.16c2.05,2.48,4.07.43,1.78-1.55l-.53-.31,0-.45,1.13-2.7c1.4,2.88,4.37-.69.6-2.28l.27-.88,5,2.62-.21.43Zm-8,36.2c-.89-10.33,1.2-20.39,5.33-30.32l-.2.38-13.89,26.27Z"/><path class="cls-10" d="M144.63,272.54c.64-1.35,4.47-1.83,4.75.42,0,.35.16.86-.41,1.05-1.72-2.4-3.24-1.46-4.3-.1A.75.75,0,0,1,144.63,272.54Z"/><path class="cls-10" d="M147.23,278.91c-1,.1-1.17-.65-1.81-1-1.58-.89-2,3.05-2.9,1.82a1,1,0,0,1-.37-1.39l.31-.53C144,275.79,147.11,276.3,147.23,278.91Z"/><path class="cls-10" d="M140.46,283.28a3.87,3.87,0,0,1,2.91-.92,2,2,0,0,1,1,1.48l-.31.53c-2.34-1.29-2.77.23-3.73,1.24A2.17,2.17,0,0,1,140.46,283.28Z"/><path class="cls-10" d="M136.84,289.2a2.66,2.66,0,0,1,2.44-1.06l1.37.59c.59.34.33.89,0,1.46l-.53-.31c-1.63-.95-2.28-.25-3.34.88C136.19,290.16,136.47,289.83,136.84,289.2Z"/><path class="cls-21" d="M137.7,290.82c.33-.57.55-.46.94-.39l-.78,1.42C137.56,291.54,137.36,291.4,137.7,290.82Z"/><path class="cls-10" d="M134.17,294.44a2.7,2.7,0,0,1,2.7-.88c.82.48.89.47,1.3,1.31.12.83-.12,1.1-.75.84-1.64-1.58-2.17-.76-3.32.21A1.63,1.63,0,0,1,134.17,294.44Z"/><path class="cls-10" d="M130.86,300.53c0-.28-.07-.29.13-.63l.21-.35a2.44,2.44,0,0,1,1.51-1c1.52-.07,2.89,2.16,1.76,2.24l-1.12-.59C132.42,299.69,131.79,300.79,130.86,300.53Z"/><path class="cls-21" d="M131.81,301.33l.31-.53.35.2-.61,1.06C131.68,301.68,131.52,301.83,131.81,301.33Z"/><path class="cls-22" d="M152.58,313.89l.52.31-1,1.74L131.39,308l1.7-.07c1.16-.22,9.43,3.32,11.19,4.38,3.15.45,6.11,3.07,7.91,1.8C151.59,313.46,152.26,313.71,152.58,313.89Z"/><path class="cls-4" d="M153.84,278.51l-.64-.11-.3.5c.16.46.41.52.12,1-1.25,1.6-2.93,4.34-2.76,5.55l9.45,4.15L164,283.2l-.63-.38Z"/><path class="cls-22" d="M159.05,288.15l-1-.6c-1.34-.78-3.63-1.17-5.34-2.17-.27-.16-1.75-.78-1.31-1.24.65-1.28,1.4-2.48,2.08-3.74.58-1,7.94,1.51,8.78,2.76l.94.08Z"/><path class="cls-22" d="M130.66,306.55l.61-1.05c1.81.86,4.68.92,6.91,1.89a77.44,77.44,0,0,1,7.25,3l5.91,2.79c-.88,1.45-3.19-.57-4.93-1.15-1-.35-4.5-1.61-5.29-2a48.33,48.33,0,0,0-5.36-2.23C134.58,307.48,131.42,307,130.66,306.55Z"/><path class="cls-4" d="M154.92,283.53l-.45.78.88.51c.48.28.44.37.78.69l.21-.35.7.41a2,2,0,0,0,2.32.05Z"/><path class="cls-4" d="M159.77,284.62l-.77-.72.19-.33,1,.34.45,0c-1.52-.89-4.94-2.62-5.77-1.42Z"/><path class="cls-3" d="M242,284.81l.1-.56.62.28.06,0,.11-1.11a8.29,8.29,0,0,0-1,.37,4.57,4.57,0,0,0-1.59,1.16l-.09.12.14.1A6,6,0,0,0,242,284.81Z"/><path class="cls-2" d="M224.62,287.88c-4.94.3-9.33-5.59-12.74-8.39-1.93-.64-3.33-1.55-4-3.68-2,1.44-4.86.26-6.79-.82-3-1.68-2.57-4.28-4.37-6.74l18-16.59c2.43.35,6.87,1.72,8.48,3.62,2.07,2.44.57,6,0,8.71l6.95-6.73a12.33,12.33,0,0,0,3.79,2c4.43,1.51,5.23,4.39,6.4,8.55,4.84-.76,16.78,1.68,12.77,17.86L246.7,285a49.34,49.34,0,0,1,1.24,4.89C243,298.32,229.91,297.47,224.62,287.88Z"/><path class="cls-3" d="M226.21,289.84c-4.94.3-9.33-5.59-12.73-8.38-1.94-.65-3.34-1.56-4-3.68-2.06,1.43-4.87.25-6.8-.83-3-1.68-2.56-4.28-4.37-6.74l18-16.59c2.43.35,6.87,1.72,8.48,3.62,2.07,2.44.57,6,0,8.72l7-6.74a12.65,12.65,0,0,0,3.78,2c4.43,1.5,5.24,4.38,6.4,8.54,4.84-.76,16.79,1.68,12.77,17.86l-6.44-.67a49.34,49.34,0,0,1,1.24,4.89C244.57,300.28,231.51,299.44,226.21,289.84Z"/><path class="cls-4" d="M244.08,294.94c1.26-1,2-1,3.43-3.46l-.4-2a4.76,4.76,0,0,0-.47-1.53c-.5-1.52-1.89-1.43-3.4-1.55-1.66.69-3.36.81-3.79.47l-1.19-.91c-.68-.53.15-1.73.52-2.2,1.35-1.75,4.7-2.91,6.24-2.27l-.3,3.15,8.32.86,0-.38c1.49-3.28.13-8.4-3.14-10.92l-.74-.58c-3.73-2.88-5.87-1.76-8.64-1.95-.73-2.17-1-4.09-2.18-6.39s-4.62-2.23-6.43-3.56L222,271.34c-.28-.28,1.52-8.58,1.78-9.64,1.27-5-4.22-4.24-6.52-6.35l-16.42,15.11a24.38,24.38,0,0,1,1.69,3.6c.72,1.57,1.82,1.37,3.28,2.13,3.67,1.91,3.93-3.6,6.81-5.05.09-.06.6.12.57.39-.18,1.64-4.36,4.66-.21,7.87l1.33.29c3.18,2.58,6,5.15,9,7.52,1.44,1.12,2.9.63,4.21.66a6.65,6.65,0,0,0,2.78,4l.74.57C236.21,296.42,239.64,296.43,244.08,294.94Z"/><path class="cls-8" d="M237.61,265.57a4.56,4.56,0,0,0-2.65-1.1l-1-1.18,3,1Z"/><path class="cls-5" d="M249,274.44l-4.23-.49c.16-.47-.3-1.41.06-1.5C245.89,272.2,248.22,273.81,249,274.44Z"/><path class="cls-8" d="M238.63,268c.49,1.49,2.05,5.82.31,7.9a10,10,0,0,1-4.07,3.56l-1-.92a10.42,10.42,0,0,0,2.81-2.44l1.48.53-1-1.22.13-.45,1.79.49-1.48-1.21.15-.47,1.58.14-1.31-.89c-.17-.23-.13-.34-.1-.9l1.4-.26c-.49-.42-1.6-.28-1.57-.94l1.44-.41-1.53-.4-.34-.82,1.42-.48L237,268.3l1.36-.47-1.59-.29c-.52-.55.32-.39.77-.27s.35-.26-.82-.51c-.29-.07-.54-.41-.74-.71l1.52.45L235.33,265a3.64,3.64,0,0,1,2.36.89A3.81,3.81,0,0,1,238.63,268Z"/><path class="cls-9" d="M246.25,291.68l-1.86,2.11c-1.19,1-1.64.59-3.38.94-3.89-.11-3,.21-6.81-1.66l-1-.86c-3.52-2.72-.8-10.22,1.57-11.61,1.91-1.12,6.3-6.05,11.27-5.64a5.5,5.5,0,0,1,3.53.76,6.79,6.79,0,0,1,2.62,8.71l-4.35-.22a2.52,2.52,0,0,0-.46-3c-4.11-3.17-10.76,0-11.36,5.05C235.11,294.06,245.22,288.83,246.25,291.68Z"/><path class="cls-5" d="M244.31,274.22c-.39-.3-.34.37-1-.16l0-1.53.89-.09C244.08,273.15,244.77,273.26,244.31,274.22Z"/><polygon class="cls-5" points="242.82 274.54 241.37 272.6 242.78 272.4 242.82 274.54"/><path class="cls-16" d="M218,256.47c.55.25,3.64,1.51,3.65,1.52.46.35,1.11.9.81,1.39l-2.94-1Z"/><path class="cls-5" d="M241.76,273.72c1.27,1.16-.78,1.13-1.73,1.09l.57-2.39.54.64Z"/><path class="cls-15" d="M205.67,275l-1-.26L206,274c5.7-6.14,6.82-7.47,12-12.62,1.74-1.75,2.4-2.5,4.85-.61l.28.07-4.55,18.62-.38-.22-2.69-.58-.06.26c-1.54-1.25,1.63-5.83.32-6.84l-.88-.69a7.62,7.62,0,0,0-2.82-1.48l-5,5.79Z"/><path class="cls-16" d="M209.86,267.1l-.46.59-5.34,5.09c-2.89-2.64,2.35-5.42,4.73-7.77s6.3-5.3,8.2-7.76c2.77,2.14,0,2.71-2,4.9C214.27,262.88,209.88,267.09,209.86,267.1Z"/><path class="cls-5" d="M245.53,283.9l.11-2.28c1.27-.26,2.09,1.11,1.62,2.61Z"/><path class="cls-10" d="M226.91,277.43c1.07,1.69,2.31,4.83.91,6.6-1.12,1.42-4.42,2-5.92,1.07l-3.57-3.66.91-1.42c.82.74,1,1.47,2.18,2.38l.44.34c2.06,1.39,2.81.66,3.39,0,2.21-2.41-.65-6.73-2.56-7.19l-2.93,2.77-.23-.25c2.51-5.47.05-2.74,4.88-7.72,1.67-1.73,5.79-6.21,7.48-7.06,3.29,2.54,6.76,8.68,4.09,12.13l-.34.45C232,280.64,228,276.29,226.91,277.43Z"/><polygon class="cls-8" points="234.34 279.51 233.72 279.78 233.64 278.8 234.34 279.51"/><path class="cls-5" d="M246.81,291c-1-.71-2.07-.72-2.73-1.23a6.22,6.22,0,0,1-.49-2.73c.61.27,1.24-.12,1.77.29a2.3,2.3,0,0,1,1.16,2.51Z"/><polygon class="cls-8" points="233.27 278.97 233.46 280 230.88 278.96 233.27 278.97"/><path class="cls-5" d="M233,280.92l-.57.73c-.42-.55-.39-.31,0-.89Z"/><path class="cls-5" d="M242.8,287.26l.33,2.49-.92-.57-.37.72c-.53.07-.48.5-1.07-.37l-.69.6-1-.23a2.38,2.38,0,0,1-1.05-3.25l.8.79C240.13,288.25,241.41,287.42,242.8,287.26Z"/><path class="cls-8" d="M229.56,281.65l1.46-.19-1.52-.5-.11-.45,1.64.21-1.76-.58-.15-.53,1.77.46-1.88-1-.12-.41a8.47,8.47,0,0,1,1.45.66l.6.32.53,1.83-.32,1Z"/><path class="cls-8" d="M222.79,276.62c.48.38.79.53.41,1s-.8,0-1.28-.34l.67.05Z"/><path class="cls-8" d="M231,283.08l-1.41-.62c.29-.27,1.25.17,1.62.41Z"/><path class="cls-3" d="M224.23,277.61a8.47,8.47,0,0,1,1.28,2.75l-.62.93-1.75-2.05Z"/><path class="cls-8" d="M227.22,287l-2.2-.26c.75-.13,2.1-.25,2.08-1l1,.5-.49-.76,1.46.58-.76-1,.26-.21,1.48.48-1.16-1,1.35.36-1.06-.71,1.4,0-1.31-.61.2-.53,1.56.66a12.48,12.48,0,0,1-.36,1.38l-.45.59A3.94,3.94,0,0,1,227.22,287Z"/><polygon class="cls-8" points="220.98 278.21 221.59 277.58 222.84 278.88 220.98 278.21"/><path class="cls-16" d="M214.2,271.87c.47.21.4.07.71.31s.07,1.74,0,2.17l-1.47-1.44,1.13,0-.79-.47Z"/><path class="cls-8" d="M220.61,280.24l-.93-1.12c.37-.28,2.58.15,3,.46s2,2,1.76,2.3c0,.51-1.14.78-1.28.6l-1.85-1.35,1.47-.75Z"/><path class="cls-16" d="M213.28,273.36c.26.78,1.43,1.38,1.34,1.92s-.51,1.45-.67,2.11l-1.66-1.82,1.59.07-1.14-.95Z"/><path class="cls-5" d="M228.45,287.71l1.85-1.22.3,2.06.19,1.33a15.17,15.17,0,0,0-2.34-1.34Z"/><polygon class="cls-5" points="228.64 289.03 231.38 290.8 232.07 292.47 229.72 290.51 228.64 289.03"/><path class="cls-16" d="M212.24,276.23l1.59,1.85-.31.44a2,2,0,0,1-1.64-1.7Z"/><path class="cls-4" d="M219.68,262l-5.56,5.66.27.84L218.2,270C218.41,268.44,220.94,263.11,219.68,262Z"/><path class="cls-16" d="M216.21,267.25l1.07-1.35.7-.89.45-.59C218.64,266.16,217.65,269.32,216.21,267.25Z"/><path class="cls-4" d="M231.86,267.61c-1.16-.28-4,3.08-5,5.19a5.85,5.85,0,0,0,2.87,2.45C234.81,275.87,235,268.94,231.86,267.61Z"/><path class="cls-8" d="M229.56,269.89c.54-.7.95-1.27,1.69-.53C230.45,270.85,230.05,270.33,229.56,269.89Z"/><path class="cls-8" d="M227.67,272.83a3.23,3.23,0,0,1,2.45.14l1.56,1.26C230.69,275.38,228.24,274.27,227.67,272.83Z"/><path class="cls-3" d="M232.49,269c1.14,1.95.9,3.42-.51,4.79l-1.89-1.53Z"/><path class="cls-8" d="M228,271.89c1.22-1.77,1.35-1.36,2.3-1C229.77,272,228.05,272.75,228,271.89Z"/><polygon class="cls-8" points="230.69 268.65 231.48 268.19 232.13 268.44 231.6 268.95 230.69 268.65"/><path class="cls-2" d="M229.91,302.21c-1.06-4.16-6.66-2.84-9.7-2.65-1.77-1.69-3.92-4.66-6-5.85-2.13-.94-7.29-1.16-9.64-1.35-7.88-.67-15.8-1.72-23.68-2.55l-2.14,2.43,3.52,4.77,8.55,6.29c-5.35,1-11.19,1.08-16.28,3.2-1.86.78-2.34,3.81-2.35,5.58s.73,4.36,2.15,5.26c2.42,1.53,7.57-.1,10.13-.59-.22,6.55,3,12.51,6.26,17.39,5-5.46,12.5-12.72,18.05-18.31l5.86,3.84,2-1,0-5.46,13.52-2.42C229.68,308,230.56,304.73,229.91,302.21Z"/><path class="cls-3" d="M229.17,303.25c-1.07-4.15-7.73-2.91-10.77-2.72a10.7,10.7,0,0,0-4.94-5.78c-2.13-.94-7.29-1.15-9.63-1.35-7.89-.67-15.81-1.71-23.68-2.54l-2.83,2.47,3.32,5.71,8.87,5.9c-5.35,1-10.87,1.14-16,3.26-1.86.78-2.64,3.33-2.65,5.1s.71,4.78,2.13,5.68c2.42,1.53,7.79-.2,10.35-.7-.22,6.56,3.34,12,6.6,16.9,5-5.45,11.75-11.77,17.3-17.35l5.72,3.51,2.14-1.08.43-5.31,13.61-2.18C229.44,309.94,229.81,305.78,229.17,303.25Z"/><path class="cls-4" d="M190.5,294.43l.22.22.22-.23c4.14.65,7.83,1,12,1.37,2.12.18,3.89.48,6,.72,4.23.48,2.08-.25,5.62,3.13l-.24,0-.21,3.45.21.21,10.61-.67.23.22.21-.23c2,1.91,1.54,1.65,1.41,4.18-.06,1.26.2,3.23,0,4.32l0,.21-13.14,2.35-.13-.15,0,6-.33.17-6.19-4.05-.12.14L190.81,332c-1.82-1.07-1.84,1-3.29-2.57-.61-1.48-1.2-2.75-1.75-4.17-.73-1.9-1.79-6.67-.84-8.4l-.34-.32c-.8.49-8.43,1.53-9.72,1.61-3.57.2-2.89-7.59-1.21-8.29,3.1-1.29,18.29-3,19.32-3.93l-9.84-7.18-1.21-1-2.63-3.56.74-.84,10.46,1.1Zm16.25,8.16a31.37,31.37,0,0,0-6.67-1.18l2.38,1.82,1,1c.22.21.16.23.23.44l3-.65c0-.19.22-1.28.08-1.41Zm-17.18,8.92.21.45-.09.1-.45-.21-.45-.43-1.62,1.92-.08.34-.23.22-.62,2.23.23.22.12.55-.33.12-.22-.22-.09.34-.24-.22-.3.57.43.2-.09,1.22-.21.23v.22l.66,4.52.28,1.09h.19l1.94,5.19c1-1.6.69-.23,1.59-1.17l1.62-1.7,5.4-5.46.34-.32c.69-.72-1.34-1.29-.72-2.42l1.45,1.65,6.3-6.37.22,0-.34-.58-.33.12c-.57-.86-4.24-3.09-5.41-3.89-.63-.44-5.44-3-4.89-.53V310l-.22-.21-.58-.76L191,310.36l.25.34-.68-.65-1.22,1,.26.47Zm2.6,11.79C191.79,321.17,207,313,197,312.61a6.35,6.35,0,0,0-6.09,4c-1.56,3.26.23,6.17,0,6.64l.22.2.54-.31.46.19Zm7.45-8.47c-2.19-1-2.58-1.84-5.19.89l-.65.68c-1.82,1.91-3,3.94-1.86,5.8Z"/><path class="cls-15" d="M211.52,298.05c.21-.75.35-.2-.13-.78l-.22.23-1.54.83.22-.41-1.81-.26-.06.47c-.42-1.89-1-1.24-2,0l.22-.66-2.13-.69-.11.51-1-.81-.31,0-1,1,.27-.37-1.8-1-.17.17-.64,1.37-.19-1.39-1.65.22-.33.11-2.48-.32.05.6c-.43-1.92-1.34-1.67-2.22-.17l.18-.16-1.24-1.42-.29.14-.32,1.15c-1.48-1.76-.3-1.77-1.66-.08l-.48-1.39h-.39l-.53,1.21-.25-1.15-.27-.2-1.07.54.23-.14-1.67-.77-.12.13-3.32-.46,0,.29L211.13,316l.39-17.95Zm-4.77,4.54c.14.13,0,1.22-.08,1.41l-3,.65c-.07-.21,0-.23-.23-.44l-1-1-2.38-1.82A31.37,31.37,0,0,1,206.75,302.59Z"/><path class="cls-16" d="M193.07,305.12a15.87,15.87,0,0,0,2.6,1.87c.92.52,1.66,1.4,2.48,1.95,1.15.77,4,3,4.95,3.15a8.21,8.21,0,0,0,1.57,1.16c.88.6.73,1,1.23.21l-8.25-5.91-4.25-2.77-2.13-1.65-3.14-2.35-.55-.19-1.15-1.22-.24.26-.58-.76-.21.22-4-3.53c.09,1.68,3.68,3.8,5.37,5C188.72,301.94,191.08,303.94,193.07,305.12Z"/><path class="cls-10" d="M190.39,308.61l3.2-1.67-.07-.16-2.19.73-.31-.24-.65.68-.43.06.42-.5-.78.11-.21.24-1.68.22-.31-.17-.14-.1-.22.32-.31-.21c-.76.47-7.9,1.9-9.25,2.18-4.52.91-4.61-.65-4.3,5.67l1.89.11.4-1.39.38,1.35.23.16,2.08-1.41-.27-.37.38,1.35,2.13-.61-.15-.12-.15-1.66.19,0,.31,1.89,2-.18-.09-2,.23,0,.39,1.91.43.12.89-1.88.15,1.39.35.19,2.67-3.26.31-.34a25.16,25.16,0,0,1,6-3.58l-.09-.2Z"/><path class="cls-8" d="M174,316.87l.35.42c.41.39,4.73-.44,5.52-.56.49-.08,1-.27,1.43-.37s.8.06,1.33-.06c.84-.19,1.95-.09,2.64-.73Z"/><path class="cls-9" d="M189.57,311.51l.21.45-.09.1-.45-.21-.45-.43-1.62,1.92-.08.34-.23.22-.62,2.23.23.22.12.55-.33.12-.22-.22-.09.34-.24-.22-.3.57.43.2-.09,1.22-.21.23v.22l.66,4.52.28,1.09h.19l1.94,5.19c1-1.6.69-.23,1.59-1.17l1.62-1.7,5.4-5.46.34-.32c.69-.72-1.34-1.29-.72-2.42l1.45,1.65,6.3-6.37.22,0-.34-.58-.33.12c-.57-.86-4.24-3.09-5.41-3.89-.63-.44-5.44-3-4.89-.53V310l-.22-.21-.58-.76L191,310.36l.25.34-.68-.65-1.22,1,.26.47Zm2.6,11.79-.46-.19-.54.31-.22-.2c.21-.47-1.58-3.38,0-6.64a6.35,6.35,0,0,1,6.09-4c9.94.34-5.23,8.56-4.85,10.69Zm7.45-8.47-7.7,7.37v0l7.68-7.36Z"/><path class="cls-16" d="M212.33,299.47l.23.66-.22,0c-.77-.24.24-.39-.44,0l.91.63.43-.22v-.22l-.22-.21.21-.23-.57-.29.11-.58-.57-.55-.32.78Z"/><path class="cls-16" d="M212.7,301.34l.34.33c.12-.21.31-.36.1-.56s-.19-.1-.56-.32l-.22.23-.39.69.41.2,0-.45Z"/><polygon class="cls-16" points="212.73 302.45 213.04 303.01 213.06 302.33 212.73 301.77 212.28 302.24 212.73 302.45"/><polygon class="cls-16" points="212.49 302.99 212.35 302.44 212.07 302.69 212.49 302.99"/><path class="cls-16" d="M212.23,304.79l.7.86c.16-.31.28-.36,0-.66l-.11-.1C212.46,304.58,212.55,304.72,212.23,304.79Z"/><polygon class="cls-16" points="212.6 306.22 212.37 306 212.15 306.23 212.83 306.88 212.82 306.44 213.04 306.21 212.81 305.99 212.6 306.22"/><path class="cls-5" d="M199.88,321.35c.21-.06.23,0,.44-.23l.65-.68c.64-.67.42-.88.74-1.45l-.23-.22c-.4.5-.41.47-.23.86l-1.6,1.51-.32.34-.26-.23-.4.69-6.49,6.35-.22.23-.22.22-.65.46a1.94,1.94,0,0,1-.1.56,4.64,4.64,0,0,1-1.19.79l1.14.45,3.21-3.64.23-.21Z"/><rect class="cls-17" x="212.18" y="306.82" width="0.31" height="0.47" transform="translate(-156.44 249.01) rotate(-46.39)"/><polygon class="cls-5" points="203.53 316.51 203.54 316.73 204.2 316.49 203.53 316.51"/><polygon class="cls-16" points="212.42 308 212.8 308.32 212.74 307.66 212.22 307.46 212.42 308"/><path class="cls-5" d="M206.27,315.12l-.47-.45-.3.57C206.14,315.43,205.77,315.62,206.27,315.12Z"/><rect class="cls-18" x="203.59" y="317.06" width="0.47" height="0.31" transform="translate(-166.27 245.1) rotate(-46.25)"/><rect class="cls-18" x="202.83" y="317.86" width="0.47" height="0.31" transform="translate(-167.16 245.2) rotate(-46.31)"/><path class="cls-16" d="M207.37,314.65l-1-1L206,314l.46.44C206.8,314.76,207.05,314.92,207.37,314.65Z"/><path class="cls-16" d="M210.42,317.35l.45.21.23.21.33.33.22-.23-.34-.32a.79.79,0,0,0-.24-.66c-.89-.85-2.64-1.44-3.37-2.14l-.22.23Z"/><path class="cls-10" d="M217,310.22l.11-.12,2.24-.43,0,.22,2.3-.48-.2-.17,1.49.38.11-.2.24-1.67.2,1.67.68,0,.62-5.82-.15.24-10.41.43c-.08,1.82-1.23,6,.5,7h.16l.19-1.68.15,1.34.09.13Z"/><path class="cls-8" d="M225.58,310.55l-1.38-.61c-.57.57-4.06.85-5.17,1.23a23.54,23.54,0,0,1-2.54.63c-.41.09-2.6.32-2.65.37l-.1.12c-.42.43-.08,0-.19.59Z"/><path class="cls-8" d="M225.6,304l-.19.64c.77.91-.3,0,.46.87l.22-.23a1.63,1.63,0,0,1,0-1.09Z"/><rect class="cls-19" x="225.73" y="305.98" width="0.31" height="0.31" transform="translate(-151.57 258.53) rotate(-46.39)"/><polygon class="cls-8" points="225.62 308.69 225.4 308.92 225.74 309.24 225.96 309.01 225.62 308.69"/><path class="cls-4" d="M197,300.6l.21-.45,10.92,1.26-.07.26-.68,7.11-.43.45L197,300.6Zm9.79,2a31.37,31.37,0,0,0-6.67-1.18l2.38,1.82,1,1c.22.21.16.23.23.44l3-.65C206.71,303.81,206.89,302.72,206.75,302.59Z"/><path class="cls-10" d="M205.72,305.93l.43.68c.46-.55.24-.21.34-.8l-.33-.09.22-.24.32-.34a1.42,1.42,0,0,0-1.54.25c-.16.16-.07.38.12.55S205.57,306,205.72,305.93Z"/><rect class="cls-20" x="205.92" y="306.74" width="0.48" height="0.71" transform="translate(-158.33 244.17) rotate(-46.33)"/><path class="cls-4" d="M192.17,323.3l-.46-.19-.54.31-.22-.2c.21-.47-1.58-3.38,0-6.64a6.35,6.35,0,0,1,6.09-4c9.94.34-5.23,8.56-4.85,10.69Zm7.45-8.47c-2.19-1-2.58-1.84-5.19.89l-.65.68c-1.82,1.91-3,3.94-1.86,5.8Z"/><path class="cls-5" d="M190.83,318.13l-.21.23.23.66-.21.22.22.22.3-.19.35-.71c.11-.2,1.25-2,1.28-2l.86-.9c1.13-1.18,2.1-1.29,3.16-2.4a9.6,9.6,0,0,0-3.3,1l-.43.45c-.55.58-.4.78-.86,1.35l-.28-.16h-.19Z"/><path class="cls-2" d="M24.19,196.17c-2.77.84-4.49,2-7.49,2-5.9,0-10.91-5.86-11.44-11.47h0a14.23,14.23,0,0,1,2.55-10.16.76.76,0,0,0,.11-.14l-3.23.27L1.22,160.84a12.83,12.83,0,0,0,1.13-3.2l-.91-5.9a2.24,2.24,0,0,1,1.79-2.29c4.41-1.5,10.3-1.3,15-1.41,0-2.43-.06-4.86-.14-7.29,4.79,1.5,9.58,3,14.24,4.89,2.08,2.28,3,4.09,4.84,6.82l.32,8.32-1.39-.08a11.15,11.15,0,0,1,1.13,6.76v.12a9.68,9.68,0,0,1-4.3,6.75,10.21,10.21,0,0,1,3.48,3.41,13.12,13.12,0,0,1,1.82,7.62c-.29,5.44-3.71,11.45-9.76,11.49A8.61,8.61,0,0,1,24.19,196.17Z"/><path class="cls-3" d="M24,199.25c-2.77.84-4.49,2-7.49,2-5.89,0-10.91-5.86-11.43-11.47h0a14.24,14.24,0,0,1,2.56-10.16l.11-.14-3.24.27L1.05,163.92a12.44,12.44,0,0,0,1.13-3.2l-.9-5.9a2.23,2.23,0,0,1,1.79-2.29c4.4-1.5,10.29-1.3,15-1.42,0-2.43-.06-4.85-.14-7.28,4.79,1.5,9.58,3,14.24,4.89,2.08,2.28,3,4.09,4.84,6.82l.32,8.32-1.38-.08A11.22,11.22,0,0,1,37,170.54v.12a9.69,9.69,0,0,1-4.31,6.75,10.12,10.12,0,0,1,3.48,3.41A13.12,13.12,0,0,1,38,188.44c-.29,5.44-3.71,11.45-9.76,11.49A8.61,8.61,0,0,1,24,199.25Z"/><path class="cls-4" d="M17.39,186.78c1.81-1,1.84-2,2-3.94.5-.38,2.16-.25,3.27-.25.36,1.48.9,3.15,3.42,3.66l-.4-3.1a13.33,13.33,0,0,1,1.5-5.65c13.35.75,10.77,20.73,1,20.79h-.48A6.74,6.74,0,0,1,23.42,197a9.06,9.06,0,0,1-5.13,2.61H16.52c-4.79,0-9.32-5-9.79-10C6,181.36,10.94,178.06,14,177.36L5.82,178l-3-13.78c.32-.49.59-2.13,1.06-3.36l-1-6.27c-.14-1.38,14.18-1.86,16.75-1.88,0-2.3,0-4.39,0-6.64,2.27.71,6.6,2.15,6.53,2.15l5.69,2.45-.18-.11,3.7,5.49.23,6.05-5.16-.3c2.26.84,5.59,1.9,5,8.57a7.89,7.89,0,0,1-7.29,6.86H26.83c-1.89,0-6.9-1.78-8.22-2.35-4.57-2-3-2.61-4.16,2.27,1.68,0,2.76,2.69,3.21,4.21.67,2.21-1.24,4.44-1.52,5.64l1.25-.25ZM21,161.88l-3.06,0-5.14,0c.59.86,4.06,2.28,5.27,2.91.55.29,2.32,1.68,2.47.75.09-.59-.08-1.36,0-2C20.68,162.72,20.93,162.72,21,161.88Z"/><polygon class="cls-5" points="35.07 159.94 35.08 161.31 34.89 161.44 32.08 157.37 32.35 153.94 33.48 154.65 33.84 158.08 34.36 156.34 34.56 158.7 34.91 158.98 34.75 159.95 35.07 159.94"/><path class="cls-6" d="M34.16,168.05l-.72.85-.08-.51c0-.44.48-1.09.56-1.45l-.73.64.24-1.74-.72,1-.52-2.36-.45,1.95-1.46-1.92.2,1.6L30,166a18.58,18.58,0,0,0-8.35-.53l.13-3.22c1.09.15,4.65-.21,7.62.24s5.35,1.7,5.26,7.06h-.32Z"/><path class="cls-5" d="M32.28,160.93,31.23,160l.34,1.14-.51-.31-.6-.67-.05,1L30.1,161l-2.3-1.21-.2,1.28-2.08-1.41-.22,1.43-2.11-.53v.32l-.07.18-1.32-1.19-.64,1.05-.57-1.57-.83,1.37-1.39-1.4.16,1.43-5.78.2v.48l-1.13-.15-.38-1.12L6.33,161l-.49-.1a1.21,1.21,0,0,1-1.3-.95l11.88-1.54c2.41,0,4.84.15,7.23.13l5,.2,2.42-.09c1.11,0,1.13.05,1.61,1l.65,1.12.19.31Z"/><path class="cls-7" d="M27.75,176.59c-4.11.57-16.22-6.29-18.32-6.45,0,.17,2.6,4.9,2.93,5.51,1,1.75.14,1.34-1.72,1.43-1.33.06-2.2.3-3.9.31L3.47,165.73c5.23-.08,4.76-.6,8.5,1.36,2.35,1.23,4.15,2.08,6.72,3.22,12.4,5.5,10.13-3,3.91-1.53l-.88-2.23c6.41-.59,9.06-.37,11,2.33l.92,1.63C33.88,171.54,34,176.14,27.75,176.59Z"/><path class="cls-8" d="M28.39,183.87a9,9,0,0,1-.55,2.06l-.91.07-.28-3.23C27,182.43,28.39,183.15,28.39,183.87Z"/><path class="cls-6" d="M15.5,164.32c1.89,1.5,3.59,1.47,5.43,2.64.59.37.87,2,1.37,2.69a4.52,4.52,0,0,1,4.32.28c.61.53.51,1.71-.47,1.71h-.81c-2.74,0-12.44-5.13-14.5-6.49l.34-3.21Z"/><path class="cls-8" d="M22.13,196.88l-.91-.69.11,1.66-.76.67c-4,.74-8.57.34-11.44-4.45L8.82,193l.92,1.11c.94.8,3.9,2.7,5.48,2.69H17c2.06,0,3.5-2.36,4.8-3.24Z"/><path class="cls-8" d="M17.18,182.27l-.12.51c0,.55-.49,1.2-.53,1.7-.23-.43-1.2-2.47-1.39-2.65-.07-1,.22-2.36.21-3.34C16,178.48,17.18,181.63,17.18,182.27Z"/><path class="cls-8" d="M15,182.79c.45.12,1.3,1.84,1.3,2.41-.09-.07-.93,2-1.43,2.26q-1.1,0-1.41-1.32l1.08-.61-1.2-.37.18-1.1,1.09.47c-.22-.42-.72-.46-.72-1.08l.34-.5.45-.13.24,1.13Z"/><path class="cls-6" d="M11.21,171.74a20.69,20.69,0,0,1,3.28,1.78c.08.14-.62,2.65-.7,3.18h-.3C12.87,174.66,11.59,173.14,11.21,171.74Z"/><path class="cls-9" d="M20.78,147.68c2.13.56,9.64,2.39,10.51,4.09.57,1.11-.08,4.43-.07,5.65l-3.39.06-4.34.05L4.22,158.69,3.6,155.1a88.29,88.29,0,0,1,10.48-.86c2,.06,9.68.7,9.86-1.69C21.28,150.79,20.48,153.37,20.78,147.68Z"/><path class="cls-8" d="M35.56,189.45c-.23-.22-.69-.66-.67-.53s.27,1.08.43,1.68c-.09.35-.19.7-.31,1.06l-.62-.77.41,1.38c-.15.38-.31.77-.48,1.16a1.08,1.08,0,0,1-.07.18l-.64-1,.34,1.47a8.15,8.15,0,0,1-.91,1.06l-.64-2,.1,2.53c-.31.27-.66.55-1.05.83L31,194.06l-.28,2.84a11,11,0,0,1-1.78.44l0-2.67-.51,2.74a9.13,9.13,0,0,1-1.28.05l-.34-2.67-.36,2.63a8,8,0,0,1-1.2-.23l-.1-2.26L24.68,197a6,6,0,0,1-.63-.29l-.08,0-.23-2.18v2a5.29,5.29,0,0,1-1-3.3l1.13.48c1.76.83,5.38.18,7.32-.54a6.07,6.07,0,0,0,3.29-3.72c.65-1.76.77-3.94,1-4.06A11.8,11.8,0,0,1,35.56,189.45Z"/><path class="cls-6" d="M10.18,162l-.26,2.7-.86.08-5.55-.3A18.55,18.55,0,0,1,4.24,162Z"/><path class="cls-10" d="M12.44,185.6c0-1.29-.07-2.62,1.83-3.29l.06-3.88C9.87,178.56,6,187.17,9.25,192c3.61,5.26,9.18,5.52,12.2-.88,2.43,1.15,4.55,2.36,7.62,1.63,2.56-.61,4.89-2.26,5.22-5,.4-3.33,1-5-1.77-7.2A13.11,13.11,0,0,0,28,178.33c-.59-.13-.8,1.18-.95,2.62-.15.36-.16.67.33.8.63.66,2.58.66,1.76,3.15a3.29,3.29,0,0,1-3,2.48H25.6c-3.57,0-2.61-2.67-3.61-3.63-.3-.29-.93.13-1.71.13v.49C20.24,188.34,12.4,190.32,12.44,185.6Z"/><path class="cls-2" d="M87.86,146.78a12.58,12.58,0,0,1,5.1,1.48c4.19,2.64,8.22,5.23,12.63,7.49,7.51,3,8.58,2.64,10.91,3.59,4.36,2,4.16,3.7,7.24,6.15,2.16,1.71,3.64,2.57,5,5.19,1.22,3.32-.08,7.25-1.86,10.15-3.48,5.68-8.2,8-14.17,5.07a23.33,23.33,0,0,0-4.77-2,19,19,0,0,1-8.18-5.1c-4.81-5.48-12.86-8-18.88-12a22.23,22.23,0,0,1-5.18-5c-2.46-3.16-8.78-9.23-7.77-13.46C72.85,145.08,82,146.26,87.86,146.78Z"/><path class="cls-3" d="M85.71,148.83a12.67,12.67,0,0,1,5.11,1.48C95,153,99,155.54,103.44,157.8c7.51,3,8.59,2.64,10.91,3.59,4.37,2,4.16,3.7,7.25,6.15,2.15,1.71,3.63,2.57,5,5.19,1.22,3.32-.07,7.25-1.86,10.15-3.48,5.68-8.2,8-14.17,5.06a23.86,23.86,0,0,0-4.77-2,18.93,18.93,0,0,1-8.17-5.1c-4.81-5.48-12.87-8-18.89-12a21.6,21.6,0,0,1-5.17-5c-2.46-3.15-8.78-9.22-7.77-13.45C70.7,147.13,79.81,148.31,85.71,148.83Z"/><path class="cls-4" d="M68.31,151c-.53,2.21,5.83,9.39,7.29,11.27,3.74,4.8,5.88,5,11.5,8.4,3.87,2.36,9.94,5.11,12,7.87a21.74,21.74,0,0,0,5.55,4.21c1.41.78,2.68.73,4.2,1.41,2.38,1.07,3.56,2,6.24,2.65,4.39,1,11.88-9.18,8.69-14.12-1.13-1.76-2.14-1.89-3.74-3.16s-1.21-2.37-2.58-3.65c-.77-.72-8.17-4.06-9.8-4.45-.94,0-.45.75-5.12-1.25-1.56-.8-3-1.55-4.62-2.41-3-1.61-5.73-3.61-8.43-5.31C85.73,150.15,73.16,151.77,68.31,151Z"/><path class="cls-8" d="M119.54,171.23a4.79,4.79,0,0,1,1.21,3c0,.62,1.62-1.56,1.94-1.17a1.11,1.11,0,0,1-.37,1.82V176l1.2-.68c-.69,3.86-2.62,6.28-5.38,9.08-1.31,1.34-5.1,1.17-6.85-.24.75-1.39,5.39-3.29,6.6-7C120.32,173.92,119.52,171.24,119.54,171.23Z"/><path class="cls-10" d="M119.54,171.23a4.79,4.79,0,0,1,1.21,3c0,.62,1.62-1.56,1.94-1.17a1.11,1.11,0,0,1-.37,1.82V176l1.2-.68a14.21,14.21,0,0,1-3.46,7c-2.08,0-3.81-.45-4.71-1.58a8.49,8.49,0,0,0,2.54-3.58C120.32,173.92,119.52,171.24,119.54,171.23Z"/><path class="cls-11" d="M114.09,179.9a15.82,15.82,0,0,1-3.22,3.06,2.32,2.32,0,0,1-2,.32c.85-.78,4.49-3.68,5-4.75,1-2.72,2.46-6.41,1.55-9.33-.48-1.56-1.24-4.55.93-2.21C119.55,170.78,115.75,178.16,114.09,179.9Z"/><path class="cls-11" d="M113.4,165.14a13,13,0,0,1-.12,11.68c-1.12,1.63-3.35,6.21-6.9,5.36a7,7,0,0,1-1.66-.66c3.69-.19,10.25-5.63,7.92-16.88C112.6,164.42,113.35,165.37,113.4,165.14Z"/><path class="cls-11" d="M110.91,165.91c1.3.7,1.23,3.73.87,5.4l-.7-.46C111.6,168.64,111,167.47,110.91,165.91Z"/><path class="cls-11" d="M111.5,172.35c-.76,3.53-3.57,8.41-7,7.46,2.49-1.48,4.57-4.38,6.42-8.08Z"/><path class="cls-6" d="M99.46,166.26,95.33,164l-3-1.5-1.17-.54-3-1.74L85.56,159c2.88-.59,4.08-2.06,3-5,1.57,1.1,3.06,2.3,4.11,2.45l.58,2.69,1.23-1.31,1.23,3.32.35-2.47c.71-.75.45.14,1.27.93L99,162l.34-2,1.7.68.65,2.7.78-1.71.79.65.23,1.9,1-.63.55,2.23.35-1.53.1-.94,1,2.91.86-2.69,1.65,5.21.47-3.18c.85,1.84.79,4.23.12,7C106.58,170.1,102.8,168.33,99.46,166.26Z"/><path class="cls-12" d="M101.84,179l-1-1.76c-2.59-1.64-13.06-8.28-17.51-10.5,2.62-.86,3.13-3.34,1.74-6.45l.52,0,22.94,13.32C107.11,175.84,105,179.05,101.84,179Z"/><path class="cls-11" d="M108.7,163.5c.85-.71,2.26.65,2.27,1.88Z"/><path class="cls-13" d="M81.44,158.22c2.2,1.88,3.27,4.09,1.22,6.62l-.81.93a45.56,45.56,0,0,1-6.74-6.25c2.44-1.38,3.53-2.54,3.14-6.77a29.56,29.56,0,0,1,7.44.07,2.13,2.13,0,0,1,1.06,3.45C85.66,158.57,83.79,157.94,81.44,158.22Z"/><path class="cls-14" d="M81.44,158.22c2.2,1.88,3.27,4.09,1.22,6.62l-.81.93a45.56,45.56,0,0,1-6.74-6.25A5.46,5.46,0,0,0,78,156.65Z"/><path class="cls-2" d="M215.72,190.21c1.86,2,3.57,3,4.82,5.5,2.46,5-.47,11.67-5,14.43h0a13.39,13.39,0,0,1-9.66,2l-.16,0,1.56,2.63-12,9.48a12.27,12.27,0,0,0-3.18.36l-4.62,3.2a2.09,2.09,0,0,1-2.68-.57c-3.08-3.11-5.35-8.19-7.37-12.09-2.06,1-4.09,2.05-6.11,3.12-.71-4.68-1.4-9.37-1.73-14.09a48.61,48.61,0,0,1,3.78-6.91l6.92-3.7.5,1.21A10.56,10.56,0,0,1,186,191h.05l0,0a9.14,9.14,0,0,1,7.5.86,9.37,9.37,0,0,1,1.45-4.35,12.29,12.29,0,0,1,5.71-4.68c4.73-2,11.23-1.58,13.76,3.52A8,8,0,0,1,215.72,190.21Z"/><path class="cls-3" d="M218.4,189.08c1.86,2,3.57,3,4.82,5.51,2.46,5-.47,11.66-5,14.42h0a13.39,13.39,0,0,1-9.66,2l-.16,0,1.56,2.63-12,9.48a11.87,11.87,0,0,0-3.18.37l-4.62,3.2a2.11,2.11,0,0,1-2.68-.58c-3.09-3.11-5.35-8.18-7.37-12.09-2.06,1-4.09,2.05-6.12,3.12-.7-4.68-1.39-9.36-1.72-14.08a46.61,46.61,0,0,1,3.78-6.91l6.92-3.71.5,1.21a10.46,10.46,0,0,1,5.26-3.74l.06,0,0,0a9.11,9.11,0,0,1,7.5.87,9.41,9.41,0,0,1,1.45-4.36,12.35,12.35,0,0,1,5.71-4.68c4.73-2,11.23-1.58,13.76,3.53A7.94,7.94,0,0,1,218.4,189.08Z"/><path class="cls-4" d="M210.58,199.84c-1.6-1.12-2.47-.72-4.18-.08-.52-.27-1.1-1.73-1.56-2.67,1.1-.92,2.3-2.06,1.69-4.41l-2.47,1.62a12.5,12.5,0,0,1-5.4,1.06c-4.87-11.63,13.12-17.68,17.19-9.46l.2.41a6.36,6.36,0,0,1,.73,4.2,8.46,8.46,0,0,1,4.31,3.27l.74,1.49c2,4-.34,9.94-4.42,12.42-6.73,4-11.57,1.22-13.41-1.07l3.93,6.64-10.44,8.23c-.55-.07-2.05.38-3.29.49l-4.92,3.4c-1.1.69-7.41-11.24-8.49-13.41-2,.91-3.73,1.79-5.61,2.77-.33-2.22-.9-6.48-.87-6.42l-.27-5.83v.2l3.11-5.4,5-2.69,1.87,4.49c-.21-2.26-.7-5.52,5.21-7.75a7.44,7.44,0,0,1,8.82,3.35l.54,1.08c.75,1.61,1.33,6.58,1.39,7.94.23,4.67-.95,3.66,3.64,2.58-.7-1.42,1.14-3.44,2.24-4.46,1.6-1.47,4.28-.77,5.41-1l-.72-1ZM188,207.1l1.27,2.58,2.15,4.34c.49-.85.26-4.38.29-5.66,0-.59.47-2.66-.38-2.4-.53.16-1.12.63-1.75.8S188.72,206.76,188,207.1Z"/><polygon class="cls-5" points="180.54 195.93 181.7 195.36 181.89 195.46 179.6 199.53 176.58 200.71 176.72 199.46 179.47 197.74 177.78 198.02 179.7 196.87 179.8 196.47 180.68 196.2 180.54 195.93"/><path class="cls-6" d="M187.78,193.36l1,.26-.4.28c-.36.18-1.12,0-1.46.12l.85.35-1.58.51,1.18.19-1.78,1.41,1.84-.42-1,2,1.27-.83,0,.5a17.58,17.58,0,0,0,3,7.29l-2.78,1.22c-.32-1-2.1-3.85-2.94-6.55s-.76-5.24,3.82-7.38l.13.27Z"/><path class="cls-5" d="M182.54,197.89l-.35,1.26.83-.76L183,199l-.32.79.86-.37v.33l-.08,2.45,1.17-.37-.35,2.35,1.31-.41.42,2,.28-.13.17,0-.46,1.61,1.15.11-1.1,1.13,1.51.15-.61,1.75,1.15-.73,2.55,4.82.4-.2.34,1-.78.78,2.67,3.84.12.46a1.14,1.14,0,0,1-.28,1.49l-6.2-9.43c-1-2-1.87-4.15-2.87-6.18l-1.88-4.3-1.07-2c-.47-.94-.43-1,.14-1.76l.68-1,.19-.29Z"/><path class="cls-7" d="M197.67,195.27c2.17,3.24,1.36,16.33,2.09,18.18.14-.07,3.07-4.22,3.45-4.76,1.1-1.53,1.08-.67,1.92.87.61,1.1,1.16,1.74,1.87,3.18l-8.53,7.58c-2.22-4.4-2.46-3.79-2.35-7.76.08-2.51,0-4.38,0-7-.45-12.78-6.74-7.35-2.91-2.68l-1.52,1.65c-3.14-5.18-4.05-7.51-2.57-10.27l1-1.45C190.86,192.16,194.7,190.15,197.67,195.27Z"/><path class="cls-8" d="M203.57,191.72a8.59,8.59,0,0,1,2-.38l.44.75-2.63,1.56C202.94,193.52,203,192,203.57,191.72Z"/><path class="cls-6" d="M192.33,210.71c.48-2.23-.24-3.65,0-5.69.07-.65,1.31-1.55,1.71-2.27a4.29,4.29,0,0,1-1.54-3.78c.2-.73,1.24-1.14,1.65-.31l.33.68c1.15,2.32.78,12.66.48,15l-2.86,1Z"/><path class="cls-8" d="M217.18,191.66l-.21,1.06,1.36-.78.88.37c2.27,3.07,3.82,7.12.95,11.53l-.82.71.56-1.23c.3-1.13.69-4.42,0-5.76l-.74-1.49c-.86-1.74-3.45-2-4.73-2.73Z"/><path class="cls-8" d="M206.84,201.88l.48-.11c.47-.23,1.22-.08,1.66-.26-.27.38-1.6,2.05-1.67,2.28-.8.46-2.09.79-2.92,1.2C204.13,204.47,206.3,202.15,206.84,201.88Z"/><path class="cls-8" d="M208.19,203.54c-.08-.43,1-1.86,1.5-2.1,0,.11,2.08,0,2.51.28q.5.92-.54,1.74l-1-.66.18,1.17-1,.3,0-1.12c-.27.36-.1.8-.62,1.06l-.57-.09-.29-.32.86-.67Z"/><path class="cls-6" d="M200.38,211.28a19,19,0,0,1,.15-3.51c.09-.13,2.5-.57,3-.72l.13.26C202.16,208.67,201.4,210.38,200.38,211.28Z"/><path class="cls-9" d="M176,213.09c-.4-2-1.95-9.15-.86-10.59.71-.94,3.79-1.76,4.82-2.27l1.45,2.85,1.82,3.66,8.93,15.85-2.78,2a86.17,86.17,0,0,1-5.06-8.52c-.78-1.76-3.39-8.49-5.49-7.66C178.48,211.39,181,211,176,213.09Z"/><path class="cls-8" d="M205.34,183.35c-.09.28-.27.85-.17.79s.8-.68,1.24-1.06c.34-.07.68-.13,1-.18l-.4.84,1-.91c.39,0,.78-.06,1.19-.07l.18,0-.58.95,1.11-.89a7.49,7.49,0,0,1,1.27.33l-1.44,1.37,2.1-1.12q.54.23,1.14.54l-1.89,1.36,2.52-.94a10.37,10.37,0,0,1,1.1,1.33l-2.25,1.11,2.53-.69a9,9,0,0,1,.57,1.06l-2.12,1.39,2.37-.77a7.21,7.21,0,0,1,.31,1.1l-1.88,1,1.95-.44a4.85,4.85,0,0,1,0,.66v.08l-1.76,1.09,1.7-.82a5,5,0,0,1-2.39,2.2l-.06-1.15c0-1.84-2.07-4.64-3.48-6a5.69,5.69,0,0,0-4.51-1.25c-1.76.17-3.66,1-3.87.78A11,11,0,0,1,205.34,183.35Z"/><path class="cls-6" d="M192.52,216.18l2.4-.89.42.7,2,4.82a19,19,0,0,1-2.4.41Z"/><path class="cls-10" d="M211.62,204.52c-1.1.54-2.19,1.15-3.55-.19l-3.31,1.55c2,3.72,10.85,3.48,13.57-1.29,3-5.22.89-10.05-5.77-10,0-2.53.12-4.82-1.76-7.13-1.57-1.92-3.93-3.21-6.37-2.37-3,1-4.67,1.18-5.38,4.47a12.2,12.2,0,0,0,0,4.78c.13.55,1.33.19,2.61-.27.36,0,.63-.14.54-.61.3-.81-.51-2.46,1.94-2.8a3.12,3.12,0,0,1,3.35,1.54l.2.4c1.49,3-1.2,3.32-1.59,4.56-.12.38.49.74.82,1.4l.4-.2C210.72,196.79,215.63,202.61,211.62,204.52Z"/><path class="cls-2" d="M188.13,159.4c-2.73,9.22-13.91,13.79-22.29,8.7-5.28-3.2-9.69-10.2-8.36-16.48a16.14,16.14,0,0,1,14.91-12.76C182.6,138.38,190.42,150,188.13,159.4Z"/><path class="cls-3" d="M190.51,160.32c-2.74,9.22-13.92,13.79-22.3,8.7-5.28-3.21-9.69-10.21-8.36-16.49a16.16,16.16,0,0,1,14.91-12.76C185,139.29,192.79,150.87,190.51,160.32Z"/><path class="cls-4" d="M161.4,152.84a9.67,9.67,0,0,0,1.24,7.65c1.05,1.66,3.47,5.41,5.46,6.62l.93.56c6.84,4.16,14.69,1.61,19-5.42l.08-.13c2-2.93,1.38-9.7-.68-12.61a28.51,28.51,0,0,0-3.07-4.41C176.45,137.08,163.21,142.89,161.4,152.84Z"/><path class="cls-23" d="M184.28,146.12l.13.08c.7.43,1.18.69,1,1.33l.77,1.23c.06.4-2,2.35-1.68,2.36-.43.58-.37.37-.93.34l-.18-.3-2.6-1,.07-.14-2.11-1.28c-1.81-1.1-.36-1-1-1.54,1.94-5,2.5-4.87,6.55-1.6l-.08.13C182.7,144.81,183.23,145.32,184.28,146.12Z"/><path class="cls-3" d="M184.59,146.32c.6.36,1,.62.81,1.21l.77,1.23c.06.4-2,2.35-1.68,2.36-.39.53-.38.4-.81.35A16.5,16.5,0,0,0,184.59,146.32Z"/><path class="cls-23" d="M169.38,150.77l-.13-.08-1.58.1c0-1,.1-1.39-.1-1.8a2.64,2.64,0,0,1-.5-1.24c0-1,1.62-2.28,2.45-2.85,3.13-2.19,3.85-1.71,6.89.23l.4.24.16-.26c.54.39.47.39.12,1l-.44-.45-.08.13.32,2Z"/><path class="cls-3" d="M188.14,153.7l.21.51.15,1.87,0,1.24,0,.21,0,.69-2.33,2-.77-.45-.87-.35c1.07,2.29,1.53,5-1.57,6.43l-.27,1.09-.5-.11.27.16-.16.26c-.77-.15.24-.21-.56,0l-.37.32-.5.23c-1-1-3-1.85-3.07-3.06a12.09,12.09,0,0,1,.31-1.95,9.79,9.79,0,0,0,.1-1.28l5.5-2.88,0-.16.56.56.26.16-.45-.71.19-.35-.08-4.83.06-.77c.55-.91,1.75-2.23,3.19-1.35l.53,1.45C188.25,152.87,188.12,153.3,188.14,153.7Z"/><path class="cls-23" d="M167.3,160.14c-.74-.25-1-.61-2.6-1.35l-.48-.17c-.76-2.34-.72-3.87,1.77-5.68,1.64-1.18,2.69-1.61,4.42-.13.77.66,1.27,3.54,1.33,4.46.16,2.3-2,1.86-3.26,3.59Z"/><path class="cls-23" d="M169.2,165.62c.26-.58-2.3-3.59,1.61-5.33l.32-.53.34,0,.48-.49.11.12.16-.26,5.12,2.52c-.27.9-.05,2.44-.27,3.38C176.36,169.45,170.82,168.18,169.2,165.62Z"/><path class="cls-3" d="M169.2,165.62a.75.75,0,0,0,0-.4,23.89,23.89,0,0,0,7.31-4l.87.43c-.27.9-.05,2.44-.27,3.38C176.36,169.45,170.82,168.18,169.2,165.62Z"/><path class="cls-24" d="M176.19,160l-1-.47h0l-2.36-1.15-1.66-6.62,6.07-3.39,4.32,3c.14,0-.1-.14.31.11l.65.4v.15l.34.24.05-.16a4,4,0,0,1,.51.55h0c.16.25,0,.36,0,1a4.47,4.47,0,0,1-.06,1.58l.05.21.35,2.16-6.9,2.69-.74-.23Z"/><path class="cls-25" d="M183.28,152.51a2,2,0,0,1,.16.2h0c.16.25,0,.36,0,1a4.47,4.47,0,0,1-.06,1.58l.05.21.35,2.16L178,159.94A21.59,21.59,0,0,0,183.28,152.51Z"/><path class="cls-24" d="M173.81,142.46l3.72,2,2-1.88C177.29,142.05,175.29,141.84,173.81,142.46Z"/><path class="cls-25" d="M188.13,159.4l-1.83,1.79-.41,2.73A14.24,14.24,0,0,0,188.13,159.4Z"/><path class="cls-25" d="M179.67,168.12l-2.24-1.58-1.66,2.19C177.37,169,178.78,168.91,179.67,168.12Z"/><path class="cls-24" d="M167.89,165.82a17.73,17.73,0,0,1-4.35-6.17l4.37,1.88Z"/><path class="cls-24" d="M163.25,154.4c-.45-2.26.11-4.54,2.2-6.87l1,3Z"/><g class="cls-27"><polygon class="cls-28" points="12.52 416.97 41.08 394.51 69.64 372.04 47.84 358.81 26.05 345.57 19.28 381.27 12.52 416.97"/><polygon class="cls-29" points="36.94 352.19 26.05 345.57 19.28 381.27 12.52 416.97 36.94 352.19"/><polygon class="cls-30" points="47.84 358.81 36.94 352.19 12.52 416.97 47.84 358.81"/><polygon class="cls-31" points="58.74 365.42 48.38 359.13 47.55 359.35 12.52 416.97 58.74 365.42"/><polygon class="cls-32" points="12.52 416.97 30.71 402.66 16.82 394.22 12.52 416.97"/><path class="cls-33" d="M173.75,117.91c-19.08,14.11-29.59,58.26-15.31,66.94,5.86,3.57,25.25-2.11,31.23-11.74,3.13-2.94,8.33-24.79,8-27l4.1.16c-.81,1.64-5.84,22.53-2.6,24.58,4.16,2.76,17.85-5.42,20.28-8.72l3.9,3.68c-7.19,2.72-31.93,16.84-43.42,23.55a3.55,3.55,0,0,0-.85.43l-.06,0-9.73,8.88v0c-8.73,6.61-15.19,22.09-3.41,27.25,19.54,11,37,1,41.77-3.32,1.39-.61,12.81-14.24,13.41-15l3.88,2.43c-3.13,1.29-18.62,18.14-15.09,20.78,3.1,5.69,27.52-3.36,31.78-6l3.92,4.63c-3.45.72-18.65,7-21.51,7.59-2.5.55-5.81,1.84-2.87,5.1.61.76,12.4,12.76,13.12,13.32L232,256.94l-11.45-10c-10.1-10.56-21.53-13.52-38.74-8.77-5.29,2.06-9.16,3.47-7.71,7,4.46,9.55,29.46,36,36,39.65L208,288.65c-1.33-1-16.28-18.52-22.91-18.51-3.6.61-8.35,15.87-8,18.14l-3.26-1.3c1.85-1.78,5.94-17.93,4-22.81-5.78-14.16-12.3-19.13-21.12-15.66-12.93,7.55-24.14,20.06-33.23,34.87h0L69.54,372.2a7,7,0,0,1-11.18-6.29,7,7,0,0,1-10.81-6.56,7,7,0,0,1-10.8-6.56,7,7,0,0,1-10.7-7.22l63.46-104.5h0a152.27,152.27,0,0,0,12.07-23.57C106,205.12,79.89,181.83,42.28,186l0-4.47c6.13-2.69,30.08,4,32.37-.8,3.49-5-14.1-17.4-22.53-23.3L55,154.08c20.8,12.68,28.1,30.74,36.41,33v.13l16.74,6.25.07,0a8.68,8.68,0,0,0,1.12.42c19.3,5.59,40.48-35,9.05-49.23-6.63-2.55-27.5-4-32.15-.31l-1.35-4.95c3.77.79,20.69.45,22.88-4.65,1.26-2.45-9.58-18.76-11.53-21.5l4.77-1.46c.43,2.45,7.06,16.14,9.22,18.66,5.4,7,12.48,11,19.8,14.71,13,5.24,19.73-9.58,16.36-27.25l3.29-.55c1.21,5.44,3,9.27,5.28,10.28,4.49,2,15.6-11,16.28-14.69Z"/><path class="cls-34" d="M166.6,125c-13,16.53-19.34,46.3-11,57.18l-.06.35c-16.06-17.37-8.57-37.05,11.19-57.94Z"/><path class="cls-35" d="M158.05,184.59l.39.26c5.86,3.57,25.25-2.11,31.23-11.74a11.49,11.49,0,0,0,2-3.58l.64-.29c-1.61,17.37-25.79,25.68-34.71,15.55Z"/><path class="cls-34" d="M213.76,241.14c-8.53-5.68-18.46-6.69-31.93-3-4.6,1.8-8.13,3.1-8,5.72h0C170.89,226.63,209.1,231.83,213.76,241.14Z"/><path class="cls-35" d="M123.39,190.44c11.61-9,17.57-31.34,0-43.11v-.39c26,8.93,20.9,38.23,0,43.59Z"/><path class="cls-34" d="M163.64,247.6a12.74,12.74,0,0,0-6.92.91c-12.93,7.55-24.14,20.06-33.23,34.87h0l-52.36,86.2c16.07-54.76,57.07-136.27,92.5-122.4Z"/><path class="cls-35" d="M26.05,345.57l63.46-104.5h0a152.27,152.27,0,0,0,12.07-23.57c2.32-6.44-3.65-15.83-15.19-22.77,6.32.43,13,3.16,20.06,7.57,25.59,21.59-8,56.33-21.79,77.93L27.22,351A7,7,0,0,1,26.05,345.57Z"/><g class="cls-36"><path class="cls-37" d="M160.25,229.79a52.38,52.38,0,0,1-9.11,10.29,59.19,59.19,0,0,1-11.8,8l-3.14,1.6,2.19-2.76a83.37,83.37,0,0,1,10-10.35,67.61,67.61,0,0,1,10.86-7.91l2.76-1.57-1.75,2.65Zm-8.38-64.37c-8.32,12.48-27.43,40.16-33.32,48.35-10.74,14.93-21.48,29.86-30.19,46.11-8.35,15.56-19.24,28.93-30,42.1-12.23,15-24.24,29.74-32.1,47.23a6.75,6.75,0,0,0,.88,1.76c7.77-17.81,20-32.79,32.41-48,10.77-13.22,21.71-26.64,30.13-42.33,8.66-16.16,19.38-31.06,30.09-46,5.59-7.77,23.13-33.17,32-46.43,0-.92,0-1.86.05-2.81Zm1.23,11.84A230.05,230.05,0,0,1,136,200.15c-8,9.34-17.78,20.65-26.33,34.24C96.2,255.83,81,280,67.43,303.1,55.73,323,45.28,342.16,38.29,358a6.91,6.91,0,0,0,1.16,1.13c7-15.84,17.49-35.1,29.29-55.21C82.27,280.81,97.5,256.63,111,235.2c8.48-13.48,18.18-24.75,26.19-34.06a233.68,233.68,0,0,0,16.57-22.08q-.36-.85-.66-1.8Zm3.59,6.23c-18.76,40.88-31.41,54-44.91,68.09-16.64,17.32-34.58,36-66.62,108.78a6.85,6.85,0,0,0,2-.77c31.56-71.39,49.27-89.84,65.72-106.95,13.56-14.11,26.26-27.33,45-68.14a9.76,9.76,0,0,1-1.22-1Zm5.12,2.35c-7.85,12.88-14.49,24.72-20.75,35.88-17.89,31.91-32.71,58.33-63.77,87.56-6.38,6-11.49,20.56-16.3,34.27-3.13,8.93-6.14,17.49-9.23,23a6.84,6.84,0,0,0,1.49.44c3.11-5.63,6.08-14.09,9.18-22.9,4.75-13.55,9.8-27.93,15.9-33.67,31.24-29.39,46.1-55.9,64.05-87.92,6.36-11.33,13.1-23.36,21.09-36.43l-.2-.12a13.54,13.54,0,0,1-1.46-.08Zm-1.34,35.23c-29.91,19.14-61,78.89-75.81,110.86-6.74,14.54-13.38,28.86-21.19,41.46a7.08,7.08,0,0,0,1.64.25c7.72-12.55,14.28-26.7,20.93-41.06,14.73-31.77,45.7-91.29,75.22-110.2a9.3,9.3,0,0,1-.79-1.31Zm8.55,6.46c-7.63,4.79-9.77,7.58-12.09,10.61-2.91,3.78-23.37,22.16-38.84,31.51l.79,1.3c15.72-9.5,36.27-28,39.26-31.89,2.32-3,4.46-5.81,12.58-10.8-.56-.23-1.13-.47-1.7-.73Zm6.07,2.19c-1.69,1.35-3.36,2.76-5,4.19A155.28,155.28,0,0,0,154,250.18c.89-.58,1.78-1.14,2.69-1.67.38-.15.76-.29,1.13-.41a160.68,160.68,0,0,1,13.25-13c1.93-1.69,3.89-3.33,5.87-4.9-.62-.13-1.25-.28-1.88-.44Zm5.83,1a104.81,104.81,0,0,1-7.62,7.41A107,107,0,0,1,161,247.48a10.69,10.69,0,0,1,2.6.11,110.94,110.94,0,0,0,10.73-8.28,104.82,104.82,0,0,0,8.56-8.42c-.65,0-1.29-.07-2-.13ZM60,371.16c2.83-5.57,6.05-11.55,9.28-17.53,4.63-8.58,9.26-17.17,12.7-24.51,4.8-10.24,7.33-17.92,4.29-19.35h0c-1.22-.59-3,2.12-5.26,6.79S76.21,327.78,73.43,335c-4.3,11.16-9.22,23.93-14.7,34a7.1,7.1,0,0,1-.41-2.46C63.39,356.85,68,344.93,72,334.46c2.8-7.27,5.33-13.85,7.58-18.56,2.64-5.51,5-8.58,7.29-7.51h0c4.11,1.93,1.62,10.33-3.56,21.38-3.46,7.37-8.1,16-12.74,24.58-3.3,6.12-6.59,12.23-9.46,17.9A7.09,7.09,0,0,1,60,371.16ZM30.44,353.51a112.4,112.4,0,0,1,7.25-16.57A90.47,90.47,0,0,1,50.1,318.88l1.73-1.9-.41,2.53a68.23,68.23,0,0,1-7.31,21,79.65,79.65,0,0,1-8.66,12.92,7.09,7.09,0,0,1-2.4.49,77.92,77.92,0,0,0,9.72-14.14A67.86,67.86,0,0,0,49.4,322,93.9,93.9,0,0,0,39,337.66a113.14,113.14,0,0,0-7.11,16.22,7,7,0,0,1-1.48-.37Zm30.12-64.76c41-47.79,46.56-66.68,44.1-89.05-.3-2.7-3.84-6.34-6.73-10.07l2.29.86c2.72,3.36,5.68,6.59,6,9,2.62,23.82-3.49,43.62-50.2,96.82h0l-.14.18,4.73-7.78Zm54.94-31.19a68.14,68.14,0,0,1-11.29,19.18,78.83,78.83,0,0,1-17.37,15.64L84.46,294l1.28-2.56A108.53,108.53,0,0,1,98.61,272a91.09,91.09,0,0,1,15.72-15.28l2.06-1.51-.89,2.39ZM103,275.77a77.59,77.59,0,0,1-14.48,13.59,110.25,110.25,0,0,1,11.24-16.43A93.81,93.81,0,0,1,113,259.6a68,68,0,0,1-10,16.17Zm40-73.7,1.13-3-2.35,2.14a124.06,124.06,0,0,0-16.15,18.43A151.6,151.6,0,0,0,112,242.14l-1.53,3.17,2.7-2.25a106.68,106.68,0,0,0,17.77-19,94.69,94.69,0,0,0,12.08-22Zm-13.31,21.05a96.38,96.38,0,0,0,10.58-18.35,130.27,130.27,0,0,0-13.41,15.8,156.66,156.66,0,0,0-11.77,18.79,106.73,106.73,0,0,0,14.6-16.24Zm20.42,15.82a53.55,53.55,0,0,0,6.57-6.86,75.43,75.43,0,0,0-7.31,5.68,87.41,87.41,0,0,0-7,6.92A58.56,58.56,0,0,0,150.13,238.94Z"/><path class="cls-37" d="M147.33,255.09q-2.91,2.39-5.68,5.08c-16.05,12-29.43,28-39.62,48.12a184.76,184.76,0,0,0-12,30.16l-2.49,4.09a189,189,0,0,1,13.37-34.82c11.58-22.8,27.23-40.48,46.23-52.91Z"/><path class="cls-37" d="M102.84,317.37a92.45,92.45,0,0,1,12.59-20.73Z"/><path class="cls-37" d="M73.47,365.74c.32-.6.65-1.19,1-1.78,1.57-2.86,3.15-5.73,4.41-8.69l.87.17Z"/><path class="cls-37" d="M113.09,194.35c.43,0,.87,0,1.3-.07-.49,1.87-1.14,3.79-1.8,5.74-1.86,5.48-3.82,11.21-2.4,16.8a83.73,83.73,0,0,0,10-14.45,118.76,118.76,0,0,0,7.3-16c.56-.69,1.1-1.41,1.61-2.15l.44.16A122,122,0,0,1,121.3,203a83.37,83.37,0,0,1-10.93,15.51l-.71.79-.34-1c-2.11-6.31,0-12.63,2.09-18.65C112,197.83,112.62,196.07,113.09,194.35Z"/><path class="cls-37" d="M116.22,194a13.38,13.38,0,0,0,1.53-.44,76.68,76.68,0,0,0-3.3,9.2,21.27,21.27,0,0,0-1,5.87,37.91,37.91,0,0,0,5.58-9.17,61.45,61.45,0,0,0,2.89-8c.55-.36,1.08-.75,1.61-1.16A62.91,62.91,0,0,1,120.2,200a36.81,36.81,0,0,1-6.66,10.45l-.7.73-.33-1c-.55-1.59-.18-4.42.74-7.76A75.49,75.49,0,0,1,116.22,194Z"/><path class="cls-37" d="M101.26,210.32a19.81,19.81,0,0,0-1.31-2.78c-.39-4-2-8.32-4.9-12.95a70.42,70.42,0,0,0-6.83-9.13,10.13,10.13,0,0,0,2.9,1.52,68.4,68.4,0,0,1,5,7c3.64,5.91,5.4,11.38,5.15,16.38ZM78.92,175.7l.91,1.07-1-1Z"/><path class="cls-37" d="M91,197.86c-.44-.34-.9-.68-1.37-1A16.55,16.55,0,0,0,86,189.56,50.74,50.74,0,0,0,75,180a2.84,2.84,0,0,0,.1-.66l.35-.54a52.55,52.55,0,0,1,11.52,10C89.41,191.85,90.81,194.88,91,197.86Z"/><path class="cls-37" d="M86.88,195c-.62-.38-1.25-.76-1.9-1.12a25,25,0,0,0-2.81-4.09h0a21.52,21.52,0,0,0-5.08-4.58c-1.38-.84-2.48-1.15-3-.74s-.38,1.55.2,3.06a15.34,15.34,0,0,0,.92,2l-1.69-.58c-.15-.32-.28-.63-.4-.93-.77-2-.77-3.67.17-4.46s2.57-.5,4.42.62a22.86,22.86,0,0,1,5.4,4.85h0A23.2,23.2,0,0,1,86.88,195Z"/><path class="cls-37" d="M168.9,185.33c.64-.13,1.3-.28,2-.45-2.75,3.37-5.75,7.33-8.84,11.69A201.66,201.66,0,0,0,149.19,217c-2.92,5.46-4.44,9.3-3.86,10.22h0c.14.12.62-.09,1.38-.59h0a26.29,26.29,0,0,0,3.77-3.26A125.05,125.05,0,0,0,160,212.28a16.37,16.37,0,0,0-.48,2.63,116,116,0,0,1-8.13,9.31,27,27,0,0,1-4,3.42h0c-1.28.84-2.27,1-2.89.48a1,1,0,0,1-.23-.28h0c-.84-1.32.68-5.61,3.81-11.47A200.92,200.92,0,0,1,161,195.85c2.72-3.85,5.4-7.41,7.89-10.52Zm11.28-4.09c-.37.74-.77,1.53-1.21,2.34-2.11,3.95-4.95,8.67-8.28,13.72l3.6-3.29c2.26-3.58,4.22-6.92,5.78-9.84.76-1.44,1.44-2.78,2-4Q181.14,180.73,180.18,181.24Z"/><path class="cls-37" d="M173.19,184.2c1-.32,2-.67,2.95-1.07a.4.4,0,0,1-.17.25,12.73,12.73,0,0,0-1.72,1.52,88.13,88.13,0,0,0-8.32,10.47,115.16,115.16,0,0,0-6.72,10.7c-1.42,2.62-2.23,4.46-2.14,5a.54.54,0,0,1,.19-.31,12.79,12.79,0,0,0,1.73-1.52,88.13,88.13,0,0,0,8.32-10.47A115.16,115.16,0,0,0,174,188c1.37-2.54,2.18-4.35,2.14-4.92l1.14-.48c.18,1-.65,3.14-2.18,6a115.4,115.4,0,0,1-6.68,10.65,27.46,27.46,0,0,0-7,9.16c-.55.62-1.06,1.17-1.52,1.64a13.42,13.42,0,0,1-1.92,1.68c-.74.5-1.34.59-1.76.21h0a1,1,0,0,1-.18-.22c-.44-.77.39-3.11,2.09-6.27a117.93,117.93,0,0,1,6.8-10.83A92.79,92.79,0,0,1,173.19,184.2Z"/><path class="cls-37" d="M154.18,151c-.19.75-.38,1.49-.56,2.24A107.13,107.13,0,0,0,143.54,166a137.33,137.33,0,0,0-8.16,13c-1.77,3.28-2.76,5.58-2.58,6.18a2.79,2.79,0,0,1,.42-.37,15.22,15.22,0,0,0,2.1-1.86,107.35,107.35,0,0,0,10.1-12.7c2.77-4,5.21-7.8,7.07-11-.16,1.05-.29,2.09-.39,3.11-1.63,2.67-3.55,5.62-5.66,8.63a109.5,109.5,0,0,1-10.23,12.87,15.93,15.93,0,0,1-2.3,2c-.84.57-1.51.68-2,.27h0a1.08,1.08,0,0,1-.18-.24h0c-.52-.88.49-3.67,2.54-7.46a138.44,138.44,0,0,1,8.23-13.11,108.66,108.66,0,0,1,10.23-12.87C153.27,151.84,153.75,151.39,154.18,151Z"/><path class="cls-37" d="M156.93,142.55c-.19.49-.37,1-.55,1.48-2.69,1-5.48,3.34-8.33,6.7-4.85,5.74-9.81,14.37-14.62,24.16a29.23,29.23,0,0,0,.84-4.46c4.24-8.25,8.57-15.46,12.83-20.5C150.42,146,153.72,143.38,156.93,142.55Z"/><path class="cls-37" d="M162.16,131.59c-.27.46-.54.93-.8,1.41-4.85,1.11-9.51,5.51-14,11.54-4.55,6.18-8.88,14.07-13,22,0-.77-.1-1.54-.2-2.31a161.41,161.41,0,0,1,12.18-20.38C151.34,137.11,156.58,132.36,162.16,131.59Z"/><path class="cls-37" d="M132.34,157.6c-.17-.39-.36-.77-.57-1.16,7.11-6.49,12.65-13.17,16.18-19.31,2.62-4.55,4.13-8.77,4.33-12.36a9.9,9.9,0,0,0,1.09,1.56A32.92,32.92,0,0,1,149,137.76C145.39,144.08,139.67,151,132.34,157.6Z"/><path class="cls-37" d="M105.39,137a6.79,6.79,0,0,0,1.39-1c5.3,1.38,10.07,4.59,14.39,7.5,2,1.37,4,2.68,5.8,3.67,4.23,2.3,7.89,2.89,11-1.45a9.13,9.13,0,0,0,2.06-.94c-3.82,6.88-8.36,6.38-13.68,3.48-1.87-1-3.83-2.34-5.9-3.73C116,141.5,110.92,138.11,105.39,137Z"/><path class="cls-37" d="M198.47,169.94a1.85,1.85,0,0,0,.65.89l.13.08a105.7,105.7,0,0,0-12.13,9.52,29,29,0,0,0-6.43,8.44l-.81.47a3.55,3.55,0,0,0-.85.43l-.06,0,0,0a28.44,28.44,0,0,1,7.31-10.24A106,106,0,0,1,198.47,169.94Z"/><path class="cls-37" d="M201.84,171.38a16.1,16.1,0,0,0,4.32-1l0,.08a56.7,56.7,0,0,0-12.43,8.38,50.21,50.21,0,0,0-5.66,5.77c-1,.54-1.88,1.07-2.77,1.59a46.65,46.65,0,0,1,7.6-8.29A61.14,61.14,0,0,1,201.84,171.38Z"/><path class="cls-37" d="M209.62,228c-.47,1.29-.48,2.28.16,2.78-.93,1.85-3.08,3.33-5.9,4.47-.9.37-1.87.7-2.9,1a33.27,33.27,0,0,0-3.93-.31,37.08,37.08,0,0,0,6.36-1.85c2.93-1.19,5-2.71,5.52-4.59a81.62,81.62,0,0,1-8.75,1.73c-7.86,1.27-16.82,2.72-20.59,7.78-.71.29-1.38.57-2,.85,3.31-6.77,13.51-8.43,22.37-9.86a67.71,67.71,0,0,0,9.5-2Z"/><path class="cls-37" d="M174.18,242.43a2.67,2.67,0,0,0-.37,1.42c-1.39,2.44.63,6.73,2.67,11.07,1.56,3.33,3.14,6.7,3.32,9.51a5.28,5.28,0,0,1-1.45,4.38,21.38,21.38,0,0,0,0-2.29,4.89,4.89,0,0,0,.24-2c-.16-2.57-1.69-5.83-3.21-9.06-2.53-5.39-5-10.7-1.54-13.48Z"/><path class="cls-37" d="M177.53,250.68c.64.89,1.34,1.82,2.09,2.79.59,1.6,1.38,3.28,2.19,5,1.81,3.83,3.7,7.82,3.73,11.72l-.44,0a2.05,2.05,0,0,0-.82.37c.09-3.75-1.79-7.72-3.59-11.53A35.18,35.18,0,0,1,177.53,250.68Z"/></g><polygon class="cls-35" points="23.77 398.44 12.52 416.97 16.82 394.22 23.77 398.44"/></g><text class="cls-38" transform="matrix(0.53, -0.85, 0.85, 0.53, 57.77, 356.75)">K<tspan class="cls-39" x="14.1" y="0">i</tspan><tspan class="cls-40" x="18.92" y="0">d</tspan><tspan class="cls-41" x="29.68" y="0">s</tspan><tspan class="cls-42" x="39.77" y="0">L</tspan><tspan class="cls-43" x="51.71" y="0">o</tspan><tspan class="cls-44" x="63.82" y="0">o</tspan><tspan class="cls-45" x="76.06" y="0">p</tspan></text></g></g></svg>