<svg width="26" height="26" viewBox="0 0 26 26" fill="none" xmlns="http://www.w3.org/2000/svg">
<path d="M13 25.9996C20.1797 25.9996 26 20.1794 26 12.9998C26 5.82022 20.1797 0 13 0C5.8203 0 0 5.82022 0 12.9998C0 20.1794 5.8203 25.9996 13 25.9996Z" fill="#FFB117"/>
<path d="M8.41693 11.8834C9.20163 11.8834 9.83776 11.2473 9.83776 10.4626C9.83776 9.67788 9.20163 9.04175 8.41693 9.04175C7.63222 9.04175 6.99609 9.67788 6.99609 10.4626C6.99609 11.2473 7.63222 11.8834 8.41693 11.8834Z" fill="white"/>
<path d="M17.5829 11.8834C18.3676 11.8834 19.0038 11.2473 19.0038 10.4626C19.0038 9.67788 18.3676 9.04175 17.5829 9.04175C16.7982 9.04175 16.1621 9.67788 16.1621 10.4626C16.1621 11.2473 16.7982 11.8834 17.5829 11.8834Z" fill="white"/>
<path d="M12.9837 21C14.2602 21.0003 15.4989 20.5381 16.4965 19.6893C17.4941 18.8404 18.1915 17.6554 18.4741 16.3285C18.5085 16.1693 18.5086 16.004 18.4746 15.8447C18.4407 15.6854 18.3735 15.5364 18.2779 15.4087C18.1824 15.281 18.061 15.1779 17.9229 15.1072C17.7849 15.0364 17.6336 14.9998 17.4803 15H8.5197C8.36648 14.9998 8.2152 15.0364 8.0771 15.1072C7.93901 15.1779 7.81763 15.281 7.72211 15.4087C7.62658 15.5364 7.55929 15.6854 7.52532 15.8447C7.49134 16.004 7.49159 16.1693 7.52591 16.3285C7.80595 17.6503 8.49806 18.8319 9.48933 19.6804C10.4806 20.5288 11.7124 20.994 12.9837 21V21Z" fill="white"/>
</svg>
