<svg width="11" height="11" viewBox="0 0 11 11" fill="none" xmlns="http://www.w3.org/2000/svg">
<path fill-rule="evenodd" clip-rule="evenodd" d="M11 5.5C11 8.5376 8.5376 11 5.5 11C2.4624 11 0 8.5376 0 5.5C0 2.4624 2.4624 0 5.5 0C8.5376 0 11 2.4624 11 5.5ZM4.11572 4.06982C4.11572 4.25098 4.03784 4.41406 3.91382 4.52734C3.80383 4.62744 3.65747 4.68848 3.49695 4.68848C3.15515 4.68848 2.87817 4.41162 2.87817 4.06982C2.87817 3.72803 3.15515 3.45117 3.49695 3.45117C3.83862 3.45117 4.11572 3.72803 4.11572 4.06982ZM7.50293 4.68848C7.8446 4.68848 8.1217 4.41162 8.1217 4.06982C8.1217 3.87061 8.02759 3.69385 7.88147 3.58057C7.77686 3.49951 7.64551 3.45117 7.50293 3.45117C7.16113 3.45117 6.88416 3.72803 6.88416 4.06982C6.88416 4.41162 7.16113 4.68848 7.50293 4.68848ZM7.23193 8.28076C6.7417 8.67236 6.13208 8.88477 5.50452 8.88232C4.87622 8.88574 4.26562 8.67383 3.77441 8.28174C3.2832 7.89014 2.94116 7.3418 2.80505 6.72803C2.78857 6.65527 2.78857 6.57959 2.8053 6.50635C2.82202 6.43359 2.85498 6.36523 2.90161 6.30664C2.94824 6.24854 3.00745 6.20117 3.07483 6.16846C3.11389 6.14941 3.15515 6.13574 3.19751 6.12744C3.22815 6.12158 3.2594 6.11865 3.29077 6.11865H7.71375C7.78882 6.11816 7.86316 6.13428 7.93091 6.16699C7.99878 6.19922 8.05835 6.24658 8.1051 6.30518C8.15198 6.36377 8.18469 6.43262 8.20117 6.50586C8.21753 6.5791 8.21692 6.65527 8.19958 6.72803C8.0636 7.34082 7.72217 7.88867 7.23193 8.28076Z" fill="black"/>
</svg>
