<svg xmlns="http://www.w3.org/2000/svg" viewBox="0 0 129.79 129.79"><defs><style>.cls-1{fill:#ffc4e3;}.cls-2{fill:#fff500;}</style></defs><g id="Layer_2" data-name="Layer 2"><g id="레이어_1" data-name="레이어 1"><path class="cls-1" d="M95.67,128.27a311.8,311.8,0,0,1-61.55,0c-15.43-1.75-30.85-17.17-32.6-32.6a311.8,311.8,0,0,1,0-61.55C3.27,18.69,18.69,3.27,34.12,1.52a311.8,311.8,0,0,1,61.55,0c15.43,1.75,30.85,17.17,32.6,32.6a311.8,311.8,0,0,1,0,61.55C126.52,111.1,111.1,126.52,95.67,128.27Z"/><path class="cls-2" d="M101.91,54.23a76.19,76.19,0,0,0-13.79-3.74c-5.81-1.1-8.29-3.18-10.39-7-3.27-6-7.36-11.27-10.08-13.74a4.17,4.17,0,0,0-5.51,0c-2.72,2.47-6.81,7.78-10.08,13.74-2.1,3.83-4.58,5.91-10.39,7a75.94,75.94,0,0,0-13.79,3.74A3.56,3.56,0,0,0,26,59.35a57.84,57.84,0,0,0,10.49,13c3.14,3,3.85,5.67,3.47,10.17-.51,6-1,11-.89,15,.06,2.86,3.13,4.25,5.88,3.42a120.84,120.84,0,0,0,14.15-5.21,15.61,15.61,0,0,1,5.8-1.39,15.61,15.61,0,0,1,5.81,1.39,120.84,120.84,0,0,0,14.15,5.21c2.75.83,5.81-.56,5.88-3.42.1-3.9-.38-9-.89-15-.38-4.5.33-7.22,3.47-10.17a57.84,57.84,0,0,0,10.49-13A3.56,3.56,0,0,0,101.91,54.23Z"/></g></g></svg>