<svg width="118" height="31" viewBox="0 0 118 31" fill="none" xmlns="http://www.w3.org/2000/svg">
<path d="M98.6563 9.9666L101.868 8.05021C102.451 7.7023 102.922 7.19573 103.223 6.59077C103.524 5.98581 103.643 5.30793 103.566 4.63781L103.033 0L99.6297 2.04386C99.0287 2.40548 98.5496 2.93547 98.2529 3.56677C97.9562 4.19807 97.8553 4.90232 97.9629 5.59042L98.6563 9.95989" fill="#5E9ED5"/>
<path d="M102.211 9.52834L99.1125 11.1384C100.452 11.0418 101.791 11.3266 102.972 11.9591L108.036 14.6738C109.052 15.1879 110.178 15.4502 111.319 15.4381C112.46 15.426 113.581 15.1399 114.585 14.6044L117.993 12.7976L117.411 12.7462C116.24 12.6384 115.096 12.3415 114.023 11.8674L108.503 9.42324C107.518 8.95762 106.436 8.72476 105.345 8.743C104.253 8.76124 103.18 9.03007 102.211 9.52834Z" fill="#5E9ED5"/>
<path d="M107.656 18.0705C105.35 17.5995 103.273 16.3701 101.762 14.5821L95.7361 7.58285C93.9294 5.41824 91.1763 4.83013 88.9201 6.01754L85.7582 7.69243L86.4832 8.0122C87.7508 8.59816 88.8193 9.53577 89.5592 10.7113L94.4985 18.0682C96.9986 21.4225 99.4671 22.0934 103.171 20.4162L107.656 18.0705Z" fill="#5E9ED5"/>
<path d="M93.6132 13.2963C93.9519 15.5458 94.6498 17.7351 95.7452 19.5173C96.9715 20.7181 98.2408 21.3062 99.6952 21.3062C100.229 21.3024 100.76 21.2333 101.276 21.1005C98.9748 19.439 97.1138 16.7467 96.2104 14.3406C95.2739 14.2091 94.3847 13.8504 93.6222 13.2963" fill="#66B0E1"/>
<path d="M105.47 8.74115C105.319 8.74115 105.167 8.74115 105.018 8.7568C104.258 9.81527 103.402 10.8032 102.462 11.7085C102.638 11.7846 102.812 11.8695 102.981 11.959L108.045 14.6737C109.06 15.1882 110.187 15.4507 111.328 15.4386C112.469 15.4265 113.59 15.1403 114.594 14.6044L118.002 12.7976L117.411 12.7461C116.24 12.6383 115.096 12.3415 114.023 11.8673L108.503 9.42318C107.553 8.97844 106.514 8.74925 105.463 8.75233" fill="#FFD857"/>
<path d="M100.567 13.1934C99.2774 14.0096 98.042 14.3853 96.8834 14.3853C96.6568 14.3849 96.4305 14.37 96.2058 14.3406C97.1092 16.7467 98.9792 19.439 101.274 21.0916C101.927 20.9271 102.564 20.7025 103.175 20.4207L107.661 18.075C105.355 17.604 103.277 16.3746 101.766 14.5866L100.567 13.1934Z" fill="#A9D0EE"/>
<path d="M91.3457 5.41376C90.5813 5.41434 89.8266 5.58395 89.1369 5.91019C89.2363 6.27543 89.3432 6.63023 89.4576 6.9746C90.4107 9.80336 91.8425 12.0485 93.6132 13.2963C93.3057 11.2713 93.2936 9.21316 93.577 7.1848C93.6358 6.78453 93.7035 6.3932 93.7826 6.00634C93.0291 5.62058 92.1939 5.41748 91.3457 5.41376Z" fill="#79BBE7"/>
<path d="M103.033 0L99.6297 2.04386C99.0287 2.40548 98.5496 2.93547 98.2529 3.56677C97.9562 4.19807 97.8553 4.90232 97.9629 5.59042C99.4192 4.08803 101.282 3.03361 103.329 2.5537L103.033 0Z" fill="#E890AE"/>
<path d="M93.7826 6.00635C93.7035 6.3932 93.6358 6.78453 93.577 7.18481C93.2936 9.21317 93.3057 11.2713 93.6132 13.2963C94.3783 13.8517 95.2707 14.2106 96.2104 14.3405C96.065 13.965 95.9398 13.5821 95.8355 13.1934C95.418 11.5232 95.5656 9.76352 96.2556 8.18438L95.7361 7.57837C95.1998 6.92993 94.5349 6.39719 93.7826 6.01306" fill="#87C9EF"/>
<path d="M103.329 2.56488C101.283 3.04479 99.4193 4.0992 97.963 5.60159L98.6563 9.96659L101.868 8.0502C102.451 7.70229 102.922 7.19572 103.223 6.59076C103.524 5.9858 103.643 5.30792 103.566 4.6378L103.329 2.55817" fill="#EDA6C5"/>
<path d="M105.018 8.75684C104.042 8.81892 103.089 9.08165 102.22 9.52831L99.1215 11.1384C99.2909 11.1249 99.4603 11.1205 99.6297 11.1205C100.605 11.1197 101.569 11.32 102.462 11.7086C103.402 10.8033 104.258 9.8153 105.018 8.75684Z" fill="#FFF196"/>
<path d="M96.2555 8.18884C95.5666 9.76667 95.419 11.5246 95.8355 13.1934C95.9398 13.5821 96.0649 13.965 96.2104 14.3405C96.435 14.3699 96.6613 14.3849 96.8879 14.3853C98.0465 14.3853 99.2819 14.0096 100.571 13.1934L96.2555 8.18884Z" fill="#C5E9FB"/>
<path d="M8.63409 19.8325C8.40283 19.549 8.11038 19.3202 7.7782 19.1631C7.44601 19.006 7.08253 18.9245 6.7144 18.9247H7.13221C7.56531 18.9257 7.99313 18.8304 8.38404 18.6458C8.77495 18.4612 9.11897 18.192 9.39067 17.858L13.151 13.2605C13.2208 13.1754 13.2649 13.0726 13.2783 12.9638C13.2916 12.8551 13.2737 12.7448 13.2264 12.6457C13.1792 12.5466 13.1047 12.4627 13.0114 12.4037C12.9182 12.3447 12.81 12.3131 12.6993 12.3123H10.6283C10.2006 12.3117 9.77804 12.4052 9.39133 12.5862C9.00462 12.7672 8.66341 13.0312 8.39243 13.3588L3.82357 18.8486V9.97776C3.82353 9.48115 3.64227 9.00128 3.31317 8.62653C2.98407 8.25178 2.5293 8.00739 2.03261 7.93837L1.12922 7.79973C0.99019 7.77663 0.847739 7.78384 0.711812 7.82088C0.575886 7.85791 0.44976 7.92387 0.342237 8.01415C0.234714 8.10443 0.148384 8.21686 0.0892728 8.34358C0.0301617 8.47031 -0.000306518 8.60828 -5.4193e-06 8.74786V25.9105C-0.000306518 26.05 0.0301617 26.188 0.0892728 26.3147C0.148384 26.4415 0.234714 26.5539 0.342237 26.6442C0.44976 26.7344 0.575886 26.8004 0.711812 26.8374C0.847739 26.8745 0.99019 26.8817 1.12922 26.8586L2.03261 26.7199C3.07828 26.4829 3.83938 25.7092 3.83938 24.6806V19.7476L9.30485 25.338C9.53624 25.6177 9.82746 25.843 10.1575 25.9977C10.4875 26.1523 10.8481 26.2325 11.2132 26.2325H13.4717C13.582 26.2309 13.6896 26.1987 13.7823 26.1395C13.875 26.0804 13.9491 25.9966 13.9962 25.8979C14.0433 25.7991 14.0614 25.6892 14.0485 25.5808C14.0356 25.4723 13.9923 25.3696 13.9234 25.2843L8.63409 19.8325Z" fill="#669BD2"/>
<path d="M17.2095 12.7685L15.9696 12.603C15.8326 12.5845 15.6931 12.5953 15.5607 12.6346C15.4282 12.6738 15.3057 12.7407 15.2015 12.8308C15.0973 12.9208 15.0138 13.0319 14.9566 13.1565C14.8994 13.2812 14.8697 13.4165 14.8697 13.5534V25.2687C14.8698 25.4057 14.8994 25.5411 14.9566 25.6658C15.0138 25.7906 15.0973 25.9018 15.2015 25.992C15.3056 26.0822 15.428 26.1493 15.5605 26.1889C15.693 26.2284 15.8324 26.2395 15.9696 26.2213L17.2095 26.0536C17.7092 25.9885 18.1681 25.7457 18.5005 25.3705C18.8329 24.9953 19.0162 24.5133 19.0162 24.0142V14.8079C19.0157 14.309 18.8322 13.8272 18.4999 13.4521C18.1676 13.077 17.709 12.8341 17.2095 12.7685Z" fill="#669BD2"/>
<path d="M30.8257 7.56718L29.9224 7.70583C29.4238 7.77362 28.9666 8.01717 28.6347 8.39177C28.3028 8.76638 28.1185 9.24692 28.1156 9.74521V12.3258H24.362C23.2479 12.3258 22.1794 12.764 21.3917 13.544C20.6039 14.324 20.1613 15.3819 20.1613 16.485V22.0754C20.1613 23.1786 20.6039 24.2365 21.3917 25.0165C22.1794 25.7965 23.2479 26.2347 24.362 26.2347H28.2488H28.8451C29.1673 26.466 29.5339 26.6296 29.9224 26.7155L30.8257 26.8541C30.965 26.8789 31.1081 26.8728 31.2447 26.8364C31.3813 26.8 31.5081 26.7341 31.616 26.6435C31.7239 26.5529 31.8102 26.4398 31.8688 26.3123C31.9274 26.1848 31.9569 26.0461 31.955 25.906V8.51532C31.9553 8.37573 31.9248 8.23776 31.8657 8.11104C31.8066 7.98431 31.7202 7.87189 31.6127 7.78161C31.5052 7.69133 31.3791 7.62537 31.2431 7.58834C31.1072 7.5513 30.9648 7.54408 30.8257 7.56718ZM23.9939 21.5745V16.9949C23.9939 16.7184 24.0489 16.4445 24.1559 16.1891C24.2628 15.9337 24.4196 15.7016 24.6172 15.5062C24.8147 15.3107 25.0493 15.1558 25.3074 15.0502C25.5655 14.9446 25.8421 14.8903 26.1214 14.8906H28.1224V23.6765H26.1214C25.8423 23.6768 25.5659 23.6227 25.3079 23.5172C25.05 23.4117 24.8155 23.257 24.618 23.0618C24.4204 22.8666 24.2636 22.6348 24.1565 22.3796C24.0495 22.1244 23.9942 21.8509 23.9939 21.5745Z" fill="#669BD2"/>
<path d="M79.0325 30.9888L79.9359 30.8502C80.4359 30.7846 80.8947 30.5414 81.2271 30.1658C81.5594 29.7902 81.7427 29.3079 81.7427 28.8086V26.2303H85.503C86.6171 26.2303 87.6856 25.792 88.4734 25.012C89.2612 24.232 89.7038 23.1741 89.7038 22.071V16.4806C89.7038 15.3774 89.2612 14.3195 88.4734 13.5395C87.6856 12.7595 86.6171 12.3213 85.503 12.3213H81.6094H81.0132C80.7086 12.0613 80.3344 11.8943 79.9359 11.8405L79.0325 11.6996C78.8934 11.6773 78.7511 11.6851 78.6153 11.7226C78.4796 11.7601 78.3537 11.8263 78.2463 11.9166C78.1389 12.007 78.0526 12.1194 77.9934 12.246C77.9342 12.3726 77.9034 12.5105 77.9033 12.65V30.0452C77.9037 30.1844 77.9346 30.3218 77.994 30.448C78.0534 30.5742 78.1398 30.686 78.2473 30.7758C78.3547 30.8656 78.4806 30.9312 78.6162 30.968C78.7518 31.0047 78.8939 31.0119 79.0325 30.9888ZM85.8644 16.9815V21.5589C85.8644 21.8354 85.8093 22.1092 85.7024 22.3647C85.5954 22.6201 85.4387 22.8522 85.2411 23.0476C85.0435 23.243 84.809 23.398 84.5509 23.5036C84.2928 23.6092 84.0162 23.6634 83.7369 23.6631H81.7359V14.8772H83.7369C84.0162 14.8769 84.2928 14.9311 84.5509 15.0368C84.809 15.1424 85.0435 15.2973 85.2411 15.4927C85.4387 15.6882 85.5954 15.9202 85.7024 16.1757C85.8093 16.4311 85.8644 16.7049 85.8644 16.9815Z" fill="#669BD2"/>
<path d="M56.3621 12.3168C52.6741 12.3168 49.6839 13.7055 49.6839 19.278C49.6839 24.8506 52.6741 26.2392 56.3621 26.2392C60.0502 26.2392 63.0404 24.8506 63.0404 19.278C63.0404 13.7055 60.0502 12.3168 56.3621 12.3168ZM56.3621 23.7861C54.9393 23.7861 53.7852 23.3098 53.7852 19.278C53.7852 15.2462 54.9393 14.7699 56.3621 14.7699C57.785 14.7699 58.9458 15.2462 58.9458 19.278C58.9458 23.3098 57.785 23.7861 56.3621 23.7861Z" fill="#669BD2"/>
<path d="M70.4346 12.3168C66.7465 12.3168 63.7563 13.7055 63.7563 19.278C63.7563 24.8506 66.7465 26.2392 70.4346 26.2392C74.1226 26.2392 77.1128 24.8506 77.1128 19.278C77.1128 13.7055 74.1226 12.3168 70.4346 12.3168ZM70.4346 23.7861C69.0117 23.7861 67.8599 23.3098 67.8599 19.278C67.8599 15.2462 69.0117 14.7699 70.4346 14.7699C71.8574 14.7699 73.0115 15.2462 73.0115 19.278C73.0115 23.3098 71.8574 23.7861 70.4346 23.7861Z" fill="#669BD2"/>
<path d="M40.0876 17.8513H38.3102C37.9271 17.8507 37.5598 17.6997 37.2888 17.4315C37.0179 17.1632 36.8654 16.7995 36.8648 16.4202C36.8645 16.2185 36.9044 16.0188 36.9821 15.8324C37.0598 15.6461 37.1739 15.4767 37.3178 15.334C37.4617 15.1913 37.6326 15.0781 37.8207 15.0009C38.0088 14.9237 38.2105 14.8839 38.4141 14.8839H41.3772C41.9472 14.8818 42.5007 14.6948 42.9531 14.3515C43.4055 14.0082 43.7317 13.5276 43.8819 12.9832C43.9383 12.7596 44.0354 12.3123 43.2405 12.3123H36.9665C36.4496 12.3123 35.9378 12.4131 35.4604 12.6091C34.9829 12.805 34.5491 13.0921 34.1837 13.454C33.8184 13.816 33.5286 14.2457 33.331 14.7186C33.1335 15.1914 33.0319 15.6982 33.0322 16.21V16.5163C33.0346 17.5489 33.4498 18.5386 34.187 19.269C34.9243 19.9993 35.9236 20.411 36.9665 20.4139H39.0533C39.4618 20.4139 39.8535 20.5746 40.1424 20.8606C40.4313 21.1466 40.5935 21.5345 40.5935 21.939C40.5935 22.3975 40.4096 22.8371 40.0822 23.1613C39.7548 23.4855 39.3108 23.6676 38.8477 23.6676H35.5323C35.4691 23.6676 35.4104 23.6676 35.3562 23.6676C34.818 23.7058 34.3052 23.9085 33.8885 24.2478C33.4718 24.5871 33.1718 25.0462 33.03 25.5616C32.9712 25.7852 32.8764 26.2325 33.6691 26.2325H40.2932C40.8361 26.2325 41.3737 26.1265 41.8753 25.9207C42.3769 25.715 42.8326 25.4133 43.2164 25.0331C43.6002 24.6529 43.9046 24.2015 44.1122 23.7047C44.3198 23.208 44.4264 22.6756 44.4261 22.138C44.4202 21.0014 43.9609 19.9131 43.1483 19.1102C42.3357 18.3073 41.2356 17.8548 40.0876 17.8513Z" fill="#669BD2"/>
<path d="M48.9657 9.74521C48.9651 9.24626 48.7816 8.76446 48.4493 8.38937C48.117 8.01427 47.6585 7.77138 47.1589 7.70583L46.2555 7.56718C46.1165 7.54408 45.974 7.5513 45.8381 7.58834C45.7022 7.62537 45.576 7.69133 45.4685 7.78161C45.361 7.87189 45.2747 7.98431 45.2156 8.11104C45.1564 8.23776 45.126 8.37573 45.1263 8.51532V25.9105C45.126 26.0501 45.1564 26.188 45.2156 26.3148C45.2747 26.4415 45.361 26.5539 45.4685 26.6442C45.576 26.7345 45.7022 26.8004 45.8381 26.8375C45.974 26.8745 46.1165 26.8817 46.2555 26.8586L47.1589 26.72C47.6569 26.6508 48.1133 26.4069 48.4449 26.0326C48.7765 25.6583 48.9613 25.1785 48.9657 24.6806V9.74521Z" fill="#669BD2"/>
</svg>
