<svg width="32" height="32" viewBox="0 0 32 32" fill="none" xmlns="http://www.w3.org/2000/svg">
<g clip-path="url(#clip0_1194_12985)">
<path d="M16 32C24.8366 32 32 24.8366 32 16C32 7.16344 24.8366 0 16 0C7.16344 0 0 7.16344 0 16C0 24.8366 7.16344 32 16 32Z" fill="#6BB0FF"/>
<path d="M25.1032 11.8771C25.0964 11.7717 25.0625 11.6697 25.0046 11.5807C24.9467 11.4918 24.8668 11.4187 24.7723 11.3686C24.6778 11.3184 24.5719 11.2926 24.4645 11.2938C24.3571 11.295 24.2517 11.323 24.1584 11.3752C23.2807 11.8703 22.438 12.4229 21.6359 13.0295C21.5924 13.0628 21.5407 13.0841 21.4861 13.0913C21.4315 13.0985 21.3758 13.0914 21.3249 13.0706C21.2741 13.0498 21.2297 13.0162 21.1963 12.973C21.163 12.9299 21.1419 12.8788 21.1351 12.825C21.1351 12.4719 21.0406 12.1094 20.9839 11.7563C20.8862 11.1801 20.6015 10.6505 20.1723 10.2468C19.7431 9.84304 19.1925 9.58685 18.603 9.51652C15.9971 9.13544 13.3482 9.13544 10.7423 9.51652C10.1528 9.58685 9.60229 9.84304 9.17311 10.2468C8.74394 10.6505 8.45913 11.1801 8.36141 11.7563C7.87953 14.5679 7.87953 17.4391 8.36141 20.2507C8.45913 20.8269 8.74394 21.3564 9.17311 21.7602C9.60229 22.1639 10.1528 22.4201 10.7423 22.4904C13.3489 22.8621 15.9964 22.8621 18.603 22.4904C19.1925 22.4201 19.7431 22.1639 20.1723 21.7602C20.6015 21.3564 20.8862 20.8269 20.9839 20.2507C21.0406 19.8882 21.0973 19.5351 21.1351 19.1726C21.1419 19.1188 21.163 19.0678 21.1963 19.0246C21.2297 18.9815 21.2741 18.9478 21.3249 18.9271C21.3758 18.9063 21.4315 18.8991 21.4861 18.9063C21.5407 18.9136 21.5924 18.9349 21.6359 18.9681C22.4378 19.5778 23.2805 20.1336 24.1584 20.6317C24.2528 20.6816 24.3585 20.7075 24.4657 20.7069C24.5728 20.7064 24.6782 20.6795 24.7721 20.6287C24.866 20.5779 24.9455 20.5048 25.0033 20.4161C25.0612 20.3273 25.0955 20.2257 25.1032 20.1205C25.2733 17.3753 25.2733 14.6224 25.1032 11.8771ZM17.1763 16.2637C16.0298 17.2802 14.7605 18.1541 13.3971 18.8659C13.3339 18.8993 13.2636 18.9175 13.1919 18.919C13.1201 18.9204 13.0489 18.9051 12.9844 18.8742C12.9198 18.8434 12.8637 18.7979 12.8205 18.7415C12.7773 18.6851 12.7482 18.6195 12.7358 18.5499C12.6224 16.851 12.6224 15.1466 12.7358 13.4477C12.7482 13.3782 12.7773 13.3125 12.8205 13.2561C12.8637 13.1998 12.9198 13.1543 12.9844 13.1234C13.0489 13.0926 13.1201 13.0773 13.1919 13.0787C13.2636 13.0802 13.3339 13.0983 13.3971 13.1318C14.7605 13.8435 16.0298 14.7175 17.1763 15.734C17.212 15.7685 17.2405 15.8098 17.2598 15.8553C17.2792 15.9007 17.2891 15.9495 17.2891 15.9988C17.2891 16.0481 17.2792 16.0969 17.2598 16.1424C17.2405 16.1879 17.212 16.2291 17.1763 16.2637Z" fill="white"/>
</g>
<defs>
<clipPath id="clip0_1194_12985">
<rect width="32" height="32" fill="white"/>
</clipPath>
</defs>
</svg>
