<svg width="41" height="41" viewBox="0 0 41 41" fill="none" xmlns="http://www.w3.org/2000/svg">
<path d="M36.2679 12.9148C36.2556 12.7211 36.1943 12.5336 36.0896 12.37C35.9849 12.2065 35.8404 12.0723 35.6696 11.98C35.4987 11.8878 35.3072 11.8405 35.113 11.8426C34.9188 11.8448 34.7283 11.8963 34.5595 11.9923C32.9725 12.9023 31.4488 13.9182 29.9984 15.0332C29.9198 15.0943 29.8263 15.1335 29.7275 15.1468C29.6288 15.16 29.5282 15.1469 29.4362 15.1087C29.3442 15.0705 29.264 15.0086 29.2037 14.9294C29.1434 14.8501 29.1052 14.7562 29.093 14.6573C29.093 14.0082 28.9221 13.3419 28.8196 12.6927C28.6429 11.6336 28.1281 10.6602 27.3521 9.91801C26.5761 9.17587 25.5805 8.70493 24.5145 8.57566C19.8026 7.87517 15.0132 7.87517 10.3013 8.57566C9.23533 8.70493 8.23995 9.17587 7.46394 9.91801C6.68792 10.6602 6.17294 11.6336 5.99625 12.6927C5.12495 17.861 5.12495 23.1387 5.99625 28.3069C6.17294 29.3661 6.68792 30.3395 7.46394 31.0817C8.23995 31.8238 9.23533 32.2948 10.3013 32.424C15.0144 33.1072 19.8014 33.1072 24.5145 32.424C25.5805 32.2948 26.5761 31.8238 27.3521 31.0817C28.1281 30.3395 28.6429 29.3661 28.8196 28.3069C28.9221 27.6407 29.0246 26.9915 29.093 26.3253C29.1052 26.2264 29.1434 26.1325 29.2037 26.0532C29.264 25.9739 29.3442 25.9121 29.4362 25.8739C29.5282 25.8357 29.6288 25.8226 29.7275 25.8358C29.8263 25.8491 29.9198 25.8883 29.9984 25.9494C31.4484 27.0701 32.9721 28.0917 34.5595 29.0074C34.7303 29.0991 34.9213 29.1466 35.1151 29.1456C35.3089 29.1447 35.4994 29.0952 35.6692 29.0018C35.839 28.9084 35.9827 28.7741 36.0873 28.6109C36.1919 28.4478 36.2539 28.261 36.2679 28.0677C36.5754 23.0215 36.5754 17.9611 36.2679 12.9148ZM21.9349 20.9782C19.8618 22.8467 17.5668 24.4531 15.1016 25.7615C14.9873 25.8229 14.8602 25.8564 14.7304 25.859C14.6006 25.8617 14.472 25.8335 14.3552 25.7768C14.2385 25.7201 14.137 25.6365 14.0589 25.5328C13.9808 25.4292 13.9282 25.3085 13.9058 25.1807C13.7008 22.0578 13.7008 18.9248 13.9058 15.8019C13.9282 15.6741 13.9808 15.5534 14.0589 15.4498C14.137 15.3461 14.2385 15.2625 14.3552 15.2058C14.472 15.1491 14.6006 15.121 14.7304 15.1236C14.8602 15.1263 14.9873 15.1597 15.1016 15.2211C17.5668 16.5295 19.8618 18.1359 21.9349 20.0044C21.9995 20.068 22.0509 20.1438 22.0859 20.2274C22.1209 20.311 22.1389 20.4007 22.1389 20.4913C22.1389 20.5819 22.1209 20.6716 22.0859 20.7552C22.0509 20.8388 21.9995 20.9146 21.9349 20.9782Z" fill="#34BCF6"/>
</svg>
