<svg width="26" height="26" viewBox="0 0 26 26" fill="none" xmlns="http://www.w3.org/2000/svg">
<path d="M13 26C20.1797 26 26 20.1797 26 13C26 5.8203 20.1797 0 13 0C5.8203 0 0 5.8203 0 13C0 20.1797 5.8203 26 13 26Z" fill="#6BB0FF"/>
<path d="M20.3964 9.6502C20.3908 9.56454 20.3633 9.48167 20.3162 9.40939C20.2692 9.3371 20.2043 9.27778 20.1275 9.23699C20.0507 9.19621 19.9647 9.17532 19.8774 9.17627C19.7902 9.17723 19.7045 9.19999 19.6287 9.24243C18.9156 9.64463 18.2309 10.0937 17.5791 10.5865C17.5438 10.6135 17.5018 10.6309 17.4574 10.6367C17.4131 10.6426 17.3679 10.6368 17.3265 10.6199C17.2852 10.603 17.2491 10.5757 17.222 10.5406C17.1949 10.5056 17.1778 10.4641 17.1723 10.4204C17.1723 10.1335 17.0955 9.83897 17.0494 9.55203C16.97 9.08388 16.7387 8.6536 16.39 8.32556C16.0413 7.99752 15.5939 7.78936 15.1149 7.73222C12.9976 7.42259 10.8454 7.42259 8.72813 7.73222C8.24914 7.78936 7.80186 7.99752 7.45316 8.32556C7.10445 8.6536 6.87304 9.08388 6.79364 9.55203C6.40212 11.8365 6.40212 14.1693 6.79364 16.4537C6.87304 16.9219 7.10445 17.3522 7.45316 17.6802C7.80186 18.0082 8.24914 18.2164 8.72813 18.2735C10.846 18.5755 12.9971 18.5755 15.1149 18.2735C15.5939 18.2164 16.0413 18.0082 16.39 17.6802C16.7387 17.3522 16.97 16.9219 17.0494 16.4537C17.0955 16.1592 17.1416 15.8723 17.1723 15.5778C17.1778 15.5341 17.1949 15.4926 17.222 15.4575C17.2491 15.4225 17.2852 15.3952 17.3265 15.3783C17.3679 15.3614 17.4131 15.3556 17.4574 15.3615C17.5018 15.3673 17.5438 15.3846 17.5791 15.4117C18.2307 15.907 18.9154 16.3586 19.6287 16.7633C19.7054 16.8038 19.7913 16.8249 19.8783 16.8244C19.9654 16.824 20.051 16.8022 20.1273 16.7609C20.2036 16.7196 20.2682 16.6602 20.3152 16.5881C20.3622 16.516 20.3901 16.4334 20.3964 16.348C20.5345 14.1175 20.5345 11.8807 20.3964 9.6502ZM13.9558 13.2143C13.0242 14.0402 11.9929 14.7503 10.8852 15.3286C10.8338 15.3557 10.7767 15.3705 10.7184 15.3717C10.6601 15.3729 10.6023 15.3604 10.5498 15.3353C10.4973 15.3103 10.4518 15.2733 10.4166 15.2275C10.3815 15.1817 10.3579 15.1284 10.3479 15.0719C10.2557 13.6915 10.2557 12.3067 10.3479 10.9263C10.3579 10.8698 10.3815 10.8165 10.4166 10.7707C10.4518 10.7249 10.4973 10.6879 10.5498 10.6628C10.6023 10.6378 10.6601 10.6253 10.7184 10.6265C10.7767 10.6277 10.8338 10.6424 10.8852 10.6696C11.9929 11.2479 13.0242 11.958 13.9558 12.7839C13.9848 12.812 14.0079 12.8455 14.0236 12.8824C14.0393 12.9194 14.0474 12.959 14.0474 12.9991C14.0474 13.0391 14.0393 13.0788 14.0236 13.1157C14.0079 13.1527 13.9848 13.1862 13.9558 13.2143Z" fill="white"/>
</svg>
