<svg width="12" height="10" viewBox="0 0 12 10" fill="none" xmlns="http://www.w3.org/2000/svg">
<path d="M11.5776 1.82117C11.573 1.74862 11.55 1.67843 11.5108 1.61721C11.4717 1.55599 11.4176 1.50574 11.3536 1.4712C11.2896 1.43665 11.2179 1.41896 11.1452 1.41977C11.0726 1.42057 11.0012 1.43985 10.938 1.4758C10.3439 1.81646 9.77344 2.19679 9.23047 2.61421C9.20102 2.6371 9.16602 2.65178 9.12906 2.65674C9.09209 2.66171 9.05444 2.65679 9.01999 2.6425C8.98555 2.6282 8.95552 2.60504 8.93294 2.57535C8.91036 2.54567 8.89607 2.51052 8.89149 2.47351C8.89149 2.23048 8.82751 1.98105 8.78913 1.73802C8.72299 1.34151 8.53027 0.977069 8.23975 0.699228C7.94923 0.421388 7.57651 0.245081 7.17744 0.196685C5.41342 -0.0655616 3.62036 -0.0655616 1.85635 0.196685C1.45728 0.245081 1.08463 0.421388 0.794111 0.699228C0.503589 0.977069 0.310794 1.34151 0.244647 1.73802C-0.081549 3.67289 -0.081549 5.64873 0.244647 7.5836C0.310794 7.98011 0.503589 8.34455 0.794111 8.62239C1.08463 8.90023 1.45728 9.07654 1.85635 9.12493C3.62083 9.38069 5.41295 9.38069 7.17744 9.12493C7.57651 9.07654 7.94923 8.90023 8.23975 8.62239C8.53027 8.34455 8.72299 7.98011 8.78913 7.5836C8.82751 7.33417 8.8659 7.09113 8.89149 6.84171C8.89607 6.80469 8.91036 6.76955 8.93294 6.73986C8.95552 6.71018 8.98555 6.68702 9.01999 6.67272C9.05444 6.65842 9.09209 6.6535 9.12906 6.65847C9.16602 6.66344 9.20102 6.67812 9.23047 6.701C9.77331 7.12054 10.3438 7.50302 10.938 7.84582C11.002 7.88015 11.0735 7.89794 11.146 7.89758C11.2186 7.89722 11.2899 7.87871 11.3535 7.84375C11.417 7.80878 11.4708 7.75848 11.51 7.6974C11.5491 7.63633 11.5724 7.56641 11.5776 7.49405C11.6927 5.60484 11.6927 3.71038 11.5776 1.82117ZM6.2117 4.83988C5.43557 5.5394 4.57638 6.14083 3.65346 6.63064C3.61066 6.65364 3.56308 6.66616 3.5145 6.66716C3.46592 6.66815 3.41775 6.65759 3.37405 6.63636C3.33034 6.61513 3.29236 6.58383 3.26311 6.54503C3.23386 6.50624 3.21419 6.46105 3.2058 6.41319C3.12905 5.24406 3.12905 4.07116 3.2058 2.90202C3.21419 2.85416 3.23386 2.80898 3.26311 2.77018C3.29236 2.73138 3.33034 2.70009 3.37405 2.67886C3.41775 2.65763 3.46592 2.64708 3.5145 2.64808C3.56308 2.64907 3.61066 2.66158 3.65346 2.68458C4.57638 3.17439 5.43557 3.77582 6.2117 4.47533C6.23587 4.49914 6.25512 4.52752 6.26822 4.55881C6.28132 4.5901 6.28805 4.62368 6.28805 4.65761C6.28805 4.69153 6.28132 4.72511 6.26822 4.75641C6.25512 4.7877 6.23587 4.81608 6.2117 4.83988Z" fill="black"/>
</svg>
