<svg xmlns="http://www.w3.org/2000/svg" viewBox="0 0 217.78 129.79"><defs><style>.cls-1{fill:#a4eaf7;}.cls-2{fill:#753f1f;}.cls-3{fill:#ea9f67;}.cls-4{fill:#3d2c22;}.cls-5{fill:#b33c67;}.cls-6{fill:#fff;}.cls-7{fill:#ea7467;}.cls-8{fill:#49220f;}.cls-9{fill:#dc6e16;}.cls-10{fill:#e58300;}.cls-11{fill:#f9d1af;}.cls-12{fill:#eb7487;}.cls-13{fill:#f3a98a;}.cls-14{fill:#f5baab;}.cls-15{fill:#e26f04;}</style></defs><g id="Layer_2" data-name="Layer 2"><g id="레이어_1" data-name="레이어 1"><path class="cls-1" d="M153.6,128.27a311.69,311.69,0,0,1-61.54,0c-15.44-1.75-30.85-17.17-32.6-32.6a311.8,311.8,0,0,1,0-61.55c1.75-15.43,17.16-30.85,32.6-32.6a311.69,311.69,0,0,1,61.54,0c15.44,1.75,30.86,17.17,32.61,32.6a313.33,313.33,0,0,1,0,61.55C184.46,111.1,169,126.52,153.6,128.27Z"/><path class="cls-2" d="M216.06,75.26a22,22,0,0,0-1.5-20,22.93,22.93,0,0,0-13.11-9.76C191.29,31,174.42,24.22,160,28.4c-9.51,2.76-19.65,10.77-22.62,22-1.67,6.34-.49,11.55.86,17.57.32,1.4.77,2.78,1.22,4.13a22.53,22.53,0,0,0,1,2.56,4.38,4.38,0,0,0,1.08,1.47A9.5,9.5,0,0,0,145,77.44c4.45,1.29,8.84,2.64,13.38,3.59a124.36,124.36,0,0,0,14,2.09l.29,0c2.11.19,4.44.42,5.89,2a8.43,8.43,0,0,1,1.69,4.47l.56,3.25c.1.6.21,1.21.31,1.81a2.92,2.92,0,0,0,.17.83,6.18,6.18,0,0,0,.62.92,20.12,20.12,0,0,0,1.53,1.92,20.87,20.87,0,0,0,3.63,3.2,4.83,4.83,0,0,0,3,1.09,3.64,3.64,0,0,0,2.54-1.54,10.66,10.66,0,0,0,1.35-2.75,8.42,8.42,0,0,0,5.91,2.28,26.76,26.76,0,0,0,2.73-5.84,10.61,10.61,0,0,1,1.29-3.82,19.2,19.2,0,0,1,1.85-2.28,9,9,0,0,0,.87-1,9.52,9.52,0,0,1,.76-1.15C210.51,83,214.07,79.63,216.06,75.26Z"/><path class="cls-3" d="M137.33,72c-1.71,1.7-5.91,6.36-6.07,12.83-.28,11.25,11.92,18,14.31,19.29,13.41,7.39,27.72,1.82,29.71,1,0,0,20.73-7.86,23.74-31.43.1-.78.25-1.55.31-2.33a29.42,29.42,0,0,0-.25-6.63c-.54-3.48-8.61-26.17-27-27.2-12.58-.71-21.5,9.16-24.57,12.56A41.87,41.87,0,0,0,137.33,72Z"/><path class="cls-4" d="M172.75,81.44c-.61,2.85-2.79,5.56-5.6,5.15-2-.28-3.1-2.94-2.55-5.93s3-5.4,4.91-5.11C172.51,76,173.32,78.77,172.75,81.44Z"/><path class="cls-4" d="M152.15,75.29c-.61,2.85-2.79,5.56-5.6,5.16-2-.29-3.1-2.94-2.55-5.94s2.95-5.39,4.91-5.11C151.91,69.83,152.72,72.62,152.15,75.29Z"/><path class="cls-5" d="M147.44,87.69c.46-.26,1.55,2.56,4.72,4.32,4.65,2.57,9.6.53,9.72,1.08S155.54,97.62,151,94.9C147.68,92.87,146.86,88,147.44,87.69Z"/><circle class="cls-6" cx="166.58" cy="79.13" r="1.02"/><circle class="cls-6" cx="146.52" cy="73.39" r="1.02"/><ellipse class="cls-7" cx="138.48" cy="83.29" rx="4.92" ry="4.3" transform="translate(-1.29 2.19) rotate(-0.9)"/><ellipse class="cls-7" cx="173.03" cy="92.12" rx="4.92" ry="4.3" transform="translate(-1.43 2.73) rotate(-0.9)"/><path class="cls-8" d="M146,85.37A10.8,10.8,0,1,1,156.51,74h0a10.68,10.68,0,0,1-9.86,11.4Zm0-19.58h-.49a8.79,8.79,0,1,0,9,8.28h0A8.68,8.68,0,0,0,146,65.79Z"/><path class="cls-8" d="M169.85,91.12a10.64,10.64,0,0,1-7.19-2.78,11,11,0,0,1,6.55-19.1A10.66,10.66,0,0,1,177,72a10.92,10.92,0,0,1,3.61,7.54h0A10.88,10.88,0,0,1,170.49,91.1C170.27,91.12,170.06,91.12,169.85,91.12Zm0-19.84h-.51A8.92,8.92,0,0,0,164,86.81a8.65,8.65,0,0,0,6.33,2.24,8.83,8.83,0,0,0,8.22-9.39h0a8.92,8.92,0,0,0-2.93-6.13A8.65,8.65,0,0,0,169.84,71.28Z"/><path class="cls-8" d="M160.08,76.32A3,3,0,0,0,158.84,75,3.43,3.43,0,0,0,156,75l-.89-2a5.63,5.63,0,0,1,4.81.1A5.19,5.19,0,0,1,162,75.31Z"/><path class="cls-8" d="M200.34,81.6h0l-20.71-.23a1.1,1.1,0,0,1-1.08-1.1,1.08,1.08,0,0,1,1.1-1.07l20.71.23a1.09,1.09,0,0,1,0,2.17Z"/><path class="cls-3" d="M200.6,92.15c-2.94,2.27-7.4,2.25-11-.18l5.54-10c2.88-1.61,6-2,7.61-.68C205.3,83.38,204.17,89.39,200.6,92.15Z"/><path class="cls-3" d="M156.62,78.34c-.05,0-1.9.53-3.4,1A1.84,1.84,0,0,0,152,81.74l.93,2.4"/><path class="cls-9" d="M153,84.69a.54.54,0,0,1-.53-.35l-.93-2.4A2.38,2.38,0,0,1,151.6,80a2.34,2.34,0,0,1,1.47-1.23c3.39-1,3.44-1,3.52-1a.55.55,0,0,1,.58.51.54.54,0,0,1-.45.56l-3.35,1a1.25,1.25,0,0,0-.8.67,1.28,1.28,0,0,0,0,1l.93,2.4a.54.54,0,0,1-.31.7Z"/><path class="cls-2" d="M135.05,64.62c.83.85,3.58.53,12.4-5.24-5.75,5.72-6.21,7.81-5.68,8.69,1.26,2.07,9.22-.49,18.68-3.6,8.69-2.85,15.56-5.64,19.94-7.52-.9,3.12-2.37,9.92,1.14,14.18,4.68,5.68,17.24,5.89,18.64,6.42a1.08,1.08,0,0,0,.7.11,1.15,1.15,0,0,0,.6-.57c3-5,3.34-8.56,0-13.19-1.86-2.55-2.23-5.67-3.45-8.51-1.42-3.31-4.83-5.11-6.58-8.2-.82-1.45-1.26-3.09-2-4.59a21.07,21.07,0,0,0-7-6.72c-6.74-4-19.49-1.49-29.12,4.44C140.61,48.18,132.85,62.37,135.05,64.62Z"/><path class="cls-10" d="M29.52,65.22a17.67,17.67,0,0,1,1.58,1.19,15.42,15.42,0,0,1,1.42,1.38L32,63.21a5.84,5.84,0,0,1-.08-1.77c.17-1,.23-2,.37-3a39.5,39.5,0,0,1,1.84-7.5,33.91,33.91,0,0,1,8.66-13.45C51.93,28.88,65,26.11,77.18,26.28c4.66.06,27.45,2.2,35.45,18.42a26.68,26.68,0,0,1,2.56,9.08c-.58-.49-1.24-1.18-1.08-1.77.34-1.27,4.41-1.47,7.55-1,3.37.46,4.22,1.44,7.81,2.07a24.44,24.44,0,0,0,6,.31c-.26,7.2-4.79,13.13-10.76,14.6-5.67,1.41-10.43-1.76-11.3-2.36l.66-5.32a27.62,27.62,0,0,1-3.92,13.59c-3.72,6.07-9.37,9.53-15.11,13-1.81,1.09-3.67,2.09-5.57,3A66.64,66.64,0,0,1,78.53,94a96,96,0,0,1-11,2.17,18,18,0,0,1-2.92.32c-3.73,0-5.73-1.7-9.09-3a24.92,24.92,0,0,0-7.66-1.63,20.71,20.71,0,0,1-6.55-4.58,22.56,22.56,0,0,1-5.91-15.06c-4,8.82-13.74,13.27-22.34,10.69A18.81,18.81,0,0,1,0,65.41a21.76,21.76,0,0,0,11.87.49c3.5-.9,4.08-2.15,7.88-2.58A15.33,15.33,0,0,1,29.52,65.22Z"/><path class="cls-11" d="M111.31,73.64c12.24,19.33-10.11,32.1-21.23,33.84-27,4.22-33.45-10.25-33.45-10.25s-4,1.18-6.19-.36c-5.77-4.1-5.57-9.22-3.1-10.44,2.19-1.08,6.39,1.79,6.39,1.79s-.84-1.18-1.19-1.84C51.17,84.49,43.79,74,46.62,60.94c3.1-14.29,16.65-23.24,29.44-24.48,11.63-1.14,25.25,3.85,31.74,15.39C112.1,59.5,111.73,70.23,111.31,73.64Z"/><path class="cls-4" d="M71.2,80.06c.34,2.88,2.25,5.79,5.08,5.65,2-.1,3.36-2.63,3.09-5.66S77,74.41,75,74.51C72,74.66,70.89,77.35,71.2,80.06Z"/><path class="cls-4" d="M92.25,75.9c.34,2.89,2.26,5.79,5.09,5.65,2-.1,3.35-2.63,3.08-5.66S98,70.25,96,70.35C93,70.5,91.94,73.19,92.25,75.9Z"/><path class="cls-12" d="M96.11,89.94a23.23,23.23,0,0,1-8.54,2.37c-4.47.18-10.43-3.2-10.46-3.06-.53,2.41,3,10.35,10.08,10.12C94.55,99.14,97.35,89.33,96.11,89.94Z"/><path class="cls-13" d="M90,86.34a.93.93,0,0,1-.32-1.81A1.77,1.77,0,0,0,90.85,83a1.8,1.8,0,0,0-1.37-1.82.93.93,0,0,1,.5-1.8,3.6,3.6,0,0,1,.28,6.92A1.12,1.12,0,0,1,90,86.34Z"/><circle class="cls-6" cx="78.19" cy="80.9" r="1.02"/><circle class="cls-6" cx="98.67" cy="77.1" r="1.02"/><ellipse class="cls-14" cx="105.08" cy="85.13" rx="4.29" ry="4.91" transform="translate(8.87 180.17) rotate(-83.66)"/><ellipse class="cls-14" cx="69.91" cy="90.64" rx="4.29" ry="4.91" transform="translate(-27.89 150.12) rotate(-83.66)"/><path class="cls-10" d="M97,37.79l13.47,9.66q.8,7.47,1.6,14.94l-16.2,2.77L93.57,63l-.95,2.77-17,2.64-2-2.72-.84,3.2L38.68,73.78,46.9,45.44A38.27,38.27,0,0,1,64.66,33.38C80.93,28.25,94.76,36.41,97,37.79Z"/><path class="cls-15" d="M95.16,39.36c-.72-.74.31-2,1-1.23a22.89,22.89,0,0,1,5.73,8.48c1.06,3.1,1.45,6.71.17,9.79-.4,1-1.85.27-1.46-.69,1.15-2.77.66-6.1-.33-8.84A21.1,21.1,0,0,0,95.16,39.36Z"/><path class="cls-15" d="M65,60.18a13.93,13.93,0,0,0,2.45-6.64,20.05,20.05,0,0,0-1.21-7.85c-.3-1,1.21-1.55,1.52-.55a22,22,0,0,1,1.27,8.7,15.41,15.41,0,0,1-2.8,7.38C65.67,62.07,64.45,61,65,60.18Z"/><path class="cls-15" d="M81.6,57.85A14,14,0,0,0,83.27,51a20.23,20.23,0,0,0-2.1-7.66c-.42-.94,1-1.68,1.44-.72a22,22,0,0,1,2.27,8.5,15.49,15.49,0,0,1-1.94,7.65C82.45,59.66,81.11,58.76,81.6,57.85Z"/><path class="cls-15" d="M36.25,72.37a.85.85,0,0,1-.69-.32c-.52-.61-.17-1,.28-1.52A7.5,7.5,0,0,0,37,68.05c.39-1,.77-2,1.08-3a15.27,15.27,0,0,0,.77-5c0-1,1.57-1.18,1.6-.14a19.79,19.79,0,0,1-1.33,7.22c-.34,1-.81,1.89-1.1,2.87a6.22,6.22,0,0,1-.48,1.59A1.67,1.67,0,0,1,36.25,72.37Z"/><path class="cls-15" d="M45.55,81.25c1-2.54.64-5.3.49-8a21.19,21.19,0,0,1,.82-7.47c1.44-4.7,4.25-9.13,4.46-14.15,0-1,1.66-1.17,1.61-.13-.23,5.23-3,9.68-4.48,14.58A21.69,21.69,0,0,0,47.7,74c.17,2.69.31,5.37-.69,7.92C46.63,82.91,45.18,82.21,45.55,81.25Z"/></g></g></svg>