<svg width="41" height="41" viewBox="0 0 41 41" fill="none" xmlns="http://www.w3.org/2000/svg">
<path d="M36.2676 12.9148C36.2554 12.7211 36.194 12.5336 36.0893 12.37C35.9846 12.2065 35.8402 12.0723 35.6693 11.98C35.4985 11.8878 35.3069 11.8405 35.1127 11.8426C34.9186 11.8448 34.7281 11.8963 34.5593 11.9923C32.9722 12.9023 31.4485 13.9182 29.9982 15.0332C29.9195 15.0943 29.826 15.1335 29.7273 15.1468C29.6286 15.16 29.528 15.1469 29.436 15.1087C29.344 15.0705 29.2638 15.0086 29.2034 14.9294C29.1431 14.8501 29.105 14.7562 29.0927 14.6573C29.0927 14.0082 28.9218 13.3419 28.8193 12.6927C28.6426 11.6336 28.1279 10.6602 27.3518 9.91801C26.5758 9.17587 25.5802 8.70493 24.5143 8.57566C19.8024 7.87517 15.0129 7.87517 10.301 8.57566C9.23508 8.70493 8.23971 9.17587 7.46369 9.91801C6.68767 10.6602 6.1727 11.6336 5.99601 12.6927C5.1247 17.861 5.1247 23.1387 5.99601 28.3069C6.1727 29.3661 6.68767 30.3395 7.46369 31.0817C8.23971 31.8238 9.23508 32.2948 10.301 32.424C15.0142 33.1072 19.8011 33.1072 24.5143 32.424C25.5802 32.2948 26.5758 31.8238 27.3518 31.0817C28.1279 30.3395 28.6426 29.3661 28.8193 28.3069C28.9218 27.6407 29.0244 26.9915 29.0927 26.3253C29.105 26.2264 29.1431 26.1325 29.2034 26.0532C29.2638 25.9739 29.344 25.9121 29.436 25.8739C29.528 25.8357 29.6286 25.8226 29.7273 25.8358C29.826 25.8491 29.9195 25.8883 29.9982 25.9494C31.4482 27.0701 32.9719 28.0917 34.5593 29.0074C34.73 29.0991 34.921 29.1466 35.1148 29.1456C35.3086 29.1447 35.4991 29.0952 35.6689 29.0018C35.8387 28.9084 35.9824 28.7741 36.087 28.6109C36.1916 28.4478 36.2536 28.261 36.2676 28.0677C36.5752 23.0215 36.5752 17.9611 36.2676 12.9148ZM21.9347 20.9782C19.8616 22.8467 17.5666 24.4531 15.1014 25.7615C14.987 25.8229 14.8599 25.8564 14.7302 25.859C14.6004 25.8617 14.4717 25.8335 14.355 25.7768C14.2383 25.7201 14.1368 25.6365 14.0587 25.5328C13.9805 25.4292 13.928 25.3085 13.9056 25.1807C13.7006 22.0578 13.7006 18.9248 13.9056 15.8019C13.928 15.6741 13.9805 15.5534 14.0587 15.4498C14.1368 15.3461 14.2383 15.2625 14.355 15.2058C14.4717 15.1491 14.6004 15.121 14.7302 15.1236C14.8599 15.1263 14.987 15.1597 15.1014 15.2211C17.5666 16.5295 19.8616 18.1359 21.9347 20.0044C21.9992 20.068 22.0507 20.1438 22.0857 20.2274C22.1207 20.311 22.1386 20.4007 22.1386 20.4913C22.1386 20.5819 22.1207 20.6716 22.0857 20.7552C22.0507 20.8388 21.9992 20.9146 21.9347 20.9782Z" fill="#ABABAB"/>
</svg>
