<svg width="120" height="113" viewBox="0 0 120 113" fill="none" xmlns="http://www.w3.org/2000/svg">
<path d="M68.5429 105.253C71.0007 106.843 73.8923 108.144 76.7838 108.867C79.6754 109.59 82.8561 109.446 85.7477 108.434L88.9284 106.699C90.5188 105.687 91.9645 104.385 92.9766 102.65C93.9886 101.06 94.7115 99.1806 95.0007 97.3011C96.5911 84.289 83.4344 71.8553 82.1332 70.8433H16.7838C15.4826 71.8553 2.32598 84.289 3.91634 97.3011C4.2055 99.1806 4.78382 101.06 5.94044 102.65C6.95249 104.241 8.39828 105.687 9.98864 106.699L13.1694 108.434C16.0609 109.446 19.0971 109.59 22.1332 108.867C25.0248 108.144 27.7718 106.843 30.3742 105.253H68.5429Z" fill="white"/>
<path d="M88.7833 107.855C88.3496 107.855 87.9158 107.711 87.7712 107.277C87.4821 106.699 87.6267 105.976 88.205 105.542C89.6508 104.675 90.952 103.374 91.964 101.928C92.9761 100.482 93.5544 98.747 93.699 97.0121C95.0002 85.735 84.1568 74.1687 81.5544 72H17.217C14.6146 74.1687 3.77125 85.735 5.07246 97.0121C5.36161 98.747 5.93992 100.337 6.80739 101.928C7.81944 103.374 8.97606 104.675 10.5664 105.542C11.1447 105.831 11.2893 106.699 11.0002 107.277C10.711 107.855 9.84354 108 9.26523 107.711C7.53029 106.554 5.93992 105.108 4.78329 103.374C3.62667 101.639 2.90377 99.6145 2.61462 97.4458C1.16883 84.4338 13.6026 71.7109 16.0604 69.9759C16.205 69.8313 16.4941 69.6868 16.7833 69.6868H81.9881C82.2773 69.6868 82.5664 69.8313 82.711 69.9759C85.0243 71.7109 97.6026 84.4338 96.1568 97.4458C95.8676 99.4699 95.1447 101.639 93.9881 103.374C92.8315 105.108 91.2411 106.699 89.5062 107.711C89.217 107.855 88.9279 107.855 88.7833 107.855Z" fill="#88B3E0"/>
<path d="M89.3633 52.3373C89.2187 50.4578 89.2187 48.5783 89.3633 46.8433C89.5079 44.8192 89.3633 42.7951 89.2187 40.771C88.2067 26.8915 81.8452 18.2168 74.1826 12.5783C68.8332 8.3855 62.4717 5.78309 55.6766 5.0602C55.6766 5.0602 53.797 4.77104 53.0741 4.77104L51.7729 4.62646H50.4717C38.7609 4.04815 32.6886 7.22887 28.3513 9.83128C20.1103 14.4578 12.8814 22.4096 10.279 36.1445C9.84523 38.1686 9.70066 40.1927 9.4115 42.2168C9.26692 44.0963 9.12234 45.9759 8.83318 47.7108C8.11029 51.3253 8.11029 54.9397 8.83318 58.5542C11.291 71.2771 27.05 76.6265 38.7609 78.7951C41.6525 79.3735 44.3995 79.6626 47.291 79.8072C50.038 79.9518 52.6404 79.9518 55.3874 79.8072C67.2428 79.0843 84.3031 75.6144 88.2067 63.0361C89.2187 59.7108 89.6525 56.0963 89.3633 52.3373Z" fill="white"/>
<path d="M80.3995 73.012C84.0139 70.6988 86.7609 67.2289 88.2067 63.1807C89.2187 59.7108 89.6525 56.0963 89.5079 52.4819C89.3633 50.6024 89.3633 48.7229 89.5079 46.8433C89.6525 44.8192 89.5079 42.7951 89.3633 40.771C88.2067 26.8915 81.8452 18.2168 74.3272 12.5783C68.9778 8.3855 62.6163 5.78309 55.8211 5.0602C55.8211 5.0602 53.9416 4.77104 53.2187 4.77104L51.9175 4.62646H50.6163C38.7609 4.04815 32.6886 7.22887 28.3513 9.83128C20.1103 14.4578 12.8814 22.4096 10.279 36.1445C9.84523 38.1686 9.70066 40.1927 9.4115 42.2168C9.26692 44.0963 9.12234 45.9759 8.83318 47.7108C8.11029 51.3253 8.11029 54.9397 8.83318 58.5542C9.84523 64.0482 13.4597 68.2409 18.2308 71.2771" fill="white"/>
<path d="M80.3959 74.0238C80.2513 74.0238 80.1068 74.0238 79.9622 73.8792C79.8176 73.7347 79.673 73.7347 79.5285 73.5901C79.3839 73.3009 79.3839 73.1564 79.3839 72.8672C79.3839 72.578 79.5285 72.4335 79.8176 72.1443C83.2875 69.9756 85.8899 66.6503 87.1911 62.7467C88.2031 59.4214 88.6369 55.807 88.3477 52.3371C88.2032 50.313 88.2032 48.2889 88.3477 46.6985C88.3477 44.6744 88.3477 42.6503 88.2032 40.6262C87.3357 28.7708 82.5646 19.807 73.6007 13.1564C68.3959 9.10816 62.1791 6.50575 55.5285 5.92744C55.5285 5.92744 53.6489 5.78286 52.926 5.63828L51.6248 5.4937H50.4682C39.3357 5.05997 33.5525 7.80695 28.6369 10.6985C19.0947 16.1925 13.4562 24.578 11.2875 36.4335C10.8538 38.4576 10.7092 40.3371 10.5646 42.3612C10.42 43.9515 10.2754 45.9756 9.8417 47.9997C9.26339 51.4696 9.26339 54.9395 9.8417 58.4094C10.7092 63.1805 13.7453 67.2286 18.8056 70.5539C18.9501 70.5539 19.0947 70.6985 19.0947 70.8431C19.2393 70.9877 19.2393 71.1323 19.2393 71.2768C19.2393 71.4214 19.2393 71.566 19.2393 71.7106C19.2393 71.8551 19.0947 71.9997 19.0947 72.1443C18.9501 72.2889 18.9501 72.4335 18.8056 72.4335C18.661 72.578 18.5164 72.578 18.3718 72.578C18.2272 72.578 18.0827 72.578 17.9381 72.578C17.7935 72.578 17.6489 72.4335 17.5044 72.4335C12.0104 68.819 8.68508 64.3371 7.67303 58.9877C6.95014 55.2286 6.95014 51.4696 7.67303 47.7106C7.96218 45.8311 8.10677 43.807 8.25134 42.2166C8.39592 40.0479 8.68508 38.0238 9.11881 35.9997C11.4321 23.7106 17.6489 14.6021 27.4803 8.819C31.3839 6.65033 37.7453 2.89129 50.3236 3.32503H51.6248L52.926 3.4696C53.7935 3.4696 55.673 3.75876 55.673 3.75876C62.6128 4.48165 69.2634 7.08406 74.7574 11.4214C84.0104 18.3612 89.2152 28.1925 90.0827 40.4817C90.2272 42.5057 90.2273 44.6744 90.2273 46.6985C90.2273 48.2889 90.0827 50.1684 90.2273 52.1925C90.5164 55.9515 90.0827 59.7106 88.926 63.325C87.4803 67.6624 84.5887 71.2768 80.8297 73.7347C80.8297 74.0238 80.6851 74.1684 80.3959 74.0238Z" fill="#88B3E0"/>
<path d="M17.7949 3.18053C10.1323 5.34921 4.92748 12.4335 4.20459 21.2528C3.77085 24.289 4.20458 27.4697 5.21663 30.5058C6.22868 33.542 7.81905 36.289 9.98772 38.6022L14.3251 39.6143L37.8913 10.1203L36.301 6.21668C30.9516 2.89137 23.8672 1.44559 17.7949 3.18053Z" fill="white"/>
<path d="M9.9886 39.6143C9.84402 39.6143 9.69943 39.6143 9.55486 39.4697C9.41028 39.4697 9.2657 39.3251 9.2657 39.1805C7.09703 36.7227 5.36209 33.8311 4.35004 30.6504C3.33799 27.4697 2.90425 24.1444 3.19341 20.9637C4.06088 11.5661 9.55485 4.19258 17.6512 2.0239C20.9765 1.30101 24.3018 1.15643 27.6271 1.59017C30.9524 2.16848 34.1332 3.32511 37.0247 5.06005C37.3139 5.20463 37.4585 5.49378 37.4585 5.63836C37.4585 5.92752 37.4585 6.21667 37.3139 6.50583C37.3139 6.65041 37.1693 6.79499 37.0247 6.79499C36.7356 7.08414 36.7356 7.22872 36.591 7.22872C36.4464 7.22872 36.3018 7.22872 36.1573 7.22872C36.0127 7.22872 35.8681 7.22872 35.7235 7.08414C30.2296 3.75884 23.4344 2.60222 17.9404 4.19258C10.8561 6.21667 5.79582 12.7227 5.07293 21.2528C4.78377 24.289 5.2175 27.3251 6.08497 30.0721C7.09702 32.9637 8.5428 35.5661 10.5669 37.7347C10.7115 37.8793 10.8561 38.1685 10.8561 38.4576C10.8561 38.7468 10.7115 39.036 10.5669 39.1805C10.4223 39.6143 10.2778 39.6143 9.9886 39.6143Z" fill="#88B3E0"/>
<path d="M15.0467 28.1926C14.9022 28.4817 14.7576 28.6263 14.4684 28.7709C14.1793 28.9154 14.0347 28.9154 13.7455 28.9154C13.4564 28.9154 13.1672 28.9154 13.0226 28.7709C12.7335 28.6263 12.5889 28.4817 12.4443 28.1926C11.1431 25.7347 10.7094 22.9877 11.1431 20.2407C11.5769 17.4938 12.8781 15.0359 14.7576 13.0118C16.4925 11.4215 18.6612 10.2648 21.119 9.83111C23.4323 9.39737 25.8901 9.68653 28.2034 10.554C28.4925 10.6986 28.6371 10.8432 28.7817 10.9877C28.9263 11.1323 29.0708 11.4215 29.0708 11.7106C29.0708 11.9998 29.0708 12.2889 28.9263 12.4335C28.7817 12.8673 28.4925 13.0118 28.3479 13.1564C22.4202 16.7709 17.7937 21.9757 15.0467 28.1926Z" fill="#F4B2C4"/>
<path d="M85.7471 6.93955C93.1206 9.97569 97.4579 17.4938 97.3133 26.4576C97.1687 29.6383 96.4459 32.6745 95.1446 35.5661C93.8434 38.4576 91.9639 40.9155 89.5061 43.0841L85.0242 43.5179L64.7832 11.5661L66.8073 7.80702C72.5904 5.34919 79.8193 4.6263 85.7471 6.93955Z" fill="white"/>
<path d="M89.5066 44.0962C89.3621 44.0962 89.2175 44.0962 89.0729 43.9516C88.9283 43.9516 88.7838 43.8071 88.7838 43.6625C88.6392 43.5179 88.6392 43.3733 88.6392 43.3733C88.6392 43.2287 88.6392 43.0842 88.6392 42.9396C88.6392 42.795 88.6392 42.6504 88.7838 42.5059C88.7838 42.3613 88.9283 42.2167 89.0729 42.2167C91.3862 40.1926 93.1211 37.7348 94.4223 34.9878C95.7235 32.2408 96.4464 29.3492 96.4464 26.3131C96.591 17.783 92.3982 10.6986 85.603 7.80706C80.3982 5.63839 73.4584 6.07212 67.6753 8.67453C67.3862 8.81911 67.097 8.81911 66.8078 8.67453C66.5187 8.52995 66.3741 8.38537 66.2295 8.09622C66.0849 7.80706 66.0849 7.51791 66.2295 7.22875C66.3741 6.93959 66.5187 6.79501 66.8078 6.65044C69.844 5.20465 73.1693 4.33718 76.4946 4.1926C79.8199 4.04803 83.2898 4.48176 86.4705 5.63839C94.2777 8.81911 98.9042 16.6263 98.6151 26.0239C98.4705 29.3492 97.7476 32.53 96.3018 35.5661C94.856 38.6022 92.9765 41.2047 90.5187 43.3733C89.9404 43.9516 89.6512 44.0962 89.5066 44.0962Z" fill="#88B3E0"/>
<path d="M85.7461 32.0962C85.8907 32.3853 86.0353 32.5299 86.1799 32.8191C86.3245 32.9637 86.6136 33.1082 86.9028 33.1082C87.1919 33.1082 87.4811 33.1082 87.6257 32.9637C87.9148 32.8191 88.0594 32.6745 88.204 32.5299C89.7943 30.2167 90.5172 27.4697 90.3726 24.7227C90.2281 21.9757 89.216 19.3733 87.6257 17.2046C86.0353 15.3251 84.0112 14.0239 81.6979 13.301C79.3847 12.5781 76.9269 12.5781 74.6136 13.1564C74.3244 13.1564 74.1799 13.301 73.8907 13.5902C73.7461 13.7347 73.6016 14.0239 73.6016 14.3131C73.6016 14.6022 73.6016 14.8914 73.6016 15.0359C73.7461 15.3251 73.8907 15.4697 74.0353 15.6143C79.5293 19.9516 83.5775 25.5902 85.7461 32.0962Z" fill="#F4B2C4"/>
<path d="M18.8099 110.602C15.3401 110.602 12.1593 109.735 9.7015 108C9.12319 107.566 8.97862 106.843 9.41235 106.265C9.84609 105.686 10.569 105.542 11.1473 105.976C13.8943 108 18.0871 108.723 22.2798 107.855C26.1834 106.988 29.3642 104.964 31.0991 101.927C32.5449 99.4696 33.5569 96.7226 34.1352 93.9756C34.1352 93.6865 34.4244 93.3973 34.7136 93.2528C37.7497 91.3732 39.6292 88.3371 39.6292 85.1564C39.6292 83.2769 39.0509 80.6744 36.1593 78.6503C26.1834 71.7106 16.7858 83.4214 15.0509 85.8793C14.6172 86.4576 13.8943 86.6022 13.316 86.1684C12.7376 85.7347 12.5931 85.0118 13.0268 84.4335C18.5208 76.9154 28.3521 70.2648 37.4605 76.6263C40.4967 78.7949 42.087 81.8311 41.9425 85.301C41.7979 89.06 39.6292 92.819 36.3039 95.1323C35.7256 98.0238 34.569 100.771 33.1232 103.373C31.0991 106.988 27.3401 109.446 22.7136 110.458C21.4123 110.458 20.1111 110.602 18.8099 110.602Z" fill="#88B3E0"/>
<path d="M80.3955 110.313C79.0943 110.313 77.7931 110.169 76.4919 109.879C71.8654 108.867 68.1063 106.41 66.0822 102.795C64.6365 100.193 63.4798 97.4457 62.9015 94.5541C59.4316 92.2409 57.263 88.4818 57.263 84.7228C57.1184 81.2529 58.7087 78.2168 61.7449 76.0481C70.8533 69.6866 80.6846 76.1927 86.1786 83.8553C86.6124 84.4336 86.4678 85.1565 85.8895 85.5902C85.3112 86.024 84.5883 85.8794 84.1545 85.3011C82.4196 82.8433 73.022 71.1324 63.0461 78.0722C60.7328 79.6625 59.4316 81.9758 59.5762 84.7228C59.7208 87.9035 61.6003 90.9396 64.4919 92.8192C64.781 92.9637 64.9256 93.2529 65.0702 93.5421C65.6485 96.289 66.6606 99.036 68.1063 101.494C69.8413 104.53 73.022 106.554 76.9256 107.422C80.9738 108.289 85.3112 107.566 88.0581 105.542C88.6365 105.108 89.3593 105.253 89.7931 105.831C90.2268 106.41 90.0822 107.132 89.5039 107.566C87.0461 109.446 83.8654 110.313 80.3955 110.313Z" fill="#88B3E0"/>
<path d="M58.8555 49.1565C58.8555 50.6023 59.1446 51.9035 59.8675 53.2047C60.5904 54.3613 61.6025 55.3734 62.9037 55.9517C64.2049 56.53 65.6506 56.8191 66.9519 56.53C68.3976 56.3854 69.6988 55.6625 70.7109 54.795C71.7229 53.783 72.4458 52.6264 72.8796 51.1806C73.1687 49.8794 73.1687 48.4336 72.735 46.9878C72.3012 45.6866 71.4338 44.53 70.2772 43.6625C69.1205 42.795 67.8193 42.3613 66.3735 42.2167C64.494 42.0722 62.6145 42.795 61.1687 44.0962C59.7229 45.542 58.8555 47.277 58.8555 49.1565Z" fill="#2E91D0"/>
<path d="M61.6035 47.8553C61.6035 48.2891 61.7481 48.5782 61.8927 48.8674C62.0372 49.1566 62.3264 49.4457 62.7601 49.5903C63.0493 49.7349 63.483 49.7349 63.7722 49.7349C64.2059 49.7349 64.4951 49.5903 64.7842 49.3011C65.0734 49.012 65.218 48.7228 65.3625 48.4337C65.5071 48.1445 65.5071 47.7108 65.3625 47.277C65.218 46.9879 65.0734 46.5541 64.7842 46.4096C64.4951 46.1204 64.0613 46.1204 63.7722 45.9758C63.483 45.9758 63.3385 45.9758 63.0493 46.1204C62.7601 46.265 62.6156 46.265 62.471 46.5541C62.3264 46.6987 62.1818 46.9879 62.0373 47.1325C61.7481 47.4216 61.6035 47.5662 61.6035 47.8553Z" fill="white"/>
<path d="M25.168 47.1323C25.168 48.5781 25.4571 49.8793 26.18 51.1805C26.9029 52.3372 27.915 53.3492 29.2162 53.9275C30.5174 54.5058 31.9631 54.795 33.2644 54.5058C34.7101 54.3613 36.0113 53.6384 37.0234 52.7709C38.0354 51.7588 38.7583 50.6022 39.1921 49.301C39.4812 47.9998 39.4812 46.554 39.0475 45.1082C38.6137 43.807 37.7463 42.6504 36.5896 41.7829C35.433 40.9155 34.1318 40.4817 32.686 40.3372C31.674 40.3372 30.8065 40.4817 29.939 40.7709C29.0716 41.0601 28.2041 41.6384 27.4812 42.2167C26.7583 42.795 26.18 43.6625 25.7463 44.5299C25.4571 45.2528 25.3125 46.1203 25.168 47.1323Z" fill="#2E91D0"/>
<path d="M32.832 45.5421C32.832 45.9758 32.9766 46.265 33.1212 46.5541C33.2658 46.8433 33.5549 47.1324 33.9887 47.277C34.2778 47.4216 34.7115 47.4216 35.0007 47.4216C35.4344 47.4216 35.7236 47.277 36.0128 46.9879C36.3019 46.6987 36.4465 46.4095 36.5911 46.1204C36.7356 45.8312 36.7356 45.3975 36.5911 45.1083C36.4465 44.8192 36.3019 44.3854 36.0128 44.2409C35.7236 43.9517 35.4344 43.9517 35.0007 43.8071C34.567 43.8071 33.9887 43.9517 33.6995 44.2409C33.1212 44.53 32.9766 44.9638 32.832 45.5421Z" fill="white"/>
<path d="M49.0246 50.8912C45.4101 50.602 44.5426 51.3249 44.3981 52.3369C44.2535 54.361 47.0005 56.5297 48.5908 56.5297C50.1812 56.6743 53.2173 54.7948 53.3619 52.7707C53.3619 51.9032 52.639 51.1803 49.0246 50.8912Z" fill="#F4B2C4"/>
<path d="M117.843 55.6625L105.843 52.0481L104.831 41.0601C104.831 40.9155 104.686 40.6264 104.541 40.4818C104.397 40.3372 104.252 40.1926 104.108 40.1926C103.963 40.1926 103.674 40.1926 103.529 40.1926C103.385 40.1926 103.096 40.3372 102.951 40.4818L94.1318 49.7348C93.9873 49.8794 93.9873 50.024 93.8427 50.1685C93.8427 50.3131 93.8427 50.4577 93.8427 50.6023C93.8427 50.7468 97.0234 62.1685 91.2403 69.6866C91.0957 69.8312 91.0957 69.9758 91.0957 70.2649C91.0957 70.4095 91.0957 70.6987 91.2403 70.8432L98.6138 80.8191C98.7584 80.9637 98.9029 81.1083 99.0475 81.1083C99.1921 81.2529 99.3367 81.2529 99.4812 81.2529H99.6258C99.7704 81.2529 100.06 81.1083 100.204 80.9637C100.349 80.8191 100.493 80.6746 100.493 80.53L102.662 73.4456L114.084 72.4336C114.228 72.4336 114.517 72.289 114.662 72.289C114.807 72.1444 114.951 71.9999 114.951 71.8553C115.096 71.7107 115.096 71.5661 115.096 71.4215C115.096 71.277 114.951 71.1324 114.951 70.9878L108.301 63.1806L117.987 57.6866C118.132 57.542 118.276 57.3974 118.421 57.2529C118.566 57.1083 118.566 56.9637 118.566 56.6746C118.566 56.53 118.421 56.2408 118.421 56.0962C118.276 55.8071 118.132 55.6625 117.843 55.6625Z" fill="#FFE608"/>
<path d="M49.1657 70.5541C51.9127 70.5541 54.226 68.2408 54.226 65.4938C54.226 62.7468 51.9127 60.4336 49.1657 60.4336C46.4187 60.4336 44.1055 62.7468 44.1055 65.4938C44.1055 68.2408 46.2741 70.5541 49.1657 70.5541Z" fill="#F4B2C4"/>
<path d="M49.1659 71.277C45.9852 71.277 43.3828 68.6745 43.3828 65.4938C43.3828 62.3131 45.9852 59.7107 49.1659 59.7107C52.3467 59.7107 54.9491 62.3131 54.9491 65.4938C54.9491 68.6745 52.3467 71.277 49.1659 71.277ZM49.1659 61.1565C46.7081 61.1565 44.8286 63.036 44.8286 65.4938C44.8286 67.9517 46.7081 69.8312 49.1659 69.8312C51.6238 69.8312 53.5033 67.9517 53.5033 65.4938C53.5033 63.036 51.4792 61.1565 49.1659 61.1565Z" fill="#88B3E0"/>
</svg>
