<svg width="82" height="78" viewBox="0 0 82 78" fill="none" xmlns="http://www.w3.org/2000/svg">
<path d="M46.6808 72.8689C48.3808 73.9689 50.3808 74.8689 52.3808 75.3689C54.3808 75.8689 56.5808 75.7688 58.5808 75.0688L60.7808 73.8689C61.8808 73.1689 62.8808 72.2688 63.5808 71.0688C64.2808 69.9688 64.7808 68.6689 64.9808 67.3689C66.0808 58.3689 56.9808 49.7688 56.0808 49.0688H10.8808C9.98076 49.7688 0.880761 58.3689 1.98076 67.3689C2.18076 68.6689 2.58076 69.9688 3.38076 71.0688C4.08076 72.1688 5.08077 73.1689 6.18077 73.8689L8.38076 75.0688C10.3808 75.7688 12.4808 75.8689 14.5808 75.3689C16.5808 74.8689 18.4808 73.9689 20.2808 72.8689H46.6808Z" fill="white"/>
<path d="M60.6806 74.6688C60.3806 74.6688 60.0806 74.5688 59.9806 74.2688C59.7806 73.8688 59.8806 73.3688 60.2806 73.0688C61.2806 72.4688 62.1806 71.5688 62.8806 70.5688C63.5806 69.5688 63.9806 68.3688 64.0806 67.1688C64.9806 59.3688 57.4806 51.3688 55.6806 49.8688H11.1806C9.38063 51.3688 1.88063 59.3688 2.78063 67.1688C2.98063 68.3688 3.38063 69.4688 3.98063 70.5688C4.68063 71.5688 5.48063 72.4688 6.58063 73.0688C6.98063 73.2688 7.08063 73.8688 6.88063 74.2688C6.68063 74.6688 6.08063 74.7688 5.68063 74.5688C4.48063 73.7688 3.38063 72.7688 2.58063 71.5688C1.78063 70.3688 1.28063 68.9688 1.08063 67.4688C0.0806284 58.4688 8.68063 49.6688 10.3806 48.4688C10.4806 48.3688 10.6806 48.2688 10.8806 48.2688H55.9806C56.1806 48.2688 56.3806 48.3688 56.4806 48.4688C58.0806 49.6688 66.7806 58.4688 65.7806 67.4688C65.5806 68.8688 65.0806 70.3688 64.2806 71.5688C63.4806 72.7688 62.3806 73.8688 61.1806 74.5688C60.9806 74.6688 60.7806 74.6688 60.6806 74.6688Z" fill="#88B3E0"/>
<path d="M61.0809 36.2688C60.9809 34.9688 60.9809 33.6688 61.0809 32.4688C61.1809 31.0688 61.0809 29.6688 60.9809 28.2688C60.2809 18.6688 55.8809 12.6688 50.5809 8.76881C46.8809 5.86881 42.4809 4.06881 37.7809 3.56881C37.7809 3.56881 36.4809 3.36881 35.9809 3.36881L35.0809 3.26881H34.1809C26.0809 2.86881 21.8809 5.06881 18.8809 6.86881C13.1809 10.0688 8.18086 15.5688 6.38086 25.0688C6.08086 26.4688 5.98086 27.8688 5.78086 29.2688C5.68086 30.5688 5.58086 31.8688 5.38086 33.0688C4.88086 35.5688 4.88086 38.0688 5.38086 40.5688C7.08086 49.3688 17.9809 53.0688 26.0809 54.5688C28.0809 54.9688 29.9809 55.1688 31.9809 55.2688C33.8809 55.3688 35.6809 55.3688 37.5809 55.2688C45.7809 54.7688 57.5809 52.3688 60.2809 43.6688C60.9809 41.3688 61.2809 38.8688 61.0809 36.2688Z" fill="white"/>
<path d="M54.8809 50.5688C57.3809 48.9688 59.2809 46.5688 60.2809 43.7688C60.9809 41.3688 61.2809 38.8688 61.1809 36.3688C61.0809 35.0688 61.0809 33.7688 61.1809 32.4688C61.2809 31.0688 61.1809 29.6688 61.0809 28.2688C60.2809 18.6688 55.8809 12.6688 50.6809 8.76881C46.9809 5.86881 42.5809 4.06881 37.8809 3.56881C37.8809 3.56881 36.5809 3.36881 36.0809 3.36881L35.1809 3.26881H34.2809C26.0809 2.86881 21.8809 5.06881 18.8809 6.86881C13.1809 10.0688 8.18086 15.5688 6.38086 25.0688C6.08086 26.4688 5.98086 27.8688 5.78086 29.2688C5.68086 30.5688 5.58086 31.8688 5.38086 33.0688C4.88086 35.5688 4.88086 38.0688 5.38086 40.5688C6.08086 44.3688 8.58086 47.2688 11.8809 49.3688" fill="white"/>
<path d="M54.8811 51.2688C54.7811 51.2688 54.6811 51.2688 54.5811 51.1688C54.4811 51.0688 54.3811 51.0688 54.2811 50.9688C54.1811 50.7688 54.1811 50.6688 54.1811 50.4688C54.1811 50.2688 54.2811 50.1688 54.4811 49.9688C56.8811 48.4688 58.6811 46.1688 59.5811 43.4688C60.2811 41.1688 60.5811 38.6688 60.3811 36.2688C60.2811 34.8688 60.2811 33.4688 60.3811 32.3688C60.3811 30.9688 60.3811 29.5688 60.2811 28.1688C59.6811 19.9688 56.3811 13.7688 50.1811 9.16883C46.5811 6.36883 42.2811 4.56883 37.6811 4.16883C37.6811 4.16883 36.3811 4.06883 35.8811 3.96883L34.9811 3.86883H34.1811C26.4811 3.56883 22.4811 5.46883 19.0811 7.46883C12.4811 11.2688 8.58105 17.0688 7.08105 25.2688C6.78105 26.6688 6.68105 27.9688 6.58105 29.3688C6.48105 30.4688 6.38105 31.8688 6.08105 33.2688C5.68105 35.6688 5.68105 38.0688 6.08105 40.4688C6.68105 43.7688 8.78106 46.5688 12.2811 48.8688C12.3811 48.8688 12.4811 48.9688 12.4811 49.0688C12.5811 49.1688 12.5811 49.2688 12.5811 49.3688C12.5811 49.4688 12.5811 49.5688 12.5811 49.6688C12.5811 49.7688 12.4811 49.8688 12.4811 49.9688C12.3811 50.0688 12.3811 50.1688 12.2811 50.1688C12.1811 50.2688 12.0811 50.2688 11.9811 50.2688C11.8811 50.2688 11.7811 50.2688 11.6811 50.2688C11.5811 50.2688 11.4811 50.1688 11.3811 50.1688C7.58106 47.6688 5.28105 44.5688 4.58105 40.8688C4.08105 38.2688 4.08105 35.6688 4.58105 33.0688C4.78105 31.7688 4.88106 30.3688 4.98106 29.2688C5.08106 27.7688 5.28105 26.3688 5.58105 24.9688C7.18105 16.4688 11.4811 10.1688 18.2811 6.16883C20.9811 4.66883 25.3811 2.06883 34.0811 2.36883H34.9811L35.8811 2.46883C36.4811 2.46883 37.7811 2.66883 37.7811 2.66883C42.5811 3.16883 47.1811 4.96883 50.9811 7.96883C57.3811 12.7688 60.9811 19.5688 61.5811 28.0688C61.6811 29.4688 61.6811 30.9688 61.6811 32.3688C61.6811 33.4688 61.5811 34.7688 61.6811 36.1688C61.8811 38.7688 61.5811 41.3688 60.7811 43.8688C59.7811 46.8688 57.7811 49.3688 55.1811 51.0688C55.1811 51.2688 55.0811 51.3688 54.8811 51.2688Z" fill="#88B3E0"/>
<path d="M11.5803 2.2687C6.28029 3.7687 2.68029 8.6687 2.18029 14.7687C1.88029 16.8687 2.18029 19.0687 2.88029 21.1687C3.58029 23.2687 4.68029 25.1687 6.18029 26.7687L9.18029 27.4687L25.4803 7.0687L24.3803 4.3687C20.6803 2.0687 15.7803 1.0687 11.5803 2.2687Z" fill="white"/>
<path d="M6.18075 27.4688C6.08075 27.4688 5.98075 27.4687 5.88075 27.3687C5.78075 27.3687 5.68075 27.2688 5.68075 27.1688C4.18075 25.4688 2.98075 23.4688 2.28075 21.2688C1.58075 19.0688 1.28075 16.7688 1.48075 14.5688C2.08075 8.06875 5.88075 2.96875 11.4807 1.46875C13.7807 0.96875 16.0807 0.86875 18.3807 1.16875C20.6807 1.56875 22.8807 2.36875 24.8807 3.56875C25.0807 3.66875 25.1808 3.86875 25.1808 3.96875C25.1808 4.16875 25.1807 4.36875 25.0807 4.56875C25.0807 4.66875 24.9807 4.76875 24.8807 4.76875C24.6807 4.96875 24.6807 5.06875 24.5807 5.06875C24.4807 5.06875 24.3808 5.06875 24.2808 5.06875C24.1808 5.06875 24.0807 5.06875 23.9807 4.96875C20.1807 2.66875 15.4808 1.86875 11.6808 2.96875C6.78075 4.36875 3.28075 8.86875 2.78075 14.7688C2.58075 16.8688 2.88075 18.9687 3.48075 20.8687C4.18075 22.8687 5.18075 24.6688 6.58075 26.1688C6.68075 26.2688 6.78075 26.4688 6.78075 26.6688C6.78075 26.8688 6.68075 27.0688 6.58075 27.1688C6.48075 27.4688 6.38075 27.4688 6.18075 27.4688Z" fill="#88B3E0"/>
<path d="M9.68067 19.5688C9.58067 19.7688 9.48067 19.8688 9.28067 19.9688C9.08067 20.0688 8.98067 20.0688 8.78067 20.0688C8.58067 20.0688 8.38067 20.0688 8.28067 19.9688C8.08067 19.8688 7.98067 19.7688 7.88067 19.5688C6.98067 17.8688 6.68066 15.9688 6.98066 14.0688C7.28066 12.1688 8.18066 10.4688 9.48066 9.06879C10.6807 7.96879 12.1807 7.16879 13.8807 6.86879C15.4807 6.56879 17.1807 6.76879 18.7807 7.36879C18.9807 7.46879 19.0807 7.56879 19.1807 7.66879C19.2807 7.76879 19.3807 7.96879 19.3807 8.16879C19.3807 8.36879 19.3807 8.56879 19.2807 8.66879C19.1807 8.96879 18.9807 9.06879 18.8807 9.16879C14.7807 11.6688 11.5807 15.2688 9.68067 19.5688Z" fill="#F4B2C4"/>
<path d="M58.5811 4.86883C63.6811 6.96883 66.6811 12.1688 66.5811 18.3688C66.4811 20.5688 65.9811 22.6688 65.0811 24.6688C64.1811 26.6688 62.8811 28.3688 61.1811 29.8688L58.0811 30.1688L44.0811 8.06883L45.4811 5.46883C49.4811 3.76883 54.4811 3.26883 58.5811 4.86883Z" fill="white"/>
<path d="M61.1809 30.5688C61.0809 30.5688 60.9809 30.5688 60.8809 30.4688C60.7809 30.4688 60.6809 30.3688 60.6809 30.2688C60.5809 30.1688 60.5809 30.0688 60.5809 30.0688C60.5809 29.9688 60.5809 29.8688 60.5809 29.7688C60.5809 29.6688 60.5809 29.5688 60.6809 29.4688C60.6809 29.3688 60.7809 29.2688 60.8809 29.2688C62.4809 27.8688 63.6809 26.1688 64.5809 24.2688C65.4809 22.3688 65.9809 20.3688 65.9809 18.2688C66.0809 12.3688 63.1809 7.46875 58.4809 5.46875C54.8809 3.96875 50.0809 4.26875 46.0809 6.06875C45.8809 6.16875 45.6809 6.16875 45.4809 6.06875C45.2809 5.96875 45.1809 5.86875 45.0809 5.66875C44.9809 5.46875 44.9809 5.26875 45.0809 5.06875C45.1809 4.86875 45.2809 4.76875 45.4809 4.66875C47.5809 3.66875 49.8809 3.06875 52.1809 2.96875C54.4809 2.86875 56.8809 3.16875 59.0809 3.96875C64.4809 6.16875 67.6809 11.5688 67.4809 18.0688C67.3809 20.3688 66.8809 22.5688 65.8809 24.6688C64.8809 26.7688 63.5809 28.5688 61.8809 30.0688C61.4809 30.4688 61.2809 30.5688 61.1809 30.5688Z" fill="#88B3E0"/>
<path d="M58.5807 22.2687C58.6807 22.4687 58.7807 22.5687 58.8807 22.7687C58.9807 22.8687 59.1807 22.9687 59.3807 22.9687C59.5807 22.9687 59.7807 22.9687 59.8807 22.8687C60.0807 22.7687 60.1807 22.6687 60.2807 22.5687C61.3807 20.9687 61.8807 19.0687 61.7807 17.1687C61.6807 15.2687 60.9807 13.4687 59.8807 11.9687C58.7807 10.6687 57.3807 9.76867 55.7807 9.26867C54.1807 8.76867 52.4807 8.76867 50.8807 9.16867C50.6807 9.16867 50.5807 9.26867 50.3807 9.46867C50.2807 9.56867 50.1807 9.76867 50.1807 9.96867C50.1807 10.1687 50.1807 10.3687 50.1807 10.4687C50.2807 10.6687 50.3807 10.7687 50.4807 10.8687C54.2807 13.8687 57.0807 17.7687 58.5807 22.2687Z" fill="#F4B2C4"/>
<path d="M12.2809 76.5688C9.88088 76.5688 7.68088 75.9688 5.98088 74.7688C5.58088 74.4688 5.48088 73.9688 5.78088 73.5688C6.08088 73.1688 6.58088 73.0688 6.98088 73.3688C8.88088 74.7688 11.7809 75.2688 14.6809 74.6688C17.3809 74.0688 19.5809 72.6688 20.7809 70.5688C21.7809 68.8688 22.4809 66.9688 22.8809 65.0688C22.8809 64.8688 23.0809 64.6688 23.2809 64.5688C25.3809 63.2688 26.6809 61.1688 26.6809 58.9688C26.6809 57.6688 26.2809 55.8688 24.2809 54.4688C17.3809 49.6688 10.8809 57.7688 9.68088 59.4688C9.38088 59.8688 8.88088 59.9688 8.48088 59.6688C8.08088 59.3688 7.98088 58.8688 8.28088 58.4688C12.0809 53.2688 18.8809 48.6688 25.1809 53.0688C27.2809 54.5688 28.3809 56.6688 28.2809 59.0688C28.1809 61.6688 26.6809 64.2688 24.3809 65.8688C23.9809 67.8688 23.1809 69.7688 22.1809 71.5688C20.7809 74.0688 18.1809 75.7688 14.9809 76.4688C14.0809 76.4688 13.1809 76.5688 12.2809 76.5688Z" fill="#88B3E0"/>
<path d="M54.8803 76.3688C53.9803 76.3688 53.0803 76.2688 52.1803 76.0688C48.9803 75.3688 46.3803 73.6688 44.9803 71.1688C43.9803 69.3688 43.1803 67.4688 42.7803 65.4688C40.3803 63.8688 38.8803 61.2688 38.8803 58.6688C38.7803 56.2688 39.8803 54.1688 41.9803 52.6688C48.2803 48.2688 55.0803 52.7688 58.8803 58.0688C59.1803 58.4688 59.0803 58.9688 58.6803 59.2688C58.2803 59.5688 57.7803 59.4688 57.4803 59.0688C56.2803 57.3688 49.7803 49.2688 42.8803 54.0688C41.2803 55.1688 40.3803 56.7688 40.4803 58.6688C40.5803 60.8688 41.8803 62.9688 43.8803 64.2688C44.0803 64.3688 44.1803 64.5688 44.2803 64.7688C44.6803 66.6688 45.3803 68.5688 46.3803 70.2688C47.5803 72.3688 49.7803 73.7688 52.4803 74.3688C55.2803 74.9688 58.2803 74.4688 60.1803 73.0688C60.5803 72.7688 61.0803 72.8688 61.3803 73.2688C61.6803 73.6688 61.5803 74.1688 61.1803 74.4688C59.4803 75.7688 57.2803 76.3688 54.8803 76.3688Z" fill="#88B3E0"/>
<path d="M39.9805 34.0687C39.9805 35.0687 40.1805 35.9687 40.6805 36.8687C41.1805 37.6687 41.8805 38.3687 42.7805 38.7687C43.6805 39.1687 44.6805 39.3687 45.5805 39.1687C46.5805 39.0687 47.4805 38.5687 48.1805 37.9687C48.8805 37.2687 49.3805 36.4687 49.6805 35.4687C49.8805 34.5687 49.8805 33.5687 49.5805 32.5687C49.2805 31.6687 48.6805 30.8687 47.8805 30.2687C47.0805 29.6687 46.1805 29.3687 45.1805 29.2687C43.8805 29.1687 42.5805 29.6687 41.5805 30.5687C40.5805 31.5687 39.9805 32.7687 39.9805 34.0687Z" fill="#2E91D0"/>
<path d="M41.8809 33.1687C41.8809 33.4687 41.9809 33.6687 42.0809 33.8687C42.1809 34.0687 42.3809 34.2687 42.6809 34.3687C42.8809 34.4687 43.1809 34.4687 43.3809 34.4687C43.6809 34.4687 43.8809 34.3687 44.0809 34.1687C44.2809 33.9687 44.3809 33.7687 44.4809 33.5687C44.5809 33.3687 44.5809 33.0687 44.4809 32.7687C44.3809 32.5687 44.2809 32.2687 44.0809 32.1687C43.8809 31.9687 43.5809 31.9687 43.3809 31.8687C43.1809 31.8687 43.0809 31.8687 42.8809 31.9687C42.6809 32.0687 42.5809 32.0687 42.4809 32.2687C42.3809 32.3687 42.2809 32.5687 42.1809 32.6687C41.9809 32.8687 41.8809 32.9687 41.8809 33.1687Z" fill="white"/>
<path d="M16.6807 32.6688C16.6807 33.6688 16.8807 34.5688 17.3807 35.4688C17.8807 36.2688 18.5807 36.9687 19.4807 37.3687C20.3807 37.7687 21.3807 37.9688 22.2807 37.7688C23.2807 37.6688 24.1807 37.1688 24.8807 36.5688C25.5807 35.8688 26.0807 35.0687 26.3807 34.1687C26.5807 33.2687 26.5807 32.2688 26.2807 31.2688C25.9807 30.3688 25.3807 29.5688 24.5807 28.9688C23.7807 28.3687 22.8807 28.0688 21.8807 27.9688C21.1807 27.9688 20.5807 28.0688 19.9807 28.2688C19.3807 28.4688 18.7807 28.8688 18.2807 29.2688C17.7807 29.6688 17.3807 30.2687 17.0807 30.8687C16.8807 31.3687 16.7807 31.9688 16.6807 32.6688Z" fill="#2E91D0"/>
<path d="M21.9805 31.5687C21.9805 31.8687 22.0805 32.0687 22.1805 32.2687C22.2805 32.4687 22.4805 32.6687 22.7805 32.7687C22.9805 32.8687 23.2805 32.8687 23.4805 32.8687C23.7805 32.8687 23.9805 32.7687 24.1805 32.5687C24.3805 32.3687 24.4805 32.1687 24.5805 31.9687C24.6805 31.7687 24.6805 31.4687 24.5805 31.2687C24.4805 31.0687 24.3805 30.7687 24.1805 30.6687C23.9805 30.4687 23.7805 30.4687 23.4805 30.3687C23.1805 30.3687 22.7805 30.4687 22.5805 30.6687C22.1805 30.8687 22.0805 31.1687 21.9805 31.5687Z" fill="white"/>
<path d="M33.1804 35.2688C30.6804 35.0688 30.0804 35.5688 29.9804 36.2688C29.8804 37.6688 31.7804 39.1688 32.8804 39.1688C33.9804 39.2688 36.0804 37.9688 36.1804 36.5688C36.1804 35.9688 35.6804 35.4688 33.1804 35.2688Z" fill="#F4B2C4"/>
<path d="M80.7803 38.5687L72.4803 36.0687L71.7803 28.4687C71.7803 28.3687 71.6803 28.1687 71.5803 28.0687C71.4803 27.9687 71.3803 27.8687 71.2803 27.8687C71.1803 27.8687 70.9803 27.8687 70.8803 27.8687C70.7803 27.8687 70.5803 27.9687 70.4803 28.0687L64.3803 34.4687C64.2803 34.5687 64.2803 34.6687 64.1803 34.7687C64.1803 34.8687 64.1803 34.9687 64.1803 35.0687C64.1803 35.1687 66.3803 43.0687 62.3803 48.2687C62.2803 48.3687 62.2803 48.4687 62.2803 48.6687C62.2803 48.7687 62.2803 48.9687 62.3803 49.0687L67.4803 55.9687C67.5803 56.0687 67.6803 56.1687 67.7803 56.1687C67.8803 56.2687 67.9803 56.2687 68.0803 56.2687H68.1803C68.2803 56.2687 68.4803 56.1687 68.5803 56.0687C68.6803 55.9687 68.7803 55.8687 68.7803 55.7687L70.2803 50.8687L78.1803 50.1687C78.2803 50.1687 78.4803 50.0687 78.5803 50.0687C78.6803 49.9687 78.7803 49.8687 78.7803 49.7687C78.8803 49.6687 78.8803 49.5687 78.8803 49.4687C78.8803 49.3687 78.7803 49.2687 78.7803 49.1687L74.1803 43.7687L80.8803 39.9687C80.9803 39.8687 81.0803 39.7687 81.1803 39.6687C81.2803 39.5687 81.2803 39.4687 81.2803 39.2687C81.2803 39.1687 81.1803 38.9687 81.1803 38.8687C81.0803 38.6687 80.9803 38.5687 80.7803 38.5687Z" fill="#FFE608"/>
<path d="M33.2803 48.8687C35.1803 48.8687 36.7803 47.2687 36.7803 45.3687C36.7803 43.4687 35.1803 41.8687 33.2803 41.8687C31.3803 41.8687 29.7803 43.4687 29.7803 45.3687C29.7803 47.2687 31.2803 48.8687 33.2803 48.8687Z" fill="#F4B2C4"/>
<path d="M33.2803 49.3687C31.0803 49.3687 29.2803 47.5687 29.2803 45.3687C29.2803 43.1687 31.0803 41.3687 33.2803 41.3687C35.4803 41.3687 37.2803 43.1687 37.2803 45.3687C37.2803 47.5687 35.4803 49.3687 33.2803 49.3687ZM33.2803 42.3687C31.5803 42.3687 30.2803 43.6687 30.2803 45.3687C30.2803 47.0687 31.5803 48.3687 33.2803 48.3687C34.9803 48.3687 36.2803 47.0687 36.2803 45.3687C36.2803 43.6687 34.8803 42.3687 33.2803 42.3687Z" fill="#88B3E0"/>
</svg>
