<svg width="98" height="84" viewBox="0 0 98 84" fill="none" xmlns="http://www.w3.org/2000/svg">
<path d="M94.0929 19.119C93.8193 13.7843 90.6732 10.7749 87.6639 10.091C86.7063 9.9542 83.697 9.81742 79.7302 9.68063C79.4566 9.68063 79.3198 9.68063 79.0462 9.68063H76.4472C70.9757 9.54384 64.5467 9.54384 59.0752 9.40705L52.2358 9.27026H48.6793H45.1228L38.2834 9.40705C32.8119 9.68063 26.2461 9.68063 20.7746 9.9542H18.1756H17.4916C13.5248 10.091 10.5155 10.2278 9.55795 10.5014C6.54861 11.1853 3.53927 14.1946 3.26569 19.5294C3.1289 21.3076 3.12891 24.4537 3.12891 27.8734L94.2297 28.0102C94.2297 24.3169 94.2297 21.034 94.0929 19.119Z" fill="#67C1ED"/>
<path d="M3.40547 70.141C3.67905 75.4757 6.82516 78.4851 9.8345 79.0322C12.8438 79.5794 37.7392 79.8529 46.4937 79.8529H51.1445C59.8989 79.8529 84.7943 79.4426 87.8036 78.7586C90.813 78.2115 93.8223 75.0654 94.0959 69.7306C94.3694 64.3959 94.3694 51.1275 94.3694 45.7928C94.3694 42.3731 94.3694 34.4394 94.2326 27.8735H3.13189C2.9951 34.5761 2.9951 42.7834 3.13189 46.3399C3.13189 51.5378 3.13189 64.9431 3.40547 70.141Z" fill="#F7F7F7"/>
<path d="M3.26864 19.5295C3.54222 14.1948 6.55156 11.1855 9.56089 10.5015C10.5184 10.3647 13.5277 10.0912 17.4946 9.95438H18.1785H20.7775C26.249 9.81759 32.678 9.6808 38.1496 9.54401L44.989 9.40723H48.5455H52.1019H58.9413C64.4129 9.40723 70.8419 9.54401 76.3134 9.6808H78.9124C79.1859 9.6808 79.3227 9.6808 79.5963 9.6808C83.5632 9.81759 86.5725 9.95438 87.53 10.0912C90.5393 10.6383 93.5487 13.7844 93.959 19.1192C94.2326 24.4539 94.2326 40.7317 94.3694 45.9296C94.3694 51.1275 94.3694 64.5328 94.0958 69.8675C93.8223 75.2022 90.8129 78.2115 87.8036 78.8955C84.7942 79.4426 59.8988 79.853 51.1444 79.9898H46.4936C37.7392 79.9898 12.8438 79.853 9.83446 79.1691C6.82513 78.6219 3.67901 75.6126 3.40544 70.2778C3.13186 64.9431 3.13185 51.6747 3.13185 46.34C3.13185 40.8684 2.99506 24.8643 3.26864 19.5295Z" stroke="#41A6DF" stroke-width="5.09631" stroke-linecap="round" stroke-linejoin="round"/>
<path d="M22.8313 5.16663C22.8313 3.38839 21.4634 2.02051 19.6852 2.02051C17.9069 2.02051 16.5391 3.38839 16.5391 5.16663V14.1946C16.5391 15.9729 17.9069 17.3408 19.6852 17.3408C21.4634 17.3408 22.8313 15.9729 22.8313 14.1946V5.16663Z" fill="#2689DD" stroke="#2689DD" stroke-width="3.03738" stroke-linecap="round" stroke-linejoin="round"/>
<path d="M50.5989 5.16663C50.5989 3.38839 49.231 2.02051 47.4528 2.02051C45.6745 2.02051 44.3066 3.38839 44.3066 5.16663V14.1946C44.3066 15.9729 45.6745 17.3408 47.4528 17.3408C49.231 17.3408 50.5989 15.9729 50.5989 14.1946V5.16663Z" fill="#2689DD" stroke="#2689DD" stroke-width="3.03738" stroke-linecap="round" stroke-linejoin="round"/>
<path d="M78.2278 5.16663C78.2278 3.38839 76.8599 2.02051 75.0817 2.02051C73.3034 2.02051 71.9355 3.38839 71.9355 5.16663V14.1946C71.9355 15.9729 73.3034 17.3408 75.0817 17.3408C76.8599 17.3408 78.2278 15.9729 78.2278 14.1946V5.16663Z" fill="#2689DD" stroke="#2689DD" stroke-width="3.03738" stroke-linecap="round" stroke-linejoin="round"/>
<path d="M23.5141 34.0288H14.8965C12.7079 34.0288 11.0664 35.8071 11.0664 37.8589V46.4765C11.0664 48.6651 12.8446 50.3066 14.8965 50.3066H23.5141C25.7027 50.3066 27.3442 48.5283 27.3442 46.4765V37.8589C27.3442 35.8071 25.5659 34.0288 23.5141 34.0288Z" fill="#D3D4D9"/>
<path d="M43.0766 34.0288H34.459C32.2704 34.0288 30.6289 35.8071 30.6289 37.8589V46.4765C30.6289 48.6651 32.4072 50.3066 34.459 50.3066H43.0766C45.2652 50.3066 46.9067 48.5283 46.9067 46.4765V37.8589C46.9067 35.8071 45.2652 34.0288 43.0766 34.0288Z" fill="#D3D4D9"/>
<path d="M62.6352 34.0288H54.0176C51.829 34.0288 50.1875 35.8071 50.1875 37.8589V46.4765C50.1875 48.6651 51.9657 50.3066 54.0176 50.3066H62.6352C64.8238 50.3066 66.4653 48.5283 66.4653 46.4765V37.8589C66.6021 35.8071 64.8238 34.0288 62.6352 34.0288Z" fill="#D3D4D9"/>
<path d="M82.3344 34.0288H73.7168C71.5282 34.0288 69.8867 35.8071 69.8867 37.8589V46.4765C69.8867 48.6651 71.665 50.3066 73.7168 50.3066H82.3344C84.523 50.3066 86.1645 48.5283 86.1645 46.4765V37.8589C86.1645 35.8071 84.3862 34.0288 82.3344 34.0288Z" fill="#D3D4D9"/>
<path d="M23.5141 54.2734H14.8965C12.7079 54.2734 11.0664 56.0517 11.0664 58.1035V66.7211C11.0664 68.9097 12.8446 70.5512 14.8965 70.5512H23.5141C25.7027 70.5512 27.3442 68.773 27.3442 66.7211V58.1035C27.3442 56.0517 25.5659 54.2734 23.5141 54.2734Z" fill="#D3D4D9"/>
<path d="M43.0766 54.2734H34.459C32.2704 54.2734 30.6289 56.0517 30.6289 58.1035V66.7211C30.6289 68.9097 32.4072 70.5512 34.459 70.5512H43.0766C45.2652 70.5512 46.9067 68.773 46.9067 66.7211V58.1035C46.9067 56.0517 45.2652 54.2734 43.0766 54.2734Z" fill="#D3D4D9"/>
<path d="M62.6352 54.2734H54.0176C51.829 54.2734 50.1875 56.0517 50.1875 58.1035V66.7211C50.1875 68.9097 51.9657 70.5512 54.0176 70.5512H62.6352C64.8238 70.5512 66.4653 68.773 66.4653 66.7211V58.1035C66.6021 56.0517 64.8238 54.2734 62.6352 54.2734Z" fill="#D3D4D9"/>
<path d="M82.3344 54.2734H73.7168C71.5282 54.2734 69.8867 56.0517 69.8867 58.1035V66.7211C69.8867 68.9097 71.665 70.5512 73.7168 70.5512H82.3344C84.523 70.5512 86.1645 68.773 86.1645 66.7211V58.1035C86.1645 56.0517 84.3862 54.2734 82.3344 54.2734Z" fill="#D3D4D9"/>
</svg>
