<svg width="72" height="62" viewBox="0 0 72 62" fill="none" xmlns="http://www.w3.org/2000/svg">
<path d="M69.6006 14.6001C69.4006 10.7001 67.1006 8.50015 64.9006 8.00015C64.2006 7.90015 62.0006 7.80015 59.1006 7.70015C58.9006 7.70015 58.8006 7.70015 58.6006 7.70015H56.7006C52.7006 7.60015 48.0006 7.60015 44.0006 7.50015L39.0006 7.40015H36.4006H33.8006L28.8006 7.50015C24.8006 7.70015 20.0006 7.70015 16.0006 7.90015H14.1006H13.6006C10.7006 8.00015 8.50059 8.10015 7.80059 8.30015C5.60059 8.80015 3.40058 11.0001 3.20058 14.9001C3.10058 16.2001 3.10059 18.5001 3.10059 21.0001L69.7006 21.1001C69.7006 18.4001 69.7006 16.0001 69.6006 14.6001Z" fill="#67C1ED"/>
<path d="M3.3004 51.9C3.5004 55.8 5.80039 58 8.00039 58.4C10.2004 58.8 28.4004 59 34.8004 59H38.2004C44.6004 59 62.8004 58.7 65.0004 58.2C67.2004 57.8 69.4004 55.5 69.6004 51.6C69.8004 47.7 69.8004 38 69.8004 34.1C69.8004 31.6 69.8004 25.8 69.7004 21H3.10039C3.00039 25.9 3.00039 31.9 3.10039 34.5C3.10039 38.3 3.1004 48.1 3.3004 51.9Z" fill="#F7F7F7"/>
<path d="M3.20019 14.9C3.40019 11 5.6002 8.8 7.8002 8.3C8.5002 8.2 10.7002 8 13.6002 7.9H14.1002H16.0002C20.0002 7.8 24.7002 7.7 28.7002 7.6L33.7002 7.5H36.3002H38.9002H43.9002C47.9002 7.5 52.6002 7.6 56.6002 7.7H58.5002C58.7002 7.7 58.8002 7.7 59.0002 7.7C61.9002 7.8 64.1002 7.9 64.8002 8C67.0002 8.4 69.2002 10.7 69.5002 14.6C69.7002 18.5 69.7002 30.4 69.8002 34.2C69.8002 38 69.8002 47.8 69.6002 51.7C69.4002 55.6 67.2002 57.8 65.0002 58.3C62.8002 58.7 44.6002 59 38.2002 59.1H34.8002C28.4002 59.1 10.2002 59 8.0002 58.5C5.8002 58.1 3.5002 55.9 3.3002 52C3.1002 48.1 3.1002 38.4 3.1002 34.5C3.1002 30.5 3.00019 18.8 3.20019 14.9Z" stroke="#41A6DF" stroke-width="3.7257" stroke-linecap="round" stroke-linejoin="round"/>
<path d="M17.5004 4.4001C17.5004 3.1001 16.5004 2.1001 15.2004 2.1001C13.9004 2.1001 12.9004 3.1001 12.9004 4.4001V11.0001C12.9004 12.3001 13.9004 13.3001 15.2004 13.3001C16.5004 13.3001 17.5004 12.3001 17.5004 11.0001V4.4001Z" fill="#2689DD" stroke="#2689DD" stroke-width="2.2205" stroke-linecap="round" stroke-linejoin="round"/>
<path d="M37.8002 4.4001C37.8002 3.1001 36.8002 2.1001 35.5002 2.1001C34.2002 2.1001 33.2002 3.1001 33.2002 4.4001V11.0001C33.2002 12.3001 34.2002 13.3001 35.5002 13.3001C36.8002 13.3001 37.8002 12.3001 37.8002 11.0001V4.4001Z" fill="#2689DD" stroke="#2689DD" stroke-width="2.2205" stroke-linecap="round" stroke-linejoin="round"/>
<path d="M58.0004 4.4001C58.0004 3.1001 57.0004 2.1001 55.7004 2.1001C54.4004 2.1001 53.4004 3.1001 53.4004 4.4001V11.0001C53.4004 12.3001 54.4004 13.3001 55.7004 13.3001C57.0004 13.3001 58.0004 12.3001 58.0004 11.0001V4.4001Z" fill="#2689DD" stroke="#2689DD" stroke-width="2.2205" stroke-linecap="round" stroke-linejoin="round"/>
<path d="M18.0004 25.5H11.7004C10.1004 25.5 8.90039 26.8 8.90039 28.3V34.6C8.90039 36.2 10.2004 37.4 11.7004 37.4H18.0004C19.6004 37.4 20.8004 36.1 20.8004 34.6V28.3C20.8004 26.8 19.5004 25.5 18.0004 25.5Z" fill="#D3D4D9"/>
<path d="M32.3002 25.5H26.0002C24.4002 25.5 23.2002 26.8 23.2002 28.3V34.6C23.2002 36.2 24.5002 37.4 26.0002 37.4H32.3002C33.9002 37.4 35.1002 36.1 35.1002 34.6V28.3C35.1002 26.8 33.9002 25.5 32.3002 25.5Z" fill="#D3D4D9"/>
<path d="M46.6 25.5H40.3C38.7 25.5 37.5 26.8 37.5 28.3V34.6C37.5 36.2 38.8 37.4 40.3 37.4H46.6C48.2 37.4 49.4 36.1 49.4 34.6V28.3C49.5 26.8 48.2 25.5 46.6 25.5Z" fill="#D3D4D9"/>
<path d="M61.0004 25.5H54.7004C53.1004 25.5 51.9004 26.8 51.9004 28.3V34.6C51.9004 36.2 53.2004 37.4 54.7004 37.4H61.0004C62.6004 37.4 63.8004 36.1 63.8004 34.6V28.3C63.8004 26.8 62.5004 25.5 61.0004 25.5Z" fill="#D3D4D9"/>
<path d="M18.0004 40.3H11.7004C10.1004 40.3 8.90039 41.6 8.90039 43.1V49.4001C8.90039 51.0001 10.2004 52.2001 11.7004 52.2001H18.0004C19.6004 52.2001 20.8004 50.9001 20.8004 49.4001V43.1C20.8004 41.6 19.5004 40.3 18.0004 40.3Z" fill="#D3D4D9"/>
<path d="M32.3002 40.3H26.0002C24.4002 40.3 23.2002 41.6 23.2002 43.1V49.4001C23.2002 51.0001 24.5002 52.2001 26.0002 52.2001H32.3002C33.9002 52.2001 35.1002 50.9001 35.1002 49.4001V43.1C35.1002 41.6 33.9002 40.3 32.3002 40.3Z" fill="#D3D4D9"/>
<path d="M46.6 40.3H40.3C38.7 40.3 37.5 41.6 37.5 43.1V49.4001C37.5 51.0001 38.8 52.2001 40.3 52.2001H46.6C48.2 52.2001 49.4 50.9001 49.4 49.4001V43.1C49.5 41.6 48.2 40.3 46.6 40.3Z" fill="#D3D4D9"/>
<path d="M61.0004 40.3H54.7004C53.1004 40.3 51.9004 41.6 51.9004 43.1V49.4001C51.9004 51.0001 53.2004 52.2001 54.7004 52.2001H61.0004C62.6004 52.2001 63.8004 50.9001 63.8004 49.4001V43.1C63.8004 41.6 62.5004 40.3 61.0004 40.3Z" fill="#D3D4D9"/>
</svg>
