<svg width="30" height="30" viewBox="0 0 30 30" fill="none" xmlns="http://www.w3.org/2000/svg">
<path d="M15 30C23.2843 30 30 23.2843 30 15C30 6.71573 23.2843 0 15 0C6.71573 0 0 6.71573 0 15C0 23.2843 6.71573 30 15 30Z" fill="#599CD7"/>
<path d="M18.3944 6H15.0644C15.0644 6 14.733 6 14.6068 6C14.4963 6 14.3858 6.03156 14.3069 6.11047C14.228 6.18938 14.1807 6.29985 14.1807 6.41032V10.3242C14.1807 10.4347 14.228 10.5451 14.3069 10.624C14.3858 10.7029 14.4963 10.7503 14.6068 10.7503C14.7172 10.7503 14.8277 10.7029 14.9066 10.624C14.9855 10.5451 15.0329 10.4347 15.0329 10.3242V9.26681H17.5106C17.6842 9.26681 17.8578 9.23525 18.0156 9.17212C18.1734 9.109 18.3155 9.01431 18.4417 8.88805C18.568 8.7618 18.6627 8.61976 18.7258 8.46195C18.7889 8.30413 18.8205 8.13053 18.8205 7.95693V6.47345C18.8205 6.36298 18.7889 6.22094 18.71 6.14204C18.6311 6.06313 18.5206 6.01578 18.3944 6Z" fill="white"/>
<path d="M15.6642 10.2299C15.0329 9.78797 14.1965 9.78797 13.581 10.2299L7.61549 14.4909C7.23673 14.7592 7 15.2011 7 15.6745V18.7678C7 19.5884 7.33142 20.3775 7.89956 20.9614C8.48348 21.5453 9.27257 21.861 10.0932 21.861H12.6656C12.8077 21.861 12.9339 21.8136 13.0286 21.7032C13.1233 21.6085 13.1864 21.4664 13.1864 21.3402V18.7678C13.1864 18.4837 13.2969 18.2154 13.4863 18.026C13.6757 17.8366 13.944 17.7262 14.228 17.7262H14.954C15.2381 17.7262 15.5063 17.8366 15.6957 18.026C15.8851 18.2154 15.9956 18.4837 15.9956 18.7678V21.3402C15.9956 21.4822 16.0429 21.6085 16.1534 21.7032C16.2481 21.7978 16.3901 21.861 16.5164 21.861H21.314C21.4403 21.861 21.5665 21.8294 21.677 21.7821C21.7875 21.7347 21.8979 21.6716 21.9768 21.5769C22.0715 21.4822 22.1347 21.3875 22.182 21.2771C22.2293 21.1666 22.2451 21.0403 22.2451 20.9141V16.5741V15.6588C22.2451 15.1853 22.0084 14.7434 21.6296 14.4751L15.6642 10.2299Z" fill="white"/>
</svg>
