<svg width="32" height="32" viewBox="0 0 32 32" fill="none" xmlns="http://www.w3.org/2000/svg">
<path d="M16 32C24.8 32 32 24.8 32 16C32 7.2 24.8 0 16 0C7.2 0 0 7.2 0 16C0 24.8 7.2 32 16 32Z" fill="#95B0E5"/>
<path d="M19.9998 23C19.1998 21.5 17.6998 20.3 16.5998 19.6C15.3998 18.8 14.3998 17.5 15.3998 16.1C16.6998 14.2 16.5998 12 15.7998 10.7C15.1998 9.69998 14.0998 9.09998 12.8998 9.09998C11.6998 9.09998 10.5998 9.69998 9.99978 10.7C9.19978 12 9.09977 14.2 10.2998 16C10.6998 16.5 11.2998 17.3 10.7998 17.9C10.3998 18.3 9.99978 18.6 9.49978 18.9C9.39978 19 9.19976 19 9.09976 19.1C8.09976 19.6 6.49981 20.2 6.89981 21.1C7.99981 23.6 13.1998 25.5 17.4998 24.7C17.3998 24.7 20.5998 24.2 19.9998 23Z" fill="white"/>
<path d="M22.7003 23.7C24.0003 23.7 25.5003 22.6 25.6003 21.2C25.7003 20.2 24.2003 20 23.6003 19.7C22.4003 19.2 22.1003 18.7 22.8003 17.6C23.8003 16 24.0003 14.6 23.3003 13.5C22.8003 12.6 21.9003 12.1 20.8003 12.1C19.8003 12.1 18.9003 12.6 18.3003 13.5C17.6003 14.6 17.7003 16.1 18.8003 17.6C19.6003 18.6 18.9003 19 18.2003 19.3C18.0003 19.4 18.0003 19.6 18.2003 19.6C19.5003 20.5 20.5003 21.6 21.0003 22.8C21.3003 23.4 21.8003 23.7 22.4003 23.7C22.5003 23.7 22.7003 23.7 22.7003 23.7Z" fill="white"/>
</svg>
