<svg width="18" height="18" viewBox="0 0 18 18" fill="none" xmlns="http://www.w3.org/2000/svg">
<path d="M11.7692 9.69231C11.2154 9.13846 11.2154 8.30769 11.7692 7.75385L16.8923 2.63077C17.4462 2.07692 17.4462 1.10769 16.8923 0.553846C16.3385 0 15.3692 0 14.8154 0.553846L9.69231 5.67692C9.13846 6.23077 8.30769 6.23077 7.75385 5.67692L2.49231 0.415385C1.93846 -0.138462 0.969231 -0.138462 0.415385 0.415385C-0.138462 0.969231 -0.138462 1.93846 0.415385 2.49231L5.53846 7.61538C6.23077 8.30769 6.23077 9.13846 5.67692 9.69231L0.553846 14.8154C0 15.3692 0 16.3385 0.553846 16.8923C1.10769 17.4462 2.07692 17.4462 2.63077 16.8923L7.75385 11.7692C8.30769 11.2154 9.13846 11.2154 9.69231 11.7692L14.8154 16.8923C15.3692 17.4462 16.3385 17.4462 16.8923 16.8923C17.4462 16.3385 17.4462 15.3692 16.8923 14.8154L11.7692 9.69231Z" fill="#C4CBD0"/>
</svg>
