<svg width="155" height="130" viewBox="0 0 155 130" fill="none" xmlns="http://www.w3.org/2000/svg">
<g clip-path="url(#clip0_7580_3697)">
<path d="M103.86 128.27C83.3969 130.3 62.7831 130.3 42.32 128.27C26.88 126.52 11.47 111.1 9.72 95.67C7.69002 75.2036 7.69002 54.5865 9.72 34.12C11.47 18.69 26.88 3.27001 42.32 1.52001C62.7831 -0.510026 83.3969 -0.510026 103.86 1.52001C119.3 3.27001 134.72 18.69 136.47 34.12C138.49 54.587 138.49 75.2031 136.47 95.67C134.72 111.1 119.3 126.52 103.86 128.27Z" fill="#FFC4E3"/>
<path d="M119.347 31.1929C119.636 31.1134 119.905 30.9786 120.14 30.7962C120.375 30.6138 120.571 30.3874 120.716 30.1303C120.862 29.8732 120.953 29.5904 120.986 29.2983C121.019 29.0063 120.993 28.7107 120.908 28.4287C120.678 27.8678 120.283 27.3863 119.773 27.0452C119.264 26.704 118.663 26.5184 118.046 26.5118C118.172 26.3763 118.265 26.2155 118.32 26.0407C118.375 25.8659 118.391 25.6813 118.365 25.5001C118.339 25.3189 118.273 25.1454 118.172 24.9918C118.07 24.8383 117.936 24.7084 117.778 24.6114C117.434 24.4241 117.055 24.3078 116.664 24.2696C116.273 24.2314 115.878 24.2721 115.503 24.3893C115.544 24.0718 115.511 23.7493 115.407 23.4459C115.303 23.1425 115.131 22.8662 114.902 22.6375C114.674 22.4088 114.395 22.2338 114.088 22.1254C113.781 22.017 113.453 21.9781 113.128 22.0117C82.6197 21.7978 72.2628 38.2599 72.2628 38.2599C50.1306 27.4991 30.0128 38.0048 30.0128 38.0048C29.0812 38.3915 28.0237 38.5725 27.7299 40.0698C27.689 40.2859 27.6964 40.508 27.7514 40.7211C27.8065 40.9341 27.908 41.1329 28.0488 41.3038C26.7815 41.1228 25.1701 42.8011 25.3547 43.9858C25.4008 44.1192 25.4008 44.2638 25.3547 44.3972C25.2708 44.5452 25.061 44.5617 24.9015 44.644C24.0854 45.0672 23.4643 45.779 23.1642 46.6349C22.669 48.0417 23.3908 48.3543 24.0454 48.741C25.3295 49.4896 27.4026 48.4037 28.9049 48.1404C39.621 46.2263 50.5746 45.9488 61.3772 47.3177C64.2508 47.8097 67.1635 48.0493 70.0806 48.0335C74.8226 47.8113 79.3128 45.9685 83.6184 44.2079C95.4273 39.4116 106.85 34.0148 119.347 31.1929Z" fill="white" stroke="#E5EAE4" stroke-width="2.77" stroke-linecap="round" stroke-linejoin="round"/>
<path d="M78.4247 41.3743C78.4247 41.3743 88.7609 31.0059 118.585 28.1606C118.585 28.1606 122.884 26.8468 123.002 31.7339C123.119 36.621 125.143 91.2831 124.992 92.7726C124.841 94.2622 123.993 94.94 122.54 95.5593C121.088 96.1786 111.154 96.4463 85.2343 101.886C85.2343 101.886 82.1696 106.907 72.8914 104.396C72.8914 104.396 42.8738 105.158 32.7811 108.974C32.7811 108.974 29.9515 109.476 29.8843 106.087C29.8172 102.698 22 50.5543 22 50.5543C22.0995 49.6546 22.4461 48.7997 23.0016 48.0837C23.5571 47.3676 24.3001 46.8181 25.1487 46.4957C29.8508 44.3534 45.0065 38.1273 67.7107 43.2571C67.7359 43.2571 74.6883 43.6756 78.4247 41.3743Z" fill="#009CEA"/>
<path d="M78.0099 41.8672C74.244 44.1825 67.2369 43.7615 67.2369 43.7615L67 43.711L72.5007 105.315C81.8096 107.782 84.8731 102.79 84.8731 102.79H85C83.9591 91.5413 80.4725 55.1698 79.0762 41C78.7061 41.2707 78.3502 41.5602 78.0099 41.8672V41.8672Z" fill="#0082EA"/>
<path d="M22.056 50.9911C21.8554 50.977 21.662 50.9114 21.4949 50.8008C21.3711 50.7227 21.2648 50.6203 21.1827 50.4999C21.1007 50.3795 21.0445 50.2437 21.0178 50.101C20.9911 49.9583 20.9944 49.8116 21.0275 49.6702C21.0606 49.5288 21.1228 49.3956 21.2102 49.279C24.56 44.8126 44.3826 37.0377 67.5885 42.2485C68.4259 42.2485 74.196 42.4636 77.3616 40.5943C78.5926 39.486 90.049 29.999 120.758 28.0056C120.907 27.9908 121.057 28.0052 121.2 28.048C121.343 28.0908 121.476 28.1612 121.591 28.255C121.706 28.3488 121.802 28.4643 121.872 28.5947C121.941 28.7251 121.984 28.8678 121.998 29.0147C122.007 29.1617 121.986 29.3089 121.937 29.4478C121.888 29.5868 121.811 29.7147 121.711 29.824C121.612 29.9333 121.491 30.0219 121.356 30.0846C121.221 30.1474 121.075 30.1829 120.926 30.1892C89.8648 32.2074 79.0532 42.1327 78.9109 42.232L78.7182 42.3726C74.7068 44.8539 67.6387 44.4321 67.3456 44.4155H67.1446C43.9387 39.1799 25.5147 47.3601 23.1112 50.561C22.9881 50.7168 22.8261 50.8383 22.6411 50.9137C22.4562 50.9891 22.2545 51.0157 22.056 50.9911V50.9911Z" fill="#0082EA"/>
<path d="M88.1925 45.3548C92.0386 43.647 103.619 38.9164 114.337 39.0018C114.88 38.9795 115.411 39.1678 115.822 39.5282C116.232 39.8885 116.49 40.3937 116.544 40.9401L117 50.8538C117.003 51.3784 116.805 51.8838 116.447 52.2641C116.089 52.6445 115.6 52.8704 115.081 52.8947C106.847 53.6791 98.7692 55.6666 91.1003 58.7951C90.7954 58.9375 90.4623 59.0073 90.1265 58.9994C89.7907 58.9914 89.4612 58.9058 89.1633 58.7492C88.8653 58.5925 88.6069 58.3689 88.4079 58.0956C88.2088 57.8224 88.0744 57.5066 88.015 57.1727L87.0091 47.3187C86.9689 46.906 87.0626 46.4913 87.2761 46.1371C87.4895 45.7828 87.8111 45.5083 88.1925 45.3548V45.3548Z" fill="#EAE451"/>
</g>
<defs>
<clipPath id="clip0_7580_3697">
<rect width="154.92" height="129.79" fill="white"/>
</clipPath>
</defs>
</svg>
