<svg width="9" height="13" viewBox="0 0 9 13" fill="none" xmlns="http://www.w3.org/2000/svg">
<path d="M7.33387 7.33387C6.75866 7.90907 5.89586 7.90907 5.32065 7.33387L0.431405 2.44462C-0.143802 1.86941 -0.143802 1.00661 0.431405 0.431405C1.00661 -0.143802 1.86941 -0.143802 2.44462 0.431405L7.33387 5.32065C7.90907 5.75206 7.90907 6.75866 7.33387 7.33387Z" fill="white"/>
<path d="M7.33387 5.32069C7.90907 5.89589 7.90907 6.75869 7.33387 7.3339L2.44462 12.2231C1.86941 12.7984 1.00661 12.7984 0.431405 12.2231C-0.143802 11.6479 -0.143802 10.7851 0.431405 10.2099L5.32065 5.32069C5.75206 4.74548 6.75866 4.74548 7.33387 5.32069Z" fill="white"/>
</svg>
