<svg width="6" height="9" viewBox="0 0 6 9" fill="none" xmlns="http://www.w3.org/2000/svg">
<path d="M5.09999 5.09999C4.69999 5.49999 4.09999 5.49999 3.69999 5.09999L0.3 1.69999C-0.1 1.29999 -0.1 0.7 0.3 0.3C0.7 -0.1 1.29999 -0.1 1.69999 0.3L5.09999 3.69999C5.49999 3.99999 5.49999 4.69999 5.09999 5.09999Z" fill="white"/>
<path d="M5.09999 3.70002C5.49999 4.10002 5.49999 4.70002 5.09999 5.10002L1.69999 8.50001C1.29999 8.90001 0.7 8.90001 0.3 8.50001C-0.1 8.10001 -0.1 7.50002 0.3 7.10002L3.69999 3.70002C3.99999 3.30002 4.69999 3.30002 5.09999 3.70002Z" fill="white"/>
</svg>
