<svg width="12" height="19" viewBox="0 0 12 19" fill="none" xmlns="http://www.w3.org/2000/svg">
<g clip-path="url(#clip0_1194_13159)">
<path d="M0.499609 10.5L1.19961 11.2C1.79961 11.8 2.89961 11.8 3.49961 11.2L11.1996 3.50005C11.7996 2.90005 11.7996 1.80005 11.1996 1.20005L10.4996 0.500049C9.89961 -0.0999512 8.79961 -0.0999512 8.19961 0.500049L0.499609 8.20005C-0.200391 8.80005 -0.200391 9.90005 0.499609 10.5Z" fill="#6D8199"/>
<path d="M1.0998 7.60007L0.499805 8.20007C-0.100195 8.80007 -0.100195 9.90007 0.499805 10.5001L8.1998 18.2001C8.7998 18.8001 9.8998 18.8001 10.4998 18.2001L11.1998 17.5001C11.7998 16.9001 11.7998 15.8001 11.1998 15.2001L3.4998 7.60007C2.7998 6.90007 1.7998 6.90007 1.0998 7.60007Z" fill="#6D8199"/>
</g>
<defs>
<clipPath id="clip0_1194_13159">
<rect width="11.6" height="18.7" fill="white"/>
</clipPath>
</defs>
</svg>
