<svg width="12" height="12" viewBox="0 0 12 12" fill="none" xmlns="http://www.w3.org/2000/svg">
<path d="M6 11C8.76142 11 11 8.76142 11 6C11 3.23858 8.76142 1 6 1C3.23857 1 1 3.23858 1 6C1 8.76142 3.23857 11 6 11Z" stroke="#6E97FF" stroke-miterlimit="10"/>
<path d="M5.2002 3.79999C5.2002 3.69999 5.20019 3.6 5.30019 3.5C5.30019 3.4 5.40019 3.29999 5.50019 3.29999C5.60019 3.19999 5.6002 3.20001 5.7002 3.10001C5.8002 3.10001 5.90019 3 6.00019 3C6.10019 3 6.20019 3.00001 6.30019 3.10001C6.40019 3.10001 6.50019 3.19999 6.50019 3.29999C6.60019 3.39999 6.6002 3.4 6.7002 3.5C6.7002 3.6 6.80019 3.69999 6.80019 3.79999C6.80019 3.89999 6.8002 4.00001 6.7002 4.10001C6.7002 4.20001 6.60019 4.29999 6.50019 4.29999C6.40019 4.39999 6.40019 4.4 6.30019 4.5C6.20019 4.6 6.10019 4.60001 6.00019 4.60001C5.90019 4.60001 5.8002 4.6 5.7002 4.5C5.6002 4.5 5.50019 4.39999 5.50019 4.29999C5.40019 4.19999 5.40019 4.20001 5.30019 4.10001C5.20019 4.00001 5.2002 3.89999 5.2002 3.79999ZM5.30019 5.69998C5.30019 5.49998 5.40019 5.39999 5.50019 5.29999C5.60019 5.19999 5.80019 5.19998 6.00019 5.19998C6.20019 5.19998 6.40019 5.19999 6.50019 5.29999C6.60019 5.39999 6.7002 5.49998 6.7002 5.69998V8.39999C6.7002 8.59999 6.60019 8.69999 6.50019 8.79999C6.40019 8.89999 6.20019 8.89999 6.00019 8.89999C5.80019 8.89999 5.60019 8.89999 5.50019 8.79999C5.40019 8.69999 5.30019 8.59999 5.30019 8.39999V5.69998Z" fill="#6E97FF"/>
</svg>
