<svg width="26" height="26" viewBox="0 0 26 26" fill="none" xmlns="http://www.w3.org/2000/svg">
<path d="M13 26C20.1797 26 26 20.1797 26 13C26 5.8203 20.1797 0 13 0C5.8203 0 0 5.8203 0 13C0 20.1797 5.8203 26 13 26Z" fill="#86D438"/>
<path d="M20.7838 8.74316C19.8791 7.28796 18.636 6.07212 17.1598 5.19891C16.9478 5.06738 16.7028 4.99845 16.4531 5.00003C16.1116 5.01337 15.7878 5.15552 15.5471 5.39782L7.99127 12.9655C7.83926 13.1182 7.72456 13.3038 7.65606 13.508L7.20307 14.9004C6.84067 16.0486 6.47829 17.1788 6.07965 18.309C5.99584 18.5329 5.97771 18.776 6.02745 19.0098C6.0772 19.2436 6.1927 19.4584 6.36045 19.629C6.60223 19.8661 6.92748 19.9992 7.26644 19.9997C7.41465 20.0029 7.56213 19.9784 7.70129 19.9274C9.2777 19.3758 10.9084 18.8334 12.5392 18.2999C12.7373 18.2291 12.9169 18.1148 13.0648 17.9654L20.6297 10.3887C20.8378 10.172 20.9663 9.8915 20.9942 9.59272C21.0222 9.29394 20.948 8.99451 20.7838 8.74316V8.74316ZM18.4553 8.7974L18.7453 9.17715C18.7895 9.2306 18.8136 9.29772 18.8136 9.36701C18.8136 9.43631 18.7895 9.50343 18.7453 9.55688L11.9775 16.3289C11.9035 16.4069 11.8096 16.4632 11.7058 16.4917L10.4011 16.9075C10.2454 16.9578 10.0789 16.965 9.91936 16.9284C9.75984 16.8918 9.61323 16.8127 9.49512 16.6996L9.24153 16.4464C9.12974 16.3276 9.05211 16.1809 9.01703 16.0218C8.98194 15.8626 8.99062 15.6969 9.04213 15.5423L9.44989 14.3036C9.47516 14.218 9.52196 14.1402 9.58581 14.0776L16.3716 7.23323C16.424 7.18295 16.4937 7.15487 16.5664 7.15487C16.639 7.15487 16.7088 7.18295 16.7611 7.23323L17.0511 7.48641C17.1689 7.58587 18.3466 8.67082 18.4553 8.7974Z" fill="white"/>
</svg>
