<svg width="10" height="10" viewBox="0 0 10 10" fill="none" xmlns="http://www.w3.org/2000/svg">
<path d="M9.87613 2.49226C9.27016 1.5254 8.44402 0.716245 7.46551 0.131159C7.32316 0.0467697 7.16111 0.00153444 6.99572 0C6.75898 0.000938655 6.53207 0.0951982 6.36413 0.262366L1.34274 5.31635C1.23981 5.41408 1.16298 5.53613 1.11936 5.67131L0.826691 6.60492C0.580238 7.37652 0.333785 8.14812 0.056526 8.87343C-0.00177056 9.02212 -0.0153375 9.18467 0.0175101 9.34099C0.0503578 9.49731 0.128175 9.64055 0.241358 9.75307C0.403761 9.9125 0.622453 10.0012 0.849818 9.99999C0.94665 9.99973 1.04283 9.98411 1.13478 9.95369C2.1822 9.58333 3.26807 9.18207 4.3463 8.86571C4.47909 8.82127 4.60025 8.74745 4.70064 8.64968L9.72204 3.5957C9.86842 3.45629 9.96342 3.2713 9.99139 3.07092C10.0194 2.87053 9.97872 2.66655 9.87613 2.49226ZM8.3358 2.53856C8.40419 2.61747 8.46846 2.69989 8.52834 2.78547C8.55775 2.82136 8.57384 2.86639 8.57384 2.91282C8.57384 2.95925 8.55775 3.00423 8.52834 3.04012L4.03831 7.55397C3.99233 7.60805 3.93016 7.64593 3.8611 7.66201L2.99081 7.93977C2.89002 7.97361 2.78183 7.97854 2.6784 7.954C2.57496 7.92945 2.4804 7.87643 2.40547 7.80089L2.23606 7.63116C2.16001 7.5549 2.10675 7.45884 2.08225 7.35387C2.05776 7.24889 2.06306 7.13915 2.09748 7.03701L2.37473 6.21139C2.38998 6.15207 2.42208 6.0985 2.46715 6.05711L6.96488 1.49691C7.00049 1.46383 7.04729 1.44544 7.09585 1.44544C7.1444 1.44544 7.19111 1.46383 7.22671 1.49691L7.41925 1.65896C7.45776 1.72841 8.22797 2.4537 8.32809 2.56173L8.3358 2.53856Z" fill="black"/>
</svg>
