<svg width="29" height="29" viewBox="0 0 29 29" fill="none" xmlns="http://www.w3.org/2000/svg">
<path d="M28.6408 7.22756C26.8835 4.42367 24.4877 2.07711 21.65 0.380362C21.2372 0.135632 20.7672 0.00444987 20.2876 0C19.6011 0.0027221 18.943 0.276075 18.456 0.76086L3.89393 15.4174C3.59545 15.7008 3.37265 16.0548 3.24614 16.4468L2.3974 19.1543C1.68269 21.3919 0.967978 23.6296 0.163925 25.7329C-0.00513464 26.1641 -0.0444789 26.6355 0.0507793 27.0889C0.146037 27.5422 0.371706 27.9576 0.699939 28.2839C1.17091 28.7462 1.80511 29.0036 2.46447 29C2.74529 28.9992 3.0242 28.9539 3.29085 28.8657C6.32838 27.7916 9.47741 26.628 12.6043 25.7106C12.9894 25.5817 13.3407 25.3676 13.6319 25.0841L28.1939 10.4275C28.6184 10.0233 28.8939 9.48677 28.975 8.90566C29.0562 8.32455 28.9383 7.73299 28.6408 7.22756ZM24.1738 7.36181C24.3722 7.59067 24.5585 7.82969 24.7322 8.07788C24.8175 8.18194 24.8641 8.31252 24.8641 8.44718C24.8641 8.58183 24.8175 8.71227 24.7322 8.81634L11.7111 21.9065C11.5778 22.0634 11.3975 22.1732 11.1972 22.2198L8.67334 23.0253C8.38106 23.1235 8.0673 23.1378 7.76735 23.0666C7.46739 22.9954 7.19317 22.8416 6.97587 22.6226L6.48457 22.1304C6.26402 21.9092 6.10956 21.6306 6.03853 21.3262C5.9675 21.0218 5.98287 20.7035 6.0827 20.4073L6.88672 18.013C6.93093 17.841 7.02402 17.6857 7.15472 17.5656L20.1982 4.34104C20.3014 4.24511 20.4371 4.19177 20.578 4.19177C20.7188 4.19177 20.8542 4.24511 20.9575 4.34104L21.5158 4.811C21.6275 5.01239 23.8611 7.11574 24.1515 7.42901L24.1738 7.36181Z" fill="#ABABAB"/>
</svg>
