<svg xmlns="http://www.w3.org/2000/svg" viewBox="0 0 154.92 129.79"><defs><style>.cls-1{fill:#ffc4e3;}.cls-2{fill:#fff;stroke:#e5eae4;stroke-linecap:round;stroke-linejoin:round;stroke-width:2.77px;}.cls-3{fill:#009cea;}.cls-4{fill:#0082ea;}.cls-5{fill:#eae451;}.cls-6{fill:#fff500;}</style></defs><g id="Layer_2" data-name="Layer 2"><g id="레이어_1" data-name="레이어 1"><path class="cls-1" d="M103.86,128.27a311.69,311.69,0,0,1-61.54,0c-15.44-1.75-30.85-17.17-32.6-32.6a311.8,311.8,0,0,1,0-61.55c1.75-15.43,17.16-30.85,32.6-32.6a311.69,311.69,0,0,1,61.54,0c15.44,1.75,30.86,17.17,32.61,32.6a313.33,313.33,0,0,1,0,61.55C134.72,111.1,119.3,126.52,103.86,128.27Z"/><path class="cls-2" d="M147.89,18.23a2.7,2.7,0,0,0,1.86-3.36,3.72,3.72,0,0,0-3.41-2.33,1.52,1.52,0,0,0-.32-2.31,3.43,3.43,0,0,0-2.71-.27,2.58,2.58,0,0,0-2.83-2.89c-36.35-.26-48.69,19.75-48.69,19.75-26.37-13.08-50.34-.31-50.34-.31-1.11.47-2.37.69-2.72,2.51a1.85,1.85,0,0,0,.38,1.5c-1.51-.22-3.43,1.82-3.21,3.26a.78.78,0,0,1,0,.5c-.1.18-.35.2-.54.3A4.33,4.33,0,0,0,33.29,37c-.59,1.71.27,2.09,1.05,2.56,1.53.91,4-.41,5.79-.73a125.83,125.83,0,0,1,38.69-1,58.39,58.39,0,0,0,10.37.87c5.65-.27,11-2.51,16.13-4.65C119.39,28.22,133,21.66,147.89,18.23Z"/><path class="cls-3" d="M99.45,30.64s12.31-12.39,47.83-15.79c0,0,5.12-1.57,5.26,4.27s2.55,71.16,2.37,72.94-1.19,2.59-2.92,3.33-13.56,1.06-44.43,7.56c0,0-3.65,6-14.7,3,0,0-35.75.91-47.77,5.47,0,0-3.37.6-3.45-3.45s-9.39-66.36-9.39-66.36A5.88,5.88,0,0,1,36,36.76c5.6-2.56,23.65-10,50.69-3.87C86.72,32.89,95,33.39,99.45,30.64Z"/><path class="cls-4" d="M99.45,30.64C95,33.39,86.72,32.89,86.72,32.89l-.28-.06L92.94,106c11,2.93,14.62-3,14.62-3l.15,0c-1.23-13.36-5.35-56.56-7-73.39A15.87,15.87,0,0,0,99.45,30.64Z"/><path class="cls-4" d="M32.55,42.15a1.38,1.38,0,0,1-.67-.23,1.28,1.28,0,0,1-.34-1.84c4-5.4,27.67-14.8,55.38-8.5,1,0,7.89.26,11.67-2,1.47-1.34,15.15-12.81,51.82-15.22a1.35,1.35,0,0,1,1.48,1.22A1.34,1.34,0,0,1,150.61,17c-37.09,2.44-50,14.44-50.17,14.56l-.23.17c-4.79,3-13.23,2.49-13.58,2.47l-.24,0c-27.71-6.33-49.71,3.56-52.58,7.43A1.38,1.38,0,0,1,32.55,42.15Z"/><path class="cls-5" d="M111.32,35.17c4.55-2,18.25-7.54,30.93-7.44A2.52,2.52,0,0,1,144.86,30l.54,11.61A2.38,2.38,0,0,1,143.13,44a101.12,101.12,0,0,0-28.37,6.91,2.6,2.6,0,0,1-3.65-1.9l-1.19-11.54A2.24,2.24,0,0,1,111.32,35.17Z"/><path class="cls-6" d="M48.08,77.85a49.91,49.91,0,0,0-7.7-5.25C37,70.68,36,68.87,35.47,66.06a38.37,38.37,0,0,0-3.28-10.62,2.69,2.69,0,0,0-1.47-1.23,2.65,2.65,0,0,0-1.92.06,38.39,38.39,0,0,0-9.15,6.31c-2.11,1.91-4.08,2.66-7.9,2.1A49.69,49.69,0,0,0,2.45,62,2.32,2.32,0,0,0,.2,64.8,37.05,37.05,0,0,0,3.9,75c1.3,2.49,1.16,4.32,0,7-1.59,3.58-3,6.6-3.74,9-.57,1.77,1,3.28,2.89,3.36a77.09,77.09,0,0,0,9.84-.19,10.23,10.23,0,0,1,3.87.38A10.17,10.17,0,0,1,20,96.71a80,80,0,0,0,7.61,6.23c1.52,1.1,3.71.9,4.36-.85.89-2.39,1.68-5.62,2.64-9.41.72-2.85,1.74-4.38,4.31-5.53a37.52,37.52,0,0,0,9.23-5.74A2.31,2.31,0,0,0,48.08,77.85Z"/></g></g></svg>