<svg width="24" height="19" viewBox="0 0 24 19" fill="none" xmlns="http://www.w3.org/2000/svg">
<path d="M23.795 1.99377C23.795 0.498442 23.2909 0 21.7785 0C15.2248 0 8.67107 0 2.11735 0C0.604957 0 0 0.498442 0 1.99377C0 6.77882 0 11.6636 0 16.4486C0 17.9439 0.504131 18.4424 2.11735 18.4424C5.3438 18.4424 8.57025 18.4424 11.8975 18.4424C15.2248 18.4424 18.5521 18.4424 21.8793 18.4424C23.3917 18.4424 23.8959 17.9439 23.8959 16.4486C23.795 11.7632 23.795 6.8785 23.795 1.99377ZM22.2826 12.4611C21.3752 11.6636 20.6694 10.9657 19.8628 10.2679C18.7537 9.17134 18.3504 9.17134 17.2413 10.3676C16.4347 11.1651 15.6281 11.9626 14.8215 12.8598C13.3091 11.0654 11.7967 9.27103 10.2843 7.47664C9.88099 7.07788 9.57851 6.57944 9.1752 6.18068C8.26777 5.08411 7.66281 5.08411 6.75537 6.18068C5.24298 7.87539 3.73058 9.66978 2.21818 11.3645C2.01653 11.5639 1.9157 11.7632 1.81488 11.9626C1.71405 11.9626 1.71405 11.9626 1.61322 11.8629V1.89408C1.61322 1.79439 1.71405 1.6947 1.81488 1.6947H22.1818C22.2826 1.6947 22.3835 1.79439 22.3835 1.89408V12.4611H22.2826Z" fill="#C3C7C9"/>
<path d="M20.0647 5.58271C20.0647 6.67929 19.0564 7.67617 17.9473 7.67617C16.8382 7.67617 15.83 6.67929 15.9308 5.58271C15.9308 4.48614 16.9391 3.48926 18.0482 3.48926C19.0564 3.48926 20.0647 4.48614 20.0647 5.58271Z" fill="#C3C7C9"/>
</svg>
