<svg width="21" height="25" viewBox="0 0 21 25" fill="none" xmlns="http://www.w3.org/2000/svg">
<path d="M15.2 24.8H5.89999C3.99999 24.8 2.5 23.3001 2.5 21.4001V8.30005H18.6V21.4001C18.6 23.3001 17.1 24.8 15.2 24.8Z" fill="#3984F7"/>
<path d="M19.1 8.70007H1.70001C0.800012 8.70007 0 7.90006 0 7.00006V6.90005C0 6.00005 0.800012 5.20007 1.70001 5.20007H19.1C20 5.20007 20.8 6.00005 20.8 6.90005V7.00006C20.8 7.90006 20 8.70007 19.1 8.70007Z" fill="#FF70C8"/>
<path d="M15.0001 8C14.2001 8 13.5001 7.3 13.5001 6.5V3.39999C13.5001 3.19999 13.3001 3 13.1001 3H8.00009C7.80009 3 7.6001 3.19999 7.6001 3.39999V6.5C7.6001 7.3 6.9001 8 6.1001 8C5.3001 8 4.6001 7.3 4.6001 6.5V3.39999C4.6001 1.49999 6.10009 0 8.00009 0H13.1001C15.0001 0 16.5001 1.49999 16.5001 3.39999V6.5C16.5001 7.4 15.8001 8 15.0001 8Z" fill="#FF70C8"/>
<path d="M7.60007 20.6001C6.90007 20.6001 6.30005 20 6.30005 19.3V12.5001C6.30005 11.8001 6.90007 11.2001 7.60007 11.2001C8.30007 11.2001 8.90005 11.8001 8.90005 12.5001V19.3C8.90005 20 8.30007 20.6001 7.60007 20.6001Z" fill="#FFC720"/>
<path d="M13.5001 20.6001C12.8001 20.6001 12.2001 20 12.2001 19.3V12.5001C12.2001 11.8001 12.8001 11.2001 13.5001 11.2001C14.2001 11.2001 14.8 11.8001 14.8 12.5001V19.3C14.8 20 14.2001 20.6001 13.5001 20.6001Z" fill="#FFC720"/>
</svg>
