<svg width="25" height="25" viewBox="0 0 25 25" fill="none" xmlns="http://www.w3.org/2000/svg">
<path d="M22.525 10.725H14.725C14.325 10.725 13.925 10.325 13.925 9.92502V2.02502H10.725V9.82504C10.725 10.225 10.325 10.625 9.92496 10.625H3.22497C2.32497 10.625 1.62496 11.225 1.52496 12.125C1.42496 13.025 2.22496 13.825 3.12496 13.825H9.92496C10.325 13.825 10.725 14.225 10.725 14.625V21.325C10.725 22.225 11.325 22.925 12.225 23.025C13.125 23.125 13.925 22.325 13.925 21.425V14.625C13.925 14.225 14.325 13.825 14.725 13.825H22.525V10.725Z" fill="#FFC720"/>
<path d="M0.525 11.225L3.325 8.52496C4.125 7.82496 5.325 8.32495 5.325 9.42495V15.325C5.325 16.425 4.025 16.925 3.325 16.225L0.525 13.525C-0.175 12.825 -0.175 11.825 0.525 11.225Z" fill="#FF70C8"/>
<path d="M24.125 11.225L21.325 8.52496C20.525 7.82496 19.325 8.32495 19.325 9.42495V15.325C19.325 16.425 20.625 16.925 21.325 16.225L24.125 13.525C24.725 12.825 24.725 11.825 24.125 11.225Z" fill="#FF70C8"/>
<path d="M11.225 24.1251L8.52495 21.3251C7.82495 20.5251 8.32496 19.3251 9.42496 19.3251H15.325C16.425 19.3251 16.925 20.6251 16.225 21.3251L13.525 24.1251C12.825 24.7251 11.825 24.7251 11.225 24.1251Z" fill="#3984F7"/>
<path d="M11.225 0.525L8.52495 3.32502C7.82495 4.12502 8.32496 5.32502 9.42496 5.32502H15.325C16.425 5.32502 16.925 4.02502 16.225 3.32502L13.525 0.525C12.825 -0.175 11.825 -0.175 11.225 0.525Z" fill="#3984F7"/>
</svg>
