<svg width="23" height="22" viewBox="0 0 23 22" fill="none" xmlns="http://www.w3.org/2000/svg">
<path d="M22.0473 2.90643C21.9754 1.62901 20.9153 0.599976 19.6036 0.599976H3.61137C2.29965 0.599976 1.2395 1.62901 1.16762 2.90643C1.16762 2.92417 1.14966 2.94191 1.14966 2.95965V5.44352C1.14966 6.02901 1.63481 6.52578 2.24575 6.52578C2.69497 6.52578 3.09028 6.24191 3.25199 5.85158C3.34184 5.62094 3.53949 5.46126 3.79106 5.46126H8.12153C8.67857 5.46126 9.14576 5.90481 9.14576 6.47255V18.5193C9.14576 18.8387 8.87622 19.1048 8.55278 19.1048H7.78012C7.16919 19.1048 6.68403 19.5838 6.68403 20.1871C6.68403 20.7903 7.16919 21.2693 7.78012 21.2693H15.3989C15.9919 21.2693 16.495 20.7903 16.495 20.1871C16.495 19.5838 16.0098 19.1048 15.3989 19.1048H14.6262C14.3028 19.1048 14.0332 18.8387 14.0332 18.5193V6.47255C14.0332 5.92255 14.4825 5.46126 15.0575 5.46126H19.4059C19.6575 5.46126 19.8551 5.62094 19.945 5.85158C20.1067 6.24191 20.502 6.52578 20.9512 6.52578C21.5442 6.52578 22.0473 6.04675 22.0473 5.44352V2.95965C22.0653 2.94191 22.0473 2.92417 22.0473 2.90643Z" fill="#3984F7"/>
</svg>
