<svg width="37" height="36" viewBox="0 0 37 36" fill="none" xmlns="http://www.w3.org/2000/svg">
<path d="M35.2449 5.39403C35.1318 3.39459 33.464 1.78394 31.4004 1.78394H6.24195C4.1784 1.78394 2.5106 3.39459 2.39752 5.39403C2.39752 5.4218 2.36926 5.44957 2.36926 5.47734V9.36514C2.36926 10.2815 3.13249 11.0591 4.0936 11.0591C4.8003 11.0591 5.42218 10.6148 5.6766 10.0038C5.81794 9.64283 6.12888 9.3929 6.52463 9.3929H13.3372C14.2135 9.3929 14.9485 10.0872 14.9485 10.9758V29.8316C14.9485 30.3315 14.5245 30.748 14.0156 30.748H12.8001C11.839 30.748 11.0758 31.4978 11.0758 32.442C11.0758 33.3862 11.839 34.136 12.8001 34.136H24.7857C25.7186 34.136 26.5101 33.3862 26.5101 32.442C26.5101 31.4978 25.7468 30.748 24.7857 30.748H23.5702C23.0614 30.748 22.6373 30.3315 22.6373 29.8316V10.9758C22.6373 10.1149 23.3441 9.3929 24.2486 9.3929H31.0895C31.4852 9.3929 31.7962 9.64283 31.9375 10.0038C32.1919 10.6148 32.8138 11.0591 33.5205 11.0591C34.4533 11.0591 35.2449 10.3093 35.2449 9.36514V5.47734C35.2731 5.44957 35.2449 5.4218 35.2449 5.39403Z" fill="#09AD00"/>
</svg>
