<svg xmlns="http://www.w3.org/2000/svg" xmlns:xlink="http://www.w3.org/1999/xlink" viewBox="0 0 1137.47 256.29"><defs><style>.cls-1{isolation:isolate;}.cls-2{fill:#73432e;}.cls-3{fill:#009750;}.cls-4{fill:#0b7d58;}.cls-5{fill:#8fc048;}.cls-6{fill:#1e4397;}.cls-7{fill:#fbc82b;}.cls-8{fill:#e6a33d;}.cls-10,.cls-9{fill:#5e2a14;}.cls-10{opacity:0.35;}.cls-10,.cls-17,.cls-20,.cls-22,.cls-25,.cls-77,.cls-82{mix-blend-mode:multiply;}.cls-11{fill:#d28233;}.cls-12{fill:#fcd005;}.cls-13{fill:#fcd12b;}.cls-104,.cls-14,.cls-43,.cls-86,.cls-96{fill:#fff;}.cls-15{fill:#61bfed;}.cls-16{fill:#41b1e6;}.cls-17{fill:#231815;}.cls-17,.cls-22{opacity:0.23;}.cls-18,.cls-29{fill:#97050e;}.cls-19{fill:#c96e37;}.cls-20{fill:#49002f;}.cls-20,.cls-77{opacity:0.18;}.cls-21{fill:#e61f1f;}.cls-22{fill:#682319;}.cls-23{fill:#ffe593;}.cls-24{fill:#2573ba;}.cls-25{fill:#3c99bd;opacity:0.49;}.cls-103,.cls-105,.cls-26,.cls-42,.cls-47,.cls-62{fill:none;}.cls-26{stroke:#fff;stroke-width:1.89px;}.cls-26,.cls-29,.cls-42{stroke-miterlimit:10;}.cls-27{fill:#f6c153;}.cls-28{fill:#00793c;}.cls-29{stroke:#97050e;stroke-width:0.63px;}.cls-30{fill:#1967b2;}.cls-31{fill:#005c9d;}.cls-32{fill:#f8b714;}.cls-33{fill:#ffea00;}.cls-34{fill:#00823f;}.cls-35{fill:#daeffb;}.cls-36{fill:#7c9499;}.cls-37{fill:#00834b;}.cls-38{fill:#5ea52e;}.cls-39{fill:#8dc21f;}.cls-40{fill:#cf180c;}.cls-41{fill:#e62c0f;}.cls-42{stroke:#cf180c;stroke-width:0.62px;}.cls-104,.cls-43,.cls-86,.cls-96{stroke:#e2e3e4;}.cls-100,.cls-103,.cls-104,.cls-105,.cls-106,.cls-110,.cls-111,.cls-112,.cls-43,.cls-44,.cls-47,.cls-53,.cls-62,.cls-63,.cls-86,.cls-87,.cls-92,.cls-93,.cls-94,.cls-95,.cls-96,.cls-97,.cls-99{stroke-linecap:round;stroke-linejoin:round;}.cls-106,.cls-110,.cls-43,.cls-44,.cls-47,.cls-53,.cls-63,.cls-87,.cls-97{stroke-width:0.95px;}.cls-44,.cls-45{fill:#ee4025;}.cls-44{stroke:#ee4025;}.cls-46{fill:#d52f21;}.cls-47,.cls-62{stroke:#ef5023;}.cls-108,.cls-48,.cls-50,.cls-57,.cls-67,.cls-91,.cls-98{opacity:0.69;}.cls-49{fill:url(#radial-gradient);}.cls-50{fill:url(#radial-gradient-2);}.cls-51{fill:#3e1c0c;}.cls-52{fill:#ef5023;}.cls-53,.cls-54,.cls-87{fill:#00b9ec;}.cls-53{stroke:#00b9ec;}.cls-55{fill:#00a2de;}.cls-56{fill:url(#radial-gradient-3);}.cls-57{fill:url(#radial-gradient-4);}.cls-58{fill:#a64b15;}.cls-59{fill:#9d4713;}.cls-60{fill:#e4985c;}.cls-61{fill:#dc9050;}.cls-62{stroke-width:1.05px;}.cls-63,.cls-64{fill:#ffc30c;}.cls-63{stroke:#ffc30c;}.cls-65{fill:#faa819;}.cls-66{fill:url(#radial-gradient-5);}.cls-67{fill:url(#radial-gradient-6);}.cls-68{fill:#006824;}.cls-69{fill:#b25f18;}.cls-70{fill:#b04f19;}.cls-71{fill:#005616;}.cls-72{fill:#23864c;}.cls-73{fill:#117a3b;}.cls-74{fill:#ab3f1b;}.cls-75{fill:#a43416;}.cls-76{fill:#703c14;}.cls-77,.cls-82{fill:#000001;}.cls-78{fill:#262c38;}.cls-79{fill:#52565f;}.cls-80{fill:#9a441e;}.cls-81{fill:#00704f;}.cls-82{opacity:0.07;}.cls-83{fill:#aa6241;}.cls-84{fill:#8d2c01;}.cls-85{fill:#fefefe;}.cls-86{stroke-width:0.98px;}.cls-87{stroke:#00a2de;}.cls-88{fill:#e6420f;}.cls-89{fill:#432211;}.cls-90{fill:url(#radial-gradient-7);}.cls-91{fill:url(#radial-gradient-8);}.cls-92{fill:#ee1d35;stroke:#c80e2d;}.cls-92,.cls-93,.cls-94,.cls-95{stroke-width:0.82px;}.cls-111,.cls-93{fill:#fcf8d8;}.cls-100,.cls-111,.cls-93{stroke:#f2d491;}.cls-94{fill:#67c1ed;stroke:#49a9df;}.cls-95{fill:#118cca;stroke:#0077b9;}.cls-96{stroke-width:0.98px;}.cls-97{fill:#f182ac;stroke:#ef619a;}.cls-98{fill:url(#radial-gradient-9);}.cls-99{fill:#63c2d0;stroke:#06b4c0;}.cls-100,.cls-103,.cls-99{stroke-width:0.71px;}.cls-100,.cls-102{fill:#fff5d3;}.cls-101{fill:#00983b;}.cls-103{stroke:#00803b;}.cls-104{stroke-width:0.92px;}.cls-105{stroke:#e6420f;stroke-width:1.02px;}.cls-106,.cls-110{fill:#08c;}.cls-106{stroke:#08c;}.cls-107{fill:url(#radial-gradient-10);}.cls-108{fill:url(#radial-gradient-11);}.cls-109{fill:#314593;}.cls-110{stroke:#0077bf;}.cls-111,.cls-112{stroke-width:0.79px;}.cls-112{fill:#00549a;stroke:#02447e;}</style><radialGradient id="radial-gradient" cx="908.56" cy="-517.7" r="0.84" gradientTransform="matrix(1.93, 0.14, -0.13, 1.86, -1535.02, 1047.69)" gradientUnits="userSpaceOnUse"><stop offset="0" stop-color="#f9c9d5"/><stop offset="0.1" stop-color="#f9c9d5" stop-opacity="0.98"/><stop offset="0.22" stop-color="#f9cad6" stop-opacity="0.91"/><stop offset="0.37" stop-color="#f9cad7" stop-opacity="0.8"/><stop offset="0.52" stop-color="#f9cbd9" stop-opacity="0.65"/><stop offset="0.69" stop-color="#f9ccdc" stop-opacity="0.45"/><stop offset="0.86" stop-color="#f9cede" stop-opacity="0.22"/><stop offset="1" stop-color="#f9cfe1" stop-opacity="0"/></radialGradient><radialGradient id="radial-gradient-2" cx="763.7" cy="-460.28" r="0.84" gradientTransform="matrix(0, 1.61, -1.75, 0, -524.58, -1020.25)" xlink:href="#radial-gradient"/><radialGradient id="radial-gradient-3" cx="288.7" cy="556.15" r="1.71" gradientTransform="translate(16.71 -431.76) rotate(11.38)" xlink:href="#radial-gradient"/><radialGradient id="radial-gradient-4" cx="274.11" cy="556.15" r="1.71" gradientTransform="translate(16.71 -431.76) rotate(11.38)" xlink:href="#radial-gradient"/><radialGradient id="radial-gradient-5" cx="693.04" cy="-586.39" r="1.53" gradientTransform="translate(353.92 974.17) rotate(-18.27)" xlink:href="#radial-gradient"/><radialGradient id="radial-gradient-6" cx="682.47" cy="-585.37" r="1.71" gradientTransform="translate(353.92 974.17) rotate(-18.27)" xlink:href="#radial-gradient"/><radialGradient id="radial-gradient-7" cx="961.7" cy="362.23" r="1.59" gradientTransform="translate(-62.02 -218.67) rotate(3.66)" gradientUnits="userSpaceOnUse"><stop offset="0" stop-color="#f8d1de"/><stop offset="0.1" stop-color="#f8d1de" stop-opacity="0.98"/><stop offset="0.22" stop-color="#f8d1df" stop-opacity="0.91"/><stop offset="0.37" stop-color="#f8d2e0" stop-opacity="0.8"/><stop offset="0.52" stop-color="#f8d3e1" stop-opacity="0.65"/><stop offset="0.69" stop-color="#f9d4e3" stop-opacity="0.45"/><stop offset="0.86" stop-color="#f9d5e5" stop-opacity="0.22"/><stop offset="1" stop-color="#f9d6e7" stop-opacity="0"/></radialGradient><radialGradient id="radial-gradient-8" cx="722.66" cy="-571.99" r="1.78" gradientTransform="translate(353.74 974.2) rotate(-18.27)" xlink:href="#radial-gradient-7"/><radialGradient id="radial-gradient-9" cx="-241.26" cy="586.55" r="1.74" gradientTransform="translate(1310.32 -308.03) rotate(16.1)" xlink:href="#radial-gradient-7"/><radialGradient id="radial-gradient-10" cx="-428.1" cy="-892.4" r="1.49" gradientTransform="translate(1392.86 1000.69) rotate(-11.16)" xlink:href="#radial-gradient-7"/><radialGradient id="radial-gradient-11" cx="-438.35" cy="-891.41" r="1.66" gradientTransform="translate(1392.86 1000.69) rotate(-11.16)" xlink:href="#radial-gradient-7"/></defs><title>Asset 17</title><g class="cls-1"><g id="Layer_2" data-name="Layer 2"><g id="Layer_1-2" data-name="Layer 1"><rect class="cls-2" x="59.39" y="174.59" width="4.36" height="31.33" transform="translate(-17.35 6.52) rotate(-5.31)"/><path class="cls-3" d="M71.28,162c1.18,12.68-3.73,19.26-10.49,19.89s-12.8-4.94-14-17.62,3.46-25,10.23-25.61S70.11,149.3,71.28,162Z"/><rect class="cls-2" x="76.9" y="172.97" width="4.36" height="31.33" transform="translate(-17.13 8.13) rotate(-5.31)"/><path class="cls-4" d="M88.8,160.35C90,173,85.06,179.61,78.31,180.24s-12.81-4.94-14-17.62,3.47-25,10.23-25.61S87.62,147.67,88.8,160.35Z"/><path class="cls-5" d="M391.11,253.66a114.45,114.45,0,0,0-17.92-25.87c-23.3-25.27-53.44-34.33-88.57-40.8-114.4-21.07-200,.45-230.95,15.66a132.14,132.14,0,0,0-38.74,29.12A108.6,108.6,0,0,0,0,254.66Z"/><path class="cls-5" d="M1137.47,253.66a118,118,0,0,0-22.75-25.87c-34.79-29.7-74.45-36.61-112.49-40.8,0,0-171.72-18.93-272.14,19.09-23.14,8.76-32.33,21-36,26.78a59.54,59.54,0,0,0-8.37,23.43Z"/><path class="cls-6" d="M177.62,2.79h0A1.36,1.36,0,0,1,179,4.15V23.69a0,0,0,0,1,0,0h-2.72a0,0,0,0,1,0,0V4.15a1.36,1.36,0,0,1,1.36-1.36Z"/><circle class="cls-6" cx="177.54" cy="3.23" r="3.23"/><polygon class="cls-7" points="249.49 118.28 245.82 193.14 111.58 193.14 104.58 118.91 176.23 69.94 249.49 118.28"/><rect class="cls-8" x="109.54" y="187.01" width="137.89" height="6.82" rx="1.12"/><path class="cls-7" d="M200.47,42.16c0,.19,0,1.4-.13,3.36,0,.93-.09,2-.14,3.28-.52,12.21-1.52,37.89-.52,48.75H156.39l-1.52-48.84-.1-3.31-.05-1.75L178,28.15Z"/><path class="cls-9" d="M187.71,61.24H168.34V46.65a7.09,7.09,0,0,1,1.82-4.84,10.63,10.63,0,0,1,15.46-.3,7.3,7.3,0,0,1,2.09,5.14Z"/><path class="cls-10" d="M184.76,40.72a11,11,0,0,0-2.87-.57,10.75,10.75,0,0,0-8.47,3.48,7.09,7.09,0,0,0-1.82,4.84V61.25h-3.26V46.65a7.11,7.11,0,0,1,1.82-4.84,10.63,10.63,0,0,1,14.6-1.09Z"/><path class="cls-11" d="M172.6,50.76a6.18,6.18,0,0,1-1.27,2.41S172.54,55,177.82,55c6.11,0,6.9-1.87,6.9-1.86a6.46,6.46,0,0,1-1.27-2.41Z"/><circle class="cls-12" cx="177.87" cy="54.06" r="1.9"/><rect class="cls-12" x="177.46" y="49.78" width="1.03" height="3.11"/><path class="cls-13" d="M182.94,47.92a6.6,6.6,0,0,0-3.07-5.11,4.17,4.17,0,0,0-5.42,1.49,8,8,0,0,0-1.33,3.62c-.26,2-.46,3.68-1.79,5.25,0,0,1.42-1.33,6.7-1.33,6.1,0,6.69,1.32,6.69,1.33C183.4,51.6,183.2,49.89,182.94,47.92Z"/><path class="cls-14" d="M176.88,43.85a7.27,7.27,0,0,0-1.43,1.71,7.05,7.05,0,0,0-.79,2.08.22.22,0,0,1-.26.17.23.23,0,0,1-.18-.23,5.16,5.16,0,0,1,.69-2.34,4.61,4.61,0,0,1,1.73-1.72.2.2,0,0,1,.28.08A.21.21,0,0,1,176.88,43.85Z"/><path class="cls-15" d="M144.23,173.07H119.57l-.23-29.64a12.12,12.12,0,0,1,12.36-12h.14a12.21,12.21,0,0,1,12.43,12Z"/><path class="cls-16" d="M124.43,142.68c.26-3.82,6.39-9.9,17.74-5.6a.72.72,0,0,0,.21,0,12.53,12.53,0,0,0-10.54-5.65h-.14a12.12,12.12,0,0,0-12.36,12l.23,29.64h3.58C123.48,170.58,124.16,146.84,124.43,142.68Z"/><path class="cls-14" d="M131.83,130.19h-.13A13.4,13.4,0,0,0,118,143.43l.25,30.86h27.22l.06-30.86A13.5,13.5,0,0,0,131.83,130.19ZM143,143.43v8.89h-9.84l-.06-19.55A10.91,10.91,0,0,1,143,143.43Zm-12.51-10.66.07,19.55H120.7l-.07-8.89A10.83,10.83,0,0,1,130.47,132.77Zm-9.75,22h9.83l.06,17h-9.77Zm12.46,17-.05-17H143l0,17Z"/><path class="cls-15" d="M238.33,173.07H213.66l-.23-29.64a12.12,12.12,0,0,1,12.36-12h.14a12.22,12.22,0,0,1,12.44,12Z"/><path class="cls-16" d="M218.53,142.68c.25-3.82,6.38-9.9,17.73-5.6a.79.79,0,0,0,.22,0,12.56,12.56,0,0,0-10.55-5.65h-.14a12.12,12.12,0,0,0-12.36,12l.23,29.64h3.58C217.58,170.58,218.26,146.84,218.53,142.68Z"/><path class="cls-14" d="M225.93,130.19h-.14a13.4,13.4,0,0,0-13.66,13.24l.26,30.86h27.22l.06-30.86A13.5,13.5,0,0,0,225.93,130.19Zm11.14,13.24v8.89h-9.84l-.05-19.55A10.89,10.89,0,0,1,237.07,143.43Zm-12.51-10.66.07,19.55h-9.84l-.06-8.89A10.82,10.82,0,0,1,224.56,132.77Zm-9.75,22h9.83l.07,17h-9.78Zm12.46,17,0-17h9.83l0,17Z"/><path class="cls-17" d="M200.58,144.5,200,182.05H155l-.11-37.55c0-11.45,10.28-20.85,23-20.85S200.76,133.05,200.58,144.5Z"/><path class="cls-18" d="M166.54,140.84a11.13,11.13,0,0,1,2.54-3.54,12.85,12.85,0,0,1,17.63.22,10.58,10.58,0,0,1,2.24,3.32h14.72a24.28,24.28,0,0,0-6.75-13.11,26.88,26.88,0,0,0-19.09-7.86,27.2,27.2,0,0,0-19.13,7.83,24.52,24.52,0,0,0-6.89,13.14Z"/><path class="cls-14" d="M198.62,145l-.53,37.06h-3.42l.47-37.06c.12-9.06-7.64-16.45-17.33-16.45a18.08,18.08,0,0,0-12.41,4.84A15.91,15.91,0,0,0,160.29,145l0,37.06H156.9L156.82,145c0-10.85,9.4-19.75,21-19.75S198.77,134.14,198.62,145Z"/><path class="cls-14" d="M198.62,145l-.53,37.06h-3.42l.47-37.06c.12-9.06-7.64-16.45-17.33-16.45a18.08,18.08,0,0,0-12.41,4.84A15.91,15.91,0,0,0,160.29,145l0,37.06H156.9L156.82,145c0-10.85,9.4-19.75,21-19.75S198.77,134.14,198.62,145Z"/><path class="cls-19" d="M195.14,145l-.48,37.06H160.31l0-37.06a15.78,15.78,0,0,1,4.36-10.85c.24-.26.5-.51.76-.76a16,16,0,0,1,1.25-1.07,17.76,17.76,0,0,1,5.77-3,15.11,15.11,0,0,1,2-.49,18.69,18.69,0,0,1,3.37-.31,17.28,17.28,0,0,1,2.4.16,18.56,18.56,0,0,1,2,.36,17.91,17.91,0,0,1,5.77,2.56,18.32,18.32,0,0,1,2,1.6A15.72,15.72,0,0,1,195.14,145Z"/><path class="cls-20" d="M166.66,132.31v49.74h-2V134.14c.24-.26.5-.51.76-.76A16,16,0,0,1,166.66,132.31Z"/><path class="cls-20" d="M174.44,128.85v53.2h-2V129.34A15.11,15.11,0,0,1,174.44,128.85Z"/><path class="cls-20" d="M182.21,129.06v53h-2V128.7A18.56,18.56,0,0,1,182.21,129.06Z"/><path class="cls-20" d="M190,133.22v48.83h-2V131.62A18.32,18.32,0,0,1,190,133.22Z"/><path class="cls-21" d="M200.27,140.72a.46.46,0,0,1-.47-.28c-.94-11.47-15.75-18.35-26-16.29-8,1.6-16.78,7.6-17.78,16.28,0,.12-.21.29-.49.29H148a.59.59,0,0,1-.44-.18.25.25,0,0,1-.07-.19c.89-13.58,14.81-23.12,27.46-24.27,12.07-1.09,24.88,5.14,30.67,16a21,21,0,0,1,2.64,8.3.24.24,0,0,1-.07.19.59.59,0,0,1-.45.19Z"/><path class="cls-22" d="M167.65,160.66a2.53,2.53,0,1,1-2.53-2.53A2.53,2.53,0,0,1,167.65,160.66Z"/><path class="cls-12" d="M167.72,159.9a2.6,2.6,0,1,1-2.6-2.51A2.56,2.56,0,0,1,167.72,159.9Z"/><path class="cls-23" d="M164.81,159.37a.77.77,0,0,1-.79.73.73.73,0,1,1,.79-.73Z"/><ellipse class="cls-24" cx="178.19" cy="145.21" rx="8.63" ry="8.45"/><ellipse class="cls-24" cx="178.19" cy="145.21" rx="8.63" ry="8.45"/><path class="cls-25" d="M186.13,148.54a6.44,6.44,0,0,0,.06-.89,7.07,7.07,0,1,0-12.13,5,8.45,8.45,0,0,1-4.5-7.42,8.64,8.64,0,0,1,17.27,0A8.19,8.19,0,0,1,186.13,148.54Z"/><ellipse class="cls-26" cx="178.19" cy="145.21" rx="8.63" ry="8.45"/><path class="cls-17" d="M222.46,102.5c-8.63-5.41-15-9.4-23.39-14.94q-11.35-7.47-22-14.91v-.08l-.06,0-.06,0v.08q-21.63,14.91-45.4,29.85-13.62,8.53-27,16.41l.42,4.38q15.06-8.43,30.84-18.17C150.51,96,164.23,86.87,177,77.82c12.74,9.05,26.46,18.21,41.17,27.3q15.88,9.81,31.07,18.21c.07-1.39.14-2.78.22-4.17C238.59,112.56,229.43,106.87,222.46,102.5Z"/><rect class="cls-27" x="177.08" y="38.72" width="1.62" height="3.99"/><path class="cls-26" d="M187.71,61.24H168.34V46.65a7.09,7.09,0,0,1,1.82-4.84,10.63,10.63,0,0,1,15.46-.3,7.3,7.3,0,0,1,2.09,5.14Z"/><path class="cls-21" d="M209.93,41l-11.45-5.47,1.72-1.88-12-4.93,1.19-1.88-11.89-5.07v0h0v0l-11.89,5.07,1.19,1.88-12,4.93,1.72,1.88L145,41l3.25,4.45,29.22-18.86,29.22,18.86Z"/><path class="cls-17" d="M200.34,45.52c0,.93-.09,2-.14,3.28L177.46,34.48,154.87,48.71l-.1-3.31,22.67-14.64v0h0v0Z"/><path class="cls-14" d="M205.56,47,177.48,28.87v0l0,0,0,0v0L149.36,47,151,49.26l26.46-16.67,26.46,16.67Z"/><path class="cls-18" d="M206.68,45.45,177.48,26.6v0l0,0,0,0v0l-29.2,18.85L149.36,47l28.1-18.14L205.56,47Z"/><path class="cls-18" d="M222.9,96.18c-7.6-4.75-14.44-9-23.52-15q-11.41-7.51-22.12-15v0l0,0,0,0v0q-10.71,7.49-22.12,15c-9,5.89-15.69,10.11-23.53,15-8.28,5.19-19.09,11.87-32,19.59l2.25,2.22c11-6.24,22.52-12,34-19.19,14.64-9.16,28.43-18.35,41.39-27.45,12.59,9.07,26.38,18.31,41.39,27.45,11.57,7,22.84,13.43,33.7,19.19l2.59-2.22C242,108.07,231.21,101.38,222.9,96.18Z"/><path class="cls-21" d="M177.25,61.3v5.45c-3.13,2.19-6.3,4.39-9.53,6.57l-.15.11-.89.61-.15.1c-3.15,2.14-6.34,4.27-9.58,6.42l-.21.14-.85.56-.21.13q-4.85,3.19-9.83,6.4l-1.06.69q-4.89,3.13-9.92,6.27l-1.07.67-2.25,1.39q-4.43,2.75-8.8,5.39l-1.09.65c-3.73,2.26-7.44,4.45-11.12,6.61l-1.09.64q-5,2.9-9.86,5.67c-.88-1.31-3.6-5.52-3.6-5.52l10.59-4.68,1.17-.51.11,0-1-1.48,11.77-5.44,1.16-.54.07,0-.45-1.15,11.48-5.52.94-.45-.15-.23-1-1.38,11.45-4.5,1-.38-1.06-2h0l.07,0,10.82-4.83.23-.1.93-.42h0l-.79-1.27-.25-.41,10.73-5,.17-.07,1-.46-.29-.5-.69-1.18-.27-.47S175.5,62.33,177.25,61.3Z"/><path class="cls-22" d="M110.54,109.46l-1.09.64-2.87-4.53,1.17-.51Z"/><path class="cls-22" d="M122.75,102.2l-1.09.65-3-4.76,1.16-.54Z"/><path class="cls-22" d="M134.87,94.75l-1.07.67-2.9-4.57.95-.45-.16-.23.2-.12Z"/><path class="cls-22" d="M145.86,87.79l-1.07.69-2.65-4.19,1-.38-1.06-2,.06,0Z"/><path class="cls-22" d="M156.74,80.7l-.85.56-.21.13-2.75-4.34.23-.1.93-.42Z"/><path class="cls-22" d="M167.57,73.43l-.89.61-.15.1-2.74-4.32.17-.07,1-.46-.29-.5Z"/><path class="cls-21" d="M258.52,110.25s-2.73,4.21-3.61,5.52Q250,113,245.05,110.1l-1.08-.64c-3.69-2.16-7.39-4.35-11.13-6.61l-1.08-.65q-4.39-2.65-8.81-5.39l-2.25-1.39-1.06-.67q-5-3.14-9.93-6.27l-1.06-.69q-5-3.2-9.83-6.4l-.21-.13-.84-.56-.21-.14c-3.24-2.15-6.43-4.28-9.58-6.42l-.15-.1-.89-.61-.16-.11c-3.22-2.18-6.39-4.38-9.53-6.57V61.3c1.76,1,13.58,5.84,13.58,5.84l-.27.47-.68,1.18-.3.5,1,.46.16.07,10.73,5-.24.41-.8,1.27h0l.94.42.23.1,10.82,4.83.06,0h0l-1,2,1,.38,11.44,4.5-1,1.38-.16.23.94.45,11.49,5.52-.45,1.15.07,0,1.15.54,11.77,5.44-1,1.48.12,0,1.16.51Z"/><path class="cls-22" d="M247.92,105.57l-2.87,4.53-1.08-.64,2.79-4.4Z"/><path class="cls-22" d="M235.86,98.09l-3,4.76-1.08-.65,3-4.65Z"/><path class="cls-22" d="M219.64,94.75l1.06.67,2.9-4.57-.94-.45.16-.23-.2-.12Z"/><path class="cls-22" d="M208.65,87.79l1.06.69,2.66-4.19-1-.38,1.06-2-.06,0Z"/><path class="cls-22" d="M197.77,80.7l.85.56a1.37,1.37,0,0,1,.2.13l2.76-4.34-.23-.1-.93-.42Z"/><path class="cls-22" d="M186.94,73.43l.89.61.15.1,2.73-4.32-.16-.07-1-.46.3-.5Z"/><path class="cls-14" d="M222.46,100.6q-24.09-14.91-45.39-29.85v-.07l-.06,0-.06,0v.07q-21.31,14.88-45.4,29.85c-10.84,6.72-19.26,11.45-29.71,17.39l2.52,3.76c11-6.24,20-11.35,31.48-18.53C150.4,94.12,164.11,85,177,75.92c12.89,9,26.61,18.2,41.17,27.3,11.48,7.18,20.63,12.29,31.62,18.53l2.52-3.76C241.88,112.05,233.31,107.32,222.46,100.6Z"/><path class="cls-28" d="M140.5,196.43a1.7,1.7,0,0,0,1.6-2.19.88.88,0,0,0,0-.15,1.92,1.92,0,0,0-2.44-1,2.38,2.38,0,0,0-.36-2.43,2.23,2.23,0,0,0-2.85-.37,2.57,2.57,0,0,0,.53-3.67,2.39,2.39,0,0,0-3.56-.09,2.57,2.57,0,0,0-.8-2.58,2.38,2.38,0,0,0-2.67-.27,3.08,3.08,0,0,0-2.4-2.39,3,3,0,0,0-2.85,1.1,3.54,3.54,0,0,0-4.54-2.39,3.71,3.71,0,0,0-2.14,4.69,2.46,2.46,0,0,0-4.72,0,2.74,2.74,0,0,0-3-.85,3,3,0,0,0-1.58,3.6,2.76,2.76,0,0,0-2.94.28,3.11,3.11,0,0,0-.27,4.13,2.7,2.7,0,0,0-3.13,1.48,2.87,2.87,0,0,0,0,2.51,1.64,1.64,0,0,0,1.5.92,10,10,0,0,0,2.39.61,10.29,10.29,0,0,0,4.8-.56,29.08,29.08,0,0,0,4.64.78,30.06,30.06,0,0,0,10.86-1.06,33.19,33.19,0,0,0,5.09.69A32.71,32.71,0,0,0,140.5,196.43Z"/><path class="cls-29" d="M149.51,112.2l-2.76-16.43A1.49,1.49,0,0,1,148.12,94l7.95-.36c3-4.29,10.68-7.09,19.77-7.09s16.73,2.8,19.78,7.09l7.94.36a1.48,1.48,0,0,1,1.37,1.73l-2.76,16.43a1.48,1.48,0,0,1-1.46,1.23H151A1.48,1.48,0,0,1,149.51,112.2Z"/><path class="cls-21" d="M149.33,111.45,146.57,95a1.48,1.48,0,0,1,1.37-1.73l7.94-.37c3-4.29,10.68-7.08,19.78-7.08s16.73,2.79,19.77,7.08l7.95.37A1.5,1.5,0,0,1,204.75,95L202,111.45a1.47,1.47,0,0,1-1.46,1.23H150.79A1.48,1.48,0,0,1,149.33,111.45Z"/><path class="cls-30" d="M194,95.32c-1.79-4-9.3-7-18.3-7s-16.52,3-18.31,7l-7.95.36a.19.19,0,0,0-.17.22l2.38,14.15a.18.18,0,0,0,.18.16h47.74a.19.19,0,0,0,.18-.16l2.38-14.15a.19.19,0,0,0-.17-.22Z"/><path class="cls-31" d="M202.09,95.9l-.1.55c-2.08-.14-6.05-.27-8.14-.4-1.75-4-9.09-7-17.89-7s-16.15,3-17.9,7l-7.81.37a.17.17,0,0,0-.17.21l2.22,13.57h-.51a.17.17,0,0,1-.18-.15L149.23,95.9a.19.19,0,0,1,.17-.22l7.95-.36c1.79-4,9.31-7,18.31-7s16.51,3,18.3,7l8,.36A.19.19,0,0,1,202.09,95.9Z"/><path class="cls-31" d="M190.85,94.41a.79.79,0,0,0-.45-.41.77.77,0,0,0-1,.45l-.66,1.64a.35.35,0,0,1-.51.2.35.35,0,0,1-.23-.5l.66-1.64a.79.79,0,1,0-1.47-.59l-.43,1,.07-1.13a.92.92,0,0,0-.72-1c-.69-.16-1,.29-1.32.87l-.11.18,0-.22c-.06-.67-.11-1.2-.8-1.36a.92.92,0,0,0-1.09.59l-.68,1.58-.4-1.59c-.11-.44-.26-1-.94-1.11s-1,.46-1.17.86l-.65,1.25,0-1.47a.77.77,0,0,0-.77-.83h0a.76.76,0,0,0-.79.78l0,.71-.75-1c-.29-.38-.45-.59-.85-.6a.77.77,0,0,0-.57.2.79.79,0,0,0-.25.58l0,1.49-.59-1.31c-.18-.41-.42-1-1.12-.92s-.86.62-1,1l-.38,1.18a2.22,2.22,0,0,0-.74-1.33,2.05,2.05,0,0,0-1.64-.43l-1,.15a.78.78,0,0,0-.68.89l.22,1.48L167.1,93c-.26-.36-.61-.87-1.28-.7s-.73.78-.78,1.22L164.86,95a1.28,1.28,0,0,0-.51-.31,1.07,1.07,0,0,0,0-.61,1.27,1.27,0,0,0-.72-.75,1.45,1.45,0,0,0-1.08,0l-.93.36a.77.77,0,0,0-.47,1l1,2.63a.75.75,0,0,0,.41.43.64.64,0,0,0,.31.07.77.77,0,0,0,.3-.06l1-.37a1.92,1.92,0,0,0,.9-.66l.14.08a.71.71,0,0,0,.32.07.85.85,0,0,0,.23,0,.83.83,0,0,0,.62-.83V96l.83-.21.05.07a.82.82,0,0,0,.93.44.87.87,0,0,0,.44-.27.69.69,0,0,0,.32.08H169l1-.15a2.07,2.07,0,0,0,1.34-.75.63.63,0,0,0,.26.36.78.78,0,0,0,.48.15h.06a.81.81,0,0,0,.75-.71l0-.07.86,0,0,.08a.81.81,0,0,0,.83.6.88.88,0,0,0,.47-.16.77.77,0,0,0,.46.15.78.78,0,0,0,.82-.78l0-.71.74,1c.28.37.45.59.86.61h0a.78.78,0,0,0,.43-.13.83.83,0,0,0,1.32-.37l0-.07.86.1v.08a.82.82,0,0,0,.71.74h.12a.83.83,0,0,0,.32-.07.8.8,0,0,0,.32.16.86.86,0,0,0,1-.64l0-.09,0,.34a.85.85,0,0,0,1.59.38l.18-.29v.09a.87.87,0,0,0,.64,1l.18,0a.76.76,0,0,0,.43-.14.58.58,0,0,0,.18-.17s0,0,0,.08a2,2,0,0,0,1.13,1,2.33,2.33,0,0,0,.84.17,1.82,1.82,0,0,0,1.72-1.2l.66-1.64A.82.82,0,0,0,190.85,94.41Zm-21.18.09h-.08l-.2-1.35h.12a.52.52,0,0,1,.44.09.8.8,0,0,1,.22.47C170.27,94.42,169.84,94.48,169.67,94.5Zm-6.1,1.59-.07,0-.15.06h0l.16-.06Z"/><path class="cls-14" d="M161.45,94.37a.4.4,0,0,1,.25-.54l.94-.36A1,1,0,0,1,164,94a.82.82,0,0,1-.17.81.88.88,0,0,1,1,.56c.21.54,0,1.17-.82,1.5l-1,.37a.39.39,0,0,1-.54-.23Zm1.15.63.37-.14a.34.34,0,0,0,.24-.46c-.08-.21-.26-.26-.49-.18l-.36.14Zm.53,1.39.5-.2c.27-.1.45-.27.35-.53s-.38-.25-.61-.16l-.5.19Z"/><path class="cls-14" d="M165.41,93.26c.05-.43.09-.8.5-.9s.64.2.88.55l1.33,1.88a1.43,1.43,0,0,1,.24.47c0,.19-.08.36-.31.42s-.4-.07-.53-.28l-.19-.29-1.35.34,0,.35c0,.24-.07.43-.34.5a.36.36,0,0,1-.48-.23,1.4,1.4,0,0,1,0-.52Zm.75,0h0l-.11,1.4.86-.22Z"/><path class="cls-14" d="M168.08,92.35a.4.4,0,0,1,.36-.47l1-.15a1.82,1.82,0,0,1,.53,3.6l-1,.15a.4.4,0,0,1-.48-.35Zm1.2,2.31.45-.07a.93.93,0,0,0,.8-1.2.9.9,0,0,0-1.07-.88l-.49.07Z"/><path class="cls-14" d="M172.51,92.06c.13-.41.24-.77.66-.79s.59.31.77.71l.94,2.1a1.43,1.43,0,0,1,.15.5c0,.21-.15.35-.39.36s-.38-.15-.47-.38l-.12-.32-1.4.08-.08.34c-.07.23-.15.41-.43.42a.35.35,0,0,1-.42-.31,1.28,1.28,0,0,1,.09-.52Zm.74.13h0l-.38,1.35.89-.05Z"/><path class="cls-14" d="M175.27,91.66a.41.41,0,0,1,.44-.43c.22,0,.3.11.57.46l1.37,1.77h0l.05-1.73a.41.41,0,0,1,.44-.43.4.4,0,0,1,.41.45l-.08,2.82A.4.4,0,0,1,178,95c-.23,0-.31-.1-.58-.46l-1.36-1.76h0L176,94.5a.4.4,0,0,1-.44.43.4.4,0,0,1-.41-.45Z"/><path class="cls-14" d="M179.87,92.15c.2-.38.37-.71.79-.66s.52.41.63.83l.56,2.23a1.36,1.36,0,0,1,.07.53.36.36,0,0,1-.45.28c-.28,0-.35-.21-.4-.45l-.06-.34-1.39-.16-.14.31c-.11.22-.22.38-.5.35s-.39-.18-.36-.39a1.27,1.27,0,0,1,.18-.49Zm.71.26h0L180,93.68l.89.1Z"/><path class="cls-14" d="M183.07,92.39a.55.55,0,0,1,.67-.38c.41.1.45.36.51,1l.12,1.32h0l.69-1.12c.36-.59.5-.8.92-.7a.54.54,0,0,1,.43.63l-.11,1.9a9.14,9.14,0,0,1-.07.92.39.39,0,0,1-.48.29c-.37-.09-.38-.36-.35-.64l.12-1.63h0l-1,1.6a.48.48,0,0,1-.91-.21l-.14-1.87h0l-.62,1.52c-.11.26-.23.5-.61.41A.38.38,0,0,1,182,95a8.31,8.31,0,0,1,.34-.86Z"/><path class="cls-14" d="M187.62,95.38a.77.77,0,0,0,1.43.58l.66-1.64a.4.4,0,0,1,.56-.25.4.4,0,0,1,.23.56l-.66,1.64a1.62,1.62,0,0,1-3-1.21l.66-1.64a.43.43,0,1,1,.79.32Z"/><path class="cls-32" d="M154.33,105.94c.45,0,1,.47,2,.47.73,0,1-.37,1-.77,0-.62-.71-.74-1.77-1.09s-2-.72-2-2.2c0-1.78,1.39-2.62,2.94-2.62s2.32.52,2.32,1.23a.81.81,0,0,1-.83.87c-.59,0-.79-.31-1.58-.31-.51,0-.85.26-.85.67s.46.52,1.74,1a2.37,2.37,0,0,1,2,2.4c0,1.88-1.39,2.73-3.12,2.73-1.09,0-2.75-.42-2.75-1.34A.91.91,0,0,1,154.33,105.94Z"/><path class="cls-32" d="M164.08,99.73c1.13,0,2.47.32,2.47,1.3a.85.85,0,0,1-.8.88c-.44,0-.9-.39-1.62-.39-1.51,0-2.1,1.22-2.1,2.48s.66,2.41,1.94,2.41,1.34-.38,1.82-.38a.79.79,0,0,1,.83.86c0,1-1.55,1.38-2.57,1.38a4.28,4.28,0,0,1,0-8.54Z"/><path class="cls-32" d="M169.13,107.17a.93.93,0,1,1-1.86,0v-6.34a.93.93,0,1,1,1.86,0V103h3.47v-2.21a.93.93,0,1,1,1.86,0v6.34a.93.93,0,1,1-1.86,0v-2.41h-3.47Z"/><path class="cls-32" d="M183.41,104c0,2.59-1.6,4.27-4,4.27s-4-1.68-4-4.27,1.6-4.27,4-4.27S183.41,101.41,183.41,104Zm-6,0c0,1.3.59,2.55,2,2.55s2-1.25,2-2.55-.58-2.55-2-2.55S177.37,102.7,177.37,104Z"/><path class="cls-32" d="M192.16,104c0,2.59-1.6,4.27-4,4.27s-4-1.68-4-4.27,1.6-4.27,4-4.27S192.16,101.41,192.16,104Zm-6,0c0,1.3.58,2.55,2,2.55s2-1.25,2-2.55-.59-2.55-2-2.55S186.12,102.7,186.12,104Z"/><path class="cls-32" d="M193.07,100.83a.93.93,0,1,1,1.86,0v5.53h2a.87.87,0,1,1,0,1.73H194a.9.9,0,0,1-.93-.93Z"/><path class="cls-33" d="M154.33,105.44c.45,0,1,.47,2,.47.73,0,1-.36,1-.77,0-.62-.71-.74-1.77-1.09s-2-.72-2-2.2c0-1.78,1.39-2.62,2.94-2.62s2.32.52,2.32,1.23a.81.81,0,0,1-.83.87c-.59,0-.79-.31-1.58-.31-.51,0-.85.27-.85.67s.46.53,1.74,1a2.37,2.37,0,0,1,2,2.4c0,1.88-1.39,2.73-3.12,2.73-1.09,0-2.75-.42-2.75-1.34A.91.91,0,0,1,154.33,105.44Z"/><path class="cls-33" d="M164.08,99.23c1.13,0,2.47.32,2.47,1.3a.84.84,0,0,1-.8.88c-.44,0-.9-.39-1.62-.39-1.51,0-2.1,1.22-2.1,2.48s.66,2.41,1.94,2.41,1.34-.38,1.82-.38a.79.79,0,0,1,.83.87c0,1-1.55,1.37-2.57,1.37a4.28,4.28,0,0,1,0-8.54Z"/><path class="cls-33" d="M169.13,106.67a.93.93,0,1,1-1.86,0v-6.34a.93.93,0,1,1,1.86,0v2.21h3.47v-2.21a.93.93,0,1,1,1.86,0v6.34a.93.93,0,1,1-1.86,0v-2.41h-3.47Z"/><path class="cls-33" d="M183.41,103.5c0,2.6-1.6,4.27-4,4.27s-4-1.67-4-4.27,1.6-4.27,4-4.27S183.41,100.91,183.41,103.5Zm-6,0c0,1.3.59,2.55,2,2.55s2-1.25,2-2.55-.58-2.55-2-2.55S177.37,102.21,177.37,103.5Z"/><path class="cls-33" d="M192.16,103.5c0,2.6-1.6,4.27-4,4.27s-4-1.67-4-4.27,1.6-4.27,4-4.27S192.16,100.91,192.16,103.5Zm-6,0c0,1.3.58,2.55,2,2.55s2-1.25,2-2.55-.59-2.55-2-2.55S186.12,102.21,186.12,103.5Z"/><path class="cls-33" d="M193.07,100.33a.93.93,0,1,1,1.86,0v5.54h2a.82.82,0,0,1,.93.86.83.83,0,0,1-.93.86H194a.9.9,0,0,1-.93-.93Z"/><path class="cls-34" d="M227.13,189.82c-.27-.59-2.55-.06-3.68.21a18.8,18.8,0,0,0-3.94,1.39,12.76,12.76,0,0,0,3.08-2.67c1.21-1.45,2.54-4.16,2.12-4.54s-2.76.61-4,1.46c-2.1,1.46-3.1,3.2-3.28,3.08s1-1.79,1.83-4.15c.9-2.52,1.4-5.76.74-6.09-.51-.26-2.68,2.71-3.78,5a20.44,20.44,0,0,0-1.39,3.82,15.22,15.22,0,0,0-.29-2.26c-.41-1.95-1.44-4.93-2.28-4.84s-1.24,2.84-1.16,4.88a11.22,11.22,0,0,0,.36,2.4,13,13,0,0,0-2-2.64l-.06-.05c-.63-.63-2.45-2.29-3.07-2-.47.25,0,2.92.91,4.84a12.08,12.08,0,0,0,2.39,3.31,10.67,10.67,0,0,0-2-1.68c-.25-.16-2.59-1.6-3.19-1.16s1.11,3.11,1.25,3.32a8.83,8.83,0,0,0,3.52,3.31,7.57,7.57,0,0,0,1.25.48l8.47.25a11.62,11.62,0,0,0,1.41-.4A15,15,0,0,0,224,193C224.83,192.43,227.47,190.53,227.13,189.82Z"/><path class="cls-35" d="M208.32,195.65l-62.23-.41a10.76,10.76,0,0,1,2.25-2.51,11,11,0,0,1,2.4-1.5l53.26-.06c.51.36,1.72,1.25,2.92,2.28a4.19,4.19,0,0,1,1.14,1.41A3.55,3.55,0,0,1,208.32,195.65Z"/><rect class="cls-36" x="145.94" y="194.23" width="62.64" height="6.64" rx="1.71"/><path class="cls-35" d="M205.09,188.72H149.42v-2.58a3.72,3.72,0,0,1,.34-.93,4.84,4.84,0,0,1,2.15-1.84,17.56,17.56,0,0,1,2.91-1.32h44.87a19,19,0,0,1,3.59,1.77,3.86,3.86,0,0,1,1.45,1.42,3.39,3.39,0,0,1,.36,1.12Z"/><rect class="cls-36" x="149.42" y="184.57" width="55.68" height="6.68" rx="1.57"/><path class="cls-37" d="M237.28,184.4A3.91,3.91,0,0,1,239.1,182a4.1,4.1,0,0,1,4.75.95,5.64,5.64,0,0,1,3.57-2.85,5.27,5.27,0,0,1,5.14,1.58,5.35,5.35,0,0,1,1.27,3.31,3.66,3.66,0,0,1,3.24.1,3.56,3.56,0,0,1,1.67,3.65A5.06,5.06,0,0,1,262,191a3.45,3.45,0,0,1,.48,2.92,3.29,3.29,0,0,1-1.59,1.67,5.27,5.27,0,0,1-4.35.08,13,13,0,0,1-9.67.32,14,14,0,0,1-5.77.55,13.75,13.75,0,0,1-3.93-1.06c-3.07,1.47-6.46.38-7.71-2-1.06-2-.63-5,1.35-6.33a4.44,4.44,0,0,1,3-.59,2.51,2.51,0,0,1,.6-1.55A2.68,2.68,0,0,1,237.28,184.4Z"/><path class="cls-38" d="M217.33,191.73a3.58,3.58,0,0,1,1.44-1.09v0a2.82,2.82,0,0,1,1.76-2.29,3.25,3.25,0,0,1,1.63-.33,3.52,3.52,0,0,1,2.2-1.79,4,4,0,0,1,2.6.22,5.07,5.07,0,0,1,6.45.29,5.71,5.71,0,0,1,1.37,2.38,3.41,3.41,0,0,1,1.79,1,4.2,4.2,0,0,1,.58,5.42c-1.07,1.34-3.72,1.63-5.69.92l-.2-.08a5.1,5.1,0,0,1-3.71,1,5.71,5.71,0,0,1-2.5-.9,3.85,3.85,0,0,1-3.65.17,3.43,3.43,0,0,1-3.9-.87A3.25,3.25,0,0,1,217.33,191.73Z"/><circle class="cls-39" cx="230.52" cy="190.47" r="0.54"/><circle class="cls-39" cx="227.31" cy="194.1" r="0.54"/><circle class="cls-39" cx="234.63" cy="194.48" r="0.54"/><circle class="cls-39" cx="224.67" cy="191.16" r="0.54"/><circle class="cls-39" cx="220.12" cy="193.63" r="0.54"/><path class="cls-30" d="M178.9,7.11a22.09,22.09,0,0,1,8.88.43c3.7,1,5.25,2.49,9.85,4.2a42.33,42.33,0,0,0,7.59,2,17.86,17.86,0,0,1-8.07,4.44c-3.65.83-5.74-.07-10.5.48a30.62,30.62,0,0,0-7.77,1.95Z"/><path class="cls-9" d="M97.46,199.13c0,.33-.16.56-.49.57-.58,0-3.25.05-3.6,0a.53.53,0,0,1-.48-.52V177.53a.71.71,0,0,1,.71-.71h3.15a.71.71,0,0,1,.71.71Z"/><path class="cls-40" d="M104.07,172.33a6.63,6.63,0,0,0-6.59-6.65h0c-.86,0-5.72,0-6.57.38-2.72,1.13-1.22,3.24-1.22,6.42v7a.87.87,0,0,0,.85.88l8.6,1a.72.72,0,0,0,.3-.06c1-.4,4.33-1.84,4.45-2a.78.78,0,0,0,.18-.5Z"/><path class="cls-41" d="M100,173.45a7.52,7.52,0,0,0-7.4-7.6h0a7.52,7.52,0,0,0-7.39,7.6v7a.87.87,0,0,0,.86.88H99.14a.88.88,0,0,0,.86-.88Z"/><path class="cls-42" d="M86.56,180v-6.56a6,6,0,1,1,12.08,0V180Z"/><rect class="cls-9" x="88.47" y="171.91" width="8.27" height="1.45" rx="0.25"/><path class="cls-9" d="M101.8,174.62c0-.43,0-.87,0-1.31l3.85-.83c0,.44,0,.89,0,1.33l0,1-.76.34c0-.39,0-.79,0-1.18Z"/><path class="cls-38" d="M175.07,210.14a2.71,2.71,0,0,1-.56,2.21c-1.61,1.83-8,1.64-10.21,1.64-2.88,0-12.05.12-10.9-4.26,1.07-4,7.47-4,10.9-4,2.52,0,6.19-.07,8.51,1A4.57,4.57,0,0,1,175.07,210.14Z"/><path class="cls-38" d="M166,224.17c.29,4.25-9.54,4.62-12.42,4.62s-8.58.19-11-1.14c-3.29-1.82-.53-5.71,1.82-6.91,2.68-1.37,6.17-1.37,9.14-1.37,3.16,0,9.65-.24,11.59,2.69A4.48,4.48,0,0,1,166,224.17Z"/><path class="cls-38" d="M162.46,239.47c.34,4.69-10.7,5.1-13.93,5.1-3.07,0-9.63.2-12.31-1.26-3.69-2-.59-6.3,2.05-7.63,3-1.52,6.93-1.51,10.26-1.51,3.54,0,10.83-.27,13,3A4.72,4.72,0,0,1,162.46,239.47Z"/><path class="cls-43" d="M297.24,218.54a1.92,1.92,0,0,0-.34-.8,1.6,1.6,0,0,0-1.17-.56,1.82,1.82,0,0,0-.57,0h0a1.32,1.32,0,0,1-1.47-.81,2.79,2.79,0,0,1-.12-.65l-.56.2a15.59,15.59,0,0,1-2.26.89,3.66,3.66,0,0,0,1.1,2.43,3.16,3.16,0,0,0,1,.64,4.79,4.79,0,0,0,2.18.3,1.32,1.32,0,0,0,1.15.55,1.22,1.22,0,0,0,1.13-1.11A3,3,0,0,0,297.24,218.54Z"/><path class="cls-43" d="M287.49,214.29l-3.25.41a14.65,14.65,0,0,1-1,2,14.28,14.28,0,0,1-.94,1.36l-.21.26h0a1.44,1.44,0,0,0-1.24.45c-.94,1,.09,2.18,1.12,2.52a1.65,1.65,0,0,0,1.66-.41,4.91,4.91,0,0,0,.55-.56c.33-.37.6-.74.72-.9h0c.29-.39.56-.8.78-1.16A32.1,32.1,0,0,0,287.49,214.29Z"/><path class="cls-43" d="M281.29,210.22a9.49,9.49,0,0,1-4,.63c-1.8-.27-2.56-1.46-2.42-2.45a1.47,1.47,0,0,1,1.47-1.16,1.88,1.88,0,0,1,1.33.52c.75.7,1.82,0,1.82,0"/><path class="cls-43" d="M289.12,217.55c-7.84-.34-11-5.62-10-11.33,1-6,5.51-10.94,11-10.7s9.5,5.55,10,11.61C300.54,212.9,297,217.89,289.12,217.55Z"/><path class="cls-44" d="M303.44,199.09c-1.54-.36-2.51.21-3.5-.25-3.54-1.64-3.66-5.62-9.79-6s-7.92,3.93-10.18,4.57c-1.07.3-1.87-.29-3.8-.16a3.21,3.21,0,0,0-2.91,4,3.51,3.51,0,0,0,3.81,2.44c1.26-.06,2.64-.6,4.56-2.19l-1.46-2.85c1.9,1.58,6.31,3.06,9.23,3.3s7.51-.5,9.64-1.74l-1.91,2.57a7.33,7.33,0,0,0,4.33,2.63,3.48,3.48,0,0,0,4.12-1.73A3.33,3.33,0,0,0,303.44,199.09Z"/><path class="cls-45" d="M298.71,198.84a5.32,5.32,0,0,1,.88.16,3,3,0,0,1,2,4.17,3.58,3.58,0,0,1-4.21,2c-1.89-.34-4.37-1.34-6.38-5.5"/><path class="cls-46" d="M298.73,198.61a6.74,6.74,0,0,1,1.31.21,3.4,3.4,0,0,1,1.19.69A3.31,3.31,0,0,1,302.3,202a3.69,3.69,0,0,1-1.08,2.55,3.88,3.88,0,0,1-2.55,1.09,6.61,6.61,0,0,1-2.63-.43,7,7,0,0,1-2.29-1.31,10.93,10.93,0,0,1-2.92-4.19.23.23,0,0,1,.12-.31.25.25,0,0,1,.31.1,12,12,0,0,0,3,3.77,7.44,7.44,0,0,0,2.06,1.1,6.05,6.05,0,0,0,2.28.34,3.23,3.23,0,0,0,2-.81,2.9,2.9,0,0,0,.86-1.93,2.52,2.52,0,0,0-.71-2,3,3,0,0,0-.91-.64,8.16,8.16,0,0,0-1.13-.31h-.06a.24.24,0,0,1-.16-.3A.23.23,0,0,1,298.73,198.61Z"/><path class="cls-45" d="M280.58,197.64a6.31,6.31,0,0,0-1.85.18,3.33,3.33,0,0,0-2,4.57c.6,1.6,2.3,2.36,4.31,2a7.72,7.72,0,0,0,5.08-3.3"/><path class="cls-46" d="M280.58,197.88a4.73,4.73,0,0,0-2.15.45,2.94,2.94,0,0,0-1.35,1.52,3,3,0,0,0-.05,2,2.71,2.71,0,0,0,1.14,1.62c1.14.78,2.75.57,4.15.11a8.86,8.86,0,0,0,3.6-2.68.23.23,0,0,1,.33,0,.22.22,0,0,1,0,.31,8.33,8.33,0,0,1-3.68,3.15,7.42,7.42,0,0,1-2.43.55,4.43,4.43,0,0,1-2.52-.63,3.52,3.52,0,0,1-1.51-2.16,3.82,3.82,0,0,1,.13-2.6,3.74,3.74,0,0,1,1.83-1.83,4.61,4.61,0,0,1,2.46-.28h0a.24.24,0,0,1,0,.47Z"/><path class="cls-45" d="M286.83,197.47c-.5.74-1.8,1.49-2.23,3.11a3.41,3.41,0,0,0,2.82,4.34,4.41,4.41,0,0,0,5.29-2.76,5.94,5.94,0,0,0-.17-3.7"/><path class="cls-46" d="M287,197.6c-.52.77-1.17,1.27-1.56,2a3.5,3.5,0,0,0-.57,2.14,2.82,2.82,0,0,0,.89,1.91,3.7,3.7,0,0,0,2,.91,4.14,4.14,0,0,0,4-1.47,5.08,5.08,0,0,0,.49-4.5.24.24,0,0,1,.16-.3.24.24,0,0,1,.29.15,6.64,6.64,0,0,1,.52,2.55,4.77,4.77,0,0,1-.79,2.57,4.29,4.29,0,0,1-2.16,1.66,5.59,5.59,0,0,1-2.69.26,4.31,4.31,0,0,1-2.49-1.17,3.69,3.69,0,0,1-1.11-2.54,4.34,4.34,0,0,1,.83-2.58,23.38,23.38,0,0,1,1.76-1.8l0,0a.24.24,0,0,1,.34,0A.23.23,0,0,1,287,197.6Z"/><path class="cls-43" d="M297.23,208.86a7.46,7.46,0,0,1,2.58,1.15,3.1,3.1,0,0,1,1.07,3.52c-.47,1.3-2,1.82-2.85.73-.41-.53.27-1.25.09-1.81a2.12,2.12,0,0,0-1.84-1.1"/><path class="cls-47" d="M286.36,209.41a1.57,1.57,0,0,1-2.61-.18"/><g class="cls-48"><g class="cls-48"><path class="cls-49" d="M292.36,210.59a1.63,1.63,0,0,1-3.25-.23,1.61,1.61,0,0,1,1.74-1.45A1.6,1.6,0,0,1,292.36,210.59Z"/></g></g><ellipse class="cls-50" cx="280.77" cy="210.37" rx="1.47" ry="1.35" transform="translate(50.79 475.32) rotate(-85.88)"/><path class="cls-51" d="M290.53,208.25a1.34,1.34,0,1,1-1.29-1.39A1.34,1.34,0,0,1,290.53,208.25Z"/><path class="cls-14" d="M290,207.78a.37.37,0,0,1-.38.35.36.36,0,0,1-.36-.38.37.37,0,0,1,.38-.35A.36.36,0,0,1,290,207.78Z"/><path class="cls-51" d="M282.92,207.35a1.22,1.22,0,0,1-1.22,1.19,1.19,1.19,0,0,1-1.12-1.27,1.17,1.17,0,1,1,2.34.08Z"/><path class="cls-14" d="M282.47,206.92a.32.32,0,0,1-.33.33.33.33,0,0,1-.31-.35.34.34,0,0,1,.34-.33A.33.33,0,0,1,282.47,206.92Z"/><path class="cls-43" d="M179.6,174.83a10.93,10.93,0,0,1-3.77,2.36c-.84.3-3,1.05-3.79.65a1.73,1.73,0,0,1-.68-.55c-.53-.74-.85-1.68.07-2.28a1.42,1.42,0,0,1,1.06-.2,1.8,1.8,0,0,0,.73,0,15.49,15.49,0,0,0,4.75-2.2,1.51,1.51,0,0,1,1.89.7A1.47,1.47,0,0,1,179.6,174.83Z"/><path class="cls-43" d="M183.29,174.87,182,181.31a1.41,1.41,0,0,0,1.12,1.66h0a1.42,1.42,0,0,0,1.66-1.12l1.26-6.43a1.44,1.44,0,0,0-1.13-1.67h0A1.43,1.43,0,0,0,183.29,174.87Z"/><path class="cls-43" d="M175.06,165.58a9.29,9.29,0,0,1-3.89-1.25,8.57,8.57,0,0,1-1.23-.87c-.17-.14-.32-.31-.5-.45a1.37,1.37,0,0,0-1.21-.39,1.41,1.41,0,0,0-1,.76c-.66,1.37,1,2.42,2,3a12.15,12.15,0,0,0,1.34.8,9.57,9.57,0,0,0,3.25.93,1.42,1.42,0,0,0,1.24-2.56Z"/><path class="cls-43" d="M190.29,170.86a9.18,9.18,0,0,1,3.43,2.21,8.87,8.87,0,0,1,1,1.15c.13.19.23.39.37.57a1.34,1.34,0,0,0,1.07.69,1.42,1.42,0,0,0,1.13-.48c1-1.15-.36-2.6-1.12-3.44a14.28,14.28,0,0,0-1.08-1.12,9.74,9.74,0,0,0-2.9-1.73,1.42,1.42,0,1,0-1.86,2.15Z"/><path class="cls-43" d="M181.15,177.38c-7.75-1.56-10.05-7.29-8.2-12.8,1.93-5.78,7.17-10,12.56-8.89s8.6,7,8.15,13.06C193.23,174.55,188.9,178.94,181.15,177.38Z"/><path class="cls-52" d="M182.73,169.65a1.85,1.85,0,0,0,1.87-.67.7.7,0,0,0,.15-.5.44.44,0,0,0-.38-.31l-2.59-.53a.46.46,0,0,0-.47.14.77.77,0,0,0-.06.53A1.87,1.87,0,0,0,182.73,169.65Z"/><path class="cls-51" d="M179.84,166.88a1.34,1.34,0,1,1-1.05-1.58A1.33,1.33,0,0,1,179.84,166.88Z"/><path class="cls-14" d="M179.42,166.33a.38.38,0,0,1-.44.29.36.36,0,0,1-.29-.43.38.38,0,0,1,.44-.29A.36.36,0,0,1,179.42,166.33Z"/><path class="cls-51" d="M189.11,168.74a1.33,1.33,0,0,1-1.58,1,1.34,1.34,0,1,1,1.58-1Z"/><path class="cls-14" d="M188.69,168.2a.37.37,0,1,1-.29-.44A.38.38,0,0,1,188.69,168.2Z"/><path class="cls-53" d="M184.26,162c3.81.77,10.73.18,11.13-1.8-3-.81-3.28-6-9.32-7.17s-8.26,3.43-11.36,3C174.31,158,180.46,161.23,184.26,162Z"/><path class="cls-53" d="M195.2,160.19c.89.54,2.46.23,3.69.82a3.15,3.15,0,0,1,1.34,4.61,3.3,3.3,0,0,1-4.18,1.29,7.76,7.76,0,0,1-4.17-3.18"/><path class="cls-54" d="M191.84,159.05c.7.67,2,.27,3.25.76a3.2,3.2,0,0,1,1.53,4.72c-.76,1.53-2.33,2.19-4.32,1.66a7.79,7.79,0,0,1-4.83-3.69"/><path class="cls-55" d="M192,158.88c.54.41,1.44.24,2.32.36a3.74,3.74,0,0,1,2.44,1.3,3.47,3.47,0,0,1,.75,2.72,4.67,4.67,0,0,1-1.22,2.52,3.71,3.71,0,0,1-2.62,1,6.46,6.46,0,0,1-2.63-.61,8.28,8.28,0,0,1-3.78-3.57.23.23,0,0,1,.09-.32.23.23,0,0,1,.31.06,8.44,8.44,0,0,0,3.69,3.08,6.61,6.61,0,0,0,2.31.47,2.73,2.73,0,0,0,2-.81,3.94,3.94,0,0,0,1-2,2.6,2.6,0,0,0-.51-2,3,3,0,0,0-1.88-1.13c-.39-.08-.8-.11-1.24-.17a2.13,2.13,0,0,1-1.3-.56.24.24,0,0,1,0-.34.24.24,0,0,1,.31,0Z"/><path class="cls-53" d="M174.88,156.1c-1,.15-2.36-.74-3.72-.67a3.14,3.14,0,0,0-3,3.73,3.31,3.31,0,0,0,3.35,2.81,7.83,7.83,0,0,0,5.08-1.32"/><path class="cls-54" d="M178.42,156.35c-.91.35-2-.53-3.29-.56a3.22,3.22,0,0,0-3.25,3.77c.12,1.7,1.31,2.91,3.35,3.19a7.75,7.75,0,0,0,5.88-1.53"/><path class="cls-55" d="M178.5,156.57a2.16,2.16,0,0,1-1.42,0c-.42-.11-.82-.24-1.21-.32a2.92,2.92,0,0,0-2.17.32,2.63,2.63,0,0,0-1.26,1.68,4,4,0,0,0,.13,2.21,2.76,2.76,0,0,0,1.51,1.51,6.63,6.63,0,0,0,2.3.45A8.47,8.47,0,0,0,181,161a.23.23,0,0,1,.32.09.22.22,0,0,1-.06.31,8.28,8.28,0,0,1-4.86,1.83,6.5,6.5,0,0,1-2.66-.46,3.68,3.68,0,0,1-2-2,4.64,4.64,0,0,1-.15-2.78,3.48,3.48,0,0,1,1.74-2.22,3.74,3.74,0,0,1,2.76-.26c.86.23,1.62.74,2.28.56h0a.24.24,0,0,1,.29.17A.24.24,0,0,1,178.5,156.57Z"/><path class="cls-54" d="M182.62,156.74a4.46,4.46,0,0,0-2.08,3,4.08,4.08,0,1,0,8,1.61,4.41,4.41,0,0,0-.77-3.55"/><path class="cls-55" d="M182.74,157A4.34,4.34,0,0,0,180.9,161a3.71,3.71,0,0,0,6.82,1.37,4.3,4.3,0,0,0-.14-4.48.24.24,0,0,1,.07-.33.23.23,0,0,1,.31,0,4.72,4.72,0,0,1,.47,5.16,4.49,4.49,0,0,1-8.38-1.68,4.93,4.93,0,0,1,.54-2.68,4.55,4.55,0,0,1,1.91-1.9.23.23,0,0,1,.32.1A.24.24,0,0,1,182.74,157Z"/><g class="cls-48"><g class="cls-48"><path class="cls-56" d="M191.67,170.73a1.71,1.71,0,1,1-1.34-2A1.71,1.71,0,0,1,191.67,170.73Z"/></g></g><path class="cls-57" d="M177.37,167.85a1.71,1.71,0,1,1-1.34-2A1.7,1.7,0,0,1,177.37,167.85Z"/><path class="cls-58" d="M827.77,217.13a3.51,3.51,0,0,0,.43-1.55c.07-1.08.14-2.73.08-4.9a3.57,3.57,0,0,0-.87-2.33c-.85-.89-2-.58-5.89-.7a23.25,23.25,0,0,0-7.54.57c-2,.58-3.71-.36-4.82.74a3,3,0,0,0-.79,1.46c0,.9,0,1.81,0,2.76s.09,2,.15,3a3,3,0,0,0,.51,1.25,3.42,3.42,0,0,0,2,1.16,27.13,27.13,0,0,0,14.55-.08A3.4,3.4,0,0,0,827.77,217.13Z"/><path class="cls-59" d="M811.31,218.66c.13-1.47.57-3,.23-4.45a1.29,1.29,0,0,0-.25-.56.53.53,0,0,0-.55-.18c-.28.11-.34.48-.36.78l-.09,1.89c0,.21-.17.5-.35.38a.38.38,0,0,1-.09-.12c-.39-.8-.55-1.41-1.36-1.79,0,.53,0,1.07.08,1.58a3,3,0,0,0,.51,1.25,3.42,3.42,0,0,0,2,1.16Z"/><path class="cls-59" d="M822.47,217.23a2.41,2.41,0,0,0-.73.69,5.48,5.48,0,0,0-.49,1.47,23.28,23.28,0,0,0,4.35-.87,3.4,3.4,0,0,0,2.17-1.39,3.51,3.51,0,0,0,.43-1.55c0-.74.09-1.76.1-3-1.16.73-2.28,1-2.49,2.46a4.74,4.74,0,0,1-.33,1.51c-.54,1.07-1.1.48-1.86.4A1.84,1.84,0,0,0,822.47,217.23Z"/><path class="cls-60" d="M821.68,213.42c3.33-.14,5.67-.26,6.33-1.58a3.4,3.4,0,0,0,.28-1.77,3.19,3.19,0,0,0-.55-1.43,3.32,3.32,0,0,0-1.16-.94,17.17,17.17,0,0,0-7.07-1.9,24.23,24.23,0,0,0-7.45,1,4.54,4.54,0,0,0-3.25,2,2.4,2.4,0,0,0-.38,1.89c.11.3.46,1,3.85,1.83a30.22,30.22,0,0,0,3,.6A36.73,36.73,0,0,0,821.68,213.42Z"/><path class="cls-61" d="M819.19,209.27a4.35,4.35,0,0,0,.43.13.61.61,0,0,1,.46.27c.12.28-.2.53-.47.66s-.59.37-.49.65a3.33,3.33,0,0,0,1.37,0,1.18,1.18,0,0,0,.94-.9,1.14,1.14,0,0,0-.38-.93,2.49,2.49,0,0,0-.91-.48c-1.28-.4-3.42-.52-4.58.28a.94.94,0,0,0-.43.84c.08.69,1.17,1,1.74.8.29-.08.47-.55.19-.68s-.52.09-.67-.08c-.29-.34.8-.89,1.05-.94A4.11,4.11,0,0,1,819.19,209.27Z"/><path class="cls-61" d="M818.24,211.48a20.36,20.36,0,0,1-2.81-.24,7.4,7.4,0,0,1-2.83-.77c-.68-.5-.06-1.27.53-1.61a4.26,4.26,0,0,1,1.78-.55.79.79,0,0,0,.43-.11c.11-.1.13-.32,0-.38a.25.25,0,0,0-.12,0,4.9,4.9,0,0,0-3.34,1.08c-.72.58-1.74,1-1,2.1.52.79,2.25.76,3.08.89l3.92.62a12,12,0,0,0,3.54,0c.8-.11,2.22-.1,2.84-.61a2.71,2.71,0,0,0,1.08-1.66,2.44,2.44,0,0,0-1.09-2,5.39,5.39,0,0,0-4.47-1c-.15,0-.34.13-.31.29s.14.17.25.2c1,.27,2.22-.06,3.13.49a1.87,1.87,0,0,1,.91,1.51c.07,1.37-1,1.79-2.19,1.83S819.34,211.51,818.24,211.48Z"/><path class="cls-43" d="M823,207.39a10.74,10.74,0,0,0,4.05,1.84c.87.19,3.07.65,3.83.16a1.88,1.88,0,0,0,.61-.64c.42-.8.62-1.78-.37-2.25a1.48,1.48,0,0,0-1.08-.07,1.47,1.47,0,0,1-.72.07,14.43,14.43,0,0,1-2.15-.44,15.25,15.25,0,0,1-2.85-1.12,1.51,1.51,0,0,0-1.78.95A1.47,1.47,0,0,0,823,207.39Z"/><path class="cls-43" d="M819.06,209.74a10.83,10.83,0,0,0,3.47,2.78c.81.4,2.83,1.38,3.69,1.08a1.66,1.66,0,0,0,.74-.47c.61-.67,1-1.58.19-2.27a1.49,1.49,0,0,0-1-.33,1.62,1.62,0,0,1-.72-.1,14.66,14.66,0,0,1-2-1,16,16,0,0,1-2.49-1.77,1.5,1.5,0,0,0-2,.47A1.47,1.47,0,0,0,819.06,209.74Z"/><path class="cls-43" d="M822.13,210.06c7.55-2.35,9.24-8.28,6.84-13.57-2.52-5.55-8.16-9.18-13.41-7.55s-7.83,7.83-6.76,13.83C809.83,208.49,814.59,212.41,822.13,210.06Z"/><path class="cls-62" d="M824.42,200.37a1.56,1.56,0,0,1-1,1.14,1.84,1.84,0,0,1-1.72-.21"/><path class="cls-51" d="M825,198.79a1.27,1.27,0,1,0,.88-1.56A1.27,1.27,0,0,0,825,198.79Z"/><path class="cls-14" d="M825.33,198.25a.37.37,0,0,0,.44.24.35.35,0,1,0-.44-.24Z"/><path class="cls-51" d="M817.08,201.25a1.34,1.34,0,1,0,.93-1.66A1.34,1.34,0,0,0,817.08,201.25Z"/><path class="cls-14" d="M817.47,200.67a.37.37,0,0,0,.45.26.38.38,0,0,0,.26-.46.37.37,0,0,0-.46-.25A.36.36,0,0,0,817.47,200.67Z"/><path class="cls-63" d="M802.43,196.12c1.17-.71,2.72-.5,3.63-1.23,3.37-2.67,2.6-6.93,8.86-8.88,6.41-2,8.91,2.94,12.13,2.08l0,.1c1.07-.1,1.42-.79,3.45-1.14a3.43,3.43,0,0,1,4,3.4,3.74,3.74,0,0,1-3.34,3.49c-1.32.26-2.89.05-5.28-1.11l.8-3.32c-1.57,2.11-5.78,4.76-8.74,5.74s-7.91,1.39-10.44.64l2.63,2.19a7.85,7.85,0,0,1-3.83,3.81,3.75,3.75,0,0,1-4.7-.75A3.17,3.17,0,0,1,802.43,196.12Z"/><path class="cls-64" d="M809.37,193.18c-.57.87-1.54.71-2.78,1.4a3.23,3.23,0,0,0-1,4.85c1,1.37,2.85,1.86,4.87.95,1.86-.84,4.17-2.52,5.16-7.35"/><path class="cls-65" d="M809.63,193.35a2.43,2.43,0,0,1-1.36,1,8.72,8.72,0,0,0-1.31.52,2.83,2.83,0,0,0-1,4.35,3,3,0,0,0,2.17,1.18,4.79,4.79,0,0,0,2.57-.62,7.32,7.32,0,0,0,2.18-1.68,11.73,11.73,0,0,0,2.39-5.1.33.33,0,0,1,.65.14,11.68,11.68,0,0,1-2.38,5.53,7.51,7.51,0,0,1-2.42,1.92,5.56,5.56,0,0,1-3.07.74,3.82,3.82,0,0,1-2.84-1.56,3.86,3.86,0,0,1-.68-3.16,3.78,3.78,0,0,1,2.07-2.44c.95-.49,2.07-.45,2.5-1.12a.31.31,0,0,1,.42-.09.31.31,0,0,1,.11.41Z"/><path class="cls-64" d="M823.72,188.58c1,.29,2-.73,3.44-.86a3.56,3.56,0,0,1,3.88,3.66c.07,1.81-1.28,3.26-3.42,3.73a8.3,8.3,0,0,1-6.36-1.14"/><path class="cls-65" d="M823.81,188.28c.68.16,1.47-.44,2.37-.75a4,4,0,0,1,3,.1,3.85,3.85,0,0,1,2.06,2.17,5.75,5.75,0,0,1,.3,1.46,3.64,3.64,0,0,1-.21,1.53,4.08,4.08,0,0,1-2,2.2,7.15,7.15,0,0,1-2.78.74,9,9,0,0,1-5.39-1.48.32.32,0,0,1-.11-.45.33.33,0,0,1,.44-.12,8.77,8.77,0,0,0,5,1.18,7,7,0,0,0,2.43-.68,3.23,3.23,0,0,0,1.57-1.71,3.72,3.72,0,0,0-.08-2.35,2.93,2.93,0,0,0-1.55-1.69,3.18,3.18,0,0,0-2.35-.15c-.41.12-.82.29-1.26.45a2.34,2.34,0,0,1-1.54.14.31.31,0,0,1-.2-.39.3.3,0,0,1,.36-.2Z"/><path class="cls-64" d="M819.3,189.23c.71.63,2.25,1.07,3.12,2.63a3.65,3.65,0,0,1-1.79,5.23,4.7,4.7,0,0,1-6.18-1.48,6.24,6.24,0,0,1-.79-3.87"/><path class="cls-65" d="M819.51,189c.62.47,1.53.81,2.26,1.44a4.67,4.67,0,0,1,1.51,2.46,3.94,3.94,0,0,1-.5,2.9,4.71,4.71,0,0,1-2.25,1.85,6,6,0,0,1-2.84.43,4.53,4.53,0,0,1-2.67-1.14,5.22,5.22,0,0,1-1.51-2.44,7.54,7.54,0,0,1-.18-2.79.33.33,0,0,1,.66,0,5.31,5.31,0,0,0,1.6,4.52,4.42,4.42,0,0,0,4.57.5,3.9,3.9,0,0,0,1.84-1.47,3.06,3.06,0,0,0,.42-2.23,3.9,3.9,0,0,0-1.17-2.06c-.6-.59-1.38-.92-2.15-1.56a.32.32,0,0,1,0-.44.32.32,0,0,1,.42-.05Z"/><g class="cls-48"><g class="cls-48"><path class="cls-66" d="M829,198.28a1.81,1.81,0,0,0-1,0,1.72,1.72,0,1,0,1.08,3.26,1.81,1.81,0,0,0,.54-.31A9,9,0,0,0,829,198.28Z"/></g></g><path class="cls-67" d="M820.11,203.8a1.72,1.72,0,1,1-2.17-1.09A1.73,1.73,0,0,1,820.11,203.8Z"/><path class="cls-43" d="M814.37,208.07a6.62,6.62,0,0,0,5.13.67c3.48-.85,3-3.54,1.85-4-1.55-.65-1.94.75-3.36,1a3.25,3.25,0,0,1-1.77-.59"/><path class="cls-43" d="M830.06,199.66a5.22,5.22,0,0,1,0,1.36c-1,.64-2.42.08-3,1.42-.43,1,.66,2.84,3.41,1.84a2,2,0,0,0,1.35-1.92C831.82,200.81,830.06,199.66,830.06,199.66Z"/><path class="cls-68" d="M984.72,128.87a12.43,12.43,0,0,0,.76,9.81,11.82,11.82,0,0,0,4,4.11A15.37,15.37,0,0,0,987.9,151c.85,8.55,9.62,13.94,15.66,15.8a25.78,25.78,0,0,0,17.42-1.17c16.24,8.2,32.06,5.45,37.43-3,.84-1.32,3.42-5.92,1.42-14.23a13.61,13.61,0,0,0,6-5.4c2.73-4.76,2.14-11.09-1.42-16.32.6-.49,6.56-5.6,5.77-12.93-.07-.66-.94-7.82-6.34-9.9a8.81,8.81,0,0,0-4.36-.49c2.38-4.11,3.83-8.61,2.68-13.44s-5.26-8.42-9.93-8.44c-1.31-5.6-3.24-11.12-7.33-15.3s-9.61-6.27-15.25-4.7c-5.44,1.51-9.9,5.93-12.15,11a26.49,26.49,0,0,0-2.08,8.81,11.57,11.57,0,0,0-6.71-1.33c-4.58.48-8.4,3.84-10.36,7.87-2.75,5.68-1.92,12,.77,17.52a9.67,9.67,0,0,0-5,0,11.76,11.76,0,0,0-7.8,8.09,13.79,13.79,0,0,0,1.39,10.94A7.17,7.17,0,0,0,984.72,128.87Z"/><path class="cls-69" d="M1035.47,154.25a15.27,15.27,0,0,0,4.32,0,15.11,15.11,0,0,0,3.78-1.11c1.45-.94,1.68-1.25,1.62-1.36s-.92.16-2.57.45a9.68,9.68,0,0,1-3.75.18,6.65,6.65,0,0,1-1.78-.59l3.62-2.77c.73-1.07,1.59-2.42,1.32-2.66s-.86.28-2.35,1.34c-2,1.45-4.2,3-5.25,3.77a24.7,24.7,0,0,1-4.15,2.48c-1.58.88-2.47.74-3,.52-2.06-.93-1.51-5.28-2.3-15.32-.14-1.82-.28-3.29-.38-4.19q-2.73-9.15-5.47-18.3c-2,10.26-4.1,25.33-6.07,35.59-1.22-2.59-3.09-7-5.39-12.14-2-4.4-4.36-9.53-5.74-11.77-1.76-2.89-1.8-1-1.61-.37,1.29,4.38,2.71,8.72,4.06,13.09-1.39-.94-6.28-4.5-7-3.52s6.14,6.28,8.68,8.46c.16.5.41,1.3.71,2.29,2.18,7.21,4,13.19,4.08,19.34,0,.43,0,.78,0,1.34a88.69,88.69,0,0,1-.93,9.74c-.71,5-1.47,9.47-2,12.64a15.2,15.2,0,0,0-2,.54c-1.89.67-4.68,2-4.54,2.75.1.47,1.56.84,7.36.44a3.23,3.23,0,0,0,.86,2.54c1.61,1.44,4-1,7.72-.07,2.62.65,3.69,2.41,5.49,1.77.89-.32,1.24-.95,2.3-1,.88,0,1.14.43,2.44.69.32.06,2.1.43,2.34,0s-.41-1.26-4.26-4.1c.28-3.94.56-7.27.79-9.8.55-6,.92-9,1.17-10.73.38-2.6.29-2,.51-3.78.78-6.34.7-8.91,2-11.53Z"/><path class="cls-70" d="M1023.48,143c.58,0,1.19,0,1.8,0-.06-1.18-.15-2.45-.26-3.84-.14-1.82-.28-3.29-.38-4.19q-2.73-9.15-5.47-18.3c-1.22,6.3-2.48,14.42-3.74,22.12C1016.57,142,1020.4,142.9,1023.48,143Z"/><path class="cls-70" d="M1018.12,194.79c-.08.74,1.34-7.54,3-16.26,1.14-6.18,1.72-11.24,2-14.43.3-.28.66-.56.91-.45.49.22.06,1.85-.14,3.82q-.25,2.72-.62,5.41c-.56,4.13-1.37,8.23-2.28,12.29-.44,2-1.12,4-1.41,6a9.23,9.23,0,0,1-.25,2C1019.15,193.65,1018.15,194.49,1018.12,194.79Z"/><path class="cls-70" d="M1023.21,150.51c.11-.7.21-1.39.29-2.08.46-4.14.83-8.3.94-12.46v-.58l-.71.08a1.12,1.12,0,0,1-.49-.06c-.07,2-.18,4.1-.35,6.4-.23,3.06-.44,6.05-.62,8.63Z"/><path class="cls-68" d="M1045.66,134.42c-1.22,3.83-12.3,7.25-15.69,7.49-10.47.73-21.52-9.07-20.13-14.71,1.12-4.57,11-15.36,18.4-13.25S1047.28,129.36,1045.66,134.42Z"/><path class="cls-71" d="M1043.08,104.55a2,2,0,0,0,.39.43.54.54,0,0,0,.63,0,2.91,2.91,0,0,0,.61-1.3,4.89,4.89,0,0,0,.17-1.57,8.46,8.46,0,0,0-1-3,8.27,8.27,0,0,0-1.63-2.36c-.27-.28-.67,0-.73.36A9.86,9.86,0,0,0,1043.08,104.55Z"/><path class="cls-71" d="M997,127.55a6.79,6.79,0,0,0-1.4,3.81,7.05,7.05,0,0,0,.14,2c.1.42.27,1.4.66,1.54a.56.56,0,0,0,.43-.07,5.48,5.48,0,0,0,1.87-2.76,6.25,6.25,0,0,0,.31-3v0c-.08-.67-.16-2.08-.75-2.4a.48.48,0,0,0-.51.1A4.32,4.32,0,0,0,997,127.55Z"/><path class="cls-71" d="M1053.7,145.4a7.09,7.09,0,0,0,.29,2.35.72.72,0,0,0,.08.22.34.34,0,0,0,.37.09c.73-.15,1.27-.91,1.64-1.68a7.59,7.59,0,0,0,.67-4.54c-.09-.42-.11-.72-.54-.63a1.53,1.53,0,0,0-.7.45,7.69,7.69,0,0,0-1.07,1.5A4.69,4.69,0,0,0,1053.7,145.4Z"/><path class="cls-71" d="M1041.44,110.26c0,.1,0,.21,0,.31a6.16,6.16,0,0,0,2.56,6,2.9,2.9,0,0,0,.52.34.31.31,0,0,0,.31,0,.7.7,0,0,0,.15-.19,5.63,5.63,0,0,0-.28-4.83,4.31,4.31,0,0,0-2.7-2.1C1041.71,109.73,1041.48,110,1041.44,110.26Z"/><path class="cls-71" d="M1026.58,131.51a5.68,5.68,0,0,0-4,.42,3.72,3.72,0,0,0-1.44,1.44,4.93,4.93,0,0,0-.41,1.84.39.39,0,0,0,.08.31.67.67,0,0,0,.2.12,5.6,5.6,0,0,0,4.76-.87c1.1-.82,2.14-2.31,1.76-2.93C1027.41,131.7,1027.26,131.6,1026.58,131.51Z"/><path class="cls-71" d="M1031.41,139.87c0,.1,0,.2-.05.3a6.16,6.16,0,0,0,2.56,6.05,4.21,4.21,0,0,0,.52.34.32.32,0,0,0,.31,0,.54.54,0,0,0,.15-.18,5.63,5.63,0,0,0-.28-4.83,4.34,4.34,0,0,0-2.7-2.11C1031.68,139.34,1031.45,139.61,1031.41,139.87Z"/><path class="cls-71" d="M1049.29,103.72a5.79,5.79,0,0,0,.93,3.14,4.34,4.34,0,0,0,2.37,1.79.32.32,0,0,0,.14,0c.54-.1.4-1.94.35-2.36a3.89,3.89,0,0,0-.94-2.23,4.93,4.93,0,0,0-2.51-1.38c-.19,0-.28.13-.31.35A4.3,4.3,0,0,0,1049.29,103.72Z"/><path class="cls-71" d="M1031.79,105.7a5.79,5.79,0,0,0,.93,3.14,4.34,4.34,0,0,0,2.37,1.79.32.32,0,0,0,.14,0c.54-.1.4-1.94.35-2.36a3.89,3.89,0,0,0-.94-2.23,4.93,4.93,0,0,0-2.51-1.38c-.19,0-.28.13-.31.35A3.33,3.33,0,0,0,1031.79,105.7Z"/><path class="cls-71" d="M1038.67,79.26c.54,1,2.21-1.28,2.53-1.79a8.6,8.6,0,0,0,1.28-3.6,9.24,9.24,0,0,0,0-1.18c0-.11,0-.36,0-.45s-.43,0-.55,0l0,0a3.9,3.9,0,0,0-2.09,1.3,4.81,4.81,0,0,0-.68,1.55,14,14,0,0,0-.55,3.34,4,4,0,0,0,0,.49A1.15,1.15,0,0,0,1038.67,79.26Z"/><path class="cls-71" d="M1035.21,135.17a.59.59,0,0,0,.23.24c.72.33,2.37-1.23,3.2-2.9s1.07-4,.38-4.36c-.12-.06-.26,0-.56,0a4.51,4.51,0,0,0-2.14,1.31,5.9,5.9,0,0,0-.83,1A4.65,4.65,0,0,0,1035.21,135.17Z"/><path class="cls-71" d="M1031.52,91.49c.54,1.05,2.21-1.27,2.53-1.79a8.55,8.55,0,0,0,1.28-3.6,9.16,9.16,0,0,0,.05-1.17c0-.11,0-.37,0-.45s-.44,0-.56,0h0a4,4,0,0,0-2.09,1.3,4.81,4.81,0,0,0-.68,1.55,14,14,0,0,0-.55,3.34,4.1,4.1,0,0,0,0,.5A1.07,1.07,0,0,0,1031.52,91.49Z"/><path class="cls-71" d="M1028.61,81.81c.53,1,2.2-1.28,2.53-1.8a8.54,8.54,0,0,0,1.27-3.6,9.16,9.16,0,0,0,0-1.17c0-.11,0-.37,0-.45s-.44,0-.56,0h0a4,4,0,0,0-2.09,1.3,4.91,4.91,0,0,0-.68,1.55,13.55,13.55,0,0,0-.54,3.34,2.07,2.07,0,0,0,0,.5A.71.71,0,0,0,1028.61,81.81Z"/><path class="cls-71" d="M1061.69,117.32a7.12,7.12,0,0,0-.11,1.84,8.61,8.61,0,0,0,.4,1.74c.08.26.94-.24,1.11-.35a5.29,5.29,0,0,0,1.93-3.42,10.2,10.2,0,0,0-.1-4.12c-.07-.33-.25-.3-.49-.23a2.4,2.4,0,0,0-.72.35,3.93,3.93,0,0,0-1.13,1.29,8.07,8.07,0,0,0-.83,2.57Z"/><path class="cls-71" d="M1045.82,133.3a7.12,7.12,0,0,0-.11,1.84,8.61,8.61,0,0,0,.4,1.74c.08.26.94-.24,1.11-.34a5.34,5.34,0,0,0,1.93-3.42A10.07,10.07,0,0,0,1049,129c-.07-.33-.25-.3-.48-.23a2.53,2.53,0,0,0-.72.35,3.92,3.92,0,0,0-1.13,1.29,8.09,8.09,0,0,0-.84,2.57C1045.85,133.08,1045.84,133.19,1045.82,133.3Z"/><path class="cls-71" d="M1051.52,134.8a6.53,6.53,0,0,0,1.63,5.64c.13.13.37.31.46,0a10.61,10.61,0,0,0,.62-3.1,4.27,4.27,0,0,0-1.49-3.38,1.45,1.45,0,0,0-.35-.26c-.33-.14-.54,0-.67.33A2.53,2.53,0,0,0,1051.52,134.8Z"/><path class="cls-71" d="M1048.5,94.86c-.63.07,0,1,.1,1.29a3.93,3.93,0,0,0,1.07,1.78c.69.67,2.8,2.34,3.63.94a2,2,0,0,0,.08-1.69,4.13,4.13,0,0,0-1.43-1.63,4.63,4.63,0,0,0-.7-.36,5.1,5.1,0,0,0-2.12-.36Q1048.82,94.83,1048.5,94.86Z"/><path class="cls-71" d="M992.64,121.71a3.38,3.38,0,0,0,2.43,1.69.2.2,0,0,0,.15,0,.29.29,0,0,0,0-.14,6.07,6.07,0,0,0-.3-3A4.35,4.35,0,0,0,993.4,118a3.47,3.47,0,0,0-1-.37c-.36-.09-.73-.16-1.1-.24,0,0,0,0-.07,0s0,.06,0,.09v.28A8,8,0,0,0,992.64,121.71Z"/><path class="cls-71" d="M1035.21,94.07a6.06,6.06,0,0,0-.36,2.57,4.77,4.77,0,0,0,.24,1.26c.43,1.18,1.5,0,1.86-.67a5.77,5.77,0,0,0,.7-2.49,10.19,10.19,0,0,0-.2-2.34,1,1,0,0,0-.1-.34c-.15-.26-.48-.11-.67,0a3.59,3.59,0,0,0-.62.55A4.61,4.61,0,0,0,1035.21,94.07Z"/><path class="cls-71" d="M1001.66,90.55a5.62,5.62,0,0,0,1.67,4.61,2.17,2.17,0,0,0,1.61.62,3.89,3.89,0,0,0-.3-3.19,5.68,5.68,0,0,0-.64-1,5.8,5.8,0,0,0-1.71-1.47C1002,90,1001.69,90.22,1001.66,90.55Z"/><path class="cls-71" d="M1047.85,119.89a5.86,5.86,0,0,0,.47,2.41c.25.54.73.84,1.23.46a3.72,3.72,0,0,0,.83-1.48,7.73,7.73,0,0,0,.5-2.07,5.39,5.39,0,0,0,0-1.39,5,5,0,0,0-.66-1.76c-.17-.28-.44-.56-.71-.36a4.23,4.23,0,0,0-.87,1,5.36,5.36,0,0,0-.78,2.78Z"/><path class="cls-71" d="M1055.51,117.28a4.18,4.18,0,0,0,2.24,1.92.43.43,0,0,0,.31.06c.14,0,.23-.2.3-.35a4.73,4.73,0,0,0,.28-2.44,7.83,7.83,0,0,0-.39-2.06,6.45,6.45,0,0,0-2.23-3.17.44.44,0,0,0-.69.23A7.49,7.49,0,0,0,1055.51,117.28Z"/><path class="cls-71" d="M1052.57,90.7a.52.52,0,0,0,0,.17.22.22,0,0,0,.09.12,3.13,3.13,0,0,0,1.83.67,4.33,4.33,0,0,0,2.41-.25,2.72,2.72,0,0,0,1.56-2.09.81.81,0,0,0,0-.22,1.21,1.21,0,0,0-.09-.2c-1.27-2-4.07-1.09-5.26.73A5,5,0,0,0,1052.57,90.7Z"/><path class="cls-71" d="M1022.46,106.38a3,3,0,0,0,2.19.48,3.69,3.69,0,0,0,2.11-1,5.58,5.58,0,0,0,1.54-3.55h-1.13a7.39,7.39,0,0,0-2.38.41,2.75,2.75,0,0,0-1.79,1.7l0,.07C1022.77,105.13,1022.65,105.78,1022.46,106.38Z"/><path class="cls-71" d="M1055.05,128.39c0,.24,0,.48,0,.73s0,.8,0,1.19a6.37,6.37,0,0,0,.73,2.5,7.42,7.42,0,0,0,2.3,2.33c.13.1.3-1.42.31-1.58a5.28,5.28,0,0,0-.71-3.35,5.73,5.73,0,0,0-2.22-2l-.15-.07C1055.15,128.07,1055.08,128.1,1055.05,128.39Z"/><path class="cls-71" d="M1029.41,119.62c0,.24,0,.49,0,.73,0,.39,0,.8,0,1.19a6.17,6.17,0,0,0,.74,2.5,7.39,7.39,0,0,0,2.29,2.33c.14.1.3-1.42.31-1.58a5.29,5.29,0,0,0-.71-3.35,5.66,5.66,0,0,0-2.22-2l-.15-.07C1029.51,119.31,1029.44,119.33,1029.41,119.62Z"/><path class="cls-71" d="M1038.83,136.56a6,6,0,0,0,0,.73c0,.4,0,.8,0,1.2a6.22,6.22,0,0,0,.74,2.5,7.5,7.5,0,0,0,2.29,2.33c.14.1.3-1.42.31-1.58a5.14,5.14,0,0,0-.71-3.35,5.59,5.59,0,0,0-2.22-2,.51.51,0,0,0-.15-.07C1038.92,136.25,1038.85,136.28,1038.83,136.56Z"/><path class="cls-71" d="M1024,109.53c0,.24,0,.49,0,.73,0,.4,0,.8,0,1.19a6.41,6.41,0,0,0,.73,2.51,7.28,7.28,0,0,0,2.3,2.32c.13.11.3-1.42.31-1.57a5.31,5.31,0,0,0-.71-3.36,5.81,5.81,0,0,0-2.22-2l-.15-.07C1024.12,109.22,1024.05,109.25,1024,109.53Z"/><path class="cls-71" d="M1039.93,120.18a4.22,4.22,0,0,0,.41,3,4.68,4.68,0,0,0,1.67,1.72,5.62,5.62,0,0,0,2.62.81c.33,0,.88,0,.89-.52a3.61,3.61,0,0,0-.39-1.23,6.83,6.83,0,0,0-.59-1.14,5.83,5.83,0,0,0-1.68-1.71,7.94,7.94,0,0,0-1.56-.74l-.82-.28-.17-.07C1040.14,119.93,1040,119.89,1039.93,120.18Z"/><path class="cls-71" d="M1011.38,87.74a6.93,6.93,0,0,0-1.41,3.81,7.49,7.49,0,0,0,.15,2c.09.41.26,1.4.66,1.54a.52.52,0,0,0,.43-.08,5.42,5.42,0,0,0,1.86-2.75,6.25,6.25,0,0,0,.32-3v0c-.08-.67-.16-2.09-.75-2.41a.48.48,0,0,0-.51.11A4,4,0,0,0,1011.38,87.74Z"/><path class="cls-71" d="M1006.93,119.59a7.1,7.1,0,0,0,1.19,2,.52.52,0,0,0,.16.17.34.34,0,0,0,.37-.07,2.81,2.81,0,0,0,.85-2.19,7.52,7.52,0,0,0-1.15-4.43c-.24-.36-.38-.63-.74-.37a1.45,1.45,0,0,0-.46.69,7.74,7.74,0,0,0-.42,1.8A4.83,4.83,0,0,0,1006.93,119.59Z"/><path class="cls-71" d="M1017.69,103.24l-.3,0a6.05,6.05,0,0,0-6,2.53,4.2,4.2,0,0,0-.35.51.39.39,0,0,0,0,.32.7.7,0,0,0,.19.15,5.45,5.45,0,0,0,4.78-.23,4.4,4.4,0,0,0,2.13-2.71C1018.21,103.52,1018,103.29,1017.69,103.24Z"/><path class="cls-71" d="M1016.73,118.24a5.77,5.77,0,0,0-2.38,2.23,4.42,4.42,0,0,0-.56,2.94.34.34,0,0,0,.05.14c.33.44,1.91-.5,2.25-.73a4,4,0,0,0,1.58-1.84,5.06,5.06,0,0,0,.13-2.88c0-.2-.24-.2-.45-.14A3.72,3.72,0,0,0,1016.73,118.24Z"/><path class="cls-71" d="M1025,86.72a5.79,5.79,0,0,0,.93,3.14,4.34,4.34,0,0,0,2.36,1.78.26.26,0,0,0,.15,0c.53-.1.4-2,.35-2.36a4.06,4.06,0,0,0-.94-2.24,5,5,0,0,0-2.51-1.38c-.19,0-.28.13-.32.36A3.24,3.24,0,0,0,1025,86.72Z"/><path class="cls-71" d="M1004,109.82a8.13,8.13,0,0,0-.11,1.84,9.35,9.35,0,0,0,.4,1.74c.08.26.94-.24,1.11-.35a5.29,5.29,0,0,0,1.93-3.42,10.2,10.2,0,0,0-.1-4.12c-.07-.33-.25-.3-.49-.23a2.4,2.4,0,0,0-.72.35,3.84,3.84,0,0,0-1.13,1.29,8,8,0,0,0-.83,2.57Z"/><path class="cls-71" d="M1010.6,97.07a6.45,6.45,0,0,0-5.61,1.59c-.14.13-.32.38,0,.47a10.67,10.67,0,0,0,3,.66,4.21,4.21,0,0,0,3.37-1.47,1.17,1.17,0,0,0,.27-.36c.14-.33,0-.54-.32-.67A2.9,2.9,0,0,0,1010.6,97.07Z"/><path class="cls-71" d="M1010.88,128.59a5.67,5.67,0,0,0,1.66,4.62,2.19,2.19,0,0,0,1.62.61,3.86,3.86,0,0,0-.3-3.18,5.61,5.61,0,0,0-.65-1,5.79,5.79,0,0,0-1.7-1.47C1011.26,128,1010.91,128.26,1010.88,128.59Z"/><path class="cls-71" d="M1015.48,113.05a6,6,0,0,0,.46,2.41c.25.54.74.84,1.24.46a3.68,3.68,0,0,0,.83-1.47,8.21,8.21,0,0,0,.5-2.08,5.31,5.31,0,0,0,0-1.38,4.86,4.86,0,0,0-.67-1.77c-.16-.28-.43-.56-.71-.36a4.19,4.19,0,0,0-.86,1,5.38,5.38,0,0,0-.78,2.78C1015.48,112.75,1015.47,112.91,1015.48,113.05Z"/><path class="cls-71" d="M1021.47,122.56a4.23,4.23,0,0,0,1.43,2.59.46.46,0,0,0,.27.17.55.55,0,0,0,.4-.22,4.76,4.76,0,0,0,1.11-2.19,7.81,7.81,0,0,0,.35-2.08,6.57,6.57,0,0,0-1-3.75.43.43,0,0,0-.73,0A7.45,7.45,0,0,0,1021.47,122.56Z"/><path class="cls-71" d="M1028,69.12a3.05,3.05,0,0,0,1.8,1.33,3.61,3.61,0,0,0,2.32,0A5.46,5.46,0,0,0,1035,67.8l-1-.46a7.89,7.89,0,0,0-2.34-.59,2.75,2.75,0,0,0-2.32.83l0,.06C1028.8,68.1,1028.44,68.65,1028,69.12Z"/><path class="cls-71" d="M1038.61,83.91a3.07,3.07,0,0,0,1.81,1.33,3.72,3.72,0,0,0,2.31,0,5.48,5.48,0,0,0,2.82-2.63l-1-.46a7.67,7.67,0,0,0-2.34-.59,2.75,2.75,0,0,0-2.32.83l0,.06C1039.39,82.89,1039,83.44,1038.61,83.91Z"/><path class="cls-71" d="M1017.45,84.62c0,.24,0,.49,0,.73,0,.39,0,.8,0,1.19a6.26,6.26,0,0,0,.74,2.51,7.36,7.36,0,0,0,2.29,2.32c.14.1.3-1.42.31-1.58a5.29,5.29,0,0,0-.71-3.35,5.67,5.67,0,0,0-2.22-2l-.15-.07C1017.55,84.31,1017.48,84.34,1017.45,84.62Z"/><path class="cls-71" d="M1019.21,95.2c0,.24,0,.49,0,.73s0,.8,0,1.19a6.32,6.32,0,0,0,.73,2.5,7.32,7.32,0,0,0,2.3,2.33c.13.1.3-1.42.31-1.58a5.29,5.29,0,0,0-.71-3.35,5.73,5.73,0,0,0-2.22-2l-.15-.07C1019.31,94.89,1019.24,94.92,1019.21,95.2Z"/><path class="cls-71" d="M994.89,109.42a4.22,4.22,0,0,0,.41,3,4.6,4.6,0,0,0,1.67,1.72,5.62,5.62,0,0,0,2.62.81c.33,0,.88,0,.9-.52a3.86,3.86,0,0,0-.4-1.23,6.83,6.83,0,0,0-.59-1.14,5.83,5.83,0,0,0-1.68-1.71,7.68,7.68,0,0,0-1.56-.74l-.82-.28-.17-.07C995.1,109.18,995,109.13,994.89,109.42Z"/><path class="cls-71" d="M1032.25,114.42a4.21,4.21,0,0,0,.41,3,4.71,4.71,0,0,0,1.67,1.73,5.62,5.62,0,0,0,2.62.81c.33,0,.88,0,.89-.52a3.54,3.54,0,0,0-.39-1.23,6.47,6.47,0,0,0-.59-1.14,5.71,5.71,0,0,0-1.68-1.71,7.25,7.25,0,0,0-1.57-.74l-.81-.29-.17-.06C1032.46,114.18,1032.34,114.14,1032.25,114.42Z"/><path class="cls-71" d="M1026.27,93.72a.16.16,0,0,0-.1,0,.22.22,0,0,0,0,.14,11.38,11.38,0,0,0,.54,2.68,6.09,6.09,0,0,0,1.35,2,4.17,4.17,0,0,0,1.82,1.17c.25,0,.44-.13.51-.41a1.75,1.75,0,0,0,0-.56,9.18,9.18,0,0,0-.34-2.29,3.52,3.52,0,0,0-2-2.36,3.83,3.83,0,0,0-1.57-.42Z"/><path class="cls-72" d="M951,134.54a11.67,11.67,0,0,1,5.82-18.82,11.32,11.32,0,0,1,6.48.28,12.85,12.85,0,0,1,1.95-4.51c3.24-4.71,9.33-6.51,14.33-6,7.27.72,11.34,6.23,12,7.14a15.05,15.05,0,0,1,7.69.47c4.57,1.55,9.79,6,9.66,11.36a9.53,9.53,0,0,1-1.63,5,15.3,15.3,0,0,1,4.31,16.31c-2.2,6-7.82,8.2-8.74,8.55a11.57,11.57,0,0,1-1.5,7.46c-2.94,4.7-9.12,5.85-13.57,4.92a14,14,0,0,1-6.61-3.49,20.82,20.82,0,0,1-12.21,3c-9.09-.4-16.24-5.67-16-11.77a7.79,7.79,0,0,1,.89-3.27,10.11,10.11,0,0,1-6.1-5.32c-.22-.5-2-4.54.24-8.3A8.67,8.67,0,0,1,951,134.54Z"/><path class="cls-73" d="M983.8,123.1a6.62,6.62,0,0,0,.26-4,7.12,7.12,0,0,0-.75-1.85c-.21-.37-.68-1.26-1.11-1.27a.56.56,0,0,0-.41.2,5.31,5.31,0,0,0-1,3.18,6,6,0,0,0,.59,3l0,0c.27.62.77,1.94,1.46,2.06a.52.52,0,0,0,.48-.25A4.54,4.54,0,0,0,983.8,123.1Z"/><path class="cls-73" d="M965,135.18a6.77,6.77,0,0,0-1-2.14.47.47,0,0,0-.15-.19.35.35,0,0,0-.38,0,2.74,2.74,0,0,0-1.13,2.09,7.06,7.06,0,0,0,.68,4.5c.21.38.33.66.72.44a1.61,1.61,0,0,0,.57-.64,7.35,7.35,0,0,0,.62-1.74A4.45,4.45,0,0,0,965,135.18Z"/><path class="cls-73" d="M1000.88,136.32a6.93,6.93,0,0,0-1-2.15.51.51,0,0,0-.14-.18.39.39,0,0,0-.39,0,2.79,2.79,0,0,0-1.13,2.09,7.15,7.15,0,0,0,.68,4.51c.21.37.33.65.73.44a1.59,1.59,0,0,0,.56-.64,7.84,7.84,0,0,0,.63-1.74A4.56,4.56,0,0,0,1000.88,136.32Z"/><path class="cls-73" d="M1000.88,130.75a6.78,6.78,0,0,0,2.28-.63.48.48,0,0,0,.21-.12.39.39,0,0,0,0-.39,2.79,2.79,0,0,0-1.88-1.45,7.09,7.09,0,0,0-4.55-.07c-.41.15-.7.22-.56.64a1.63,1.63,0,0,0,.54.66,7.52,7.52,0,0,0,1.62.91A4.52,4.52,0,0,0,1000.88,130.75Z"/><path class="cls-73" d="M969.11,147.07a5.65,5.65,0,0,0-1.87-2.7,4.65,4.65,0,0,0-2.89-1,.27.27,0,0,0-.15,0c-.5.26.19,2,.36,2.35a3.9,3.9,0,0,0,1.61,1.83,5.29,5.29,0,0,0,2.91.56c.2,0,.24-.21.21-.44A3.48,3.48,0,0,0,969.11,147.07Z"/><path class="cls-73" d="M970.72,124.78a5.72,5.72,0,0,0-1.87-2.7,4.54,4.54,0,0,0-2.89-1,.36.36,0,0,0-.15,0c-.51.27.18,2,.35,2.35a3.88,3.88,0,0,0,1.61,1.84,5.3,5.3,0,0,0,2.91.56c.21,0,.24-.21.21-.44A4.26,4.26,0,0,0,970.72,124.78Z"/><path class="cls-73" d="M962.19,155.9a5.72,5.72,0,0,0,1.45-2.94,4.62,4.62,0,0,0-.55-3,.38.38,0,0,0-.1-.12c-.47-.31-1.63,1.12-1.88,1.46a3.94,3.94,0,0,0-.82,2.3,5.41,5.41,0,0,0,.93,2.81c.12.18.3.11.49,0A3.6,3.6,0,0,0,962.19,155.9Z"/><path class="cls-73" d="M968.89,141c-.53,1.07,2.35,1.14,3,1.12a8.23,8.23,0,0,0,3.67-1,9.16,9.16,0,0,0,1-.64c.09-.07.31-.19.34-.3s-.26-.37-.37-.45l0,0a4.16,4.16,0,0,0-2.3-1,4.84,4.84,0,0,0-1.66.32,13.44,13.44,0,0,0-3,1.48,2.37,2.37,0,0,0-.39.3A1,1,0,0,0,968.89,141Z"/><path class="cls-73" d="M959.14,139.85c.61-.25-.3-.93-.48-1.19a4,4,0,0,0-1.6-1.37c-.89-.42-3.49-1.38-3.91.2a2,2,0,0,0,.44,1.63,4.11,4.11,0,0,0,1.9,1.11,4.58,4.58,0,0,0,.81.14,5.76,5.76,0,0,0,2.22-.29Z"/><path class="cls-73" d="M961.86,128.43a.26.26,0,0,0-.07-.15.27.27,0,0,0-.15-.05,3.42,3.42,0,0,0-1.95.57,4.74,4.74,0,0,0-1.9,1.65,2.71,2.71,0,0,0-.1,2.62.83.83,0,0,0,.13.18.58.58,0,0,0,.19.1c2.26.86,4.1-1.57,4-3.74A4.28,4.28,0,0,0,961.86,128.43Z"/><path class="cls-73" d="M977.93,122a3.25,3.25,0,0,0-2.32.2,3.91,3.91,0,0,0-1.82,1.54,5.32,5.32,0,0,0-.47,3.83l1.13-.34a8.05,8.05,0,0,0,2.24-1.1A2.77,2.77,0,0,0,978,124a.17.17,0,0,0,0-.07C978,123.3,977.92,122.65,977.93,122Z"/><path class="cls-73" d="M996.09,138.92a3.35,3.35,0,0,0-2-1.16,3.87,3.87,0,0,0-2.37.24,5.3,5.3,0,0,0-2.57,2.88l1.12.36a8.06,8.06,0,0,0,2.48.37,2.75,2.75,0,0,0,2.27-1l0-.06C995.43,140,995.73,139.43,996.09,138.92Z"/><path class="cls-73" d="M1003.65,122.28a3.28,3.28,0,0,0-2-1.16,3.89,3.89,0,0,0-2.38.23,5.36,5.36,0,0,0-2.56,2.88l1.11.36a8.07,8.07,0,0,0,2.48.38,2.83,2.83,0,0,0,2.28-1l.05-.07C1003,123.36,1003.28,122.79,1003.65,122.28Z"/><path class="cls-73" d="M975.84,118.15a5.6,5.6,0,0,0-.2-.7,10.66,10.66,0,0,0-.37-1.13,6,6,0,0,0-1.48-2.15,7.68,7.68,0,0,0-3-1.52c-.17-.06.12,1.44.16,1.59a5.11,5.11,0,0,0,1.71,3,6.06,6.06,0,0,0,2.81,1.23l.17,0C975.84,118.47,975.9,118.42,975.84,118.15Z"/><path class="cls-73" d="M995.78,134.09a6.62,6.62,0,0,0,.26-4,7.12,7.12,0,0,0-.75-1.85c-.22-.37-.68-1.26-1.12-1.27a.56.56,0,0,0-.4.2,5.31,5.31,0,0,0-1,3.18,6,6,0,0,0,.59,3v0c.28.62.78,1.93,1.47,2.06a.53.53,0,0,0,.48-.25A4.54,4.54,0,0,0,995.78,134.09Z"/><path class="cls-73" d="M985.19,117c0,.1,0,.21.08.31a6.37,6.37,0,0,0,4.82,4.69,3.52,3.52,0,0,0,.62.11.29.29,0,0,0,.27-.16.6.6,0,0,0,.06-.23,5.9,5.9,0,0,0-2.22-4.46,4.35,4.35,0,0,0-3.35-.91C985.22,116.36,985.12,116.71,985.19,117Z"/><path class="cls-73" d="M952.56,145.57l.3.09a6.36,6.36,0,0,0,6.56-1.47,3.09,3.09,0,0,0,.43-.46.31.31,0,0,0,0-.31.58.58,0,0,0-.17-.18,5.9,5.9,0,0,0-5-.57,4.32,4.32,0,0,0-2.58,2.3C952.06,145.2,952.3,145.48,952.56,145.57Z"/><path class="cls-73" d="M981.86,139.8a5.72,5.72,0,0,0-1.87-2.7,4.54,4.54,0,0,0-2.89-1,.36.36,0,0,0-.15,0c-.51.26.18,2,.35,2.35a3.93,3.93,0,0,0,1.61,1.84,5.49,5.49,0,0,0,2.91.56c.21,0,.24-.21.21-.44A4.26,4.26,0,0,0,981.86,139.8Z"/><path class="cls-73" d="M986.26,145.41a6.88,6.88,0,0,0,5.8,1.68c.18-.05.47-.16.26-.39a11.4,11.4,0,0,0-2.38-2.22,4.47,4.47,0,0,0-3.75-.56,1.46,1.46,0,0,0-.41.16c-.3.21-.24.49-.06.75A2.73,2.73,0,0,0,986.26,145.41Z"/><path class="cls-73" d="M997,145.57a6.88,6.88,0,0,0,3.94,4.57c.18.06.48.13.43-.18a11.52,11.52,0,0,0-.78-3.16,4.47,4.47,0,0,0-2.83-2.52,1.38,1.38,0,0,0-.44-.09c-.36,0-.46.27-.46.59A3.35,3.35,0,0,0,997,145.57Z"/><path class="cls-73" d="M986.4,131.79a3.22,3.22,0,0,0-1.95,1.25,4,4,0,0,0-.89,2.23,5.53,5.53,0,0,0,1.32,3.68l.83-.83a8.16,8.16,0,0,0,1.47-2,2.89,2.89,0,0,0,.15-2.54l0-.07C987,132.9,986.68,132.36,986.4,131.79Z"/><path class="cls-73" d="M993.4,152.81a3.23,3.23,0,0,0-1-2.07,4,4,0,0,0-2.13-1.12,5.54,5.54,0,0,0-3.79.93l.73.91a8.31,8.31,0,0,0,1.87,1.68,2.9,2.9,0,0,0,2.51.41l.07,0C992.22,153.33,992.8,153,993.4,152.81Z"/><path class="cls-73" d="M981.87,133.93c0-.23-.13-.47-.2-.7a11.29,11.29,0,0,0-.37-1.12,6.3,6.3,0,0,0-1.48-2.16,7.65,7.65,0,0,0-3-1.52c-.16-.05.13,1.44.17,1.59a5,5,0,0,0,1.71,3,5.86,5.86,0,0,0,2.81,1.23l.17,0C981.87,134.26,981.93,134.21,981.87,133.93Z"/><path class="cls-73" d="M990.79,130.08c0-.24-.13-.47-.2-.7s-.23-.76-.37-1.13a6.06,6.06,0,0,0-1.49-2.15,7.61,7.61,0,0,0-3-1.52c-.17-.06.13,1.44.16,1.59a5.11,5.11,0,0,0,1.71,3,6,6,0,0,0,2.81,1.23l.18,0C990.78,130.4,990.84,130.35,990.79,130.08Z"/><path class="cls-73" d="M972,134.78a.13.13,0,0,0,.12,0,.25.25,0,0,0,.05-.13,10.9,10.9,0,0,0,.12-2.73,6.27,6.27,0,0,0-.86-2.28,4.37,4.37,0,0,0-1.54-1.62.46.46,0,0,0-.62.25,1.66,1.66,0,0,0-.18.53,8.55,8.55,0,0,0-.22,2.3,3.65,3.65,0,0,0,1.48,2.84,4.16,4.16,0,0,0,1.46.83Z"/><path class="cls-74" d="M985.09,187l.18-22.12c1.75-1.22,3.58-2.6,5.44-4.17.91-.77,1.78-1.54,2.6-2.3a.82.82,0,0,0,0-1.22.81.81,0,0,0-1.12.08c-1.09.52-2.19,1.06-3.32,1.64q-2.26,1.17-4.32,2.36-.3-3.74-.72-7.64c-.3-2.78-.64-5.5-1-8.14a10.44,10.44,0,0,1-2.06-.55A10.82,10.82,0,0,1,977.5,143l.16,9.76a13.35,13.35,0,0,1-7-5.77.83.83,0,1,0-1.37.73,44.53,44.53,0,0,0,6.61,10.54l-3.51,28c-.56.32-2.12,1.24-2,1.75,0,.17.29.25,2.13.6l1.37.26c-.23.52-.43,1.17-.13,1.58s.8.52,4.48-.2c3-.58,3.3-.85,4.54-.72.54.06,1.08.18,2.33.28,1.52.14,2.28.2,2.42-.07S987.44,188.82,985.09,187Z"/><path class="cls-75" d="M983.12,147.52l-.27-2.06a10.44,10.44,0,0,1-2.06-.55A10.82,10.82,0,0,1,977.5,143l0,1.36A14.42,14.42,0,0,0,983.12,147.52Z"/><path class="cls-70" d="M1022,171.32q.26-6.12.53-12.31.15-3.16.31-6.33a1,1,0,0,1,1.35-.52,1,1,0,0,1,.3,1c-.15,4.21-.38,6.94-.56,8.71-.14,1.28-.34,2.89-.39,5,0,.64,0,1.19-.08,2.29-.08,1.94-.19,1.74-.21,2.77,0,2,.25,2.81-.36,3.41-.07.07-.43.42-.71.32C1021.59,175.49,1021.75,173.35,1022,171.32Z"/><path class="cls-70" d="M1025,191.82c-1.19,0-.67-2.22-.66-2.41l.18-4.17c0-.49-.17-3.72,1.06-2.39,1,1.06,0,4.13,0,5.43,0,.82.27,1.64.21,2.45,0,.24,0,.86-.41,1A1.55,1.55,0,0,1,1025,191.82Z"/><rect class="cls-76" x="843.15" y="197.22" width="5.32" height="11.61"/><rect class="cls-77" x="843.15" y="197.22" width="5.32" height="5.94"/><ellipse class="cls-78" cx="845.81" cy="209.81" rx="3.91" ry="4.02"/><ellipse class="cls-79" cx="845.81" cy="209.81" rx="1.11" ry="1.15"/><rect class="cls-76" x="943.46" y="197.22" width="5.32" height="11.61"/><rect class="cls-77" x="943.46" y="197.22" width="5.32" height="5.94"/><ellipse class="cls-78" cx="946.12" cy="209.81" rx="3.91" ry="4.02"/><ellipse class="cls-79" cx="946.12" cy="209.81" rx="1.11" ry="1.15"/><path class="cls-80" d="M956,132.77l-3.15,57.79,0,.43-.27,4.88a3.38,3.38,0,0,1-.94,2.18,3.22,3.22,0,0,1-.76.57,3,3,0,0,1-1.49.39H844a3.24,3.24,0,0,1-2.25-1,3.39,3.39,0,0,1-1-2.18L840.5,191l0-.44-3.15-57.78a3.28,3.28,0,0,1,3.2-3.52H952.78A3.28,3.28,0,0,1,956,132.77Z"/><path class="cls-81" d="M948.92,137.27l-2.84,53.6a.49.49,0,0,1,0,.12,1.94,1.94,0,0,1-1.91,1.74H849.07a1.93,1.93,0,0,1-1.9-1.74.5.5,0,0,1,0-.12l-2.84-53.6a2,2,0,0,1,1.92-2.08H947A2,2,0,0,1,948.92,137.27Z"/><path class="cls-82" d="M846,139.28l2.83,53.44a2,2,0,0,1-1.65-1.85l-2.84-53.6a2,2,0,0,1,1.92-2.08H947a2,2,0,0,1,1.92,2,1.23,1.23,0,0,0-.27,0H847.89A2,2,0,0,0,846,139.28Z"/><path class="cls-82" d="M946.07,191a1.94,1.94,0,0,1-1.91,1.74H849.07a1.93,1.93,0,0,1-1.9-1.74Z"/><path class="cls-83" d="M954.84,200.91l-116.59-.57a1.2,1.2,0,0,1-1.18-1.21l-.33-4.86a1.86,1.86,0,0,1,1.51-1.56H954.69a1.2,1.2,0,0,1,1.18,1.22v5.2C955.87,199.8,955.49,200.91,954.84,200.91Z"/><path class="cls-84" d="M955.4,193c0,1.27-1.06,2.23-1.91,3.09a48.75,48.75,0,0,1-5.56,4.82l6.91,0c.65,0,1-1.11,1-1.78v-5.2A1.23,1.23,0,0,0,955.4,193Z"/><rect class="cls-80" x="836.69" y="193.41" width="118.8" height="7.63" rx="1.19"/><path class="cls-14" d="M857.5,158.56a.84.84,0,0,1,0-.17s0-.1,0-.14l2.16-6.24a.52.52,0,0,1,.07-.12.23.23,0,0,1,.16-.06l.72,0a.2.2,0,0,1,.16,0l.07.1.16.35,2.58,6s0,0,0,0a.18.18,0,0,1,0,.06c0,.09-.06.14-.19.15l-.88,0a.21.21,0,0,1-.24-.16l-.09-.2c-.06-.15-.12-.29-.19-.44l-.18-.43-2.75.11c-.06.21-.13.42-.2.61s-.12.36-.16.5a.73.73,0,0,1-.84.38l-.19,0a.38.38,0,0,1-.21-.05A.27.27,0,0,1,857.5,158.56Zm2.91-5-.43,1.33q-.21.69-.42,1.32l1.89-.07Z"/><path class="cls-14" d="M864.49,152.65l.11,0h.12l.45,0a.21.21,0,0,1,.19.07.53.53,0,0,1,.09.2l.11.55c.1-.12.21-.25.32-.36a2.85,2.85,0,0,1,.38-.31,2,2,0,0,1,.47-.22,2,2,0,0,1,.57-.1,2.87,2.87,0,0,1,.78.07,3.22,3.22,0,0,1,.69.28,2.9,2.9,0,0,1,.6.44,3.38,3.38,0,0,1,.47.59,3.25,3.25,0,0,1,.31.71,3.43,3.43,0,0,1,.13.79,3.1,3.1,0,0,1-.07.81,3,3,0,0,1-.26.73,2.61,2.61,0,0,1-.42.62,2.89,2.89,0,0,1-.55.5,2.85,2.85,0,0,1-.68.33,2.76,2.76,0,0,1-.77.14,2.22,2.22,0,0,1-.53,0,1.77,1.77,0,0,1-.46-.15,2,2,0,0,1-.39-.25,2.43,2.43,0,0,1-.34-.3l.08,2.23a.23.23,0,0,1-.06.19.24.24,0,0,1-.19.08l-.74,0a.33.33,0,0,1-.19-.06.24.24,0,0,1-.1-.19l-.27-7.06a.21.21,0,0,1,0-.15A.27.27,0,0,1,864.49,152.65Zm4.52,2.7a2,2,0,0,0-.15-.69,2.18,2.18,0,0,0-.37-.56,1.65,1.65,0,0,0-.54-.36,1.49,1.49,0,0,0-.66-.12,1.7,1.7,0,0,0-.66.17,1.85,1.85,0,0,0-.52.4,2,2,0,0,0-.36.58,1.74,1.74,0,0,0-.11.68v0a1.84,1.84,0,0,0,.55,1.25,1.79,1.79,0,0,0,.56.38,2,2,0,0,0,.68.12,1.47,1.47,0,0,0,.65-.18,1.57,1.57,0,0,0,.51-.41,2,2,0,0,0,.32-.59A1.86,1.86,0,0,0,869,155.35Z"/><path class="cls-14" d="M871.36,152.37l.11,0h.12l.45,0a.22.22,0,0,1,.19.07.53.53,0,0,1,.09.2l.11.55a3.73,3.73,0,0,1,.32-.36,1.91,1.91,0,0,1,.38-.31,1.78,1.78,0,0,1,.46-.22,2.07,2.07,0,0,1,.58-.1,2.87,2.87,0,0,1,.78.07,3.22,3.22,0,0,1,.69.28,2.9,2.9,0,0,1,.6.44,2.93,2.93,0,0,1,.46.59,2.85,2.85,0,0,1,.32.71,3.35,3.35,0,0,1,.13.79,3.1,3.1,0,0,1-.07.81,3,3,0,0,1-.26.73,2.82,2.82,0,0,1-.42.62,2.67,2.67,0,0,1-.56.5,3.48,3.48,0,0,1-.67.33,3.27,3.27,0,0,1-.77.14,2.22,2.22,0,0,1-.53,0,2.07,2.07,0,0,1-.46-.15,2.59,2.59,0,0,1-.39-.25c-.12-.09-.24-.2-.35-.3l.09,2.22a.29.29,0,0,1-.06.19.23.23,0,0,1-.2.09l-.73,0a.33.33,0,0,1-.19-.06.24.24,0,0,1-.1-.19l-.28-7.06a.25.25,0,0,1,0-.16A.36.36,0,0,1,871.36,152.37Zm4.52,2.69a2,2,0,0,0-.15-.68,2.18,2.18,0,0,0-.37-.56,1.76,1.76,0,0,0-.54-.36,1.58,1.58,0,0,0-1.32,0,1.73,1.73,0,0,0-.53.4,2,2,0,0,0-.35.58,1.91,1.91,0,0,0-.12.68v0a1.59,1.59,0,0,0,.16.69,1.87,1.87,0,0,0,.39.56,1.61,1.61,0,0,0,.56.37,1.58,1.58,0,0,0,.68.12,1.46,1.46,0,0,0,.65-.17,1.67,1.67,0,0,0,.5-.42,1.7,1.7,0,0,0,.33-.59A2,2,0,0,0,875.88,155.06Z"/><path class="cls-14" d="M878,150.62a.32.32,0,0,1,.06-.2.26.26,0,0,1,.19-.09l.78,0a.23.23,0,0,1,.16.07.25.25,0,0,1,.09.2l.27,7a.28.28,0,0,1-.06.21.33.33,0,0,1-.2.08l-.74,0a.29.29,0,0,1-.21-.06.36.36,0,0,1-.07-.2Z"/><path class="cls-14" d="M885.41,157a3,3,0,0,1-.84.57,2.73,2.73,0,0,1-1,.24,2.81,2.81,0,0,1-1.15-.19,3,3,0,0,1-1.65-1.53,2.79,2.79,0,0,1-.28-1.16,3,3,0,0,1,.07-.8,2.68,2.68,0,0,1,.25-.72,3.17,3.17,0,0,1,.41-.62,2.64,2.64,0,0,1,.56-.5,2.68,2.68,0,0,1,.68-.33,2.45,2.45,0,0,1,.78-.14,3,3,0,0,1,.67,0,2.77,2.77,0,0,1,.63.22,2.57,2.57,0,0,1,.57.35,2.73,2.73,0,0,1,.48.48,2.77,2.77,0,0,1,.42.82,3.65,3.65,0,0,1,.16,1,.81.81,0,0,1,0,.22.2.2,0,0,1,0,.14.25.25,0,0,1-.13.09.81.81,0,0,1-.25,0l-4,.17a1.55,1.55,0,0,0,.25.57,1.78,1.78,0,0,0,.4.42,1.59,1.59,0,0,0,.49.24,1.65,1.65,0,0,0,.53.07,2.44,2.44,0,0,0,.39-.06,2,2,0,0,0,.34-.12l.29-.17.23-.2h0l.1-.09a.19.19,0,0,1,.1,0l.09,0a.44.44,0,0,1,.11.09l.21.24.15.17.08.11a.22.22,0,0,1,0,.1A.36.36,0,0,1,885.41,157Zm-2.14-4a1.58,1.58,0,0,0-.51.12,1.6,1.6,0,0,0-.44.29,1.55,1.55,0,0,0-.35.41,1.81,1.81,0,0,0-.2.5l3.15-.13a1.78,1.78,0,0,0-.24-.5,1.45,1.45,0,0,0-.36-.38,1.35,1.35,0,0,0-.48-.24A1.54,1.54,0,0,0,883.27,152.9Z"/><path class="cls-85" d="M887.62,161.64c.15.13.14.55-.1.62a2.33,2.33,0,0,1-.59,0c-.13,0-.27.15-.41.12l-.11,0c-.13,0-.25.07-.35,0l-.06,0s-.17,0-.19,0a0,0,0,0,1,0,0s-.07,0-.12,0a1,1,0,0,1-.24,0l-.13,0h0a.06.06,0,0,0-.06.05l0,.06a.38.38,0,0,0-.15,0H885c-.05,0-.08-.05-.05-.08l0,0s0,0,0,0h-.06s-.1,0-.11,0,0,0,0,0h-.41a.16.16,0,0,1-.15-.07l-.22-.12a.29.29,0,0,0-.14,0,.56.56,0,0,0-.21.06c-.07,0-.18,0-.21,0s0,.06.07.09-.09.12-.2.1-.17-.08-.28-.1-.13.08-.22.06-.24,0-.25,0l-.21-.09-.12.14a2.22,2.22,0,0,0-.89,0,1.36,1.36,0,0,1-.29,0,3.59,3.59,0,0,1-.35-.12l0,.09a.71.71,0,0,1-.62,0c0,.08-.17.14-.31.14a1.05,1.05,0,0,1-.36-.08.46.46,0,0,1-.37.14l-.14,0c-.35-.09-.86.31-1.15.14,0,0-.06,0-.05-.07s.1-.06.16-.06a1.69,1.69,0,0,0,.33,0,.22.22,0,0,0,.07-.12c-.16.08-.36,0-.53,0s-.15.15-.26.2a.66.66,0,0,1-.32.05c0-.06,0-.12-.09-.14a.55.55,0,0,0-.26,0c0,.05,0,.1,0,.15s-.39.31-.45.26.06-.09,0-.14-.22,0-.22,0-.15.19-.3.21a1.36,1.36,0,0,1-.45,0,1.09,1.09,0,0,0-.72.12l-.07,0-.08,0a.47.47,0,0,1-.21-.06c-.13.05-.21.2-.36.19h-.11c-.13,0-.23.13-.34.11l-.06,0c-.06,0-.17,0-.18.06v0s-.07.05-.12.05l-.24,0h-.13s0,0,0,0,0,0,0,.06,0,0,.06,0a.42.42,0,0,0-.15,0,.27.27,0,0,1-.15,0s-.09,0-.07-.06,0,0,0,0,0,0,0,0h-.06s-.1,0-.1.06,0,0,0,0a.07.07,0,0,1-.06,0l-.34.08a.14.14,0,0,1-.16,0,1.55,1.55,0,0,0-.23-.07l-.15,0a.78.78,0,0,0-.2.11.22.22,0,0,1-.2,0c-.05,0,0,.05.09.07s-.07.14-.17.14-.19,0-.3,0c0,.05-.1.11-.19.11s-.25,0-.23.09l-.24,0-.07.16a2.6,2.6,0,0,0-.86.22.9.9,0,0,1-.27.11,2.3,2.3,0,0,1-.37,0l0,.08a.69.69,0,0,1-.59.17c0,.09-.13.19-.26.23a1.22,1.22,0,0,1-.38,0,.46.46,0,0,1-.31.25h-.14a1,1,0,0,0-.36.16.85.85,0,0,1-.59.09c0,.1-.15.19-.27.27l-.09,0a3.1,3.1,0,0,1-.57.3l-.08-.07c.16-.06.3-.21.26-.31s-.31-.05-.36.07,0,.13,0,.2,0,.2-.12.3-.1.11-.14.09,0-.11-.07-.12-.21,0-.2.06-.09.23-.23.3a1.36,1.36,0,0,1-.43.14,1.08,1.08,0,0,0-.65.31l-.06.07a.2.2,0,0,1-.08,0,.37.37,0,0,1-.28,0,.59.59,0,0,1-.15-.17.29.29,0,0,1-.11.11.1.1,0,0,1-.13,0,.56.56,0,0,1,0-.13.25.25,0,0,0-.09-.23s-.07-.06,0-.11a.18.18,0,0,1,.07,0l.26-.17c-.06,0-.05-.12,0-.18a.22.22,0,0,1,.25,0c0-.12.3-.12.4-.24s0-.07.06-.1a.35.35,0,0,1,.27-.1,1.29,1.29,0,0,0,.5-.17,2.19,2.19,0,0,0,.38-.17,1,1,0,0,0,.21-.3.43.43,0,0,1,.34-.2c.11,0,.08.15,0,.25a.35.35,0,0,0,.31-.13A.62.62,0,0,0,865,165a.15.15,0,0,1,.07-.11c.1-.06.2,0,.3,0s.09-.07.15-.1.28,0,.43,0,.35-.14.35-.26a.13.13,0,0,1,.18.06c0,.06.09.13.18.08a.12.12,0,0,0,0-.21c-.06-.05-.15-.13-.06-.21l.12-.06c.13,0,.29-.07.42-.13s.17-.12.25-.15a.33.33,0,0,1,.32,0h0a.57.57,0,0,0,.11-.11c.59,0,1.28-.44,1.86-.61.31-.08.62-.13.93-.18a.94.94,0,0,1,.29,0l-.07.11a.28.28,0,0,0,.33-.07.17.17,0,0,1-.14-.07.68.68,0,0,1,.42,0c-.11,0,.13-.1.11-.09s.2,0,.32-.08a.65.65,0,0,1,.32-.11h.13a.88.88,0,0,0,.3-.1c.1,0,.26,0,.23,0s.11,0,.14-.09a.61.61,0,0,1,.35-.13l.78-.14h.09a.2.2,0,0,1,.09-.06c.09,0,.21,0,.24,0,.08-.1.34,0,.46-.11s.05-.06.09-.09a.34.34,0,0,1,.28,0,1.23,1.23,0,0,0,.54,0,1.39,1.39,0,0,0,.41,0,1,1,0,0,0,.29-.23.39.39,0,0,1,.38-.08c.1.05,0,.16-.07.23a.31.31,0,0,0,.33,0,.47.47,0,0,0,.18-.22.25.25,0,0,1,.11-.09c.1,0,.19,0,.29,0l.17,0c.17,0,.27.09.42.12s.37,0,.4-.15a.12.12,0,0,1,.16.11c0,.06,0,.15.14.13a.12.12,0,0,0,.1-.19c0-.07-.1-.17,0-.22a.61.61,0,0,1,.13,0c.14,0,.3,0,.44,0s.19-.07.28-.08.22.07.3.13h0l.13-.08c.56.2,1.34-.1,1.94-.11a7.3,7.3,0,0,1,.94,0,.77.77,0,0,1,.28.06l-.09.09a.29.29,0,0,0,.33,0,.18.18,0,0,1-.11-.1.69.69,0,0,1,.41.08c-.1-.06.15-.07.13-.06s.19,0,.33,0a.54.54,0,0,1,.33-.05l.12.05a1.19,1.19,0,0,0,.32,0c.11,0,.26,0,.22.1s.11,0,.15-.06a.87.87,0,0,1,.69,0s0,.05.07.07.38,0,.52,0h0A1.3,1.3,0,0,1,887.62,161.64Zm-18,2a.63.63,0,0,0-.27,0,.28.28,0,0,0-.15.08c-.1.08,0,.07.14,0A.83.83,0,0,0,869.67,163.6Zm2.64-.11s-.1,0-.12,0a0,0,0,0,1,0,0,.31.31,0,0,0-.38,0c-.09.07,0,.06.13.07H872a.09.09,0,0,1,.08.06h0s0,0,0,0l.11,0S872.35,163.48,872.31,163.49Zm10.05-1.91a.53.53,0,0,0-.26-.06.25.25,0,0,0-.17,0c-.11,0,0,.07.12.07A1.11,1.11,0,0,0,882.36,161.58Zm2.59.51c-.05,0-.1,0-.12,0l0,0a.3.3,0,0,0-.35-.11c-.1.05,0,.07.1.1l.06,0h0a.08.08,0,0,1,.07.07,0,0,0,0,0,0,0h.15S885,162.08,885,162.09Z"/><path class="cls-14" d="M889.8,175.56l.07-.43s-.08-.32-.09-.5-.11-.51-.15-.42a6.65,6.65,0,0,0-.08-.78,2.84,2.84,0,0,0-.38-.65c-.12-.2-.32-.33-.45-.52s-.12-.31-.22-.46a3.13,3.13,0,0,0-.54-.55.29.29,0,0,0-.11-.08s0,0,0,0-.12-.06-.19-.11l-.1-.08s0-.06,0-.06h.05c.06,0,0-.06,0-.13a1.59,1.59,0,0,0-.27-.18,2.94,2.94,0,0,1-.26-.17s0,.06,0,.11c-.32-.08-.55-.35-.84-.49s-.4,0-.59-.17l-.1-.08c-.19-.11-.46-.07-.7-.16l-.21-.07a2.36,2.36,0,0,0-.84,0,4.5,4.5,0,0,0-1.15.07.44.44,0,0,0-.27.21l-.05,0a.67.67,0,0,0-.28-.08.36.36,0,0,0,0-.25,1,1,0,0,0-.39-.31.47.47,0,0,0-.15-.06.52.52,0,0,0-.17,0,8,8,0,0,1-1.38-.35,3.6,3.6,0,0,0-.89-.15c-.31,0-.64.09-.66.18a1.84,1.84,0,0,1-.41,0c-.16,0,.07-.1,0-.14a.51.51,0,0,0-.33.06c-.1.05-.29.11-.36.21s0,.26-.06.26c-.32.27-.18-.28-.1-.21S877,169,877,169a4.26,4.26,0,0,0-1.2.46l-.18.11c-.25.14-.52.34-.55.47a2,2,0,0,0-1,.62c-.2.19-.35.45-.53.61s-.15.1-.21.18a1.33,1.33,0,0,0-.29.73,1.94,1.94,0,0,0-.39.61.87.87,0,0,0-.08.66,2,2,0,0,0-.23,1.2l.09,0a3.39,3.39,0,0,0-.16.68,2.76,2.76,0,0,0,0,.57,6.52,6.52,0,0,0,.27,1.73c0,.06.07.11.1.16a2.17,2.17,0,0,1,.07.24,4.44,4.44,0,0,0,.77,1.9l.05,0a1.83,1.83,0,0,1,.53.75,7.08,7.08,0,0,0,.41.77c.13.19.61.74.88.73,0,0-.08.07-.06.12a.24.24,0,0,0,.1.1l.44.31a.09.09,0,0,1,0-.13c.33.44.76.49,1.2.74a8.26,8.26,0,0,0,1.36.6,4.2,4.2,0,0,0,1.92.22,1,1,0,0,1,.39,0,1.12,1.12,0,0,1,.25.11,2.52,2.52,0,0,0,1.87,0c.29-.1.58-.08.88-.16a5.09,5.09,0,0,0,1-.38,6.19,6.19,0,0,0,1.68-1.08c.33-.28.62-.6.9-.8.08,0,.15-.08.23-.14a1.37,1.37,0,0,0,.41-.64,2.15,2.15,0,0,0,.5-.5.9.9,0,0,0,.23-.6,2,2,0,0,0,.55-1.08h-.09a3.68,3.68,0,0,0,.35-.59,2,2,0,0,0,.14-.55c.11-.58.21-1.19.27-1.76Zm-16.44,1.75h0a.19.19,0,0,1-.16-.11c0-.08,0-.28.11-.28S873.51,177.27,873.36,177.31Zm15.35-.49a3.19,3.19,0,0,1-.51,1.51,2,2,0,0,1,0,.24l0,0a.93.93,0,0,0-.34.38c-.06.13-.11.3-.18.44s-.29.4-.42.59a.63.63,0,0,0-.12.18c-.08.17,0,.17.15.16s.16.11,0,.27-.21.12-.25.08-.16,0-.26.1-.2.44-.44.55a4,4,0,0,0-.64.27,2.11,2.11,0,0,1-.23.19,4.72,4.72,0,0,0-.45.16c-.11.08-.1.18-.18.26a1.72,1.72,0,0,1-.49.29,5.62,5.62,0,0,1-2,.54,2.54,2.54,0,0,1-.91,0,1.15,1.15,0,0,0-.49,0,.84.84,0,0,1-.17.05c-.24,0-.64-.11-.8-.05a.62.62,0,0,0-.39-.16.42.42,0,0,0-.17,0l-.15,0a8.05,8.05,0,0,1-1.28-.44,2,2,0,0,0-.6-.21.47.47,0,0,1-.26-.08c.1,0-.11-.18-.27-.27a2.19,2.19,0,0,1-.47-.29l-.13-.15a3.12,3.12,0,0,0-.47-.34c-.21-.12-.29-.3-.4-.39s-.27-.29-.19-.12a2.71,2.71,0,0,0-.38-.6.29.29,0,0,0,0,.21.76.76,0,0,1-.31-.47l.16.08a2.76,2.76,0,0,0-.2-.44,12.42,12.42,0,0,1-.57-1.47,12.7,12.7,0,0,1-.46-1.63,3.13,3.13,0,0,1,0-1.59.69.69,0,0,1,0-.24v0a.78.78,0,0,0,.22-.45c0-.13,0-.31.06-.46a3.61,3.61,0,0,1,.27-.64,1,1,0,0,0,.07-.2c0-.17-.08-.15-.18-.12s-.18-.08-.06-.27.18-.15.23-.11.17,0,.23-.14c.2-.43.44-.48.79-.76a4.47,4.47,0,0,1,.52-.44,5.75,5.75,0,0,1,.86-.43,3.4,3.4,0,0,0,.8-.31,2.67,2.67,0,0,1,1.8-.34,7.43,7.43,0,0,1,.94.07,4.53,4.53,0,0,1,.78.23c0,.07.2.17.36.2s.27,0,.22-.08a4.65,4.65,0,0,1,.52.2,3.38,3.38,0,0,0,.78,0,6.23,6.23,0,0,0,.74.09h0a2.52,2.52,0,0,1,.88,0,.62.62,0,0,1,.12.09,2.53,2.53,0,0,0,.54.22,2.63,2.63,0,0,0,.56.14c.08,0,.21,0,.26.06s.13.18.29.25a2.17,2.17,0,0,1,.48.25l.14.15a2.17,2.17,0,0,0,.47.32,2,2,0,0,1,.39.38s.26.29.19.12a3.85,3.85,0,0,0,.35.6.27.27,0,0,0,0-.21c.13.06.31.36.27.48l-.14-.09a1.32,1.32,0,0,1,.09.3l.12.25a.5.5,0,0,1,.1.21c0,.09-.09.17,0,.25s.1.07.14.12,0,.14,0,.21a.49.49,0,0,0,.06.39s.05.05.06.09-.06.17-.1.26a.27.27,0,0,0,.06.28s.09.08.08.14-.08.08-.09.13,0,.07.06.11,0,.28,0,.37A3.15,3.15,0,0,1,888.71,176.82Z"/><path class="cls-14" d="M883.71,166.55a1.31,1.31,0,0,1,.54-.14c.24,0,.34.44.45.58a.09.09,0,0,1-.08,0c.09.13-.06.28-.07.43s.28.53,0,.64c.38-.14-.16,1.51-.13,1.54s0,0,0,0v0a.19.19,0,0,1-.1,0c-.08,0-.3,1.36-.63,1.45.14,0-.11.42-.14.47a.9.9,0,0,1-.83.54c-.22,0-.39,0-.53-.13-.28-.35.19-.71.44-.92a1.36,1.36,0,0,0,.36-.57c.18-.43.23-.9.42-1.32a1.59,1.59,0,0,0,.17-.55c0-.28-.09-.54-.08-.81a.68.68,0,0,1,.22-.49h-.1l-.07-.35.06,0C883.56,167,883.57,166.63,883.71,166.55Zm-.44,3.91s-.08,0-.09,0,0,0,0,0,.07,0,.08,0A.06.06,0,0,0,883.27,170.46Zm.75-.33s0,0,0,0h0c-.08,0-.17,0-.13,0s.06,0,.1,0H884a.12.12,0,0,1,.08,0h0v0S884,170.12,884,170.13Zm-.18-2.42s-.07,0-.07.06,0,0,0,0,.08,0,.08,0A.08.08,0,0,0,883.84,167.71Zm.5-.65s0,0,0,0h0c-.08,0-.16.07-.1.1s.07,0,.1,0,0,0,0,0h0l.07,0h0s0,0,0,0Z"/><path class="cls-14" d="M884.39,172.93s0,0,0,0a.6.6,0,0,1-.11.67,2.74,2.74,0,0,1-3.18.48l-.06,0H881a.63.63,0,0,1-.47-.06c-.06,0,0-.1-.09-.14s-.13-.1-.18-.16-.14-.24-.15-.49A2.74,2.74,0,0,1,880,173a.44.44,0,0,1,.21-.36.93.93,0,0,1,.41-.11.38.38,0,0,1,.21,0,.57.57,0,0,1,.2.3,1.17,1.17,0,0,0,.33.37c.23.18,1.22.39,1.41.09a.2.2,0,0,1,.09.11c0-.26.58-.16.72-.29a1.13,1.13,0,0,0,.1-.13.56.56,0,0,1,.46-.17.28.28,0,0,1,.13,0A.34.34,0,0,1,884.39,172.93Zm-.31.22s-.07,0-.09,0,0,0,0,0,0,.07.07.05S884.08,173.18,884.08,173.15Z"/><path class="cls-14" d="M884.93,165.54h-.15a.4.4,0,0,1-.36-.36.66.66,0,0,1,.11-.26,2.22,2.22,0,0,1,.75-.61,2.61,2.61,0,0,1,1.56-.36c.2,0,.39.09.59.1s.34,0,.51-.05a2.86,2.86,0,0,1,1,.15,6.06,6.06,0,0,1,2,1,8,8,0,0,1,1.13,1.2c.12.14.28.22.39.37a2.24,2.24,0,0,1,.4,1.2,9.58,9.58,0,0,1,0,1.07,1.46,1.46,0,0,1-.6.87h-.07c-.07,0-.17.07-.17.12s0,0,0,0-.06.07-.11.09a2.1,2.1,0,0,1-.24.06h-.17s0,0,0,.06a.1.1,0,0,0,.06.05.42.42,0,0,0-.15,0,.32.32,0,0,1-.14,0s-.09,0-.07-.07a0,0,0,0,0,0,0s0,0,0,0a.06.06,0,0,0-.06,0s-.08,0-.09,0v0a.07.07,0,0,1-.06,0,3.24,3.24,0,0,1-1.12,0c-.55-.14-1.09-.27-1.64-.43-.17-.06-.37-.13-.43-.3-.07.09-.23,0-.33,0a6.4,6.4,0,0,1-1.61-1.22,1.17,1.17,0,0,1-.71-.6.51.51,0,0,0,.23.12c.08,0,.18-.06.18-.14s-.23-.14-.37-.08-.37,0-.35-.1c.08,0,.1-.12,0-.17a.85.85,0,0,0-.22-.09.51.51,0,0,1-.2-.31l-.26-.78a.65.65,0,0,1,0-.39.23.23,0,0,1,.32-.15.28.28,0,0,1,.07-.25c1.17.73,1.71,2.29,3,2.81.22.09.48.17.56.4a4.66,4.66,0,0,0,1.52.43c.26,0,.59.09.62.35a3.19,3.19,0,0,1,.76-.14,1.1,1.1,0,0,0,.85-.93,1.12,1.12,0,0,0-.28-.84c-.06-.07-.32-.2-.34-.26s.06-.27.13-.14c.09,0,0-.19-.07-.21s-.19,0-.28,0-.21-.26-.26-.43-.22-.27-.35-.34a2.22,2.22,0,0,1-.46-.29,4.73,4.73,0,0,0-.66-.36,2.15,2.15,0,0,0-.61-.18l-1.21-.23a.2.2,0,0,0,0-.21c-.06,0-.16.06-.1.1l-1.3.14a.43.43,0,0,1-.4.18.86.86,0,0,0-.16,0c-.06,0-.1.06-.15.09A.76.76,0,0,1,884.93,165.54Z"/><path class="cls-86" d="M861.7,210s-.09,5.88-.07,6.71a1.62,1.62,0,0,0,1.31,1.72c.94.2,2,.11,2.18-1a1.56,1.56,0,0,0-.46-1.36l.05-6a1.52,1.52,0,0,0-1.49-1.54h0A1.52,1.52,0,0,0,861.7,210Z"/><path class="cls-86" d="M868.54,208.74s-.09,5.76-.06,6.58a1.56,1.56,0,0,0,1.27,1.68c.92.2,2,.11,2.13-1a1.58,1.58,0,0,0-.45-1.34l.05-5.88a1.48,1.48,0,0,0-1.46-1.5h0A1.48,1.48,0,0,0,868.54,208.74Z"/><path class="cls-53" d="M874.39,191.46c1.05.27,2.51-.5,3.9-.28a3.26,3.26,0,0,1,2.71,4.16,3.43,3.43,0,0,1-3.76,2.53,8,8,0,0,1-5.09-1.92"/><path class="cls-53" d="M853.68,193.34c-1,.46-2.56,0-3.89.44a3.27,3.27,0,0,0-1.88,4.6,3.42,3.42,0,0,0,4.16,1.78,8,8,0,0,0,4.64-2.82"/><rect class="cls-86" x="870.97" y="199.57" width="9.81" height="2.96" rx="1.48" transform="translate(1637.38 -276.11) rotate(135)"/><path class="cls-86" d="M865.57,212.86c-8.73.17-12.22-4.94-11.47-10.9.79-6.26,4.92-12,10.62-12s9.82,4.89,11.08,11.07C877,207.07,873.85,212.69,865.57,212.86Z"/><path class="cls-53" d="M864.12,196.43c4-.29,11.83-2.88,11.67-5-3.86-.1-5.6-4.92-12.06-4.26-6.66.68-7,5.58-10.8,6.17C853.09,195.46,860.12,196.73,864.12,196.43Z"/><path class="cls-87" d="M871.82,191.8c.9.46,2.07-.33,3.44-.21a3.32,3.32,0,0,1,2.93,4.22c-.31,1.74-1.66,2.86-3.79,2.92a8,8,0,0,1-5.88-2.21"/><path class="cls-87" d="M857.26,192.53c-.8.62-2.1.06-3.42.43a3.32,3.32,0,0,0-2.1,4.69c.62,1.66,2.16,2.5,4.26,2.18a8.05,8.05,0,0,0,5.38-3.27"/><path class="cls-87" d="M860.5,194c.27,2.85,1.79,4.94,4.53,5.34,3,.43,5.53-.79,5.36-3.1-.2-2.87-2.33-3.08-3-3.93"/><path class="cls-88" d="M868.47,204.52a1.85,1.85,0,0,0,1.66-1.12.81.81,0,0,0,0-.55.43.43,0,0,0-.43-.22l-2.63.09a.44.44,0,0,0-.42.25.8.8,0,0,0,.06.55A1.87,1.87,0,0,0,868.47,204.52Z"/><circle class="cls-89" cx="863.52" cy="202.45" r="1.39"/><circle class="cls-14" cx="863.97" cy="201.96" r="0.38"/><ellipse class="cls-89" cx="872.15" cy="202.05" rx="1.18" ry="1.28" transform="translate(-6.57 30.83) rotate(-2.02)"/><ellipse class="cls-14" cx="872.53" cy="201.61" rx="0.32" ry="0.35" transform="translate(-6.56 30.84) rotate(-2.02)"/><path class="cls-86" d="M857.74,202.63l-4.34-3.52a1.47,1.47,0,0,0-2.07.31h0a1.48,1.48,0,0,0,.3,2.07l4.5,3.6"/><g class="cls-48"><g class="cls-48"><path class="cls-90" d="M876,202.84a1.86,1.86,0,0,0-.92-.33,1.78,1.78,0,0,0-.23,3.55,1.71,1.71,0,0,0,.64-.09A9.3,9.3,0,0,0,876,202.84Z"/></g></g><circle class="cls-91" cx="860.66" cy="204.5" r="1.78"/><path class="cls-92" d="M945.75,210.69a.39.39,0,0,1,.1.7c-2.24,1.39-12.18,8.09-15.39,10.2-.67.44-2.93-.62-3.56-1.11-.32-.24-17.25-9.16-17.45-9.5.56-.36,11.12-8.67,11.12-8.67Z"/><path class="cls-93" d="M930.87,219.46c1.85-1.1,10.11-6.68,13.39-8.71-.92-1.06-.43-4.76-.23-5-3.69,2.36-9,6.23-12.48,8.93C928.62,217,929.89,219.91,930.87,219.46Z"/><path class="cls-92" d="M901.58,212l26.47,9.8a5.07,5.07,0,0,0,1.25.19,2.76,2.76,0,0,0,1.16-.35,1.85,1.85,0,0,1-1.17-.63c-.42-.54-1.67-3.35.18-5.16-7.31-2.37-21.19-7.63-28.49-10C899.19,208.22,900.77,211.7,901.58,212Z"/><path class="cls-92" d="M901,205.81l28.49,10L945,206.25a.43.43,0,0,0-.09-.78L918,196.86a2.53,2.53,0,0,0-1.83.19Z"/><path class="cls-94" d="M905,203.29a.4.4,0,0,0-.14.72c2.31,1.55,9.26,6.24,12.56,8.58.69.48,3.13-.52,3.82-1,.35-.24,10.4-5.53,10.63-5.87-.58-.4-8.12-6.79-8.12-6.79Z"/><path class="cls-93" d="M917,210.29c-1.54-1-7.1-4.62-10.48-6.87,1-1.07-.51-4.42-.71-4.69,3.8,2.62,5.88,4,9.66,6.67a6,6,0,0,1,2.17,4.19C917.61,210.28,917.28,210.48,917,210.29Z"/><path class="cls-94" d="M941.28,206.55l-21.36,6.31a5.1,5.1,0,0,1-1.34.14,3.06,3.06,0,0,1-1.21-.41,2,2,0,0,0,1.26-.61,2.23,2.23,0,0,0,.42-1.69,5,5,0,0,0-1.55-3.17L941,200.71a4.2,4.2,0,0,1,1.35,3A4.13,4.13,0,0,1,941.28,206.55Z"/><path class="cls-94" d="M941,200.71l-23.52,6.41-12.78-7.9a.44.44,0,0,1,.12-.8l21.81-5a2.62,2.62,0,0,1,1.92.27Z"/><path class="cls-95" d="M905.89,196a.36.36,0,0,0-.11.64c2,1.39,8,5.59,10.79,7.69.59.43,2.68-.47,3.28-.9.3-.21,10-4.4,10.22-4.71-.5-.36-7-6.09-7-6.09Z"/><path class="cls-93" d="M916.24,202.31c-1.31-.9-6.09-4.14-9-6.16.88-1-.43-4-.6-4.2,3.26,2.34,5,3.62,8.29,6a5.43,5.43,0,0,1,1.87,3.75C916.78,202.3,916.49,202.48,916.24,202.31Z"/><path class="cls-95" d="M938.2,199.5l-19.45,5.11a4.56,4.56,0,0,1-1.15.13,2.59,2.59,0,0,1-1-.37,1.68,1.68,0,0,0,1.08-.55,2,2,0,0,0,.35-1.51,4.58,4.58,0,0,0-1.32-2.84c6.73-1.92,14.56-3.29,21.29-5.21a3.79,3.79,0,0,1,.23,5.24Z"/><path class="cls-95" d="M938,194.26l-21.29,5.21-11-7.09a.4.4,0,0,1,.11-.71l19.83-4a2.17,2.17,0,0,1,1.65.25Z"/><path class="cls-96" d="M915.41,192.85a7.61,7.61,0,0,1-.81-.64,3.54,3.54,0,0,0-3.63-1,3.91,3.91,0,0,0-2.78,2.73,1.54,1.54,0,0,0-1.1.81c-.51,1,.28,1.7,1.14,2.08a2.23,2.23,0,0,0,1.37,0c.77-.4.93-1.3,1.13-1.76.31-.69.55-.9,1.08-1.06.27-.08.27-.08.87.43a11.79,11.79,0,0,0,1.08.84,1.47,1.47,0,0,0,1.65-2.44Z"/><path class="cls-96" d="M916.3,193.33a6.94,6.94,0,0,1-1-.26,3.54,3.54,0,0,0-3.74.52,3.86,3.86,0,0,0-1.48,3.23,1.54,1.54,0,0,0-.4,1.28c.19,1.13,1.22,1.21,2.14,1A1.46,1.46,0,0,0,913,198a6.37,6.37,0,0,0,.06-.82c0-.77-.14-1.12.39-1.35a13.19,13.19,0,0,1,2.79.14c.8.14,1.08-.13,1.23-.93A1.48,1.48,0,0,0,916.3,193.33Z"/><path class="cls-96" d="M915.23,185a15,15,0,0,1-3.42-1.52,14.24,14.24,0,0,1-1.37-.92c-.45-.34-.86-.86-1.45-1a1.52,1.52,0,0,0-1.67,1.42c-.09.7.71,1.51,1.19,1.92a11.44,11.44,0,0,0,2.12,1.4,8,8,0,0,0,2.61.8"/><path class="cls-96" d="M917.5,196.32c-7.73-2.23-9.58-8.23-7.24-13.66,2.45-5.7,8.11-9.52,13.49-8s8.13,7.8,7.17,13.93C930,194.46,925.23,198.55,917.5,196.32Z"/><path class="cls-96" d="M917.32,196.38c-7.73-2.23-9.58-8.23-7.25-13.66,2.45-5.7,8.11-9.52,13.49-8s8.14,7.8,7.17,13.93C929.81,194.52,925.05,198.61,917.32,196.38Z"/><path class="cls-88" d="M910.35,183.76l1.59,1.2a.44.44,0,0,1,.22.44.74.74,0,0,1-.36.41,2.79,2.79,0,0,1-1.91,0A7.87,7.87,0,0,1,910.35,183.76Z"/><circle class="cls-89" cx="915.38" cy="185.97" r="1.39"/><circle class="cls-14" cx="915.96" cy="185.65" r="0.38"/><circle class="cls-14" cx="925.54" cy="187.52" r="0.37"/><path class="cls-97" d="M909.7,173c1.54,0,2.87,1.25,4.43.94a11.4,11.4,0,0,0,2.7-1.12,10.45,10.45,0,0,1,7.74-1,9.4,9.4,0,0,1,5.33,4c.81,1.25,1.42,2.71,2.62,3.66,1.36,1.08,3.11.8,4.54,1.65a3.25,3.25,0,0,1,1,4.85,3.41,3.41,0,0,1-4.41,1,8.15,8.15,0,0,1-3-2.16,13.66,13.66,0,0,0-1.57-1.9c-2-1.68-4.73-1.3-7.13-2a20.26,20.26,0,0,1-4-1.69,5,5,0,0,0-1.79-.9c-1.3-.08-2.24,1-3.44,1.33a8.32,8.32,0,0,1-3.26.1,3.41,3.41,0,0,1-3.21-3.17A3.26,3.26,0,0,1,909.7,173Z"/><path class="cls-97" d="M930.87,179.8a7.09,7.09,0,0,0,1.73,1.84c1.14.84,2.43,1.22,2.78,2.45a.84.84,0,0,1,0,.1,3.72,3.72,0,0,1-.59,2.76c-.92,1.5-2.58,2-4.58,1.33a5.61,5.61,0,0,1-1.71-.82c-2.31-1.67-2.44-2.62-4.1-6.17"/><path class="cls-97" d="M916.61,175.35c-.66.48-1.75.59-2.64,1.27-1.05.8-2.8,2.91-.44,5.21a4,4,0,0,0,5,.33,7.39,7.39,0,0,0,2.38-2.13"/><path class="cls-97" d="M921.35,179a4.61,4.61,0,0,0-2.4,2.88,4.21,4.21,0,1,0,8.09,2.34,4.59,4.59,0,0,0-.48-3.72"/><circle class="cls-98" cx="915.85" cy="188.6" r="1.74"/><path class="cls-96" d="M919,190.53a14.89,14.89,0,0,1,.39,2.55,15.14,15.14,0,0,1,0,1.65,3.52,3.52,0,0,0,0,1.74,1.52,1.52,0,0,0,2.11.56c.63-.33.83-1.45.9-2.08a10.29,10.29,0,0,0-.07-2.54,7.79,7.79,0,0,0-.82-2.6"/><path class="cls-99" d="M797.05,231.55l7.66-7.25a4.81,4.81,0,0,0,1-1.52,3.53,3.53,0,0,0-.51-4c-7.35.5-13.33.08-20.67.58a4.75,4.75,0,0,0-2.47,1.13l-8.79,6.27c-.57.63-.35,1,.3,1.22.25.08,21.89,4.22,21.89,4.22A1.66,1.66,0,0,0,797.05,231.55Z"/><path class="cls-100" d="M775.15,224.91a4,4,0,0,0-.68-1.6l7.6-6.31.57-.11c3.16,1.29,5.28.28,8.09.68,2.28.32,4.57.61,6.85,1a13.37,13.37,0,0,1,3.31.53,10,10,0,0,1,2.08,1,3.41,3.41,0,0,1,.5.6c.65,1,1,1.51.27,2.66-.09.14-6.7,5.48-8.19,6.94a.78.78,0,0,1-.68.22c-.68-.11-19.91-3.65-19.88-3.72A3.77,3.77,0,0,0,775.15,224.91Z"/><path class="cls-99" d="M804.71,220a.7.7,0,0,1,.45-.21,1.06,1.06,0,0,1,.84.65,3.33,3.33,0,0,0-.82-1.6,2.67,2.67,0,0,0-1.35-.77l-20.51-2.42a1.65,1.65,0,0,0-1.44.58l-8.4,6.15s-1.07,1,.31,1.3l21.65,3.56a2,2,0,0,0,.35,0,2.11,2.11,0,0,0,.86-.3C797.09,226.64,800.34,223.85,804.71,220Z"/><path class="cls-101" d="M793.72,227.55l8.3-6.44a4.28,4.28,0,0,0,1.13-1.18,5.54,5.54,0,0,0,.25-4.8c-6.58-.84-12.57.5-19.16-.33a1.47,1.47,0,0,0-1.37.26L774.38,220c-.89.72-.76,1.53.31,1.94l17.49,6A1.48,1.48,0,0,0,793.72,227.55Z"/><path class="cls-100" d="M775.54,219a3.54,3.54,0,0,0,.31-1.39,3.72,3.72,0,0,0-.32-1.63l2-1.43a39.91,39.91,0,0,0,11.16,2.15,59.48,59.48,0,0,0,7.43-.29,16.7,16.7,0,0,0,5.44-1.33l.26.25a3.16,3.16,0,0,1,.34.65,3.5,3.5,0,0,1-.44,3.5c-.12.14-7.45,5.75-7.85,6.15a1.42,1.42,0,0,1-1.5.31c-.94-.42-17.51-5.84-17.18-6.3A3.68,3.68,0,0,0,775.54,219Z"/><path class="cls-101" d="M794.77,222.2l8.19-5.85c.81-.77.64-1.52-.44-1.85L785.17,210a1.45,1.45,0,0,0-1.37.27l-8.49,4.9c-.88.72-.75,1.54.32,1.94l17.6,5.36A1.48,1.48,0,0,0,794.77,222.2Z"/><path class="cls-102" d="M788.82,212.56l-3.7-.93a.36.36,0,0,0-.27,0l-6.29,3.73a.31.31,0,0,0,.05.56l3.77,1.16a1.16,1.16,0,0,0,1-.15l5.5-3.84A.31.31,0,0,0,788.82,212.56Z"/><path class="cls-103" d="M802.56,216.29l-7.79,5.91a1.48,1.48,0,0,1-1.54.31l-17.58-5.35h0c-1.07-.4-1.2-1.22-.32-1.94l8.49-4.9a1.47,1.47,0,0,1,1.38-.27l17.34,4.46a1.3,1.3,0,0,1,.88.63l0,.06a.43.43,0,0,1,0,.05,5.44,5.44,0,0,1-.29,4.69,4.28,4.28,0,0,1-1.13,1.18l-8.3,6.44a1.48,1.48,0,0,1-1.54.31l-17.49-6c-1.07-.41-1.2-1.22-.31-1.94l.92-.53"/><path class="cls-100" d="M780.83,221.94c-3.21-1.14-5.79-2.12-5.66-2.3a3.68,3.68,0,0,0,.37-.64,3.21,3.21,0,0,0,.23-.69"/><path class="cls-104" d="M794.22,214.5a10.51,10.51,0,0,0,3.67,2.26c.82.29,2.89,1,3.68.61a1.8,1.8,0,0,0,.66-.54c.5-.72.81-1.64-.09-2.22a1.47,1.47,0,0,0-1-.19,1.51,1.51,0,0,1-.7,0,14.7,14.7,0,0,1-2-.69,14.31,14.31,0,0,1-2.6-1.42,1.49,1.49,0,0,0-1.84.7A1.43,1.43,0,0,0,794.22,214.5Z"/><path class="cls-104" d="M790.13,216.29a10.38,10.38,0,0,0,3,3.09c.72.48,2.55,1.67,3.42,1.49a1.73,1.73,0,0,0,.76-.37c.67-.57,1.19-1.39.46-2.17a1.41,1.41,0,0,0-.95-.43,1.77,1.77,0,0,1-.68-.19,14.67,14.67,0,0,1-4-3.16,1.47,1.47,0,0,0-1.95.22A1.43,1.43,0,0,0,790.13,216.29Z"/><path class="cls-104" d="M793,217c7.55-1.35,9.9-6.86,8.22-12.24-1.77-5.64-6.76-9.82-12-8.87s-8.48,6.59-8.16,12.49C781.38,214,785.5,218.32,793,217Z"/><path class="cls-105" d="M796.41,207.91a1.49,1.49,0,0,1-1.11,1,1.76,1.76,0,0,1-1.64-.41"/><circle class="cls-89" cx="798.43" cy="205.76" r="1.25"/><circle class="cls-14" cx="797.95" cy="205.41" r="0.35"/><circle class="cls-89" cx="790.53" cy="207.68" r="1.3"/><circle class="cls-14" cx="790.03" cy="207.31" r="0.36"/><path class="cls-106" d="M775.75,201.18c1.21-.54,2.67-.16,3.64-.75,3.56-2.17,3.34-6.36,9.6-7.48s8.23,3.89,11.43,3.45a.38.38,0,0,1,0,.1c1,0,1.47-.59,3.46-.68a3.33,3.33,0,0,1,3.48,3.76,3.66,3.66,0,0,1-3.64,3c-1.3.09-2.79-.3-5-1.71l1.17-3.1c-1.77,1.84-6.13,3.89-9.11,4.48s-7.78.39-10.12-.64L783,204a7.5,7.5,0,0,1-4.14,3.21,3.64,3.64,0,0,1-4.44-1.28A3.08,3.08,0,0,1,775.75,201.18Z"/><g class="cls-48"><g class="cls-48"><path class="cls-107" d="M801,206.44a1.75,1.75,0,0,0-.91-.08,1.66,1.66,0,1,0,.64,3.26,1.72,1.72,0,0,0,.56-.22A8.67,8.67,0,0,0,801,206.44Z"/></g></g><circle class="cls-108" cx="790.21" cy="211.02" r="1.66"/><path class="cls-109" d="M796.64,205.29a2.5,2.5,0,0,0,2.17,2.75,2.46,2.46,0,0,0,2.64-2.26,2.5,2.5,0,0,0-2.17-2.75A2.45,2.45,0,0,0,796.64,205.29Zm-1-.11a3.45,3.45,0,0,1,3.72-3.17,3.51,3.51,0,0,1,3,3.87,3.45,3.45,0,0,1-3.72,3.18A3.51,3.51,0,0,1,795.66,205.18Z"/><path class="cls-109" d="M787.36,207.85a2.73,2.73,0,1,0,3-2.45A2.73,2.73,0,0,0,787.36,207.85Zm-1.11-.11a3.84,3.84,0,1,1,3.45,4.2A3.85,3.85,0,0,1,786.25,207.74Z"/><path class="cls-109" d="M793.2,207.87a.55.55,0,0,0,.6-.43,1.31,1.31,0,0,1,.78-.87,1.22,1.22,0,0,1,1,.16.55.55,0,0,0,.77-.15.54.54,0,0,0-.15-.77,2.35,2.35,0,0,0-2-.3,2.4,2.4,0,0,0-1.53,1.68.56.56,0,0,0,.42.67Z"/><path class="cls-110" d="M782.78,199.18c-.65.77-1.57.5-2.84,1a3.12,3.12,0,0,0-1.56,4.55c.78,1.43,2.52,2.12,4.57,1.49,1.89-.58,4.32-1.92,5.85-6.46"/><path class="cls-110" d="M797.15,196.47c.92.4,2-.45,3.42-.41a3.44,3.44,0,0,1,3.29,4c-.14,1.76-1.62,3-3.73,3.19a8.07,8.07,0,0,1-6-1.86"/><path class="cls-110" d="M792.82,196.57c.61.69,2,1.3,2.69,2.91a3.54,3.54,0,0,1-2.36,4.81,4.55,4.55,0,0,1-5.77-2.16,6.06,6.06,0,0,1-.29-3.82"/><path class="cls-111" d="M791.84,217.42c-.49-1.82-2.66-3.66-3.11-6.11a.46.46,0,0,1,.15-.41,14,14,0,0,1,1.1-1,.86.86,0,0,1,.45-.18l6.7-.56,1.78-.51,2.65-1.58a.55.55,0,0,1,.48,0l.53.16c.42.12.23.38-.6,1l-9.63,9.61C792.44,217.78,791.91,217.71,791.84,217.42Z"/><polygon class="cls-112" points="790.9 218.83 788.62 210.91 797.5 210.11 798.64 218.46 790.9 218.83"/><polygon class="cls-112" points="799.31 209.58 800.41 217.94 804 214.87 803.19 207.2 799.31 209.58"/><polygon class="cls-112" points="799.47 209.56 800.41 217.94 798.53 218.48 797.35 210.13 799.47 209.56"/><path class="cls-43" d="M786,211.61a4,4,0,0,0,3.87,1.15,1.49,1.49,0,0,1,1.71.74,1.41,1.41,0,0,1-.93,2,6.94,6.94,0,0,1-3.89-.12l-.14-.05a7.24,7.24,0,0,1-2.64-1.71"/><ellipse class="cls-43" cx="803.76" cy="209.32" rx="1.15" ry="1.36" transform="translate(-24.86 152.42) rotate(-10.67)"/></g></g></g></svg>