<svg xmlns="http://www.w3.org/2000/svg" xmlns:xlink="http://www.w3.org/1999/xlink" viewBox="0 0 1148.65 268.25"><defs><style>.cls-1,.cls-118,.cls-123,.cls-31,.cls-35,.cls-43,.cls-58,.cls-65,.cls-70,.cls-71,.cls-73,.cls-74,.cls-79,.cls-85{fill:none;}.cls-2{isolation:isolate;}.cls-3{fill:#ec62b4;}.cls-4{fill:#ffde00;}.cls-5{fill:#30b4e7;}.cls-6{fill:#005cb6;}.cls-7{fill:#d85200;}.cls-8{fill:#ca3e00;}.cls-9{fill:#2cb5d8;}.cls-10{fill:#886254;}.cls-11{fill:#ffbc02;}.cls-12{fill:#603a1f;}.cls-13{fill:#0d101e;}.cls-14{fill:#212431;}.cls-15{fill:#cdcbcf;}.cls-16{fill:#ffcc02;}.cls-17{fill:#f89a00;}.cls-18{fill:#d65e00;}.cls-19{fill:#bbe5fa;}.cls-20{fill:#ffff8e;}.cls-21{fill:#e6e88e;}.cls-121,.cls-22,.cls-23,.cls-24,.cls-36,.cls-38,.cls-46,.cls-63,.cls-69,.cls-77{fill:#fff;}.cls-22{opacity:0.66;}.cls-22,.cls-23,.cls-24{mix-blend-mode:screen;}.cls-23{opacity:0.23;}.cls-24{opacity:0.17;}.cls-25{fill:#925a02;}.cls-26{fill:#ba6600;}.cls-27{fill:#4cd0d6;}.cls-28{fill:#643f25;}.cls-29{clip-path:url(#clip-path);}.cls-30,.cls-42,.cls-66{fill:#f49b00;}.cls-30,.cls-31,.cls-42,.cls-43,.cls-66{stroke:#ee7d00;}.cls-118,.cls-123,.cls-30,.cls-31,.cls-32,.cls-35,.cls-36,.cls-40,.cls-42,.cls-43,.cls-44,.cls-45,.cls-46,.cls-49,.cls-50,.cls-52,.cls-53,.cls-54,.cls-57,.cls-58,.cls-59,.cls-60,.cls-61,.cls-63,.cls-65,.cls-66,.cls-69,.cls-70,.cls-71,.cls-77,.cls-79,.cls-80,.cls-81,.cls-85,.cls-91{stroke-linecap:round;stroke-linejoin:round;}.cls-30,.cls-32,.cls-35,.cls-36{stroke-width:0.59px;}.cls-31{stroke-width:0.5px;}.cls-32,.cls-33,.cls-40{fill:#1860aa;}.cls-32,.cls-35,.cls-36,.cls-40{stroke:#3b4394;}.cls-34{fill:#ee1d35;}.cls-37{fill:#3b4394;}.cls-39{fill:#e95a0c;}.cls-40{stroke-width:0.62px;}.cls-41{clip-path:url(#clip-path-2);}.cls-42,.cls-44,.cls-45,.cls-46{stroke-width:0.54px;}.cls-43{stroke-width:0.46px;}.cls-44{fill:#e20613;}.cls-44,.cls-46{stroke:#b90d0d;}.cls-45{fill:#ffcc1b;stroke:#f6a723;}.cls-47{fill:#b90d0d;}.cls-48{clip-path:url(#clip-path-3);}.cls-49{fill:#a26828;stroke:#83551d;}.cls-49,.cls-50,.cls-52,.cls-53{stroke-width:0.76px;}.cls-50,.cls-51{fill:#ffd88e;}.cls-50,.cls-53{stroke:#e6bc80;}.cls-52{fill:#ffcb31;stroke:#f9a533;}.cls-53{fill:#fff9c1;}.cls-54{fill:#f89c1c;stroke:#f48120;stroke-width:0.69px;}.cls-55{fill:#6e3e18;}.cls-56{clip-path:url(#clip-path-4);}.cls-57,.cls-80,.cls-91{fill:#a95e1f;}.cls-57,.cls-58,.cls-80,.cls-91{stroke:#8d4813;}.cls-57{stroke-width:0.59px;}.cls-58{stroke-width:0.5px;}.cls-59,.cls-62{fill:#fc7ab0;}.cls-59,.cls-63,.cls-65{stroke:#f04e98;}.cls-59,.cls-60,.cls-61,.cls-63,.cls-65,.cls-66{stroke-width:0.64px;}.cls-60,.cls-76{fill:#009dda;}.cls-60{stroke:#009dda;}.cls-61{fill:#fd0;stroke:#fd0;}.cls-64{fill:#f04e98;}.cls-67{fill:#f16522;}.cls-68{clip-path:url(#clip-path-5);}.cls-69,.cls-70,.cls-77{stroke:#7bafde;}.cls-69{stroke-width:0.78px;}.cls-70,.cls-71,.cls-77{stroke-width:0.78px;}.cls-71{stroke:#ffc132;}.cls-72{fill:#ffe72c;}.cls-73,.cls-74{stroke:#fff;stroke-miterlimit:10;}.cls-73{stroke-width:0.94px;}.cls-74{stroke-width:0.98px;}.cls-75{fill:#f7acbc;}.cls-78,.cls-81{fill:#f29111;}.cls-79,.cls-81{stroke:#ec6e18;}.cls-79,.cls-81,.cls-85{stroke-width:0.78px;}.cls-80{stroke-width:0.73px;}.cls-82{mix-blend-mode:darken;}.cls-83{fill:#ec6e18;}.cls-84{fill:#f8b04c;}.cls-85{stroke:#6e3e18;}.cls-86{fill:#e95178;}.cls-87{clip-path:url(#clip-path-6);}.cls-88{fill:#fcc94c;}.cls-89{clip-path:url(#clip-path-7);}.cls-90{fill:#3e1c0c;}.cls-91{stroke-width:0.79px;}.cls-92{fill:#734636;}.cls-93{fill:#a04e00;opacity:0.27;}.cls-101,.cls-93{mix-blend-mode:multiply;}.cls-94{fill:#6ab433;}.cls-95{fill:#459a00;}.cls-96{fill:#f5f191;}.cls-97{clip-path:url(#clip-path-8);}.cls-98{fill:#0072dc;}.cls-99{fill:#007ad9;}.cls-100{fill:#52c880;}.cls-101{fill:#0680da;opacity:0.24;}.cls-102{fill:#689ed5;}.cls-103{fill:#ffbe3c;}.cls-104{fill:#bcd4ec;}.cls-105{fill:#ff7203;}.cls-106{fill:#f9d2b0;}.cls-107{fill:#602b00;}.cls-108{fill:#ff9b24;}.cls-109{fill:#fff7d3;}.cls-110{fill:#353e9e;}.cls-111{fill:#f4c264;}.cls-112{fill:#e50013;}.cls-113{fill:#fff5d3;}.cls-114{fill:#f1dcae;}.cls-115{fill:#ac3aea;}.cls-116{fill:#a222e7;}.cls-117{fill:#d65a00;}.cls-118{stroke:#f1dcae;stroke-width:0.88px;}.cls-119{fill:#f8b600;}.cls-120{fill:#ffd400;}.cls-121{opacity:0.68;mix-blend-mode:lighten;}.cls-122{fill:#e4a200;}.cls-123{stroke:#f8b600;stroke-width:0.96px;}.cls-124{fill:#ffef31;}</style><clipPath id="clip-path"><path class="cls-1" d="M1065.22,93.22,1052,91l-4.85-.82-.67-.12,3.7-32.61,12.84,3.51,2.3.64,3.35.92-.48,4.28a14,14,0,0,1-3,26.44Z"/></clipPath><clipPath id="clip-path-2"><path class="cls-1" d="M1085,96.11l-16.38-2.4,3.44-30.35,1.48.38a39.27,39.27,0,0,1,5.73-1.48,40.36,40.36,0,0,1,10.33-.5l6.36,8.52c.18.68,3.75,14.91-4.78,22.47A16,16,0,0,1,1085,96.11Z"/></clipPath><clipPath id="clip-path-3"><path class="cls-1" d="M1009.78,88.64l-6.53-.71-4.75-.52L985,85.92l4-37.78a5.22,5.22,0,0,1,6.53-4.57l6.6,1.73,2.25.6,10.25,2.69-1.64,13.76c4.88,5.88,6.15,13.34,3.2,18.87a14.42,14.42,0,0,1-6.16,5.89Z"/></clipPath><clipPath id="clip-path-4"><path class="cls-1" d="M1015.8,86.37l3.68-32.46a3.45,3.45,0,0,1,4.28-2.95l.63.17,6.47,1.66,4.83,1.25,7.48,1.92h0a3.45,3.45,0,0,1,2.57,3.73l0,.38a16.4,16.4,0,0,1,9,13.75c.26,7.23-4.81,14.07-12.42,16.27Z"/></clipPath><clipPath id="clip-path-5"><path class="cls-1" d="M893.33,30.45h67.59a11.66,11.66,0,0,1,11.66,11.66v33.2a4.28,4.28,0,0,1-4.28,4.28H885.94a4.28,4.28,0,0,1-4.28-4.28V42.11a11.66,11.66,0,0,1,11.66-11.66Z" transform="translate(12.1 -104.1) rotate(6.47)"/></clipPath><clipPath id="clip-path-6"><path class="cls-1" d="M951.7,58.45c.24-1.81,1.62-1.37,3.35-1.12s3.17.21,2.92,2a3.22,3.22,0,0,1-3.59,2.83A3.27,3.27,0,0,1,951.7,58.45Z"/></clipPath><clipPath id="clip-path-7"><path class="cls-1" d="M939.53,56.78c.22-1.67,1.47-1.27,3-1s2.88.2,2.65,1.87a2.94,2.94,0,0,1-3.26,2.6A3,3,0,0,1,939.53,56.78Z"/></clipPath><clipPath id="clip-path-8"><path class="cls-1" d="M184.3,126.67c0,.62.07,1.25.09,1.88s0,1.23,0,1.83c0,.34,0,.69,0,1s0,.52,0,.79c0,1.73-.09,3.46-.22,5.17,0,.28-.05.55-.07.82l-.09,1c0,.34-.08.69-.11,1-.07.68-.16,1.36-.26,2l-.15,1h0a79.11,79.11,0,1,1,.77-16.62Z"/></clipPath></defs><title>Asset 11</title><g class="cls-2"><g id="Layer_2" data-name="Layer 2"><g id="Layer_1-2" data-name="Layer 1"><path class="cls-3" d="M798,191.34c46.15-43.19,109.48-69.23,170.82-69.5,63.51-.27,129.37,22.17,178.6,65.16l1.23-2.92c-52.66-51.34-125.6-78.5-197.33-77-67.8,1.42-140.75,32.15-188.66,84.26Z"/><path class="cls-4" d="M786.66,268l-1.26.15A1.7,1.7,0,0,0,786.66,268Z"/><path class="cls-4" d="M840.55,191.34c44.77-39.18,104.22-57.73,162.32-55.1a244.44,244.44,0,0,1,142.93,54.64l1.62-3.88c-49.23-43-115.09-65.43-178.6-65.16-61.34.27-124.67,26.31-170.82,69.5Z"/><path class="cls-5" d="M891.16,191.34c45.66-32.21,102.85-43.69,156.69-35.67,31.65,4.71,63.13,16.68,90,35.67h7.8l.2-.46a250.87,250.87,0,0,0-67.51-39c-18.61-7.14-72.64-27-139.57-11.3-47.81,11.24-80.84,35.63-98.17,50.72Z"/><path class="cls-6" d="M944.07,191.34l1.23-.67a185.59,185.59,0,0,1,95-21.78A198.36,198.36,0,0,1,1123,191.34h14.78c-13.74-9.61-85.63-57.91-172.38-36.65a195.08,195.08,0,0,0-74.26,36.65Z"/><path class="cls-7" d="M864.25,64.29c-.23.87-.46,1.74-.7,2.61l8.94,11.94s3.24-4.46,2.92-4.71h0C875.12,74.08,871.94,71.31,864.25,64.29Z"/><path class="cls-7" d="M866.37,74.87,861.29,74a2.31,2.31,0,0,1-1.55-2.57l.23-9.77c.1-1.43,1.13-2.54,2.25-2.42l5.71.33a2.27,2.27,0,0,1,1.69,2.63l-.87,10.28C868.63,74,867.51,75.11,866.37,74.87Z"/><path class="cls-7" d="M865.57,73.16a2.67,2.67,0,0,1-.57,1.48L861.29,74a2.33,2.33,0,0,1-1.56-2.57l.24-9.77a3.43,3.43,0,0,1,.23-1l4.5.26a2.17,2.17,0,0,1,1.68,2.49Z"/><path class="cls-7" d="M865.57,73.16a2.67,2.67,0,0,1-.57,1.48L861.29,74a2.33,2.33,0,0,1-1.56-2.57l.24-9.77a3.43,3.43,0,0,1,.23-1l4.5.26a2.17,2.17,0,0,1,1.68,2.49Z"/><path class="cls-8" d="M865.57,73.16a2.67,2.67,0,0,1-.57,1.48L861.29,74a2.33,2.33,0,0,1-1.56-2.57l.24-9.77a3.43,3.43,0,0,1,.23-1l4.5.26a2.17,2.17,0,0,1,1.68,2.49Z"/><rect class="cls-7" x="872.28" y="71.71" width="3.86" height="8.27" rx="1.46" transform="translate(1734.32 249.69) rotate(-173.53)"/><path class="cls-9" d="M1085.58,111.53l-106-11.83,7.09-62.56c40.94,9.15,63.7,16.06,104.63,25.21C1088.82,78.68,1088,95.2,1085.58,111.53Z"/><path class="cls-10" d="M1014.1,92.49q13.5,1.2,27,2.59a163.44,163.44,0,0,0,3.16-17.53l-28.69-3.26a69.64,69.64,0,0,1-.64,10.1C1014.61,87.11,1014.47,89.81,1014.1,92.49Z"/><path class="cls-10" d="M1063,97.46c1.52-5.74,2.65-11.53,2.17-17.54l-18-2a162.6,162.6,0,0,1-3.15,17.51Q1053.57,96.39,1063,97.46Z"/><path class="cls-10" d="M1065.93,97.78l21.11,2.4c.66-5.85,1.23-11.72,1.81-17.58l-20.59-2.33C1068.61,86.28,1067.44,92.06,1065.93,97.78Z"/><path class="cls-10" d="M1009.44,92.07l1.65.15c.36-2.63.5-5.28.79-7.94a61.66,61.66,0,0,0,.64-10.33q-7.29-1.58-14.93-3-7.05-1.34-13.85-2.47-1.56,10.8-3.11,21.59C990.25,90.55,999.85,91.25,1009.44,92.07Z"/><path class="cls-11" d="M954.17,24.73C955,13.18,964,5.66,971,6.08c7.71.45,16.94,10.65,14.31,23.72Z"/><path class="cls-11" d="M893,19.32C893.78,7.77,902.78.26,909.81.67c7.71.45,16.94,10.65,14.31,23.73Z"/><path class="cls-12" d="M897.69,17.38c.28-7.3,5.11-12.53,9.47-12.75,5-.26,12,6,11.45,15.31Z"/><path class="cls-12" d="M958.43,23c.28-7.3,5.11-12.53,9.47-12.75,5-.26,12,6,11.45,15.31Z"/><path class="cls-13" d="M1032.53,135.11c0-.28.1-.55.13-.83,1.06-9.37-4.87-17.74-13.26-18.69s-16,5.88-17.11,15.25c0,.28,0,.55,0,.83Z"/><path class="cls-14" d="M1017.28,115.35,1006,114.08c-8.38-1-16,5.87-17.1,15.24s4.87,17.75,13.26,18.7l11.24,1.27c8.38,1,16-5.88,17.11-15.25S1025.66,116.3,1017.28,115.35Z"/><ellipse class="cls-15" cx="1016.99" cy="132.66" rx="6.82" ry="5.97" transform="translate(770.61 1128.23) rotate(-83.53)"/><path class="cls-14" d="M931,123.64a17.35,17.35,0,0,0,.12-1.74,17.89,17.89,0,0,0-.23-3.38,17.51,17.51,0,0,0-1.41-4.66c-.22-.49-.46-1-.72-1.41a14.67,14.67,0,0,0-11-7.5l-11.24-1.28c-8.39-1-16.05,5.88-17.11,15.25s4.87,17.74,13.26,18.69l11.24,1.28a14,14,0,0,0,7.81-1.41,17.47,17.47,0,0,0,9.3-13.84Z"/><path class="cls-13" d="M1083.07,139.11c0-.27.1-.53.13-.81.93-8.23-4.28-15.57-11.64-16.4s-14.08,5.15-15,13.38c0,.27,0,.55-.06.82Z"/><path class="cls-14" d="M1070.28,121.7l-9.39-1.07c-7-.79-13.44,5.23-14.38,13.46s4,15.53,11,16.33l9.39,1.06c7,.8,13.44-5.23,14.37-13.45S1077.28,122.49,1070.28,121.7Z"/><ellipse class="cls-15" cx="1069.31" cy="137" rx="5.99" ry="4.99" transform="matrix(0.11, -0.99, 0.99, 0.11, 812.72, 1184.08)"/><path class="cls-16" d="M988.5,26.24,976.68,130.53l-2.95-.38L859.47,115.69c-6.65-11.9-6.58-25,.68-33.87a16.73,16.73,0,0,1,1.24-1.4,29.2,29.2,0,0,1,11-7c0-.26,0-.52,0-.77.27-5.09.56-9.66.84-13.77.07-1.08.15-2.13.23-3.14.3-4.17.61-7.8.9-11s.55-5.79.81-8.06c.11-1,.22-2,.33-2.83a24.67,24.67,0,0,1,4.1-11.55,15.72,15.72,0,0,1,1.22-1.56,20,20,0,0,1,2.57-2.43,15,15,0,0,1,2-1.37,20.86,20.86,0,0,1,9-2.77c8.3.42,16.82,1,25.56,1.82,2.67.25,5.36.51,8.07.8l1.2.12,3.77.41c2.51.28,5,.58,7.6.9s4.88.63,7.33,1q8,1.08,16.29,2.44l1,.16.6.1c3.8.63,7.56,1.29,11.25,2l.26,0c2.79.51,5.55,1.05,8.27,1.59l.82.16Z"/><path class="cls-17" d="M1094.58,59.7a16.51,16.51,0,0,0-3.34-1.57c-.39-.15-.84-.3-1.33-.47-3.45-1.2-9-3-15.93-5.27L1069.51,51l-.68-.22-5.22-1.66-7.44-2.35c-1.7-.53-3.41-1.06-5.15-1.62L1043,42.59l-1.14-.36L1035,40.11l-5.91-1.82-8.28-2.52-6.46-2-2.51-.76L1008.29,32l-9.19-2.72c-2.15-.64-4.19-1.22-6.12-1.78-2.38-.68-4.59-1.31-6.57-1.86l-.82-.16L974.08,127.05l29.55,2.64c1.9-8.52,8.63-14.49,15.85-13.67a11.47,11.47,0,0,1,4,1.22,13.72,13.72,0,0,1,4.84,4.16,18.48,18.48,0,0,1,3.25,7.85,22.14,22.14,0,0,1,.28,3l5.16.44,7.5.62,5.82.49,6.36.53h.08q.09-.39.21-.78a17.63,17.63,0,0,1,3.52-6.59h0a13.08,13.08,0,0,1,9.18-4.79,11.36,11.36,0,0,1,1.84.06l.51.07a11.23,11.23,0,0,1,4.17,1.55c4,2.43,6.71,7.28,7,12.86l6.53.11c.84-6.49,1.66-12.78,2.47-19,.34-2.62.69-5.22,1-7.8.78-6,1.56-12,2.34-18q.73-5.49,1.45-11.09.78-5.82,1.55-11.86C1099.12,64.85,1098,61.84,1094.58,59.7Zm-84.5,26.41a2.58,2.58,0,0,1-2.84,2.25l-4-.43-4.75-.52-11-1.21a2.58,2.58,0,0,1-2.28-2.82l3.71-35.24a5.22,5.22,0,0,1,6.53-4.57l6.6,1.73,2.25.6,8.08,2.12a2.6,2.6,0,0,1,1.91,2.79Zm32.21,4-26.49-3.72,3.68-32.46a3.46,3.46,0,0,1,4.28-2.95l.63.17,6.47,1.66,4.83,1.25,7.48,1.92a3.45,3.45,0,0,1,2.57,3.73Zm22.93,3.13L1052,91l-4.85-.82-.67-.12L1050,59a1.32,1.32,0,0,1,1.66-1.13l11.35,3.1,2.3.64,2.25.62a1.31,1.31,0,0,1,1,1.43ZM1085,96.11l-16.38-2.4,3.25-28.63a1.51,1.51,0,0,1,1.87-1.3l12.91,3.3.32.08a1.51,1.51,0,0,1,1.13,1.64Z"/><path class="cls-18" d="M1058.85,129.28a18.91,18.91,0,0,0-2.52,7.54v.11c-11.82-1-12.75-.8-24.57-1.76a20.65,20.65,0,0,0-1-9.13Z"/><path class="cls-18" d="M1090.29,132.49c-.29,2.21-.86,6.62-.86,6.62l-6.25,0s-.12-5-.85-7.22Z"/><path class="cls-19" d="M893.33,30.45h67.59a11.66,11.66,0,0,1,11.66,11.66v33.2a4.28,4.28,0,0,1-4.28,4.28H885.94a4.28,4.28,0,0,1-4.28-4.28V42.11a11.66,11.66,0,0,1,11.66-11.66Z" transform="translate(12.1 -104.1) rotate(6.47)"/><path class="cls-9" d="M963.47,34.42l-55.4-6.29-4.49,39.62L880.23,65.1l-.56,5a4.27,4.27,0,0,0,3.77,4.73l81.84,9.28A4.28,4.28,0,0,0,970,80.3l3.74-33A11.67,11.67,0,0,0,963.47,34.42Z"/><path class="cls-20" d="M965.81,133.42,851.35,120.49a3.41,3.41,0,0,1-3.17-3.62l1.19-10.54a3.42,3.42,0,0,1,3.89-2.82c37.47,4.06,77.58,8.43,114.89,12.48l.26,0c7.41,1.34,24.48,3.77,34.11,5.36a3.38,3.38,0,0,1,3,3.75c-.45,2.67-.89,5.35-1.34,8a3.39,3.39,0,0,1-3.68,2.68c-9.59-.58-26.93-2-34.41-2.39Z"/><path class="cls-20" d="M965.81,133.42,851.35,120.49a3.41,3.41,0,0,1-3.17-3.62l1.19-10.54a3.42,3.42,0,0,1,3.89-2.82c37.47,4.06,77.58,8.43,114.89,12.48l.26,0c7.41,1.34,24.48,3.77,34.11,5.36a3.38,3.38,0,0,1,3,3.75c-.45,2.67-.89,5.35-1.34,8a3.39,3.39,0,0,1-3.68,2.68c-9.59-.58-26.93-2-34.41-2.39Z"/><path class="cls-21" d="M1002.52,121.38c-8.09-1.33-21.41-3.26-29.86-4.64l-1.93,17c8.57.56,21.8,1.64,29.73,2.12a3.39,3.39,0,0,0,3.68-2.68c.45-2.67.89-5.35,1.34-8A3.38,3.38,0,0,0,1002.52,121.38Z"/><path class="cls-22" d="M972,116.65l-.31,2.66c-1.89-.29-3.57-.57-4.92-.82l-.26,0L851.65,106a3.78,3.78,0,0,0-2.28.45v-.1a3.4,3.4,0,0,1,3.88-2.82c37.47,4.06,77.59,8.43,114.89,12.48l.27,0C969.45,116.22,970.67,116.43,972,116.65Z"/><path class="cls-23" d="M1005.48,125.13l-1.34,8a3.15,3.15,0,0,1-1.56,2.19c.43-2.59.85-5.16,1.29-7.75a3.36,3.36,0,0,0-3-3.74l-5.3-.85-1.39-.21c-.37-.07-.74-.12-1.12-.18l-1.64-.25-2-.3-1.66-.25-.3,0-2.1-.32-3.8-.58-1.93-.29c-2.42-.37-4.74-.73-6.83-1.07l-1.15-.19.31-2.66,2.43.39h.06l1.8.28,3.83.6,2,.31h.08l3,.47,1,.15,3.11.48h.05l2.39.37,1.64.25,1.52.24.32,0,2,.32.93.14c.3.06.6.1.9.14l3.35.55A3.36,3.36,0,0,1,1005.48,125.13Z"/><path class="cls-24" d="M971.73,119.31l1.15.19c-.39,0-.78-.11-1.15-.18Z"/><path class="cls-24" d="M974.47,117l-2.43-.39h0Z"/><path class="cls-12" d="M896.18,98.27l-4.43-9.87a.78.78,0,0,1,.88-1.05L916.28,90a.78.78,0,0,1,.45,1.4l-11.9,8.35A5.81,5.81,0,0,1,896.18,98.27Z"/><ellipse class="cls-25" cx="858.33" cy="92.47" rx="9.58" ry="10.64" transform="matrix(0.11, -0.99, 0.99, 0.11, 669.75, 934.92)"/><ellipse class="cls-26" cx="856.5" cy="92.52" rx="8.6" ry="9.34" transform="translate(668.08 933.15) rotate(-83.53)"/><ellipse class="cls-27" cx="855.76" cy="92.38" rx="7.09" ry="7.17" transform="translate(667.56 932.28) rotate(-83.53)"/><ellipse class="cls-25" cx="951.47" cy="103.03" rx="9.58" ry="10.64" transform="translate(741.9 1036.84) rotate(-83.53)"/><ellipse class="cls-26" cx="949.64" cy="103.08" rx="8.6" ry="9.34" transform="translate(740.24 1035.06) rotate(-83.53)"/><ellipse class="cls-27" cx="949.68" cy="102.69" rx="7.09" ry="7.17" transform="translate(740.66 1034.76) rotate(-83.53)"/><rect class="cls-28" x="918.77" y="92.88" width="19.17" height="3.22" rx="1.61" transform="translate(16.55 -103.98) rotate(6.47)"/><rect class="cls-28" x="918.08" y="98.96" width="19.17" height="3.22" rx="1.61" transform="translate(17.24 -103.87) rotate(6.47)"/><rect class="cls-28" x="872.24" y="87.52" width="17.57" height="3.22" rx="1.54" transform="translate(15.65 -98.68) rotate(6.47)"/><rect class="cls-28" x="871.55" y="93.6" width="17.57" height="3.22" rx="1.54" transform="translate(16.33 -98.57) rotate(6.47)"/><g class="cls-29"><path class="cls-30" d="M1052,99.55a2.85,2.85,0,0,0-3.06,2.68c-.25,1.79,1.26,4.63,4.76,5.39,1.84.4,3.69,0,4.53-1.13a3.65,3.65,0,0,0-.12-3.75A7.46,7.46,0,0,0,1052,99.55Z"/><path class="cls-31" d="M1049,102.82c.53,1.66,2.86,3.11,5.24,3.59,2.06.41,4.3-.33,4.47-1.57"/><path class="cls-30" d="M1047.46,98.22a2.85,2.85,0,0,1,1.15,3.9c-.75,1.64-3.55,3.24-6.91,2-1.77-.64-3.14-1.94-3.23-3.37a3.66,3.66,0,0,1,2.11-3.1A7.46,7.46,0,0,1,1047.46,98.22Z"/><path class="cls-31" d="M1048.3,102.63c-1.34,1.12-4.09,1.09-6.35.23-2-.75-3.46-2.57-2.94-3.72"/><path class="cls-32" d="M1053.73,95.3a15.48,15.48,0,0,1-.42-8.1c1.18-5,4.86-9,7.58-13.26-3.05-1.49-8.5-1.59-15,.41a12.92,12.92,0,0,1,.3,4.71c-.31,2.1-2.92,4.37-4.11,6.08-4,5.8-1.76,13.72,9.48,15.88a8.78,8.78,0,0,0,5.57-.48C1056.07,98.94,1054.34,97.15,1053.73,95.3Z"/><path class="cls-32" d="M1065.36,82.3,1046,79.78a10.68,10.68,0,0,1-1.17-7,11.49,11.49,0,0,1,12.41-9.56,11.19,11.19,0,0,1,10.24,8.93,13,13,0,0,1-.74,7.29A12.29,12.29,0,0,1,1065.36,82.3Z"/><path class="cls-33" d="M1067.59,72.7c.05.33.11.82.15,1.42s0,1,0,1.15c0,1.2-.23,3.73,1,5.69a3.39,3.39,0,0,1,.64,1.42,2.37,2.37,0,0,1-2.37,2.67c-2.69.21-4.45-3.44-3.26-4.93"/><path class="cls-34" d="M1068.59,82.11c0-.16-.51-.41-.62-.46a3.34,3.34,0,0,0-1.3-.32,2.36,2.36,0,0,0-.31.78,2.55,2.55,0,0,0,0,.8c.21-.06,2-.59,2.22-.74A.16.16,0,0,0,1068.59,82.11Z"/><path class="cls-35" d="M1067.59,72.7c.05.33.11.82.15,1.42s0,1,0,1.15c0,1.2-.23,3.73,1,5.69a3.39,3.39,0,0,1,.64,1.42,2.37,2.37,0,0,1-2.37,2.67c-2.69.21-4.45-3.44-3.26-4.93"/><path class="cls-36" d="M1065.68,83.52a3.89,3.89,0,0,0,1.19-4.47c.72-2.41.57-5.55-1.57-6a2.76,2.76,0,0,0-3.06,1.86,8.26,8.26,0,0,0-.64,2.83c-.19,2.64.1,2.53-1.19,2.42s-.69.25-.41-2.39a7.19,7.19,0,0,0-.52-3.93,3.59,3.59,0,0,0-3.44-2,3.29,3.29,0,0,0-3,1.56,7.84,7.84,0,0,0-1.13,4.06,10.05,10.05,0,0,1-.42,1.32,5.75,5.75,0,0,0-.24,1.92c0,.06,0,.11,0,.17a3.25,3.25,0,0,0,.5,1.31c.29,1.06-2.22,4.59-3.79,6.43-3.38,3.94-3.87,8.63.17,11.07a11.58,11.58,0,0,0,10.58.61c5.74-3,5.24-14.89,5.24-14.89,0-.24.08-.84.42-1A9.21,9.21,0,0,0,1065.68,83.52Z"/><ellipse class="cls-37" cx="1056.17" cy="76.65" rx="2.03" ry="1.99" transform="translate(786.77 1100.75) rotate(-79.41)"/><ellipse class="cls-38" cx="1057.02" cy="75.9" rx="0.54" ry="0.53" transform="translate(788.2 1100.98) rotate(-79.41)"/><path class="cls-37" d="M1066.09,77.63a1.77,1.77,0,0,1-1.9,1.65,1.84,1.84,0,0,1-1.44-2.14,1.78,1.78,0,0,1,1.93-1.64,1.84,1.84,0,0,1,1.41,2.13"/><path class="cls-38" d="M1065.53,76.65a.48.48,0,0,1-.52.45.5.5,0,0,1-.39-.58.47.47,0,0,1,.52-.45.5.5,0,0,1,.39.58"/><path class="cls-30" d="M1061.12,78.6a1.27,1.27,0,0,1,1.16,1.39c-.21,1.49-1,2-1.65,2-1.06-.06-1.75-1.37-2.19-2.18-.23-.43-.19-.26,0-.57C1058.69,78.65,1059.8,78.42,1061.12,78.6Z"/><path class="cls-39" d="M1061.18,78.69a.81.81,0,0,1,.65,1c-.12.93-.62,1.37-1,1.32-.61-.07-1-.83-1.27-1.38-.14-.29-.11-.18,0-.41C1059.72,78.78,1060.39,78.59,1061.18,78.69Z"/><path class="cls-30" d="M1063.09,79.7c.19-.67-.44-.75-.89-1-.85-1.08-1.78-1-2.77-.22-1.25,0-1.58.55-1.39,1,.11.29.35.62,1.12.47a8.12,8.12,0,0,1,2-.36,4.15,4.15,0,0,1,1.28.46A.54.54,0,0,0,1063.09,79.7Z"/><path class="cls-33" d="M1046.43,68.6a11.2,11.2,0,0,0-1.43,3.26,20.51,20.51,0,0,0-.48,2.75c-.17,1.39-.39,2.58-1.42,3.35a3.1,3.1,0,0,0-1.27,2.29,2.34,2.34,0,0,0,1.34,2.33,2.65,2.65,0,0,0,1.88.11l1.2-12.21Z"/><path class="cls-34" d="M1043.86,79.65a13.78,13.78,0,0,0-1.93-.18,5.91,5.91,0,0,1,.87-1.26,2.66,2.66,0,0,1,1.18,1.27A.11.11,0,0,1,1043.86,79.65Z"/><path class="cls-35" d="M1046.43,68.6a11.2,11.2,0,0,0-1.43,3.26,20.51,20.51,0,0,0-.48,2.75c-.17,1.39-.39,2.58-1.42,3.35a3.1,3.1,0,0,0-1.27,2.29,2.34,2.34,0,0,0,1.34,2.33,2.65,2.65,0,0,0,1.88.11"/><path class="cls-33" d="M1045.12,88.66a9,9,0,0,1-7.75-.39,3.71,3.71,0,0,1-2.09-2.29c-.26-1.1.92-1.45,2.14-1.55a7.62,7.62,0,0,0,2.71-.83,30.29,30.29,0,0,0,3-1.58,32.68,32.68,0,0,0,3.34-2.29,6.42,6.42,0,0,1,1.68,2.21,6.94,6.94,0,0,1-.16,3.83,11.42,11.42,0,0,1-1.09,2.06A14.44,14.44,0,0,0,1045.12,88.66Z"/><path class="cls-32" d="M1046.07,87.77a4.49,4.49,0,0,1-3,1.52,10,10,0,0,1-5.67-1,3.71,3.71,0,0,1-2.09-2.29c-.26-1.1.92-1.45,2.14-1.55a7.62,7.62,0,0,0,2.71-.83,30.29,30.29,0,0,0,3-1.58,32.68,32.68,0,0,0,3.34-2.29"/><path class="cls-33" d="M1049.26,80.83c0,1.62-.66,2.59-1.63,3a2.69,2.69,0,0,1-3.29-1.43,3.41,3.41,0,0,1,.62-3,3.18,3.18,0,0,0,.51-2"/><path class="cls-34" d="M1049.26,80.83a2,2,0,0,1-.12,1.1c-.25.69-.31.83-.39,1l-2.33-.73a.19.19,0,0,1,0-.36C1047.14,81.57,1048.51,81.13,1049.26,80.83Z"/><path class="cls-34" d="M1044.82,79.59a4.83,4.83,0,0,1,1.83.91c.15.13.09.34-.09.33a3.51,3.51,0,0,0-2.36.46A3.91,3.91,0,0,1,1044.82,79.59Z"/><path class="cls-35" d="M1048.7,83a2.29,2.29,0,0,1-1.07.84,2.69,2.69,0,0,1-3.29-1.43,3.41,3.41,0,0,1,.62-3,3.21,3.21,0,0,0,.5-1.37"/><path class="cls-33" d="M1048.18,78.61a13.91,13.91,0,0,1,0,1.66c-.1,3.57,2,4.79,4,4.33a2.29,2.29,0,0,0,1.48-3.45c-.34-.6-.75-1.15-1.15-1.72-1-1.4-.27-4.21-.27-4.21Z"/><path class="cls-34" d="M1053.88,81.78c-.58-.08-2.31,0-2.61-.07a.09.09,0,0,1-.07-.14,6.45,6.45,0,0,1,1.59-1.7l.87,1.28Z"/><path class="cls-34" d="M1048.29,81.65a7,7,0,0,1,0-2,6,6,0,0,1,1-.15,5.18,5.18,0,0,1,1.34,0,.1.1,0,0,1,0,.19Z"/><path class="cls-35" d="M1048.18,78.61a13.91,13.91,0,0,1,0,1.66c-.1,3.57,2,4.79,4,4.33a2.29,2.29,0,0,0,1.48-3.45c-.34-.6-.75-1.15-1.15-1.72-1-1.4-.27-4.21-.27-4.21"/><path class="cls-40" d="M1065.62,86.68l-1.34-2a2,2,0,0,0-1-1.85,1.7,1.7,0,0,0-1.34.19c-1.45.76-1.79,3.86-1.25,5.93a4.14,4.14,0,0,0,4.14,3.39,3.51,3.51,0,0,0,1.68-.55c2.48-1.59-.27-7.05-1.87-7.49l-.31.38Z"/></g><g class="cls-41"><path class="cls-42" d="M1069,103.14l.06-.07V103c1.51-2.35,4.07-1.28,6.25.65,1.66,1.47,2.11,2.85,1.78,3.82v0l0,0a2.13,2.13,0,0,1-.23.42,3.44,3.44,0,0,1-.22.34c-1.14,1.59-4.28.72-6.6-1.2C1068.53,105.87,1068.15,104.61,1069,103.14Z"/><path class="cls-43" d="M1076.79,108.05c-2.37,1-8.41-2.25-7.7-5"/><path class="cls-42" d="M1065.37,99.66a3,3,0,0,0-3.47,1c-.82,1.15-.45,4.48,2.37,6.37,1.48,1,3.22,1.34,4.33.66a3.18,3.18,0,0,0,1.1-3.2A7.4,7.4,0,0,0,1065.37,99.66Z"/><path class="cls-43" d="M1061.87,100.74c-.45,1.86,1.28,4.22,3.2,5.47,1.67,1.09,3.87,1.26,4.42.27"/><path class="cls-44" d="M1082.19,95c2.31-.12,6.31-2.83,7.86-4.8,1.27-1.6,1.64-3.16.81-3.81-.55-.44-2,0-2.53.26a17.63,17.63,0,0,1-7.21,1.23"/><ellipse class="cls-45" cx="1075.21" cy="69.45" rx="2.43" ry="2.38" transform="matrix(0.14, -0.99, 0.99, 0.14, 854.16, 1123.98)"/><ellipse class="cls-45" cx="1078.31" cy="68.49" rx="2.68" ry="2.63" transform="translate(872.16 1129.12) rotate(-82.63)"/><path class="cls-44" d="M1063.79,89.47l.53-.91c.87-1.55,1.78-2.74,1.59-4.16a19.65,19.65,0,0,1,.58-8,10.67,10.67,0,0,1,20.8,2.37,11.87,11.87,0,0,1-1.63,6.6l-4.56,3.75s-3.13,14.6-4.53,14.81a15,15,0,0,1-6.65-.64,14.27,14.27,0,0,1-5-2.66c-2.55-2.21-3.89-5.18-2.53-8.27A25.93,25.93,0,0,1,1063.79,89.47Z"/><path class="cls-46" d="M1067.05,99.61a7.49,7.49,0,0,0,3,3.39,10,10,0,0,0,7,.91,8.54,8.54,0,0,0,2.24-.86c2.46-1.52,3.58-4.63,3.78-7.34a41.68,41.68,0,0,0-.06-5.55c0-.29,0-.54.12-.64s.74-.43,1-.57a3.62,3.62,0,0,0,1.7-3.92c1-2.11,1.23-5-.65-5.72a2.56,2.56,0,0,0-3.06,1.28,9.15,9.15,0,0,0-1,2.63c-.56,2.37-.23,2.32-1.4,2s-.66.14-.07-2.23a7,7,0,0,0,0-3.76,3.35,3.35,0,0,0-2.89-2.29,3.08,3.08,0,0,0-3,1.11,7.72,7.72,0,0,0-1.52,3.59,5.87,5.87,0,0,1-.63,1,4.47,4.47,0,0,0,.12,4.06,1.08,1.08,0,0,1-.06.62,21.47,21.47,0,0,1-2,3C1068,93.13,1065.79,96.21,1067.05,99.61Z"/><ellipse class="cls-47" cx="1076.37" cy="81.4" rx="1.87" ry="1.83" transform="translate(654.98 1075.19) rotate(-71.35)"/><ellipse class="cls-38" cx="1077.23" cy="80.86" rx="0.5" ry="0.49" transform="translate(656.08 1075.64) rotate(-71.35)"/><path class="cls-47" d="M1085.31,83.59a1.64,1.64,0,0,1-2,1.27,1.7,1.7,0,0,1-1-2.14,1.64,1.64,0,0,1,2-1.27,1.71,1.71,0,0,1,1,2.14"/><path class="cls-38" d="M1084.93,82.62a.45.45,0,0,1-.54.35.48.48,0,0,1-.28-.59.44.44,0,0,1,.54-.34.47.47,0,0,1,.28.58"/><ellipse class="cls-45" cx="1081.93" cy="69.27" rx="2.93" ry="2.87" transform="translate(734.34 1096.18) rotate(-74.96)"/><path class="cls-42" d="M1078.65,84.37a1.93,1.93,0,0,0,1.17,2.2c.87.23,1.58-.7,1.77-1.42s-.32-.81-1.19-1S1078.84,83.65,1078.65,84.37Z"/><path class="cls-42" d="M1077.9,83.87c.15-.43.9-.46,1.2-.26a2.27,2.27,0,0,1,1.6-.42,2,2,0,0,1,1.17,1.18.6.6,0,0,1,.65.57.65.65,0,0,1-.84.7l-.56-.42A1.6,1.6,0,0,0,1080,85a4.85,4.85,0,0,1-1.33,0c-.42-.12-.86-.41-.79-1Z"/><path class="cls-44" d="M1067.15,88.24a9.27,9.27,0,0,0,4.49.35c.92-.09,2,0,2,1.2,0,1.65-3.34,5.23-7.26,4.47-1.69-.33-3.8-1.48-3.63-3.48a7.64,7.64,0,0,1,3.15-5"/><path class="cls-44" d="M1067.15,88.24a9.27,9.27,0,0,0,4.49.35c.92-.09,2,0,2,1.2,0,1.65-3.34,5.23-7.26,4.47-1.69-.33-3.8-1.48-3.63-3.48a6.32,6.32,0,0,1,1.46-3.39"/></g><g class="cls-48"><path class="cls-49" d="M996.12,92.23c.21-1.61-1.4-2.92-4.06-3.58-1.53-.38-3.32,0-3.95,1.24s.14,2.36,1.91,3S995.43,94.93,996.12,92.23Z"/><path class="cls-49" d="M1005.73,97c.89-1.45-.9-3.87-3.56-4.53-1.52-.38-3.13-.2-3.56,1.35s.67,2.55,1.91,3C1003,97.74,1004.91,98.34,1005.73,97Z"/><path class="cls-50" d="M1007.87,81.54c5.15-2.66,7.92-3.9,8.92-3.13,1.6,1.23.19,4.28-1.51,4.64a3.23,3.23,0,0,1-2.15,3.36,4.88,4.88,0,0,1-4.17-.25"/><path class="cls-50" d="M995.77,76.91s-5.94,1-6.28,6.37c-.14,2.13,1,3.38,2.58,2.23a18,18,0,0,0,2.26-2.07"/><path class="cls-51" d="M1008.88,85.2c.07,4.15-1.48,6.46-3.33,7.62-2.39,1.5-6.17.62-7.95,0s-5.22-2.48-6-5.18c-.64-2.08-.29-4.84,2.47-7.94,2.61-3.92,7.63-5.06,11.13-3A8.32,8.32,0,0,1,1008.88,85.2Z"/><path class="cls-50" d="M1008.88,85.2c.07,4.15-1.48,6.46-3.33,7.62-2.39,1.5-6.17.62-7.95,0s-5.22-2.48-6-5.18c-.64-2.08-.29-4.84,2.47-7.94"/><path class="cls-52" d="M1001,85.47c-4.75-1.19-7-9.92-7-9.92l8.85,2.39,7.8,1.79S1005.65,86.64,1001,85.47Z"/><path class="cls-50" d="M1009.25,59.76a1.36,1.36,0,0,0-1.39-1.36,1.3,1.3,0,0,0-.7.23,1.34,1.34,0,0,0-1.32-1,1.41,1.41,0,0,0-1.34,1.45,1.43,1.43,0,0,0,.13.55,9.08,9.08,0,0,0-1.53.12,15.33,15.33,0,0,0-5.9,2.47,20.25,20.25,0,0,0-2.49,1.9,1.31,1.31,0,0,0-.56-.29A1.38,1.38,0,0,0,992.51,65a1.4,1.4,0,0,0,.64,1.52,1.41,1.41,0,0,0-.35.66,1.38,1.38,0,0,0,1,1.68,9.36,9.36,0,0,1-.07,2.61c-.12,1-.7,1.91-.68,2.89,0,1.19.6,4.63,9.07,6.57s10.47-.93,11-2c.45-.88.32-2,.64-2.9a9.41,9.41,0,0,1,1.08-2.39,1.38,1.38,0,0,0,1.64-1.06,1.46,1.46,0,0,0,0-.75,1.41,1.41,0,0,0,1.24-1.09,1.39,1.39,0,0,0-1-1.68,1.22,1.22,0,0,0-.63,0,22,22,0,0,0-1.41-2.8,15.56,15.56,0,0,0-4.25-4.78,9.11,9.11,0,0,0-1.33-.77A2.1,2.1,0,0,0,1009.25,59.76Z"/><path class="cls-53" d="M1002,81.4c2.57.59,9.42,1.26,10.36-2.1.29-1-.29-1.4-.2-2.54.45-2.89-.12-4.59-2.1-5.37-1.5-.59-4.71-.74-5.56,4.88l-1.42.38-1.11-1c1.67-5.44-1.28-6.7-2.89-6.82-2.12-.16-3.37,1.13-4.22,3.93-.42,1.07-1.1,1.14-1.29,2.2C993,78.45,999.44,80.82,1002,81.4Z"/><path class="cls-54" d="M1002.94,75.49c-.21,0-1.17-.18-1.37.67a2.16,2.16,0,0,0,1,2c.83.2,1.61-.6,2.14-1.12.28-.27.21-.15.17-.43C1004.77,76.13,1004,75.68,1002.94,75.49Z"/><path class="cls-54" d="M1000.68,75.81c.06-.55,1-.68,1.43-.64a1.5,1.5,0,0,1,2.43.55c.78.12,1.2.81,1,1.26s-.77.43-1.29.12a3.12,3.12,0,0,0-1-.47c-.52-.14-1.19.1-1.68,0C1001.2,76.54,1000.62,76.28,1000.68,75.81Z"/><path class="cls-55" d="M997.82,71.69a2,2,0,1,1-.89,2.65A2,2,0,0,1,997.82,71.69Z"/><path class="cls-38" d="M999.06,73a.55.55,0,1,0,.66-.41A.56.56,0,0,0,999.06,73Z"/><path class="cls-55" d="M1007.55,73.92a2,2,0,1,1-.88,2.65A2,2,0,0,1,1007.55,73.92Z"/><path class="cls-38" d="M1008.8,75.23a.55.55,0,0,0,1.07.24.55.55,0,0,0-1.07-.24Z"/></g><g class="cls-56"><path class="cls-57" d="M1016.65,90.29c-1.69-.94-4.42-2-6.21-.84-3.75,2.47,3.41,7.13,5.27,8a2.25,2.25,0,0,0,2.79-.34,3.75,3.75,0,0,0,.21-5.3,7.81,7.81,0,0,0-2-1.47Z"/><path class="cls-58" d="M1011.05,89.14a1.18,1.18,0,0,0-.64.46,1,1,0,0,0-.12.78,5.92,5.92,0,0,0,1.57,2.58,17.92,17.92,0,0,0,3.51,2.78c1.84,1.08,2.49,1,2.88.92a2.38,2.38,0,0,0,1.08-.72"/><path class="cls-57" d="M1029,96.6c1.89.42,4.65,1.44,5.2,3.52,1.15,4.33-7.3,3-9.27,2.45a2.25,2.25,0,0,1-1.86-2.11,3.76,3.76,0,0,1,3.38-4.09,7.73,7.73,0,0,1,2.44.2Z"/><path class="cls-58" d="M1033.91,99.48a1.15,1.15,0,0,1,.18.77,1,1,0,0,1-.43.66,5.94,5.94,0,0,1-2.89.87,17.57,17.57,0,0,1-4.47-.27c-2.09-.41-2.54-.89-2.76-1.23a2.34,2.34,0,0,1-.33-1.25"/><path class="cls-59" d="M1023,76a2.76,2.76,0,0,0-.72-1.2c-.06-.07-.22-3-.22-3a5.21,5.21,0,0,1-.89,1.14c-.93.84-2.06.55-3.26.95-5.87,1.94-4.48,6.83-4.56,7-.2.5-1,.94-1.24,1.64-.55,1.63,1.78,2.28,2.79,1.37a30.89,30.89,0,0,1,3.73-3c2.34-1.16,3.16-.57,3.94-1.61A4.22,4.22,0,0,0,1023,76Z"/><path class="cls-59" d="M1045.14,84.77a1.84,1.84,0,0,0,.22,2.41,3.12,3.12,0,0,0,1.78.92l-.13-1.53,1.49-.16a2.43,2.43,0,0,0-1.22-1.65C1046.29,84.23,1045.48,84.37,1045.14,84.77Z"/><ellipse class="cls-60" cx="1045.17" cy="84.8" rx="1.45" ry="1.01" transform="translate(164.91 654.64) rotate(-37.56)"/><ellipse class="cls-59" cx="1044.25" cy="83.53" rx="1.67" ry="1.63" transform="translate(404.91 913.39) rotate(-56.96)"/><ellipse class="cls-61" cx="1043.92" cy="82.33" rx="1.45" ry="1.01" transform="translate(42.99 390.04) rotate(-21.6)"/><path class="cls-59" d="M1043.05,78.63a2.08,2.08,0,0,0-1.83,2.29,2,2,0,1,0,4-.52A1.9,1.9,0,0,0,1043.05,78.63Z"/><path class="cls-59" d="M1018.32,68.29a1.85,1.85,0,0,1-2.24.9,3.19,3.19,0,0,1-1.63-1.18l1.42-.57-.52-1.41a2.41,2.41,0,0,1,2,.35C1018.28,67,1018.53,67.81,1018.32,68.29Z"/><ellipse class="cls-60" cx="1018.28" cy="68.28" rx="1.45" ry="1.01" transform="translate(762.09 1056.17) rotate(-79.3)"/><ellipse class="cls-59" cx="1019.83" cy="68.53" rx="1.67" ry="1.63" transform="matrix(0.5, -0.87, 0.87, 0.5, 448.97, 916.39)"/><ellipse class="cls-61" cx="1021.05" cy="68.28" rx="1.01" ry="1.45" transform="translate(-1.96 93.82) rotate(-5.26)"/><path class="cls-59" d="M1024.75,67.38a2.09,2.09,0,0,1-1.22,2.67,2,2,0,1,1-1.34-3.8A1.92,1.92,0,0,1,1024.75,67.38Z"/><path class="cls-59" d="M1039.19,81.79c2.52,0,6.22-.06,8.45-1,2.43-1.51,4.33-.33,2.56,2.91-2,3.64-9.28,6.53-12.46,7.14"/><path class="cls-62" d="M1038.83,85.49c.05-.3.17-.76.24-1.08,0,0,.32-.3.63-.64s.87-1,.89-1a3.71,3.71,0,0,1,.44-.35l.46-.37a23.78,23.78,0,0,0,2.12-2,20.28,20.28,0,0,0,3.79-5.62,12.49,12.49,0,0,0-20.88-12.83,21,21,0,0,0-4.29,9.72c0,.07-.74,1.61-.88,2.15l-.26.9a7.4,7.4,0,0,1-.93,1,19.33,19.33,0,0,0-5.54,7.21,8.88,8.88,0,0,0-.35,1c-1.76,5.84,3.7,10.75,8.53,12.85,4.4,1.92,10.55,2.6,13.75-1.84C1038.77,91.45,1038.32,88.5,1038.83,85.49Z"/><path class="cls-63" d="M1037,89c.32-3-.49-4.48-.15-5.7a3.49,3.49,0,0,1,.31-.75,2.31,2.31,0,0,1,.48-.61,2.39,2.39,0,0,1,.35-.28c.36-.22.65-.3,1.09-.54l.47-.27a4.77,4.77,0,0,0,2.25-3,6.28,6.28,0,0,0,1.92-4.17,4.11,4.11,0,0,0-4.92-4.05,5.41,5.41,0,0,0-3.34,2.91,9.3,9.3,0,0,0-.85,2.19,3.14,3.14,0,0,1-1.45-.48c-.51-.36-1-.79-1.09-1.08a9.07,9.07,0,0,0,1.57-1.75,5.58,5.58,0,0,0,1.07-4.36,4.11,4.11,0,0,0-5.83-2.49,6.29,6.29,0,0,0-2.85,3.59,4.51,4.51,0,0,0-1.53,2.8,7.49,7.49,0,0,0-.09,2,2.55,2.55,0,0,1-.07.71A6.93,6.93,0,0,1,1023,76c-.91.87-2.49,1.85-4.51,3.76-1.8,1.7-4.23,5.6-2.77,9.78a12.57,12.57,0,0,0,6.37,6.42,12.12,12.12,0,0,0,8.84,1.1C1035.1,95.71,1036.72,91.42,1037,89Z"/><path class="cls-64" d="M1028.37,68a2.17,2.17,0,1,0,3-.75,2.19,2.19,0,0,0-3,.75"/><path class="cls-64" d="M1037.2,73.39a2.17,2.17,0,1,0,3-.75,2.19,2.19,0,0,0-3,.75"/><path class="cls-38" d="M1038.67,73.06a.57.57,0,0,0,.18.79.57.57,0,0,0,.79-.19.59.59,0,0,0-.18-.79.57.57,0,0,0-.79.19"/><path class="cls-38" d="M1029.73,67.57a.57.57,0,0,0,.18.79.58.58,0,1,0-.18-.79"/><path class="cls-65" d="M1040.15,83.67a2.6,2.6,0,0,1,.44-.94c.11-.11.38-.3.45-.36l.45-.37a22.36,22.36,0,0,0,2.12-2,20.07,20.07,0,0,0,3.8-5.61,12.49,12.49,0,0,0-20.88-12.83,21,21,0,0,0-4.29,9.71,3,3,0,0,1-1.8,2"/><path class="cls-59" d="M1039.26,62.74a11.23,11.23,0,0,1-.67,2.44c-.47,1.08,1.68,1.2,3.35-.33"/><path class="cls-59" d="M1045.06,64.87a7,7,0,0,0,.59,1.82c.59,1.38-2.4,1.33-3.71-1.84"/><path class="cls-59" d="M1036.5,60.47a4.93,4.93,0,0,1,.09-5.24c1.05-1.52,1.64,1.76,3.65,3.46"/><path class="cls-59" d="M1037.51,59.86a8.23,8.23,0,0,1-3.87,1.8c-.74.17.11,1.13,1.58,1.49a5.54,5.54,0,0,0,4-.41"/><path class="cls-66" d="M1035.37,75.53c-1.36.22-2,1.15-3.29.39-1-.61-.89-1.67-1-2.66s1.47-.49,2.46.11S1036.28,75.39,1035.37,75.53Z"/><path class="cls-67" d="M1034.81,74.88c-1,.17-1.44.84-2.3.32-.68-.42-.6-1.18-.66-1.88s1-.36,1.72.05S1035.45,74.77,1034.81,74.88Z"/><path class="cls-66" d="M1036.29,75.12c-.06-.48-.68-.82-1-.89a3.61,3.61,0,0,0-.32-1,1.94,1.94,0,0,0-.74-.87,2,2,0,0,0-1.11-.26,3.37,3.37,0,0,0-1,.17,1,1,0,0,0-1.25-.47c-.4.17-.62,1.06.38,1.6a10.25,10.25,0,0,1,1.9.64c.84.54,1.5,1.53,1.79,1.66C1035.86,76.16,1036.35,75.6,1036.29,75.12Z"/></g><rect class="cls-7" x="980.1" y="88.38" width="3.86" height="8.27" rx="1.46" transform="translate(16.67 -110.04) rotate(6.47)"/><circle class="cls-38" cx="852.23" cy="89.24" r="2.03"/><circle class="cls-38" cx="946.69" cy="99.84" r="2.03"/><path class="cls-7" d="M995.73,84.93c-.19.65-.37,1.3-.55,1.95a1.32,1.32,0,0,1-.56.75l-10.48,6.51a1.28,1.28,0,0,1-1.92-.7,3.49,3.49,0,0,1,.91-3.6,1,1,0,0,1,.24-.17l10.45-6.2A1.3,1.3,0,0,1,995.73,84.93Z"/><path class="cls-8" d="M995.41,86A34.72,34.72,0,0,0,991,88.34a59.71,59.71,0,0,1-8.84,5l0,.1a1.28,1.28,0,0,0,1.92.7l10.48-6.51a1.32,1.32,0,0,0,.56-.75l.25-.89Z"/><path class="cls-7" d="M999.83,82l-2.1,9.54a2.41,2.41,0,0,1-2.36,2.14l-5.49-.38-.42,0a2.39,2.39,0,0,1-2.12-2.86l1.5-10.21A2.41,2.41,0,0,1,991.38,78l6.51,1.06a2.31,2.31,0,0,1,1.94,2A2.47,2.47,0,0,1,999.83,82Z"/><path class="cls-8" d="M999.83,82l-2.1,9.54a2.41,2.41,0,0,1-2.36,2.14l-5.49-.38a2.39,2.39,0,0,1-.63-2l1.4-9.44a2.19,2.19,0,0,1,2.34-2l6,1a1.92,1.92,0,0,1,.83.3A2.47,2.47,0,0,1,999.83,82Z"/><g class="cls-68"><path class="cls-10" d="M902.19,54.55h68.73a6.91,6.91,0,0,1,6.91,6.91v31.8a0,0,0,0,1,0,0H895.28a0,0,0,0,1,0,0V61.46a6.91,6.91,0,0,1,6.91-6.91Z" transform="translate(14.29 -105.04) rotate(6.47)"/><path class="cls-69" d="M896.51,71.37c-1.06-.44-11.84-6.26-10.88-13.49.21-1.61,1-2.26,1.78-3.2a1.92,1.92,0,0,1,.76-2.33,1.5,1.5,0,0,1,.73-.21,2.21,2.21,0,0,1,1.89,1.55,7.42,7.42,0,0,1,2.31,1.8,5.83,5.83,0,0,1,1.37,2.83c.9,1,1.79,1.94,2.69,2.9a7.86,7.86,0,0,1,2.28,1.84,8,8,0,0,1,1.76,3.68C902,70.77,897.56,71.82,896.51,71.37Z"/><path class="cls-69" d="M889.16,55.38a3,3,0,0,1,.73,2,3.21,3.21,0,0,1-1.49,2.52"/><path class="cls-38" d="M928.42,76.33a7.46,7.46,0,1,1-7.66-7.26,7.45,7.45,0,0,1,7.66,7.26"/><path class="cls-70" d="M928.42,76.33a7.46,7.46,0,1,1-7.66-7.26A7.45,7.45,0,0,1,928.42,76.33Z"/><path class="cls-38" d="M894.43,89.83l-.22,1.91c-.17,1.52,1.64,2.49,5.45,2.93,6.62.75,8-1.48,8.13-2.29l.23-1.92"/><path class="cls-71" d="M894.43,89.83l-.22,1.91c-.17,1.52,1.64,2.49,5.45,2.93,6.62.75,8-1.48,8.13-2.29l.23-1.92"/><path class="cls-72" d="M897.4,80.74c-.22,1.82-.54,4.68-.66,5.67s-2.08,1.41-2.31,3.34c-.17,1.48,1.19,2.38,5,3,6.47,1.11,8.48-1.27,8.58-2.08l.91-8s-2.44-.53-11.49-1.93"/><path class="cls-73" d="M897.05,84.35c.7.68,2.74,1.42,5.11,1.84a34.13,34.13,0,0,0,6.29.47"/><path class="cls-71" d="M897.4,80.74c-.22,1.82-.54,4.68-.66,5.67s-2.08,1.41-2.31,3.34c-.17,1.48,1.19,2.38,5,3,6.47,1.11,8.48-1.27,8.58-2.08l.91-8S906.45,82.14,897.4,80.74Z"/><path class="cls-38" d="M901.94,92.44l-.23,2c-.18,1.58,1.66,3,5.63,3.44,6.89.78,8.4-1.93,8.51-2.77l.24-2"/><path class="cls-71" d="M901.94,92.44l-.23,2c-.18,1.58,1.66,3,5.63,3.44,6.89.78,8.4-1.93,8.51-2.77l.24-2"/><path class="cls-72" d="M904.87,84.39l-.52,4.49c-.13,1.05-2.17,1.47-2.4,3.47-.19,1.54,1.18,2.87,5.12,3.55,6.74,1.15,8.88-1.71,9-2.56L917,85s-2.7.88-12.13-.59"/><path class="cls-74" d="M904.57,87a17.58,17.58,0,0,0,12.13.62"/><path class="cls-71" d="M904.87,84.39l-.52,4.49c-.13,1.05-2.17,1.47-2.4,3.47-.19,1.54,1.18,2.87,5.12,3.55,6.74,1.15,8.88-1.71,9-2.56l1-8.88S914.3,85.86,904.87,84.39Z"/><path class="cls-38" d="M921.06,66c.9,3,2.36,8.66,1.32,13.17a7,7,0,0,1-3.19,4.55C917,85.22,912.75,86,908,85.57c-4.43-.41-10.54-1.88-12.38-5.11-2.3-4-.9-8.44,1.33-11.7A10.29,10.29,0,0,1,901.12,64c.83-.46,2.88-1.43,9.13-.62A49.77,49.77,0,0,1,921.06,66Z"/><path class="cls-70" d="M921.06,66c.9,3,2.36,8.66,1.32,13.17a7,7,0,0,1-3.19,4.55C917,85.22,912.75,86,908,85.57c-4.43-.41-10.54-1.88-12.38-5.11-2.3-4-.9-8.44,1.33-11.7"/><path class="cls-38" d="M907,40.2a5.59,5.59,0,0,0-6.09-1.56,7.16,7.16,0,0,0-4,9.61"/><path class="cls-70" d="M907,40.2a5.59,5.59,0,0,0-6.09-1.56,7.16,7.16,0,0,0-4,9.61"/><path class="cls-75" d="M905.06,42.3a.61.61,0,0,0,.18-1,4.14,4.14,0,0,0-5.23.06,4.78,4.78,0,0,0-1.77,4.74c.09.52.63.94.92.6a12.47,12.47,0,0,1,5.9-4.35"/><path class="cls-38" d="M898.77,64.45a8.13,8.13,0,0,1-3.93-5.75c-.2-1.6.43-3.87,1.06-4.45.31-2.79,1.2-8.53,4.84-11.7a14.42,14.42,0,0,1,11.34-3.07C920,40.66,926,46.21,925.33,56.54c-.23,3.77-1.49,7.72-5.49,9.75a17.92,17.92,0,0,1-8.86,1.4c-4.37-.3-8.44-.89-12.21-3.24"/><path class="cls-38" d="M898.35,64.17a7.8,7.8,0,0,1-3.51-5.47c-.2-1.6.43-3.87,1.06-4.45.31-2.79,1.2-8.53,4.84-11.7a14.42,14.42,0,0,1,11.34-3.07C920,40.66,926,46.21,925.33,56.54c-.2,3.16-1.12,7.25-4.93,9.44"/><path class="cls-70" d="M898.35,64.17a7.8,7.8,0,0,1-3.51-5.47c-.2-1.6.43-3.87,1.06-4.45.31-2.79,1.2-8.53,4.84-11.7a14.42,14.42,0,0,1,11.34-3.07C920,40.66,926,46.21,925.33,56.54c-.2,3.16-1.12,7.25-4.93,9.44"/><path class="cls-38" d="M917.09,41.52c1.47-1.4,7.91-2.13,10.49,3.14,2.51,5.1-1.13,10.14-3.19,10.93"/><path class="cls-70" d="M917.09,41.52c1.47-1.4,7.91-2.13,10.49,3.14,2.51,5.1-1.13,10.14-3.19,10.93"/><path class="cls-75" d="M923.07,51.82a.57.57,0,0,0,1,.27,5.45,5.45,0,0,0,.66-6.26,4.48,4.48,0,0,0-5-2,.59.59,0,0,0-.31,1,12.87,12.87,0,0,1,2.21,2.74,11.4,11.4,0,0,1,1.47,4.3"/><path class="cls-75" d="M906.85,60.08s-1,1.23-2.07,1.08-1.32-1.65-1.32-1.65a1.68,1.68,0,0,0,.65-.13,1.73,1.73,0,0,0,.52-.37,2.53,2.53,0,0,0,.41-.52,1.69,1.69,0,0,0,.46.95,2.23,2.23,0,0,0,.74.46,3.19,3.19,0,0,0,.61.18"/><path class="cls-70" d="M906.85,60.08s-1,1.23-2.07,1.08-1.32-1.65-1.32-1.65"/><path class="cls-70" d="M908.75,59.8a2.83,2.83,0,0,1-2.29.18c-.7-.24-1.45-.86-1.36-1.62"/><path class="cls-70" d="M902.25,58.83a1.48,1.48,0,0,0,1.32.68,1.75,1.75,0,0,0,1.54-1.3"/><path class="cls-75" d="M905,56.08a1,1,0,0,0-1,.25,1,1,0,0,0,0,.78,1.69,1.69,0,0,0,1,1.18,1.77,1.77,0,0,0,1.63-.48c.19-.19.44-.56.32-.84-.19-.46-1-.79-2-.89"/><path class="cls-76" d="M914.65,56.56a2.65,2.65,0,1,1-2.5-2.85,2.69,2.69,0,0,1,2.5,2.85"/><path class="cls-38" d="M911.79,55.49a.72.72,0,0,1-.75.68.72.72,0,0,1,.08-1.44.72.72,0,0,1,.67.76"/><path class="cls-76" d="M898.42,54.44a2.4,2.4,0,0,0,2,2.75,2.49,2.49,0,0,0,2.61-2.3,2.39,2.39,0,0,0-2-2.76,2.49,2.49,0,0,0-2.58,2.31"/><path class="cls-38" d="M899.46,53.63a.66.66,0,0,0,.56.75.68.68,0,0,0,.71-.63.65.65,0,0,0-.56-.75.68.68,0,0,0-.71.63"/><path class="cls-77" d="M921.06,66a26.37,26.37,0,0,1,5.14,9.71,5,5,0,0,1,2.31,2.59c.49,1.57-.3,5.05-5.1,4-5.08-1.14-8.27-6.58-9.21-9.14"/><path class="cls-78" d="M950.74,84.44c1.85,7.58-1.45,13.91-2.42,14.92-1.47,1.53-5.65,1.57-7,0a1.8,1.8,0,0,1,.17-2.35s-.64-1.6-1.42-3.75a16.86,16.86,0,0,1,.13-10.41"/><path class="cls-79" d="M950.74,84.44c1.85,7.58-1.45,13.91-2.42,14.92-1.47,1.53-5.65,1.57-7,0a1.8,1.8,0,0,1,.17-2.35S941,96,940.21,93.83a18.44,18.44,0,0,1-.05-10.94"/><path class="cls-79" d="M942.09,98a1.15,1.15,0,0,0-.1,1.94"/><path class="cls-79" d="M943.57,100.43a1.14,1.14,0,0,1,0-1.84"/><path class="cls-80" d="M940.35,95.18a4.83,4.83,0,0,1,.09.91,5,5,0,0,1,0,.7,3.29,3.29,0,0,0-1.08,1,3.17,3.17,0,0,0-.52,1.39,2.32,2.32,0,0,0,.14,1.36,2.66,2.66,0,0,0,2,1.11c2.74.61,6.82.45,7.51-1.11a5,5,0,0,0,.32-1.09,9.15,9.15,0,0,0,.13-1.43,14.88,14.88,0,0,1,.18-1.62,40.36,40.36,0,0,1-4.36-.34A38,38,0,0,1,940.35,95.18Z"/><path class="cls-80" d="M939,98.39a1.35,1.35,0,0,0,0,1,1.52,1.52,0,0,0,1,.71,9.53,9.53,0,0,0,2.89.55c2.15,0,3.63.06,5.1-.83a6.7,6.7,0,0,0,.7-.5"/><path class="cls-78" d="M942.33,71.92a1.65,1.65,0,0,0,.66-1.19c0-1-1.19-2.09-3.12-2.34a5.45,5.45,0,0,0-1.4,0c-2.08.28-3.45,1.72-4.6,2.94a15.7,15.7,0,0,0-2.33,3.2,3,3,0,0,1,1.66,1.69c.21.66,0,1,.29,1.52a2,2,0,0,0,1.93.8,4.44,4.44,0,0,0,2-.9,19.5,19.5,0,0,0,3-2.72,9.58,9.58,0,0,0,1.29-1.49c.13-.2.25-.42.36-.62S942.23,72,942.33,71.92Z"/><path class="cls-79" d="M938.9,68c-6,2.58-8.13,7.09-7.9,8.65a3.16,3.16,0,0,0,2.5,2.93c1.47.32,2.27,0,2.64-1.13"/><path class="cls-81" d="M957.67,90.39s5.48,1.94,11.45-3.18c2.52-2.15,3.53-2.2,5.51-2.43,1-.12,3.16-.36,3.43-2.81.21-1.87-1.57-3-2.86-3.18-2.33-.37-5.38.38-8.57,3.59-4.34,4.38-6.79,3-6.79,3"/><g class="cls-82"><path class="cls-83" d="M966.15,83.06a.23.23,0,0,0-.33,0c-.35.26-.6.47-.82.66a6.8,6.8,0,0,1-.89.65.29.29,0,0,0-.13.19.31.31,0,0,0,0,.23c1,1.39,1.69,2,2.28,2.16l.13,0a.9.9,0,0,0,.75-.3C968.07,85.73,967.16,84.32,966.15,83.06Z"/><path class="cls-83" d="M969.06,80.38a.24.24,0,0,0-.2,0,12.55,12.55,0,0,0-1.9,1.48.31.31,0,0,0-.06.33c.61,1.42,1.21,2.24,1.78,2.43l.1,0a.75.75,0,0,0,.6-.11c.87-.55.83-1.69-.17-4A.28.28,0,0,0,969.06,80.38Z"/><path class="cls-83" d="M972.72,78.78a.25.25,0,0,0-.19,0l-.28.07a4.54,4.54,0,0,0-1.82.73.31.31,0,0,0-.11.25c.08,1.16.3,2.66.95,3.21a.88.88,0,0,0,.38.2.86.86,0,0,0,.32,0c1-.2,1.25-1.62.86-4.23A.29.29,0,0,0,972.72,78.78Z"/><path class="cls-83" d="M976.28,79.16a.28.28,0,0,0-.19-.27l-.21-.06a4.87,4.87,0,0,0-1.89-.27.26.26,0,0,0-.25.26c-.07,2,0,3.62.89,3.82l.1,0a.9.9,0,0,0,.75-.31A4.85,4.85,0,0,0,976.28,79.16Z"/></g><path class="cls-78" d="M944.45,63.94c5.09-3.07,10.43-1.11,13.48-.45s5,4.19,6.47,9.73c1.28,5,.82,13.22-3.76,17.4-3.65,3.34-8.82,3.55-13.19,2.61-8.2-1.75-12-7.1-11.85-13.57C935.71,75.09,939.38,67,944.45,63.94Z"/><path class="cls-81" d="M939.58,89.47a12.44,12.44,0,0,1-4-9.81,19.32,19.32,0,0,1,1.86-7"/><path class="cls-81" d="M944,64.24l.46-.3c5.09-3.07,10.43-1.11,13.48-.45s5,4.19,6.47,9.73c1.28,5,.82,13.22-3.76,17.4-3.65,3.34-8.82,3.55-13.19,2.61a21,21,0,0,1-2.87-.81"/><path class="cls-78" d="M958.51,92c-1.07,4.94-2.2,7.78-4.13,9.3s-5.56,1.2-6.86-.53a1.92,1.92,0,0,1,.48-2.48,19.79,19.79,0,0,1-1.57-6.07,11.65,11.65,0,0,1,8.06-1.78A10.74,10.74,0,0,1,958.51,92Z"/><path class="cls-79" d="M958.51,92c-1.07,4.94-2.2,7.78-4.13,9.3s-5.56,1.2-6.86-.53a1.92,1.92,0,0,1,.48-2.48,19.79,19.79,0,0,1-1.57-6.07"/><path class="cls-79" d="M948.56,99.6a1.24,1.24,0,0,0,.15,2.11"/><path class="cls-79" d="M950.38,102.14a1.12,1.12,0,0,1,.07-1.93"/><path class="cls-84" d="M952.38,76.53a12.82,12.82,0,0,1,0,7.94,6.55,6.55,0,0,1-7.67,4.36,8.09,8.09,0,0,1-5.53-5.35c-1.3-4,.4-8.61,3-11.65s5.74-2.52,8,.38A13.14,13.14,0,0,1,952.38,76.53Z"/><path class="cls-78" d="M950,76a4.34,4.34,0,0,1,4.07-2.79,14.49,14.49,0,0,1,6.9,1.63c-.45-1.33-.91-2.67-1.37-4l3.26-1.93s.62,1.46,1.06,2.25c2.74,5,3.62,10.76-1.06,12.64-3.45,1.38-7.17-1.15-9.46-3-1,.35-3.38-.06-3.37-1.53C949.45,78.77,949.38,76.89,950,76Z"/><path class="cls-79" d="M963,68.53a6.29,6.29,0,0,0,1,2.63c2.74,5,2.89,10.68-1,12.32-3.26,1.38-6.87-.6-9.18-2.39a.85.85,0,0,0-.66-.19c-1.09.18-3.06-.29-3-1.61-.62-.52-.69-2.4,0-3.29a4.34,4.34,0,0,1,4.07-2.79,14.49,14.49,0,0,1,6.9,1.63"/><path class="cls-78" d="M958.63,43.88c1.55-.69,5-1.94,6.82-1.35s3.27,3.68,4,12.81c.57,7.23-1.9,14.17-9.44,16.23-6.75,1.84-16.7.6-21.91-4.44-4.23-4.1-2.4-9-1.34-11.12a12,12,0,0,1,1.5-7.81,11.72,11.72,0,0,1,3.42-3.46"/><path class="cls-78" d="M939.88,45.87c-.23-2.06-1.3-4.6-.26-5,3.21-1.18,6.74,1.21,6.9,1.3a23,23,0,0,1,8.23-.5,17.35,17.35,0,0,1,5.77,2s-2.53,3-3.29,3.73C953.59,50.68,946.51,50.22,939.88,45.87Z"/><path class="cls-84" d="M960.81,71.31s-3.8-8.72-13.63-9.41c-7.76-.54-8.9,5.18-8.9,5.18s2.2,3.76,11.17,4.78C959.44,73,960.81,71.31,960.81,71.31Z"/><path class="cls-85" d="M947.18,61.9,947,63.21s.07,1.55,4,2.33"/><path class="cls-85" d="M947,63.21a3.7,3.7,0,0,1-3.34,1.38"/><path class="cls-86" d="M947.18,61.9A2.07,2.07,0,0,0,949,60.7c.17-.63-.3-.84-1.6-1s-1.85,0-1.8.64A2.1,2.1,0,0,0,947.18,61.9Z"/><path class="cls-83" d="M939.35,42.11A21.11,21.11,0,0,1,941.28,45l-1.59.78Z"/><path class="cls-79" d="M939.88,45.87c-.67-1.35-1.34-4.74-.26-5,2.18-.48,5.36.48,6.9,1.3,2.07-.71,8.77-1.43,13.13,1.08"/><g class="cls-87"><path class="cls-88" d="M951.7,58.45c.24-1.81,1.62-1.37,3.35-1.12s3.17.21,2.92,2a3.22,3.22,0,0,1-3.59,2.83A3.27,3.27,0,0,1,951.7,58.45Z"/><ellipse class="cls-55" cx="954.11" cy="58.56" rx="2.3" ry="1.52" transform="translate(788.44 1000.01) rotate(-83.53)"/></g><g class="cls-89"><path class="cls-88" d="M939.53,56.78c.22-1.67,1.47-1.27,3-1s2.88.2,2.65,1.87a2.94,2.94,0,0,1-3.26,2.6A3,3,0,0,1,939.53,56.78Z"/><ellipse class="cls-55" cx="941.63" cy="56.95" rx="2.24" ry="1.35" transform="translate(778.97 986.17) rotate(-83.53)"/></g><path class="cls-83" d="M964.67,45.11c1,.1,1.93,3.08,1.84,7.58,0,0-2.79-4-7.07-5C960.59,45.89,963.87,45,964.67,45.11Z"/><path class="cls-78" d="M938.78,48.25a16.26,16.26,0,0,1,2.35-2.74,12.2,12.2,0,0,1,6.28-3.33c.11,3.16,1.26,5.76,1.37,8.91Z"/><path class="cls-83" d="M956.12,42.27a8,8,0,0,0-2.65,3.25c-.47.93-.91,2.73-.24,2.83s1-1.13,2.89-3a12.2,12.2,0,0,1,3.1-2.15Z"/><path class="cls-83" d="M950.92,45.27c1.14-1.28,2.45-3.08,3.74-3.59a24.37,24.37,0,0,0-3.8-.09,9.5,9.5,0,0,0-2.66,3.46c-.72,1.67-1,3.62-.26,3.67C948.84,48.79,949.47,46.9,950.92,45.27Z"/><path class="cls-83" d="M944,47.75c.58,0,.85-.83,2.12-2.75a12,12,0,0,1,3.44-3.2c.06-.47-2.58.07-3.16.54C944.79,43.61,943.34,47.71,944,47.75Z"/><path class="cls-79" d="M958.63,43.88c1.55-.69,5-1.94,6.82-1.35s3.27,3.68,4,12.81c.57,7.23-1.9,14.17-9.44,16.23-6.75,1.84-16.7.6-21.91-4.44-4.23-4.1-2.4-9-1.34-11.12a12,12,0,0,1,1.5-7.81,11.72,11.72,0,0,1,3.42-3.46"/><polygon class="cls-14" points="939.46 74.44 945.25 79.93 943.62 81.52 938.29 75.59 939.46 74.44"/><polygon class="cls-90" points="945.67 81.18 943.89 88.47 942.2 88.14 943.25 80.72 945.67 81.18"/><path class="cls-14" d="M951.77,76.84c-1.12.9-2.28,1.74-3.44,2.58-.58.43-1.17.83-1.76,1.24l-.88.62-.44.3c-.15.1-.26.26-.58.1l-1.11-1.63c0-.36.16-.4.3-.5l.45-.3.89-.6c.6-.39,1.19-.8,1.8-1.18,1.21-.77,2.41-1.54,3.66-2.26Z"/><path class="cls-14" d="M943.36,89.55a9.2,9.2,0,1,1,10.17-8.1A9.22,9.22,0,0,1,943.36,89.55Zm1.74-15.39a6.29,6.29,0,1,0,5.66,7A6.35,6.35,0,0,0,945.1,74.16Z"/><ellipse class="cls-14" cx="944.04" cy="79.62" rx="3" ry="3.13" transform="translate(758.58 1008.68) rotate(-83.53)"/><path class="cls-78" d="M950,76a4.34,4.34,0,0,1,4.07-2.79,33.43,33.43,0,0,1,4.36.6c1.1,2.21-.4,8.7-1.47,9.36a41.5,41.5,0,0,1-3.56-2.35c-1,.35-3.38-.06-3.37-1.53C949.45,78.77,949.38,76.89,950,76Z"/><path class="cls-81" d="M950.65,78.48a1.21,1.21,0,0,0-.58.81"/><path class="cls-81" d="M950.93,75.68s-.92.25-1.06.61"/><path class="cls-79" d="M965.32,81.24A4.5,4.5,0,0,1,963,83.48c-3.26,1.38-6.87-.6-9.18-2.39a.85.85,0,0,0-.66-.19c-1.09.18-3.06-.29-3-1.61-.62-.52-.69-2.4,0-3.29a4.34,4.34,0,0,1,4.07-2.79,14.49,14.49,0,0,1,6.9,1.63"/><path class="cls-78" d="M935.58,78.33c.67.31,2.37-.1,2.4-1.48.85.06,1.8-1.21,1.36-2.43a2.39,2.39,0,0,0,.2-1.35,2.93,2.93,0,0,0-2.82-2.43,11,11,0,0,1-2.92,2.13,11.44,11.44,0,0,1-1.91.76c-1.21,2.1-1.14,4.32,0,5.38.93.87,2.85,1.21,3.49.43A1.25,1.25,0,0,0,935.58,78.33Z"/><path class="cls-81" d="M935.67,78.34a1.81,1.81,0,0,0,2.39-1.48c.85.06,1.8-1.21,1.36-2.43a2.39,2.39,0,0,0,.2-1.35c0-1.16-1.7-2.32-3.53-2.16"/><path class="cls-79" d="M933.75,71.42c-2.09,2.1-2.89,4.24-2.75,5.22a3.16,3.16,0,0,0,2.5,2.93c1.47.32,2.27,0,2.64-1.13"/><path class="cls-81" d="M938.39,73.16a2.09,2.09,0,0,1,1,1.27"/><path class="cls-81" d="M938.05,76.86a1.89,1.89,0,0,0-.81-1.4"/><path class="cls-91" d="M947,96.52a5,5,0,0,1,.2,1.37,4.87,4.87,0,0,1-.06.81,4.74,4.74,0,0,0-.82,1,3.91,3.91,0,0,0-.57,1.53,2.75,2.75,0,0,0,.15,1.51A2.85,2.85,0,0,0,948,104c2.93.66,7.3.46,8-1.26a12.1,12.1,0,0,0,.35-1.21c.17-.68.23-1.06.34-1.6s.27-1.17.53-2a37.46,37.46,0,0,1-5.3-.38A38.55,38.55,0,0,1,947,96.52Z"/><path class="cls-91" d="M946,100.44a1.5,1.5,0,0,0-.05,1.16,1.62,1.62,0,0,0,1,.77,9.91,9.91,0,0,0,3.09.6c2.3,0,3.89.06,5.45-.93a6.69,6.69,0,0,0,.76-.57"/><path class="cls-92" d="M877.77,76.35h89.87a6.91,6.91,0,0,1,6.91,6.91v31.8a0,0,0,0,1,0,0H870.86a0,0,0,0,1,0,0V83.27A6.91,6.91,0,0,1,877.77,76.35Z" transform="translate(16.66 -103.34) rotate(6.47)"/></g><path class="cls-93" d="M1084.4,104.57,1002.07,92.5a2.36,2.36,0,0,0-1.68.41,2.88,2.88,0,0,0-1.12,1.92l-1.77,12.65a2.76,2.76,0,0,0,.57,2.14,2.24,2.24,0,0,0,1.51.83l82.85,8.68h0a1.66,1.66,0,0,0,1.21-.37,2.58,2.58,0,0,0,.91-1.72l1.33-10A2.07,2.07,0,0,0,1084.4,104.57Z"/><path class="cls-94" d="M1084.24,117.74l-82.88-9.47a1.5,1.5,0,0,1-1.07-1.83l1.8-12.64c.13-.92.81-1.58,1.53-1.47l82.11,12.11c.5.07.82.75.74,1.51l-1.18,10.5C1085.21,117.22,1084.74,117.8,1084.24,117.74Z"/><path class="cls-95" d="M1086.47,106l-.09.73L1006,94.83a1.53,1.53,0,0,0-1.53,1.48l-1.72,12.12-1.4-.16a1.5,1.5,0,0,1-1.07-1.83l1.8-12.64c.13-.92.81-1.58,1.53-1.47l82.11,12.1C1086.22,104.51,1086.55,105.19,1086.47,106Z"/><path class="cls-96" d="M1083.62,118.29h0l-82.82-9a2.22,2.22,0,0,1-1.51-.83,2.77,2.77,0,0,1-.55-2.15l1.81-12.63a2.81,2.81,0,0,1,1.13-1.92,2.35,2.35,0,0,1,1.68-.41l82.29,12.36a2.06,2.06,0,0,1,1.46,2.52l-1.36,10a2.63,2.63,0,0,1-.92,1.72A1.71,1.71,0,0,1,1083.62,118.29Zm-80.15-25-.09,0a.89.89,0,0,0-.28.57l-1.8,12.63c0,.41.11.66.17.67l82.69,9.45a.79.79,0,0,0,.12-.36l1.17-10.5a.91.91,0,0,0,0-.41l-81.94-12.09Z"/><path class="cls-20" d="M1006,97.86c.08-.59.47-.87.84-.82l1.66.23c1.07.15,1.62,1.09,1.44,2.33A1.94,1.94,0,0,1,1009,101a1.88,1.88,0,0,1,1,2.13,2.21,2.21,0,0,1-2.49,2.17l-1.77-.22c-.37,0-.66-.41-.58-1Zm1.11,2.42.64.09c.4,0,.68-.18.75-.67s-.13-.79-.54-.85l-.64-.09Zm-.47,3.29.9.11a.83.83,0,1,0,.23-1.65l-.89-.11Z"/><path class="cls-20" d="M1012.31,99.29c.37-.85.69-1.59,1.38-1.49s.81.89.94,1.8l.67,4.87a3.61,3.61,0,0,1,.05,1.14.68.68,0,0,1-.76.66c-.45-.06-.54-.45-.6-1l-.07-.74-2.27-.28-.27.69c-.2.5-.4.86-.86.8a.66.66,0,0,1-.57-.82,4,4,0,0,1,.37-1.11Zm1.15.53h0l-1.15,2.82,1.45.19Z"/><path class="cls-20" d="M1016.54,99.29c.08-.57.45-.85.81-.8l1.62.22c1.75.25,2.49,2.23,2.22,4.25-.35,2.57-1.83,3.82-3.3,3.64l-1.62-.19c-.36,0-.64-.41-.56-1Zm.63,5.53.72.09c1.05.13,1.68-.77,1.86-2.14s-.2-2.29-1.18-2.42l-.77-.11Z"/><path class="cls-20" d="M1023.16,100.76c.35-.84.65-1.55,1.31-1.46s.78.86.9,1.76l.65,4.76a3.63,3.63,0,0,1,0,1.11.65.65,0,0,1-.72.65c-.43-.06-.52-.44-.58-1l-.06-.72-2.17-.27-.26.68c-.19.48-.38.84-.82.78a.64.64,0,0,1-.54-.8,3.35,3.35,0,0,1,.34-1.08Zm1.09.51h0l-1.09,2.77,1.38.18Z"/><path class="cls-20" d="M1027.2,100.74c.08-.62.4-.89.77-.84s.44.27.77,1.06l1.66,3.93h0l.48-3.65c.08-.62.39-.89.76-.84s.59.4.51,1l-.78,6c-.08.61-.39.9-.76.85s-.44-.26-.76-1l-1.66-3.93h0l-.49,3.67c-.08.62-.39.91-.77.86s-.61-.4-.53-1Z"/><path class="cls-20" d="M1033.81,102.2c.33-.81.62-1.51,1.25-1.43s.75.84.86,1.72l.62,4.65a3.62,3.62,0,0,1,0,1.09.63.63,0,0,1-.69.63c-.41,0-.5-.43-.55-.93l-.07-.7-2.07-.26-.25.67c-.18.47-.36.82-.78.77a.64.64,0,0,1-.52-.79,4.13,4.13,0,0,1,.33-1.05Zm1,.5h0l-1,2.71,1.33.17Z"/><path class="cls-20" d="M1038.18,102.42c.23-.89.64-1,1-1,.62.08.69.6.83,2l.27,2.67h0l.93-2.51c.49-1.31.68-1.78,1.29-1.7.31,0,.67.27.67,1.18V107c0,.79,0,1.66,0,1.91s-.31.79-.67.74c-.55-.06-.58-.63-.56-1.21l.06-3.38h0l-1.29,3.59c-.19.53-.4.73-.78.69s-.52-.29-.57-.86l-.36-3.82h0l-.8,3.31c-.14.58-.31,1.12-.87,1-.37,0-.53-.51-.48-.89s.25-1.11.45-1.89Z"/><path class="cls-20" d="M1045,106.85c-.13,1,.29,1.6.89,1.67s1.15-.4,1.27-1.39l.46-3.6c.07-.59.36-.86.7-.81s.56.38.48,1l-.45,3.6c-.24,1.95-1.34,3-2.67,2.86s-2.14-1.48-1.89-3.45l.46-3.63c.08-.6.37-.87.72-.82s.56.39.49,1Z"/><path class="cls-20" d="M1051.31,104c.07-.59.36-.85.7-.81s.54.38.47,1l-.26,2,1.91-2.28c.27-.34.42-.37.59-.35a.8.8,0,0,1,.48.88,1.25,1.25,0,0,1-.31.63l-1.62,1.81,1.22,2.54a1.57,1.57,0,0,1,.22.85c-.07.53-.39.78-.71.74s-.48-.46-.63-.78l-1.3-2.83-.3,2.44c-.07.59-.35.86-.69.82s-.55-.37-.48-1Z"/><path class="cls-20" d="M1056,110.41c-.07.59-.34.85-.68.81s-.54-.36-.46-1l.69-5.65c.07-.58.35-.84.68-.8s.54.38.46,1Z"/><path class="cls-20" d="M1057.24,104.86c.07-.53.38-.78.67-.74l1.36.18c1.47.21,2.09,2,1.87,3.86-.29,2.36-1.53,3.52-2.75,3.37l-1.36-.16c-.3,0-.54-.37-.47-.9Zm.54,5,.6.07c.88.11,1.4-.72,1.55-2s-.17-2.09-1-2.2l-.65-.09Z"/><path class="cls-20" d="M1061.63,110c.27,0,.58.5,1.15.57s.63-.25.67-.6c.06-.55-.35-.71-.94-1.09a1.85,1.85,0,0,1-.94-2.09c.19-1.57,1.1-2.19,2-2.06s1.32.64,1.24,1.26c0,.44-.28.74-.58.7s-.43-.34-.9-.4a.51.51,0,0,0-.58.52c0,.41.22.49.94,1a2,2,0,0,1,.92,2.25c-.19,1.64-1.11,2.28-2.14,2.16-.65-.08-1.6-.58-1.5-1.38C1061.05,110.37,1061.29,110,1061.63,110Z"/><path class="cls-20" d="M1067.41,106.24c.07-.56.33-.82.64-.78s.51.37.44.93l-.56,4.79,1.16.15c.34,0,.5.34.45.81s-.29.72-.63.68l-1.7-.21c-.28,0-.51-.36-.45-.88Z"/><path class="cls-20" d="M1074.51,110c-.26,2.21-1.33,3.54-2.71,3.37s-2.14-1.73-1.87-4,1.34-3.55,2.73-3.36S1074.77,107.75,1074.51,110Zm-3.44-.45c-.13,1.12.08,2.24.91,2.34s1.27-.93,1.4-2-.08-2.22-.89-2.33S1071.21,108.39,1071.07,109.51Z"/><path class="cls-20" d="M1079.26,110.58c-.25,2.19-1.29,3.5-2.64,3.33s-2.09-1.7-1.84-3.92,1.32-3.51,2.67-3.32S1079.51,108.39,1079.26,110.58Zm-3.35-.44c-.13,1.1.07,2.21.88,2.31s1.24-.92,1.37-2-.08-2.19-.88-2.3S1076,109,1075.91,110.14Z"/><path class="cls-20" d="M1080,108c0-.5.33-.75.6-.71l1.24.17c.78.11,1.44,1,1.26,2.53-.15,1.33-.79,2.25-1.75,2.12l-.77-.09-.17,1.44c-.06.55-.31.8-.6.77s-.48-.35-.42-.9Zm.73,2.63.55.07c.43,0,.72-.37.78-.85s-.17-1-.57-1l-.54-.08Z"/><g class="cls-97"><path class="cls-98" d="M100.73,52.36a79.08,79.08,0,1,0,82.8,90.93h0l.15-1c.1-.68.19-1.36.26-2,0-.34.07-.69.11-1l.09-1c0-.27.05-.54.07-.82.13-1.71.2-3.44.22-5.17,0-.27,0-.53,0-.79s0-.69,0-1c0-.6,0-1.22,0-1.83s-.06-1.26-.09-1.88A79.07,79.07,0,0,0,100.73,52.36Z"/><path class="cls-99" d="M52.14,184.69a2.93,2.93,0,0,1,1.11-.73A2.06,2.06,0,0,1,52.14,184.69Z"/><path class="cls-100" d="M15.19,142.9a27.17,27.17,0,0,0,8.13,7.38c1,.64,2.13,1.67,3.45,1.75s2.12-.58,3.3-.24,1.83,1.54,3.24,1.57a15.58,15.58,0,0,1,2-.17,3.59,3.59,0,0,1,1.83,1.12c2.76,2.53,2.72,1.16,5.79,1.51,1,.11,1.25,1.28,1.21,2.2a17.61,17.61,0,0,1-.49,3.44,12.6,12.6,0,0,0-.66,3.7,9,9,0,0,0,1.43,3.7,27,27,0,0,0,4.83,6.81c1.71,1.55,4.1,1.31,6.09,2.24,9.14,4.26,6.65,15.78,9.91,23.2.84,1.89,4.41,9.7,12.08,11.66,2.52.64,5.25.59,5.5,0,.36-.89-4.7-1.9-7.4-6.16A11.07,11.07,0,0,1,73.93,199c.27-1.44.4-1.36,1.54-1.93a5.79,5.79,0,0,0,2.84-2.13c.83-1.36.7-2.88,1.24-4.25.66-1.67,1.68-3.2,2.23-4.94.75-2.35,1.06-4.94,3.38-6.54a9.57,9.57,0,0,1,4.76-1.52,15.33,15.33,0,0,1-2.18-8.79c.19-2.48,4-7.8,2.05-9.73a6.08,6.08,0,0,0-3.59-1.37c-2.81-.37-5.7-.3-8.52-.65-4.06-.52-6.86-2.53-10.17-4.46-5.39-3.15-10.11-3.73-16.49-3s-7.83,2.46-10.34,1.24c-3.26-1.59-2.91-5.64-5.52-6s-4.16,3.2-5.57,2.71c-1.69-.57-1.25-6.35,1.81-10.44.76-1,1.94-2.61,3.33-2.55,2.4.09,3.49,5.06,4.46,4.81.51-.13.6-1.58.55-2.46-.14-2.78-1.84-3.75-1.34-5.39.28-.91,1-1.21,1.78-1.93,3.54-3.3.07-7.77,3-11.42,2.32-2.87,6.27-2.35,6.95-5,.4-1.59-.8-2.58,0-3.61.56-.69,1.39-.61,4.87-1.32,3.11-.63,3.47-.9,3.6-1.21.36-.87-1.31-1.59-2.31-3.66a8.72,8.72,0,0,1-.63-4.29c-.13-3.9-3.42-8-6.39-9.41-6.45-3.06-15,2.18-18.4,4.24a38.19,38.19,0,0,0-14.32,16.23C15,113.37,6.48,130.36,15.19,142.9Z"/><path class="cls-100" d="M75.76,62.18a14.22,14.22,0,0,0-.05,1.73c.05,2.09-.15,4.83,1.58,6.24s5,1,6.76-.15c2-1.35,2-4.3,3.78-5.68a3,3,0,0,1,1.52-.38c5.56-.56,8.93-9,1.62-10.06a12.58,12.58,0,0,0-6.36.85c-1.51.7-1.32,1.27-2.47,2.25a1.36,1.36,0,0,1-.66.25c-2.26.41-4.43.72-5.34,3.17A6.73,6.73,0,0,0,75.76,62.18Z"/><path class="cls-100" d="M54.25,59.67a14.22,14.22,0,0,0,0,1.73c.08,3.39.44,7.87,5.12,7,1.86-.36,3.46-1.51,5.16-2.34a19.63,19.63,0,0,0,3.62-1.86c1.41-1.08,2.61-3.55,3.79-5a11.18,11.18,0,0,0,2.33-6.58c.07-2.14-.81-7.72-4.1-5.64q-4,2.49-7.79,5.19a3.1,3.1,0,0,0-1.24,1.3c-.14.36-.16.79-.46,1a1.36,1.36,0,0,1-.66.25c-2.26.41-4.43.72-5.34,3.17A6.73,6.73,0,0,0,54.25,59.67Z"/><path class="cls-100" d="M92.09,67.23a2.56,2.56,0,0,0-.31,2.1c.57,1.25,2.31,1.26,3.67,1.07C98,70,100.14,64.75,97,63.59,95.56,63,93.09,65.25,92.09,67.23Z"/><path class="cls-100" d="M103.58,216.25c-.15,2.1,1.72,3.69,2.72,5.37a5.09,5.09,0,0,0,4.66,2.73,6.33,6.33,0,0,0,4.78-2.26c.79-1,1.28-2.22,2.42-2.84.88-.48,2-.51,2.75-1.18,1-.94.91-2.27,2-3.19a33.85,33.85,0,0,1,3.49-2.46c2.71-1.76,5.78-3,8.67-4.45a43.92,43.92,0,0,0,7.51-4.91,6.54,6.54,0,0,0,1.82-2,2.17,2.17,0,0,0-.11-2.42,3,3,0,0,0-2.92-.63c-1,.24-2,.75-3,1.05-3.36,1-7-.33-10.44.11a10.16,10.16,0,0,0-6.19,3.18c-1.11,1.23-1.84,2.71-2.9,4-2.24,2.67-5.66,4.1-9,5.07C106.88,212.24,103.84,212.81,103.58,216.25Z"/><path class="cls-100" d="M98.54,213.32a9.49,9.49,0,0,0,2.23,2.34,12.12,12.12,0,0,0,6.77,2.29c2.1.07,4.5-1.06,3.81-3.47a2.93,2.93,0,0,0-.79-1.16,19.7,19.7,0,0,0-4.87-3.73c-1.45-.79-3.67-.74-4.67-2.08-.79-1.06-.49-2.6-1.26-3.67a1.11,1.11,0,0,0-.56-.44,1.54,1.54,0,0,0-.94.09,12.1,12.1,0,0,0-2.89,1.35c-.4.26-.81.6-.82,1a1.2,1.2,0,0,0,.29.72C96.28,208.73,97.09,211.23,98.54,213.32Z"/><path class="cls-100" d="M37.21,142.8a.86.86,0,0,0,.57.74c.3.15.66.22.95.38.81.45,1,1.46,1.62,2.11a4.3,4.3,0,0,0,2.93,1,.58.58,0,0,0,.32-.06c.18-.13.08-.38.1-.58,0-.39.55-.57,1-.67,2-.47,4.88-.67,6.72-1.62.35-.18,1.31-.86,1.34-1.27.07-.85-.91-.43-1-.76-1.7,0-3.24.32-4.88-.06a24.45,24.45,0,0,0-4.39-.64C41.56,141.32,37.3,141.58,37.21,142.8Z"/><path class="cls-100" d="M174,157.52a3.38,3.38,0,0,1,.27,1c0,.91-.66,2.34-.87,3.27-.25,1.14-.4,2.53.47,3.31,3,2.7,4.94-6.52,5-8.08s-.09-2.91.1-4.35c.14-1.07.47-2.12.62-3.19a4.68,4.68,0,0,0-.49-3.15,5.87,5.87,0,0,0-2.33,3,30.22,30.22,0,0,1-1.47,3.58,17.47,17.47,0,0,0-1.49,2.53A2.46,2.46,0,0,0,174,157.52Z"/><path class="cls-100" d="M113.84,54.44c0,.15-.08.3-.11.46-.31,1.55-.4,3.65.47,5.06s1.84,2.1,2,3.91c.08.93,0,2,.78,2.58a2,2,0,0,0,2.45-.56c.4-.45.81-1.06,1.42-1a1.84,1.84,0,0,1,.65.27c.8.5,1.72,1.24,1.51,2.16-.13.58-.69,1-1.19,1.28-.31.19-.66.51-.54.86a.74.74,0,0,0,.51.39,5.56,5.56,0,0,0,2.72.12,4.38,4.38,0,0,0,1.79-.64c1.51-1,1.88-3.85,2.3-5.55.58-2.33-.42-5.27-1.75-7.19C124.52,53.21,115.56,48.06,113.84,54.44Z"/><path class="cls-100" d="M107,68.94l-.41.79c-.59,1.17.57,2.37,1.51,3s1.67,1,2,2.3a19.56,19.56,0,0,0,.57,3.07,1.21,1.21,0,0,0,.31.49,1.17,1.17,0,0,0,.93.2,4,4,0,0,0,2.3-1.51c.75-.85,2.46-2.71,2.16-4s-1.59-.93-2.49-1.3-1-.88-1.46-1.67-3.6-4.9-4.76-2.64Z"/><path class="cls-100" d="M103.7,76a1.88,1.88,0,0,0-.16.65c-.29,3.66,7.75,1.12,5.23-2.12C107.47,72.85,104.44,74.2,103.7,76Z"/><path class="cls-100" d="M176,81.89c-2.31-4.13-4.22-9.65-7.95-12.72a14.8,14.8,0,0,0-7.74-2.94,6.84,6.84,0,0,0-2.78.12,2.19,2.19,0,0,0-.33.12c-2-3.2-5.72-5-10.15-5.34a5.3,5.3,0,0,0-2,.34c-1.31.47-2.64,1.27-3.91,1.63a10.46,10.46,0,0,0-4.59,2.21c-1.23,1.2-1.8,3.25-.82,4.66-1.12.27-2.43.72-2.71,1.84-.13.54,0,1.11-.05,1.66a2.71,2.71,0,0,1-1.7,2,8.1,8.1,0,0,1-2.68.49,2.4,2.4,0,0,1-1.1-.11,4.87,4.87,0,0,1-.92-.72,4,4,0,0,0-3.61-.21,21,21,0,0,0-4.36,2.33c-1.08.64-2.38.8-3.33,1.72-2.34,2.27-3.44,2.88-3.46,4.11,0,1.68,2,2.15,1.87,3.6-.11,1.74-3,1.87-5.15,4.31s-2.92,6.33-1.38,8.28c2,2.55,8.55,1.82,11.16-1.4,2.31-2.87,1.33-7.49,3.37-8,.77-.21,1.48.37,2.26.3,1-.08,1.64-.94,2.53-1.23,2.81-.89,3.83,2.21,5.5,3.6a3.82,3.82,0,0,0,2.34,1,2.33,2.33,0,0,1-.08,2.22c-.26.43-.68.91-.46,1.36s.94.41,1.45.25a1.7,1.7,0,0,0,.72-.33,1.58,1.58,0,0,0,.4-.64,5.61,5.61,0,0,0,.07-3.37A18.86,18.86,0,0,0,135,89.88c3.24-1,5.63,5.07,7.82,6.43a2.32,2.32,0,0,0,1.2.42,1.08,1.08,0,0,0,1-.63,1.54,1.54,0,0,0,0-1l-1.14-4.52c-.09-.32-.14-.73.14-.91s.59,0,.85.14l1.1.66.18.1s.75-1.53.8-1.68c.27-.84.1-1.12,1.09-1.33.72-.15,1.59.56,2.06,1l1.1,1.1a2.83,2.83,0,0,1,1.06,1.84.8.8,0,0,1-.18.54,1,1,0,0,1-.53.27,4.56,4.56,0,0,1-1.47.13c-.32,0-3.65-.06-3.6.28a4.19,4.19,0,0,0,1.14,2.75c1.16.84,3,.62,4.29,1.54.91.67,1.92,1.15,2.9,1.78,1.69,1.07,2.4,2.26,1,3.75l-.25,0q-5.67-.43-11.35-.61a1.62,1.62,0,0,0-.54,0c-1.17.37-.66,2-2.08,1.92-1,0-2.6-.94-3.56-1.27-5.86-2-6.84-3.75-9.58-4.43-5.76-1.41-8.75,3.53-13.54,5.12a12.71,12.71,0,0,0-1.83.62,7.32,7.32,0,0,0-2,1.7c-2,2.09-4.32,4.68-5.06,7.73a51.85,51.85,0,0,0-1.13,15.77,14,14,0,0,0,3.91,7.82c2.49,2.68,5.93,5.92,9.85,5.88,5,0,10.86-2.72,15.89-3.49a3.27,3.27,0,0,1,2.35.22,16.16,16.16,0,0,1,3,2.56c1.68,2.65,1.32,5.33,2.11,8.19.74,2.7,2.22,5.22,3.08,7.9,2.12,6.63,3.48,13.56,8.11,19a5.71,5.71,0,0,0,2.2,1.8c5,1.89,9-6.34,10.4-9.72,1.21-3,3.1-5.7,4.47-8.58,1.63-3.41,3.46-7.41,2.41-11.27-.94-3.43-3.06-5.78-1.78-9.48a33.16,33.16,0,0,1,2.49-5.07,13.87,13.87,0,0,0,2-6.41c.06-1.66-.47-3.63-2-4.17s-3.06.49-4.52.05a4.73,4.73,0,0,1-2.4-2.33c-2.56-4.16-4.18-9.6-7.92-12.9-.65-.57-1.23-.57-1.46-1.6a5.53,5.53,0,0,1-.11-1.29c.47.32,1,.59,1.45.87,4.86,2.85,7.39,7.4,10.24,12.07a3,3,0,0,0,1.32,1.38c1,.37,2-.31,2.77-1q2.72-2.25,5.25-4.71c.64-.62,1.33-1.5,1-2.32a2.34,2.34,0,0,0-1.15-1,31.74,31.74,0,0,1-8.22-6.45c-.48-.52-.95-1.36-.45-1.87s1.53.11,2.09.72a13.2,13.2,0,0,0,4.22,3.08c7.12,3.36,7.09-7.85,6.47-12-.05-.32-.1-.63-.16-.94C180.83,89.42,178.26,86,176,81.89ZM157.37,84c0,1.12-1.61,2.13-1.21,3.21a2.13,2.13,0,0,0,.23.42c1.05,1.66.53,2.91-1.42,2-1.25-.6-3.57-4-4-5.3a3,3,0,0,1,.92-3.46,3.7,3.7,0,0,1,1.46-.48,2.92,2.92,0,0,1,2.57.53A7.16,7.16,0,0,1,157.37,84Z"/><path class="cls-100" d="M121.18,137.3a23.18,23.18,0,0,1-2.67-.32A7.26,7.26,0,0,0,121.18,137.3Z"/><path class="cls-101" d="M181.57,118.18a101.83,101.83,0,0,1-5.7,27.61,81.25,81.25,0,0,1-14.38,24.79,85.75,85.75,0,0,1-10.67,10.55A70,70,0,0,1,138,189.37a86.92,86.92,0,0,1-31.18,8.84c-9,.79-18.37,1.61-28.7-2.43-5.67-2.22-13.35-6.59-16.49-8.37-1.91-1.09-5.71-3.25-8.9-5.38a81.36,81.36,0,0,1-19.84-19.19,79.09,79.09,0,0,0,150.69-19.55h0l.15-1c.1-.68.19-1.36.26-2,0-.34.07-.69.11-1l.09-1c0-.27.05-.54.07-.82.13-1.71.2-3.44.22-5.17,0-.27,0-.53,0-.79s0-.69,0-1c0-.6,0-1.22,0-1.83s-.06-1.26-.09-1.88a79.46,79.46,0,0,0-2.41-15.33C181.84,113.62,181.74,115.9,181.57,118.18Z"/></g><rect class="cls-38" x="66.9" y="20.55" width="73.93" height="52.53" rx="5.35" transform="translate(-6.79 19.69) rotate(-10.49)"/><path class="cls-102" d="M137.89,27.55l-1.49-8a5.34,5.34,0,0,0-6.23-4.28L68,26.75A5.35,5.35,0,0,0,63.71,33l1.48,8Z"/><rect class="cls-103" x="73.49" y="44.18" width="12.55" height="3.66" rx="1.83" transform="translate(-7.04 15.29) rotate(-10.49)"/><rect class="cls-103" x="88.92" y="41.32" width="12.55" height="3.66" rx="1.83" transform="translate(-6.27 18.05) rotate(-10.49)"/><rect class="cls-103" x="104.35" y="38.47" width="12.55" height="3.66" rx="1.83" transform="translate(-5.49 20.81) rotate(-10.49)"/><rect class="cls-103" x="119.72" y="35.6" width="12.55" height="3.66" rx="1.83" transform="translate(-4.71 23.56) rotate(-10.49)"/><rect class="cls-104" x="74.78" y="50.31" width="12.55" height="5.39" rx="1.5" transform="translate(-8.29 15.64) rotate(-10.49)"/><rect class="cls-104" x="90.21" y="47.45" width="12.55" height="5.39" rx="1.5" transform="translate(-7.52 18.4) rotate(-10.49)"/><rect class="cls-104" x="105.64" y="44.59" width="12.55" height="5.39" rx="1.5" transform="translate(-6.74 21.16) rotate(-10.49)"/><rect class="cls-104" x="121.01" y="41.73" width="12.55" height="5.39" rx="1.5" transform="translate(-5.96 23.91) rotate(-10.49)"/><rect class="cls-104" x="75.99" y="56.84" width="12.55" height="5.39" rx="1.5" transform="translate(-9.46 15.97) rotate(-10.49)"/><rect class="cls-104" x="91.42" y="53.99" width="12.55" height="5.39" rx="1.5" transform="matrix(0.98, -0.18, 0.18, 0.98, -8.69, 18.73)"/><rect class="cls-104" x="106.86" y="51.13" width="12.55" height="5.39" rx="1.5" transform="translate(-7.91 21.49) rotate(-10.49)"/><rect class="cls-104" x="122.22" y="48.27" width="12.55" height="5.39" rx="1.5" transform="translate(-7.13 24.24) rotate(-10.49)"/><rect class="cls-104" x="77.2" y="63.38" width="12.55" height="5.39" rx="1.5" transform="translate(-10.63 16.3) rotate(-10.49)"/><rect class="cls-104" x="92.63" y="60.52" width="12.55" height="5.39" rx="1.5" transform="translate(-9.86 19.06) rotate(-10.49)"/><rect class="cls-104" x="108.07" y="57.67" width="12.55" height="5.39" rx="1.5" transform="translate(-9.08 21.82) rotate(-10.49)"/><rect class="cls-104" x="123.43" y="54.8" width="12.55" height="5.39" rx="1.5" transform="translate(-8.3 24.57) rotate(-10.49)"/><circle class="cls-104" cx="70.77" cy="31.4" r="2.62"/><path class="cls-105" d="M71.05,32.91a1.4,1.4,0,0,1-1.64-1.13l-1.47-7.94a1.4,1.4,0,0,1,2.76-.51l1.47,7.94A1.4,1.4,0,0,1,71.05,32.91Z"/><circle class="cls-104" cx="82.2" cy="29.28" r="2.62"/><path class="cls-105" d="M82.48,30.79a1.4,1.4,0,0,1-1.63-1.12l-1.47-8a1.4,1.4,0,0,1,1.12-1.63,1.41,1.41,0,0,1,1.64,1.12l1.47,8A1.4,1.4,0,0,1,82.48,30.79Z"/><circle class="cls-104" cx="93.64" cy="27.16" r="2.62"/><path class="cls-105" d="M93.92,28.67a1.4,1.4,0,0,1-1.63-1.12L90.82,19.6a1.4,1.4,0,0,1,2.75-.51L95,27A1.39,1.39,0,0,1,93.92,28.67Z"/><circle class="cls-104" cx="105.08" cy="25.05" r="2.62"/><path class="cls-105" d="M105.36,26.55a1.39,1.39,0,0,1-1.63-1.12l-1.47-7.94A1.4,1.4,0,1,1,105,17l1.47,7.94A1.4,1.4,0,0,1,105.36,26.55Z"/><circle class="cls-104" cx="116.52" cy="22.93" r="2.62"/><path class="cls-105" d="M116.8,24.44a1.4,1.4,0,0,1-1.63-1.13l-1.48-7.94a1.4,1.4,0,0,1,2.76-.51l1.47,7.94A1.41,1.41,0,0,1,116.8,24.44Z"/><circle class="cls-104" cx="128.12" cy="20.76" r="2.62"/><path class="cls-105" d="M128.4,22.27a1.4,1.4,0,0,1-1.63-1.12L125.3,13.2a1.4,1.4,0,0,1,2.75-.51l1.47,8A1.4,1.4,0,0,1,128.4,22.27Z"/><path class="cls-106" d="M134.24,29.28,144,36l-12,8.42a1,1,0,0,1-1.46-1Z"/><path class="cls-107" d="M131.94,38.07l-1.4,5.37a1,1,0,0,0,1.46,1l4.55-3.2Z"/><path class="cls-103" d="M164.92,7.78,144,36l-2.42-1.67-1.26-.88-2.62-1.81-1.26-.88-2.18-1.52L155.18,1a2.39,2.39,0,0,1,3.31-.6l.36.26,1.27.87,2.61,1.82,1.27.88.32.22A2.38,2.38,0,0,1,164.92,7.78Z"/><polygon class="cls-108" points="160.12 1.55 137.68 31.68 136.42 30.8 158.85 0.68 160.12 1.55"/><polygon class="cls-108" points="164 4.25 141.56 34.37 140.3 33.49 162.73 3.37 164 4.25"/><circle class="cls-109" cx="140.04" cy="83.27" r="20.01"/><path class="cls-110" d="M140.35,86.52a2.43,2.43,0,0,1-1.65-.28l-8.16-4.58a2.55,2.55,0,0,1-1-3.42,2.45,2.45,0,0,1,3.36-1l8.16,4.59a2.53,2.53,0,0,1,1,3.41A2.46,2.46,0,0,1,140.35,86.52Z"/><path class="cls-110" d="M140.35,86.52a2.45,2.45,0,0,1-1.79-.36,2.55,2.55,0,0,1-.75-3.48l6.88-10.84a2.46,2.46,0,0,1,3.43-.74,2.54,2.54,0,0,1,.75,3.47L142,85.41A2.43,2.43,0,0,1,140.35,86.52Z"/><path class="cls-111" d="M137.28,68.36a1.15,1.15,0,0,1-1.32-.91l-1.1-6a1.13,1.13,0,1,1,2.22-.41l1.1,6A1.14,1.14,0,0,1,137.28,68.36Z"/><path class="cls-111" d="M144.25,106a1.12,1.12,0,0,1-1.31-.9l-1-5.32a1.13,1.13,0,1,1,2.22-.41l1,5.32A1.12,1.12,0,0,1,144.25,106Z"/><path class="cls-111" d="M162.41,80.27l-6,1.1a1.12,1.12,0,1,1-.41-2.21l6-1.1a1.12,1.12,0,0,1,.41,2.21Z"/><path class="cls-111" d="M124.11,87.36l-5.32,1a1.13,1.13,0,0,1-.41-2.22l5.32-1a1.12,1.12,0,0,1,.41,2.21Z"/><path class="cls-111" d="M128.44,70.6a.76.76,0,0,1-1-.13l-2.92-3.22a.7.7,0,1,1,1-.93l2.92,3.21A.77.77,0,0,1,128.44,70.6Z"/><path class="cls-111" d="M155.8,100.75a.76.76,0,0,1-1.06-.13l-2.91-3.22a.7.7,0,1,1,1-.93l2.91,3.21A.76.76,0,0,1,155.8,100.75Z"/><path class="cls-111" d="M153,71.79a.76.76,0,0,1,.13-1.06l3.22-2.92a.7.7,0,1,1,.93,1l-3.21,2.92A.77.77,0,0,1,153,71.79Z"/><path class="cls-111" d="M122.84,99.15a.76.76,0,0,1,.13-1.06l3.22-2.92a.7.7,0,1,1,.93,1l-3.21,2.92A.77.77,0,0,1,122.84,99.15Z"/><path class="cls-111" d="M123.68,77.84a.77.77,0,0,1-1,.4l-4.11-1.41a.7.7,0,1,1,.45-1.32l4.11,1.41A.76.76,0,0,1,123.68,77.84Z"/><path class="cls-111" d="M162.2,91a.76.76,0,0,1-1,.4L157.1,90a.7.7,0,1,1,.45-1.31l4.11,1.4A.77.77,0,0,1,162.2,91Z"/><path class="cls-111" d="M145.75,67a.75.75,0,0,1-.4-1l1.41-4.11a.7.7,0,1,1,1.31.45l-1.4,4.11A.75.75,0,0,1,145.75,67Z"/><path class="cls-111" d="M132.57,105.54a.75.75,0,0,1-.4-1l1.4-4.1a.77.77,0,0,1,.92-.54.76.76,0,0,1,.4,1L133.48,105A.74.74,0,0,1,132.57,105.54Z"/><path class="cls-112" d="M135.3,57.69a26,26,0,1,0,30.32,20.84A26,26,0,0,0,135.3,57.69Zm8.38,45.25a20,20,0,1,1,16-23.32A20,20,0,0,1,143.68,102.94Z"/><path class="cls-113" d="M109.7,96.27,66.18,120.14c-2.21,1.22-4.44,1.61-5.73-.84L59,116.51a4.87,4.87,0,0,1,1.7-6.61L104.6,85.78S105.21,89.93,109.7,96.27Z"/><path class="cls-114" d="M104.29,84.51a17.34,17.34,0,0,0,1.32,3.92L64.74,110.87a4.67,4.67,0,0,0-2.17,2.85,4.79,4.79,0,0,0,.47,3.76,4.51,4.51,0,0,0,4.82,1.82,4,4,0,0,1-5,2.24,4.68,4.68,0,0,1-2.67-3.5l-1.51-2.79a4.87,4.87,0,0,1,1.7-6.61Z"/><path class="cls-115" d="M110,99.52,66.54,123.35a8,8,0,0,1-5.51,1C58.92,124,43,120.19,41.19,118.8a16.59,16.59,0,0,1-6.09-12.73,3.21,3.21,0,0,1,1.55-2.89l41-23.27a3,3,0,0,1,2-.35l23.55,3.77a2.21,2.21,0,0,1,2.35,2,1.7,1.7,0,0,1-.55,1.44l-.69.38Q83.15,98.76,62,110.37c-2.24,1.23-3.27,3.19-2,5.63l1.5,2.79c1.29,2.45,3.52,2.07,5.73.85L109.7,96.27l-.4-.57s1.68-.22,2.08.49S112.63,98.18,110,99.52Z"/><path class="cls-116" d="M36.89,105.49c.88.31,1.73.65,2.6,1s1.72.64,2.58,1q2.58.95,5.19,1.77c1.74.54,3.5,1,5.28,1.47s3.57.82,5.39,1.22h0a.57.57,0,0,1,.44.68.57.57,0,0,1-.55.46,33.66,33.66,0,0,1-5.67-.41,42,42,0,0,1-5.55-1.25,40.23,40.23,0,0,1-5.33-2c-.86-.4-1.7-.84-2.52-1.31a24.9,24.9,0,0,1-2.4-1.52.58.58,0,0,1,.53-1Z"/><path class="cls-105" d="M92.86,74.91,71.22,71.63a1.22,1.22,0,0,0-.73.14L35.78,90.18a1.43,1.43,0,0,0-.49,2l.6,1.06s.17.37.43.43c0,0,.4.14.57.17l4.36.93,1,3.06s-3,1.62-3,1.67a.59.59,0,0,0-.25.37,2.39,2.39,0,0,0,.89,1.94,5.61,5.61,0,0,0,2,.91l18.38,4.24a1.3,1.3,0,0,0,.91-.12L97.05,87.09a1.41,1.41,0,0,0,.58-1.76l-3.56-9.45A1.51,1.51,0,0,0,92.86,74.91Z"/><path class="cls-113" d="M44.47,88.94l6.2-3.22a1.75,1.75,0,0,1,1.1-.18l10.69,1.75a.43.43,0,0,1,.14.81l-6.33,3.48a2.21,2.21,0,0,1-1.47.22l-10.21-2A.43.43,0,0,1,44.47,88.94Z"/><path class="cls-113" d="M54.27,97.54,37,93.84c-.1,0-.16,0-.09.12A19.5,19.5,0,0,1,40,99.82a.3.3,0,0,0,.22.23L57,104a.87.87,0,0,0,.93-1.29l-1.7-3.58A2.92,2.92,0,0,0,54.27,97.54Z"/><path class="cls-114" d="M56.24,99.16l1.7,3.57a.88.88,0,0,1-.06.92l-1.52-3.2a2.85,2.85,0,0,0-2-1.62L37.84,95.27a8.41,8.41,0,0,0-1-1.31c-.07-.08,0-.14.09-.13l17.28,3.72A2.93,2.93,0,0,1,56.24,99.16Z"/><path class="cls-117" d="M56.47,95.37c2.88-1.87,5.83-3.58,8.79-5.29s5.95-3.34,9-4.92,6-3.21,9.1-4.7,6.12-3,9.23-4.43a.62.62,0,0,1,.81.34.63.63,0,0,1-.21.79c-2.9,1.82-5.85,3.54-8.82,5.23s-6,3.31-8.95,5-6,3.18-9.07,4.76-6.12,3-9.27,4.38a.64.64,0,0,1-.59-1.13Z"/><line class="cls-118" x1="61.76" y1="115.96" x2="99.77" y2="95.32"/><line class="cls-118" x1="67.21" y1="115.95" x2="105.23" y2="95.31"/><line class="cls-118" x1="41.63" y1="98.25" x2="54.65" y2="100.84"/><path class="cls-119" d="M46.53,89.76c-.35-.5-.72-6.51-.72-6.51L71.45,70.64s4.35,3.87,4.67,4.55C78,79.2,49.28,93.71,46.53,89.76Z"/><path class="cls-120" d="M31.79,47.09A11.41,11.41,0,0,1,28.5,51a11.88,11.88,0,0,1-5.87,2.18c-5.23.68-13.27-1-16.39-6.86-.53-1-2.45-4.58-.66-7.31,1.35-2.05,4.38-3,7.58-2.23l-2.34-5.25c-.71,0-6,.15-9,4.29C-1.48,40.31.65,45.88,1,46.71c3.11,8.16,14.46,11.7,21.91,10.21A34.86,34.86,0,0,0,28.75,55a40.87,40.87,0,0,0,8.69-4.88Z"/><path class="cls-120" d="M50.82,37.86a11.41,11.41,0,0,0,5.07-.18,11.91,11.91,0,0,0,5.35-3.26c3.78-3.68,7.43-11,4.78-17.11-.45-1-2.08-4.77-5.33-5-2.45-.21-5,1.6-6.45,4.57l-2.68-5.1c.45-.55,3.83-4.59,8.95-4.39,5.61.21,8.66,5.33,9.11,6.1C74.1,21,69.84,32,64.06,37a35.92,35.92,0,0,1-5.12,3.43,41.34,41.34,0,0,1-9.23,3.79Z"/><path class="cls-120" d="M45.88,83.45c-.23-.61,0-1.48.91-2.74,4.71-6.34,14.25-10,21.88-10.88,1.62-.18,2.48.25,2.9.92C73.41,73.67,47.24,87.17,45.88,83.45Z"/><path class="cls-120" d="M50.14,68.81a42.31,42.31,0,0,0-3.67-7.3l-.3-.48,0,0L46,60.8l7.52-3.64.09.26,0,0c.06.16.12.33.19.49a42.76,42.76,0,0,0,7,12.16l-9,4.26A41.38,41.38,0,0,0,50.14,68.81Z"/><path class="cls-121" d="M53.31,70.87l-.12,0a1,1,0,0,1-1.25-.62c-.21-.64-.44-1.27-.68-1.88a41.21,41.21,0,0,0-2.16-4.68,1,1,0,0,1,.41-1.34,1,1,0,0,1,1.33.4,41.79,41.79,0,0,1,2.26,4.91c.25.63.49,1.29.71,2A1,1,0,0,1,53.31,70.87Z"/><path class="cls-120" d="M51.34,52.12l0,0s0,0,0,0a3.48,3.48,0,0,0-.25.72,3.09,3.09,0,0,0,.13,1.77,2.74,2.74,0,0,0,.69,1,2.46,2.46,0,0,0,.49.4l.09.06a2.52,2.52,0,0,0,.54.26L46.2,59.72a3.42,3.42,0,0,0,.06-.55s0-.06,0-.1a2.79,2.79,0,0,0-.06-.61,3.78,3.78,0,0,0-.38-1,3.39,3.39,0,0,0-1.37-1.3,3.06,3.06,0,0,0-.71-.28h0Z"/><path class="cls-120" d="M52.51,48.87c-.15.25-.28.49-.41.74a1.27,1.27,0,0,1-.07.12c-.57,1-1.11,1.89-1.61,2.66l-5,2.43c-1.05,0-2.21-.08-3.48-.2l-.6-.06h0l-.46,0Z"/><path class="cls-120" d="M54.48,7.28a49.35,49.35,0,0,1,3.19,26.31,48.89,48.89,0,0,1-5.16,15.28L40.87,54.51a44.48,44.48,0,0,1-13.22-3.69C16.22,45.56,9.75,36.52,6.48,30.5c-.68-1.26-1.23-2.39-1.66-3.33,1-1.27,3.63-3.19,7.25-5.44L48.13,4.86a19.33,19.33,0,0,1,4.81-1C53.41,4.78,53.94,5.94,54.48,7.28Z"/><path class="cls-121" d="M27.48,46.38a1.66,1.66,0,0,1-1.61-.1,47.47,47.47,0,0,1-12-11,1.65,1.65,0,0,1,2.61-2A44,44,0,0,0,27.65,43.51a1.65,1.65,0,0,1,.5,2.27A1.67,1.67,0,0,1,27.48,46.38Z"/><path class="cls-120" d="M51.88,49.17l.25.51A1.94,1.94,0,0,1,51.54,52a1.2,1.2,0,0,1-.24.15.33.33,0,0,1-.1.06l-7.13,3.46-.34.13h0a1.94,1.94,0,0,1-2.2-1l0,0-.12-.24h0l-.12-.21Z"/><path class="cls-120" d="M53.94,56.4a.85.85,0,0,1-.13.93.51.51,0,0,1-.16.13.26.26,0,0,1-.11.07l-7,3.38a.8.8,0,0,1-.33.08h-.11a.88.88,0,0,1-.7-.47.86.86,0,0,1,.39-1.14l7-3.38A.85.85,0,0,1,53.94,56.4Z"/><rect class="cls-120" x="50.76" y="71.28" width="11.32" height="2.14" rx="1.04" transform="translate(-25.9 31.84) rotate(-25.85)"/><polygon class="cls-120" points="65.1 71.5 50.39 78.68 49.46 76.42 63.99 69.49 65.1 71.5"/><ellipse class="cls-120" cx="56.73" cy="72.98" rx="8.02" ry="1.21" transform="translate(-26.15 32.04) rotate(-25.85)"/><path class="cls-119" d="M54.48,7.28C52.15,10,43,15.62,31.61,21.14S10,30.41,6.48,30.5c-.68-1.26-1.23-2.39-1.66-3.33,1-1.27,3.63-3.19,7.25-5.44,4.12-2.55,9.59-5.54,15.7-8.5A150.12,150.12,0,0,1,48.13,4.86a19.33,19.33,0,0,1,4.81-1C53.41,4.78,53.94,5.94,54.48,7.28Z"/><path class="cls-120" d="M53.34,2.51c-.82-1.71-12.65,2.32-26.41,9S2.69,25,3.51,26.66l.84,1.73c.83,1.7,12.66-2.32,26.42-9S55,6,54.18,4.24Z"/><ellipse class="cls-120" cx="28.43" cy="14.58" rx="27.69" ry="3.43" transform="translate(-3.51 13.86) rotate(-25.85)"/><path class="cls-120" d="M53.34,2.51c.15.32-.07.8-.62,1.41-2.47,2.77-11.53,8.3-22.79,13.76S8.71,26.82,5,27c-.82.05-1.34-.07-1.49-.38-.83-1.71,9.66-8.5,23.41-15.17S52.52.81,53.34,2.51Z"/><path class="cls-122" d="M50.27,3.65a.34.34,0,0,1,.3.61C47.19,7,39.06,11.62,29.29,16.35S10.81,24.58,6.61,25.56a.34.34,0,0,1-.3-.61c3.38-2.68,11.51-7.36,21.28-12.09S46.07,4.64,50.27,3.65Z"/><path class="cls-123" d="M50.6,77.57a31.2,31.2,0,0,0,3.9-1.15,32,32,0,0,0,6.4-3.2"/><path class="cls-123" d="M47.25,61c1-.35,2-.77,3-1.28s1.93-1,2.77-1.44"/><path class="cls-124" d="M34.65,25.58,39,28.94a.94.94,0,0,0,.87.15l5.26-1.7a1,1,0,0,1,1.18,1.22l-1.85,5.21a1,1,0,0,0,.13.87l3.24,4.47a.94.94,0,0,1-.79,1.5l-5.52-.14a.92.92,0,0,0-.79.39l-3.25,4.46a1,1,0,0,1-1.68-.29l-1.56-5.3a1,1,0,0,0-.62-.63L28.4,37.44a.94.94,0,0,1-.24-1.68l4.55-3.13a.93.93,0,0,0,.41-.78V26.33A.94.94,0,0,1,34.65,25.58Z"/></g></g></g></svg>