<svg width="60" height="60" viewBox="0 0 60 60" fill="none" xmlns="http://www.w3.org/2000/svg">
<path d="M7.25293 4.10547V19.6711L14.3197 15.4596V4.10547H7.25293Z" fill="#F86500"/>
<path d="M14.3186 4.10693V15.4628L7.25098 19.6716V11.8893C9.69509 11.3599 12.0495 7.67164 12.0495 4.82164C12.0495 4.5834 12.0318 4.34517 12.0054 4.10693H14.3186V4.10693Z" fill="#CE4115"/>
<path d="M52.1488 18.6247V52.3985H7.85645V18.6247L30.007 5.05762L52.1488 18.6247Z" fill="#00D4B5"/>
<path d="M52.1449 18.6216V52.398H7.85962V46.9006C42.8464 42.4523 46.939 15.9833 46.939 15.9833L47.0449 15.498L52.1449 18.6216Z" fill="#00AEA8"/>
<path d="M55.3763 23.4627C54.8673 23.4627 54.352 23.3269 53.8858 23.0412L30.0073 8.40983L6.11857 23.0412C4.77228 23.8673 3.01339 23.4427 2.18857 22.0968C1.36375 20.7505 1.78666 18.9912 3.13295 18.1668L28.515 2.62098C29.4319 2.05945 30.5851 2.06042 31.501 2.62098L56.8723 18.1669C58.2181 18.9917 58.641 20.7515 57.8162 22.0973C57.277 22.9775 56.3379 23.4627 55.3763 23.4627Z" fill="#F86500"/>
<path d="M1.76709 53.2803V56.9062C1.76709 57.3935 2.16212 57.7885 2.64944 57.7885H57.3553C57.8426 57.7885 58.2377 57.3935 58.2377 56.9062V53.2803C58.2377 52.793 57.8426 52.3979 57.3553 52.3979H2.64944C2.16221 52.3979 1.76709 52.793 1.76709 53.2803Z" fill="#FFC100"/>
<path d="M57.3529 51.5183H53.0294V23.5477L53.4264 23.7948C55.1117 24.8272 57.4411 24.3948 58.5706 22.5595C59.6294 20.8124 59.1088 18.5095 57.3353 17.4154L31.9588 1.86833C30.7853 1.1448 29.2323 1.1448 28.05 1.86833L15.2029 9.73892V4.98762H15.6809C16.1681 4.98762 16.5632 4.59251 16.5632 4.10527C16.5632 3.61804 16.1681 3.22292 15.6809 3.22292H5.89179C5.40456 3.22292 5.00944 3.61804 5.00944 4.10527C5.00944 4.59251 5.40456 4.98762 5.89179 4.98762H6.37056V15.1477L2.6735 17.4154C0.873501 18.5095 0.379383 20.8124 1.43821 22.5595C2.56762 24.3948 4.89703 24.8271 6.58232 23.7948L6.97056 23.5566V51.5182H2.64703C1.67644 51.5182 0.882324 52.3035 0.882324 53.2829V56.9094C0.882324 57.88 1.67644 58.6741 2.64703 58.6741H57.3529C58.3323 58.6741 59.1176 57.88 59.1176 56.9094V53.2829C59.1176 52.3036 58.3323 51.5183 57.3529 51.5183ZM8.13527 4.99186H13.4382V10.8242L8.13527 14.0714V4.99186ZM5.65585 22.286C4.74703 22.8418 3.49409 22.533 2.93821 21.6329C2.41762 20.7682 2.60291 19.5329 3.59115 18.9153C12.2197 13.6363 28.834 3.46415 28.9764 3.37707C29.2853 3.18295 29.647 3.08589 30.0088 3.08589C30.3706 3.08589 30.7323 3.18295 31.0411 3.37707L56.4088 18.9153C57.3794 19.5241 57.6176 20.7506 57.0617 21.6329C56.5147 22.5329 55.2529 22.8418 54.3441 22.286C48.9882 19.0036 36.2471 11.1948 30.0088 7.37421C-4.6855 28.6135 47.8261 -3.52964 5.65585 22.286ZM8.73526 22.4801L30.0088 9.44774L51.2647 22.4713V51.5183H36.6176V36.5448C36.6176 32.8919 33.6529 29.9272 30 29.9272C26.347 29.9272 23.3823 32.8919 23.3823 36.5448V51.5183H8.73526V22.4801ZM34.8529 51.5183H25.147V36.5448C25.147 33.8624 27.3264 31.6919 30.0088 31.6919C32.6735 31.6919 34.8529 33.8624 34.8529 36.5448V51.5183ZM57.3529 56.9095H2.64703V53.283C20.0575 53.283 41.2692 53.283 57.3529 53.283V56.9095Z" fill="black"/>
<path d="M30.6524 26.6572C31.3117 26.6823 31.937 26.4749 32.4618 26.065C33.2838 25.4229 33.0861 24.4522 32.1263 24.2766C31.2368 24.1139 30.0892 24.0589 29.1898 24.0027C28.4947 23.9593 28.0861 24.4409 28.0085 25.0962C27.9358 25.7104 28.3378 26.1125 28.9254 26.3139C29.411 26.4804 30.0353 26.6337 30.6524 26.6572Z" fill="white"/>
<path d="M30.6524 26.6572C31.3117 26.6823 31.937 26.4749 32.4618 26.065C33.2838 25.4229 33.0861 24.4522 32.1263 24.2766C31.2368 24.1139 30.0892 24.0589 29.1898 24.0027C28.4947 23.9593 28.0861 24.4409 28.0085 25.0962C27.9358 25.7104 28.3378 26.1125 28.9254 26.3139C29.411 26.4804 30.0353 26.6337 30.6524 26.6572Z" stroke="#282828"/>
<path d="M21.2626 22.7274C21.894 22.5421 22.5851 22.464 23.1457 22.1517C24.9272 21.1593 24.9754 19.6568 23.5044 18.1023C22.4694 17.0087 21.1595 16.7975 19.7647 17.1688C19.3445 17.2806 18.8897 17.5708 18.6268 17.9141C17.2283 19.7408 18.2982 22.2672 20.5665 22.575C20.786 22.6049 21.0086 22.6114 21.2296 22.6287C21.2407 22.6616 21.2517 22.6944 21.2626 22.7274ZM37.8362 21.9701C37.8335 23.5043 38.5417 24.2201 40.0609 24.2192C41.6487 24.2183 42.8297 23.1821 42.8422 21.7791C42.8538 20.472 41.5549 19.1719 40.2398 19.1746C38.8382 19.1773 37.839 20.3395 37.8362 21.9701Z" fill="#282828"/>
</svg>
