<?xml version="1.0" encoding="UTF-8"?>
<svg id="Layer_1" xmlns="http://www.w3.org/2000/svg" viewBox="0 0 976.65 180.39">
  <defs>
    <style>
      .cls-1 {
        fill: none;
      }

      .cls-2 {
        fill-rule: evenodd;
      }

      .cls-2, .cls-3 {
        fill: #4b7ca9;
      }

      .cls-4 {
        fill: #ecabc3;
      }

      .cls-5 {
        fill: #9cbdde;
      }

      .cls-6 {
        fill: #c9dcaa;
      }
    </style>
  </defs>
  <path class="cls-3" d="M789.21,179.89l-.13-128.62c0-7.39,5.9-13.38,13.18-13.38l15.57-.03.24,14.59c.37,3.48,2.5,2.38,5.09-.5,6.18-6.86,10.59-11.11,20.29-12.85,9.7-1.74,26.38-.71,29.69-.94l-.13,22.74c-.01,2.87-2.07,5.44-4.88,5.73-.19.02-.38.03-.57.03-.32,0-.65-.03-.98-.08-2.51-.42-5.37-.63-8.55-.63-30.84,0-33.8,34.62-33.8,46.1v52.77c0,8.56-6.84,15.5-15.14,15.09h-19.89Z"/>
  <path class="cls-2" d="M623.8,180.21h-.1c-11.25-.9-17.18-7.71-17.18-19.71v-75.85c-.59-12.43-5.93-18-17.3-18s-16.65,5.74-16.84,18.05v95s-35.19,0-35.19,0v-95.05c-.58-12.43-5.91-18-17.28-18s-16.65,5.74-16.84,18.05v95s-35.42,0-35.42,0v-82.09c0-40.1,17.73-60.43,52.7-60.43,14.59,0,25.95,3.46,34.7,10.56,8.64-6.76,19.98-10.05,34.62-10.05,16.08,0,28.64,4.43,37.35,13.17,10.01,10.05,15.03,25.96,14.91,47.29v82.07h-18.12Z"/>
  <path class="cls-3" d="M949.54,179.91c-14.94,0-24.61-3.2-31.67-9.21-7.06-6.01-10.09-15.11-11.35-21.35-1.14-5.7-1.36-15.98-1.36-24.02v-58.69h-15.71c-2.21,0-4.01-1.79-4.01-3.99v-24.58h19.72l.1-34.72c.25-1.89,2.19-3.34,4.14-3.34h27.62c2.06,0,3.73,1.66,3.73,3.71v33.82h15.61c10.27,0,18.62,8.38,18.71,18.77l.11,10.04h-34.42v58.41c0,8.71,1.94,15.16,5.76,19.17,3.85,4.06,9,6.11,15.3,6.11,2.27,0,10.18-1.6,11.83-1.94l2.73,12.63c1.53,7.06-3.07,12.57-10.82,15.72-5.49,2.23-12.72,3.46-16,3.46Z"/>
  <path class="cls-3" d="M0,180.39V19.34C0,8.75,8.59.16,19.18.16h15.44l.44,100.65,50.99-63.63h41.55l-47.41,55.9c-1.35,1.61-1.49,3.87-.34,5.63l52.46,81.14h-41.22s-31.22-52.72-31.22-52.72c-.86-1.46-2.39-2.33-4.08-2.33-1.37,0-2.67.59-3.57,1.62l-15.6,17.85c-.76.87-1.18,1.99-1.17,3.15l.25,32.84-35.69.1Z"/>
  <path class="cls-3" d="M177.63,179.43c-6.27,0-11.58-1.1-15.79-3.26-4.2-2.15-7.59-5.19-10.07-9.03-2.56-3.94-4.44-8.79-5.6-14.43-1.19-5.74-1.79-12.31-1.79-19.51V0h34.34v134.94c0,5,.88,8.47,2.7,10.61,1.88,2.22,3.95,3.34,6.15,3.34h2.23c.86,0,1.53.57,1.65,1.36l3.75,25.23c.12.8-.37,1.55-1.13,1.75-1.31.35-2.84.67-4.65,1.06l-.84.18c-3.84.82-6.81.97-10.94.97Z"/>
  <g>
    <g>
      <path class="cls-4" d="M400.98,122.67c3.59.8,6.56,1.85,8.89,3.17,2.45,1.39,4.19,3.06,5.24,5,.77,1.43,1.17,3,1.17,4.72,0,2.47-.77,4.67-2.21,6.56-.04.17-.1.35-.15.52-6.99,12.88-25.3,23.74-65.72,25.85,6.96,4.85,13.97,7.81,21.35,9.55,0,0,0,0,0,0,0,0,.02,0,.03,0,6.66,1.56,13.63,2.12,21.13,2.18.22,0,.45,0,.67,0,.15,0,.3,0,.45,0,.5,0,1,0,1.5,0,18.86-.12,37.19-5.56,48.01-17.52-2.28-15.69-10.52-35.19-40.37-40.03Z"/>
      <path class="cls-6" d="M414.5,141.52c-3.23,4.89-10.68,7.82-20.75,7.82-19.73,0-27.54-6.24-32.2-9.96-2.07-1.65-3.44-2.75-4.93-2.75-2.82,0-7.09,3.72-17.07,15.29-2.53,2.93-2.27,7.44.57,10.05,2.7,2.48,5.38,4.64,8.08,6.52,41.59-2.18,59.77-13.6,66.3-26.98Z"/>
    </g>
    <g>
      <path class="cls-1" d="M380.94,68.22c-.83.39-1.61.82-2.32,1.32,1.16-.72,2-1.16,2.32-1.32Z"/>
      <path class="cls-3" d="M397.79,91.34c-12.1-1.27-23.54-2.47-23.54-13.77,0-2.82,1.08-5.05,2.85-6.78-.35.18-.69.38-1.04.59.35-.21.74-.43,1.04-.59.44-.42,1.01-.89,1.52-1.25-.85.53-1.88,1.21-2.99,2.05.06-.04-.13.11-.07.07.11-.07.24-.14.37-.22-2.63,1.59-5.26,3.84-7.23,6.99.05-.08.09-.17.14-.24-6.5,8.23-10.56,21.58,3.4,40.32.59.13,1.17.26,1.77.38q-.41-.77,0,0c5.55,1.12,11.7,1.89,18.47,2.53,2.87.27,5.49.66,7.86,1.15,30.34,4.68,38.68,24.36,40.97,40.16,0,0,0,0,0,0,0,0,0,0,0,0,5.41-6,8.95-13.61,9.75-23.01,0-.03,0-.06,0-.09.05-.61.09-1.24.12-1.87,0-.05,0-.1,0-.15.01-.27.02-.55.03-.82,0-.27,0-.54.01-.81-.15-35.91-40.92-43.27-53.43-44.67Z"/>
      <path class="cls-5" d="M393.8,36.69c-25.36.03-54.9,10.75-54.9,40.87,0,16.3,5.15,27.49,15.73,34.21,4.95,3.14,10.82,5.23,17.61,6.74-13.96-18.74-9.9-32.1-3.4-40.32,2.2-2.79,4.67-4.98,6.83-6.6,1.11-.84,2.13-1.52,2.99-2.05.71-.49,1.49-.93,2.32-1.32,3.67-1.71,8.38-2.44,12.95-2.44,15.18,0,21.94,3.68,25.98,5.88,1.62.88,2.79,1.52,3.77,1.52h0c2.12,0,5.02-3.16,11.69-11.81,3.97-5.15,2.44-12.78-3.18-15.87-11.21-6.16-23.58-8.8-38.38-8.81Z"/>
    </g>
  </g>
  <path class="cls-3" d="M308.25,52.69c-8.77-9.71-20.74-14.63-37.58-14.63-10.5,0-20.55,1.66-29.87,4.94-4.28,1.5-8.53,3.24-12.64,5.16-3.4,1.59-5.92,4.48-7.11,8.14-1.19,3.68-.84,7.74.97,11.14l5.9,11.07c5.96-3.46,11.66-6.26,16.95-8.33,5.96-2.33,12.06-3.51,18.13-3.51,8.06,0,13.97,2.08,17.57,6.18,3.5,4,5.47,9.39,5.86,16.03l.12,2.03-1.98.21c-26.38,2.76-45.7,8.22-57.41,16.23-11.55,7.89-17.16,18.52-17.16,32.5,0,5.7.92,11.02,2.74,15.8,1.81,4.79,4.39,9.05,7.67,12.67,3.25,3.6,7.29,6.45,12.01,8.47,4.75,2.03,10.15,3.06,16.05,3.06,7.3,0,13.95-1.88,20.17-4.69,9.84-4.45,17.8-13.01,17.8-13.01l.38,17.71h16.24c10.2,0,18.47-8.38,18.47-18.72v-62.32c0-20.88-4.47-36.41-13.28-46.16ZM286.43,141.4l-.72.67c-4.48,4.18-8.81,7.47-12.86,9.78-4.29,2.44-9.44,3.69-15.33,3.69-6.18,0-11.24-1.33-15.02-3.95-4.02-2.78-6.06-7.04-6.06-12.66,0-6.66,3.65-12.41,10.85-17.12,6.91-4.51,18.8-7.83,36.33-10.14l2.81-.37v30.1Z"/>
  <path class="cls-3" d="M757.24,52.69c-8.77-9.71-20.74-14.63-37.58-14.63-10.5,0-20.55,1.66-29.87,4.94-4.28,1.5-8.53,3.24-12.64,5.16-3.4,1.59-5.92,4.48-7.11,8.14-1.19,3.68-.84,7.74.97,11.14l5.9,11.07c5.96-3.46,11.66-6.26,16.95-8.33,5.96-2.33,12.06-3.51,18.13-3.51,8.06,0,13.97,2.08,17.57,6.18,3.5,4,5.47,9.39,5.86,16.03l.12,2.03-1.98.21c-26.38,2.76-45.7,8.22-57.41,16.23-11.55,7.89-17.16,18.52-17.16,32.5,0,5.7.92,11.02,2.74,15.8,1.81,4.79,4.39,9.05,7.67,12.67,3.25,3.6,7.29,6.45,12.01,8.47,4.75,2.03,10.15,3.06,16.05,3.06,7.3,0,13.95-1.88,20.17-4.69,9.84-4.45,17.8-13.01,17.8-13.01l.38,17.71h16.24c10.2,0,18.47-8.38,18.47-18.72v-62.32c0-20.88-4.47-36.41-13.28-46.16ZM735.42,141.4l-.72.67c-4.48,4.18-8.81,7.47-12.86,9.78-4.29,2.44-9.44,3.69-15.33,3.69-6.18,0-11.24-1.33-15.02-3.95-4.02-2.78-6.06-7.04-6.06-12.66,0-6.66,3.65-12.41,10.85-17.12,6.91-4.51,18.8-7.83,36.33-10.14l2.81-.37v30.1Z"/>
</svg>