<?xml version="1.0" encoding="UTF-8"?>
<svg id="Layer_1" xmlns="http://www.w3.org/2000/svg" viewBox="0 0 273.02 345.54">
  <defs>
    <style>
      .cls-1 {
        fill: none;
      }

      .cls-2 {
        fill: #ecabc3;
      }

      .cls-3 {
        fill: #9cbdde;
      }

      .cls-4 {
        fill: #4b7ca9;
      }

      .cls-5 {
        fill: #c9dcaa;
      }
    </style>
  </defs>
  <g>
    <path class="cls-2" d="M152.07,206.98c8.64,1.92,15.8,4.46,21.39,7.64,5.89,3.34,10.1,7.37,12.62,12.03,1.86,3.44,2.81,7.23,2.81,11.35,0,5.94-1.86,11.25-5.31,15.8-.09.41-.25.83-.35,1.24-16.83,31.01-60.91,57.14-158.21,62.24,16.75,11.68,33.63,18.81,51.4,22.98,0,0,0,0,0,0,.02,0,.05.01.07.02,16.04,3.75,32.81,5.11,50.87,5.25.54,0,1.07,0,1.61,0,.36,0,.72,0,1.09,0,1.2,0,2.4,0,3.61-.01,45.41-.3,89.52-13.39,115.58-42.18-5.48-37.77-25.33-84.72-97.18-96.36Z"/>
    <path class="cls-5" d="M184.62,252.34c-7.77,11.77-25.7,18.83-49.96,18.83-47.5,0-66.29-15.01-77.51-23.98-4.98-3.98-8.27-6.61-11.87-6.61-6.8,0-17.06,8.97-41.09,36.8-6.1,7.06-5.46,17.91,1.37,24.2,6.49,5.98,12.96,11.18,19.45,15.7,100.12-5.24,143.89-32.75,159.61-64.94Z"/>
  </g>
  <g>
    <path class="cls-1" d="M103.82,75.9c-2,.93-3.87,1.98-5.58,3.17,2.78-1.73,4.8-2.78,5.58-3.17Z"/>
    <path class="cls-4" d="M144.38,131.54c-29.13-3.06-56.66-5.96-56.66-33.15,0-6.8,2.59-12.17,6.86-16.33-.83.44-1.66.91-2.5,1.41.85-.5,1.77-1.03,2.5-1.41,1.05-1,2.43-2.14,3.67-3-2.05,1.28-4.52,2.92-7.19,4.94.15-.09-.32.26-.17.17.27-.16.57-.34.88-.52-6.34,3.82-12.65,9.25-17.41,16.84.12-.19.21-.4.33-.59-15.64,19.8-25.41,51.95,8.19,97.07,1.41.31,2.81.63,4.26.93q-.98-1.85,0,0c13.37,2.7,28.17,4.55,44.45,6.1,6.91.65,13.22,1.58,18.91,2.77,73.03,11.26,93.11,58.65,98.63,96.67,0,0,0,0,0,0,0,0,0,0,0,0,13.01-14.44,21.54-32.77,23.47-55.39,0-.07.01-.14.02-.22.12-1.48.22-2.98.29-4.49,0-.12.01-.23.02-.35.03-.66.05-1.32.06-1.98.01-.65.02-1.3.03-1.96-.37-86.46-98.51-104.17-128.63-107.54Z"/>
    <path class="cls-3" d="M134.78,0C73.74.08,2.61,25.88,2.61,98.39c0,39.25,12.39,66.19,37.87,82.35,11.92,7.56,26.05,12.6,42.4,16.22-33.6-45.12-23.83-77.26-8.19-97.07,5.3-6.71,11.25-11.99,16.43-15.89,2.67-2.01,5.14-3.66,7.19-4.94,1.7-1.19,3.58-2.24,5.58-3.17,8.83-4.13,20.18-5.87,31.18-5.87,36.55,0,52.82,8.86,62.54,14.16,3.89,2.12,6.71,3.65,9.08,3.65h0c5.11,0,12.09-7.61,28.14-28.44,9.55-12.4,5.87-30.77-7.66-38.2C200.18,6.38,170.39.03,134.78,0Z"/>
  </g>
</svg>