<svg xmlns="http://www.w3.org/2000/svg" xmlns:xlink="http://www.w3.org/1999/xlink" viewBox="0 0 301.84 259.19"><defs><style>.cls-1{fill:url(#linear-gradient);}.cls-2{fill:url(#linear-gradient-2);}.cls-3{fill:url(#linear-gradient-3);}.cls-4{fill:url(#linear-gradient-4);}.cls-5{fill:url(#linear-gradient-5);}.cls-6{fill:url(#linear-gradient-6);}.cls-7{fill:url(#linear-gradient-7);}.cls-8{fill:url(#linear-gradient-8);}.cls-9{fill:url(#linear-gradient-9);}.cls-10{fill:url(#linear-gradient-10);}</style><linearGradient id="linear-gradient" x1="136.76" y1="0.6" x2="161.87" y2="219.83" gradientUnits="userSpaceOnUse"><stop offset="0" stop-color="#0077c0"/><stop offset="0.47" stop-color="#0a3d87"/><stop offset="0.82" stop-color="#101864"/><stop offset="1" stop-color="#120a56"/></linearGradient><linearGradient id="linear-gradient-2" x1="70.8" y1="9.26" x2="69.91" y2="107.46" gradientUnits="userSpaceOnUse"><stop offset="0" stop-color="#fff"/><stop offset="0.23" stop-color="#ccecfc"/><stop offset="0.94" stop-color="#00b7ef"/></linearGradient><linearGradient id="linear-gradient-3" x1="125.7" y1="9.76" x2="124.81" y2="109.03" gradientUnits="userSpaceOnUse"><stop offset="0" stop-color="#fff"/><stop offset="0.2" stop-color="#fff79b"/><stop offset="0.91" stop-color="#fcaf17"/></linearGradient><linearGradient id="linear-gradient-4" x1="171.59" y1="10.23" x2="170.69" y2="110.12" gradientUnits="userSpaceOnUse"><stop offset="0" stop-color="#fff"/><stop offset="0.23" stop-color="#fff9b6"/><stop offset="0.36" stop-color="#e0eb95"/><stop offset="0.54" stop-color="#bddc6f"/><stop offset="0.7" stop-color="#a4d054"/><stop offset="0.84" stop-color="#94c944"/><stop offset="0.95" stop-color="#8fc73e"/></linearGradient><linearGradient id="linear-gradient-5" x1="236.36" y1="11.03" x2="235.45" y2="111.71" gradientUnits="userSpaceOnUse"><stop offset="0" stop-color="#fff"/><stop offset="0.12" stop-color="#fef6f9"/><stop offset="0.31" stop-color="#fcdfeb"/><stop offset="0.95" stop-color="#f281b3"/><stop offset="1" stop-color="#f17db1"/></linearGradient><linearGradient id="linear-gradient-6" x1="46.93" y1="81.1" x2="46.04" y2="202.42" gradientUnits="userSpaceOnUse"><stop offset="0" stop-color="#fff"/><stop offset="0.29" stop-color="#fff9b6"/><stop offset="0.51" stop-color="#d3e587"/><stop offset="0.78" stop-color="#a2d052"/><stop offset="0.92" stop-color="#8fc73e"/></linearGradient><linearGradient id="linear-gradient-7" x1="108.33" y1="82.8" x2="107.44" y2="203.8" gradientUnits="userSpaceOnUse"><stop offset="0" stop-color="#fff"/><stop offset="0.3" stop-color="#dcf2fd"/><stop offset="0.6" stop-color="#8cb9df"/><stop offset="0.86" stop-color="#508ec9"/><stop offset="0.98" stop-color="#397dc0"/></linearGradient><linearGradient id="linear-gradient-8" x1="182.2" y1="84.22" x2="181.31" y2="206.22" gradientUnits="userSpaceOnUse"><stop offset="0" stop-color="#fcdfeb"/><stop offset="0.27" stop-color="#fff"/><stop offset="0.48" stop-color="#fad1e3"/><stop offset="0.71" stop-color="#f5a4c8"/><stop offset="0.89" stop-color="#f288b7"/><stop offset="1" stop-color="#f17db1"/></linearGradient><linearGradient id="linear-gradient-9" x1="253.74" y1="85.83" x2="252.85" y2="207.82" gradientUnits="userSpaceOnUse"><stop offset="0" stop-color="#fff"/><stop offset="0.25" stop-color="#fff79b"/><stop offset="0.91" stop-color="#fcaf17"/></linearGradient><linearGradient id="linear-gradient-10" x1="32.28" y1="229.81" x2="268.65" y2="229.81" gradientUnits="userSpaceOnUse"><stop offset="0" stop-color="#ccecfc"/><stop offset="0.34" stop-color="#f4a4c7"/><stop offset="0.65" stop-color="#ffd400"/><stop offset="1" stop-color="#8acef2"/></linearGradient></defs><title>kidsloop</title><g id="Layer_2" data-name="Layer 2"><g id="Layer_1-2" data-name="Layer 1"><path class="cls-1" d="M290,113.53a44.67,44.67,0,0,0-15.44-10.74,27.4,27.4,0,0,0,2.77-14.36,28.2,28.2,0,0,0-10-19.69c.16-.17.33-.34.49-.52a18.31,18.31,0,0,0,4.46-16c-3.25-17.18-22.38-25.82-37.72-28a38.29,38.29,0,0,0-20.17,2.42c-.08-1.17-.15-2.34-.23-3.51-.87-12.06-9.85-21.75-21.33-23a19.65,19.65,0,0,0-15.94,5.13,21.74,21.74,0,0,0-6.44,17.11c.09,1.6.17,3.07.24,4.45-.9-.11-1.82-.19-2.77-.24A36.38,36.38,0,0,0,151,29.64a25.42,25.42,0,0,0-6.36-17.47,24.87,24.87,0,0,0-17.9-8.41,25.53,25.53,0,0,0-16.52,5.36,22.44,22.44,0,0,0-14.67-5.9h0c-7.66,0-13.54,3.16-19.64,10.5q-5.09,5.91-10.24,11.79a23.89,23.89,0,0,0-7.1-14.62,22.61,22.61,0,0,0-17.16-6c-13.45.8-22.58,11.2-22.24,25.27v.13c.7,19.73,2.06,38,4.11,55.4-.5,0-1,0-1.51,0-7,.17-12.95,2.72-16.86,7.16A20.29,20.29,0,0,0,.08,108.3s0,.11,0,.17A537.71,537.71,0,0,0,11,175.88a1,1,0,0,0,0,.17c2.62,11,13.12,19.52,25,20.37S60,198,71.81,198.55l.59,0c6.22.16,11.58-1.69,15.33-5.28a49.15,49.15,0,0,0,23.66,7h.4c14.26.26,26-7,33.82-17.52a51.9,51.9,0,0,0,3.92,4.33,45.91,45.91,0,0,0,31,13.53l1,0a46.37,46.37,0,0,0,23.28-6.12,21,21,0,0,0,5.32,12.63,20.49,20.49,0,0,0,14.51,6.66H225A21.38,21.38,0,0,0,246.82,195c.19-1.45.36-2.77.51-4,1.49.16,3.08.26,4.79.29,25.71.32,46.31-22.28,49.34-43.69C303.17,135.53,299,123.1,290,113.53Z"/><path class="cls-2" d="M31,30.25C30.82,22,35.69,17.39,42.4,17s11.46,3.78,11.53,12.16c.09,11.2.24,16.61.69,27.07Q69.49,39.86,85.13,21.78c4.59-5.52,7.36-6.32,10.68-6.32,5,0,10.94,5.43,10.74,11.88-.12,3.53-2.24,6.84-4.6,9.39q-13.26,13.58-26,26,14.63,14.5,28,27.44c3.15,3,5.64,5.38,5.67,8.63,0,5.52-4.75,8.38-10.22,8.33-5.25,0-9.28-4.16-12.68-7.25C76.79,90.83,66.37,81.23,55.43,71c.59,9.3,1.38,18.27,2.36,26.86.67,6-3.23,9-9.23,8.95s-11-3-11.89-8.93A643.14,643.14,0,0,1,31,30.25Z"/><path class="cls-3" d="M126.58,16a12.6,12.6,0,0,1,12.14,13.75c-.57,7.05-6.83,12.22-14,12S111.89,36,112.31,28.93A13.94,13.94,0,0,1,126.58,16ZM113,57.55c.24-5.54,5-10,11.42-9.82s10.48,4.86,10.08,10.37c-1.08,14.84-2,28.66-2.71,41.56-.25,4.35-4.42,7.71-10.2,7.64s-9.86-3.54-9.8-7.92C111.9,86.39,112.27,72.48,113,57.55Z"/><path class="cls-4" d="M204.93,99.13a9.14,9.14,0,0,1-9.73,9.38,10.55,10.55,0,0,1-9.27-6.19c-4.4,5.07-9.53,7.06-17.09,6.91-18.68-.36-31.83-19.16-32-35.67-.13-15.93,11.7-35.76,30.62-34.69,8.39.48,12.78,3.52,16.41,6.69-.37-9.39-.59-14.11-1.08-23.61-.3-5.82,3.29-10.11,8.82-9.49s9.7,5.7,10.11,11.41C203.52,49.51,204.57,74.54,204.93,99.13Zm-47.57-25c.14,9,5.19,16.57,14.11,16.83s13.6-6.9,13.39-15.74-5.27-16.68-14-17.13S157.21,65.09,157.36,74.16Z"/><path class="cls-5" d="M217,86.55c7,.18,12.31,6,21.7,6.26,4.43.1,6-1.71,5.84-3.7-.27-4-5.06-4.54-17.69-9.65-12-4.83-18.69-9.24-19.93-20.75C205.33,44.28,218.22,34.44,233,36.54c10.77,1.54,24.93,7.26,26.93,17.81.88,4.66-2.83,8.12-7.89,7.69-4.28-.37-11.26-6.08-18-6.65-3-.26-6.23,1.89-5.34,4,4.62,10.76,34.77,10.75,36.16,29.7.95,13.14-13.29,20.61-26.06,20.65-10,0-28.44-2.86-30.27-13.6A8.3,8.3,0,0,1,217,86.55Z"/><path class="cls-6" d="M11.76,107.85c-.53-6.63,4.12-10.11,10.75-10.27s11.59,3.19,12.2,10c2,19.45,4.87,39,8.68,59,9.81.42,14.71.59,24.47.88,7.14.21,12,3.92,13.15,10,1.13,5.86-2.19,9.64-9.25,9.32q-17.7-.76-35.52-2c-5.88-.41-12.33-4.43-13.86-10.84A531.14,531.14,0,0,1,11.76,107.85Z"/><path class="cls-7" d="M143.92,151c0,17.68-12.94,37.76-32.48,37.44-19.9-.33-36.6-17.84-39.34-37.38-2.91-20.75,14.05-39.8,35.11-39.56C129.19,111.74,143.9,130.59,143.92,151Zm-49.72.29C95,161,100.84,169.06,110,169s13.68-8.08,13.36-17.76c-.32-9.85-5.75-18.19-15.35-18.23S93.41,141.34,94.2,151.28Z"/><path class="cls-8" d="M217.52,151.62c-.7,19-15.42,37.07-36.39,37-20.44,0-35.14-19.46-35.24-37.63-.1-19.34,14.54-36.57,35.55-36.75C202,114.11,218.22,132.62,217.52,151.62ZM167,151.45c.06,9.49,5.17,17.48,14.41,17.54s14.58-7.85,14.73-17.31-5.07-17.41-14.59-17.51S166.93,141.93,167,151.45Z"/><path class="cls-9" d="M220.24,123.62a9.76,9.76,0,0,1,9.76-9.93,9.92,9.92,0,0,1,9.26,5.91c4.68-5.37,10.19-7.4,18-7.75,18.85-.82,34.09,16.69,31.69,33.83-2.36,16.84-18.74,33.73-37.11,33.52-8.17-.09-12.06-2.48-15.17-5.17-.76,7.71-1.19,11.52-2.15,19.09a9.68,9.68,0,0,1-9.82,8.69c-5-.18-8-4.3-7.61-9.26Q219.69,159.06,220.24,123.62Zm46.7,22.46c.84-8.69-4-15.89-13.32-15.75-9.11.13-14.27,7.39-14.77,16s3.63,15.56,12.34,15.55C260.14,161.83,266.1,154.68,266.94,146.08Z"/><path class="cls-10" d="M150.46,259.19c-45.45,0-87.32-14.8-114.86-40.6A10.5,10.5,0,1,1,50,203.27c23.35,21.86,60.92,34.92,100.51,34.92S227.62,225.13,251,203.27a10.5,10.5,0,1,1,14.35,15.32C237.78,244.39,195.91,259.19,150.46,259.19Z"/></g></g></svg>