<svg width="128" height="128" viewBox="0 0 128 128" fill="none" xmlns="http://www.w3.org/2000/svg">
<path d="M52.258 124.376C53.178 126.578 55.306 128 57.672 128H70.308C72.676 128 74.81 126.578 75.746 124.378L76.11 123.522H51.898L52.258 124.376ZM45.264 116.042C45.264 118.24 47.052 120.028 49.23 120.028H78.754C80.952 120.028 82.72 118.24 82.72 116.042V113.802H45.264V116.042Z" fill="#282828"/>
<path d="M82.72 103.468H45.264V109.694H82.72V103.468Z" fill="#282828"/>
<path d="M80.048 49.4517C84.732 41.5417 82.616 35.2537 78.65 32.7877C75.096 30.5897 69.734 31.1037 65.706 37.2457C64.946 38.3957 63.034 38.3957 62.274 37.2457C59.624 33.1977 56.398 31.5957 53.5 31.5957C51.98 31.5957 50.562 32.0277 49.35 32.7877C45.384 35.2537 43.248 41.5397 47.952 49.4917C47.972 49.5337 52.882 57.3397 63.998 64.4077C75.096 57.3417 80.006 49.5337 80.048 49.4517Z" fill="#E95E61"/>
<path d="M91.348 10.908C83.356 3.32598 72.856 -0.536017 61.844 0.0599827C41.318 1.12798 24.45 18.756 24.266 39.344C24.164 48.836 27.472 58.062 33.594 65.314C41.402 74.6 45.84 86.62 46.272 99.358H61.948V67.964C49.888 60.342 44.648 51.98 44.422 51.61C38.32 41.254 41.566 32.79 47.176 29.296C51.738 26.46 58.64 26.522 64.002 32.706C69.344 26.522 76.248 26.46 80.808 29.296C86.418 32.788 89.684 41.254 83.582 51.588C83.336 51.978 78.096 60.34 66.056 67.964V99.36H81.712C82.164 86.682 86.622 74.622 94.512 65.192C100.45 58.062 103.738 49.022 103.738 39.736C103.738 28.722 99.34 18.49 91.348 10.908Z" fill="#FFD61D"/>
</svg>
