<svg width="53" height="53" viewBox="0 0 53 53" fill="none" xmlns="http://www.w3.org/2000/svg">
<path d="M26 52C40.3594 52 52 40.3594 52 26C52 11.6406 40.3594 0 26 0C11.6406 0 0 11.6406 0 26C0 40.3594 11.6406 52 26 52Z" fill="white"/>
<path d="M23.3504 26.9746C17.2254 26.9746 14.3004 30.7246 12.9754 33.4246C12.1754 35.0746 12.6504 37.0746 14.1504 38.1496C16.2004 39.6496 19.8754 41.4246 25.8004 41.5746C32.2254 41.7496 38.2004 39.4496 38.2004 39.4496C38.2004 39.4496 34.5754 26.9496 23.3504 26.9746Z" fill="#2475EA"/>
<path d="M31.5756 20.6248C31.5506 13.8498 27.9256 12.1748 23.4756 12.1748C22.6506 12.1748 21.8506 12.2248 21.1006 12.3748C21.2006 13.2248 22.2006 18.7748 31.5756 20.6248Z" fill="#50595E"/>
<path d="M31.5754 20.625C26.6504 19.65 24.0504 17.675 22.6754 15.875C20.4254 18.575 16.2254 19.2 15.4504 19.275C15.4004 19.725 15.4004 20.2 15.4004 20.7C15.4004 27.525 19.0254 29.225 23.5004 29.225C27.9754 29.225 31.6004 27.525 31.6004 20.7C31.5754 20.675 31.5754 20.65 31.5754 20.625Z" fill="#FFB000"/>
<path d="M22.6752 15.875C21.4252 14.25 21.1752 12.775 21.1252 12.375C18.1002 12.9 15.8252 14.725 15.4502 19.25C16.2252 19.175 20.4002 18.575 22.6752 15.875Z" fill="#50595E"/>
<path d="M34.8505 31.5499L33.9005 31.5249C30.0255 32.2499 27.9255 34.7249 27.4005 38.0999C27.1255 39.9249 28.7005 41.5249 30.5255 41.2999C32.6505 41.0499 34.4755 40.6249 35.8755 40.2249C38.0255 39.5999 39.5505 38.8749 40.6005 38.2249C41.9755 37.3749 42.3505 35.5249 41.4005 34.2249C40.4005 32.7999 38.4755 31.3249 34.8505 31.5499Z" fill="#F251D0"/>
<path d="M39.475 26.9496C39.45 22.2746 36.95 21.0996 33.875 21.0996C33.3 21.0996 32.75 21.1496 32.25 21.2246C32.325 21.8496 33 25.6746 39.475 26.9496Z" fill="#2475EA"/>
<path d="M39.4754 26.9494C36.0754 26.2744 34.2754 24.8994 33.3254 23.6494C31.7754 25.5244 28.8754 25.9494 28.3254 25.9994C28.3004 26.2994 28.2754 26.6244 28.2754 26.9744C28.2754 31.6994 30.7754 32.8494 33.8754 32.8494C36.9754 32.8494 39.4754 31.6744 39.4754 26.9744C39.4754 26.9744 39.4754 26.9744 39.4754 26.9494Z" fill="#FFB000"/>
<path d="M33.3252 23.6496C32.4502 22.5246 32.2752 21.5246 32.2502 21.2246C30.1752 21.5996 28.6002 22.8746 28.3252 25.9996C28.8752 25.9496 31.7752 25.5246 33.3252 23.6496Z" fill="#2475EA"/>
</svg>
