<svg width="29" height="29" viewBox="0 0 29 29" fill="none" xmlns="http://www.w3.org/2000/svg">
<g clip-path="url(#clip0_475_4993)">
<path d="M25.675 11.0498H4.125C2.225 11.0498 0.699997 12.5748 0.699997 14.4748C0.699997 16.3748 2.225 17.8998 4.125 17.8998H25.675C27.575 17.8998 29.1 16.3748 29.1 14.4748C29.1 12.5748 27.575 11.0498 25.675 11.0498Z" fill="#FFBC00"/>
<path d="M1.7 12.0247C0.35 13.3747 0.35 15.5497 1.7 16.8747L12.4 27.5747C13.75 28.9247 15.925 28.9247 17.25 27.5747C18.6 26.2247 18.6 24.0497 17.25 22.7247L6.55 12.0247C5.2 10.6747 3.025 10.6747 1.7 12.0247Z" fill="#F251D0"/>
<path d="M1.7 16.8748C3.05 18.2248 5.225 18.2248 6.55 16.8748L17.2 6.22481C18.55 4.87481 18.55 2.69981 17.2 1.3748C15.85 0.0248047 13.675 0.0248047 12.35 1.3748L1.7 12.0248C0.35 13.3498 0.35 15.5248 1.7 16.8748Z" fill="#2475EA"/>
</g>
<defs>
<clipPath id="clip0_475_4993">
<rect width="29" height="29" fill="white"/>
</clipPath>
</defs>
</svg>
