<svg width="52" height="52" viewBox="0 0 52 52" fill="none" xmlns="http://www.w3.org/2000/svg">
<path d="M26 52C40.3594 52 52 40.3594 52 26C52 11.6406 40.3594 0 26 0C11.6406 0 0 11.6406 0 26C0 40.3594 11.6406 52 26 52Z" fill="white"/>
<g clip-path="url(#clip0_461_11802)">
<path d="M36.675 23.0498H15.125C13.225 23.0498 11.7 24.5748 11.7 26.4748C11.7 28.3748 13.225 29.8998 15.125 29.8998H36.675C38.575 29.8998 40.1 28.3748 40.1 26.4748C40.1 24.5748 38.575 23.0498 36.675 23.0498Z" fill="#FFBC00"/>
<path d="M12.7 24.0247C11.35 25.3747 11.35 27.5497 12.7 28.8747L23.4 39.5747C24.75 40.9247 26.925 40.9247 28.25 39.5747C29.6 38.2247 29.6 36.0497 28.25 34.7247L17.55 24.0247C16.2 22.6747 14.025 22.6747 12.7 24.0247Z" fill="#F251D0"/>
<path d="M12.7 28.8748C14.05 30.2248 16.225 30.2248 17.55 28.8748L28.2 18.2248C29.55 16.8748 29.55 14.6998 28.2 13.3748C26.85 12.0248 24.675 12.0248 23.35 13.3748L12.7 24.0248C11.35 25.3498 11.35 27.5248 12.7 28.8748Z" fill="#2475EA"/>
</g>
<defs>
<clipPath id="clip0_461_11802">
<rect width="29" height="29" fill="white" transform="translate(11 12)"/>
</clipPath>
</defs>
</svg>
