<svg width="25" height="27" viewBox="0 0 25 27" fill="none" xmlns="http://www.w3.org/2000/svg">
<g clip-path="url(#clip0_461_11876)">
<path d="M22.3145 16.0684C22.3145 16.5441 20.115 23.5568 12.4139 23.5568C8.05966 23.5568 5.21094 20.2491 5.21094 20.2491" stroke="#2475EA" stroke-width="5.32531" stroke-miterlimit="10" stroke-linecap="round" stroke-linejoin="round"/>
<path d="M14.9316 2.99414C17.9203 3.83365 19.7672 5.97159 19.7672 5.97159" stroke="#FFB000" stroke-width="5.32531" stroke-miterlimit="10" stroke-linecap="round" stroke-linejoin="round"/>
<path d="M24.3455 8.35572L24.2671 3.82798C24.2447 2.41761 22.5377 1.72922 21.5471 2.72543L16.4989 7.77366C15.5027 8.76988 16.1911 10.4713 17.6014 10.4937L22.1292 10.572C23.3604 10.5944 24.3622 9.587 24.3455 8.35572Z" fill="#FFB000"/>
<path d="M0.682983 17.8758L0.761337 22.4036C0.783724 23.814 2.49072 24.5023 3.48134 23.5061L8.52957 18.4579C9.52578 17.4617 8.83739 15.7603 7.42702 15.7379L2.89928 15.6595C1.668 15.6372 0.660596 16.639 0.682983 17.8758Z" fill="#2475EA"/>
<path d="M2.66406 10.1525C2.66406 9.67674 4.86357 2.66406 12.5646 2.66406C13.1971 2.66406 13.8015 2.73682 14.3668 2.85435" stroke="#F958CF" stroke-width="5.32531" stroke-miterlimit="10" stroke-linecap="round" stroke-linejoin="round"/>
<path d="M22.3143 16.0684C22.3143 16.393 21.279 19.7958 18.1504 21.9001" stroke="#FFB000" stroke-width="5.32531" stroke-miterlimit="10" stroke-linecap="round" stroke-linejoin="round"/>
</g>
<defs>
<clipPath id="clip0_461_11876">
<rect width="24.9781" height="26.2206" fill="white"/>
</clipPath>
</defs>
</svg>
