<svg width="20" height="21" viewBox="0 0 20 21" fill="none" xmlns="http://www.w3.org/2000/svg">
<path d="M14.4331 0H10.2152C10.2152 0 9.79536 0 9.63544 0C9.49551 0 9.35557 0.0399805 9.25562 0.139931C9.15567 0.239882 9.0957 0.379813 9.0957 0.519744V5.47731C9.0957 5.61724 9.15567 5.75717 9.25562 5.85712C9.35557 5.95707 9.49551 6.01704 9.63544 6.01704C9.77537 6.01704 9.9153 5.95707 10.0153 5.85712C10.1152 5.75717 10.1752 5.61724 10.1752 5.47731V4.13796H13.3136C13.5335 4.13796 13.7534 4.09798 13.9533 4.01802C14.1532 3.93806 14.3331 3.81812 14.493 3.6582C14.653 3.49828 14.7729 3.31837 14.8529 3.11847C14.9328 2.91856 14.9728 2.69867 14.9728 2.47878V0.599705C14.9728 0.459774 14.9328 0.279863 14.8329 0.179912C14.7329 0.079961 14.593 0.0199902 14.4331 0Z" fill="black"/>
<path d="M10.9746 5.35778C10.175 4.79806 9.11552 4.79806 8.3359 5.35778L0.779617 10.7551C0.299853 11.095 0 11.6547 0 12.2544V16.1725C0 17.2119 0.419794 18.2115 1.13944 18.9511C1.87908 19.6907 2.87858 20.0905 3.91807 20.0905H7.17647C7.35638 20.0905 7.5163 20.0306 7.63624 19.8906C7.75618 19.7707 7.83615 19.5908 7.83615 19.4309V16.1725C7.83615 15.8126 7.97608 15.4728 8.21596 15.2329C8.45584 14.993 8.79567 14.8531 9.1555 14.8531H10.075C10.4349 14.8531 10.7747 14.993 11.0146 15.2329C11.2545 15.4728 11.3944 15.8126 11.3944 16.1725V19.4309C11.3944 19.6108 11.4544 19.7707 11.5943 19.8906C11.7142 20.0106 11.8941 20.0905 12.0541 20.0905H18.1311C18.291 20.0905 18.4509 20.0506 18.5909 19.9906C18.7308 19.9306 18.8707 19.8507 18.9707 19.7307C19.0906 19.6108 19.1706 19.4908 19.2305 19.3509C19.2905 19.211 19.3105 19.051 19.3105 18.8911V13.3938V12.2344C19.3105 11.6347 19.0106 11.075 18.5309 10.7351L10.9746 5.35778Z" fill="black"/>
</svg>
