<svg width="36" height="36" viewBox="0 0 36 36" fill="none" xmlns="http://www.w3.org/2000/svg">
<path d="M18 36C27.9 36 36 27.9 36 18C36 8.1 27.9 0 18 0C8.1 0 0 8.1 0 18C0 27.9 8.1 36 18 36Z" fill="white"/>
<path d="M10.5 16.4C9.59995 17.3 9.59995 18.7 10.5 19.5L17.4 26.5C18.3 27.4 19.6999 27.4 20.5999 26.5C21.4999 25.6 21.4999 24.2 20.5999 23.3L13.6 16.4C12.8 15.5 11.4 15.5 10.5 16.4Z" fill="#F251D0"/>
<path d="M10.5001 19.5999C11.4001 20.4999 12.8001 20.4999 13.6001 19.5999L20.5001 12.6999C21.4001 11.7999 21.4001 10.4 20.5001 9.49995C19.6001 8.59995 18.2001 8.59995 17.3001 9.49995L10.4001 16.4C9.60006 17.3 9.60006 18.6999 10.5001 19.5999Z" fill="#2475EA"/>
</svg>
