<svg width="18" height="17" viewBox="0 0 18 17" fill="none" xmlns="http://www.w3.org/2000/svg">
<path d="M17 8.03042C17 6.81369 16.938 5.35361 16.6898 4.01521C16.6898 3.95437 16.6898 3.89354 16.6277 3.8327C16.5037 3.34601 16.2555 2.85932 15.8832 2.4943C15.511 2.12928 15.0146 1.88593 14.4562 1.76426H14.3942C14.0839 1.70342 14.146 1.64259 13.7737 1.64259C13.4015 1.52091 13.0292 1.52091 13.0292 1.09506C13.0292 0.486692 12.5328 0 11.9124 0H11.5401C10.9197 0 10.4234 0.486692 10.4234 1.09506C10.4234 1.39924 10.1752 1.39924 9.80292 1.39924C9.4927 1.39924 7.32117 1.39924 7.01095 1.39924C6.70073 1.39924 6.39051 1.46008 6.39051 1.09506C6.39051 0.486692 5.89416 0 5.27372 0L5.02555 0C4.40511 0 3.90876 0.486692 3.90876 1.09506C3.90876 1.52091 3.59854 1.58175 3.16423 1.64259C2.85401 1.70342 2.85401 1.70342 2.5438 1.76426H2.48175C1.9854 1.88593 1.48905 2.12928 1.11679 2.4943C0.744526 2.85932 0.49635 3.28517 0.372263 3.8327C0.372263 3.89354 0.372263 3.95437 0.310219 4.01521C0.0620438 5.35361 0 6.75285 0 8.03042C0 8.03042 0 8.09126 0 8.15209C0 9.49049 0.0620438 11.9848 0.310219 13.384C0.310219 13.4449 0.310219 13.5057 0.372263 13.5665C0.49635 14.0532 0.744526 14.5399 1.11679 14.9049C1.48905 15.27 1.9854 15.5133 2.5438 15.635H2.60584C4.03285 15.8783 5.77007 16.0608 8.06569 16.0608C10.3613 16.0608 13.0292 15.9392 14.4562 15.635H14.5182C15.0766 15.5133 15.573 15.27 15.9453 14.9049C16.3175 14.5399 16.5657 14.1141 16.6898 13.5665C16.6898 13.5057 16.6898 13.4449 16.7518 13.384C17 12.0456 17.062 9.49049 17.062 8.15209C17 8.09126 17 8.03042 17 8.03042ZM14.0839 12.4106C14.0219 12.7148 13.7737 13.019 13.4015 13.0798C12.2226 13.2624 9.67883 13.3232 8.00365 13.3232C6.26642 13.3232 4.71533 13.2624 3.5365 13.0798C3.22628 13.019 2.91606 12.7757 2.85401 12.4106C2.72993 11.6198 2.72993 9.12548 2.72993 8.09126C2.72993 7.11787 2.72993 5.77947 2.85401 4.92776C2.91606 4.62357 3.16423 4.31939 3.47445 4.31939C3.59854 4.25856 3.66058 4.25856 3.72263 4.25856C3.84672 4.25856 3.9708 4.31939 3.9708 4.44106C4.09489 4.92776 4.5292 5.29278 5.02555 5.29278H5.39781C6.01825 5.29278 6.5146 4.80608 6.5146 4.19772C6.5146 4.13688 6.57664 4.01521 6.63869 4.01521C7.07299 4.01521 9.92701 4.01521 10.3613 4.01521C10.4234 4.01521 10.4854 4.07605 10.4854 4.19772C10.4854 4.80608 10.9818 5.29278 11.6022 5.29278H11.9745C12.5328 5.29278 12.9672 4.92776 13.0292 4.44106C13.0292 4.31939 13.1533 4.25856 13.2153 4.25856C13.2774 4.25856 13.4015 4.25856 13.4635 4.25856C13.7737 4.31939 14.0839 4.56274 14.0839 4.86692C14.208 5.71863 14.208 7.11787 14.2701 8.03042C14.2701 9.12548 14.208 11.6198 14.0839 12.4106Z" fill="#9AA9BC"/>
<path d="M5.89408 8.5781H5.2116C4.77729 8.5781 4.40503 8.21308 4.40503 7.78722V7.11802C4.40503 6.69217 4.77729 6.32715 5.2116 6.32715H5.89408C6.32839 6.32715 6.70065 6.69217 6.70065 7.11802V7.78722C6.70065 8.21308 6.32839 8.5781 5.89408 8.5781Z" fill="#9AA9BC"/>
<path d="M8.87211 8.5781H8.18963C7.75532 8.5781 7.38306 8.21308 7.38306 7.78722V7.11802C7.38306 6.69217 7.75532 6.32715 8.18963 6.32715H8.87211C9.30641 6.32715 9.67868 6.69217 9.67868 7.11802V7.78722C9.61663 8.21308 9.24437 8.5781 8.87211 8.5781Z" fill="#9AA9BC"/>
<path d="M11.7881 8.5781H11.1056C10.6713 8.5781 10.2991 8.21308 10.2991 7.78722V7.11802C10.2991 6.69217 10.6713 6.32715 11.1056 6.32715H11.7881C12.2224 6.32715 12.5947 6.69217 12.5947 7.11802V7.78722C12.5326 8.21308 12.2224 8.5781 11.7881 8.5781Z" fill="#9AA9BC"/>
<path d="M5.89408 11.5591H5.2116C4.77729 11.5591 4.40503 11.194 4.40503 10.7682V10.099C4.40503 9.67312 4.77729 9.30811 5.2116 9.30811H5.89408C6.32839 9.30811 6.70065 9.67312 6.70065 10.099V10.7682C6.70065 11.194 6.32839 11.5591 5.89408 11.5591Z" fill="#9AA9BC"/>
<path d="M8.87211 11.5591H8.18963C7.75532 11.5591 7.38306 11.194 7.38306 10.7682V10.099C7.38306 9.67312 7.75532 9.30811 8.18963 9.30811H8.87211C9.30641 9.30811 9.67868 9.67312 9.67868 10.099V10.7682C9.61663 11.194 9.24437 11.5591 8.87211 11.5591Z" fill="#9AA9BC"/>
<path d="M11.7881 11.5591H11.1056C10.6713 11.5591 10.2991 11.194 10.2991 10.7682V10.099C10.2991 9.67312 10.6713 9.30811 11.1056 9.30811H11.7881C12.2224 9.30811 12.5947 9.67312 12.5947 10.099V10.7682C12.5326 11.194 12.2224 11.5591 11.7881 11.5591Z" fill="#9AA9BC"/>
</svg>
