<svg width="38" height="38" viewBox="0 0 38 38" fill="none" xmlns="http://www.w3.org/2000/svg">
<circle cx="19" cy="19" r="19" fill="#00BF9F"/>
<path d="M13.1538 8.79365L13.1538 27.0139C13.1538 27.8498 13.7932 28.4999 14.6153 28.4999C15.4374 28.4999 16.0769 27.8498 16.0769 27.0139L16.0769 8.79365C15.9855 7.95776 15.3461 7.30762 14.524 7.30762C13.7932 7.30762 13.1538 7.95776 13.1538 8.79365Z" fill="white"/>
<path d="M14.6154 29.9615C16.4315 29.9615 17.9038 29.1435 17.9038 28.1345C17.9038 27.1256 16.4315 26.3076 14.6154 26.3076C12.7992 26.3076 11.3269 27.1256 11.3269 28.1345C11.3269 29.1435 12.7992 29.9615 14.6154 29.9615Z" fill="white"/>
<path d="M13.8825 9.77917C13.9618 9.45619 14.1999 9.13321 14.5173 9.13321C15.1521 9.13321 16.3424 9.77917 18.2469 9.37545C20.31 9.05247 20.8655 8.56809 22.8493 8.00288C23.8809 7.6799 25.2299 7.84139 26.2615 8.00288C27.055 8.16437 27.6899 8.89107 27.6899 9.77926L27.6898 18.2691C27.6898 19.3188 26.7376 20.1262 25.706 20.0455C24.7538 19.9648 23.6428 19.884 22.77 20.1262C20.7861 20.6915 20.2307 21.2566 18.2468 21.6603C16.7391 21.9833 15.2314 21.551 14.4379 21.3088C14.2424 21.2491 13.7805 19.2388 13.8031 19.561C13.8824 20.6914 13.8825 9.77917 13.8825 9.77917Z" fill="white"/>
</svg>
