<svg width="38" height="38" viewBox="0 0 38 38" fill="none" xmlns="http://www.w3.org/2000/svg">
<circle cx="19" cy="19" r="19" fill="#40B8F4"/>
<path d="M30.1346 13.6436C30.1259 13.5068 30.0826 13.3744 30.0087 13.2589C29.9347 13.1434 29.8327 13.0486 29.7121 12.9835C29.5914 12.9183 29.4561 12.885 29.319 12.8865C29.1819 12.888 29.0474 12.9244 28.9282 12.9922C27.8075 13.6347 26.7315 14.3521 25.7074 15.1395C25.6518 15.1827 25.5858 15.2103 25.5161 15.2197C25.4463 15.2291 25.3753 15.2198 25.3103 15.1928C25.2454 15.1659 25.1887 15.1222 25.1462 15.0662C25.1036 15.0102 25.0766 14.9439 25.068 14.8741C25.068 14.4157 24.9473 13.9452 24.8749 13.4868C24.7501 12.7389 24.3866 12.0515 23.8386 11.5274C23.2906 11.0033 22.5876 10.6708 21.8349 10.5795C18.5076 10.0848 15.1254 10.0848 11.7981 10.5795C11.0454 10.6708 10.3425 11.0033 9.7945 11.5274C9.24651 12.0515 8.88286 12.7389 8.75809 13.4868C8.14281 17.1364 8.14281 20.8633 8.75809 24.5128C8.88286 25.2608 9.24651 25.9482 9.7945 26.4722C10.3425 26.9963 11.0454 27.3289 11.7981 27.4202C15.1263 27.9026 18.5067 27.9026 21.8349 27.4202C22.5876 27.3289 23.2906 26.9963 23.8386 26.4722C24.3866 25.9482 24.7501 25.2608 24.8749 24.5128C24.9473 24.0424 25.0197 23.584 25.068 23.1135C25.0766 23.0437 25.1036 22.9774 25.1462 22.9214C25.1887 22.8654 25.2454 22.8217 25.3103 22.7947C25.3753 22.7678 25.4463 22.7585 25.5161 22.7679C25.5858 22.7772 25.6518 22.8049 25.7074 22.8481C26.7313 23.6394 27.8073 24.3609 28.9282 25.0075C29.0488 25.0722 29.1837 25.1058 29.3205 25.1051C29.4574 25.1044 29.5919 25.0695 29.7118 25.0036C29.8317 24.9376 29.9332 24.8427 30.007 24.7275C30.0809 24.6123 30.1247 24.4804 30.1346 24.3439C30.3517 20.7805 30.3517 17.2071 30.1346 13.6436ZM20.0133 19.3376C18.5493 20.657 16.9287 21.7915 15.1879 22.7154C15.1071 22.7587 15.0174 22.7824 14.9258 22.7842C14.8341 22.7861 14.7433 22.7662 14.6608 22.7261C14.5784 22.6861 14.5068 22.6271 14.4516 22.5539C14.3964 22.4807 14.3593 22.3955 14.3435 22.3052C14.1987 20.1 14.1987 17.8876 14.3435 15.6824C14.3593 15.5921 14.3964 15.5069 14.4516 15.4337C14.5068 15.3605 14.5784 15.3015 14.6608 15.2614C14.7433 15.2214 14.8341 15.2015 14.9258 15.2034C15.0174 15.2052 15.1071 15.2288 15.1879 15.2722C16.9287 16.1961 18.5493 17.3305 20.0133 18.65C20.0589 18.6949 20.0952 18.7484 20.1199 18.8074C20.1446 18.8664 20.1573 18.9298 20.1573 18.9938C20.1573 19.0578 20.1446 19.1211 20.1199 19.1801C20.0952 19.2392 20.0589 19.2927 20.0133 19.3376Z" fill="white"/>
</svg>
