<svg width="48" height="48" viewBox="0 0 48 48" fill="none" xmlns="http://www.w3.org/2000/svg">
<g clip-path="url(#clip0_691_7129)">
<path d="M40.94 14.5789C40.9262 14.3601 40.8569 14.1485 40.7387 13.9639C40.6206 13.7793 40.4575 13.6278 40.2646 13.5236C40.0718 13.4195 39.8555 13.3661 39.6364 13.3686C39.4172 13.371 39.2021 13.4291 39.0116 13.5375C37.2201 14.5647 35.5001 15.7115 33.8629 16.9701C33.7741 17.0391 33.6686 17.0833 33.5571 17.0983C33.4457 17.1133 33.3321 17.0985 33.2283 17.0554C33.1244 17.0122 33.0339 16.9424 32.9658 16.8529C32.8977 16.7634 32.8546 16.6574 32.8408 16.5458C32.8408 15.813 32.6479 15.061 32.5322 14.3282C32.3327 13.1326 31.7516 12.0337 30.8757 11.196C29.9997 10.3582 28.8758 9.82662 27.6726 9.68069C22.3537 8.88996 16.9472 8.88996 11.6283 9.68069C10.425 9.82662 9.30141 10.3582 8.42543 11.196C7.54944 12.0337 6.96812 13.1326 6.76867 14.3282C5.78512 20.1622 5.78512 26.1198 6.76867 31.9538C6.96812 33.1494 7.54944 34.2483 8.42543 35.086C9.30141 35.9238 10.425 36.4554 11.6283 36.6013C16.9486 37.3725 22.3522 37.3725 27.6726 36.6013C28.8758 36.4554 29.9997 35.9238 30.8757 35.086C31.7516 34.2483 32.3327 33.1494 32.5322 31.9538C32.6479 31.2018 32.7637 30.469 32.8408 29.7169C32.8546 29.6053 32.8977 29.4993 32.9658 29.4098C33.0339 29.3203 33.1244 29.2505 33.2283 29.2074C33.3321 29.1642 33.4457 29.1494 33.5571 29.1644C33.6686 29.1794 33.7741 29.2236 33.8629 29.2926C35.4997 30.5576 37.2197 31.7109 39.0116 32.7445C39.2043 32.848 39.42 32.9017 39.6387 32.9006C39.8575 32.8995 40.0725 32.8437 40.2642 32.7383C40.4559 32.6328 40.6181 32.4812 40.7362 32.297C40.8542 32.1128 40.9242 31.902 40.94 31.6838C41.2872 25.9875 41.2872 20.2752 40.94 14.5789ZM24.7606 23.681C22.4205 25.7902 19.8298 27.6036 17.047 29.0805C16.9179 29.1498 16.7745 29.1876 16.628 29.1906C16.4815 29.1936 16.3363 29.1617 16.2045 29.0977C16.0727 29.0337 15.9582 28.9393 15.87 28.8224C15.7818 28.7054 15.7225 28.5691 15.6972 28.4248C15.4658 24.8996 15.4658 21.3631 15.6972 17.8379C15.7225 17.6936 15.7818 17.5573 15.87 17.4403C15.9582 17.3234 16.0727 17.229 16.2045 17.165C16.3363 17.101 16.4815 17.0692 16.628 17.0722C16.7745 17.0752 16.9179 17.1129 17.047 17.1822C19.8298 18.6591 22.4205 20.4726 24.7606 22.5818C24.8335 22.6535 24.8916 22.7391 24.9311 22.8335C24.9706 22.9278 24.9909 23.0291 24.9909 23.1314C24.9909 23.2336 24.9706 23.3349 24.9311 23.4293C24.8916 23.5236 24.8335 23.6092 24.7606 23.681Z" fill="#00B7FF"/>
</g>
<defs>
<clipPath id="clip0_691_7129">
<rect width="46.2818" height="46.2818" fill="white"/>
</clipPath>
</defs>
</svg>
