<svg width="48" height="48" viewBox="0 0 48 48" fill="none" xmlns="http://www.w3.org/2000/svg">
<g clip-path="url(#clip0_691_7125)">
<path d="M38.255 14.6075C36.4498 11.6977 33.9691 9.26657 31.0235 7.52054C30.6004 7.25754 30.1114 7.1197 29.6133 7.12286C28.9317 7.14954 28.2856 7.43378 27.8054 7.91827L12.7277 23.0503C12.4244 23.3557 12.1955 23.7268 12.0588 24.135L11.1549 26.9191C10.4317 29.2152 9.70857 31.475 8.9131 33.7348C8.74584 34.1826 8.70967 34.6687 8.80893 35.1362C8.9082 35.6037 9.13868 36.0333 9.47343 36.3744C9.95589 36.8485 10.6049 37.1146 11.2813 37.1156C11.5771 37.122 11.8714 37.073 12.1491 36.971C15.2948 35.8682 18.5489 34.7835 21.8031 33.7168C22.1983 33.5752 22.5568 33.3466 22.8518 33.0479L37.9476 17.8978C38.3627 17.4646 38.6192 16.9036 38.675 16.3062C38.7308 15.7088 38.5827 15.1101 38.255 14.6075ZM33.6086 14.7159L34.1873 15.4753C34.2754 15.5821 34.3237 15.7164 34.3237 15.8549C34.3237 15.9935 34.2754 16.1277 34.1873 16.2345L20.6822 29.7756C20.5346 29.9316 20.3471 30.0442 20.14 30.101L17.5365 30.9326C17.2257 31.0331 16.8935 31.0475 16.5752 30.9743C16.2569 30.9011 15.9643 30.743 15.7286 30.5168L15.2226 30.0106C14.9995 29.7731 14.8446 29.4797 14.7746 29.1615C14.7046 28.8432 14.7219 28.5119 14.8247 28.2027L15.6384 25.7259C15.6888 25.5546 15.7822 25.3991 15.9096 25.274L29.4506 11.5883C29.555 11.4877 29.6943 11.4316 29.8393 11.4316C29.9842 11.4316 30.1235 11.4877 30.2279 11.5883L30.8065 12.0945C31.0416 12.2934 33.3917 14.4628 33.6086 14.7159Z" fill="#00B7FF"/>
</g>
<path d="M21.3332 30.3722L15.0056 24.9485L29.4687 9.58154L36.7002 15.0052L21.3332 30.3722Z" fill="#00B7FF"/>
<defs>
<clipPath id="clip0_691_7125">
<rect width="43.3892" height="43.3892" fill="white" transform="translate(1.44629 1.44604)"/>
</clipPath>
</defs>
</svg>
