<svg width="48" height="48" viewBox="0 0 48 48" fill="none" xmlns="http://www.w3.org/2000/svg">
<path d="M23.864 40.496C33.0499 40.496 40.4965 33.0495 40.4965 23.8637C40.4965 14.678 33.0499 7.23145 23.864 7.23145C14.6781 7.23145 7.23145 14.678 7.23145 23.8637C7.23145 33.0495 14.6781 40.496 23.864 40.496Z" fill="#00B7FF"/>
<g clip-path="url(#clip0_691_7131)">
<path d="M17.2985 20.2749C18.4225 20.2749 19.3338 19.3637 19.3338 18.2396C19.3338 17.1156 18.4225 16.2043 17.2985 16.2043C16.1744 16.2043 15.2632 17.1156 15.2632 18.2396C15.2632 19.3637 16.1744 20.2749 17.2985 20.2749Z" fill="white"/>
<path d="M30.4289 20.2749C31.5529 20.2749 32.4641 19.3637 32.4641 18.2396C32.4641 17.1156 31.5529 16.2043 30.4289 16.2043C29.3048 16.2043 28.3936 17.1156 28.3936 18.2396C28.3936 19.3637 29.3048 20.2749 30.4289 20.2749Z" fill="white"/>
<path d="M23.8638 34.0228C25.9215 34.0233 27.9181 33.3243 29.5262 32.0407C31.1344 30.7571 32.2585 28.965 32.7141 26.9585C32.7694 26.7178 32.7697 26.4677 32.7149 26.2268C32.6601 25.986 32.5518 25.7606 32.3978 25.5675C32.2439 25.3744 32.0482 25.2185 31.8256 25.1115C31.603 25.0045 31.3591 24.9491 31.1122 24.9495H16.6681C16.4211 24.9491 16.1773 25.0045 15.9547 25.1115C15.7321 25.2185 15.5364 25.3744 15.3824 25.5675C15.2284 25.7606 15.12 25.986 15.0652 26.2268C15.0105 26.4677 15.0109 26.7178 15.0662 26.9585C15.5176 28.9574 16.6332 30.7442 18.2311 32.0272C19.829 33.3103 21.8146 34.0138 23.8638 34.0228Z" fill="white"/>
</g>
<defs>
<clipPath id="clip0_691_7131">
<rect width="31.5143" height="31.5138" fill="white" transform="translate(8.10645 8.98242)"/>
</clipPath>
</defs>
</svg>
