<svg width="24" height="21" viewBox="0 0 24 21" fill="none" xmlns="http://www.w3.org/2000/svg">
<path d="M19 20.5H5C2.3 20.5 0 18.3 0 15.5V7.30005C0 4.60005 2.2 2.30005 5 2.30005H19C21.7 2.30005 24 4.50005 24 7.30005V15.5C24 18.3 21.7 20.5 19 20.5Z" fill="#FFBC00"/>
<path d="M14.2001 4.89999H9.80011C8.80011 4.89999 8.1001 4.1 8.1001 3.2V1.7C8.1001 0.699997 8.90011 0 9.80011 0H14.2001C15.2001 0 15.9001 0.799997 15.9001 1.7V3.2C15.9001 4.1 15.2001 4.89999 14.2001 4.89999Z" fill="#F251D0"/>
<path d="M7.3 17.6H6C5.2 17.6 4.5 17 4.5 16.1V15.2C4.5 14.4 5.1 13.7 6 13.7H7.3C8.1 13.7 8.8 14.3 8.8 15.2V16.1C8.7 16.9 8 17.6 7.3 17.6Z" fill="#2475EA"/>
<path d="M12.6999 17.6H11.3999C10.5999 17.6 9.8999 17 9.8999 16.1V12.5C9.8999 11.7 10.4999 11 11.3999 11H12.6999C13.4999 11 14.1999 11.6 14.1999 12.5V16.2C14.0999 16.9 13.4999 17.6 12.6999 17.6Z" fill="#2475EA"/>
<path d="M18.0999 17.6H16.7C15.9 17.6 15.2 17 15.2 16.1V9.69995C15.2 8.89995 15.8 8.19995 16.7 8.19995H18C18.8 8.19995 19.5 8.79995 19.5 9.69995V16.1C19.5 16.9 18.8999 17.6 18.0999 17.6Z" fill="#2475EA"/>
</svg>
