<svg width="27" height="30" viewBox="0 0 27 30" fill="none" xmlns="http://www.w3.org/2000/svg">
<path d="M15.7107 1.7L16.9107 5.3C17.3107 6.5 18.644 7.30001 19.844 7.03334L23.5774 6.23333C25.9774 5.7 27.5774 8.63334 25.9774 10.3667L23.4441 13.1667C22.5107 14.1 22.5107 15.5667 23.4441 16.5L25.9774 19.3C27.5774 21.1667 25.9774 23.9667 23.5774 23.4333L19.844 22.6333C18.644 22.3667 17.3107 23.0333 16.9107 24.3667L15.7107 27.9667C14.9107 30.3667 11.7107 30.3667 10.9107 27.9667L9.7107 24.3667C9.3107 23.1667 7.97739 22.3667 6.77739 22.6333L3.04404 23.4333C0.644036 23.9667 -0.955948 21.0333 0.644052 19.3L3.17738 16.5C4.11071 15.5667 4.11071 14.1 3.17738 13.1667L0.644052 10.3667C-0.955948 8.50001 0.644036 5.7 3.04404 6.23333L6.77739 7.03334C7.97739 7.30001 9.3107 6.63333 9.7107 5.3L10.9107 1.7C11.7107 -0.566667 14.9107 -0.566667 15.7107 1.7Z" fill="#FFB000"/>
<path d="M13.3108 18.1001C11.5775 18.1001 10.2441 16.7668 10.2441 15.0335C10.2441 13.3001 11.5775 11.9668 13.3108 11.9668C15.0441 11.9668 16.3774 13.3001 16.3774 15.0335C16.3774 16.6335 15.0441 18.1001 13.3108 18.1001Z" fill="#F251D0"/>
<path d="M13.3106 11.8332C15.044 11.8332 16.3773 13.1665 16.3773 14.8998C16.3773 16.6332 15.044 17.9665 13.3106 17.9665C11.5773 17.9665 10.244 16.6332 10.244 14.8998C10.244 13.1665 11.5773 11.8332 13.3106 11.8332ZM13.3106 9.69983C10.3773 9.69983 7.97729 12.0998 7.97729 15.0332C7.97729 17.9665 10.3773 20.3665 13.3106 20.3665C16.244 20.3665 18.644 17.9665 18.644 15.0332C18.644 11.9665 16.244 9.69983 13.3106 9.69983Z" fill="#2475EA"/>
</svg>
