<svg width="38" height="38" viewBox="0 0 38 38" fill="none" xmlns="http://www.w3.org/2000/svg">
<circle cx="19" cy="19" r="19" fill="#FFBC00"/>
<g clip-path="url(#clip0_8447_7085)">
<path d="M29.0852 13.3058C27.8807 11.3642 26.2254 9.742 24.2598 8.57692C23.9775 8.40143 23.6513 8.30946 23.3188 8.31156C22.864 8.32937 22.4329 8.51903 22.1125 8.84232L12.0516 18.9395C11.8492 19.1433 11.6965 19.3909 11.6052 19.6633L11.0021 21.5211C10.5195 23.0531 10.037 24.561 9.50621 26.069C9.3946 26.3677 9.37046 26.6921 9.4367 27.0041C9.50294 27.316 9.65673 27.6027 9.8801 27.8303C10.202 28.1466 10.6351 28.3242 11.0864 28.3249C11.2838 28.3292 11.4802 28.2964 11.6655 28.2284C13.7645 27.4925 15.9359 26.7687 18.1073 26.0569C18.3711 25.9625 18.6103 25.8099 18.8071 25.6106L28.8801 15.5014C29.1571 15.2123 29.3282 14.838 29.3655 14.4394C29.4027 14.0407 29.3039 13.6412 29.0852 13.3058ZM25.9848 13.3782L26.3709 13.8849C26.4298 13.9562 26.462 14.0458 26.462 14.1382C26.462 14.2307 26.4298 14.3202 26.3709 14.3915L17.3594 23.4271C17.2609 23.5312 17.1358 23.6063 16.9976 23.6442L15.2604 24.1992C15.053 24.2662 14.8313 24.2758 14.6189 24.227C14.4065 24.1781 14.2113 24.0726 14.054 23.9217L13.7164 23.5839C13.5675 23.4254 13.4641 23.2296 13.4174 23.0173C13.3707 22.8049 13.3823 22.5839 13.4508 22.3776L13.9938 20.7249C14.0274 20.6106 14.0898 20.5068 14.1748 20.4233L23.2103 11.2912C23.28 11.2241 23.3729 11.1867 23.4696 11.1867C23.5664 11.1867 23.6593 11.2241 23.729 11.2912L24.1151 11.629C24.2719 11.7617 25.8401 13.2093 25.9848 13.3782Z" fill="white"/>
</g>
<defs>
<clipPath id="clip0_8447_7085">
<rect width="28.9524" height="28.9524" fill="white" transform="translate(4.52393 4.52344)"/>
</clipPath>
</defs>
</svg>
