<svg width="28" height="28" viewBox="0 0 28 28" fill="none" xmlns="http://www.w3.org/2000/svg">
<path d="M18.2472 13.9334L25.9114 6.25415C27.0063 5.15712 27.0063 3.27647 25.9114 2.02272C24.8165 0.925693 22.9396 0.925693 21.6883 2.02272L14.024 9.70193L6.35975 2.02272C5.26486 0.925693 3.38791 0.925693 2.1366 2.02272C1.04171 3.11976 1.04171 5.0004 2.1366 6.25415L9.80085 13.9334L2.1366 21.6126C1.04171 22.7096 1.04171 24.5902 2.1366 25.844C3.23149 26.941 5.10845 26.941 6.35975 25.844L14.024 18.1648L21.6883 25.844C22.7831 26.941 24.6601 26.941 25.9114 25.844C27.0063 24.747 27.0063 22.8663 25.9114 21.6126L18.2472 13.9334Z" fill="white"/>
</svg>
