<svg version="1.1" id="Layer_1" xmlns="http://www.w3.org/2000/svg" xmlns:xlink="http://www.w3.org/1999/xlink" x="0px" y="0px"
	 viewBox="0 0 13.6 14.4" style="enable-background:new 0 0 13.6 14.4;" xml:space="preserve" fill="#ffffff">
<g>
	<path d="M13.5,2.7L13.5,2.7l-2.6-2.6c-0.2-0.2-0.4-0.2-0.6,0L8.9,1.5l0.7,0.7L12,4.6l1.1-1.1l0.3-0.3C13.6,3.2,13.6,3,13.5,2.7z"/>
	<path d="M11.8,11.6L11.8,11.6L11.8,11.6z"/>
	<polygon points="5.8,4.7 2.5,0.1 1.7,0.6 5.1,5.4 7.7,9.1 11.5,14.4 12.3,13.8 8.4,8.4 	"/>
	<polygon points="11.5,5.3 8.5,2.3 8.3,2.2 8.2,2.3 6.5,4 9.1,7.7 	"/>
	<path d="M2.8,7.7H3c0.2,0,0.4,0.2,0.4,0.4v0.4h0.4c0.2,0,0.4,0.2,0.4,0.4v0.4h0.4C4.8,9.3,5,9.5,5,9.7v0.4h0.4
		c0.2,0,0.4,0.2,0.4,0.4v0.2l1.1-1.1L4.3,5.9L2.8,7.7z"/>
	<path d="M5.1,11.1H4.7c-0.2,0-0.4-0.2-0.4-0.4v-0.4H3.8c-0.2,0-0.4-0.2-0.4-0.4V9.6H3c-0.2,0-0.4-0.2-0.4-0.4V8.8H2.1
		C2,8.8,2,8.8,2,8.8L1.8,9L1.7,9.1l-0.6,1.6L0,13.4c-0.1,0.2,0,0.5,0.2,0.6c0.1,0,0.2,0,0.3,0l3.7-1.5l0.5-0.2
		c0.1,0,0.1-0.1,0.1-0.1L5,11.9l0,0v-0.1L5.1,11.1L5.1,11.1z"/>
</g>
</svg>
