<svg width="43" height="43" viewBox="0 0 43 43" fill="none" xmlns="http://www.w3.org/2000/svg">
<path d="M39.8176 16.1933L20.2524 35.9151C19.4698 36.6977 18.5307 37.1672 17.5916 37.4803L3.66112 41.8629C1.93938 42.489 0.374226 40.1568 1.00031 38.435L5.38286 25.2716C5.6959 24.3324 6.32199 23.3933 6.94807 22.6107L26.5133 2.88896C29.1742 0.228093 33.4003 0.228093 36.0611 2.88896L39.8176 6.64549C42.4785 9.30636 42.4785 13.689 39.8176 16.1933Z" fill="#FFC720"/>
<path d="M17.5913 37.496C17.9043 37.3395 18.3739 37.183 18.687 37.0264L5.85217 24.1917C5.69565 24.5047 5.53913 24.8177 5.38261 25.2873L2.40869 34.209L7.26083 40.783L17.5913 37.496Z" fill="#FF70C8"/>
<path d="M8.82622 40.3129L2.56535 34.3651L2.5654 33.739L1.78278 36.0868L0.843648 38.9825C0.217561 40.7042 2.09578 42.6608 3.81752 42.0347L8.82622 40.3129Z" fill="#6D7075"/>
<path d="M39.8175 6.66111L36.0609 2.90459C33.4001 0.243718 29.174 0.243718 26.5131 2.90459L24.7914 4.62633L38.0958 17.9307L40.2871 15.7394C43.1045 13.2351 42.4783 9.16546 39.8175 6.66111Z" fill="#3984F7"/>
</svg>
