<svg width="40" height="40" viewBox="0 0 40 40" fill="none" xmlns="http://www.w3.org/2000/svg">
<path d="M38.092 12.8945L16.4126 34.4548C15.817 35.0504 14.9832 35.5268 14.1493 35.8842L2.47581 39.5768C1.0464 40.0533 -0.38301 38.6239 0.0934609 37.1945L3.90523 25.6401C4.14346 24.8062 4.61993 24.0915 5.33464 23.3768L27.014 1.69743C29.2773 -0.565809 32.8508 -0.565809 34.9949 1.69743L38.092 4.79448C40.2361 7.17684 40.2361 10.7504 38.092 12.8945Z" fill="#FFBC00"/>
<path d="M14.1493 35.8842C14.5067 35.7651 14.7449 35.646 15.1022 35.5269L4.38165 24.8063C4.26253 25.0445 4.14342 25.4019 4.0243 25.7592L1.52283 33.2636L6.88312 38.2666L14.1493 35.8842Z" fill="#F266C8"/>
<path d="M6.76405 38.2666L1.40376 33.2636L1.64199 32.4298L0.0934608 37.3136C-0.38301 38.743 1.0464 40.1724 2.47581 39.696L7.35964 38.1475L6.76405 38.2666Z" fill="#50595E"/>
<path d="M38.092 4.91363L34.995 1.81657C32.7318 -0.446668 29.1582 -0.446668 27.0141 1.81657L25.4656 3.24598L36.5435 14.3239L37.9729 12.8945C40.2362 10.7504 40.2362 7.17686 38.092 4.91363Z" fill="#498AEA"/>
</svg>
