<svg version="1.1" id="Layer_1" xmlns="http://www.w3.org/2000/svg" xmlns:xlink="http://www.w3.org/1999/xlink" x="0px" y="0px"
	 viewBox="0 0 13.6 14.4" style="enable-background:new 0 0 13.6 14.4;" xml:space="preserve" fill="#ffffff">
<g>
	<path d="M13.5,3L13.5,3l-2.6-2.6c-0.2-0.2-0.4-0.2-0.6,0L8.9,1.8l0.7,0.7L12,4.9l1.1-1.1l0.3-0.3
		C13.6,3.5,13.6,3.2,13.5,3z"/>
	<path d="M11.8,11.8L11.8,11.8L11.8,11.8z"/>
	<polygon points="11.5,5.6 8.5,2.6 8.3,2.5 8.2,2.6 6.5,4.3 9.1,8 	"/>
	<path d="M2.8,8H3c0.2,0,0.4,0.2,0.4,0.4v0.4h0.4C4,8.8,4.2,9,4.2,9.2v0.4h0.4C4.8,9.6,5,9.8,5,10v0.4h0.4
		c0.2,0,0.4,0.2,0.4,0.4V11l3.3-3L6.5,4.3L2.8,8z"/>
	<path d="M5.1,11.4H4.7c-0.2,0-0.4-0.2-0.4-0.4v-0.4H3.8c-0.2,0-0.4-0.2-0.4-0.4V9.8H3c-0.2,0-0.4-0.2-0.4-0.4V9H2.1
		C2,9,2,9,2,9L1.8,9.2L1.7,9.3l-0.6,1.6L0,13.6c-0.1,0.2,0,0.5,0.2,0.6c0.1,0,0.2,0,0.3,0l3.7-1.5l0.5-0.2c0.1,0,0.1-0.1,0.1-0.1
		L5,12.2l0,0v-0.1L5.1,11.4L5.1,11.4z"/>
</g>
</svg>
