<svg width="28" height="19" viewBox="0 0 28 19" fill="none" xmlns="http://www.w3.org/2000/svg">
<path d="M13.4528 0H0.156738V9.30002H0.313148C2.03382 9.30002 3.44166 9.90004 4.53663 11.1C7.03942 13.65 9.38578 18 13.4528 18C17.5199 18 19.8662 13.65 22.369 11.1C23.464 10.05 25.0282 9.30002 26.5925 9.30002H27.6874V0H13.4528Z" fill="white"/>
<path d="M0 9.1499H0.156434C1.8771 9.1499 3.28492 9.74992 4.37989 10.9499C6.88268 13.4999 9.22905 17.8499 13.2961 17.8499C17.3631 17.8499 19.7095 13.4999 22.2123 10.9499C23.3072 9.89992 24.8715 9.1499 26.4358 9.1499H28" fill="white"/>
<path d="M0 9.1499H0.156434C1.8771 9.1499 3.28492 9.74992 4.37989 10.9499C6.88268 13.4999 9.22905 17.8499 13.2961 17.8499C17.3631 17.8499 19.7095 13.4999 22.2123 10.9499C23.3072 9.89992 24.8715 9.1499 26.4358 9.1499H28" stroke="#D8D8D8" stroke-width="1.57836" stroke-miterlimit="10"/>
</svg>
