<svg xmlns="http://www.w3.org/2000/svg" width="200" height="200" fill="currentColor" viewBox="0 0 200 200">
  <path d="M178.915 85.653l-1.244-1.037v-.104a23.435 23.435 0 00-30.693 2.177l-39.404 40.13c-2.488 2.489-4.148 5.496-5.185 8.814l-6.117 20.22c-5.911.83-11.096.83-16.591 0a.413.413 0 01-.311-.622l.31-.726c.726-1.555 1.97-4.148 2.282-6.636a11.408 11.408 0 00-.519-5.6 10.368 10.368 0 00-4.355-5.288c-3.318-2.074-7.466-2.281-11.095-2.074a60.56 60.56 0 00-24.575 6.74c-6.014 2.8-11.925 5.6-18.354 5.6a20.745 20.745 0 01-6.636-1.037c-1.245-.415-2.696.518-2.385 1.866.622 2.385 1.659 5.6 4.147 8.088a11.2 11.2 0 0011.407 2.904c15.035-4.459 25.093-6.844 31.626-7.881 1.348-.311 2.385 1.037 1.97 2.385-.622 2.074-1.555 6.014.311 10.058 2.074 4.252 6.222 6.014 9.851 6.74a71.139 71.139 0 0036.189-1.555l1.245-.311a143.01 143.01 0 006.221-2.074l14.517-4.666c3.422-1.037 6.637-3.111 9.125-5.6l39.404-40.026a20.726 20.726 0 006.134-14.651 20.73 20.73 0 00-6.03-14.694l-1.141-1.14h-.104zm-60.868 54.231a5.71 5.71 0 011.452-2.385l39.403-40.129a6.533 6.533 0 018.918-.311c2.281 2.074 2.592 5.185.933 7.673l-.622.726-39.403 39.922a6.21 6.21 0 01-2.489 1.555l-11.406 3.733 3.214-10.784z"/>
  <path d="M71.677 116.14s-7.346 0-7.346-7.345 7.346-29.38 36.726-29.38 36.725 22.035 36.725 29.38c0 7.345-7.345 7.345-7.345 7.345h-58.76zm29.38-44.07a22.036 22.036 0 100-44.072 22.036 22.036 0 000 44.072z"/>
  <path fill-rule="evenodd" d="M58.574 116.142a16.438 16.438 0 01-1.587-7.345c0-9.952 4.995-20.198 14.22-27.323a46.458 46.458 0 00-14.22-2.057c-29.38 0-36.725 22.035-36.725 29.38 0 7.345 7.345 7.345 7.345 7.345h30.967z" clip-rule="evenodd"/>
  <path d="M53.315 72.07a18.363 18.363 0 100-36.725 18.363 18.363 0 000 36.725z"/>
</svg>
