<svg width="110" height="144" viewBox="0 0 110 144" fill="none" xmlns="http://www.w3.org/2000/svg">
<path d="M23.049 99.0421C20.6669 104.3 19.4865 108.421 18.8212 114.129C18.5637 116.361 20.4093 117.498 23.2422 118.915C26.075 120.353 30.5174 118.936 31.2042 117.777C33.758 113.335 32.4704 112.283 35.0242 108.077C31.0325 105.073 27.0407 102.068 23.049 99.0421Z" fill="#F9D1AF"/>
<path d="M25.9248 91.3162C23.8431 93.7842 20.2591 100.888 18.6281 105.437C18.5208 105.738 22.9203 108.678 27.0193 110.137C31.2042 111.618 35.1101 111.64 35.1101 111.64C37.9858 106.661 40.8831 101.682 43.7588 96.7029C42.8575 89.492 39.6812 83.9122 35.0028 85.5003C30.775 86.9382 27.985 88.8482 25.9248 91.3162Z" fill="#49B6EC"/>
<path d="M21.7614 101.381C22.9417 101.789 24.1006 102.218 25.2595 102.669C26.4184 103.12 27.5558 103.613 28.7147 104.085C29.8521 104.579 30.9896 105.073 32.127 105.609C33.2644 106.146 34.3804 106.682 35.4963 107.283C35.668 107.369 35.7324 107.562 35.668 107.712C35.6037 107.841 35.4534 107.884 35.3032 107.841C34.1229 107.433 32.9854 106.983 31.8265 106.511L28.3928 105.073C27.2554 104.579 26.1179 104.085 24.9805 103.57C23.8431 103.055 22.7271 102.519 21.6111 101.939C21.4394 101.854 21.3536 101.66 21.418 101.51C21.4394 101.381 21.6111 101.338 21.7614 101.381Z" fill="#349AE3"/>
<path d="M40.6685 81.2081C40.3895 82.6889 33.8868 85.8866 33.6078 87.4103C32.0841 95.9518 29.2942 104.558 27.8992 111.296C26.5907 117.617 24.9045 129.377 24.6651 136.655C24.6378 137.487 25.1455 138.236 25.9305 138.511C32.0287 140.644 44.3411 143.617 59.1892 142.222C71.8264 141.04 79.6417 137.634 84.3967 134.237C85.0055 133.802 85.2855 133.047 85.1386 132.313C82.5338 119.307 76.6059 100.509 72.1516 88.9984C71.1 86.2729 68.5891 84.1268 68.5891 84.1268C68.5891 84.1268 66.3572 83.483 65.6919 81.7446C60.7559 81.015 61.8504 78.4397 54.661 78.9547C46.5058 79.5127 45.8405 79.5127 40.6685 81.2081Z" fill="#299EE6"/>
<path d="M81.2081 100.544C82.7747 106.103 83.5903 109.794 83.1181 116.039C82.9464 118.293 79.3839 124.666 74.963 125.031C71.8082 125.289 67.4087 120.353 66.9151 119.087C65.0695 114.322 68.1813 109.751 66.2713 105.201C70.6708 102.819 76.8086 102.905 81.2081 100.544Z" fill="#F9D1AF"/>
<path d="M78.504 91.4879C80.178 94.2349 82.6674 101.789 83.5903 106.532C83.6546 106.832 78.8689 109.086 74.5767 109.901C70.2201 110.738 66.3357 110.159 66.3357 110.159C64.2325 104.794 61.1636 98.8061 61.6357 92.239C63.6101 85.2428 65.9708 82.0665 70.3703 84.3414C74.3621 86.4231 76.8301 88.7409 78.504 91.4879Z" fill="#49B6EC"/>
<path d="M73.1817 86.0154C72.3447 85.4359 71.4219 84.8994 70.3918 84.3629C66.0138 82.088 63.6316 85.2642 61.6572 92.2605C61.5713 93.3121 61.5928 94.3422 61.6786 95.3509C63.3526 94.986 67.0439 93.0975 69.8767 90.4792C71.4648 88.9984 73.1817 86.0154 73.1817 86.0154Z" fill="#349AE3"/>
<path d="M82.1309 103.034C80.9076 103.248 79.7058 103.506 78.4826 103.785C77.2807 104.064 76.0575 104.364 74.8557 104.665C73.6538 104.987 72.452 105.309 71.2502 105.674C70.0484 106.038 68.8681 106.403 67.6662 106.832C67.4946 106.897 67.3873 107.069 67.4302 107.219C67.4731 107.348 67.6233 107.433 67.7735 107.39C68.9968 107.176 70.1986 106.897 71.4005 106.596L75.0059 105.695C76.2077 105.373 77.4095 105.073 78.6113 104.729C79.899 104.364 80.0277 104.364 82.1953 103.635C82.367 103.57 82.4958 103.399 82.4528 103.248C82.4314 103.077 82.2811 103.012 82.1309 103.034Z" fill="#349AE3"/>
<path d="M66.0352 83.0538C66.0352 84.6848 63.975 88.7409 55.4335 88.7409C54.103 88.7409 46.1195 88.2688 44.8962 88.2044C38.2219 87.8825 38.3077 84.4058 38.3077 83.0323C38.3077 81.4013 45.2396 80.0707 53.7811 80.0707C62.3225 80.0707 66.0352 81.4227 66.0352 83.0538Z" fill="#3186C9"/>
<path d="M64.5759 86.2729C64.5759 87.7322 62.2796 87.8181 56.292 88.5478C55.4335 88.6551 54.0171 88.5692 52.9441 89.3847C51.4633 90.5436 50.4331 92.6682 50.4331 92.6682C50.4331 92.6682 49.3386 90.6724 47.6861 89.3847C46.5916 88.5477 44.9391 88.3117 44.2953 88.1185C44.2953 88.1185 43.8232 84.3629 43.8232 82.9465C43.8232 80.9721 44.6387 81.1652 52.7295 81.1652C57.086 81.1652 58.7814 80.0922 61.4641 80.8218C63.8248 81.4442 64.5759 85.3715 64.5759 86.2729Z" fill="#DE9568"/>
<path d="M51.4847 89.0843C51.4847 89.0843 50.4975 91.6381 50.3902 92.0888C50.2829 92.5395 50.3688 93.5696 50.7121 93.076C50.9697 92.7112 51.4847 91.3591 51.9998 90.5436C52.2788 90.0929 52.6651 89.9427 52.7509 89.9642C53.6737 90.2432 54.7682 93.0116 54.8326 95.265C54.8326 95.6513 55.176 95.9947 55.5623 95.9303C59.5326 95.3509 63.3312 93.8701 65.3485 92.6682C67.5804 91.3591 70.2201 88.4834 71.5292 86.4875C71.7224 86.1871 72.2803 85.5218 71.8511 85.1569C70.4132 83.9122 68.353 83.1611 67.4302 82.6675C67.3443 82.6245 66.958 82.3885 66.5288 82.1739L65.7777 82.4743C65.9065 82.7748 66.0352 83.0538 65.7133 83.3113C63.975 84.6419 62.58 85.0067 60.1764 85.8651C56.4207 87.1957 55.2404 87.303 52.708 88.0112C52.15 88.1615 51.6993 88.5478 51.4847 89.0843Z" fill="#49B6EC"/>
<path d="M50.4546 91.96C50.7765 92.4536 50.7765 93.4838 50.4117 93.1404C50.1971 92.9472 48.3944 90.608 48.1798 90.4363C47.7291 90.1144 47.5359 90.5007 47.4072 90.8011C46.8277 92.3034 46.5273 93.9988 46.3556 95.2865C46.2912 95.7372 45.9049 96.0591 45.4757 96.0376C39.0803 95.6942 34.4877 91.0587 32.8352 87.3674C32.6206 86.8523 32.5348 86.4017 32.964 86.0583C34.6165 84.7492 38.3507 82.8391 38.3507 82.8391C38.3507 82.8391 39.6598 84.7492 41.484 85.8007C43.5442 87.0026 45.6259 88.0327 47.0853 88.1185C47.9652 88.1829 48.5875 88.4404 48.8236 88.7409C49.446 89.5564 50.1327 91.4664 50.4546 91.96Z" fill="#49B6EC"/>
<path d="M108.313 44.0593C110.052 37.7927 108.485 29.9165 103.635 24.2294C98.2481 17.8984 90.9299 16.7395 88.9126 16.5034C76.4009 3.49813 58.3952 -0.622368 44.5744 5.88029C35.4535 10.151 26.5472 19.8084 25.3454 31.5905C24.6801 38.2219 26.676 43.2652 28.9937 49.1026C28.9937 49.1026 35.5608 65.37 46.2054 69.3831C46.8063 69.6192 46.8921 69.6192 47.3214 69.7265C47.3214 69.7265 47.7076 69.8124 48.6519 70.1343C49.8323 70.5206 61.9577 75.6068 68.2457 77.8173C74.4909 80.0063 77.8602 80.4141 79.5986 80.5428C80.6931 80.6287 88.4405 81.251 89.2774 78.783C89.8569 77.1305 87.1099 74.7055 87.5606 74.2977C87.7966 74.0616 88.7195 74.7698 89.3418 75.1132C90.8441 75.9716 93.355 76.4653 97.7974 74.8342C96.8317 73.3749 95.6513 71.0356 95.6513 68.1813C95.6513 64.4901 97.6687 61.9147 99.5572 59.2107C103.935 53.0085 107.069 48.5446 108.313 44.0593Z" fill="#753F1F"/>
<path d="M28.6933 53.2231C27.2339 55.219 23.7573 60.5413 24.6157 67.0868C26.118 78.4397 39.4452 83.2469 42.042 84.2127C56.6783 89.5135 70.1772 81.6588 72.0443 80.5214C72.0443 80.5214 91.6167 69.3402 90.9085 45.1967C90.887 44.4027 90.9085 43.6086 90.8441 42.8145C90.6724 40.5611 90.2432 38.3292 89.5564 36.1831C88.4834 32.7279 76.7872 11.2241 58.1162 13.0912C45.3469 14.3788 37.9644 25.7102 35.4105 29.5946C29.101 39.2735 28.6504 49.0382 28.6933 53.2231Z" fill="#F9D1AF"/>
<path d="M65.7778 57.129C65.6061 60.0906 63.8463 63.1595 60.9705 63.2024C58.9532 63.2239 57.3865 60.7344 57.4724 57.644C57.5582 54.5537 59.5755 51.7637 61.5929 51.7423C64.6618 51.6994 65.928 54.3605 65.7778 57.129Z" fill="#3D2C22"/>
<path d="M44.1022 54.2317C43.9305 57.1933 42.1707 60.2623 39.295 60.3052C37.2776 60.3266 35.711 57.8372 35.7968 54.7468C35.8827 51.6564 37.9 48.8665 39.9173 48.845C43.0077 48.7807 44.2524 51.4418 44.1022 54.2317Z" fill="#3D2C22"/>
<path d="M62.2796 56.1418C62.8486 56.1418 63.3098 55.6806 63.3098 55.1116C63.3098 54.5427 62.8486 54.0815 62.2796 54.0815C61.7107 54.0815 61.2495 54.5427 61.2495 55.1116C61.2495 55.6806 61.7107 56.1418 62.2796 56.1418Z" fill="white"/>
<path d="M41.2265 53.545C41.7954 53.545 42.2566 53.0838 42.2566 52.5149C42.2566 51.9459 41.7954 51.4847 41.2265 51.4847C40.6576 51.4847 40.1964 51.9459 40.1964 52.5149C40.1964 53.0838 40.6576 53.545 41.2265 53.545Z" fill="white"/>
<path d="M32.3849 68.7364C35.1057 68.2636 36.9757 65.9492 36.5618 63.5671C36.1478 61.185 33.6066 59.6371 30.8859 60.1099C28.1651 60.5827 26.295 62.8971 26.709 65.2792C27.1229 67.6614 29.6641 69.2092 32.3849 68.7364Z" fill="#F5BAAB"/>
<path d="M68.5003 72.1243C71.221 71.6515 73.0911 69.3371 72.6771 66.955C72.2632 64.5728 69.722 63.025 67.0012 63.4978C64.2805 63.9706 62.4104 66.285 62.8243 68.6671C63.2383 71.0492 65.7795 72.5971 68.5003 72.1243Z" fill="#F5BAAB"/>
<path d="M37.9215 65.4558C35.8612 65.4558 33.8439 64.8549 32.0841 63.6746C29.6805 62.0864 28.0065 59.6184 27.3841 56.7641C26.0965 50.8409 29.7234 45.0035 35.4964 43.7588C41.2479 42.4926 46.9994 46.2912 48.2871 52.2144C49.5747 58.1376 45.9478 63.975 40.1748 65.2197C39.4237 65.37 38.6726 65.4558 37.9215 65.4558ZM37.7068 45.5401C37.1274 45.5401 36.5265 45.6045 35.9256 45.7332C31.2686 46.7419 28.3284 51.4847 29.38 56.3135C29.8951 58.6527 31.2471 60.6486 33.2215 61.9577C35.1745 63.2453 37.4922 63.696 39.7456 63.2024C44.4026 62.1937 47.3428 57.4509 46.2912 52.6222C45.3469 48.4373 41.72 45.5401 37.7068 45.5401Z" fill="#49220F"/>
<path d="M62.6873 67.4517C60.5842 67.4517 58.5239 66.8508 56.7212 65.6704C54.2532 64.0609 52.5363 61.5714 51.8925 58.6742C51.2487 55.7769 51.7852 52.7939 53.3518 50.3044C54.9399 47.7935 57.3865 46.0766 60.2622 45.4542C63.138 44.8319 66.0782 45.3684 68.5676 46.978C71.0356 48.5875 72.7525 51.077 73.3963 53.9742C74.0402 56.8714 73.5036 59.8545 71.937 62.344C70.3489 64.8549 67.9023 66.5718 65.0266 67.1942C64.254 67.3658 63.4599 67.4517 62.6873 67.4517ZM62.6229 47.2784C62.0006 47.2784 61.3568 47.3428 60.7344 47.493C58.4166 48.0081 56.4207 49.403 55.1545 51.4204C53.8669 53.4592 53.4591 55.8628 53.9742 58.2235C54.4893 60.5842 55.8842 62.6015 57.9015 63.9106C59.8974 65.2197 62.301 65.649 64.6188 65.1554C66.9366 64.6403 68.9325 63.2453 70.1987 61.228C71.4863 59.1892 71.8941 56.7856 71.379 54.4249C70.8639 52.0642 69.469 50.0469 67.4517 48.7378C65.9708 47.772 64.3184 47.2784 62.6229 47.2784Z" fill="#49220F"/>
<path d="M52.2359 53.9957C51.9783 53.6309 51.5062 53.1587 50.7765 52.9012C49.3601 52.4076 48.0081 53.2231 47.8793 53.3304L46.6775 51.4848C47.0638 51.2272 49.1455 49.9825 51.5277 50.8195C52.7724 51.2487 53.5664 52.0642 54.0171 52.6866L52.2359 53.9957Z" fill="#49220F"/>
<path d="M72.495 55.9916C71.9585 55.9916 71.4863 55.6053 71.4005 55.0473C71.3147 54.4464 71.7224 53.8884 72.3233 53.8025L93.1619 50.7551C93.7628 50.6692 94.3208 51.077 94.4066 51.6779C94.4925 52.2788 94.0847 52.8368 93.4838 52.9226L72.6452 55.9701C72.6023 55.9915 72.5594 55.9916 72.495 55.9916Z" fill="#49220F"/>
<path d="M95.4582 63.4814C92.8614 66.2284 88.3761 66.9151 84.4273 65.0266C85.7579 61.3997 87.0885 57.7513 88.419 54.1244C91.0587 52.0427 94.0847 51.1414 95.9518 52.2359C98.7846 53.9313 98.5915 60.1549 95.4582 63.4814Z" fill="#F9D1AF"/>
<path d="M49.0812 56.571C49.0168 56.5924 47.257 57.408 45.8191 58.0947C44.8319 58.5669 44.4456 59.7687 45.0036 60.7344L46.3127 63.0093" fill="#F9D1AF"/>
<path d="M46.3127 63.5458C46.1196 63.5458 45.9479 63.4385 45.8406 63.2668L44.5314 60.9919C44.1881 60.4125 44.1022 59.7043 44.3168 59.0605C44.51 58.4166 44.9821 57.8801 45.6045 57.6011C48.8665 56.0774 48.9095 56.0774 48.9953 56.0559C49.2958 55.9915 49.5962 56.1847 49.6606 56.4851C49.725 56.7641 49.5533 57.0431 49.2958 57.129C49.2099 57.1719 48.7163 57.3865 46.0766 58.6312C45.7333 58.7815 45.4972 59.0819 45.3684 59.4253C45.2611 59.7901 45.304 60.155 45.4757 60.4769L46.7848 62.7517C46.9351 63.0093 46.8492 63.3526 46.5917 63.5029C46.4844 63.5243 46.3985 63.5458 46.3127 63.5458Z" fill="#F19C79"/>
<path d="M25.2381 46.2054C26.2038 46.935 28.9079 46.1624 36.8699 38.973C31.9983 45.6259 31.8695 47.7935 32.5348 48.609C34.1229 50.4976 41.7201 46.656 50.7337 42.0419C59.0176 37.7927 65.4773 33.9083 69.5763 31.3329C69.1686 34.595 68.7608 41.6771 72.9672 45.3899C78.5685 50.3473 91.2304 48.5875 92.7112 48.888C92.9473 48.9309 93.2048 48.9953 93.4409 48.888C93.6984 48.7807 93.8486 48.4802 93.9559 48.2227C96.2093 42.7502 95.9518 39.1018 91.8528 34.9813C89.5779 32.7064 88.7195 29.6375 87.0455 26.9764C85.0926 23.8645 81.3798 22.5984 79.1479 19.787C78.0963 18.4564 77.3881 16.8683 76.4009 15.4948C76.4009 15.4948 73.4822 11.8894 68.3531 9.85056C60.9491 6.88896 48.5232 11.4387 39.81 18.9285C28.2212 28.822 22.6628 44.2953 25.2381 46.2054Z" fill="#753F1F"/>
<path d="M51.914 73.847C51.6779 73.847 51.4419 73.7182 51.3345 73.4822C50.6049 72.0443 48.888 70.3489 46.8707 70.0699C45.1109 69.8124 44.3168 71.658 44.2739 71.7224C44.1237 72.0658 43.7374 72.216 43.4155 72.0658C43.0721 71.9155 42.9219 71.5507 43.0506 71.2073C43.4584 70.2201 44.8104 68.4389 47.0424 68.7393C49.5318 69.1042 51.5921 71.0786 52.4934 72.8598C52.6651 73.1817 52.5364 73.5895 52.2144 73.7397C52.1286 73.8255 52.0213 73.847 51.914 73.847Z" fill="#EB7487"/>
<path d="M47.5144 97.8403C47.6218 101.167 47.6647 104.515 47.7076 107.863C47.7505 111.21 47.7505 114.58 47.7934 117.928C47.7934 121.297 47.7934 124.645 47.7505 128.036C47.7076 131.405 47.6432 134.775 47.5574 138.165C47.5359 138.659 47.4071 139.045 47.2355 139.045C47.0852 139.045 46.9779 138.702 46.9779 138.294C46.8921 134.946 46.8492 131.598 46.8062 128.25L46.7633 118.207C46.7848 114.859 46.7633 111.489 46.7848 108.142C46.8062 104.772 46.8492 101.403 46.935 98.0335V98.012C46.9565 97.497 47.0852 97.0892 47.2569 97.0892C47.3857 97.0677 47.5144 97.3897 47.5144 97.8403Z" fill="#2C78C9"/>
<path d="M55.2619 97.8403C55.3692 101.167 55.4121 104.515 55.455 107.863C55.4979 111.21 55.4979 114.58 55.5409 117.928C55.5409 121.297 55.5409 124.645 55.4979 128.036C55.455 131.405 55.3906 134.775 55.3048 138.165C55.2833 138.659 55.1546 139.045 54.9829 139.045C54.8327 139.045 54.7253 138.702 54.7253 138.294C54.6395 134.946 54.5966 131.598 54.5537 128.25L54.5107 118.207C54.5322 114.859 54.5107 111.489 54.5322 108.142C54.5537 104.772 54.5966 101.403 54.6824 98.0335V98.012C54.7039 97.497 54.8326 97.0892 55.0043 97.0892C55.1331 97.0677 55.2404 97.3897 55.2619 97.8403Z" fill="#2C78C9"/>
<path d="M50.8409 102.154C52.0973 102.154 53.1158 101.135 53.1158 99.8791C53.1158 98.6227 52.0973 97.6042 50.8409 97.6042C49.5845 97.6042 48.566 98.6227 48.566 99.8791C48.566 101.135 49.5845 102.154 50.8409 102.154Z" fill="#2C78C9"/>
<path d="M50.8409 116.425C52.0973 116.425 53.1158 115.407 53.1158 114.151C53.1158 112.894 52.0973 111.876 50.8409 111.876C49.5845 111.876 48.566 112.894 48.566 114.151C48.566 115.407 49.5845 116.425 50.8409 116.425Z" fill="#003F8B"/>
<path d="M50.8409 130.676C52.0973 130.676 53.1158 129.657 53.1158 128.401C53.1158 127.144 52.0973 126.126 50.8409 126.126C49.5845 126.126 48.566 127.144 48.566 128.401C48.566 129.657 49.5845 130.676 50.8409 130.676Z" fill="#2C78C9"/>
<path d="M44.188 110.738C44.188 110.738 39.6598 106.725 35.4749 107.305C31.29 107.884 26.0321 109.923 26.4613 113.035C26.8905 116.146 27.3841 120.095 28.9508 120.932C30.5389 121.748 32.5348 121.877 34.037 121.061C34.5735 120.761 34.4019 120.095 34.4019 120.095C34.4019 120.095 36.9986 119.752 37.8571 118.936C39.4022 117.477 41.6771 117.241 41.6771 117.241L44.188 110.738Z" fill="#F9D1AF"/>
<path d="M79.1049 114.859C79.1049 114.859 77.6241 111.876 72.6023 110.202C69.0183 109 58.6527 109.365 45.4113 109.3C42.5999 109.279 40.5397 108.528 38.694 109.3C29.659 113.121 32.406 117.928 38.737 119.13C45.0679 120.331 65.1124 125.589 73.3963 125.224C82.4743 124.795 79.1049 114.859 79.1049 114.859Z" fill="#F9D1AF"/>
<path d="M28.5859 120.653C31.011 118.829 37.1703 113.807 40.2392 108.206C38.7799 107.541 37.1059 107.069 35.4749 107.305C31.29 107.884 26.0321 109.923 26.4613 113.035C26.8476 115.889 27.2983 119.473 28.5859 120.653Z" fill="#F9B881"/>
<path d="M47.7934 93.2477C49.5318 94.1276 47.0638 101.575 43.0506 102.755C41.8273 103.12 40.7328 104.171 39.9388 105.201C36.3762 109.708 34.3589 113.528 33.5219 114.515C29.4444 119.215 25.6029 124.194 20.1518 119.537C16.3747 116.318 20.7527 108.12 22.5125 106.382C24.1221 104.794 27.3197 102.24 31.9338 98.9563C33.0927 98.1408 35.4534 96.2737 36.9557 94.4066C39.9388 90.6294 44.5529 91.5952 47.7934 93.2477Z" fill="#F9D1AF"/>
<path d="M35.0242 96.8102C35.0242 96.8102 37.3849 93.913 37.8356 93.1404C38.5009 91.9815 39.2091 90.4792 39.3379 89.1272C39.4452 87.9039 39.531 87.0669 38.8657 86.0368C38.0931 84.835 38.8014 82.9035 41.2908 84.6848C42.2351 85.3715 43.3511 86.7021 43.5228 88.1185C43.5871 88.5907 44.0378 87.8181 44.4241 87.5176C45.7547 86.509 46.7848 86.3373 47.493 86.23C48.5875 86.0797 50.3044 85.8222 51.0126 87.9683C51.0126 87.9683 51.6135 87.9898 52.472 88.7624C52.7724 89.0414 53.1587 90.1788 53.1587 90.1788C53.1587 90.1788 53.7167 90.4363 54.1244 91.166C54.4249 91.724 54.5322 92.282 54.5322 92.282C54.5322 92.282 55.8628 92.6253 55.8413 94.471C55.8199 95.9947 55.9701 96.2308 55.5838 97.0677C55.176 97.9262 54.8112 98.5056 53.8884 98.7202C52.7509 98.9778 52.6866 98.4198 52.6866 98.4198C52.6866 98.4198 48.0939 102.562 43.3511 102.755C42.5141 102.798 42.4712 102.97 41.5913 103.485C41.1191 103.764 40.4968 103.592 39.9817 103.592C37.4064 103.613 35.0242 96.8102 35.0242 96.8102Z" fill="#F9D1AF"/>
<path d="M12.8766 26.2252C12.1469 25.56 11.2884 25.2166 10.3442 25.2166C9.42135 25.2166 8.58437 25.56 7.87616 26.2252C7.14649 26.8476 6.76019 27.6631 6.76019 28.5859C6.76019 29.4444 7.12503 30.217 7.8547 30.9466C8.56291 31.5905 9.39989 31.9124 10.3442 31.9124C11.3099 31.9124 12.1683 31.569 12.8766 30.9466C13.6491 30.2384 14.014 29.4658 14.014 28.5859C14.014 27.6417 13.6277 26.8691 12.8766 26.2252Z" fill="#30AD40"/>
<path d="M20.3235 7.1465C20.0445 5.19356 19.0144 3.5196 17.3619 2.29633C13.9496 -0.236058 9.29258 -0.708198 4.91455 1.0516C2.78992 1.88857 1.18035 3.4123 0.493603 5.19356C1.49012e-06 6.39537 -0.0858422 7.76887 0.19315 9.52866C0.386298 10.8592 1.52373 12.1898 2.78992 12.662C3.84151 13.0483 4.89309 12.8336 5.77299 12.104C6.95334 11.1597 6.63143 10.0437 6.39536 9.14237C6.30951 8.79899 6.20221 8.47708 6.18075 8.15516C6.15929 7.68302 6.33097 7.23234 6.73873 6.80312C7.57571 5.94469 9.2282 5.36524 10.6661 5.40816C11.7177 5.45109 12.7049 5.96615 13.3702 6.78166C13.9496 7.48987 14.2071 8.32685 14.0784 9.07798C13.8638 10.5588 12.8551 11.4387 11.6962 12.4688C11.3528 12.7693 10.988 13.0912 10.6446 13.4345C9.12089 15.0441 8.15515 16.761 7.81178 18.5637C7.66155 19.3792 7.42548 21.4395 8.41268 22.6413C8.88482 23.2207 9.55011 23.5212 10.3871 23.5641C10.43 23.5641 10.4515 23.5641 10.4729 23.5641C12.7692 23.5641 13.2628 21.8258 13.4345 20.5381C13.456 20.3664 13.4775 20.1947 13.4989 20.0231C13.6706 18.8212 13.7779 17.9628 14.808 17.04C15.2587 16.6108 15.7523 16.2245 16.2674 15.8167C17.0185 15.2373 17.8126 14.6149 18.4135 13.8852C18.4349 13.8423 18.4564 13.8208 18.4779 13.7779C19.9801 11.7821 20.6454 9.35697 20.3235 7.1465Z" fill="#30AD40"/>
<path d="M49.1884 88.5263C49.1884 88.5263 49.7035 88.1186 50.4546 88.1186" stroke="#F19C79" stroke-miterlimit="10" stroke-linecap="round" stroke-linejoin="round"/>
<path d="M51.5062 90.5007C51.5062 90.5007 51.7852 90.329 52.5149 90.1144" stroke="#F19C79" stroke-miterlimit="10" stroke-linecap="round" stroke-linejoin="round"/>
<path d="M53.545 92.6682C53.545 92.6682 53.4162 92.6897 54.1244 92.4751" stroke="#F19C79" stroke-miterlimit="10" stroke-linecap="round" stroke-linejoin="round"/>
<path d="M52.4719 97.9691C52.4719 97.9691 52.5578 97.6472 52.9226 96.9819" stroke="#F19C79" stroke-miterlimit="10" stroke-linecap="round" stroke-linejoin="round"/>
</svg>
