<svg xmlns="http://www.w3.org/2000/svg" xmlns:xlink="http://www.w3.org/1999/xlink" viewBox="0 0 1130.11 260.14"><defs><style>.cls-1,.cls-27,.cls-30,.cls-42,.cls-5,.cls-73,.cls-77{fill:none;}.cls-2{isolation:isolate;}.cls-25,.cls-3{fill:#fad08e;}.cls-25,.cls-27,.cls-3,.cls-5{stroke:#f7b75d;}.cls-10,.cls-11,.cls-17,.cls-18,.cls-20,.cls-21,.cls-22,.cls-25,.cls-27,.cls-28,.cls-29,.cls-3,.cls-30,.cls-42,.cls-5,.cls-7,.cls-77,.cls-8,.cls-9{stroke-linecap:round;}.cls-10,.cls-11,.cls-17,.cls-18,.cls-20,.cls-21,.cls-22,.cls-25,.cls-27,.cls-28,.cls-29,.cls-3,.cls-30,.cls-42,.cls-5,.cls-6,.cls-7,.cls-77,.cls-8,.cls-9{stroke-linejoin:round;}.cls-10,.cls-3,.cls-5,.cls-6,.cls-7,.cls-8,.cls-9{stroke-width:0.35px;}.cls-4{clip-path:url(#clip-path);}.cls-6{fill:#fff7d3;stroke:#fbdca1;}.cls-14,.cls-7{fill:#ee8aa7;}.cls-7{stroke:#e85a95;}.cls-28,.cls-8{fill:#a4d9ef;stroke:#6ac3e5;}.cls-9{fill:#f3b2c6;}.cls-29,.cls-9{stroke:#eb759c;}.cls-10{fill:#862e0e;stroke:#642400;}.cls-11{fill:#e61f1f;stroke:#c31717;stroke-width:0.3px;}.cls-12{fill:#00b1ec;}.cls-13{fill:#fff000;}.cls-15{clip-path:url(#clip-path-2);}.cls-16{clip-path:url(#clip-path-3);}.cls-17{fill:#ab6c15;stroke:#8f5909;}.cls-17,.cls-18,.cls-20,.cls-21{stroke-width:0.57px;}.cls-18,.cls-19{fill:#fdde8e;}.cls-18,.cls-21{stroke:#ebc882;}.cls-20{fill:#fcd005;stroke:#f5ab18;}.cls-21{fill:#fffac6;}.cls-22{fill:#f4a000;stroke:#ef8200;stroke-width:0.38px;}.cls-23{fill:#703c11;}.cls-24{fill:#fff;}.cls-25,.cls-27,.cls-28{stroke-width:0.32px;}.cls-26{clip-path:url(#clip-path-4);}.cls-29{fill:#ef96b5;stroke-width:0.38px;}.cls-30{stroke:#f5f5f5;stroke-width:0.24px;}.cls-31{fill:#ffe726;}.cls-32{fill:#88ead0;}.cls-33{opacity:0.16;mix-blend-mode:screen;}.cls-34{fill:#f297b7;}.cls-35{fill:#32a2ed;}.cls-36{fill:#4cb2ee;}.cls-37{fill:#f15eb7;}.cls-38{fill:#06b5c1;}.cls-39{fill:#5772c8;}.cls-40{fill:#8fc048;}.cls-41{fill:#2f50ba;}.cls-42{stroke:#fff;}.cls-43{fill:#962623;}.cls-44{fill:#480e00;}.cls-45{fill:#411819;}.cls-46{fill:#e51f21;}.cls-47{fill:#f9fafb;}.cls-48{fill:url(#linear-gradient);}.cls-49{fill:url(#linear-gradient-2);}.cls-50{fill:url(#linear-gradient-3);}.cls-51{fill:url(#linear-gradient-4);}.cls-52{fill:url(#linear-gradient-5);}.cls-53{fill:url(#linear-gradient-6);}.cls-54{fill:url(#linear-gradient-7);}.cls-55{fill:url(#linear-gradient-8);}.cls-56{fill:url(#linear-gradient-9);}.cls-57{fill:url(#linear-gradient-10);}.cls-58{fill:#142884;}.cls-59{fill:#dceeee;}.cls-60{fill:#73432e;}.cls-61{fill:#009750;}.cls-62{fill:#0b7d58;}.cls-63{fill:#7dc8e7;}.cls-64{fill:#f04e98;}.cls-65{fill:#ffa603;}.cls-66{fill:#2c4874;}.cls-67{fill:#d52a39;}.cls-68{fill:#e52d1e;}.cls-69{fill:#e86a03;}.cls-70{fill:#74422b;}.cls-71{fill:#006e5a;}.cls-72{fill:#00805a;}.cls-73{stroke:#342418;stroke-miterlimit:10;stroke-width:0.5px;}.cls-74{fill:#342418;}.cls-75{fill:#231815;opacity:0.1;}.cls-75,.cls-80{mix-blend-mode:multiply;}.cls-76{fill:#fcd000;}.cls-77{stroke:#e2be65;stroke-width:0.43px;}.cls-78{fill:#ffea00;}.cls-79{fill:#49b688;}.cls-80{opacity:0.35;}.cls-81{fill:#bcc0c5;}</style><clipPath id="clip-path"><path class="cls-1" d="M1074.71,212.69s-.84,2.92-1.41,4.5c-.29.82-.54.85-.75.85s-.46,0-.75-.85c-.56-1.58-1.41-4.5-1.41-4.5Z"/></clipPath><clipPath id="clip-path-2"><path class="cls-1" d="M1069,213.06s-.84,2.91-1.4,4.5c-.29.81-.54.84-.75.84s-.46,0-.75-.84c-.57-1.59-1.41-4.5-1.41-4.5Z"/></clipPath><clipPath id="clip-path-3"><path class="cls-1" d="M1101.32,197.85l-.27,20.42h-38.32l-.28-20.42a1.74,1.74,0,0,1,1.74-1.8h35.39A1.74,1.74,0,0,1,1101.32,197.85Z"/></clipPath><clipPath id="clip-path-4"><path class="cls-1" d="M1082,211.77s-.68,2.38-1.14,3.67c-.24.67-.44.69-.61.69s-.38,0-.62-.69c-.45-1.29-1.14-3.67-1.14-3.67Z"/></clipPath><linearGradient id="linear-gradient" x1="42.45" y1="3.41" x2="46.58" y2="39.53" gradientTransform="translate(-1.9 29.97) rotate(-7.05)" gradientUnits="userSpaceOnUse"><stop offset="0" stop-color="#0077bf"/><stop offset="0.01" stop-color="#0075bd"/><stop offset="0.48" stop-color="#093a86"/><stop offset="0.82" stop-color="#0e1563"/><stop offset="1" stop-color="#100756"/></linearGradient><linearGradient id="linear-gradient-2" x1="31.58" y1="4.84" x2="31.43" y2="21.02" gradientTransform="translate(-1.9 29.97) rotate(-7.05)" gradientUnits="userSpaceOnUse"><stop offset="0" stop-color="#fff"/><stop offset="0.23" stop-color="#cbebfb"/><stop offset="0.94" stop-color="#00b6ee"/></linearGradient><linearGradient id="linear-gradient-3" x1="40.62" y1="4.92" x2="40.48" y2="21.27" gradientTransform="translate(-1.9 29.97) rotate(-7.05)" gradientUnits="userSpaceOnUse"><stop offset="0" stop-color="#fff"/><stop offset="0.2" stop-color="#fff69a"/><stop offset="0.91" stop-color="#fbae16"/></linearGradient><linearGradient id="linear-gradient-4" x1="48.18" y1="5" x2="48.04" y2="21.46" gradientTransform="translate(-1.9 29.97) rotate(-7.05)" gradientUnits="userSpaceOnUse"><stop offset="0" stop-color="#fff"/><stop offset="0.23" stop-color="#fff8b5"/><stop offset="0.36" stop-color="#e0ea95"/><stop offset="0.53" stop-color="#bddb6f"/><stop offset="0.7" stop-color="#a3cf54"/><stop offset="0.84" stop-color="#93c844"/><stop offset="0.95" stop-color="#8ec63e"/></linearGradient><linearGradient id="linear-gradient-5" x1="58.86" y1="5.13" x2="58.71" y2="21.72" gradientTransform="translate(-1.9 29.97) rotate(-7.05)" gradientUnits="userSpaceOnUse"><stop offset="0" stop-color="#fff"/><stop offset="0.12" stop-color="#fef6fa"/><stop offset="0.31" stop-color="#fbdeeb"/><stop offset="0.95" stop-color="#f180b2"/><stop offset="1" stop-color="#f07db0"/></linearGradient><linearGradient id="linear-gradient-6" x1="27.64" y1="16.67" x2="27.5" y2="36.66" gradientTransform="translate(-1.9 29.97) rotate(-7.05)" gradientUnits="userSpaceOnUse"><stop offset="0" stop-color="#fff"/><stop offset="0.29" stop-color="#fff8b5"/><stop offset="0.51" stop-color="#d3e587"/><stop offset="0.78" stop-color="#a1cf52"/><stop offset="0.92" stop-color="#8ec63e"/></linearGradient><linearGradient id="linear-gradient-7" x1="37.76" y1="16.95" x2="37.62" y2="36.89" gradientTransform="translate(-1.9 29.97) rotate(-7.05)" gradientUnits="userSpaceOnUse"><stop offset="0" stop-color="#fff"/><stop offset="0.3" stop-color="#dcf1fc"/><stop offset="0.6" stop-color="#8cb8de"/><stop offset="0.86" stop-color="#508ec8"/><stop offset="0.98" stop-color="#397dbf"/></linearGradient><linearGradient id="linear-gradient-8" x1="49.93" y1="17.19" x2="49.79" y2="37.29" gradientTransform="translate(-1.9 29.97) rotate(-7.05)" gradientUnits="userSpaceOnUse"><stop offset="0" stop-color="#fbdeeb"/><stop offset="0.27" stop-color="#fff"/><stop offset="0.48" stop-color="#fad1e3"/><stop offset="0.71" stop-color="#f4a4c8"/><stop offset="0.89" stop-color="#f188b6"/><stop offset="1" stop-color="#f07db0"/></linearGradient><linearGradient id="linear-gradient-9" x1="61.72" y1="17.45" x2="61.57" y2="37.55" gradientTransform="translate(-1.9 29.97) rotate(-7.05)" gradientUnits="userSpaceOnUse"><stop offset="0" stop-color="#fff"/><stop offset="0.25" stop-color="#fff69a"/><stop offset="0.91" stop-color="#fbae16"/></linearGradient><linearGradient id="linear-gradient-10" x1="25.23" y1="41.18" x2="64.18" y2="41.18" gradientTransform="translate(-1.9 29.97) rotate(-7.05)" gradientUnits="userSpaceOnUse"><stop offset="0" stop-color="#cbebfb"/><stop offset="0.34" stop-color="#f4a4c7"/><stop offset="0.65" stop-color="#ffd300"/><stop offset="1" stop-color="#89cdf1"/></linearGradient></defs><title>Asset 16</title><g class="cls-2"><g id="Layer_2" data-name="Layer 2"><g id="Layer_1-2" data-name="Layer 1"><path class="cls-3" d="M1074.71,212.69s-.84,2.92-1.41,4.5c-.29.82-.54,1-.75,1s-.46-.19-.75-1c-.56-1.58-1.41-4.5-1.41-4.5Z"/><g class="cls-4"><line class="cls-5" x1="1073.85" y1="212.04" x2="1069.67" y2="216.85"/><line class="cls-5" x1="1074.64" y1="212.82" x2="1070.46" y2="217.64"/><line class="cls-5" x1="1075.43" y1="213.61" x2="1071.25" y2="218.42"/><line class="cls-5" x1="1075.76" y1="216.53" x2="1070.92" y2="212.36"/><line class="cls-5" x1="1074.97" y1="217.31" x2="1070.13" y2="213.15"/><line class="cls-5" x1="1074.18" y1="218.1" x2="1069.34" y2="213.94"/></g><path class="cls-6" d="M1075.2,211.65l0-.28a2.6,2.6,0,0,0-5.2-.15c0,.1,0,.19,0,.28a.88.88,0,0,0-.65.84,4.49,4.49,0,0,1,2.4,1.31.88.88,0,0,1,1.54,0,.89.89,0,0,0,.89-.64.87.87,0,0,0,.67.34.89.89,0,0,0,.92-.87A.9.9,0,0,0,1075.2,211.65Z"/><circle class="cls-7" cx="1072.71" cy="208.65" r="0.55"/><ellipse class="cls-8" cx="1066.8" cy="211.81" rx="2.35" ry="2.23" transform="matrix(0.98, -0.2, 0.2, 0.98, -20.81, 217.58)"/><path class="cls-9" d="M1068.86,208.25a1.73,1.73,0,0,1-1.4,2.25c-1.23.25-2.71-.1-3-1.34a2,2,0,0,1,1.7-2.41A2.11,2.11,0,0,1,1068.86,208.25Z"/><path class="cls-10" d="M1064.7,207.41a1.44,1.44,0,0,1,.28-.37,2.59,2.59,0,0,1,2.27-.62c1.09.17,1.82.86,1.53,1.78a.5.5,0,0,1-.76.23c-.21-.12-.23-.37-.43-.51a.83.83,0,0,0-.75-.09c-.27.12-.42.61-.74.59s-.39-.45-.63-.6-.42.21-.69.17a.23.23,0,0,1-.17-.3A1.31,1.31,0,0,1,1064.7,207.41Z"/><circle class="cls-11" cx="1066.67" cy="206.16" r="0.95"/><path class="cls-12" d="M1065.81,210.78l-.49,0a.25.25,0,0,0-.17.08.24.24,0,0,0-.07.18.25.25,0,0,0,.08.17.24.24,0,0,0,.18.07l.48,0a.24.24,0,0,0,.14-.05l0,0a.23.23,0,0,0,.07-.18A.25.25,0,0,0,1065.81,210.78Z"/><path class="cls-13" d="M1067.38,211.65l-.29-.35a.25.25,0,0,0-.34,0,.24.24,0,0,0,0,.34l.28.35a.16.16,0,0,0,.08.06.2.2,0,0,0,.11,0,.3.3,0,0,0,.16,0A.24.24,0,0,0,1067.38,211.65Z"/><path class="cls-14" d="M1068.4,210.77l-.58-.08a.27.27,0,0,0-.29.21.22.22,0,0,0,0,.17.22.22,0,0,0,.17.09l.58.08h.06a.26.26,0,0,0,.23-.21A.24.24,0,0,0,1068.4,210.77Z"/><path class="cls-3" d="M1069,213.06s-.84,2.91-1.4,4.5c-.29.81-.54,1-.75,1s-.46-.19-.75-1c-.57-1.59-1.41-4.5-1.41-4.5Z"/><g class="cls-15"><line class="cls-5" x1="1068.1" y1="212.4" x2="1063.91" y2="217.21"/><line class="cls-5" x1="1068.89" y1="213.19" x2="1064.71" y2="218"/><line class="cls-5" x1="1069.68" y1="213.97" x2="1065.5" y2="218.79"/><line class="cls-5" x1="1070.01" y1="216.89" x2="1065.17" y2="212.73"/><line class="cls-5" x1="1069.22" y1="217.68" x2="1064.38" y2="213.51"/><line class="cls-5" x1="1068.43" y1="218.46" x2="1063.59" y2="214.3"/></g><path class="cls-14" d="M1066,211.92a.24.24,0,0,0-.12-.14.24.24,0,0,0-.33.1.28.28,0,0,0,0,.18.24.24,0,0,0,.12.14.27.27,0,0,0,.12,0l.07,0a.19.19,0,0,0,.14-.11A.23.23,0,0,0,1066,211.92Z"/><g class="cls-16"><path class="cls-17" d="M1089.73,222.4c.21-.92,1.36-1.31,3-1.13.9.1,1.81.66,1.89,1.48s-.55,1.26-1.65,1.26S1089.55,224,1089.73,222.4Z"/><path class="cls-17" d="M1083.52,223c-.19-1,1.28-1.93,2.86-1.75.91.1,1.75.53,1.67,1.46s-.89,1.26-1.65,1.26C1084.88,224,1083.69,223.94,1083.52,223Z"/><path class="cls-18" d="M1085.49,214.18c-2.27-2.5-3.52-3.74-4.23-3.52-1.12.34-1,2.29-.12,2.83a1.89,1.89,0,0,0,.49,2.28,2.93,2.93,0,0,0,2.33.71"/><path class="cls-18" d="M1093,214.11s3,1.73,2.13,4.75c-.36,1.19-1.21,1.65-1.87.69a10.52,10.52,0,0,1-.81-1.58"/><path class="cls-19" d="M1084.2,216c-.88,2.25-.51,3.82.26,4.83,1,1.3,3.24,1.6,4.35,1.6s3.35-.3,4.35-1.6c.77-1,1.14-2.58.26-4.83a5,5,0,0,0-5.46-3.91A4.84,4.84,0,0,0,1084.2,216Z"/><path class="cls-18" d="M1084.2,216c-.88,2.25-.51,3.82.26,4.83,1,1.3,3.24,1.6,4.35,1.6s3.35-.3,4.35-1.6c.77-1,1.14-2.58.26-4.83"/><path class="cls-20" d="M1088.46,217.72c2.83.32,5.82-4,5.82-4l-5.31-.5-4.62-.61S1085.67,217.41,1088.46,217.72Z"/><path class="cls-18" d="M1089.17,202a.79.79,0,0,1,1-.46.91.91,0,0,1,.34.27.78.78,0,0,1,.91-.25.82.82,0,0,1,.44,1.06.92.92,0,0,1-.19.28,6.51,6.51,0,0,1,.82.37,9.1,9.1,0,0,1,2.71,2.55,12.48,12.48,0,0,1,1,1.54.92.92,0,0,1,.37,0,.81.81,0,0,1,.68.92.83.83,0,0,1-.67.7.78.78,0,0,1,.06.43.8.8,0,0,1-.89.71,5.64,5.64,0,0,0-.49,1.44,13.54,13.54,0,0,1-.22,1.71c-.26.64-1.27,2.41-6.28,1.74s-5.52-2.63-5.61-3.32a14.64,14.64,0,0,1,.24-1.71,5.56,5.56,0,0,0-.1-1.52.81.81,0,0,1-.68-.91.94.94,0,0,1,.17-.41.82.82,0,0,1,.44-1.55.78.78,0,0,1,.34.13,11.81,11.81,0,0,1,1.34-1.23,9,9,0,0,1,3.29-1.75,6,6,0,0,1,.88-.15A1.28,1.28,0,0,1,1089.17,202Z"/><path class="cls-21" d="M1088.72,215.29c-1.52-.2-5.4-1.22-5.23-3.25,0-.62.44-.7.63-1.35.34-1.67,1-2.48,2.23-2.5,1,0,2.72.56,2.05,3.8l.69.49.8-.3c.2-3.3,2.06-3.39,3-3.13,1.19.35,1.61,1.3,1.5,3,0,.66.37.84.25,1.46C1094.25,215.52,1090.24,215.5,1088.72,215.29Z"/><path class="cls-22" d="M1089.41,211.88c.12,0,.68.14.61.64a1.28,1.28,0,0,1-.93.92c-.5-.06-.76-.66-.95-1.05-.09-.2-.08-.12,0-.27S1088.8,211.77,1089.41,211.88Z"/><path class="cls-22" d="M1090.58,212.51c.08-.31-.43-.58-.65-.64a.87.87,0,0,0-1.43-.19c-.45-.09-.83.19-.78.49s.33.39.68.33a1.83,1.83,0,0,1,.64-.05c.31,0,.63.29.92.33S1090.52,212.78,1090.58,212.51Z"/><path class="cls-23" d="M1093,210.85a1.15,1.15,0,1,0-1.68,1.57,1.15,1.15,0,0,0,1.68-1.57Z"/><path class="cls-24" d="M1092,211.31a.32.32,0,0,1-.63-.08.32.32,0,0,1,.36-.28A.32.32,0,0,1,1092,211.31Z"/><path class="cls-23" d="M1087.21,210.08a1.15,1.15,0,0,0-1.68,1.57,1.15,1.15,0,1,0,1.68-1.57Z"/><path class="cls-24" d="M1086.27,210.54a.32.32,0,0,1-.36.28.32.32,0,0,1-.27-.36.31.31,0,0,1,.35-.27A.31.31,0,0,1,1086.27,210.54Z"/><path class="cls-25" d="M1082,211.77s-.68,2.38-1.14,3.67c-.24.67-.44.82-.61.82s-.38-.15-.62-.82c-.45-1.29-1.14-3.67-1.14-3.67Z"/><g class="cls-26"><line class="cls-27" x1="1081.3" y1="211.24" x2="1077.89" y2="215.16"/><line class="cls-27" x1="1081.94" y1="211.88" x2="1078.53" y2="215.8"/><line class="cls-27" x1="1082.59" y1="212.52" x2="1079.18" y2="216.44"/><line class="cls-27" x1="1082.85" y1="214.9" x2="1078.91" y2="211.51"/><line class="cls-27" x1="1082.21" y1="215.54" x2="1078.27" y2="212.15"/><line class="cls-27" x1="1081.57" y1="216.18" x2="1077.62" y2="212.79"/></g><path class="cls-28" d="M1082.3,210.54a2,2,0,0,0,.11-.65,2.18,2.18,0,0,0-4.35,0,2.08,2.08,0,0,0,.11.66.93.93,0,0,0-.48.81,1,1,0,0,0,1,.95,1,1,0,0,0,.62-.21,3.88,3.88,0,0,1,2.48.21,1,1,0,0,0,1-.95A1,1,0,0,0,1082.3,210.54Z"/><path class="cls-29" d="M1079.68,207.35a2.4,2.4,0,0,0-1.29.64c-.22.23-.37.57-.11.83s.45.05.74.05c.52,0,.7.69,1.3.45s.51-.4,1-.2a.71.71,0,0,0,1-.31c.13-.36-.34-.78-.59-1a2.69,2.69,0,0,0-1.64-.52Z"/><path class="cls-24" d="M1079.45,208h-.38a.2.2,0,0,0-.14.06.24.24,0,0,0,0,.14.2.2,0,0,0,.06.15.24.24,0,0,0,.14,0h.38a.21.21,0,0,0,.11,0l0,0a.2.2,0,0,0,.06-.15A.2.2,0,0,0,1079.45,208Z"/><path class="cls-12" d="M1080.54,208.49l-.22-.3a.2.2,0,0,0-.28,0,.21.21,0,0,0,0,.29l.22.29.06,0a.16.16,0,0,0,.09,0,.21.21,0,0,0,.13,0A.2.2,0,0,0,1080.54,208.49Z"/><path class="cls-13" d="M1081.2,207.77l-.44-.06a.19.19,0,0,0-.22.17.2.2,0,0,0,0,.15.22.22,0,0,0,.13.08l.44.06h0a.21.21,0,0,0,.17-.17A.2.2,0,0,0,1081.2,207.77Z"/><path class="cls-12" d="M1080.23,207.58a.26.26,0,0,0-.1-.13.2.2,0,0,0-.17,0,.17.17,0,0,0-.12.1.25.25,0,0,0,0,.17.22.22,0,0,0,.1.13l.1,0h.07a.22.22,0,0,0,.12-.11A.25.25,0,0,0,1080.23,207.58Z"/></g><path class="cls-30" d="M1100.61,155.79a47.67,47.67,0,0,1,3.3,24.29,46.72,46.72,0,0,1-4.17,14.06"/><path class="cls-30" d="M1117.74,163.6a93,93,0,0,1-16,24.58"/><path class="cls-30" d="M1106.75,161.91c-.48,4.62-1.22,9.65-2.31,15a155.56,155.56,0,0,1-4.61,17.42"/><path class="cls-30" d="M1110.84,153a94.33,94.33,0,0,1-3.87,24.58,91.58,91.58,0,0,1-3.88,10.6"/><path class="cls-30" d="M1096.72,166.52a30.67,30.67,0,0,1,3.52,5.82A24,24,0,0,1,1103,183.7a21.19,21.19,0,0,1-3.18,10.35"/><path class="cls-31" d="M1107.15,152.49l.76-1.29a2.43,2.43,0,0,1,.78.12l.27.12.33,1.44a2.5,2.5,0,0,1-1.14.07A2.38,2.38,0,0,1,1107.15,152.49Z"/><path class="cls-32" d="M1106.32,152.28c3.58.29,7.44-3,7.83-7.69a7.18,7.18,0,0,0-14.31-1.17C1099.45,148.14,1102.73,152,1106.32,152.28Z"/><g class="cls-33"><path class="cls-24" d="M1102.08,142.1a.63.63,0,0,1-.48-.36,1.37,1.37,0,0,1,.23-1.17,3.45,3.45,0,0,1,1.21-1.22,1.3,1.3,0,0,1,1.25-.22.53.53,0,0,1,.24.52.5.5,0,0,1-.12.33,1,1,0,0,1-.54.3,1.69,1.69,0,0,0-1,1,5.43,5.43,0,0,1-.17.53A.52.52,0,0,1,1102.08,142.1Z"/></g><path class="cls-34" d="M1116.89,163l1-1.12a2.29,2.29,0,0,1,.74.28,1.81,1.81,0,0,1,.25.16l0,1.48a2.32,2.32,0,0,1-1.12-.16A2.38,2.38,0,0,1,1116.89,163Z"/><path class="cls-34" d="M1118.63,162.17c3.46,1,7.89-1.44,9.2-6a7.18,7.18,0,0,0-13.8-4C1112.72,156.76,1115.17,161.17,1118.63,162.17Z"/><g class="cls-33"><path class="cls-24" d="M1116.49,151.36a.63.63,0,0,1-.4-.45,1.35,1.35,0,0,1,.45-1.11,3.55,3.55,0,0,1,1.42-1,1.3,1.3,0,0,1,1.27,0,.53.53,0,0,1,.14.56.62.62,0,0,1-.18.3,1.12,1.12,0,0,1-.59.19,1.67,1.67,0,0,0-1.19.75,4.74,4.74,0,0,1-.26.5A.53.53,0,0,1,1116.49,151.36Z"/></g><path class="cls-35" d="M1100.83,159l.32-1.39a1.91,1.91,0,0,1,.74-.12l.28,0,.72,1.22a2.24,2.24,0,0,1-2.06.27Z"/><path class="cls-36" d="M1102,157.93c3.55-.83,6.25-5.17,5.16-9.84a7.27,7.27,0,0,0-14.16,3.32C1094.09,156.08,1098.44,158.76,1102,157.93Z"/><g class="cls-33"><path class="cls-24" d="M1094.75,149.44a.66.66,0,0,1-.58-.2,1.4,1.4,0,0,1-.15-1.2,3.53,3.53,0,0,1,.79-1.55,1.31,1.31,0,0,1,1.14-.6.57.57,0,0,1,.4.42.63.63,0,0,1,0,.36c-.07.22-.26.33-.42.46a1.7,1.7,0,0,0-.68,1.25,5.42,5.42,0,0,1,0,.57A.54.54,0,0,1,1094.75,149.44Z"/></g><path class="cls-37" d="M1105.22,165.38l.71-.92a.23.23,0,0,1,.08-.13c.11-.11.3-.06.44,0a1.3,1.3,0,0,1,.44.21L1107,166a2.13,2.13,0,0,1-1.15-.13A2.19,2.19,0,0,1,1105.22,165.38Z"/><path class="cls-37" d="M1106.4,164.86c3.71.78,8.16-2.26,9.18-7.35a7.56,7.56,0,0,0-5.86-9.19,7.37,7.37,0,0,0-8.92,6.06C1099.77,159.47,1102.69,164.07,1106.4,164.86Z"/><g class="cls-33"><path class="cls-24" d="M1102.64,154.07a.64.64,0,0,0,.54.7h0a.68.68,0,0,0,.27-1.32.65.65,0,0,0-.83.53S1102.64,154,1102.64,154.07Z"/><path class="cls-24" d="M1105.89,151.31a.64.64,0,1,0-.65-1.1,5.38,5.38,0,0,0-1.18.89,2.78,2.78,0,0,0-.77,1.4c0,.58.83.71,1.11.23A4,4,0,0,1,1105.89,151.31Z"/></g><path class="cls-31" d="M1097.66,170.2l.07-1.5a2.25,2.25,0,0,1,.75-.26l.29,0c.33.37.65.75,1,1.13a2.51,2.51,0,0,1-1,.59A2.26,2.26,0,0,1,1097.66,170.2Z"/><path class="cls-31" d="M1098.48,169c3.32-1.42,5.22-6.13,3.35-10.5a7.21,7.21,0,0,0-13.26,5.67C1090.44,168.51,1095.15,170.38,1098.48,169Z"/><g class="cls-33"><path class="cls-24" d="M1089.94,161.91a.62.62,0,0,1-.59-.1,1.31,1.31,0,0,1-.35-1.14,3.5,3.5,0,0,1,.5-1.66c.21-.35.55-.78,1-.77a.53.53,0,0,1,.46.34.6.6,0,0,1,0,.35,1.16,1.16,0,0,1-.34.53,1.6,1.6,0,0,0-.44,1.33,5.48,5.48,0,0,1,.1.56A.54.54,0,0,1,1089.94,161.91Z"/></g><path class="cls-38" d="M1111.94,174.05l1-1.12a2.38,2.38,0,0,1,.74.28,1.21,1.21,0,0,1,.25.17c0,.49,0,1,0,1.48a2.38,2.38,0,0,1-1.13-.16A2.24,2.24,0,0,1,1111.94,174.05Z"/><path class="cls-38" d="M1113.36,173.61c3.48,1,7.93-1.41,9.27-6a7.22,7.22,0,0,0-13.85-4C1107.44,168.15,1109.89,172.59,1113.36,173.61Z"/><g class="cls-33"><path class="cls-24" d="M1111.26,162.74a.63.63,0,0,1-.4-.45,1.33,1.33,0,0,1,.46-1.11,3.51,3.51,0,0,1,1.43-1,1.3,1.3,0,0,1,1.28.05.55.55,0,0,1,.14.55.71.71,0,0,1-.19.31,1,1,0,0,1-.59.18,1.7,1.7,0,0,0-1.2.75,4,4,0,0,1-.27.5A.53.53,0,0,1,1111.26,162.74Z"/></g><rect class="cls-39" x="476.19" y="144.12" width="14.1" height="104.99"/><path class="cls-40" d="M426.66,235.62h56.13c1.35-1.53,2.15-3.68,1-5.28s-3.33-1.63-5.23-1.55a4.06,4.06,0,0,0-.79-2.37,4,4,0,0,0-2-1.46,4.1,4.1,0,0,0-4.48,1.45,8.38,8.38,0,0,0-15.68-4.86,4.59,4.59,0,0,0-8.43,1.52,9.58,9.58,0,0,0-6.65-4.6c-3-.48-5.56.85-8.21,1.91a12.54,12.54,0,0,0-6.92,5.71,8.4,8.4,0,0,0,1,9.33Z"/><path class="cls-40" d="M343,237.74H445.82a4.06,4.06,0,0,0,.05-3.21c-.05-.12-.11-.25-.17-.37a5.1,5.1,0,0,0-6.63-2.11,5.94,5.94,0,0,0-1.43-6.12,6,6,0,0,0-7.57-.33,6.3,6.3,0,1,0-8.71-9,6.38,6.38,0,0,0-9.71-6.53,7.88,7.88,0,0,0-14.06-2.18,9.28,9.28,0,1,0-17.08,7.25,6.56,6.56,0,0,0-12.4,1,7.4,7.4,0,0,0-8.18-1.52,7.53,7.53,0,0,0-3.43,9.51,7.43,7.43,0,0,0-7.67,1.31c-2.59,2.5-2.79,7.24.14,10.59A7.16,7.16,0,0,0,343,237.74Z"/><rect class="cls-41" x="447.93" y="126.78" width="70.64" height="19.26" rx="9.63"/><rect class="cls-24" x="452.94" y="131.66" width="4.28" height="5.27" rx="0.7"/><rect class="cls-24" x="459.2" y="131.66" width="4.28" height="5.27" rx="0.7"/><rect class="cls-24" x="465.46" y="131.66" width="4.28" height="5.27" rx="0.7"/><rect class="cls-24" x="471.71" y="131.66" width="4.28" height="5.27" rx="0.7"/><rect class="cls-24" x="477.97" y="131.66" width="4.28" height="5.27" rx="0.7"/><rect class="cls-24" x="484.23" y="131.66" width="4.28" height="5.27" rx="0.7"/><rect class="cls-24" x="490.49" y="131.66" width="4.28" height="5.27" rx="0.7"/><rect class="cls-24" x="496.75" y="131.66" width="4.28" height="5.27" rx="0.7"/><rect class="cls-24" x="503.01" y="131.66" width="4.28" height="5.27" rx="0.7"/><rect class="cls-24" x="509.27" y="131.66" width="4.28" height="5.27" rx="0.7"/><line class="cls-42" x1="452.89" y1="140.63" x2="513.59" y2="140.63"/><path class="cls-40" d="M917.65,230.45a4.94,4.94,0,0,0-2.16-2.25c-.86-.47-4.82-1.89-5.64-.64a4.92,4.92,0,0,0-.4-5.84,4.54,4.54,0,0,0-5.64-.65c1.1-2.5-.9-5.79-3.14-7-2.58-1.4-6.31-.57-8.55,1.19a6.61,6.61,0,0,0-4.93-3.36,7.24,7.24,0,0,0-7.56,4.57,8,8,0,0,0-4.56-2.18c-4.23-.55-8.16,2.1-8.77,5.94a6.31,6.31,0,0,0,.18,2.81,7.63,7.63,0,0,0-1.74.33,9.23,9.23,0,0,0-5.71,5.7,3.35,3.35,0,0,0,.2,2.34c-3.23,0-6.13,1.16-6.93,4.87-1.39,6.46,5.62,9.89,10.87,9.1a12.91,12.91,0,0,0,3.86-1.24,8.15,8.15,0,0,0,7.36,1.28c2.81,1.89,6.5,2.41,9.31.73a13,13,0,0,0,5.9,3.41,12.09,12.09,0,0,0,9.86-1.71l.47.29c4,2.35,21.6,4.8,20.89-4a8.21,8.21,0,0,0-1.46-4.46c-.4-.48-2.6-2.36-3.34-1.67a6.9,6.9,0,0,0,2.16-5A5.93,5.93,0,0,0,917.65,230.45Z"/><path class="cls-43" d="M62.44,124.1a2.13,2.13,0,0,1-1.89,2.54L50,127.83a2.12,2.12,0,0,1-2.39-2l-.3-6.91,0-.45a2.53,2.53,0,0,1,2.21-2.57l8.83-1a2.53,2.53,0,0,1,2.73,2l.08.44Z"/><rect class="cls-44" x="47.04" y="101.08" width="0.88" height="14.35" transform="translate(-19.38 10.77) rotate(-10.77)"/><rect class="cls-44" x="50.32" y="100.67" width="0.87" height="16.25" transform="translate(-21.93 13.25) rotate(-12.25)"/><rect class="cls-44" x="54.14" y="99.87" width="0.87" height="18.01" transform="translate(-13.08 7.61) rotate(-7.12)"/><rect class="cls-44" x="57.39" y="100" width="0.88" height="17.12" transform="translate(-5.88 3.35) rotate(-3.15)"/><path class="cls-45" d="M61.17,117.3l-13.83,1.57,0-.45a2.53,2.53,0,0,1,2.21-2.57l8.83-1a2.53,2.53,0,0,1,2.73,2Z"/><path class="cls-46" d="M88.46,30.77C84.18,13.68,70.65,2.29,52.28.31,51.17.19,50,.1,48.76.05a75.47,75.47,0,0,0-7.69.11c-.66,0-1.32.07-2,.13A62.1,62.1,0,0,0,28.88,2l-.25.07-.33.09A42.48,42.48,0,0,0,9,14.73C3.62,21.22.19,31.06,0,40.42-.44,62.4,17.13,77.05,30,87.75l2.24,1.87A75.67,75.67,0,0,1,45.12,103.5a1,1,0,0,0,.53.39,1.86,1.86,0,0,0,.34,0h.09l12-1.16a1,1,0,0,0,.83-.62,76.17,76.17,0,0,1,9.6-16.65h0l1.66-2.2C80.14,70.16,93.81,52.16,88.46,30.77Z"/><path class="cls-47" d="M56.41,101.93l-2.47.23-3.84.38-2.55.24c-8-16.62-25.17-29.25-32.85-41a39.49,39.49,0,0,1-2.86-38.35,50.66,50.66,0,0,1,12-16.22A61.2,61.2,0,0,1,29.15,3a61.5,61.5,0,0,1,10-1.66c.65-.06,1.29-.1,1.93-.14a75,75,0,0,1,7.61-.1c1.15.05,2.3.13,3.44.26a27.78,27.78,0,0,1,3.71,1.55A51,51,0,0,1,71.6,15.66a43.58,43.58,0,0,1,8.72,19.55C84.1,59.84,61.55,79.05,56.41,101.93Z"/><path class="cls-46" d="M62.86,50.81C61.46,62.67,57.05,74.43,55,85.68a62.58,62.58,0,0,0-1,16.48l-3.84.38a68.78,68.78,0,0,0-3.64-12.88C39.1,71.77,33.38,65.45,28.86,53.09c-4.71-12.87-5.79-24.4-1.08-36.88A32.05,32.05,0,0,1,39.19,1.29c.65-.06,1.29-.1,1.93-.14C47,4.22,51.75,9.36,54.9,13.39,65.49,27,63.46,45.73,62.86,50.81Z"/><path class="cls-46" d="M49.88,102.82l0-.23a67.51,67.51,0,0,0-3.63-12.83,194.33,194.33,0,0,0-10-20.64,112.28,112.28,0,0,1-7.59-15.94c-5.12-14-5.46-25.45-1.08-37.07a32.38,32.38,0,0,1,11.52-15l.11,0c.66-.06,1.3-.1,2-.14h.07l.06,0C46,3.39,50.65,7.53,55.11,13.23c7.07,9.06,9.84,22.06,8,37.61A147.06,147.06,0,0,1,58.69,71.3c-1.33,5-2.58,9.7-3.45,14.43a62.09,62.09,0,0,0-1,16.41l0,.26ZM39.28,1.55A31.86,31.86,0,0,0,28,16.3C23.69,27.79,24,39.11,29.11,53a110.71,110.71,0,0,0,7.55,15.87,195.17,195.17,0,0,1,10,20.69,68.92,68.92,0,0,1,3.61,12.7l3.35-.33a62.66,62.66,0,0,1,1.07-16.3c.87-4.74,2.18-9.69,3.46-14.46A148.44,148.44,0,0,0,62.6,50.78c1.81-15.41-.92-28.28-7.9-37.22-4.4-5.62-9-9.7-13.64-12.14C40.47,1.45,39.88,1.49,39.28,1.55Z"/><rect class="cls-43" x="46.33" y="114.21" width="15.21" height="3.19" transform="matrix(0.99, -0.11, 0.11, 0.99, -12.69, 6.8)"/><path class="cls-46" d="M46,103.2l-.19,0-.05-.07a76.94,76.94,0,0,0-13.07-14l-2.23-1.86C17.72,76.59.31,62.06.75,40.43.93,31.23,4.3,21.57,9.54,15.2a41.71,41.71,0,0,1,19-12.34l.33-.09.26-.07A62.49,62.49,0,0,1,39.17,1c.65-.06,1.29-.1,1.94-.14C43.58.73,46.17.7,48.74.79c1.22,0,2.35.13,3.46.26C70.26,3,83.54,14.17,87.74,31,93,52,79.46,69.83,69.56,82.86l-1.66,2.2a76.66,76.66,0,0,0-9.69,16.81l-.06.15ZM45.91,1.26c-1.61,0-3.21.05-4.77.15-.64,0-1.28.08-1.92.14a61,61,0,0,0-10,1.66L29,3.28l-.31.09A41.13,41.13,0,0,0,9.94,15.53C4.77,21.81,1.45,31.36,1.27,40.44.84,61.82,18.14,76.25,30.77,86.79L33,88.65a77,77,0,0,1,13.07,14l11.71-1.13a77.63,77.63,0,0,1,9.7-16.79l1.66-2.2C79,69.6,92.44,51.88,87.23,31.08,83.09,14.52,70,3.49,52.14,1.57c-1.09-.13-2.21-.21-3.42-.26C47.78,1.28,46.84,1.26,45.91,1.26Z"/><path class="cls-48" d="M68,43.52a7.38,7.38,0,0,0-2.74-1.44,4.57,4.57,0,0,0,.16-2.41,4.68,4.68,0,0,0-2-3l.07-.09a3,3,0,0,0,.4-2.7C63,31.11,59.67,30.09,57.12,30a6.33,6.33,0,0,0-3.25.81c0-.19-.07-.38-.11-.57a4,4,0,0,0-3.95-3.34,3.26,3.26,0,0,0-2.5,1.17A3.55,3.55,0,0,0,46.6,31c0,.26.09.5.13.72l-.46,0a6.07,6.07,0,0,0-2.71.84,4.16,4.16,0,0,0-1.39-2.72,4.09,4.09,0,0,0-3.1-1,4.22,4.22,0,0,0-2.59,1.21A3.72,3.72,0,0,0,34,29.41h0a4,4,0,0,0-3,2.12l-1.44,2.13a3.9,3.9,0,0,0-1.46-2.24,3.69,3.69,0,0,0-2.92-.64A3.84,3.84,0,0,0,22,35.36v0c.52,3.22,1.11,6.17,1.79,9l-.24,0a3.77,3.77,0,0,0-2.62,1.52,3.35,3.35,0,0,0-.47,2.63v0a89.08,89.08,0,0,0,3.14,10.81v0a4.6,4.6,0,0,0,4.5,2.83c2-.1,3.95-.22,5.9-.38h.09a3.46,3.46,0,0,0,2.4-1.18,8.11,8.11,0,0,0,4,.67h.07a6.73,6.73,0,0,0,5.17-3.55c.24.22.48.43.73.63A7.53,7.53,0,0,0,51.85,60H52a7.75,7.75,0,0,0,3.68-1.47,3.49,3.49,0,0,0,1.13,1.95,3.39,3.39,0,0,0,2.51.8h0a3.53,3.53,0,0,0,3.19-3.52v-.67a7.33,7.33,0,0,0,.79,0c4.21-.47,7.13-4.58,7.19-8.15A6.84,6.84,0,0,0,68,43.52Z"/><path class="cls-49" d="M24,35.14a1.94,1.94,0,0,1,1.6-2.4c1.08-.2,1.95.39,2.13,1.76.24,1.83.37,2.71.66,4.41q2.1-3,4.29-6.25c.64-1,1.08-1.18,1.62-1.25a2,2,0,0,1,2,1.73,2.49,2.49,0,0,1-.57,1.62C34.42,36.42,33.18,38,32,39.55c1.79,1.38,3.51,2.69,5.14,3.92.57.43,1,.76,1.1,1.3.12.9-.61,1.46-1.5,1.56a3.38,3.38,0,0,1-2.22-.93q-2.72-1.92-5.7-4.09c.28,1.51.59,3,.93,4.34.23,1-.35,1.54-1.33,1.65a1.79,1.79,0,0,1-2.13-1.22A108.17,108.17,0,0,1,24,35.14Z"/><path class="cls-50" d="M39.29,30.88a2.08,2.08,0,0,1,2.27,2,2.21,2.21,0,0,1-2.05,2.24,2,2,0,0,1-2.29-1.85A2.3,2.3,0,0,1,39.29,30.88ZM37.9,38a1.75,1.75,0,0,1,1.67-1.84,1.6,1.6,0,0,1,1.86,1.49c.12,2.45.26,4.73.4,6.85a1.52,1.52,0,0,1-1.52,1.46,1.45,1.45,0,0,1-1.76-1.1C38.31,42.68,38.09,40.4,37.9,38Z"/><path class="cls-51" d="M53.78,42.89a1.5,1.5,0,0,1-1.4,1.73,1.74,1.74,0,0,1-1.64-.83,3.28,3.28,0,0,1-2.65,1.48c-3.07.32-5.6-2.49-6-5.19s1.19-6.08,4.3-6.29a4.09,4.09,0,0,1,2.82.76c-.25-1.53-.38-2.29-.65-3.84A1.33,1.33,0,0,1,49.86,29a2,2,0,0,1,1.89,1.66C52.55,34.8,53.23,38.87,53.78,42.89ZM45.5,39.76c.21,1.47,1.18,2.61,2.65,2.47s2.08-1.4,1.87-2.84a2.63,2.63,0,0,0-2.64-2.52C45.92,37,45.29,38.28,45.5,39.76Z"/><path class="cls-52" d="M55.5,40.59c1.15-.12,2.13.74,3.67.58.73-.07.94-.4.88-.72-.12-.65-.92-.64-3.09-1.22s-3.24-1.14-3.67-3c-.55-2.33,1.36-4.2,3.81-4.15,1.8,0,4.23.68,4.77,2.36a1.1,1.1,0,0,1-1.14,1.42c-.7,0-2-.77-3.08-.72-.49,0-1,.43-.79.76,1,1.66,5.9,1.05,6.51,4.12.42,2.13-1.76,3.64-3.84,3.91-1.64.2-4.71.1-5.23-1.62A1.36,1.36,0,0,1,55.5,40.59Z"/><path class="cls-53" d="M22.37,48.22c-.22-1.08.47-1.74,1.55-1.9a1.78,1.78,0,0,1,2.2,1.38c.72,3.15,1.58,6.29,2.61,9.47,1.61-.12,2.42-.19,4-.34A2,2,0,0,1,35.1,58.2c.31.93-.16,1.62-1.32,1.71q-2.91.23-5.85.38a2.54,2.54,0,0,1-2.49-1.49A90,90,0,0,1,22.37,48.22Z"/><path class="cls-54" d="M44.85,52.6c.36,2.89-1.35,6.44-4.55,6.78S34,57.2,33.11,54.06a5.82,5.82,0,0,1,4.94-7.18A6.28,6.28,0,0,1,44.85,52.6Zm-8.12,1c.32,1.58,1.45,2.78,3,2.58s2.07-1.6,1.82-3.17-1.3-2.86-2.88-2.67S36.4,52,36.73,53.65Z"/><path class="cls-55" d="M56.9,51.21A6.19,6.19,0,0,1,51.7,58c-3.34.41-6.14-2.47-6.52-5.44a5.92,5.92,0,0,1,5.07-6.73A6.06,6.06,0,0,1,56.9,51.21Zm-8.26,1c.2,1.55,1.2,2.75,2.71,2.57s2.23-1.57,2.06-3.12-1.18-2.75-2.74-2.57S48.43,50.65,48.64,52.21Z"/><path class="cls-56" d="M56.78,46.58a1.64,1.64,0,0,1,3-1,3.79,3.79,0,0,1,2.79-1.63,5.11,5.11,0,0,1,5.87,4.89c0,2.8-2.39,5.89-5.39,6.23a3.46,3.46,0,0,1-2.59-.54c0,1.28,0,1.91,0,3.17a1.6,1.6,0,0,1-1.43,1.62,1.33,1.33,0,0,1-1.44-1.36C57.49,54.23,57.2,50.46,56.78,46.58Zm8.09,2.73A2.15,2.15,0,0,0,62.38,47a2.54,2.54,0,0,0-2.1,2.91c.09,1.4.91,2.47,2.34,2.3A2.68,2.68,0,0,0,64.87,49.31Z"/><path class="cls-57" d="M48.11,70.16c-7.43.92-14.58-.65-19.6-4.32a1.73,1.73,0,1,1,2-2.79c4.26,3.1,10.66,4.48,17.14,3.68S60,63,63.42,59a1.73,1.73,0,1,1,2.65,2.22C62.09,66,55.54,69.24,48.11,70.16Z"/><path class="cls-43" d="M137.7,144.76a1.53,1.53,0,0,1-1.35,1.82l-7.55.85a1.51,1.51,0,0,1-1.71-1.47l-.22-5v-.32a1.82,1.82,0,0,1,1.59-1.85l6.32-.72a1.82,1.82,0,0,1,2,1.45l.06.31Z"/><rect class="cls-44" x="126.66" y="128.25" width="0.63" height="10.29" transform="translate(-22.68 26.06) rotate(-10.77)"/><rect class="cls-44" x="129.02" y="127.96" width="0.63" height="11.65" transform="translate(-25.44 30.49) rotate(-12.25)"/><rect class="cls-44" x="131.75" y="127.38" width="0.63" height="12.92" transform="translate(-15.57 17.4) rotate(-7.12)"/><rect class="cls-44" x="134.08" y="127.48" width="0.63" height="12.28" transform="translate(-7.15 7.6) rotate(-3.15)"/><path class="cls-45" d="M136.79,139.88,126.87,141v-.32a1.82,1.82,0,0,1,1.59-1.85l6.32-.72a1.82,1.82,0,0,1,2,1.45Z"/><path class="cls-41" d="M156.63,77.77c-3.1-12.37-12.89-20.62-26.18-22-.81-.09-1.65-.15-2.54-.19a53.84,53.84,0,0,0-5.55.08c-.47,0-1,0-1.41.1a44.35,44.35,0,0,0-7.39,1.22l-.41.12a30.64,30.64,0,0,0-14,9.11c-3.87,4.7-6.35,11.82-6.49,18.59-.32,15.9,12.34,26.45,21.58,34.16l1.6,1.34a53.47,53.47,0,0,1,9.22,9.9,1,1,0,0,0,.52.38,1.21,1.21,0,0,0,.34.05H126l8.59-.83a1,1,0,0,0,.83-.63,54.47,54.47,0,0,1,6.84-11.87h0l1.2-1.57C150.65,106.21,160.5,93.24,156.63,77.77Z"/><path class="cls-47" d="M133.38,128.86l-1.77.17-2.76.27-1.82.17c-5.75-11.91-18-21-23.56-29.4a28.34,28.34,0,0,1-2-27.5,36.17,36.17,0,0,1,8.64-11.63,41,41,0,0,1,3.78-3A44,44,0,0,1,121,56.7l1.39-.1c1.88-.12,3.72-.13,5.45-.07.83,0,1.65.09,2.47.18A19.88,19.88,0,0,1,133,57.83,36.64,36.64,0,0,1,144.27,67a31.25,31.25,0,0,1,6.25,14C153.23,98.68,137.07,112.45,133.38,128.86Z"/><path class="cls-41" d="M138,92.21c-1,8.5-4.16,16.93-5.64,25a44.56,44.56,0,0,0-.75,11.82l-2.76.27a48.79,48.79,0,0,0-2.61-9.23c-5.27-12.84-9.37-17.36-12.61-26.23-3.38-9.22-4.16-17.49-.78-26.44A23,23,0,0,1,121,56.7l1.39-.1c4.22,2.2,7.61,5.89,9.88,8.78C139.89,75.1,138.43,88.57,138,92.21Z"/><path class="cls-41" d="M128.7,129.5l0-.17a49.23,49.23,0,0,0-2.6-9.19,140.15,140.15,0,0,0-7.18-14.8,79.9,79.9,0,0,1-5.44-11.43c-3.68-10.06-3.92-18.25-.78-26.58a23.16,23.16,0,0,1,8.26-10.78l.08,0c.47-.05.93-.08,1.4-.1h0l0,0a31.69,31.69,0,0,1,9.94,8.82c5.08,6.5,7.06,15.82,5.75,27A106.15,106.15,0,0,1,135,106.9c-1,3.58-1.86,7-2.48,10.34a44.94,44.94,0,0,0-.75,11.77l0,.19Zm-7.61-72.61A22.8,22.8,0,0,0,113,67.46c-3.11,8.24-2.87,16.36.77,26.32a80.24,80.24,0,0,0,5.42,11.38A139.2,139.2,0,0,1,126.41,120a49.33,49.33,0,0,1,2.6,9.1l2.39-.24a45.63,45.63,0,0,1,.77-11.68c.63-3.41,1.57-7,2.48-10.38a106,106,0,0,0,3.17-14.61c1.3-11-.66-20.28-5.67-26.69a31.41,31.41,0,0,0-9.78-8.71C122,56.82,121.53,56.84,121.09,56.89Z"/><rect class="cls-43" x="126.15" y="137.66" width="10.91" height="2.28" transform="translate(-14.78 15.69) rotate(-6.46)"/><path class="cls-58" d="M156.44,80.84l-.13-.14a.3.3,0,0,0-.27-.08.28.28,0,0,0-.24.33,1.34,1.34,0,0,1-.32,1.33,2.82,2.82,0,0,1-1.47.53,11.61,11.61,0,0,1-3.47-.23h0a.42.42,0,0,0-.47.23,4.61,4.61,0,0,1-2,2.14,7.34,7.34,0,0,1-3,.8,14.93,14.93,0,0,1-3.2-.15,20.78,20.78,0,0,1-3.14-.74h0a.42.42,0,0,0-.45.08l0,0a16.91,16.91,0,0,1-2.92,2,24.65,24.65,0,0,1-3.23,1.56,29.5,29.5,0,0,1-7,1.87,25.8,25.8,0,0,1-7.18.2,18.89,18.89,0,0,1-3.5-.71,12.77,12.77,0,0,1-3.23-1.37l-.07,0a.43.43,0,0,0-.45,0h0a26,26,0,0,1-3.11,1.33,19.53,19.53,0,0,1-3.25.88,8.63,8.63,0,0,1-3.24,0,3.44,3.44,0,0,1-2.36-1.63.57.57,0,0,0-.73-.23h0a11.13,11.13,0,0,1-2.83,1,2.37,2.37,0,0,1-1.31-.06c-.33-.14-.45-.56-.41-1a.29.29,0,0,0-.14-.25.28.28,0,0,0-.37.1l0,.08a1.51,1.51,0,0,0-.22.94,1.44,1.44,0,0,0,.63,1,2.94,2.94,0,0,0,2,.38,7,7,0,0,0,2.56-.85,3.24,3.24,0,0,0,.85,1.27,4.59,4.59,0,0,0,2,1,8.67,8.67,0,0,0,4-.06,17.06,17.06,0,0,0,1.8-.53c.57-.22,1.13-.46,1.67-.73a15.09,15.09,0,0,0,2.75-1.79,14.41,14.41,0,0,0,6.76,3,22.43,22.43,0,0,0,3.92.37,26.64,26.64,0,0,0,3.9-.31,24.86,24.86,0,0,0,7.39-2.32,23.3,23.3,0,0,0,3.28-2,15.89,15.89,0,0,0,2.53-2.39,12,12,0,0,0,3,1.19,11.72,11.72,0,0,0,3.57.36,7.17,7.17,0,0,0,3.64-1.13,4.37,4.37,0,0,0,1.92-2.75,7.73,7.73,0,0,0,1.42.42,7.28,7.28,0,0,0,2,.09,3.48,3.48,0,0,0,2.15-.9,1.86,1.86,0,0,0,.5-1.23A1.62,1.62,0,0,0,156.44,80.84Z"/><path class="cls-59" d="M8.2,173.49H69.67a5.82,5.82,0,0,0,2.48-2.21A7.21,7.21,0,0,0,71,163a7.89,7.89,0,0,0-6.51-2.23,8.62,8.62,0,0,0-6.22,4.44c.3-7.43-4.4-14-10.89-15.76-7.65-2.14-16.42,2.7-18.84,11.32a21.12,21.12,0,0,0-12.5-2.13,16,16,0,0,0-8,3.5A9.5,9.5,0,0,0,5.79,165a6,6,0,0,0,2.41,8.48Z"/><path class="cls-59" d="M638.72,127.88H696a5.63,5.63,0,0,0,2.31-2.21c1.77-3.22-.51-7.32-1-8.28-.91-1.62-2.22-4-4.83-4.46-3.42-.61-6,2.62-6.11,2.81,3-5.65,2-12.18-1.31-15-4.07-3.45-12.4-2-16.16,5.62a9.79,9.79,0,0,0-12.23-.93,11.23,11.23,0,0,0-4.37,9.83,10.08,10.08,0,0,0-6.22-2.24,10.94,10.94,0,0,0-7.49,3.5,9.47,9.47,0,0,0-2.09,2.87,7.21,7.21,0,0,0-.79,3.7A6.82,6.82,0,0,0,638.72,127.88Z"/><path class="cls-59" d="M791.14,70.51H866a7.07,7.07,0,0,0,3-2.64c1.87-3.1,1-7.29-1.36-9.88a8.66,8.66,0,0,0-7.25-3,8.56,8.56,0,0,0-6.13,4.16c-.49-2.39-2.64-11.35-10.84-16.17-2.46-1.44-7.63-4.48-12.74-2.31-4.31,1.83-7.08,6.75-7.07,12.48a12.57,12.57,0,0,0-14.15-6.47A12.07,12.07,0,0,0,801,56c-.46-.16-6.12-2-10,1a10.48,10.48,0,0,0-2.74,3.43,8.13,8.13,0,0,0-1,4.42C787.5,68.24,790.65,70.21,791.14,70.51Z"/><rect class="cls-60" x="708.67" y="228.47" width="21.08" height="2.93" transform="translate(487.83 948.68) rotate(-89.88)"/><path class="cls-61" d="M727.52,211.61c0,8.56-3.73,12.66-8.3,12.66s-8.27-4.13-8.25-12.7,3.92-16.51,8.49-16.51S727.53,203,727.52,211.61Z"/><rect class="cls-60" x="720.5" y="228.49" width="21.08" height="2.94" transform="translate(499.61 960.54) rotate(-89.88)"/><path class="cls-62" d="M739.36,211.63c0,8.57-3.74,12.67-8.3,12.66s-8.27-4.13-8.25-12.69,3.91-16.52,8.48-16.51S739.37,203.06,739.36,211.63Z"/><rect class="cls-60" x="733.54" y="228.49" width="21.08" height="2.94" transform="translate(512.63 973.58) rotate(-89.88)"/><path class="cls-61" d="M752.4,211.63c0,8.57-3.73,12.67-8.3,12.66s-8.27-4.13-8.25-12.69,3.92-16.52,8.48-16.51S752.41,203.06,752.4,211.63Z"/><rect class="cls-60" x="683.19" y="228.47" width="21.08" height="2.93" transform="translate(462.4 923.2) rotate(-89.88)"/><path class="cls-61" d="M702,211.61c0,8.56-3.73,12.66-8.3,12.66s-8.26-4.13-8.24-12.7,3.91-16.51,8.48-16.51S702.06,203,702,211.61Z"/><rect class="cls-60" x="695.03" y="228.49" width="21.08" height="2.94" transform="translate(474.19 935.06) rotate(-89.88)"/><path class="cls-62" d="M713.88,211.63c0,8.57-3.73,12.67-8.3,12.66s-8.26-4.13-8.24-12.69,3.91-16.52,8.48-16.51S713.9,203.06,713.88,211.63Z"/><path class="cls-38" d="M970.93,128.67a1.41,1.41,0,0,1-1.41-1.4V51.33a1.41,1.41,0,1,1,2.81,0v75.94A1.4,1.4,0,0,1,970.93,128.67Z"/><path class="cls-38" d="M970.72,127.67H894.79a1.41,1.41,0,1,1,0-2.81h75.93a1.41,1.41,0,1,1,0,2.81Z"/><path class="cls-38" d="M969.72,203.82a1.41,1.41,0,0,1-1.4-1.41V126.47a1.41,1.41,0,1,1,2.81,0v75.94A1.41,1.41,0,0,1,969.72,203.82Z"/><path class="cls-38" d="M1045.87,128.88H969.92a1.41,1.41,0,0,1,0-2.81h75.95a1.41,1.41,0,0,1,0,2.81Z"/><path class="cls-38" d="M971.81,128.76a1.4,1.4,0,0,1-1.22-.7L932.53,62.34A1.4,1.4,0,1,1,935,60.93L973,126.65a1.41,1.41,0,0,1-.51,1.92A1.37,1.37,0,0,1,971.81,128.76Z"/><path class="cls-38" d="M905.42,166.06a1.4,1.4,0,0,1-.7-2.62l65.71-38.07a1.4,1.4,0,0,1,1.41,2.43l-65.72,38.07A1.37,1.37,0,0,1,905.42,166.06Z"/><path class="cls-38" d="M1008.43,194.38a1.4,1.4,0,0,1-1.21-.7L969.15,128a1.4,1.4,0,1,1,2.43-1.41l38.07,65.71a1.41,1.41,0,0,1-1.22,2.11Z"/><path class="cls-38" d="M971,129.43a1.4,1.4,0,0,1-.7-2.62l65.71-38.06a1.4,1.4,0,0,1,1.41,2.43l-65.71,38.06A1.4,1.4,0,0,1,971,129.43Z"/><path class="cls-38" d="M972.61,128.39a1.39,1.39,0,0,1-.7-.19L906,90.42a1.4,1.4,0,1,1,1.4-2.43l65.87,37.78a1.4,1.4,0,0,1-.7,2.62Z"/><path class="cls-38" d="M933.86,193.94a1.46,1.46,0,0,1-.7-.18,1.42,1.42,0,0,1-.52-1.92L970.43,126a1.4,1.4,0,1,1,2.43,1.4l-37.78,65.88A1.4,1.4,0,0,1,933.86,193.94Z"/><path class="cls-38" d="M1037.2,166.82a1.37,1.37,0,0,1-.7-.19l-65.88-37.78a1.41,1.41,0,1,1,1.4-2.44l65.88,37.78a1.41,1.41,0,0,1-.7,2.63Z"/><path class="cls-38" d="M972.29,129.36a1.37,1.37,0,0,1-.7-.19,1.39,1.39,0,0,1-.52-1.91l37.78-65.88a1.4,1.4,0,0,1,2.44,1.39l-37.78,65.88A1.4,1.4,0,0,1,972.29,129.36Z"/><path class="cls-38" d="M938,244.37a4.14,4.14,0,0,1-1.15-.16,4.06,4.06,0,0,1-2.75-5.05l32.38-110.24a4.06,4.06,0,0,1,3.89-2.92h0a4.06,4.06,0,0,1,3.89,2.91l32.38,108.64a4.06,4.06,0,0,1-7.79,2.32L970.35,144.4l-28.5,97A4.07,4.07,0,0,1,938,244.37Z"/><path class="cls-38" d="M971.53,180.63a54.56,54.56,0,1,1,54.56-54.56A54.62,54.62,0,0,1,971.53,180.63Zm0-106.32a51.76,51.76,0,1,0,51.75,51.76A51.82,51.82,0,0,0,971.53,74.31Z"/><path class="cls-38" d="M971.52,202.48a76.41,76.41,0,1,1,76.42-76.41A76.5,76.5,0,0,1,971.52,202.48Zm0-150a73.6,73.6,0,1,0,73.61,73.6A73.69,73.69,0,0,0,971.52,52.47Z"/><path class="cls-63" d="M978.52,52.13a7.6,7.6,0,1,1-7.59-7.6A7.59,7.59,0,0,1,978.52,52.13Z"/><path class="cls-63" d="M895.58,118.67a7.6,7.6,0,1,1-7.59,7.6A7.6,7.6,0,0,1,895.58,118.67Z"/><path class="cls-63" d="M962.13,201.61a7.6,7.6,0,1,1,7.59,7.6A7.59,7.59,0,0,1,962.13,201.61Z"/><path class="cls-63" d="M1045.07,135.06a7.6,7.6,0,1,1,7.59-7.59A7.6,7.6,0,0,1,1045.07,135.06Z"/><path class="cls-63" d="M940.71,58.53a7.59,7.59,0,1,1-10.37-2.77A7.58,7.58,0,0,1,940.71,58.53Z"/><path class="cls-63" d="M902.31,157.68a7.59,7.59,0,1,1-2.77,10.38A7.59,7.59,0,0,1,902.31,157.68Z"/><path class="cls-63" d="M1001.46,196.09a7.59,7.59,0,1,1,10.38,2.77A7.6,7.6,0,0,1,1001.46,196.09Z"/><path class="cls-63" d="M1039.87,96.94a7.6,7.6,0,1,1,2.76-10.38A7.6,7.6,0,0,1,1039.87,96.94Z"/><path class="cls-63" d="M911.21,83a7.6,7.6,0,1,1-10.37,2.81A7.6,7.6,0,0,1,911.21,83Z"/><path class="cls-63" d="M927.67,188.07a7.59,7.59,0,1,1,2.81,10.37A7.6,7.6,0,0,1,927.67,188.07Z"/><path class="cls-63" d="M1032.73,171.6a7.59,7.59,0,1,1,10.36-2.81A7.59,7.59,0,0,1,1032.73,171.6Z"/><path class="cls-63" d="M1016.26,66.55a7.59,7.59,0,1,1-2.81-10.37A7.6,7.6,0,0,1,1016.26,66.55Z"/><path class="cls-38" d="M984.72,126.07a13.19,13.19,0,1,1-13.19-13.19A13.2,13.2,0,0,1,984.72,126.07Z"/><path class="cls-64" d="M979.17,126.07a7.65,7.65,0,1,1-7.64-7.64A7.64,7.64,0,0,1,979.17,126.07Z"/><path class="cls-65" d="M898.26,119a.58.58,0,0,0,.32-.52.59.59,0,0,0-.59-.59h-4.22a.6.6,0,0,0-.59.59.59.59,0,0,0,.46.56,8.71,8.71,0,0,0-6.69,8.32,9.1,9.1,0,0,0,18.18,0A8.72,8.72,0,0,0,898.26,119ZM889,127a7.14,7.14,0,0,1,14.25,0Z"/><rect class="cls-65" x="892.92" y="116.96" width="5.82" height="2.45" rx="0.92"/><path class="cls-64" d="M909.66,80.93a.58.58,0,0,0,.32-.52.59.59,0,0,0-.59-.59h-4.22a.6.6,0,0,0-.59.59A.59.59,0,0,0,905,81a8.71,8.71,0,0,0-6.69,8.32,9.1,9.1,0,0,0,18.18,0A8.73,8.73,0,0,0,909.66,80.93Zm-9.25,8a7.13,7.13,0,0,1,14.24,0Z"/><rect class="cls-64" x="904.32" y="78.87" width="5.82" height="2.45" rx="0.92"/><path class="cls-39" d="M908,155.44a.58.58,0,0,0-.27-1.1H903.5a.58.58,0,0,0-.58.58.57.57,0,0,0,.45.56,8.71,8.71,0,0,0-6.69,8.32,9.1,9.1,0,0,0,18.18,0A8.72,8.72,0,0,0,908,155.44Zm-9.25,8a7.14,7.14,0,0,1,14.25,0Z"/><rect class="cls-39" x="902.66" y="153.38" width="5.82" height="2.45" rx="0.92"/><path class="cls-39" d="M936.63,53.4a.58.58,0,0,0-.27-1.1h-4.22a.59.59,0,0,0-.59.59.58.58,0,0,0,.46.55,8.71,8.71,0,0,0-6.69,8.32,9.1,9.1,0,0,0,18.18,0A8.73,8.73,0,0,0,936.63,53.4Zm-9.25,8a7.13,7.13,0,0,1,14.24,0Z"/><rect class="cls-39" x="931.29" y="51.34" width="5.82" height="2.45" rx="0.92"/><path class="cls-64" d="M936.35,183.24a.57.57,0,0,0,.32-.51.59.59,0,0,0-.59-.59h-4.22a.59.59,0,0,0-.58.59.58.58,0,0,0,.45.56A8.7,8.7,0,0,0,925,191.6a9.1,9.1,0,0,0,18.18,0A8.72,8.72,0,0,0,936.35,183.24Zm-9.25,8a7.14,7.14,0,0,1,14.25,0Z"/><rect class="cls-64" x="931.02" y="181.18" width="5.82" height="2.45" rx="0.92"/><path class="cls-39" d="M1026.94,90a9.1,9.1,0,0,0,18.18,0,8.71,8.71,0,0,0-6.69-8.32.58.58,0,0,0,.46-.55.59.59,0,0,0-.59-.59h-4.22a.58.58,0,0,0-.27,1.1A8.73,8.73,0,0,0,1026.94,90Zm1.88-.33a7.13,7.13,0,0,1,14.24,0Z"/><rect class="cls-39" x="1033.33" y="79.56" width="5.82" height="2.45" rx="0.92" transform="translate(2072.47 161.57) rotate(180)"/><path class="cls-64" d="M1027.49,164.77a9.11,9.11,0,0,0,18.19,0,8.72,8.72,0,0,0-6.69-8.31.58.58,0,0,0,.45-.56.59.59,0,0,0-.59-.59h-4.21a.59.59,0,0,0-.59.59.57.57,0,0,0,.32.51A8.73,8.73,0,0,0,1027.49,164.77Zm1.88-.33a7.13,7.13,0,0,1,14.24,0Z"/><rect class="cls-64" x="1033.88" y="154.35" width="5.82" height="2.45" rx="0.92" transform="translate(2073.59 311.15) rotate(180)"/><path class="cls-64" d="M1000.66,62a9.11,9.11,0,0,0,18.19,0,8.72,8.72,0,0,0-6.69-8.32.57.57,0,0,0,.45-.56.58.58,0,0,0-.59-.58h-4.22a.58.58,0,0,0-.26,1.1A8.72,8.72,0,0,0,1000.66,62Zm1.88-.34a7.13,7.13,0,0,1,14.24,0Z"/><rect class="cls-64" x="1007.05" y="51.62" width="5.82" height="2.45" rx="0.92" transform="translate(2019.92 105.69) rotate(180)"/><path class="cls-39" d="M999,192.16a9.1,9.1,0,0,0,18.18,0,8.72,8.72,0,0,0-6.69-8.32.57.57,0,0,0,.45-.56.58.58,0,0,0-.58-.58h-4.22a.58.58,0,0,0-.27,1.1A8.72,8.72,0,0,0,999,192.16Zm1.87-.33a7.14,7.14,0,0,1,14.25,0Z"/><rect class="cls-39" x="1005.38" y="181.74" width="5.82" height="2.45" rx="0.92" transform="translate(2016.59 365.93) rotate(180)"/><path class="cls-65" d="M973.05,43.11a.57.57,0,0,0,.32-.51.59.59,0,0,0-.59-.59h-4.22a.59.59,0,0,0-.58.59.58.58,0,0,0,.45.56,8.72,8.72,0,0,0-6.69,8.31,9.11,9.11,0,0,0,18.19,0A8.73,8.73,0,0,0,973.05,43.11Zm-9.25,8a7.14,7.14,0,0,1,14.25,0Z"/><rect class="cls-65" x="967.72" y="41.05" width="5.82" height="2.45" rx="0.92"/><path class="cls-65" d="M972.22,192.7a.6.6,0,0,0,.32-.52.59.59,0,0,0-.59-.59h-4.22a.6.6,0,0,0-.59.59.59.59,0,0,0,.46.56,8.72,8.72,0,0,0-6.7,8.32,9.11,9.11,0,0,0,18.19,0A8.73,8.73,0,0,0,972.22,192.7Zm-9.25,8a7.13,7.13,0,0,1,14.24,0Z"/><rect class="cls-65" x="966.88" y="190.64" width="5.82" height="2.45" rx="0.92"/><path class="cls-65" d="M1047.29,119a.6.6,0,0,0,.32-.52.59.59,0,0,0-.59-.59h-4.22a.6.6,0,0,0-.59.59.59.59,0,0,0,.46.56,8.72,8.72,0,0,0-6.7,8.32,9.11,9.11,0,0,0,18.19,0A8.73,8.73,0,0,0,1047.29,119Zm-9.25,8a7.13,7.13,0,0,1,14.24,0Z"/><rect class="cls-65" x="1041.95" y="116.96" width="5.82" height="2.45" rx="0.92"/><path class="cls-39" d="M505.15,244.12a1,1,0,0,1-1-1V204.5a1,1,0,0,1,2,0v38.62A1,1,0,0,1,505.15,244.12Z"/><path class="cls-39" d="M519.72,244.12a1,1,0,0,1-1-1V184.75a1,1,0,0,1,2,0v58.37A1,1,0,0,1,519.72,244.12Z"/><path class="cls-39" d="M534.3,244.12a1,1,0,0,1-1-1V173.58a1,1,0,0,1,2,0v69.54A1,1,0,0,1,534.3,244.12Z"/><path class="cls-39" d="M548.88,244.12a1,1,0,0,1-1-1V180.6a1,1,0,0,1,2,0v62.52A1,1,0,0,1,548.88,244.12Z"/><path class="cls-39" d="M563.46,244.12a1,1,0,0,1-1-1V188.47a1,1,0,0,1,2,0v54.65A1,1,0,0,1,563.46,244.12Z"/><path class="cls-39" d="M578,244.12a1,1,0,0,1-1-1v-47a1,1,0,1,1,2,0v47A1,1,0,0,1,578,244.12Z"/><path class="cls-39" d="M592.6,244.12a1,1,0,0,1-1-1V187.39a1,1,0,0,1,2,0v55.73A1,1,0,0,1,592.6,244.12Z"/><path class="cls-39" d="M607.18,244.12a1,1,0,0,1-1-1V181.94a1,1,0,1,1,2,0v61.18A1,1,0,0,1,607.18,244.12Z"/><path class="cls-39" d="M621.76,244.12a1,1,0,0,1-1-1v-63a1,1,0,0,1,2,0v63A1,1,0,0,1,621.76,244.12Z"/><path class="cls-39" d="M636.33,244.12a1,1,0,0,1-1-1V181.79a1,1,0,1,1,2,0v61.33A1,1,0,0,1,636.33,244.12Z"/><path class="cls-39" d="M650.91,244.12a1,1,0,0,1-1-1V186.65a1,1,0,1,1,2,0v56.47A1,1,0,0,1,650.91,244.12Z"/><path class="cls-39" d="M665.48,244.12a1,1,0,0,1-1-1V194.34a1,1,0,0,1,2,0v48.78A1,1,0,0,1,665.48,244.12Z"/><path class="cls-39" d="M672,244.12a1,1,0,0,1-1-1V198a1,1,0,0,1,2,0v45.17A1,1,0,0,1,672,244.12Z"/><path class="cls-39" d="M512.33,240a1,1,0,0,1-1-1V190.85a1,1,0,0,1,2,0V239A1,1,0,0,1,512.33,240Z"/><path class="cls-39" d="M526.9,240a1,1,0,0,1-1-1V177.83a1,1,0,0,1,2,0V239A1,1,0,0,1,526.9,240Z"/><path class="cls-39" d="M541.48,240a1,1,0,0,1-1-1V176.46a1,1,0,0,1,2,0V239A1,1,0,0,1,541.48,240Z"/><path class="cls-39" d="M556.06,240a1,1,0,0,1-1-1V184.32a1,1,0,1,1,2,0V239A1,1,0,0,1,556.06,240Z"/><path class="cls-39" d="M570.63,240a1,1,0,0,1-1-1V200.91a1,1,0,1,1,2,0V239A1,1,0,0,1,570.63,240Z"/><path class="cls-39" d="M585.21,240a1,1,0,0,1-1-1V192a1,1,0,1,1,2,0V239A1,1,0,0,1,585.21,240Z"/><path class="cls-39" d="M599.78,240a1,1,0,0,1-1-1V177.79a1,1,0,1,1,2,0V239A1,1,0,0,1,599.78,240Z"/><path class="cls-39" d="M614.36,240a1,1,0,0,1-1-1V176a1,1,0,0,1,2,0v63A1,1,0,0,1,614.36,240Z"/><path class="cls-39" d="M628.94,240a1,1,0,0,1-1-1V177.65a1,1,0,1,1,2,0V239A1,1,0,0,1,628.94,240Z"/><path class="cls-39" d="M643.51,240a1,1,0,0,1-1-1V182.51a1,1,0,0,1,2,0V239A1,1,0,0,1,643.51,240Z"/><path class="cls-39" d="M658.09,240a1,1,0,0,1-1-1V190.2a1,1,0,1,1,2,0V239A1,1,0,0,1,658.09,240Z"/><path class="cls-66" d="M680.06,244.86a1.74,1.74,0,0,1-1.73-1.74V204.44c-46.09-35-76.25-23-99.69-6.59h0c-4.56,3.18-8.95,6.57-13.2,9.85-15.79,12.2-30.7,23.71-48,19-6.76-1.86-11.6-5.83-13.63-11.17-2.27-6-.89-13.32,3.88-20.69,3.05-4.69,14.84-15,18.38-18,1.47-1.26,2.7-2.29,3.12-2.61l.46-.35a7.7,7.7,0,0,1,3.05-1.81l.19,0c1.61-.28,2.84-.31,6.31,1.52,12.37,6.52,28.71,15.31,38.35,20.86,10.49-7.24,24.71-15.34,42.8-16,19.11-.67,39,7.13,60.75,23.8a1.71,1.71,0,0,1,.68,1.37v39.54A1.74,1.74,0,0,1,680.06,244.86ZM533.39,175.42a15.72,15.72,0,0,0-1.6,1.15l-.48.37c-.25.19-1.24,1-3,2.48-6.78,5.83-15.5,13.84-17.72,17.27-4.16,6.41-5.42,12.65-3.55,17.57,1.66,4.34,5.57,7.47,11.31,9.06,15.61,4.29,29.2-6.2,44.94-18.36,3.59-2.77,7.29-5.63,11.12-8.38-9.79-5.6-25.61-14.09-36.84-20-2.68-1.42-3.21-1.33-4.12-1.18Zm-.1,0h0Z"/><path class="cls-38" d="M587.75,186.52a1.07,1.07,0,0,1-.28,1.48l-12.85,8.81a1.07,1.07,0,0,1-1.48-.28l-4.26-6.21a1.06,1.06,0,0,1,.28-1.48L582,180a1.06,1.06,0,0,1,1.48.28Z"/><rect class="cls-24" x="570.19" y="185.38" width="14.64" height="3.64" transform="translate(-4.74 359.09) rotate(-34.41)"/><path class="cls-38" d="M603.94,179.67a1.06,1.06,0,0,1-.58,1.38L589,187a1.05,1.05,0,0,1-1.39-.58l-2.86-7a1.06,1.06,0,0,1,.57-1.39l14.41-5.93a1.07,1.07,0,0,1,1.39.58Z"/><rect class="cls-24" x="586.46" y="176.38" width="14.65" height="3.64" transform="translate(-23.14 239.32) rotate(-22.36)"/><path class="cls-38" d="M620.88,177.58a1.07,1.07,0,0,1-.93,1.18l-15.47,1.84a1.07,1.07,0,0,1-1.18-.94l-.89-7.47a1.06,1.06,0,0,1,.93-1.18l15.48-1.84a1.07,1.07,0,0,1,1.18.93Z"/><rect class="cls-24" x="604.17" y="171.62" width="14.64" height="3.64" transform="translate(-16.17 73.23) rotate(-6.76)"/><path class="cls-38" d="M638.14,178.73a1.06,1.06,0,0,1-1.15,1l-15.53-1.32a1.07,1.07,0,0,1-1-1.15l.64-7.5a1.06,1.06,0,0,1,1.15-1l15.52,1.32a1.07,1.07,0,0,1,1,1.15Z"/><rect class="cls-24" x="627.96" y="165.46" width="3.64" height="14.64" transform="translate(404.29 785.67) rotate(-85.14)"/><path class="cls-38" d="M655,184.05a1.06,1.06,0,0,1-1.32.72l-14.95-4.41A1.06,1.06,0,0,1,638,179l2.14-7.22a1.06,1.06,0,0,1,1.32-.72l14.94,4.4a1.08,1.08,0,0,1,.72,1.33Z"/><rect class="cls-24" x="646.16" y="169.22" width="3.64" height="14.64" transform="translate(295.49 748.21) rotate(-73.58)"/><path class="cls-66" d="M680.06,244.86a1.74,1.74,0,0,1-1.73-1.74V204.44c-46.09-35-76.25-23-99.69-6.59l-7,5.12c-2.08,1.56-4.14,3.16-6.18,4.73-4.39,3.4-8.54,6.6-12.73,9.48a1.73,1.73,0,1,1-2-2.85c4.11-2.83,8.22-6,12.57-9.37,2-1.58,4.13-3.18,6.24-4.78l7.07-5.16c10.6-7.41,25.13-16,43.74-16.61,19.11-.67,39,7.13,60.75,23.8a1.71,1.71,0,0,1,.68,1.37v39.54A1.74,1.74,0,0,1,680.06,244.86Z"/><polygon class="cls-46" points="813.91 139.11 817.68 143.28 804.12 143.28 804.12 135.93 817.68 135.93 813.91 139.11"/><polyline class="cls-67" points="804.12 157.51 804.12 149.25 804.12 137.82 804.12 134.16"/><path class="cls-67" d="M804.12,158.41a.9.9,0,0,1-.9-.9V134.16a.9.9,0,1,1,1.8,0v23.35A.9.9,0,0,1,804.12,158.41Z"/><path class="cls-38" d="M778.3,203.21a.9.9,0,0,1-.9-.9V175.9a.9.9,0,0,1,1.8,0v26.41A.9.9,0,0,1,778.3,203.21Z"/><path class="cls-38" d="M821.78,203.21a.9.9,0,0,1-.9-.9V175.9a.9.9,0,0,1,1.8,0v26.41A.9.9,0,0,1,821.78,203.21Z"/><rect class="cls-67" x="798.96" y="169.41" width="7.76" height="57.89"/><path class="cls-38" d="M758,177.42c.39,4.07,3.13,7.23,6.45,7.23s6.07-3.16,6.46-7.23Z"/><path class="cls-38" d="M770.77,177.42c.39,4.07,3.12,7.23,6.45,7.23s6.06-3.16,6.45-7.23Z"/><path class="cls-38" d="M783.57,177.42c.39,4.07,3.13,7.23,6.46,7.23s6.06-3.16,6.45-7.23Z"/><path class="cls-38" d="M796.38,177.42c.39,4.07,3.13,7.23,6.45,7.23s6.07-3.16,6.45-7.23Z"/><path class="cls-38" d="M809.19,177.42c.38,4.07,3.12,7.23,6.45,7.23s6.06-3.16,6.45-7.23Z"/><path class="cls-38" d="M822,177.42c.39,4.07,3.13,7.23,6.45,7.23s6.07-3.16,6.46-7.23Z"/><path class="cls-38" d="M834.9,177.42c.39,4.07,3.12,7.23,6.45,7.23s6.06-3.16,6.45-7.23Z"/><polygon class="cls-68" points="757.92 177.43 804.38 153.5 847.76 177.43 757.92 177.43"/><path class="cls-69" d="M769.93,201.37c2.12-1,10.85,0,10.85,0s4.72-6,6.37-6.49c1.3-.37,5.22,5,6.84,7.35a1.49,1.49,0,0,1-.17,1.9l-.21.2a1.48,1.48,0,0,1-1.6.33l-3-1.17L787.85,205v12.92a1.7,1.7,0,0,1-1.7,1.7h0a1.7,1.7,0,0,1-1.69-1.5c-.29-2.49-1.44-7.23-6-7.23s-6.25,5-6.71,7.44a1.58,1.58,0,0,1-1.55,1.29h-.45a1.58,1.58,0,0,1-1.58-1.54L767.81,204A3.1,3.1,0,0,1,769.93,201.37Z"/><path class="cls-69" d="M787.22,197.3a1.45,1.45,0,0,1-1.46-1.45l.19-2.78a1.27,1.27,0,1,1,2.53,0l.19,2.78A1.45,1.45,0,0,1,787.22,197.3Z"/><path class="cls-69" d="M764.41,210.87a20.88,20.88,0,0,1-.07-4.54,7,7,0,0,1,.43-2.07c1-2.37,3.44-3.3,5.92-2.95a1.35,1.35,0,0,1,1.13.69,1.43,1.43,0,0,1,0,.74,10.35,10.35,0,0,1-.65,2.25c.12-.3-1.92-.11-2.1,0a5.13,5.13,0,0,0-1.76,1.55c-1,1.34-.79,3.26-1.52,4.77a1.24,1.24,0,0,1-.45.58.57.57,0,0,1-.69,0,.82.82,0,0,1-.19-.49Z"/><path class="cls-69" d="M816.42,201.37c2.12-1,10.85,0,10.85,0s4.71-6,6.37-6.49c1.29-.37,5.22,5,6.84,7.35a1.49,1.49,0,0,1-.18,1.9l-.2.2a1.48,1.48,0,0,1-1.6.33l-3-1.17L834.34,205v12.92a1.7,1.7,0,0,1-1.7,1.7h0a1.68,1.68,0,0,1-1.69-1.5c-.29-2.49-1.44-7.23-6-7.23s-6.25,5-6.71,7.44a1.58,1.58,0,0,1-1.55,1.29h-.46a1.57,1.57,0,0,1-1.57-1.54L814.3,204A3.1,3.1,0,0,1,816.42,201.37Z"/><path class="cls-69" d="M833.7,197.3a1.45,1.45,0,0,1-1.45-1.45l.19-2.78a1.27,1.27,0,1,1,2.53,0l.19,2.78A1.45,1.45,0,0,1,833.7,197.3Z"/><path class="cls-69" d="M810.9,210.87a21.53,21.53,0,0,1-.08-4.54,7.71,7.71,0,0,1,.43-2.07c1-2.37,3.45-3.3,5.93-2.95a1.35,1.35,0,0,1,1.13.69,1.43,1.43,0,0,1,0,.74,9.85,9.85,0,0,1-.66,2.25c.13-.3-1.91-.11-2.09,0a5.26,5.26,0,0,0-1.77,1.55c-1,1.34-.78,3.26-1.51,4.77a1.31,1.31,0,0,1-.45.58.57.57,0,0,1-.69,0,.82.82,0,0,1-.19-.49Z"/><line class="cls-24" x1="836.76" y1="194.88" x2="836.76" y2="192.17"/><path class="cls-67" d="M849.94,255.24h-94.2V226.11a2.46,2.46,0,0,1,2.46-2.46h89.65a2.1,2.1,0,0,1,2.09,2.09Z"/><path class="cls-65" d="M849.94,226.72v-1a2.1,2.1,0,0,0-2.09-2.09H758.2a2.46,2.46,0,0,0-2.46,2.46v.61Z"/><path class="cls-24" d="M804.38,153.5q-16.8,12-33.59,23.92l12.74,0Z"/><path class="cls-24" d="M804.38,153.5l-8,23.94h12.81Q806.78,165.48,804.38,153.5Z"/><path class="cls-24" d="M804.38,153.5,822,177.43h12.85Z"/><path class="cls-70" d="M338.18,236.3,338,223.62l-4.11,1.22c-.05.85.26,7.83.43,11.51a.79.79,0,0,0,.79.75h2.3A.78.78,0,0,0,338.18,236.3Z"/><path class="cls-71" d="M344.63,224.9c0-.43-.1-.92-.18-1.43h0c-1.17-5.2-5.38-15.67-7.54-20.9a1.28,1.28,0,0,0-2.4.08c-1.84,5.51-5.46,16.59-6.4,21.32,0,.18-.06.32-.08.44h0c-.44,2.78,2.12,5.36,5.52,5.4l5.58.07C342.35,229.91,344.88,227.63,344.63,224.9Z"/><path class="cls-70" d="M350.79,236.3l-.2-12.68-4.11,1.22c-.05.85.26,7.83.43,11.51a.79.79,0,0,0,.79.75H350A.79.79,0,0,0,350.79,236.3Z"/><path class="cls-72" d="M357.23,224.9c0-.43-.1-.92-.18-1.43h0c-1.17-5.2-5-22.54-7.19-27.78a1.28,1.28,0,0,0-2.4.09c-1.84,5.5-5.81,23.46-6.75,28.19,0,.18-.06.32-.08.44h0c-.44,2.78,2.13,5.36,5.52,5.4l5.58.07C355,229.91,357.48,227.63,357.23,224.9Z"/><path class="cls-70" d="M1033.59,236.3l-.2-12.68-4.11,1.22c0,.85.26,7.83.43,11.51a.79.79,0,0,0,.79.75h2.3A.79.79,0,0,0,1033.59,236.3Z"/><path class="cls-71" d="M1040,224.9c0-.43-.1-.92-.18-1.43h0c-1.17-5.2-5.37-15.67-7.54-20.9a1.28,1.28,0,0,0-2.4.08c-1.84,5.51-5.46,16.59-6.4,21.32,0,.18-.06.32-.08.44h0c-.44,2.78,2.12,5.36,5.52,5.4l5.58.07C1037.75,229.91,1040.28,227.63,1040,224.9Z"/><path class="cls-70" d="M1046.19,236.3l-.19-12.68-4.12,1.22c-.05.85.26,7.83.43,11.51a.79.79,0,0,0,.79.75h2.3A.79.79,0,0,0,1046.19,236.3Z"/><path class="cls-72" d="M1052.64,224.9c0-.43-.11-.92-.19-1.43h0c-1.17-5.2-5-22.54-7.19-27.78a1.28,1.28,0,0,0-2.4.09c-1.84,5.5-5.8,23.46-6.75,28.19,0,.18-.06.32-.08.44h0c-.44,2.78,2.13,5.36,5.53,5.4l5.57.07C1050.36,229.91,1052.89,227.63,1052.64,224.9Z"/><rect class="cls-61" x="232.23" y="234.98" width="897.88" height="25.16" rx="12.58"/><path class="cls-68" d="M804.36,154.63l39.52,21.8H762.05l42.31-21.8m0-1.13-46.46,23.93h89.84L804.38,153.5Z"/><path class="cls-59" d="M180.1,195.51c-4.2-6.32-12.3-6.57-13.25-6.58a17.41,17.41,0,0,0-7.83,1.8,12.71,12.71,0,0,0-23.45-9.29c-.29-.88-2.68-7.8-9.66-10.12-.92-.31-6.07-2-10.24.61-5.28,3.32-7.3,11.32-3.52,17.94a17.27,17.27,0,0,0-2.68,0,19.5,19.5,0,0,0-10.32,4.49,12.47,12.47,0,0,0-2.89,3.69,9.92,9.92,0,0,0-1.09,4.76,7.1,7.1,0,0,0,.56,2.78A6.82,6.82,0,0,0,99.37,209h79a7.55,7.55,0,0,0,3.17-2.84C184.14,201.75,180.45,196,180.1,195.51Z"/><rect class="cls-67" x="1059.51" y="194.59" width="3.23" height="28.76"/><rect class="cls-67" x="1099.95" y="194.59" width="3.23" height="28.76"/><path class="cls-67" d="M1104.93,218.29v.06l-.5,13.92a1.51,1.51,0,0,1-1.51,1.46l-42.7-.24a1.5,1.5,0,0,1-1.49-1.33l-.63-12.94,44-.87Z"/><line class="cls-73" x1="1070.57" y1="227.12" x2="1067.79" y2="233.3"/><line class="cls-73" x1="1066.92" y1="226.44" x2="1067.8" y2="233.16"/><line class="cls-73" x1="1061.24" y1="231.44" x2="1067.8" y2="233.16"/><line class="cls-73" x1="1062.63" y1="237.55" x2="1067.8" y2="233.16"/><line class="cls-73" x1="1068.34" y1="240.41" x2="1067.8" y2="233.65"/><line class="cls-73" x1="1074.55" y1="232.82" x2="1067.79" y2="233.3"/><line class="cls-73" x1="1073.14" y1="229.66" x2="1067.56" y2="233.51"/><line class="cls-73" x1="1071.61" y1="238.9" x2="1067.79" y2="233.3"/><line class="cls-73" x1="1073.89" y1="236.39" x2="1067.86" y2="233.29"/><line class="cls-73" x1="1064.6" y1="239.79" x2="1067.62" y2="233.72"/><line class="cls-73" x1="1061.1" y1="234.66" x2="1067.76" y2="233.44"/><line class="cls-73" x1="1063.08" y1="228.42" x2="1067.79" y2="233.3"/><path class="cls-74" d="M1075.42,233.59a7.52,7.52,0,1,1-7.52-7.53A7.52,7.52,0,0,1,1075.42,233.59Zm-7.52-6.34a6.34,6.34,0,1,0,6.33,6.34A6.33,6.33,0,0,0,1067.9,227.25Z"/><path class="cls-74" d="M1069,233.3a1.18,1.18,0,1,1-1.18-1.17A1.18,1.18,0,0,1,1069,233.3Z"/><line class="cls-73" x1="1097.77" y1="227.12" x2="1094.99" y2="233.3"/><line class="cls-73" x1="1094.12" y1="226.44" x2="1095" y2="233.16"/><line class="cls-73" x1="1088.45" y1="231.44" x2="1095" y2="233.16"/><line class="cls-73" x1="1089.84" y1="237.55" x2="1095" y2="233.16"/><line class="cls-73" x1="1095.54" y1="240.41" x2="1095.01" y2="233.65"/><line class="cls-73" x1="1101.75" y1="232.82" x2="1094.99" y2="233.3"/><line class="cls-73" x1="1100.34" y1="229.66" x2="1094.76" y2="233.51"/><line class="cls-73" x1="1098.81" y1="238.9" x2="1094.99" y2="233.3"/><line class="cls-73" x1="1101.09" y1="236.39" x2="1095.06" y2="233.29"/><line class="cls-73" x1="1091.81" y1="239.79" x2="1094.82" y2="233.72"/><line class="cls-73" x1="1088.3" y1="234.66" x2="1094.97" y2="233.44"/><line class="cls-73" x1="1090.28" y1="228.42" x2="1094.99" y2="233.3"/><path class="cls-74" d="M1102.62,233.59a7.52,7.52,0,1,1-7.52-7.53A7.52,7.52,0,0,1,1102.62,233.59Zm-7.52-6.34a6.34,6.34,0,1,0,6.33,6.34A6.34,6.34,0,0,0,1095.1,227.25Z"/><path class="cls-74" d="M1096.17,233.3a1.18,1.18,0,1,1-1.18-1.17A1.18,1.18,0,0,1,1096.17,233.3Z"/><polygon class="cls-75" points="1104.93 218.35 1104.71 221.57 1058.49 221.57 1058.1 219.22 1102.09 218.35 1104.93 218.35"/><path class="cls-67" d="M1108.08,192.58h-54.47l2.43-11.42a2.42,2.42,0,0,1,2.36-1.94h44.89a2.42,2.42,0,0,1,2.36,1.94Z"/><circle class="cls-76" cx="1066.6" cy="215.92" r="0.2"/><circle class="cls-76" cx="1067.39" cy="216.39" r="0.2"/><rect class="cls-65" x="1056.44" y="217.57" width="49.61" height="3.22" rx="0.75"/><path class="cls-77" d="M1061.86,219.39a24.31,24.31,0,0,0,16.34,6.89c4.94.15,15.94,0,22.78-6.89"/><polygon class="cls-78" points="1067.55 223.15 1067.93 229.2 1071.93 224.93 1067.55 223.15"/><polygon class="cls-79" points="1074.28 225.43 1076.07 230.57 1079.08 225.79 1074.28 225.43"/><polygon class="cls-79" points="1062.22 219.61 1061.22 225.28 1066.37 222.85 1062.22 219.61"/><polygon class="cls-78" points="1081.76 225.83 1084.12 230.74 1086.26 225.64 1081.76 225.83"/><polygon class="cls-79" points="1088.97 225.02 1092.66 229.2 1093.59 223.94 1088.97 225.02"/><polygon class="cls-78" points="1095.85 222.73 1100.8 225.46 1099.69 220.13 1095.85 222.73"/><path class="cls-65" d="M1108.07,192.46v8.3a2.48,2.48,0,0,1-5,0v-8.3Z"/><path class="cls-24" d="M1103.12,192.46v8.3a2.48,2.48,0,0,1-4.95,0v-8.3Z"/><path class="cls-65" d="M1098.17,192.46v8.3a2.48,2.48,0,0,1-5,0v-8.3Z"/><path class="cls-24" d="M1093.22,192.46v8.3a2.48,2.48,0,0,1-5,0v-8.3Z"/><path class="cls-65" d="M1088.27,192.46v8.3a2.48,2.48,0,0,1-5,0v-8.3Z"/><path class="cls-24" d="M1083.32,192.46v8.3a2.48,2.48,0,0,1-5,0v-8.3Z"/><path class="cls-65" d="M1078.37,192.46v8.3a2.48,2.48,0,0,1-4.95,0v-8.3Z"/><path class="cls-24" d="M1073.42,192.46v8.3a2.48,2.48,0,0,1-5,0v-8.3Z"/><path class="cls-65" d="M1068.47,192.46v8.3a2.48,2.48,0,0,1-5,0v-8.3Z"/><path class="cls-24" d="M1063.52,192.46v8.3a2.48,2.48,0,0,1-5,0v-8.3Z"/><path class="cls-65" d="M1053.62,192.46v8.3a2.48,2.48,0,0,0,5,0v-8.3Z"/><g class="cls-80"><path class="cls-81" d="M1108.07,200.76a2.48,2.48,0,0,1-5,0v-1.94h5Z"/><path class="cls-81" d="M1098.17,198.82h4.95v1.94a5.6,5.6,0,0,0-7.43,2.41,2.47,2.47,0,0,0-4.94,0,2.44,2.44,0,0,1-2.48-2.41v-1.94h9.9Z"/><path class="cls-81" d="M1068.47,198.82h19.8v1.94a5.6,5.6,0,0,0-7.43,2.41,2.48,2.48,0,0,0-4.95,0,2.48,2.48,0,0,0-5,0,2.48,2.48,0,0,0-5,0,2.48,2.48,0,0,0-5,0,2.44,2.44,0,0,1-2.47-2.41v-1.94h9.9Z"/><path class="cls-81" d="M1053.62,198.82v1.94a2.48,2.48,0,0,0,5,0v-1.94Z"/></g></g></g></g></svg>