<svg xmlns="http://www.w3.org/2000/svg" xmlns:xlink="http://www.w3.org/1999/xlink" viewBox="0 0 969.16 217.01"><defs><style>.cls-1,.cls-100,.cls-103,.cls-109,.cls-112,.cls-123,.cls-19,.cls-20,.cls-22,.cls-54,.cls-60,.cls-63,.cls-79,.cls-91,.cls-99{fill:none;}.cls-2{isolation:isolate;}.cls-3{fill:#5cbee6;}.cls-4{fill:#8edcf4;}.cls-5{fill:#703c14;}.cls-11,.cls-6{fill:#000001;}.cls-6{opacity:0.18;}.cls-11,.cls-53,.cls-6{mix-blend-mode:multiply;}.cls-7{fill:#262c38;}.cls-8{fill:#52565f;}.cls-9{fill:#9a441e;}.cls-10{fill:#00704f;}.cls-11{opacity:0.07;}.cls-12{fill:#aa6241;}.cls-13{fill:#8d2c01;}.cls-14,.cls-16,.cls-17,.cls-24,.cls-30,.cls-36,.cls-64,.cls-73,.cls-82,.cls-90{fill:#fff;}.cls-15{fill:#fefefe;}.cls-16,.cls-22{stroke:#7bafde;}.cls-100,.cls-103,.cls-106,.cls-109,.cls-112,.cls-116,.cls-117,.cls-118,.cls-119,.cls-120,.cls-121,.cls-122,.cls-123,.cls-16,.cls-17,.cls-20,.cls-22,.cls-24,.cls-25,.cls-26,.cls-27,.cls-28,.cls-29,.cls-30,.cls-32,.cls-36,.cls-37,.cls-52,.cls-54,.cls-58,.cls-59,.cls-60,.cls-63,.cls-64,.cls-67,.cls-69,.cls-70,.cls-71,.cls-72,.cls-73,.cls-75,.cls-79,.cls-80,.cls-81,.cls-82,.cls-85,.cls-86,.cls-87,.cls-89,.cls-90,.cls-91,.cls-92,.cls-96,.cls-97,.cls-98,.cls-99{stroke-linecap:round;stroke-linejoin:round;}.cls-16,.cls-17,.cls-20,.cls-22,.cls-58,.cls-59,.cls-60,.cls-63,.cls-64,.cls-67,.cls-69,.cls-70,.cls-71,.cls-72,.cls-73,.cls-80,.cls-81,.cls-82,.cls-85,.cls-86,.cls-87,.cls-91{stroke-width:1.11px;}.cls-17,.cls-20,.cls-25{stroke:#ffc132;}.cls-18,.cls-25,.cls-69{fill:#ffe72c;}.cls-19{stroke:#fff;stroke-width:1.39px;}.cls-19,.cls-57{stroke-miterlimit:10;}.cls-21{fill:#f7acbc;}.cls-23{fill:#2992d0;}.cls-24{stroke:#e7dac8;}.cls-24,.cls-25,.cls-75,.cls-79{stroke-width:0.83px;}.cls-26{fill:#e7372f;stroke:#c62d27;}.cls-26,.cls-28,.cls-29{stroke-width:0.7px;}.cls-27{fill:#fff7d3;stroke:#f1d68d;stroke-width:0.6px;}.cls-28{fill:#61bfed;stroke:#44a7de;}.cls-29{fill:#3784c6;stroke:#006fb9;}.cls-30,.cls-36,.cls-90{stroke:#e2e3e4;}.cls-30,.cls-32{stroke-width:0.97px;}.cls-31{fill:#e6420f;}.cls-32,.cls-37{fill:#fdc400;stroke:#f7a900;}.cls-33{fill:#432211;}.cls-34,.cls-38,.cls-93,.cls-95{opacity:0.69;}.cls-34{fill:url(#radial-gradient);}.cls-35{fill:#fedba5;}.cls-36,.cls-37{stroke-width:1.06px;}.cls-38{fill:url(#radial-gradient-2);}.cls-39{fill:#da701c;}.cls-40{fill:#f9bb5e;}.cls-41{fill:#ff8a00;}.cls-42{fill:#ffcc02;}.cls-43{fill:#fdc726;}.cls-44{fill:#d97025;}.cls-45{fill:#784c98;}.cls-46{fill:#f0842a;}.cls-47{fill:#f49c29;}.cls-48{fill:#694384;}.cls-49,.cls-57{fill:#fffcec;}.cls-50{fill:#2b1300;}.cls-51{fill:#fff6d3;}.cls-52{fill:#2656a3;}.cls-52,.cls-54{stroke:#2d3656;stroke-width:1.07px;}.cls-53{fill:#c1533a;opacity:0.16;}.cls-55{fill:#fab200;}.cls-56{fill:#f1842b;}.cls-57{stroke:#f1842b;stroke-width:0.74px;}.cls-58,.cls-61{fill:#1860aa;}.cls-58,.cls-63,.cls-64{stroke:#3b4394;}.cls-59,.cls-89,.cls-98{fill:#f49b00;}.cls-59,.cls-60,.cls-89{stroke:#ee7d00;}.cls-62,.cls-67{fill:#ee1d35;}.cls-65{fill:#3b4394;}.cls-66{fill:#e95a0a;}.cls-67,.cls-69{stroke:#c80e2d;}.cls-68{fill:#93241c;}.cls-70{fill:#fc7ab0;}.cls-70,.cls-73{stroke:#f04e98;}.cls-71{fill:#009ad8;stroke:#009ad8;}.cls-72{fill:#ffdc00;stroke:#ffdc00;}.cls-74{fill:#f04e98;}.cls-120,.cls-75{fill:#1d8c37;}.cls-120,.cls-75,.cls-79{stroke:#037432;}.cls-76{fill:#fffbe0;}.cls-77{fill:#ebd0af;}.cls-117,.cls-119,.cls-78,.cls-97{fill:#fff5d3;}.cls-80,.cls-84{fill:#e20613;}.cls-118,.cls-80,.cls-82{stroke:#b90d0d;}.cls-81{fill:#ffcc1a;stroke:#f6a722;}.cls-83{fill:#b90d0d;}.cls-85{fill:#ffdc92;}.cls-85,.cls-87{stroke:#eac486;}.cls-86{fill:#a76819;stroke:#8c5812;}.cls-87{fill:#fff8c7;}.cls-88{fill:#6e3e17;}.cls-89,.cls-90,.cls-92{stroke-width:1px;}.cls-91{stroke:#d22e1b;}.cls-92{fill:#28b6eb;stroke:#00a0dc;}.cls-94{fill:url(#radial-gradient-3);}.cls-95{fill:url(#radial-gradient-4);}.cls-96{fill:#005824;stroke:#003a1d;stroke-width:1.04px;}.cls-117,.cls-119,.cls-97{stroke:#f2d491;}.cls-97{stroke-width:0.57px;}.cls-100,.cls-106,.cls-109,.cls-98,.cls-99{stroke:#ec6e18;}.cls-100,.cls-98{stroke-width:1.06px;}.cls-99{stroke-width:0.59px;}.cls-101{fill:#ffa603;}.cls-102{fill:#f2a947;}.cls-103,.cls-112{stroke:#6e3e17;}.cls-103{stroke-width:0.89px;}.cls-104{fill:#e95178;}.cls-105{fill:#ee7d00;}.cls-106,.cls-111{fill:#f29111;}.cls-106,.cls-109,.cls-112{stroke-width:1.22px;}.cls-107{mix-blend-mode:darken;}.cls-108{fill:#ec6e18;}.cls-110{fill:#f8b04c;}.cls-113{clip-path:url(#clip-path);}.cls-114{fill:#fcc94c;}.cls-115{clip-path:url(#clip-path-2);}.cls-116{fill:#67c1ed;stroke:#49a9df;}.cls-116,.cls-117,.cls-118,.cls-120,.cls-121,.cls-122,.cls-123{stroke-width:0.92px;}.cls-118{fill:#e41e20;}.cls-119{stroke-width:0.61px;}.cls-121{fill:#3c86c7;stroke:#0071b8;}.cls-122{fill:#2f76ba;}.cls-122,.cls-123{stroke:#265e9d;}</style><radialGradient id="radial-gradient" cx="2470.09" cy="-408.85" r="1.73" gradientTransform="translate(-1569.19 38.78) rotate(11.14)" gradientUnits="userSpaceOnUse"><stop offset="0" stop-color="#f8d1de"/><stop offset="0.1" stop-color="#f8d1de" stop-opacity="0.98"/><stop offset="0.22" stop-color="#f8d1df" stop-opacity="0.91"/><stop offset="0.37" stop-color="#f8d2e0" stop-opacity="0.8"/><stop offset="0.52" stop-color="#f8d3e1" stop-opacity="0.65"/><stop offset="0.69" stop-color="#f9d4e3" stop-opacity="0.45"/><stop offset="0.86" stop-color="#f9d5e5" stop-opacity="0.22"/><stop offset="1" stop-color="#f9d6e7" stop-opacity="0"/></radialGradient><radialGradient id="radial-gradient-2" cx="4477.59" cy="-817.81" r="1.89" gradientTransform="matrix(-0.98, 0.19, 0.19, 0.98, 4817.31, 38.78)" xlink:href="#radial-gradient"/><radialGradient id="radial-gradient-3" cx="-3820.89" cy="-1707.59" r="1.62" gradientTransform="translate(4344.84 573) rotate(-18.27)" xlink:href="#radial-gradient"/><radialGradient id="radial-gradient-4" cx="-3832.07" cy="-1706.51" r="1.81" gradientTransform="translate(4344.84 573) rotate(-18.27)" xlink:href="#radial-gradient"/><clipPath id="clip-path"><path class="cls-1" d="M39.62,54.38c-1.44-2.49-3.17-1-5.54.34s-4.47,2.18-3,4.67a5.05,5.05,0,0,0,6.88,2A5.13,5.13,0,0,0,39.62,54.38Z"/></clipPath><clipPath id="clip-path-2"><path class="cls-1" d="M56.31,44.78c-1.32-2.29-2.89-1-5,.29s-4.06,2-2.75,4.26a4.6,4.6,0,0,0,6.27,1.87A4.7,4.7,0,0,0,56.31,44.78Z"/></clipPath></defs><title>Asset 14</title><g class="cls-2"><g id="Layer_2" data-name="Layer 2"><g id="Layer_1-2" data-name="Layer 1"><path class="cls-3" d="M969.16,214.86V138.25c0-12.58-29.09-22.77-92-22.77-61.33,0-92,10.19-92,22.77v76.61Z"/><ellipse class="cls-4" cx="877.2" cy="135.31" rx="91.96" ry="19.96"/><rect class="cls-5" x="810.85" y="107.89" width="6.31" height="13.78"/><rect class="cls-6" x="810.85" y="107.89" width="6.31" height="7.05"/><ellipse class="cls-7" cx="814" cy="122.83" rx="4.65" ry="4.77"/><ellipse class="cls-8" cx="814" cy="122.83" rx="1.32" ry="1.36"/><rect class="cls-5" x="929.89" y="107.89" width="6.31" height="13.78"/><rect class="cls-6" x="929.89" y="107.89" width="6.31" height="7.05"/><ellipse class="cls-7" cx="933.05" cy="122.83" rx="4.65" ry="4.77"/><ellipse class="cls-8" cx="933.05" cy="122.83" rx="1.32" ry="1.36"/><path class="cls-9" d="M944.75,31.39,941,100l0,.52-.32,5.79a4,4,0,0,1-1.12,2.59,4,4,0,0,1-.9.68,3.67,3.67,0,0,1-1.77.46H811.81a3.66,3.66,0,0,1-1.76-.46,3.74,3.74,0,0,1-.9-.68,4.06,4.06,0,0,1-1.13-2.59l-.31-5.79,0-.52-3.75-68.58a3.89,3.89,0,0,1,3.8-4.17H941A3.88,3.88,0,0,1,944.75,31.39Z"/><path class="cls-10" d="M936.37,36.73,933,100.35a.71.71,0,0,1,0,.14,2.31,2.31,0,0,1-2.26,2.07H817.87a2.3,2.3,0,0,1-2.26-2.07.78.78,0,0,1,0-.14l-3.36-63.62a2.32,2.32,0,0,1,2.28-2.47H934.09A2.32,2.32,0,0,1,936.37,36.73Z"/><path class="cls-11" d="M814.19,39.12l3.36,63.42a2.32,2.32,0,0,1-1.95-2.2l-3.37-63.6a2.32,2.32,0,0,1,2.28-2.48H934.09a2.32,2.32,0,0,1,2.28,2.41l-.31,0H816.47A2.32,2.32,0,0,0,814.19,39.12Z"/><path class="cls-11" d="M933,100.49a2.31,2.31,0,0,1-2.26,2.07H817.87a2.3,2.3,0,0,1-2.26-2.07Z"/><path class="cls-12" d="M943.4,112.26,805,111.59a1.42,1.42,0,0,1-1.4-1.44l-.4-5.77a2.21,2.21,0,0,1,1.8-1.84H943.22a1.42,1.42,0,0,1,1.4,1.43v6.18C944.62,111,944.17,112.26,943.4,112.26Z"/><path class="cls-13" d="M944.06,102.83c-.06,1.51-1.26,2.64-2.26,3.67a60.52,60.52,0,0,1-6.6,5.72l8.2,0c.77,0,1.22-1.31,1.22-2.11V104A1.43,1.43,0,0,0,944.06,102.83Z"/><rect class="cls-9" x="803.18" y="103.36" width="140.99" height="9.05" rx="1.42"/><path class="cls-14" d="M827.88,62c0-.07,0-.14,0-.2l.06-.17,2.56-7.4a.33.33,0,0,1,.09-.14.22.22,0,0,1,.18-.08l.86,0a.24.24,0,0,1,.18.06l.09.11.19.42,3.07,7.06a.11.11,0,0,0,0,.05s0,0,0,.07-.08.17-.23.17L834,62a.24.24,0,0,1-.18-.05.31.31,0,0,1-.11-.14l-.11-.25-.22-.51-.22-.52-3.26.13-.23.73c-.08.22-.15.42-.2.59a1,1,0,0,1-.56.45,1.24,1.24,0,0,1-.43,0l-.24,0a.45.45,0,0,1-.23-.07A.29.29,0,0,1,827.88,62Zm3.45-5.94c-.17.51-.34,1-.5,1.58s-.34,1.06-.51,1.57l2.25-.1Z"/><path class="cls-14" d="M836.17,55l.14-.05h.14l.53,0a.24.24,0,0,1,.23.08.54.54,0,0,1,.1.23l.14.66a5.08,5.08,0,0,1,.38-.43,2.61,2.61,0,0,1,.44-.37,2.89,2.89,0,0,1,.56-.26,2.29,2.29,0,0,1,.68-.12,3.47,3.47,0,0,1,.92.09,3.51,3.51,0,0,1,.83.33,3.26,3.26,0,0,1,.7.52,3.45,3.45,0,0,1,.56.7,4,4,0,0,1,.37.84,3.69,3.69,0,0,1,.15.94,3.4,3.4,0,0,1-.08,1,4.06,4.06,0,0,1-.3.87,4.18,4.18,0,0,1-.5.74,3.27,3.27,0,0,1-.66.58,3.4,3.4,0,0,1-.81.4,3.33,3.33,0,0,1-.9.16,2.6,2.6,0,0,1-.64,0,2,2,0,0,1-.54-.19,2.29,2.29,0,0,1-.47-.29,4.59,4.59,0,0,1-.41-.36l.11,2.65a.34.34,0,0,1-.07.22.27.27,0,0,1-.24.1l-.87,0a.41.41,0,0,1-.23-.07.28.28,0,0,1-.11-.23L836,55.27a.3.3,0,0,1,0-.18A.28.28,0,0,1,836.17,55Zm5.37,3.2a2.18,2.18,0,0,0-.18-.81,2.23,2.23,0,0,0-.44-.67,2,2,0,0,0-.64-.43,1.74,1.74,0,0,0-.78-.14,1.88,1.88,0,0,0-.78.2,2.11,2.11,0,0,0-.63.48,2.16,2.16,0,0,0-.42.68,2,2,0,0,0-.14.81v0a2.3,2.3,0,0,0,.66,1.49,2.36,2.36,0,0,0,.67.44,2,2,0,0,0,.8.14,1.67,1.67,0,0,0,.77-.21,1.8,1.8,0,0,0,.6-.49,2.18,2.18,0,0,0,.39-.7A2.32,2.32,0,0,0,841.54,58.19Z"/><path class="cls-14" d="M844.32,54.66a.39.39,0,0,1,.14,0h.14l.53,0a.26.26,0,0,1,.23.09.49.49,0,0,1,.1.23l.14.66a3.89,3.89,0,0,1,.38-.43,2.34,2.34,0,0,1,.45-.37,1.86,1.86,0,0,1,.55-.26,2.35,2.35,0,0,1,.68-.12,3.1,3.1,0,0,1,.92.09,3.17,3.17,0,0,1,1.53.85,3.45,3.45,0,0,1,.56.7,3.56,3.56,0,0,1,.37.84,4.11,4.11,0,0,1,.16.94,3.82,3.82,0,0,1-.09,1,3.65,3.65,0,0,1-.3.86,3.77,3.77,0,0,1-.5.75,3.61,3.61,0,0,1-.66.58,3.12,3.12,0,0,1-.8.39,3.49,3.49,0,0,1-.91.17,2.64,2.64,0,0,1-.64,0,3.13,3.13,0,0,1-.54-.19,2.83,2.83,0,0,1-.47-.29,3.42,3.42,0,0,1-.4-.36l.1,2.64a.37.37,0,0,1-.07.23.3.3,0,0,1-.24.1l-.87,0a.43.43,0,0,1-.23-.08.27.27,0,0,1-.11-.23l-.33-8.37a.29.29,0,0,1,.05-.19A.25.25,0,0,1,844.32,54.66Zm5.37,3.19a2.27,2.27,0,0,0-.18-.81,2.31,2.31,0,0,0-.44-.66,2,2,0,0,0-.64-.44,1.84,1.84,0,0,0-.78-.14,2,2,0,0,0-.78.2,2.5,2.5,0,0,0-.63.48,2.41,2.41,0,0,0-.42.69,2.23,2.23,0,0,0-.14.81v0a2,2,0,0,0,.19.81,2.28,2.28,0,0,0,.46.67,2.11,2.11,0,0,0,.67.44,1.9,1.9,0,0,0,1.57-.06,2,2,0,0,0,.61-.5,2.24,2.24,0,0,0,.38-.7A2.29,2.29,0,0,0,849.69,57.85Z"/><path class="cls-14" d="M852.21,52.58a.43.43,0,0,1,.06-.24.29.29,0,0,1,.23-.1l.92,0a.28.28,0,0,1,.2.09.3.3,0,0,1,.11.22l.32,8.3a.29.29,0,0,1-.08.24.35.35,0,0,1-.23.1l-.88,0a.3.3,0,0,1-.25-.07.38.38,0,0,1-.08-.24Z"/><path class="cls-14" d="M861,60.09a3.88,3.88,0,0,1-1,.68,3.2,3.2,0,0,1-1.21.28,3.3,3.3,0,0,1-1.36-.22,3.58,3.58,0,0,1-1.15-.71,3.87,3.87,0,0,1-.81-1.1,3.59,3.59,0,0,1-.33-1.39,3.26,3.26,0,0,1,.08-.94,3.63,3.63,0,0,1,.29-.86,3.7,3.7,0,0,1,.5-.74,2.85,2.85,0,0,1,.66-.59,3.15,3.15,0,0,1,.8-.4,3.48,3.48,0,0,1,.93-.16,3.1,3.1,0,0,1,.8.07,3.31,3.31,0,0,1,.75.25,3.47,3.47,0,0,1,.68.42,3.77,3.77,0,0,1,.56.57,3.31,3.31,0,0,1,.5,1,4.14,4.14,0,0,1,.19,1.16,1.12,1.12,0,0,1,0,.26.28.28,0,0,1-.06.18.28.28,0,0,1-.15.1,1.08,1.08,0,0,1-.3,0l-4.68.19a1.81,1.81,0,0,0,.28.68,2.29,2.29,0,0,0,.48.5,1.91,1.91,0,0,0,.59.29,2,2,0,0,0,.63.08,2.12,2.12,0,0,0,.45-.07,2.48,2.48,0,0,0,.41-.15,1.9,1.9,0,0,0,.34-.2,1.25,1.25,0,0,0,.27-.23h0l.12-.1a.34.34,0,0,1,.12,0l.11,0a.4.4,0,0,1,.12.11l.25.28.18.2a.8.8,0,0,1,.09.14.15.15,0,0,1,0,.11A.43.43,0,0,1,861,60.09Zm-2.54-4.81a1.61,1.61,0,0,0-.6.15,2,2,0,0,0-.53.34,2.18,2.18,0,0,0-.41.49,2,2,0,0,0-.24.59l3.74-.15a2.15,2.15,0,0,0-.28-.59,2.1,2.1,0,0,0-.43-.46,1.69,1.69,0,0,0-.57-.28A1.9,1.9,0,0,0,858.46,55.28Z"/><path class="cls-15" d="M863.63,65.65c.17.16.15.66-.13.74a3.22,3.22,0,0,1-.69,0c-.16,0-.32.17-.5.14l-.12,0c-.15,0-.3.09-.42,0l-.07,0c-.06,0-.2,0-.22,0a.06.06,0,0,0,0,0s-.09,0-.15,0l-.28,0-.15,0h0c-.05,0-.08,0-.07.06s0,0,.06.07a.61.61,0,0,0-.19,0,.37.37,0,0,1-.18,0c-.06,0-.1-.06-.07-.09l0,0s0,0,0,0h-.08s-.12,0-.12,0,0,0,0,0a.08.08,0,0,1-.07,0h-.42c-.12,0-.12,0-.18-.08a1.48,1.48,0,0,0-.25-.14.32.32,0,0,0-.17-.06.71.71,0,0,0-.25.06c-.08,0-.21,0-.24,0s0,.06.08.1-.12.14-.24.12a1.93,1.93,0,0,0-.34-.11c0,.06-.14.09-.25.06s-.29,0-.3,0l-.26-.11-.13.16a3.14,3.14,0,0,0-1.06,0,1.32,1.32,0,0,1-.34,0,2.59,2.59,0,0,1-.42-.14l0,.1a.84.84,0,0,1-.74,0c0,.1-.21.17-.37.17a1.18,1.18,0,0,1-.43-.1.58.58,0,0,1-.44.17l-.16-.05c-.42-.11-1,.36-1.37.16,0,0-.07,0-.05-.08s.11-.06.18-.07a1.7,1.7,0,0,0,.4,0,.28.28,0,0,0,.08-.13c-.19.08-.43-.06-.63,0s-.18.18-.3.25a.84.84,0,0,1-.39,0c.05-.07,0-.14-.11-.16a.48.48,0,0,0-.31,0c0,.06,0,.11,0,.17s-.46.37-.53.32.07-.12,0-.17-.26,0-.25,0-.18.23-.36.26a2.53,2.53,0,0,1-.55,0,1.38,1.38,0,0,0-.84.13s-.05,0-.09.06l-.1,0a.45.45,0,0,1-.24-.07c-.16.06-.25.23-.42.23l-.14,0c-.15,0-.27.16-.4.13s0,0-.08,0-.2,0-.21.07,0,0,0,0-.08.05-.14.06l-.28,0h-.2a.06.06,0,0,0-.06.07.13.13,0,0,0,.07,0,.48.48,0,0,0-.17,0,.61.61,0,0,1-.18,0c-.06,0-.11,0-.08-.08s0,0,0,0,0,0,0,0h-.08s-.11,0-.11.07,0,0,0,0,0,0-.07,0l-.4.09a.19.19,0,0,1-.19,0,1.84,1.84,0,0,0-.28-.09.47.47,0,0,0-.17,0,.84.84,0,0,0-.23.12c-.08,0-.2.08-.25,0s.06.06.11.09-.08.16-.2.17a2.07,2.07,0,0,0-.35,0c.06,0-.12.13-.23.13s-.29,0-.28.1l-.28,0-.09.19a3.27,3.27,0,0,0-1,.26,1.27,1.27,0,0,1-.32.13,3.17,3.17,0,0,1-.44,0l0,.09a.83.83,0,0,1-.7.21c0,.1-.15.22-.3.26a1.15,1.15,0,0,1-.45,0,.52.52,0,0,1-.37.29,1,1,0,0,1-.17,0,1.35,1.35,0,0,0-.43.19.93.93,0,0,1-.69.11c0,.12-.18.23-.33.32l-.11.06a3.28,3.28,0,0,1-.67.35l-.09-.08c.19-.07.35-.24.31-.36s-.37-.07-.43.08,0,.15,0,.23-.07.24-.15.37-.11.12-.16.1,0-.13-.08-.15-.26,0-.24.08-.11.27-.27.35a1.87,1.87,0,0,1-.52.17,1.3,1.3,0,0,0-.77.37.27.27,0,0,1-.07.08l-.09,0a.43.43,0,0,1-.34,0,.68.68,0,0,1-.18-.2s-.06.11-.13.13a.11.11,0,0,1-.15,0,.38.38,0,0,1,0-.15A.33.33,0,0,0,833,72s-.09-.07,0-.13l.08-.06.31-.2c-.07,0-.06-.15,0-.22a.25.25,0,0,1,.3,0c0-.14.36-.15.47-.28s0-.09.07-.13a.5.5,0,0,1,.32-.12,1.42,1.42,0,0,0,.6-.2,1.54,1.54,0,0,0,.45-.2,1.07,1.07,0,0,0,.25-.36.5.5,0,0,1,.4-.23c.13,0,.1.18,0,.29a.41.41,0,0,0,.37-.15.68.68,0,0,0,.13-.32.19.19,0,0,1,.09-.13c.11-.07.23,0,.35-.05s.11-.08.18-.11.33,0,.52,0,.4-.17.41-.3a.13.13,0,0,1,.21.07.15.15,0,0,0,.21.09.14.14,0,0,0,0-.25c-.08-.06-.17-.15-.07-.24a.32.32,0,0,1,.14-.08c.16-.06.34-.09.5-.16s.2-.14.29-.17a.41.41,0,0,1,.39,0h0l.13-.14c.7.05,1.52-.52,2.21-.72.36-.09.73-.15,1.1-.21a1,1,0,0,1,.34,0l-.07.12a.33.33,0,0,0,.38-.07.24.24,0,0,1-.16-.08.88.88,0,0,1,.5,0c-.14,0,.15-.11.13-.1s.24,0,.38-.09a.73.73,0,0,1,.38-.14l.15,0a1.27,1.27,0,0,0,.36-.12c.12,0,.31,0,.27,0s.13,0,.17-.09a.73.73,0,0,1,.41-.17l.93-.16h.11a.21.21,0,0,1,.1-.08c.1,0,.25,0,.29.05.09-.12.4,0,.54-.13s.06-.07.11-.1a.44.44,0,0,1,.34,0,1.49,1.49,0,0,0,.63,0,1.93,1.93,0,0,0,.49-.06,1,1,0,0,0,.35-.26.46.46,0,0,1,.44-.11c.12.07,0,.2-.08.28a.41.41,0,0,0,.4,0,.6.6,0,0,0,.21-.27.23.23,0,0,1,.13-.1c.12,0,.22.06.34,0a1.46,1.46,0,0,0,.2,0c.2,0,.32.1.5.14s.44,0,.48-.18a.15.15,0,0,1,.19.13.14.14,0,0,0,.17.15.13.13,0,0,0,.11-.22c-.05-.09-.12-.2,0-.26a.41.41,0,0,1,.16,0c.16,0,.35,0,.52,0s.23-.08.33-.09a.45.45,0,0,1,.36.15h0l.16-.1c.66.24,1.59-.11,2.31-.13a10.34,10.34,0,0,1,1.11.07.84.84,0,0,1,.33.07l-.1.1a.33.33,0,0,0,.39,0c-.07,0-.12-.07-.13-.12a.8.8,0,0,1,.49.09c-.13-.07.17-.08.15-.07s.23,0,.39,0a.76.76,0,0,1,.39-.06l.14.06a1,1,0,0,0,.38,0c.13,0,.31,0,.26.12s.13,0,.18-.06a1,1,0,0,1,.82,0,.76.76,0,0,0,.09.09c.13.07.44,0,.61,0h0A1.83,1.83,0,0,1,863.63,65.65ZM842.32,68a.69.69,0,0,0-.32,0,.4.4,0,0,0-.18.1c-.12.09,0,.08.16,0A1.28,1.28,0,0,0,842.32,68Zm3.13-.14a.18.18,0,0,1-.14,0l0,0a.37.37,0,0,0-.44,0c-.11.08,0,.08.15.09h.14a.1.1,0,0,1,.09.07h0l.14,0S845.5,67.84,845.45,67.85Zm11.93-2.27a.71.71,0,0,0-.31-.07.45.45,0,0,0-.2,0c-.14.07,0,.09.15.08A1.11,1.11,0,0,0,857.38,65.58Zm3.07.61a.21.21,0,0,1-.14,0s0,0,0,0a.36.36,0,0,0-.42-.13c-.12.05,0,.09.13.12l.07,0s0,0,0,0h0a.1.1,0,0,1,.07.09v0h.18S860.5,66.18,860.45,66.19Z"/><path class="cls-14" d="M866.21,82.18l.09-.52c-.07,0-.11-.37-.12-.59s-.13-.6-.17-.5a7,7,0,0,0-.1-.92,3.22,3.22,0,0,0-.45-.78c-.14-.23-.38-.38-.53-.61s-.15-.37-.26-.54a4.45,4.45,0,0,0-.64-.66s-.11-.09-.14-.09l0,0s-.14-.07-.22-.13l-.12-.1s0-.07,0-.07h0c.08,0,0-.07,0-.15a2.44,2.44,0,0,0-.31-.22,2.14,2.14,0,0,1-.32-.2.2.2,0,0,1,.06.14c-.38-.1-.65-.42-1-.59s-.47,0-.7-.2a.62.62,0,0,0-.12-.09c-.23-.13-.54-.08-.83-.19l-.25-.09a3,3,0,0,0-1,0,5.29,5.29,0,0,0-1.37.08.5.5,0,0,0-.32.25l-.07,0a.87.87,0,0,0-.32-.09.37.37,0,0,0,0-.29,1.09,1.09,0,0,0-.46-.38.56.56,0,0,0-.18-.07.68.68,0,0,0-.2,0,10.61,10.61,0,0,1-1.64-.41,4,4,0,0,0-1.05-.18c-.37,0-.76.1-.78.21a1.65,1.65,0,0,1-.5,0c-.18,0,.1-.12,0-.17a.72.72,0,0,0-.39.07c-.12.07-.34.14-.42.26a1.78,1.78,0,0,0-.08.31c-.38.32-.21-.34-.11-.25s-.09-.09-.12-.08a4.84,4.84,0,0,0-1.41.54l-.22.13c-.3.17-.62.41-.65.56a2.29,2.29,0,0,0-1.16.73c-.23.23-.41.54-.62.73a1.73,1.73,0,0,0-.25.21,1.61,1.61,0,0,0-.35.86,2.67,2.67,0,0,0-.46.74c-.14.3-.18.68-.09.77a2.26,2.26,0,0,0-.27,1.43l.1,0a4.35,4.35,0,0,0-.19.79,3.07,3.07,0,0,0,0,.68,7.33,7.33,0,0,0,.32,2.06l.11.19A1,1,0,0,1,846,85a5.25,5.25,0,0,0,.91,2.25l.06-.06a2.29,2.29,0,0,1,.64.89,7.9,7.9,0,0,0,.48.91c.15.22.72.89,1,.87-.06,0-.09.08-.07.14a.28.28,0,0,0,.12.12l.52.36a.09.09,0,0,1,0-.14c.39.52.9.57,1.43.87a8.77,8.77,0,0,0,1.6.71,4.94,4.94,0,0,0,2.28.26,1.25,1.25,0,0,1,.47,0,2,2,0,0,1,.3.14,3,3,0,0,0,2.21,0c.35-.12.69-.1,1.05-.19a7.13,7.13,0,0,0,1.16-.45,7.5,7.5,0,0,0,2-1.28,13.87,13.87,0,0,1,1.06-1c.09-.06.18-.09.27-.16a1.68,1.68,0,0,0,.49-.77,2.78,2.78,0,0,0,.6-.59,1.09,1.09,0,0,0,.27-.72,2.31,2.31,0,0,0,.65-1.27h-.11a4.32,4.32,0,0,0,.42-.7,2.57,2.57,0,0,0,.17-.66c.13-.69.24-1.41.31-2.09Zm-19.52,2.08h0a.19.19,0,0,1-.19-.13c0-.1,0-.32.14-.32S846.88,84.2,846.69,84.26Zm18.23-.59a3.73,3.73,0,0,1-.61,1.79,2.85,2.85,0,0,1,0,.29l0,0a1.07,1.07,0,0,0-.41.45c-.08.15-.13.37-.22.52a5.69,5.69,0,0,1-.5.71,1.28,1.28,0,0,0-.14.21c-.09.2.06.2.18.19s.19.14,0,.32-.25.14-.3.09-.2,0-.31.12A1,1,0,0,1,862,89a4.93,4.93,0,0,0-.76.32,2,2,0,0,1-.27.22c-.19.1-.36.08-.53.2s-.13.21-.22.3a1.84,1.84,0,0,1-.57.34,6.6,6.6,0,0,1-2.33.65,3,3,0,0,1-1.08,0,1.27,1.27,0,0,0-.58,0l-.21.07c-.28,0-.75-.14-1-.07a.76.76,0,0,0-.46-.19.56.56,0,0,0-.2,0l-.18-.06a9.12,9.12,0,0,1-1.52-.53,2.38,2.38,0,0,0-.71-.24.5.5,0,0,1-.31-.1c.12,0-.13-.22-.32-.32a2.61,2.61,0,0,1-.56-.34c-.06-.06-.1-.12-.15-.18a2.73,2.73,0,0,0-.56-.4c-.24-.14-.34-.36-.47-.47s-.32-.34-.23-.14a3,3,0,0,0-.45-.72.29.29,0,0,0,0,.26.92.92,0,0,1-.37-.56l.19.09c-.06-.15-.15-.34-.23-.52a11.54,11.54,0,0,1-.68-1.75,15.08,15.08,0,0,1-.56-1.92,3.87,3.87,0,0,1,.05-1.9,1.16,1.16,0,0,1-.05-.28v0a1,1,0,0,0,.26-.54c0-.15,0-.37.07-.54a4.64,4.64,0,0,1,.32-.77,1.57,1.57,0,0,0,.09-.23c0-.2-.1-.18-.22-.15s-.21-.09-.07-.31.21-.18.27-.14.2,0,.28-.16c.23-.52.52-.57.93-.9a6.1,6.1,0,0,1,.62-.52,7.52,7.52,0,0,1,1-.52,4.22,4.22,0,0,0,1-.36,3.24,3.24,0,0,1,2.14-.41,8.17,8.17,0,0,1,1.11.09,5.4,5.4,0,0,1,.93.27c0,.08.23.2.42.24s.33,0,.27-.09a5.05,5.05,0,0,1,.61.23c.27.11.65,0,.93,0s.58.09.87.11h0a3.25,3.25,0,0,1,1.05.06.53.53,0,0,1,.14.11,2.83,2.83,0,0,0,.64.26,3.25,3.25,0,0,0,.67.17.42.42,0,0,1,.31.06c-.11,0,.14.22.34.31a1.89,1.89,0,0,1,.56.3c.07,0,.11.12.17.17a3.07,3.07,0,0,0,.56.38,3,3,0,0,1,.47.45s.3.35.22.14a3.92,3.92,0,0,0,.42.72.36.36,0,0,0,0-.26.78.78,0,0,1,.33.58,1.08,1.08,0,0,0-.18-.11s.09.31.11.35a1.77,1.77,0,0,0,.15.31.57.57,0,0,1,.11.25c0,.1-.1.19-.05.29s.12.08.16.14,0,.17,0,.25a.57.57,0,0,0,.08.46.24.24,0,0,1,.06.11c0,.11-.07.2-.11.31a.31.31,0,0,0,.07.33s.11.1.1.16-.1.1-.11.17,0,.08.07.12,0,.34,0,.44S864.94,83.5,864.92,83.67Z"/><path class="cls-14" d="M859,71.49a1.42,1.42,0,0,1,.64-.17c.27,0,.4.52.53.69a.18.18,0,0,1-.09.06c.1.15-.07.33-.09.51s.33.63,0,.75c.45-.16-.19,1.8-.16,1.83l0,0a0,0,0,0,1,0,0s-.07,0-.12,0-.36,1.62-.75,1.72c.17,0-.13.51-.16.56a1.1,1.1,0,0,1-1,.65c-.26,0-.47,0-.63-.16-.33-.42.23-.84.52-1.09a1.72,1.72,0,0,0,.43-.68c.21-.5.28-1.06.5-1.56a2.19,2.19,0,0,0,.2-.66c0-.33-.11-.64-.09-1a.82.82,0,0,1,.25-.58h-.11l-.09-.41.08-.06C858.8,72.07,858.82,71.58,859,71.49Zm-.53,4.63a.12.12,0,0,0-.11,0s0,0,0,.06.07,0,.09,0A.08.08,0,0,0,858.46,76.12Zm.9-.39a0,0,0,0,1-.05,0h0c-.1,0-.21,0-.16,0s.08,0,.12,0h.07s.05,0,.08,0h0s0,0,0,0S859.36,75.72,859.36,75.73Zm-.23-2.87s-.08,0-.08.07,0,0,0,0,.09,0,.09,0A.07.07,0,0,0,859.13,72.86Zm.6-.77s0,0,0,0h0c-.1,0-.2.09-.12.11s.08,0,.11,0l0,0h0l.09,0h0s0,0,0,0S859.73,72.08,859.73,72.09Z"/><path class="cls-14" d="M859.79,79.06a.08.08,0,0,1,0,0,.69.69,0,0,1-.13.8,3.26,3.26,0,0,1-3.77.57s0,0-.08,0a.34.34,0,0,0-.1,0,.77.77,0,0,1-.56-.07c-.07,0-.06-.11-.1-.17s-.16-.12-.22-.19-.16-.28-.18-.58c0-.11,0-.22,0-.33a.51.51,0,0,1,.24-.42,1,1,0,0,1,.49-.13.42.42,0,0,1,.25,0c.13.07.17.23.24.36a1.38,1.38,0,0,0,.39.44c.27.21,1.45.46,1.67.1a.21.21,0,0,1,.1.13c0-.3.7-.18.86-.34a.88.88,0,0,0,.12-.15.66.66,0,0,1,.55-.21l.15,0A.27.27,0,0,1,859.79,79.06Zm-.37.26a.14.14,0,0,0-.11,0s0,0,0,0,0,.08.08.06A.09.09,0,0,0,859.42,79.32Z"/><path class="cls-14" d="M860.43,70.28a.47.47,0,0,1-.17,0,.46.46,0,0,1-.43-.43.65.65,0,0,1,.13-.31,2.51,2.51,0,0,1,.89-.72,3,3,0,0,1,1.85-.43,5.37,5.37,0,0,0,.7.11,4,4,0,0,0,.6,0,3.47,3.47,0,0,1,1.19.17,7.51,7.51,0,0,1,2.33,1.25,8.92,8.92,0,0,1,1.33,1.42c.15.16.34.26.47.43a2.62,2.62,0,0,1,.47,1.43,9.07,9.07,0,0,1,.06,1.27,1.77,1.77,0,0,1-.71,1h-.09c-.08,0-.2.07-.19.14s0,0,0,0-.07.07-.13.1a1.53,1.53,0,0,1-.29.07h-.2a.05.05,0,0,0,0,.07.13.13,0,0,0,.07,0,.64.64,0,0,0-.17,0,.47.47,0,0,1-.17,0c-.06,0-.1,0-.08-.08s0,0,0,0,0,0,0,0-.05,0-.07,0-.1,0-.11,0,0,0,0,0,0,0-.06,0a3.71,3.71,0,0,1-1.33-.06c-.66-.16-1.3-.32-1.94-.51a.71.71,0,0,1-.52-.36c-.08.11-.26.06-.39,0a7.53,7.53,0,0,1-1.91-1.45,1.36,1.36,0,0,1-.84-.7.57.57,0,0,0,.27.13.18.18,0,0,0,.21-.16c0-.18-.27-.16-.44-.09s-.43,0-.41-.12c.09,0,.12-.14,0-.21s-.17-.06-.26-.11a.56.56,0,0,1-.23-.36l-.31-.92a.76.76,0,0,1,0-.47.27.27,0,0,1,.37-.18.37.37,0,0,1,.08-.3c1.39.87,2,2.72,3.55,3.34.26.11.57.21.66.47a5.45,5.45,0,0,0,1.81.52c.31,0,.7.11.74.41a3.33,3.33,0,0,1,.9-.16,1.34,1.34,0,0,0,1-1.11,1.31,1.31,0,0,0-.33-1c-.07-.08-.39-.24-.41-.3s.07-.32.16-.17c.1,0,0-.22-.08-.25s-.23,0-.34,0-.25-.31-.3-.51S867,71,866.88,71a2.57,2.57,0,0,1-.54-.34,5.45,5.45,0,0,0-.78-.43,2.29,2.29,0,0,0-.72-.21l-1.45-.28c0-.08,0-.19,0-.24s-.19.07-.12.12l-1.54.16a.52.52,0,0,1-.48.22.58.58,0,0,0-.19,0,.45.45,0,0,0-.17.11A.9.9,0,0,1,860.43,70.28Z"/><path class="cls-16" d="M887.23,98.92a28.74,28.74,0,0,1-12.66-2.67c-5-2.3-9.08-6.07-9.54-11.24-.39-4.51,4.77-6,8.16-4.51a8.33,8.33,0,0,1,3.49,2.83l5.23,2.1a11.32,11.32,0,0,1,8.56,4.66C894,94.81,888.86,98.85,887.23,98.92Z"/><path class="cls-17" d="M883.64,127.16l.28,2.71c.23,2.14,3.14,2.92,8.78,2.33,9.78-1,11.11-4.54,11-5.69l-.27-2.73"/><path class="cls-18" d="M885.08,113.66c.26,2.59.69,6.65.83,8s-2.56,2.6-2.29,5.33c.21,2.1,2.45,2.92,8.12,2.63,9.68-.49,11.83-4.4,11.72-5.54l-1.2-11.38S898.58,112.78,885.08,113.66Z"/><path class="cls-19" d="M885.6,118.75a30.57,30.57,0,0,0,11.31-.15,25,25,0,0,0,5.86-1.87"/><path class="cls-20" d="M885.08,113.66c.26,2.59.69,6.65.83,8s-2.56,2.6-2.29,5.33c.21,2.1,2.45,2.92,8.12,2.63,9.68-.49,11.83-4.4,11.72-5.54l-1.2-11.38S898.58,112.78,885.08,113.66Z"/><path class="cls-17" d="M895.23,130.43l.28,2.71c.23,2.14,3.14,2.92,8.78,2.33,9.79-1,11.11-4.55,11-5.69L915,127"/><path class="cls-18" d="M896.67,116.93c.26,2.58.69,6.64.83,8s-2.56,2.6-2.29,5.33c.21,2.1,2.45,2.92,8.12,2.63,9.68-.49,11.83-4.4,11.72-5.55L913.85,116S910.17,116.05,896.67,116.93Z"/><path class="cls-19" d="M897.2,122a30.51,30.51,0,0,0,11.3-.15,25,25,0,0,0,5.86-1.87"/><path class="cls-20" d="M896.67,116.93c.26,2.58.69,6.64.83,8s-2.56,2.6-2.29,5.33c.21,2.1,2.45,2.92,8.12,2.63,9.68-.49,11.83-4.4,11.72-5.55L913.85,116S910.17,116.05,896.67,116.93Z"/><path class="cls-16" d="M928,104.08a10.64,10.64,0,1,1-8-12.72A10.64,10.64,0,0,1,928,104.08Z"/><path class="cls-14" d="M883.48,93.5c-.25,1-.43,1.67-.48,1.85-1.58,5.48-3.52,9.6-.5,15,3.45,6.16,11.71,9.35,18.32,9.3,8.84-.08,18.38-4,19.66-11.2.89-5,.29-9.46-.85-14.32-.45-1.92-1.51-6.43-2-8.31-2.14.15-4.36.28-6.65.36"/><path class="cls-14" d="M883.48,93.5c-.25,1-.43,1.67-.48,1.85-1.58,5.48-3.52,9.6-.5,15,3.45,6.16,11.72,9,18.32,8.86,10.53-.22,18.8-3.83,20.09-11,.89-5-.14-9.24-1.28-14.1-.45-1.92-1.51-6.43-2-8.31a6.86,6.86,0,0,0-.71-5.76,6.48,6.48,0,0,0-3.18-2.42c-9.71-4.71-20.36-3.12-26,3.26C883.72,85.49,883.46,91.25,883.48,93.5Z"/><path class="cls-16" d="M883.48,93.5c-.25,1-.43,1.67-.48,1.85-1.58,5.48-3.41,10.31-.39,15.7,2.33,4.16,6.89,6.3,11.33,7.43,9.54,2.43,24.28-.09,26.53-10.31,1.09-5,.3-9.19-.84-14-.45-1.92-1.51-6.43-2-8.31-2.14.15-4.36.28-6.65.36"/><path class="cls-16" d="M897.23,54.43a8,8,0,0,0-8.69-2.17c-6,2.17-7.79,9.41-5.55,13.73"/><path class="cls-21" d="M894.54,57.44a.88.88,0,0,0,.25-1.5,5.91,5.91,0,0,0-7.45.13,6.83,6.83,0,0,0-2.48,6.77c.13.75.91,1.34,1.32.84C889.18,60.06,891.32,58.66,894.54,57.44Z"/><path class="cls-14" d="M885,89.07a11.51,11.51,0,0,1-5.65-8.15c-.3-2.28.58-5.52,1.47-6.36.42-4,1.64-12.15,6.79-16.71a20.57,20.57,0,0,1,16.15-4.47c11.33,1.62,19.82,9.47,19,24.2-.29,5.38-2,11-7.73,13.94-3.67,1.9-8.58,2.32-12.62,2.07C896.23,93.2,890.42,92.39,885,89.07Z"/><path class="cls-16" d="M883.17,87.71c-2.9-1.65-3.78-5.29-4-6.73-.3-2.27.43-5,1.67-6.24.43-4,1.63-12.33,6.78-16.89a20.57,20.57,0,0,1,16.15-4.47c11.33,1.62,19.82,9.47,19,24.2-.22,4.13-1.32,8.42-4.39,11.51"/><path class="cls-16" d="M910.49,56.79c2.08-2,11.25-3.1,15,4.38,3.62,7.25-1.53,14.46-4.45,15.61"/><path class="cls-21" d="M919.1,71.42a.82.82,0,0,0,1.42.37,7.8,7.8,0,0,0,.88-8.93A6.37,6.37,0,0,0,914.23,60a.83.83,0,0,0-.43,1.37A18.81,18.81,0,0,1,917,65.3,16.15,16.15,0,0,1,919.1,71.42Z"/><path class="cls-21" d="M894.32,82.85s-1.4,1.74-3,1.53S889.49,82,889.49,82a2.13,2.13,0,0,0,.92-.21,2.47,2.47,0,0,0,.74-.59,4,4,0,0,0,.6-.82,2.59,2.59,0,0,0,.64,1.47,2.91,2.91,0,0,0,1.06.69A3.94,3.94,0,0,0,894.32,82.85Z"/><path class="cls-22" d="M894.32,82.85s-1.4,1.74-3,1.53S889.49,82,889.49,82"/><path class="cls-16" d="M897,82.36a3.67,3.67,0,0,1-3.26.34,2.54,2.54,0,0,1-2-2.18"/><path class="cls-16" d="M887.76,81a2,2,0,0,0,1.88,1,2.61,2.61,0,0,0,2-1.44"/><path class="cls-21" d="M891.58,77.24a1.46,1.46,0,0,0-1.38.37,1.34,1.34,0,0,0,0,1.11,2.41,2.41,0,0,0,1.43,1.67,2.52,2.52,0,0,0,2.32-.71c.28-.26.62-.79.45-1.19C894.11,77.83,892.89,77.37,891.58,77.24Z"/><ellipse class="cls-23" cx="902.08" cy="77.79" rx="3.86" ry="3.78" transform="translate(778.01 974.67) rotate(-87.05)"/><ellipse class="cls-14" cx="900.27" cy="76.81" rx="1.03" ry="1.01" transform="translate(777.28 971.94) rotate(-87.05)"/><path class="cls-23" d="M883,75a3.34,3.34,0,0,0,2.68,3.88,3.46,3.46,0,0,0,3.5-3.33,3.31,3.31,0,0,0-2.72-3.88A3.47,3.47,0,0,0,883,75"/><path class="cls-14" d="M884,74.23a.91.91,0,0,0,.74,1.06,1,1,0,0,0,1-.91.9.9,0,0,0-.74-1.06,1,1,0,0,0-1,.91"/><path class="cls-16" d="M915.29,104.18a18.93,18.93,0,0,1-15,3.72,7.2,7.2,0,0,1-4.54-.39,5,5,0,0,1-2.42-2.91c-1-3.38.34-8,10.17-7.77a20.89,20.89,0,0,1,5.29-4.24"/><path class="cls-24" d="M874.48,88.57c.65,1.05-2.51,3.52-3.15,2.68l-7.52-8.77L867,79.79Z"/><path class="cls-25" d="M870.47,90.23a3.75,3.75,0,0,0,3.14-2.74L868.89,82c.05.5-2.88,2.77-3.22,2.68Z"/><path class="cls-24" d="M863.81,82.48l-.59-2.84a.79.79,0,0,1,1.06-.9L867,79.79C867.33,80.23,864.09,82.81,863.81,82.48Z"/><path class="cls-16" d="M870.86,82.73a1.62,1.62,0,0,0-.91,2.09c.5,1.32,2.56,1.16,2.77,1.24"/><path class="cls-26" d="M962.05,134.35a.33.33,0,0,1,.08.59c-1.9,1.19-10.36,6.88-13.09,8.68-.57.37-2.48-.53-3-1-.27-.2-14.67-7.78-14.84-8.07.47-.31,9.46-7.38,9.46-7.38Z"/><path class="cls-27" d="M949.39,141.8c1.57-.93,8.6-5.68,11.39-7.4-.78-.91-.37-4.05-.2-4.27-3.13,2-7.68,5.3-10.6,7.59C947.48,139.68,948.56,142.19,949.39,141.8Z"/><path class="cls-26" d="M924.49,135.42l22.5,8.33a3.9,3.9,0,0,0,1.07.16,2.31,2.31,0,0,0,1-.29,1.6,1.6,0,0,1-1-.54c-.36-.45-1.42-2.85.15-4.39-6.21-2-18-6.48-24.23-8.49C922.45,132.25,923.8,135.21,924.49,135.42Z"/><path class="cls-26" d="M924,130.2l24.23,8.49,13.25-8.12a.36.36,0,0,0-.08-.66l-22.9-7.32a2.11,2.11,0,0,0-1.56.16Z"/><path class="cls-28" d="M927.35,128.06a.34.34,0,0,0-.11.61c2,1.32,7.87,5.3,10.68,7.29.58.41,2.65-.44,3.24-.85.3-.2,8.84-4.7,9-5-.49-.34-6.9-5.78-6.9-5.78Z"/><path class="cls-27" d="M937.6,134c-1.31-.85-6-3.93-8.91-5.85.86-.9-.43-3.75-.6-4,3.22,2.22,5,3.43,8.21,5.67a5.14,5.14,0,0,1,1.85,3.56C938.12,134,937.84,134.17,937.6,134Z"/><path class="cls-28" d="M958.25,130.83l-18.17,5.36a4.15,4.15,0,0,1-1.14.12,2.38,2.38,0,0,1-1-.35,1.65,1.65,0,0,0,1.07-.51,1.92,1.92,0,0,0,.35-1.44,4.28,4.28,0,0,0-1.32-2.7l20-5.45a3.49,3.49,0,0,1,.23,5Z"/><path class="cls-28" d="M958,125.86l-20,5.45-10.87-6.72a.37.37,0,0,1,.11-.68l18.54-4.29a2.28,2.28,0,0,1,1.64.23Z"/><path class="cls-29" d="M928.15,121.89a.31.31,0,0,0-.1.55c1.69,1.18,6.77,4.75,9.18,6.53.5.37,2.28-.4,2.79-.76.25-.18,8.52-3.75,8.69-4-.42-.31-5.93-5.18-5.93-5.18Z"/><path class="cls-27" d="M937,127.22c-1.12-.76-5.19-3.52-7.66-5.24.75-.81-.37-3.36-.51-3.57,2.77,2,4.29,3.08,7.05,5.09a4.62,4.62,0,0,1,1.59,3.18C937.41,127.22,937.16,127.36,937,127.22Z"/><path class="cls-29" d="M955.63,124.84l-16.54,4.34a4.35,4.35,0,0,1-1,.11,2.18,2.18,0,0,1-.88-.32,1.4,1.4,0,0,0,.92-.46,1.73,1.73,0,0,0,.3-1.29,3.87,3.87,0,0,0-1.13-2.42c5.73-1.62,12.39-2.79,18.11-4.42a3.22,3.22,0,0,1,1,2.28A3.29,3.29,0,0,1,955.63,124.84Z"/><path class="cls-29" d="M955.43,120.38l-18.11,4.42-9.34-6a.34.34,0,0,1,.1-.61l16.86-3.38a1.86,1.86,0,0,1,1.4.21Z"/><path class="cls-30" d="M935.6,122.25s-5.53,1.9-6.32,2.13a1.58,1.58,0,0,1-2-.7c-.48-.82-.73-1.85.3-2.38a1.57,1.57,0,0,1,1.43,0l5.65-1.89a1.5,1.5,0,0,1,1.91.93h0A1.5,1.5,0,0,1,935.6,122.25Z"/><path class="cls-30" d="M932,119s-5.83.37-6.66.38a1.58,1.58,0,0,1-1.76-1.21c-.25-.92-.21-2,.92-2.22a1.59,1.59,0,0,1,1.37.39l6-.33a1.51,1.51,0,0,1,1.6,1.4h0A1.51,1.51,0,0,1,932,119Z"/><path class="cls-30" d="M933.1,110.31a15.05,15.05,0,0,1-3.51-1.2,15.53,15.53,0,0,1-1.44-.8c-.47-.3-.92-.78-1.51-.81a1.5,1.5,0,0,0-1.53,1.54c0,.7.83,1.43,1.34,1.8a11.07,11.07,0,0,0,2.22,1.2,8,8,0,0,0,2.64.57"/><path class="cls-30" d="M935.46,121.78c-7.84-1.54-10.19-7.31-8.34-12.89,1.93-5.84,7.2-10.11,12.65-9s8.72,7,8.29,13.16C947.65,118.87,943.29,123.33,935.46,121.78Z"/><path class="cls-31" d="M928.12,112.87a1.2,1.2,0,0,0,1.44-.56,1,1,0,0,0,.15-.5.38.38,0,0,0-.25-.34l-1.87-.69a.28.28,0,0,0-.35.11,1,1,0,0,0-.09.53A1.64,1.64,0,0,0,928.12,112.87Z"/><path class="cls-32" d="M925.92,99.55c1.46-.08,2.84,1,4.34.56a10.91,10.91,0,0,0,2.54-1.31,10.3,10.3,0,0,1,7.32-1.69l.21,0a9.15,9.15,0,0,1,5.47,3.37c.92,1.15,1.63,2.53,2.86,3.38,1.44,1,3.15.56,4.65,1.27a3.18,3.18,0,0,1,1.38,4.65,3.33,3.33,0,0,1-4.22,1.32,7.81,7.81,0,0,1-4.23-3.19s-4.66-1.12-7.7-1.72l-7.13-1.43a7.83,7.83,0,0,1-5.13,1.35,3.33,3.33,0,0,1-3.4-2.82A3.18,3.18,0,0,1,925.92,99.55Z"/><circle class="cls-33" cx="932.57" cy="111.79" r="1.38"/><circle class="cls-14" cx="933.14" cy="111.48" r="0.38"/><circle class="cls-14" cx="942.65" cy="112.39" r="0.37"/><path class="cls-32" d="M947.53,105a4.11,4.11,0,0,0,2.5,1.31,3.28,3.28,0,0,1,2,4.63,4.14,4.14,0,0,1-4.82,1.82,6.68,6.68,0,0,1-1.74-.65c-2.56-1.43-4.2-5-4.52-5.68"/><path class="cls-32" d="M932.41,101.58c-.86.66-2,.55-2.95,1.15a3.23,3.23,0,0,0-1.45,2.66,3.12,3.12,0,0,0,1.59,2.69c3.75,2.1,6.76-1.55,8.14-2.7"/><path class="cls-32" d="M937.79,104.42a4.49,4.49,0,0,0-2.09,3,4.12,4.12,0,1,0,8.09,1.59,4.48,4.48,0,0,0-.79-3.59"/><circle class="cls-34" cx="933.35" cy="114.72" r="1.73"/><path class="cls-30" d="M936.69,115.9a13.54,13.54,0,0,1,1.53,1.57,15.25,15.25,0,0,1,1,1.38l.39.64a1.59,1.59,0,0,0,1,1,1.51,1.51,0,0,0,1.28-.3c.65-.53.64-1.14.21-2a12.29,12.29,0,0,0-1.6-2.45,14.32,14.32,0,0,0-1.15-1.25"/><path class="cls-35" d="M233.19,102.25a12.67,12.67,0,0,1-.14-1.84c0-6,4.49-11.38,11.16-13.35a19.21,19.21,0,0,1,5.43-.77H350.8a13.15,13.15,0,0,0,1.94-.16.52.52,0,0,1,.48.19.49.49,0,0,1,0,.51,33.12,33.12,0,0,0-1.39,3.63,29.39,29.39,0,0,0-1.47,9.15c0,7.4,2.19,11.1,3.47,13.3l.51.89a.5.5,0,0,1,0,.5.53.53,0,0,1-.45.23c-1.06-.06-2.32,0-2.86,0H249.64C241.33,114.54,234.26,109.26,233.19,102.25Z"/><path class="cls-36" d="M263.62,109.42s6,2.08,6.9,2.33a1.74,1.74,0,0,0,2.21-.77c.52-.9.79-2-.33-2.6a1.73,1.73,0,0,0-1.56,0l-6.17-2.06a1.65,1.65,0,0,0-2.09,1h0A1.65,1.65,0,0,0,263.62,109.42Z"/><path class="cls-36" d="M267.54,105.84s6.37.41,7.27.43a1.76,1.76,0,0,0,1.93-1.32c.27-1,.22-2.17-1-2.43a1.72,1.72,0,0,0-1.5.43l-6.5-.37a1.65,1.65,0,0,0-1.74,1.53h0A1.64,1.64,0,0,0,267.54,105.84Z"/><path class="cls-36" d="M266.35,96.38a16.62,16.62,0,0,0,3.84-1.31c.53-.27,1.06-.55,1.56-.87s1-.86,1.66-.89A1.65,1.65,0,0,1,275.08,95c0,.77-.92,1.56-1.47,2a11.76,11.76,0,0,1-2.42,1.3,8.25,8.25,0,0,1-2.89.63"/><path class="cls-36" d="M263.78,108.91c8.55-1.69,11.12-8,9.1-14.08-2.11-6.38-7.86-11-13.82-9.86s-9.51,7.66-9.05,14.36C250.46,105.73,255.22,110.59,263.78,108.91Z"/><path class="cls-31" d="M271.79,99.18a1.31,1.31,0,0,1-1.57-.62,1,1,0,0,1-.17-.55.44.44,0,0,1,.27-.37l2-.75a.31.31,0,0,1,.39.13,1,1,0,0,1,.1.57A1.81,1.81,0,0,1,271.79,99.18Z"/><path class="cls-37" d="M274.19,84.63c-1.6-.09-3.1,1.07-4.74.61a11.74,11.74,0,0,1-2.77-1.43,11.29,11.29,0,0,0-8-1.84l-.22,0a10,10,0,0,0-6,3.69c-1,1.25-1.77,2.76-3.12,3.69-1.57,1.08-3.43.6-5.08,1.38a3.48,3.48,0,0,0-1.5,5.08,3.64,3.64,0,0,0,4.6,1.44A8.53,8.53,0,0,0,252,93.8s5.08-1.22,8.4-1.88c2.67-.52,7.79-1.56,7.79-1.56a8.52,8.52,0,0,0,5.6,1.48,3.64,3.64,0,0,0,3.71-3.08A3.47,3.47,0,0,0,274.19,84.63Z"/><circle class="cls-33" cx="266.93" cy="98" r="1.51"/><circle class="cls-14" cx="266.31" cy="97.66" r="0.42"/><circle class="cls-14" cx="255.93" cy="98.65" r="0.4"/><path class="cls-37" d="M250.59,90.58A4.47,4.47,0,0,1,247.86,92a3.58,3.58,0,0,0-2.22,5.06,4.54,4.54,0,0,0,5.26,2,7.41,7.41,0,0,0,1.9-.72c2.79-1.56,4.59-5.42,4.94-6.2"/><path class="cls-37" d="M267.11,86.85c.93.72,2.23.59,3.22,1.25A3.55,3.55,0,0,1,271.91,91,3.42,3.42,0,0,1,270.17,94c-4.09,2.29-7.37-1.69-8.89-3"/><path class="cls-37" d="M261.23,90a4.9,4.9,0,0,1,2.28,3.3A4.5,4.5,0,1,1,254.67,95a4.94,4.94,0,0,1,.87-3.91"/><circle class="cls-38" cx="266.07" cy="101.19" r="1.89"/><path class="cls-36" d="M262.43,102.48a16.26,16.26,0,0,0-1.67,1.72,18.2,18.2,0,0,0-1.1,1.51c-.15.23-.29.46-.42.7a1.76,1.76,0,0,1-1.15,1,1.64,1.64,0,0,1-1.4-.32c-.7-.59-.69-1.25-.23-2.23a13.47,13.47,0,0,1,1.76-2.68,15.59,15.59,0,0,1,1.25-1.37"/><path class="cls-39" d="M124.93,217V119.66c0-7.93-19.75-14.37-62.46-14.37C20.81,105.29,0,111.73,0,119.66V217Z"/><ellipse class="cls-40" cx="62.47" cy="119.66" rx="62.47" ry="14.37"/><path class="cls-41" d="M439.75,205.51A7.23,7.23,0,0,0,441,201.6V154.36c0-15.45-57.53-28-181.91-28-121.31,0-181.92,12.53-181.92,28V201.6a6.61,6.61,0,0,0,1.41,3.91Z"/><ellipse class="cls-42" cx="259.06" cy="154.36" rx="181.92" ry="27.98"/><circle class="cls-43" cx="180.74" cy="22.44" r="16.67"/><path class="cls-44" d="M201.66,22.36A19.47,19.47,0,1,1,182.19,2.89,19.47,19.47,0,0,1,201.66,22.36ZM182,8.24a14,14,0,1,0,14,14A14,14,0,0,0,182,8.24Z"/><path class="cls-44" d="M182,36.6a14.37,14.37,0,1,0-14.36-14.36A14.38,14.38,0,0,0,182,36.6Zm0-28a13.64,13.64,0,1,1-13.63,13.64A13.66,13.66,0,0,1,182,8.6Z"/><path class="cls-44" d="M163.08,22.36A19.15,19.15,0,0,1,173.83,5.18l-1.41-.08a19.81,19.81,0,0,0-7.84,26.38l1.3.82A19,19,0,0,1,163.08,22.36Z"/><path class="cls-45" d="M182.26,22.28c0,.27-.1.55-.14.82,0,.07,0,.13,0,.2A.85.85,0,0,1,181,24a14.14,14.14,0,0,1-2.25-.78,14.23,14.23,0,0,1-2.49-1.37,15.08,15.08,0,0,1-2.08-1.71.86.86,0,0,1,.81-1.44q1.23.3,2.61.78c.8.28,1.53.59,2.21.9s1,.51,1.52.77l.48.26A.87.87,0,0,1,182.26,22.28Z"/><path class="cls-45" d="M188.66,14.51a24.14,24.14,0,0,1-4.06,7.11A15.79,15.79,0,0,1,183,23.27s-.4-.06-.89-.17a5.8,5.8,0,0,1-1.57-.53,16.42,16.42,0,0,1,.81-1.44c.25-.42.56-.9.9-1.42a34.34,34.34,0,0,1,5.09-6.2C188,12.92,189,13.69,188.66,14.51Z"/><path class="cls-46" d="M201.25,22.05A19.47,19.47,0,1,1,181.78,2.58,19.47,19.47,0,0,1,201.25,22.05Zm-19.47-14a14,14,0,1,0,14,14A14,14,0,0,0,181.78,8.05Z"/><circle class="cls-47" cx="169.82" cy="22.63" r="0.74"/><circle class="cls-47" cx="193.73" cy="22.63" r="0.74"/><circle class="cls-47" cx="181.78" cy="34.58" r="0.74"/><circle class="cls-47" cx="181.78" cy="10.67" r="0.74"/><path class="cls-48" d="M184.6,21.62A15.79,15.79,0,0,1,183,23.27s-.4-.06-.89-.17c0,.07,0,.13,0,.2A.85.85,0,0,1,181,24a14.14,14.14,0,0,1-2.25-.78,2.78,2.78,0,0,1,0-.51,3,3,0,0,1,1.1-2.33c.55.25,1,.51,1.52.77.25-.42.56-.9.9-1.42A3,3,0,0,1,184.6,21.62Z"/><circle class="cls-45" cx="181.77" cy="22.69" r="2.34"/><path class="cls-49" d="M255.47,144.83c.87,3.29,1.71,7.58,4.51,10.15,3.63,3.33,10.43,3.4,15.35,3.7,7.35.43,14.73.6,22.09.8q8.37.22,16.75.32c9.84.11,19.69.1,29.53,0,9-.06,18.31-.94,27.17.46l.73.12c2.21.38,4.55.43,5.52-1.65.24-.51.06-1.07-.35-1.83-1.33-.07-3,0-3.15,0H272.46c-8.87,0-16.09-6.12-16.09-13.63,0-5.8,4.33-11,10.81-12.88a18.46,18.46,0,0,1,5.28-.75H373.62a12.65,12.65,0,0,0,2-.17,25,25,0,0,1,1.63-3.06l-2.64-.32c-.22,0-.44,0-.67-.06-6-.33-12.24.1-18.21.37-4.34.19-8.5.63-12.81.42q-10.63-.51-21.33-.64c-7.89-.11-15.79-.09-23.65,0-12.42.16-32.13-.2-41.06,9C254.15,138.08,254.57,141.46,255.47,144.83Z"/><path class="cls-50" d="M371.49,160.9l-.7-.12a74.7,74.7,0,0,0-11.71-.78c-2.73,0-5.52.09-8.21.17-2.36.07-4.79.14-7.17.16q-6.87,0-13.74,0c-5.61,0-10.78,0-15.8-.09-5.53,0-11.17-.16-16.75-.31l-2.67-.08c-6.37-.17-13-.35-19.44-.73L274,159.1c-4.85-.26-10.9-.59-14.35-3.75-2.6-2.39-3.58-6.21-4.37-9.29-.09-.37-.19-.74-.28-1.1-.92-3.45-1.36-7.06,1.56-10.07,8.54-8.81,27-9,39.14-9.12l2.26,0c4.45-.06,8.59-.08,12.65-.08,3.78,0,7.48,0,11,.07,7.28.1,14.46.32,21.34.64.76,0,1.53.06,2.36.06,2.27,0,4.47-.14,6.8-.28l3.6-.2,3.07-.14c3.46-.17,7-.35,10.55-.35,1.67,0,3.19,0,4.65.12.2,0,.39,0,.59.06h.1l2.65.31a.49.49,0,0,1,.39.29.51.51,0,0,1,0,.48,23.62,23.62,0,0,0-1.6,3,.45.45,0,0,1-.37.28,13.08,13.08,0,0,1-2.1.17H272.46a17.84,17.84,0,0,0-5.14.74c-6.26,1.84-10.46,6.82-10.46,12.4,0,7.24,7,13.13,15.6,13.13H373.85c.55,0,1.85-.06,2.95,0a.5.5,0,0,1,.41.26,2.5,2.5,0,0,1,.36,2.27c-.66,1.42-2,2.14-3.91,2.14A13.55,13.55,0,0,1,371.49,160.9Zm2.39-3.46H272.46c-7.19,0-13.32-3.91-15.62-9.36a13.92,13.92,0,0,0,3.47,6.54c3.19,2.92,9,3.23,13.74,3.49l1.31.07c6.45.38,13,.56,19.41.73l2.66.07c5.58.16,11.21.26,16.74.32,5,.06,10.18.09,15.79.09q6.87,0,13.74,0c2.36,0,4.79-.09,7.14-.16,2.7-.09,5.5-.17,8.24-.17a75.63,75.63,0,0,1,11.87.79l.73.12a11.2,11.2,0,0,0,2,.2c1.56,0,2.51-.5,3-1.57.12-.25.06-.58-.21-1.13C375.46,157.38,374.37,157.42,373.88,157.44Zm2.57-30.58-1.87-.23h-.11l-.54-.05c-1.43-.08-2.94-.11-4.59-.11-3.49,0-7,.17-10.5.34l-3.07.15c-1.21,0-2.4.12-3.59.19-2.24.14-4.56.28-6.86.28-.84,0-1.63,0-2.41,0-6.87-.33-14-.55-21.3-.64-3.54,0-7.24-.08-11-.08-4.06,0-8.19,0-12.64.08l-2.26,0c-12,.12-30.18.31-38.44,8.82-2.43,2.51-2.29,5.46-1.32,9.13v0a13,13,0,0,1-.08-1.41c0-6,4.49-11.39,11.17-13.36a19.09,19.09,0,0,1,5.42-.77H373.62a12.43,12.43,0,0,0,1.69-.12C375.76,128.1,376.17,127.35,376.45,126.86Z"/><path class="cls-51" d="M256.37,143.32a11.49,11.49,0,0,0,.13,1.76c1,6.69,7.79,11.87,16,11.87H373.62c.18,0,1.82-.09,3.15,0-1.14-2.12-4-5.81-4-14.41a30.11,30.11,0,0,1,1.49-9.31,35.23,35.23,0,0,1,1.42-3.69,12.65,12.65,0,0,1-2,.17H272.46a18.46,18.46,0,0,0-5.28.75C260.7,132.34,256.37,137.52,256.37,143.32Z"/><path class="cls-35" d="M256,145.16a12.88,12.88,0,0,1-.14-1.84c0-6,4.49-11.39,11.17-13.36a19.09,19.09,0,0,1,5.42-.77H373.62a13.35,13.35,0,0,0,1.95-.16.5.5,0,0,1,.47.19.52.52,0,0,1,.06.51,32,32,0,0,0-1.4,3.63,29.5,29.5,0,0,0-1.47,9.16c0,7.39,2.19,11.09,3.48,13.29l.5.89a.5.5,0,0,1,0,.5.53.53,0,0,1-.45.23c-1.06-.06-2.32,0-2.86,0H272.46C264.15,157.44,257.08,152.16,256,145.16ZM375.9,156.41l0-.09c-1.34-2.3-3.58-6.13-3.61-13.8a30.47,30.47,0,0,1,1.51-9.46c.32-1,.68-2,1.09-2.94-.56,0-1,.06-1.22.06H272.46a17.84,17.84,0,0,0-5.14.74c-6.26,1.84-10.46,6.82-10.46,12.4A12.25,12.25,0,0,0,257,145c1,6.52,7.65,11.44,15.47,11.44H373.85c.35,0,1,0,1.72,0Z"/><path class="cls-52" d="M200.82,125.16c.3-8.18,3.68-13.36,12.36-15.81l107.3.47c3.65,8.14-15.15,7.11-16.63,15.74-1.1-.06-2.2-.13-3.31-.18-7.52-.33-15.14-.64-22.63.17-6.63.71-13.82,2.47-18.58,6.68-4.54,4-6.93,10.4-4.79,15.83.89,2.28,2.93,4.1,4.66,5.95,1.25,1.32,2.82,3,3.27,4.69a2.73,2.73,0,0,0-.25.23l1.6,1.19-2.61-.87L213.87,141S200.37,137.2,200.82,125.16Z"/><path class="cls-52" d="M328.62,110a11.49,11.49,0,0,1,2.12.55L332,111s44.88,13.19,45.89,14.46.3,1.91-.93,2.46l-2.7-.11c-19.59-.77-39.2-.65-58.8-.64-9.5,0-19-.3-28.49-.07-3.64.09-7.3-.13-10.95,0a29.53,29.53,0,0,0-5.32.65l-5.45-2-52.09-16.49,113.27.47S328.06,109.94,328.62,110Z"/><path class="cls-53" d="M256.27,144.75c.07.54.15,1.07.23,1.59,1.14-5.46,5.42-9.39,10.68-11a18.46,18.46,0,0,1,5.28-.75l100.87-.14a26.14,26.14,0,0,1,.85-2.68,23.83,23.83,0,0,1,1.14-2.55c-5.55-2.37-12.71-1.36-18.55-1.21-12.1.29-24.3-.65-36.41-.82-6-.08-12-.59-17.91-.49-10.88.17-21.9-1.69-32.82-.12-4,.58-8.94,1.19-11.54,4.6C255.24,135,255.66,140.39,256.27,144.75Z"/><path class="cls-49" d="M250.61,143.32c0,5.74,3.1,10.88,7.95,14.27h0a24.28,24.28,0,0,0,13.9,4.23H373.62c.92,0,3.93.18,4.95-.39a2.75,2.75,0,0,0,.22-4.21,3.55,3.55,0,0,0-2-.39c-1.43,0-104.37.12-104.37.12-8.87,0-16.09-6.12-16.09-13.63,0-5.8,4.33-11,10.81-12.88a18.46,18.46,0,0,1,5.28-.75s103,.24,104.36-.09a2.52,2.52,0,0,0,2.22-2.54c0-2.55-3.07-2.25-5.42-2.25H272.46a25.19,25.19,0,0,0-7.19,1C256.74,128.36,250.61,135.23,250.61,143.32Z"/><path class="cls-54" d="M378.53,125.64c-1-1-3.15-.83-4.91-.83H272.46a25.19,25.19,0,0,0-7.19,1c-8.53,2.52-14.66,9.39-14.66,17.48,0,5.74,3.1,10.88,7.95,14.27h0a24.28,24.28,0,0,0,13.9,4.23H373.62c.92,0,3.93.18,4.95-.39a2.75,2.75,0,0,0,.22-4.21,3.55,3.55,0,0,0-2-.39c-1.43,0-104.37.12-104.37.12-8.87,0-16.09-6.12-16.09-13.63,0-5.8,4.33-11,10.81-12.88a18.46,18.46,0,0,1,5.28-.75s103,.24,104.36-.09a2.52,2.52,0,0,0,2.22-2.54,1.89,1.89,0,0,0-.51-1.42"/><path class="cls-49" d="M235.05,101.69c.86,3.2,1.68,7.39,4.4,9.89,3.54,3.24,10.17,3.31,15,3.6,7.16.42,14.35.58,21.52.78q8.16.23,16.32.31c9.6.11,19.19.1,28.78,0,8.76-.06,17.84-.92,26.48.44l.71.12c2.15.37,4.43.42,5.38-1.61.23-.5,0-1-.34-1.78-1.3-.07-2.9,0-3.07,0H251.61c-8.64,0-15.68-6-15.68-13.28,0-5.65,4.23-10.69,10.54-12.55a17.89,17.89,0,0,1,5.14-.73h98.58a13,13,0,0,0,2-.16,23.6,23.6,0,0,1,1.59-3l-2.58-.3-.65-.07c-5.83-.32-11.93.11-17.75.37-4.22.18-8.28.61-12.48.4-6.9-.32-13.84-.53-20.78-.62-7.69-.11-15.39-.09-23.05,0-12.1.16-31.31-.2-40,8.77C233.77,95.1,234.18,98.4,235.05,101.69Z"/><path class="cls-51" d="M235.93,100.21a10.89,10.89,0,0,0,.14,1.72c1,6.52,7.58,11.56,15.54,11.56h98.58c.17,0,1.77-.08,3.07,0a24.27,24.27,0,0,1-3.94-14,29.35,29.35,0,0,1,1.46-9.07,32.12,32.12,0,0,1,1.38-3.59,13,13,0,0,1-2,.16H251.61a17.89,17.89,0,0,0-5.14.73C240.16,89.52,235.93,94.56,235.93,100.21Z"/><path class="cls-55" d="M182.47,83c.29-8,3.59-13,12.05-15.4H297.07c3.56,7.93-13.43,6.93-14.87,15.33L279,82.74c-7.33-.33-14.75-.63-22.06.16-6.45.7-13.46,2.41-18.1,6.51-4.42,3.91-6.75,10.13-4.67,15.42.87,2.22,2.86,4,4.55,5.8,1.21,1.29,2.74,2.88,3.18,4.57l-.25.22-3.56-1.3h0l-1.7-.62L195.19,98.36S182,94.69,182.47,83Z"/><path class="cls-56" d="M241.47,115.88l-3.57-1.3h0l0,0-42.8-15.73c-.13,0-13.51-3.91-13.07-15.89.32-8.63,4.14-13.52,12.4-15.84l.13,0H297.07a.49.49,0,0,1,.44.28,4.52,4.52,0,0,1,.28,3.58c-.84,2.21-3.69,3.48-6.7,4.83-3.82,1.71-7.77,3.47-8.41,7.21a.49.49,0,0,1-.5.4l-.7,0L279,83.22c-4.13-.18-7.86-.34-11.66-.34a97.65,97.65,0,0,0-10.33.5c-8,.86-14,3-17.83,6.39-4.61,4.08-6.44,10.06-4.54,14.88a15.55,15.55,0,0,0,3.56,4.72l.89.93.11.12c1.22,1.29,2.73,2.9,3.18,4.66a.48.48,0,0,1-.14.48l-.25.22a.48.48,0,0,1-.32.13ZM279,82.25l2.53.13.28,0c.94-4,5.15-5.84,8.89-7.51,2.82-1.26,5.49-2.45,6.19-4.28a3.49,3.49,0,0,0-.14-2.56H194.59C186.74,70.28,183.26,74.75,183,83c-.41,11.21,12.24,14.88,12.41,14.93L236.53,113l1.7.63.05,0,2.94,1.06a14,14,0,0,0-2.77-3.67l-.11-.12-.87-.91a16.33,16.33,0,0,1-3.77-5c-2-5.21-.12-11.62,4.8-16,4-3.52,10.15-5.75,18.37-6.63a96.82,96.82,0,0,1,10.43-.51C271.13,81.91,274.86,82.07,279,82.25Z"/><path class="cls-55" d="M305,67.79a10.88,10.88,0,0,1,2.07.53l1.24.42s45.07,12.85,46.06,14.09.29,1.86-.91,2.4l-2.63-.11c-19.09-.75-38.2-.63-57.3-.63-9.25,0-18.51-.29-27.76-.06-3.55.09-7.11-.13-10.66,0a30.17,30.17,0,0,0-5.2.64l-5.3-1.93L194.52,67.56H302.89S304.46,67.69,305,67.79Z"/><path class="cls-56" d="M353.44,85.71l-2.63-.11c-15-.58-30.25-.63-43.42-.63h-13.9c-3.32,0-6.7,0-10-.08s-6.64-.07-10-.07c-2.86,0-5.4,0-7.77.08-1.57,0-3.14,0-4.71,0l-2.73,0c-1.24,0-2.26,0-3.22.07a29.07,29.07,0,0,0-5.11.62.42.42,0,0,1-.27,0l-5.28-1.93L194.38,68a.48.48,0,0,1,.14-.94h108.4c.07,0,1.6.12,2.16.22a11.26,11.26,0,0,1,2.14.55l1.22.41c10.61,3,45.3,13,46.31,14.26a1.89,1.89,0,0,1,.49,1.63c-.15.61-.67,1.1-1.58,1.51a.46.46,0,0,1-.2,0ZM197.7,68.05l47.08,14.68,5.16,1.88a30.71,30.71,0,0,1,5.14-.62c1,0,2-.07,3.27-.07l2.74,0c1.56,0,3.12,0,4.67,0,2.38-.06,4.93-.09,7.8-.09,3.32,0,6.7,0,10,.07s6.65.08,10,.08h13.86c13.17,0,28.48,0,43.46.64l2.52.1c.54-.26.86-.54.92-.81a1,1,0,0,0-.26-.76c-1.31-1-28.14-8.91-45.88-14l-1.23-.42a11.21,11.21,0,0,0-2-.52c-.52-.09-2.05-.2-2-.2Z"/><path class="cls-53" d="M235.84,101.6c.07.53.15,1.05.22,1.56,1.11-5.33,5.28-9.15,10.41-10.67a17.89,17.89,0,0,1,5.14-.74h98.76c.23-.8.5-1.66.83-2.55s.72-1.84,1.09-2.65c-7.91-.67-14.32-1-18.52-1.22-11.66-.54-16.18-.52-35.48-.79-5.81-.08-11.66-.58-17.46-.48-10.59.16-21.33-1.65-32-.12-3.93.57-8.72,1.16-11.25,4.49C234.83,92.08,235.24,97.36,235.84,101.6Z"/><path class="cls-57" d="M230.33,100.21c0,5.6,3,10.61,7.73,13.91h0a23.67,23.67,0,0,0,13.54,4.12h98.58c1.89,0,4.11.14,5.34-.63.87-.56,1.19-2.86-.76-3.88a4.14,4.14,0,0,0-1.51-.25c-1.3-.07-2.9,0-3.07,0H251.61c-8.64,0-15.68-6-15.68-13.28,0-5.65,4.23-10.69,10.54-12.55a17.89,17.89,0,0,1,5.14-.73h98.58a13,13,0,0,0,2-.16c1.59-.25,3.42-.88,3.31-2.4-.18-2.47-3-2.19-5.28-2.19H251.61a24.62,24.62,0,0,0-7,1C236.29,85.63,230.33,92.33,230.33,100.21Z"/><path class="cls-58" d="M326,29.43a24.94,24.94,0,0,1,.46,3.13c.24,2.62,1.13,5.61,3.58,7,2.16,1.23,5.46.85,6.91-1.3,2.06-3.08-.74-5.94-2.56-8.24a11.58,11.58,0,0,1-2.13-4.56,20.56,20.56,0,0,1-.53-3.45"/><path class="cls-59" d="M326.15,73.37c-1.19-1.85-1.31-5.22,1.23-9.44,2.77-4.61,9.21-8.14,13.56-4.15,4,3.63,1,8.53-5.24,13C332.06,75.44,328.21,76.56,326.15,73.37Z"/><path class="cls-60" d="M329.57,75.17c-1.19-.52-.7-2,0-3.4.84-1.63,6.48-7.43,8.78-8.9,1.89-1.22,4-1.24,4.24.07"/><path class="cls-58" d="M328.85,41.12a52.86,52.86,0,0,1-.11,9.75c-.33,3.68,0,7.33-.85,11-.62,2.78,1.65,6.26-.91,7.57-7.27,3.72-12.55,3.7-17.57,3.53-5.52-.18-11.49-1-15.43-5.25-5.5-6-2.13-14.31.29-20.89.75-2,2.35-9.86,1.87-11.37a46,46,0,0,1-1.89-9.07c15.46-8.32,28.85-8.6,32.85-3,.76,1.06,2.32,3.93.48,10.15A46.87,46.87,0,0,1,328.85,41.12Z"/><path class="cls-58" d="M341.82,47.9q-.36-.23-.66-.45a38.11,38.11,0,0,1-5.43-5.12c-1.68-1.93-3.46-3.77-5-5.84l-9.21,9.24s1.58,1.47,3.79,3.16a30.28,30.28,0,0,0,7.53,4.54c3.29,1.32,7.53,2.35,10.91.76a3,3,0,0,0,1.63-1.54C346.22,50.38,343.56,49,341.82,47.9Z"/><path class="cls-58" d="M335.29,25.16A31.18,31.18,0,0,1,334,29.39l-37.81,5.24a20.33,20.33,0,0,1-3.3-8.25,26.7,26.7,0,0,1,.82-11.62A20.69,20.69,0,0,1,308.57,1.3c.35-.09.71-.18,1.08-.25a23.55,23.55,0,0,1,3.13-.43c.38,0,.74-.05,1.11-.06a20.74,20.74,0,0,1,18,8.9,22.71,22.71,0,0,1,3.78,12.11A14,14,0,0,1,335.29,25.16Z"/><path class="cls-61" d="M333.82,13a37.81,37.81,0,0,1,2.11,6.32,21.69,21.69,0,0,0,1.72,4.7,12.11,12.11,0,0,0,2.6,3.43,6.44,6.44,0,0,1,1.89,2.29c1.14,2.65-.45,5.15-3,6.07-4.82,1.73-8.36-3.42-8.63-8.7Z"/><path class="cls-62" d="M336.11,28c-.24-.2.31-1.2.42-1.4a6.55,6.55,0,0,1,1.64-2c.2.26,1.57,2.16,1.75,2.47-.37.14-3.09.85-3.67.92C336.22,28.06,336.15,28.07,336.11,28Z"/><path class="cls-63" d="M333.82,13a37.81,37.81,0,0,1,2.11,6.32,21.69,21.69,0,0,0,1.72,4.7,12.11,12.11,0,0,0,2.6,3.43,6.44,6.44,0,0,1,1.89,2.29c1.14,2.65-.45,5.15-3,6.07-4.82,1.73-8.36-3.42-8.63-8.7"/><path class="cls-62" d="M337.89,30.42c0-.3-1.17-.38-1.4-.4a6.85,6.85,0,0,0-2.54.32,4.71,4.71,0,0,0,.46,3c.32-.25,3.06-2.37,3.42-2.81A.18.18,0,0,0,337.89,30.42Z"/><path class="cls-14" d="M322.39,40.72c3.54-.72,10.55-2.77,12.47-7.86a8.29,8.29,0,0,0-.77-7.27,39,39,0,0,0-.62-4.29,9.38,9.38,0,0,0-1.81-4.23c-2.41-2.85-7.71-1.94-9.39,1.46-.61,1.23-1.37,3.76-.42,8.14,1,4.55,1,2.5-1.22,3.16-2.29.41-1.77.92-2.67-3.64-.68-3.4-1.9-7.47-5.69-8.42a7.64,7.64,0,0,0-7.12,1.92A8.07,8.07,0,0,0,303,26a22.25,22.25,0,0,0,.61,4,16,16,0,0,0-.05,3.75c.49,3.33,1.44,5.3,4.62,6.83S317.19,41.79,322.39,40.72Z"/><path class="cls-64" d="M307,44.57a4.59,4.59,0,0,0,.48-4.43h-.12c-2.54-1.47-3.36-3.37-3.81-6.4a16,16,0,0,1,.05-3.75,22.25,22.25,0,0,1-.61-4c-.2-3.22,1.05-6.59,4.73-7.95a7.67,7.67,0,0,1,2.1-.46c5.72-.42,8,4.71,8.85,8.73.48,2.21.18,3.92,2.47,3.51,2.23-.66,1.58-1.68,1.06-3.46-1.09-3.74-.66-6.67.18-8.09A5.72,5.72,0,0,1,331.27,17a8.68,8.68,0,0,1,2.2,4.28,39,39,0,0,1,.62,4.29,8.29,8.29,0,0,1,.77,7.27,10.05,10.05,0,0,1-3.5,4.29c-1.17.89,0,3.09.25,3.77,1.8,4.62,5.19,12.67,1.93,20.74-4.24,10.47-17,12.25-24,10.35-3.85-1-6.43-4.38-7.25-8.31C300.84,57,303.9,50.21,307,44.57Z"/><path class="cls-65" d="M331.49,23.42a3.58,3.58,0,1,1-4.06-3.26,3.7,3.7,0,0,1,4.06,3.26"/><path class="cls-65" d="M315.08,26.14a3.78,3.78,0,1,1-4.28-3.3,3.82,3.82,0,0,1,4.28,3.3"/><path class="cls-14" d="M313.55,25.18a1,1,0,1,1-1.12-.87,1,1,0,0,1,1.12.87"/><path class="cls-14" d="M330.28,22.45a1,1,0,0,1-.79,1.1,1,1,0,0,1-1.06-.85,1,1,0,0,1,.79-1.11,1,1,0,0,1,1.06.86"/><path class="cls-59" d="M321.73,27.68c.49-.06,3-.4,3,1.65,0,2.93-.89,4.4-2.05,4.64-2,.41-3.9-1.81-5.11-3.08-.64-.66-.62-.05-.49-.69C317.3,29,319.22,28,321.73,27.68Z"/><path class="cls-66" d="M321.87,27.83a1.54,1.54,0,0,1,1.71,1.5c.23,1.75-.47,2.81-1.2,2.93-1.15.17-2.29-1-3-1.9-.39-.46-.3-.28-.23-.75C319.26,28.72,320.38,28,321.87,27.83Z"/><path class="cls-59" d="M325.88,28.72c.06-1.19-1.13-1.36-2.16-1.48-2.09-1.56-3.74-.9-5.19,1-2.25.69-2.6,1.79-2,2.58.35.48,1,1,2.3.3a15.68,15.68,0,0,1,3.46-1.64,8.15,8.15,0,0,1,2.58.18A1,1,0,0,0,325.88,28.72Z"/><path class="cls-61" d="M293.35,15.8a30.15,30.15,0,0,0-1.09,7.73c.05,3.29.38,6.77-1,9.83-.91,2-2.66,3.93-2.38,6.22a4.42,4.42,0,0,0,3.29,3.89,4.72,4.72,0,0,0,3.56-.41Z"/><path class="cls-62" d="M292.63,37.75a27.57,27.57,0,0,0-3.68.31,11.34,11.34,0,0,1,1.19-2.64,5,5,0,0,1,2.65,2A.22.22,0,0,1,292.63,37.75Z"/><path class="cls-63" d="M293.35,15.8a30.15,30.15,0,0,0-1.09,7.73c.05,3.29.38,6.77-1,9.83-.91,2-2.66,3.93-2.38,6.22a4.42,4.42,0,0,0,3.29,3.89,4.72,4.72,0,0,0,3.56-.41"/><path class="cls-61" d="M301.35,38.26c.28,3.07-.81,5-2.58,5.89A5.11,5.11,0,0,1,292.31,42c-.9-1.92-.3-4,.66-5.8a6.18,6.18,0,0,0,.62-3.91"/><path class="cls-62" d="M292.82,36.12a9,9,0,0,1,3.61,1.41c.31.21.17.51-.17.51-1.23,0-3.38.36-4.32,1.4A7.46,7.46,0,0,1,292.82,36.12Z"/><path class="cls-63" d="M300.65,42.38a4.39,4.39,0,0,1-1.88,1.77A5.11,5.11,0,0,1,292.31,42c-.9-1.92-.3-4,.66-5.8a5.92,5.92,0,0,0,.7-2.69"/><path class="cls-62" d="M300.86,37.4a3.69,3.69,0,0,1,.34,2.09c-.11,1.38-.16,1.67-.2,2.09-1.24,0-3.79-.38-4.76-.52a.15.15,0,0,1-.07-.28C297.11,40.12,299.85,38.17,300.86,37.4Z"/><path class="cls-61" d="M293.57,49.66a34.5,34.5,0,0,1-8.21-14.46c-1.1-4.14-.22-7.47.79-8.63,1.82-2.11,4.7-1.15,5.32,1.75a114.77,114.77,0,0,0,10.31,9.13l-.9,8.18Z"/><path class="cls-58" d="M294.57,50.55c-3.15-3.35-7.57-9.2-9.21-15.35-1.1-4.14-.22-7.47.79-8.63,1.67-1.94,4.23-1.29,5.12,1.07a3.72,3.72,0,0,0,.81,1.33,124.24,124.24,0,0,0,9.7,8.48"/><path class="cls-61" d="M296.58,33.5a25.19,25.19,0,0,1,1.07,3c.76,2.52,2.22,5.3,4.8,6.41,2.28,1,5.52.25,6.73-2,1.72-3.28-1.38-5.82-3.43-7.91a7,7,0,0,1-2.2-3.75,20.56,20.56,0,0,1-.53-3.45"/><path class="cls-62" d="M309.24,36.71c-1.1.09-4.3.89-4.86,1a.17.17,0,0,1-.18-.23c.34-.81,1.44-3.31,2.21-3.81l2.16,2Z"/><path class="cls-62" d="M298.59,38.93a12.91,12.91,0,0,1-1.16-3.53,11.26,11.26,0,0,1,1.64-.86,9.88,9.88,0,0,1,2.45-.7.21.21,0,0,1,.2.32Z"/><path class="cls-63" d="M296.41,32.64c.32.7.92,2.76,1.24,3.84.76,2.52,2.22,5.3,4.8,6.41,2.28,1,5.52.25,6.73-2,1.72-3.28-1.38-5.82-3.43-7.91a7,7,0,0,1-2.2-3.75,20.56,20.56,0,0,1-.53-3.45"/><path class="cls-59" d="M310.74,80.5c-5.55.47-8.19-5.54-6.6-11.64,1.69-6.51,9.06-10,13.81-5.6,2.55,2.33-.75,5.66-2.6,10.84C314.06,77.71,313.84,80.23,310.74,80.5Z"/><path class="cls-59" d="M311.1,80.58c-2.84,0-4.85-2.65-3.76-9.84.75-4.9,3.85-9.3,8.28-8.72,4.73.62,4.87,7.21,2.9,12.35C317.15,78,314.25,80.58,311.1,80.58Z"/><path class="cls-67" d="M248.48,67.17c-.29,1.66-.75,4.81-.75,4.81a2.51,2.51,0,0,1-.08,2.45c-1.29,2.11-6,2-7.32-.23-.81-1.33-.85-6.93-3.82-13.64"/><path class="cls-67" d="M274.3,49.66c.57.27,7.52,3.31,8,3.18a4.25,4.25,0,0,1,4.78,1.76,5.37,5.37,0,0,1,.37,4.44,5.14,5.14,0,0,1-3.66,3.06c-1.57.46-9.83.48-14.9,1.3a44.47,44.47,0,0,0-6.13,1.86"/><path class="cls-62" d="M245.69,38.23c-1.5.12-3.63.3-6.19.55-7.16.7-8.43,1-9.68,1.63a15,15,0,0,0-6.33,5.91c-3.24,5.6-2.75,12.48,2.18,19.85,2,0,11.22,6.14,17.87,4.73a21.4,21.4,0,0,0,8.38-4.32C250.22,56.8,247.39,48,245.69,38.23Z"/><path class="cls-67" d="M233.2,68.78a11.35,11.35,0,0,0,3.12,1.67c3,1.37,13,2.06,24.28-3.19"/><path class="cls-62" d="M269.16,62.69c12.8-7.4,17.39-20.93,12.1-33.12C274,12.81,257.08,10.12,245.8,15.44a26,26,0,0,0-15,25.51,18.14,18.14,0,0,0,1.38,5.2c.37,1.53,2.91,11.55,12.88,16.8C256.73,69.12,268.21,63.2,269.16,62.69Z"/><path class="cls-67" d="M269.16,62.69c12.8-7.4,17.39-20.93,12.1-33.12C274,12.81,257.13,10.24,245.8,15.44,226.66,24.21,231.46,45,232.14,46.15"/><path class="cls-67" d="M230.88,40.11a13.66,13.66,0,0,0-1.45.54c-11.29,5.23-7.22,18.44-6.6,20.44"/><ellipse class="cls-68" cx="250.67" cy="38.37" rx="3.68" ry="3.79" transform="translate(-0.26 1.74) rotate(-0.4)"/><ellipse class="cls-68" cx="274.79" cy="27.16" rx="2.36" ry="3.6" transform="translate(16.21 124.02) rotate(-26.18)"/><path class="cls-69" d="M275.19,58.17c-5.51,5.24-15.05,9.36-17,10.14-12,4.71-20.57,2.58-20.57,2.58s-1-.62.39-1.12c1.05-.37,12.38-2.2,16.13-3.47a29,29,0,0,0,10.09-5.72c2.78-2.49,5.13-3.56,7.62-3.79C274.12,56.57,275.44,57.94,275.19,58.17Z"/><ellipse class="cls-14" cx="250.92" cy="36.72" rx="1.17" ry="1.12" transform="translate(-1.07 65.21) rotate(-14.78)"/><ellipse class="cls-14" cx="274.34" cy="25.57" rx="0.83" ry="1.07" transform="translate(13.75 115.06) rotate(-24.28)"/><path class="cls-67" d="M234,68.29c-.44,1.63-1.19,4.72-1.19,4.72a2.49,2.49,0,0,1-.3,2.44c-1.47,2-6.15,1.41-7.27-.89-.68-1.4-.22-7-2.57-13.93"/><path class="cls-67" d="M244.54,66.86a82.93,82.93,0,0,1,8.24,9.27c2.73,4.39,8.55,1.87,9.49-.54a4.37,4.37,0,0,0,.15-2.8,3.36,3.36,0,0,0-.57-1.11,36.78,36.78,0,0,1-.52-6.26,8.49,8.49,0,0,1,1.38-4.22"/><path class="cls-70" d="M321.4,87.15c1.15.12,3.68.38,5.32.62,3.82.55,7.85,1.52,11.14.77,1.26-.28,2.36-.34,3.1.44s1.35,2.63-.45,5.06a20.46,20.46,0,0,1-6.38,5.54,22.17,22.17,0,0,1-13.56,2.26"/><path class="cls-59" d="M327.7,120.53c-1.34-1.74-1.73-5.09.46-9.51,2.39-4.82,8.52-8.85,13.17-5.24,4.25,3.3,1.71,8.43-4.16,13.42C333.75,122.12,330,123.55,327.7,120.53Z"/><path class="cls-60" d="M331.25,122.05c-1.23-.42-.86-1.9-.23-3.4.7-1.68,5.85-7.92,8-9.58,1.79-1.37,3.91-1.56,4.24-.27"/><path class="cls-70" d="M275.07,85.77l-2.82,1.39,2.65,1.56-1.56,1.52a7.61,7.61,0,0,0,3.17.51c2.44-.28,3.4-1.59,3.52-2.73A3.81,3.81,0,0,0,276.88,84a7,7,0,0,0-3.32.09Z"/><ellipse class="cls-71" cx="279.86" cy="86.86" rx="1.84" ry="2.63" transform="translate(-12.4 65.59) rotate(-13.08)"/><ellipse class="cls-70" cx="282.79" cy="86.02" rx="2.97" ry="3.01" transform="translate(30.64 240.28) rotate(-48.38)"/><ellipse class="cls-72" cx="285.03" cy="85.3" rx="1.75" ry="2.52" transform="translate(9.55 197.7) rotate(-38.86)"/><ellipse class="cls-70" cx="287.81" cy="83.41" rx="3.6" ry="3.53" transform="translate(-5.67 22.89) rotate(-4.51)"/><path class="cls-70" d="M288.54,85.18a30,30,0,0,1-2.86-12.83c-.17-9.65,7.22-20.95,20.15-21.69,11.22-.64,18.75,5.5,22.06,13.64,2.77,6.83.83,13.83.84,13.92l-6.65,10.14s4.07,30.91,1.45,32.18c-8.4,4.09-19.95,7-28.54,1.41-9-5.83-5.37-17.92-3.64-26.48C292.16,91.46,290.45,88.85,288.54,85.18Z"/><path class="cls-73" d="M302.41,117.44a12.79,12.79,0,0,0,8,4.84c6.87,1.39,15.14-1,19.28-6.89,3-4.24,3.11-9.82,2-14.72a53.24,53.24,0,0,0-3.08-8.18,33.38,33.38,0,0,1-2-4,1,1,0,0,1,.22-.91c.39-.44,1-1.06,1.31-1.39,2.28-2.52,2.52-6.54.93-8.74.61-4.72-.65-10.62-4.77-10.81-2.75-.12-4.53,1.88-5.21,4.38a19.19,19.19,0,0,0-.29,5.75c.35,5,1,4.69-1.48,4.87-2.45-.1-1.22.68-1.5-4.32a14.42,14.42,0,0,0-2.22-7.39,6.88,6.88,0,0,0-7.07-2.74,6.35,6.35,0,0,0-5.23,4c-1.23,2.89-1,4.93-.8,8,0,.68-.13.63-.28,1.34-.86,4,.6,6.62,1.59,7.68a7,7,0,0,1,.81,1.25c1.4,3.16-.9,12.95-1.35,16C300.87,108,299.41,113.16,302.41,117.44Z"/><ellipse class="cls-74" cx="308.19" cy="76.1" rx="3.86" ry="3.78" transform="translate(224.96 382.44) rotate(-88.67)"/><ellipse class="cls-14" cx="309.96" cy="75.3" rx="1.02" ry="1" transform="translate(227.48 383.42) rotate(-88.67)"/><path class="cls-74" d="M327.07,74.93A3.38,3.38,0,0,1,324,78.61,3.49,3.49,0,0,1,320.7,75a3.35,3.35,0,0,1,3.09-3.67,3.5,3.5,0,0,1,3.28,3.57"/><path class="cls-14" d="M326.12,74.06a.92.92,0,0,1-.84,1,1,1,0,0,1-.9-1,.9.9,0,0,1,.84-1,1,1,0,0,1,.9,1"/><path class="cls-70" d="M307.83,56.42c-.34.86-.82,2-1.41,3.41-.48,1.17-.66,1.58-.46,1.92.45.77,2.43.5,3.66,0A6.9,6.9,0,0,0,313,58.85a7.25,7.25,0,0,0,3.64,3.83c1.39.56,3.49.75,3.67.28a.38.38,0,0,0-.1-.33,9.08,9.08,0,0,1-.58-3.79,9.1,9.1,0,0,0,5.36,1.9,6.26,6.26,0,0,0,3.37-1.07c.35-.29.5-.51.47-.71s-.54-.48-1.12-.7a33.4,33.4,0,0,1-3.53-2,3.75,3.75,0,0,1-.89-.77s.88.75.89.77a9.23,9.23,0,0,0,1.43-3.17,13.19,13.19,0,0,0,.32-2.57c0-1-.37-3.26-1.83-2.34a11.5,11.5,0,0,0-1.59,1.37,21.39,21.39,0,0,1-2.32,1.93,14.83,14.83,0,0,1-3.63,1.86"/><path class="cls-59" d="M316.1,128.34c-5.48,1-8.72-4.67-7.76-10.9.86-5.61,6-9.47,10.63-8.23a7.46,7.46,0,0,1,2.61,1.12c2.77,2.07-.24,5.83-1.55,11.17C319.12,125.22,319.15,127.76,316.1,128.34Z"/><path class="cls-59" d="M316.46,128.39c-2.82.29-5.09-2.14-4.74-9.41.24-5,2.87-9.65,7.34-9.52,4.76.13,5.58,6.67,4.15,12C322.21,125.15,319.6,128.06,316.46,128.39Z"/><path class="cls-59" d="M318.24,78.41a2.37,2.37,0,0,1,2.62,2.2c.12,2.86-1.22,4.15-2.4,4.28-2,.24-3.74-2-4.83-3.34-.58-.72-.46-.42-.27-1C313.71,79.32,315.71,78.52,318.24,78.41Z"/><path class="cls-66" d="M318.37,78.56a1.54,1.54,0,0,1,1.56,1.65C320,82,319.22,83,318.49,83c-1.16.07-2.19-1.22-2.85-2.15-.35-.5-.27-.31-.16-.78C315.68,79.22,316.87,78.63,318.37,78.56Z"/><path class="cls-59" d="M322.28,79.8c.13-1.33-1.08-1.26-2-1.66-1.94-1.74-3.65-1.23-5.25.52-2.31.49-2.76,1.56-2.25,2.39.3.51.87,1,2.26.5a15.82,15.82,0,0,1,3.59-1.33,7.81,7.81,0,0,1,2.55.41A1,1,0,0,0,322.28,79.8Z"/><path class="cls-75" d="M342.66,92.88l-6.06-8.35a1.17,1.17,0,0,0-1.62.22l-18.21,20.32a1.09,1.09,0,0,0,.25,1.59l11,3.42a3.55,3.55,0,0,0,2.77-.15,3.32,3.32,0,0,0,1.14-1c.82-1,10.9-12.8,11.51-14.15A1.31,1.31,0,0,0,342.66,92.88Z"/><path class="cls-76" d="M314.29,105.87c3.21,2.45,10,.41,13.22,2.86l6.28-7.73c-3.24,4-1.84,2.67,3.15-3.87,1.22-1.6,1.7-1.58,2.31-2.48.69.65,1.58-.46,1.93-.4.12,0,.8.3.94-.18.09-.27-.21-.68-.32-.83-.44-.64-3.41-4.78-5.76-8.13-.2,0-1.38.29-1.38.29l2.63,6-10.21-2.65s-2.51,1.68-2.51,1.68S318,100.69,314.29,105.87Z"/><polygon class="cls-77" points="330.88 89.7 339.61 92.27 334.66 85.4 330.88 89.7"/><path class="cls-75" d="M340.9,94.53l-15.41-4.18a1.87,1.87,0,0,0-1.81.59l-10.49,13.37a1.12,1.12,0,0,0,.26,1.62l13.85,3.84a1,1,0,0,0,1.29-.19Z"/><path class="cls-78" d="M336.17,96.15c-.33-.1-9.71-2.55-9.93-2.62a.71.71,0,0,0-.67.15l-1.6,2a.41.41,0,0,0,.08.59l10,2.58a.75.75,0,0,0,.75-.24l1.49-1.86C336.44,96.61,336.51,96.25,336.17,96.15Z"/><path class="cls-79" d="M340.9,94.53a3.41,3.41,0,0,0,1.24.55c.1,0,.88.06,1.2-.46a1.24,1.24,0,0,0-.36-1.49"/><path class="cls-70" d="M300.39,90.73c1.26.34,8.67,3.83,8.67,3.83a38,38,0,0,1,9.19.66,3.24,3.24,0,0,1,3.61,1.13c.6.82.89,3.32-1.59,5.42-2.68,2.26-8.74,4.3-11,4.89-5.41,1.43-12.75-1.3-12.73-1.38"/><path class="cls-59" d="M218.29,156.35c-1.63-1.67-2.46-5-.73-9.39,1.9-4.85,7.81-9.07,13.15-5.69,4.87,3.08,2.86,8.24-2.66,13.4C224.84,157.68,221.1,159.23,218.29,156.35Z"/><path class="cls-59" d="M231.82,142.13s-3-1.29-6.78,3.4c-3.89,4.88-8.32,11.15-4,12.28"/><path class="cls-80" d="M210.92,114c.9-.71,2.9-2.29,4.24-3.26,3.13-2.26,6.69-4.38,8.53-7.2.71-1.09,1.45-1.9,2.53-1.85s2.8.94,3.2,3.94A22.87,22.87,0,0,1,228,115.86c-2.75,7-10.47,12.33-10.52,12.27"/><ellipse class="cls-81" cx="180.64" cy="93.52" rx="5.05" ry="5.12" transform="translate(-21.46 116.54) rotate(-33.87)"/><ellipse class="cls-81" cx="184.56" cy="87.86" rx="5.58" ry="5.66" transform="translate(-17.01 121.83) rotate(-35.02)"/><path class="cls-80" d="M174.38,113.09c-2.5-9.3,2.14-22.18,14.43-26,10.65-3.33,19.41.78,24.57,7.85,4.33,5.94,4.16,13.17,4.2,13.26a23.51,23.51,0,0,1-.24,6l-17.22,4.92a38.94,38.94,0,0,0-.1,12.7A27.14,27.14,0,0,0,206.78,145c2.46,2.78,6.82,4.59,10,6.54-1.17,1.16-3.87,3.7-9.76,5-21.21,4.7-29.89-7.29-28-19.86.44-3,2.34-5.91,2.68-8.78s-1.42-4.34-3-6.37A22.88,22.88,0,0,1,174.38,113.09Z"/><path class="cls-82" d="M218.81,116.09c1.59-3.16.8-6.93-1.29-8.68-.56-4.76-3.2-10.1-7.25-9.28-2.71.55-3.89,3-3.94,5.55a15.75,15.75,0,0,0,1,5.41c1.66,4.75,2.09,4.34-.25,5.11-2.4.5-1,1-2.52-3.84a13.64,13.64,0,0,0-3.86-6.46,6.81,6.81,0,0,0-7.5-.91,6.3,6.3,0,0,0-4.06,5c-.53,3.11.19,5,1.09,7.93a21.74,21.74,0,0,1,.27,2.61,10.62,10.62,0,0,0,1,3.53,2.54,2.54,0,0,0,.16.28,6.46,6.46,0,0,0,1.43,1.61,1.79,1.79,0,0,1,.67,1.64c-.72,8.31-4,11.41-3.24,19.13a15.09,15.09,0,0,0,2.72,7.42c3.29,4.3,10.57,5,13,4.55,4.22-.73,8.9-2.56,11.71-5.92,7.87-9.41,3.38-20.62-.75-30.1-.11-.44-.49-1.52-.05-2.12A17.25,17.25,0,0,0,218.81,116.09Z"/><ellipse class="cls-83" cx="197.05" cy="111.28" rx="3.78" ry="3.86" transform="translate(-19.74 46.38) rotate(-12.79)"/><ellipse class="cls-14" cx="198.47" cy="110.14" rx="1.01" ry="1.03" transform="translate(-19.46 46.66) rotate(-12.79)"/><path class="cls-83" d="M215.09,105.53a3.36,3.36,0,0,1-2.07,4.3,3.5,3.5,0,0,1-4.12-2.64,3.37,3.37,0,0,1,2.12-4.32,3.51,3.51,0,0,1,4.07,2.66"/><path class="cls-14" d="M213.87,105a.92.92,0,0,1-.57,1.18,1,1,0,0,1-1.12-.73.91.91,0,0,1,.57-1.17,1,1,0,0,1,1.12.72"/><path class="cls-84" d="M181.16,143.12c-5.25,3.6-18.08,1.27-18.93-4.65-.3-2.11,1.73-2.76,4.05-3a14.54,14.54,0,0,0,5.13-1.6,60,60,0,0,0,5.64-3,62.69,62.69,0,0,0,5.55-3.8c.55.14,4.68,1.28,5.89,4.63C189.85,135.47,187.12,141,181.16,143.12Z"/><path class="cls-80" d="M181.16,143.12c-5.25,3.6-18.08,1.27-18.93-4.65-.3-2.11,1.73-2.76,4.05-3a14.54,14.54,0,0,0,5.13-1.6,60,60,0,0,0,5.64-3,62.69,62.69,0,0,0,5.55-3.8"/><ellipse class="cls-81" cx="191.53" cy="84.17" rx="6.07" ry="6.2" transform="translate(-16.65 104.92) rotate(-29.42)"/><path class="cls-59" d="M194.92,151.16c2.46-6.66,10.1-9.15,15.07-4.3,2.62,2.14,1.75,7.25-.55,11.31-1.93,3.41-5.77,5.85-9.59,5.5C193.22,163.07,193,156.41,194.92,151.16Z"/><path class="cls-59" d="M197.85,154c1.43-4.74,5.33-8.84,10-8,5,.89,4.33,7.33,1.55,12.23-1.93,3.41-5.39,5.8-8.79,5.61C197.59,163.62,195.75,160.9,197.85,154Z"/><path class="cls-59" d="M207.24,110.84a2.38,2.38,0,0,1,3,1.67c.66,2.79-.41,4.3-1.54,4.66-1.94.61-4.05-1.24-5.38-2.38-.71-.59-.53-.32-.46-1C203,112.59,204.78,111.42,207.24,110.84Z"/><path class="cls-66" d="M207.4,111a1.55,1.55,0,0,1,1.85,1.32c.41,1.72-.18,2.85-.89,3-1.13.29-2.38-.78-3.2-1.57-.44-.43-.33-.26-.31-.73C204.89,112.12,205.94,111.32,207.4,111Z"/><path class="cls-59" d="M211.48,111.45c-.12-1.33-1.3-1-2.3-1.25-2.24-1.35-3.82-.52-5.06,1.5-2.18.91-2.41,2-1.76,2.77.4.44,1,.86,2.32.07a15.17,15.17,0,0,1,3.27-2,8.28,8.28,0,0,1,2.58-.08A1,1,0,0,0,211.48,111.45Z"/><path class="cls-85" d="M290.26,103c5.64,4.7,9,8.29,8.34,11.21-.57,2.62-5.16,2.4-6.48.49a5.47,5.47,0,0,1-5.17-1.38c-1.83-1.71-2.47-5.47-2.15-7.87-.6-1.2-.8-2.55-.2-3.3C285.44,101.1,288,101,290.26,103Z"/><path class="cls-86" d="M290.85,124.78c-2.05-1.37-1.92-4.88,0-8.17,1.07-1.88,3.9-3.65,5.77-2.31,1.34,1,1.6,3.46,1,5.52C296.88,122,294.6,126.76,290.85,124.78Z"/><path class="cls-85" d="M291.56,108.09c2.13,5,2,12-3.16,15.36a14.27,14.27,0,0,1-6.33,2.25c-5.62.74-13.95,0-15.58-6.52-1.07-4.22.91-9.49,1.51-13.76"/><path class="cls-81" d="M285.17,112.74c-3.28.59-9.92-1.78-13.82-4.56a50,50,0,0,1-4.58-3.89l11.6-1.81,9.64-2.1S292.12,111.5,285.17,112.74Z"/><path class="cls-86" d="M280.8,130.1c-2.62.29-4.72-1.73-5.24-5.61-.39-2.89.7-5.75,3.11-6.2,2-.38,3.59,1.56,4.45,3.61S285.15,129.2,280.8,130.1Z"/><path class="cls-85" d="M268,104.47c-1.76,1.46-9.32,12.65-6.65,16.92,1,1.66,4.89.92,5.36-1.35a4.29,4.29,0,0,0,4.47-2.87,6.54,6.54,0,0,0-.34-5.55"/><path class="cls-85" d="M277.38,74a2,2,0,0,0-3.5-.31,2,2,0,0,0-2.35-.52,2.08,2.08,0,0,0-.48,3.41,13.37,13.37,0,0,0-2,1,22.8,22.8,0,0,0-6.59,6.76,31.52,31.52,0,0,0-2.27,4,1.94,1.94,0,0,0-.93-.06,2,2,0,0,0-1.61,2.39,2.06,2.06,0,0,0,1.77,1.68,2.09,2.09,0,0,0,2.27,2.78,14.62,14.62,0,0,1,1.44,3.57c.42,1.42.15,3,.76,4.31.74,1.58,3.53,5.91,16.18,3.61s13.43-7.17,13.55-8.91c.1-1.44-.6-2.82-.72-4.29a13,13,0,0,1,.24-4,2.41,2.41,0,0,0,1.24-1.89,1.75,1.75,0,0,0-.75-1.83,2,2,0,0,0-1.52-3.15,33,33,0,0,0-3.56-3,23.28,23.28,0,0,0-8.58-4,14.31,14.31,0,0,0-2.26-.27A3.17,3.17,0,0,0,277.38,74Z"/><path class="cls-87" d="M280.45,107.22c3.8-.69,13.26-4.11,13.56-9.3.14-2.28-.61-3.24-2.06-3.86-.82-3.55-3.21-6.38-6.16-5.61-2.11.55-4.68,2.7-2.68,9.36l-1.21,1.61-1.26-1c-1.19-7.54-5.9-7.58-8.14-6.81-2.95,1-4.87,3.4-4.39,7.68.06,1.69-1,1.77-.63,3.82C268.41,108.15,276.65,107.92,280.45,107.22Z"/><path class="cls-88" d="M285.45,92.59a2.36,2.36,0,0,1,3.53-.37,2.93,2.93,0,0,1,.47,3.86,2.38,2.38,0,0,1-3.54.36A2.91,2.91,0,0,1,285.45,92.59Z"/><ellipse class="cls-14" cx="288.1" cy="93.33" rx="0.7" ry="0.76" transform="translate(-13.02 61.08) rotate(-11.84)"/><path class="cls-88" d="M272.36,95.75a2.89,2.89,0,1,1,.35,4.06A2.89,2.89,0,0,1,272.36,95.75Z"/><path class="cls-14" d="M274.79,96.79a.8.8,0,1,0,.64-.93A.8.8,0,0,0,274.79,96.79Z"/><path class="cls-89" d="M282.64,97.13a4,4,0,0,1,1.51.2,3.88,3.88,0,0,1,.53.21,3.63,3.63,0,0,0-.16.75c0,.5,0,2.38-.74,2.77a3.63,3.63,0,0,1-3.72-1.43c-.07-.08-.29-.16-.36-.37a.87.87,0,0,1,0-.33A3.45,3.45,0,0,1,282.64,97.13Z"/><path class="cls-66" d="M282.59,97.33a1,1,0,0,1,1.15.91c.22,1.12-.19,1.83-.66,1.93-.73.15-1.51-.57-2-1.11-.27-.28-.2-.17-.17-.48C280.93,98,281.63,97.52,282.59,97.33Z"/><path class="cls-89" d="M285.19,97.67c-.06-.86-.89-.87-1.47-.83-1.43-.89-2.63-.3-3.46,1-1.34.52-1.46,1.39-1.05,1.87.25.29.74.39,1.56-.11a10.21,10.21,0,0,1,2.13-1.24,5.25,5.25,0,0,1,1.67,0A.66.66,0,0,0,285.19,97.67Z"/><path class="cls-90" d="M175.77,157a11.27,11.27,0,0,0,4.28,2c.92.2,3.25.69,4.06.16a1.92,1.92,0,0,0,.63-.67c.46-.85.66-1.89-.39-2.39a1.53,1.53,0,0,0-1.14-.06,1.93,1.93,0,0,1-.76.07,16.45,16.45,0,0,1-2.27-.47,16.27,16.27,0,0,1-3-1.18,1.61,1.61,0,0,0-1.89,1A1.55,1.55,0,0,0,175.77,157Z"/><path class="cls-90" d="M171.58,159.53a11.45,11.45,0,0,0,3.67,2.94c.85.42,3,1.46,3.9,1.14a1.78,1.78,0,0,0,.78-.5c.65-.71,1.1-1.66.2-2.4a1.48,1.48,0,0,0-1.08-.34,1.79,1.79,0,0,1-.76-.12,15.13,15.13,0,0,1-2.09-1,16.34,16.34,0,0,1-2.64-1.88,1.59,1.59,0,0,0-2.07.51A1.54,1.54,0,0,0,171.58,159.53Z"/><path class="cls-90" d="M174.82,159.86c8-2.48,9.78-8.76,7.24-14.35-2.67-5.87-8.63-9.72-14.19-8s-8.28,8.28-7.15,14.63C161.8,158.2,166.84,162.35,174.82,159.86Z"/><path class="cls-91" d="M177.24,149.61a1.61,1.61,0,0,1-1.07,1.21,2,2,0,0,1-1.83-.23"/><circle class="cls-33" cx="179.12" cy="147.58" r="1.34"/><circle class="cls-14" cx="178.57" cy="147.27" r="0.37"/><circle class="cls-33" cx="170.85" cy="150.15" r="1.42"/><circle class="cls-14" cx="170.26" cy="149.82" r="0.39"/><path class="cls-92" d="M154,145.11c1.23-.74,2.87-.53,3.84-1.3,3.56-2.82,2.75-7.33,9.38-9.39,6.78-2.11,9.43,3.11,12.83,2.2l0,.1c1.13-.1,1.51-.83,3.65-1.2a3.63,3.63,0,0,1,4.27,3.6,4,4,0,0,1-3.54,3.69c-1.4.27-3.05.05-5.58-1.18l.84-3.52c-1.66,2.24-6.11,5-9.25,6.08s-8.37,1.47-11,.68l2.78,2.31a8.29,8.29,0,0,1-4.05,4,4,4,0,0,1-5-.8A3.36,3.36,0,0,1,154,145.11Z"/><path class="cls-92" d="M161.32,142c-.6.93-1.63.76-2.94,1.49a3.41,3.41,0,0,0-1.08,5.13c1,1.44,3,2,5.15,1,2-.88,4.42-2.66,5.47-7.78"/><path class="cls-92" d="M176.5,137.13c1.06.31,2.15-.76,3.65-.91a3.77,3.77,0,0,1,4.1,3.87c.08,1.92-1.35,3.46-3.61,3.95a8.7,8.7,0,0,1-6.73-1.2"/><path class="cls-92" d="M171.83,137.82c.75.67,2.38,1.14,3.3,2.79a3.86,3.86,0,0,1-1.9,5.53,5,5,0,0,1-6.54-1.57,6.59,6.59,0,0,1-.83-4.09"/><g class="cls-93"><g class="cls-93"><path class="cls-94" d="M182.06,147.4a1.81,1.81,0,1,0,.14,3.48,1.87,1.87,0,0,0,.57-.32A9.36,9.36,0,0,0,182.06,147.4Z"/></g></g><circle class="cls-95" cx="170.96" cy="153.81" r="1.81"/><path class="cls-90" d="M166.61,157.76a7,7,0,0,0,5.43.71c3.68-.91,3.18-3.75,2-4.26-1.63-.69-2.05.79-3.55,1a3.36,3.36,0,0,1-1.87-.62"/><path class="cls-90" d="M183.21,148.85a5.44,5.44,0,0,1,0,1.45c-1.05.67-2.55.08-3.16,1.5-.45,1.06.7,3,3.61,1.95a2.14,2.14,0,0,0,1.42-2C185.08,150.08,183.21,148.85,183.21,148.85Z"/><path class="cls-96" d="M373.39,166.63a.4.4,0,0,1,0,.74l-19.68,8.12a8.92,8.92,0,0,1-1,0c-1.6-.13-3.31-.84-6.05-3.48a33.5,33.5,0,0,1-5.34-6.66,22.28,22.28,0,0,0,6.77-2.24,22.62,22.62,0,0,0,5.42-3.92Z"/><path class="cls-97" d="M354.26,173.26c2.85-1,14.45-6,17.32-7.18a6.42,6.42,0,0,1,0-2.78,7.17,7.17,0,0,1,.81-2.37l-16.83,6.95a3.88,3.88,0,0,0-2.11,3.63A3.28,3.28,0,0,0,354.26,173.26Z"/><path class="cls-96" d="M328.36,166l22.9,9.43a5,5,0,0,0,1.46.29,3.16,3.16,0,0,0,1.39-.38,3.93,3.93,0,0,1-2.23-1.89,4.27,4.27,0,0,1,1.23-4.92l-24-9.37a5.69,5.69,0,0,0-1.57,3.5A5.76,5.76,0,0,0,328.36,166Z"/><path class="cls-96" d="M348.65,174.36l-17.37-7.2a5.79,5.79,0,0,1-.15-4.2,18.07,18.07,0,0,1,1.45-2.51h0L349.72,167C345.65,170.32,347.88,174.1,348.65,174.36Z"/><path class="cls-96" d="M329.11,159.09l24.1,9.43,20.14-8a.51.51,0,0,0-.09-.93l-24.36-6.1a3.08,3.08,0,0,0-2.23.19Z"/><path class="cls-98" d="M358.05,158.23a6.64,6.64,0,0,0,2.33,3.09c2.87,1.62,4.36.47,4.36.47a1.23,1.23,0,0,0,1.33-1.11c.22-1.63-1.29-4.1-3.69-3.17,0,0-1-.79-2.4-1.74"/><path class="cls-99" d="M363.48,160.9c.44.2.41,1.19-.06,1.23"/><path class="cls-99" d="M364.75,160.22c.51.27.25,1.42-.67,1.28"/><path class="cls-98" d="M341.94,161.93c5.33,1,13.15.52,13.63-2.2.43-2.46,1.18-6.3-.74-7.67a3.08,3.08,0,0,0-1.57-.5c-5.25-.49-7.15-5.22-11.72-5.42-.41,0-4.83-.15-7.62,3.07-2.15,2.49-3.11,7.71-1.45,10.16C335.07,163.18,341.94,161.93,341.94,161.93Z"/><path class="cls-100" d="M344.28,160.32a7.83,7.83,0,0,0-.4-1.83c-.46-1.34-1.35-3.52-4-3.9"/><path class="cls-98" d="M356.85,142.34c-.09-1.25,2.52-3.35,4.55-3.35,1.27,0,2,2.45,1.76,5.35"/><path class="cls-101" d="M343.9,154.38a12.7,12.7,0,0,1-.71-3.33,12.53,12.53,0,0,1,1.08-5.58c2.28-4.73,8.13-5.63,8.89-5.71,1.51-.16,6.3-.64,9.68,2.92a10.87,10.87,0,0,1,2.71,8.25,6.09,6.09,0,0,1,.59,4.58c-.89,2.62-4.1,3.52-7.12,4.38a13.38,13.38,0,0,1-6.21.18,13.71,13.71,0,0,1-5.49-1.65A7.07,7.07,0,0,1,343.9,154.38Z"/><path class="cls-102" d="M358.15,154.09c2.4-.53,4.52-.48,6.52,3.17-1.09,1.74-2.7,2-5.65,2.63a21.6,21.6,0,0,1-7.6-.06l-.37-.08C351.44,158.57,352.74,155.28,358.15,154.09Z"/><path class="cls-103" d="M358.82,153.86l.06.57c.2.91-1.29,1.68-2.45,1.14"/><path class="cls-103" d="M358.79,153.86l.09.57a1.08,1.08,0,0,0,2,.34"/><path class="cls-104" d="M358.4,152.5l.12,0,.12,0c.87-.16,1.25.06,1.28.54a1.32,1.32,0,0,1-1,1.15l-.21,0a1.31,1.31,0,0,1-1.33-.71C357.25,153,357.53,152.66,358.4,152.5Z"/><path class="cls-105" d="M357,140.29a5.34,5.34,0,0,1,3.9,3.94c.26,1.55-1,1.91-1.35.27a5.36,5.36,0,0,0-4-4.09,11.07,11.07,0,0,0-1.6-.3,5.49,5.49,0,0,1,2.75,1.44,6.28,6.28,0,0,1,1.77,3.76c.12,1.63-1.28,1.78-1.76.3s-1-3.39-3-4.43a6.23,6.23,0,0,0-2.48-.71"/><path class="cls-105" d="M350,140.86a5.5,5.5,0,0,1,5.14,4c.46,1.48-.89,2.08-1.55.31a5.19,5.19,0,0,0-5.09-3.66"/><path class="cls-100" d="M343.23,151.53a11.08,11.08,0,0,1,1-6.06c1.71-3.34,4-4.94,8.54-5.32,5.63-.46,9.86,1,11.69,4.94a8.17,8.17,0,0,1,.81,5.29,5,5,0,0,1-.65,6.64c-3.76,3.65-10.48,3.95-15.23,2.34A8.72,8.72,0,0,1,343.23,151.53Z"/><path class="cls-98" d="M350.33,142.79c-.57-1.24-3.07-2.46-4.12-1.79-1.87,1.2-2.16,5.3-1.22,7"/><path class="cls-105" d="M349.12,144.41a.17.17,0,0,0,.06-.26c-.65-.83-1.44-1.23-1.94-1s-.56.85-.67,1.44a5.05,5.05,0,0,0,0,2,.17.17,0,0,0,.32,0,5.32,5.32,0,0,1,1.35-1.66A6.33,6.33,0,0,1,349.12,144.41Z"/><path class="cls-103" d="M363.6,151.26a1.93,1.93,0,0,1-3.17.55"/><path class="cls-103" d="M355.85,152.4a2.26,2.26,0,0,1-3.49.61"/><path class="cls-98" d="M346.2,161.92c3.49.49,7.15,1.27,8.31,2a4.63,4.63,0,0,0,3.21.93,11.6,11.6,0,0,0,1.42-.8,1.46,1.46,0,0,0,1.29-1.47c.18-2.32-2.73-3.66-4.26-2.79-1.25-1.32-5.84-1.48-7-.47"/><path class="cls-99" d="M357.62,163.43c.44.2.4,1.19-.07,1.23"/><path class="cls-99" d="M358.88,162.75c.52.27.26,1.43-.66,1.28"/><path class="cls-101" d="M331.72,157.43a7.48,7.48,0,0,0,.94,2.32,8.78,8.78,0,0,0,4.39,3.4,25.07,25.07,0,0,0,8.28,1.83c1.77.08,4.88.27,5.73-1.73a2.45,2.45,0,0,0-2.08-3.32l-.47-.05a8.87,8.87,0,0,0-1.71.08l-.75.1c-.44.05-.88.11-1.32.14l-.44,0c-.36,0-.69,0-1,0a15,15,0,0,1-1.74-.16c-.32-.05-.64-.1-.93-.16l-.84-.16-.77-.18a21,21,0,0,1-3.25-1.06Z"/><path class="cls-105" d="M346.65,162.13a.79.79,0,0,0,1,.65,1,1,0,0,0,.64-.7,1.19,1.19,0,0,0,0-.42,4.68,4.68,0,0,1,.23-1.78,8.87,8.87,0,0,0-1.71.08A5.86,5.86,0,0,0,346.65,162.13Z"/><path class="cls-105" d="M344.16,162.09a.79.79,0,0,0,.94.72,1,1,0,0,0,.7-1.08,3.78,3.78,0,0,1,.25-1.67c-.44.05-.88.11-1.32.14l-.44,0A5.23,5.23,0,0,0,344.16,162.09Z"/><path class="cls-105" d="M341.53,162a.78.78,0,0,0,.89.76,1,1,0,0,0,.81-1,2.66,2.66,0,0,1,.37-1.22c-.59-.22-1.11-.45-1.6-.69A3.68,3.68,0,0,0,341.53,162Z"/><path class="cls-105" d="M338.89,161.77a.76.76,0,0,0,.85.79,1,1,0,0,0,.86-1,2.83,2.83,0,0,1,.32-1.37l-.75-.42c-.24-.13-.46-.27-.68-.4A4.77,4.77,0,0,0,338.89,161.77Z"/><path class="cls-100" d="M335.74,158.5a21.43,21.43,0,0,0,4,1.24,18,18,0,0,0,5,.46,19.56,19.56,0,0,1,4.25-.27,2.45,2.45,0,0,1,2.07,3.32c-.83,2-3.95,1.81-5.72,1.73a25.12,25.12,0,0,1-8.28-1.83,8.78,8.78,0,0,1-4.39-3.4,7.53,7.53,0,0,1-.94-2.31"/><path class="cls-106" d="M41.54,105.8s-9,5.26-21.31-1.78c-5.18-3-7-2.71-10.56-2.46-1.77.13-5.7.42-7-3.81-1-3.24,1.77-5.8,4-6.59,4-1.43,9.63-1.14,16.35,3.48,9.14,6.29,13,3,13,3"/><g class="cls-107"><path class="cls-108" d="M24.1,95.4a.42.42,0,0,1,.56-.2c.72.34,1.23.63,1.68.89a11,11,0,0,0,1.79.86.52.52,0,0,1,.29.29.55.55,0,0,1,0,.42c-1.34,2.81-2.31,4.17-3.3,4.59l-.23.08a1.64,1.64,0,0,1-1.43-.29C21.61,100.77,22.74,98,24.1,95.4Z"/><path class="cls-108" d="M18.06,91.65a.4.4,0,0,1,.37,0,23.1,23.1,0,0,1,3.84,2,.52.52,0,0,1,.22.56c-.61,2.72-1.39,4.36-2.33,4.9l-.17.08a1.42,1.42,0,0,1-1.09,0c-1.73-.69-2-2.71-1.06-7.2A.45.45,0,0,1,18.06,91.65Z"/><path class="cls-108" d="M11,90a.43.43,0,0,1,.34-.13l.5,0a8.46,8.46,0,0,1,3.47.68.53.53,0,0,1,.28.4c.26,2.09.36,4.82-.6,6a1.43,1.43,0,0,1-1.18.58c-1.75,0-2.74-2.45-2.94-7.19A.54.54,0,0,1,11,90Z"/><path class="cls-108" d="M4.89,91.9a.49.49,0,0,1,.24-.53l.34-.19a8.83,8.83,0,0,1,3.27-1.11.48.48,0,0,1,.52.39c.79,3.45,1.31,6.37-.28,7l-.19.07a1.68,1.68,0,0,1-1.43-.29C6.29,96.54,5.37,94.52,4.89,91.9Z"/></g><path class="cls-106" d="M52,64.4c.23-.08.12-.13,0,0Z"/><path class="cls-106" d="M86.88,100.64c-.66-1.54-2.58-1.43-3.36-1.19a78.4,78.4,0,0,0-10.09-9.73,22.23,22.23,0,0,0-.5-3.49c-2-9.2-11-17.38-19.09-20.92-1.4-1.92-22.76-16.26-25.77,6-3.05,22.63,1.2,28,9.37,34,2.46,10,5.23,16.61,6.74,17.68,2.77,2,9.43,1,11.22-1.64,1-1.48-.24-3-.92-3.55,0,0,2.94-9.39,2.81-10.54h0s4.85-.4,7.78-2.61c8.45,3.13,16,5.8,17.12,5.4C85.28,109,88.08,103.41,86.88,100.64Z"/><path class="cls-109" d="M52.66,120.06a1.73,1.73,0,0,1,0,3"/><path class="cls-109" d="M49.91,121.12a1.52,1.52,0,0,1-.07,2.86"/><path class="cls-110" d="M46.08,85.53A21,21,0,0,0,49.56,94c4.16,5.64,13.45,6.63,16.75-.7,4.12-9.12-3.77-19.19-11-22.05-5.11-2-8.77,1.21-9.51,7A23.64,23.64,0,0,0,46.08,85.53Z"/><path class="cls-109" d="M62.85,105.86a16.94,16.94,0,0,0,7.08-6.18"/><path class="cls-111" d="M21,37.3c-2.66-.08-8.45.15-10.7,2.07S7.67,46.63,12,60.31c3.44,10.84,11.11,19.46,23.28,18,10.89-1.31,24.6-9,29.2-19.35,3.73-8.45-1.82-14.49-4.61-17a18.81,18.81,0,0,0-6.78-10.46,18.41,18.41,0,0,0-7-3"/><path class="cls-111" d="M49.36,29.13c-.88-3.12-.82-7.43-2.56-7.38-5.35.18-9.07,5.74-9.26,6a36,36,0,0,0-12.25,4.13,27.39,27.39,0,0,0-7.21,6.27s5.47,2.94,7,3.48C32.29,44.21,42.29,39.37,49.36,29.13Z"/><path class="cls-110" d="M34,78.43s.39-14.91,14.25-21.7c11-5.37,16,2.27,16,2.27S63.59,66.38,51,72.82C39.49,78.7,34,78.43,34,78.43Z"/><path class="cls-112" d="M48.2,56.73l1,1.81s.8,2.3-4.47,5.77"/><path class="cls-112" d="M49.19,58.54a5.76,5.76,0,0,0,5.65.05"/><path class="cls-104" d="M48.2,56.73a3.25,3.25,0,0,1-3.36-.67c-.61-.81-.06-1.4,1.75-2.34s2.69-1.11,3-.15A3.31,3.31,0,0,1,48.2,56.73Z"/><path class="cls-108" d="M47.92,23.37a32.3,32.3,0,0,0-1.1,5.34l2.75.19Z"/><path class="cls-109" d="M49.36,29.13c.18-2.35-.85-7.67-2.56-7.38-3.45.59-7.5,3.86-9.26,6C34.12,27.89,24,30.81,19.12,37"/><g class="cls-113"><path class="cls-114" d="M39.62,54.38c-1.44-2.49-3.17-1-5.54.34s-4.47,2.18-3,4.67a5.05,5.05,0,0,0,6.88,2A5.13,5.13,0,0,0,39.62,54.38Z"/><ellipse class="cls-88" cx="37.13" cy="58.33" rx="2.39" ry="3.61" transform="translate(-23.36 24.85) rotate(-28.56)"/></g><g class="cls-115"><path class="cls-114" d="M56.31,44.78c-1.32-2.29-2.89-1-5,.29s-4.06,2-2.75,4.26a4.6,4.6,0,0,0,6.27,1.87A4.7,4.7,0,0,0,56.31,44.78Z"/><ellipse class="cls-88" cx="54.31" cy="48.62" rx="2.12" ry="3.51" transform="translate(-16.63 31.88) rotate(-28.56)"/></g><path class="cls-108" d="M12.9,42.65c-1.41.75-1,5.6,1.8,12.1,0,0,1.71-7.41,7.31-11.49C19.29,41.37,14,42.06,12.9,42.65Z"/><path class="cls-111" d="M52.36,32a25,25,0,0,0-5-2.6,19,19,0,0,0-11.09-1.13C38,32.87,37.81,37.32,39.51,42Z"/><path class="cls-108" d="M23.64,33.48a12.49,12.49,0,0,1,5.77,3.17c1.23,1.06,2.94,3.43,2,4s-2.13-1-5.95-2.61a19.26,19.26,0,0,0-5.77-1.3Z"/><path class="cls-108" d="M33,34.77c-2.42-1.19-5.39-3-7.55-3a37.83,37.83,0,0,1,5.46-2.36,14.68,14.68,0,0,1,5.9,3.46c2,2,3.51,4.69,2.54,5.18C38.06,38.67,36,36.28,33,34.77Z"/><path class="cls-108" d="M44.53,34.28c-.83.4-1.72-.7-4.7-2.74a19,19,0,0,0-6.89-2.63c-.36-.65,3.79-1.41,4.91-1.07C40.9,28.76,45.41,33.85,44.53,34.28Z"/><path class="cls-109" d="M21,37.3c-2.66-.08-8.45.15-10.7,2.07S7.67,46.63,12,60.31c3.44,10.84,11.11,19.46,23.28,18,10.89-1.31,24.6-9,29.2-19.35,3.73-8.45-1.82-14.49-4.61-17a18.81,18.81,0,0,0-6.78-10.46,18.41,18.41,0,0,0-7-3"/><path class="cls-109" d="M84.55,100.83a1.69,1.69,0,0,1,2.39,1.63"/><path class="cls-109" d="M84.23,103.51c1-.46,2.43-.21,2.26,1.57"/><path class="cls-106" d="M64.24,83.24c-.83.8-3.57,1-4.3-1-1.24.52-3.29-.9-3.25-2.93a3.81,3.81,0,0,1-1-1.9c-.71-2.41,1.82-5.64,6-5.7a8.37,8.37,0,0,1,8.63,6.65A4.37,4.37,0,0,1,69,82.14a5.49,5.49,0,0,1-4.52,1"/><path class="cls-106" d="M57.58,76.92a3.28,3.28,0,0,0-.89,2.4"/><path class="cls-106" d="M60,82.24a3,3,0,0,1,.5-2.49"/><path class="cls-116" d="M77.49,59.38a4.57,4.57,0,0,0-1.09,2.31,6.27,6.27,0,0,0,.11,3.36"/><path class="cls-116" d="M79.62,60a4.66,4.66,0,0,0-1.09,2.31,6.27,6.27,0,0,0,.11,3.36"/><path class="cls-116" d="M63.3,56.22a6.17,6.17,0,0,0-1.21,2.52,4.67,4.67,0,0,0,.32,3"/><path class="cls-116" d="M61.31,55.59a6.18,6.18,0,0,0-1.2,2.52,4.57,4.57,0,0,0,.32,3"/><path class="cls-116" d="M93.49,78.64a.48.48,0,0,1,.16.86C90.88,81.37,82.53,87,78.57,89.8c-.83.58-3.75-.63-4.59-1.2-.41-.29-12.48-6.63-12.75-7C61.92,81.07,71,73.4,71,73.4Z"/><path class="cls-117" d="M79,87.05c1.84-1.21,8.51-5.55,12.58-8.26-1.23-1.28.61-5.3.84-5.63-4.55,3.14-7,4.85-11.59,8a7.25,7.25,0,0,0-2.61,5C78.28,87,78.68,87.27,79,87.05Z"/><path class="cls-116" d="M49.86,82.55l25.65,7.57a5.75,5.75,0,0,0,1.61.17,3.59,3.59,0,0,0,1.45-.49,2.36,2.36,0,0,1-1.52-.73,2.66,2.66,0,0,1-.49-2,6,6,0,0,1,1.85-3.8L50.18,75.53a4.94,4.94,0,0,0-.32,7Z"/><path class="cls-116" d="M50.18,75.53l28.23,7.71,15.35-9.49a.53.53,0,0,0-.15-1L67.43,66.72a3.21,3.21,0,0,0-2.31.34Z"/><path class="cls-118" d="M49.23,74.43c-.33.15-.38.56-.09.67C51.48,76,68,80.12,74.7,82c.71.21,3-1.18,3.67-1.76.32-.29,8.38-8.84,8.59-9.2-.58-.23-16.08-5.8-16.08-5.8Z"/><path class="cls-119" d="M73.81,79.92C70.24,79,56.3,75.46,51.41,74c.93-1.18-.06-4.8-.26-5C55,70.5,69,73.74,72.64,75.57,75.7,77.12,74.83,80.14,73.81,79.92Z"/><path class="cls-118" d="M94.09,70.16S76.23,82,75.9,82.05A2.79,2.79,0,0,1,74.7,82a2.53,2.53,0,0,0,1.19-.83c.44-.58,1.69-3.46-.24-4.78,5-2.78,16-10,19.18-11.87C97.71,67.63,94.09,70.16,94.09,70.16Z"/><path class="cls-118" d="M94.83,64.48,75.65,76.35,50.1,69.73c-.33-.11-.28-.58.08-.74L71.39,59.9a2.42,2.42,0,0,1,1.43-.14Z"/><path class="cls-120" d="M93.71,63a.48.48,0,0,1,.15.85c-2.58,1.8-10.33,7.26-14,10-.77.57-3.49-.61-4.27-1.16-.38-.28-13-5.73-13.28-6.13.64-.47,9.06-7.91,9.06-7.91Z"/><path class="cls-117" d="M80.26,71.12C82,70,88.17,65.74,92,63.11c-1.14-1.24.57-5.14.79-5.46C88.51,60.7,86.18,62.36,82,65.42a7.09,7.09,0,0,0-2.42,4.88C79.57,71.11,79.94,71.34,80.26,71.12Z"/><path class="cls-120" d="M51.72,67.47,77,74.11a5.7,5.7,0,0,0,1.49.16,3.19,3.19,0,0,0,1.35-.48,2.14,2.14,0,0,1-1.41-.7,2.69,2.69,0,0,1-.46-2,6,6,0,0,1,1.72-3.69C70.94,64.93,60.77,63.15,52,60.66a5,5,0,0,0-1.51,3.49A5,5,0,0,0,51.72,67.47Z"/><path class="cls-120" d="M73.47,66a6,6,0,0,0-1.39,4.42,5.47,5.47,0,0,0,1.1,2.66"/><path class="cls-120" d="M71.64,65.49a7.33,7.33,0,0,0-1.34,4.29,6.94,6.94,0,0,0,.61,2.73"/><path class="cls-120" d="M58.4,62.32a7,7,0,0,0-1.07,4.17A6.81,6.81,0,0,0,58,69.1"/><path class="cls-120" d="M56.57,61.87a8.12,8.12,0,0,0-1,4.27,7.91,7.91,0,0,0,.59,2.51"/><path class="cls-120" d="M52,60.66l27.67,6.76L94,58.22a.52.52,0,0,0-.15-.93L68.06,52.12a2.89,2.89,0,0,0-2.15.32Z"/><path class="cls-121" d="M52.56,59.88c-.33.15-.38.57-.09.67,2.33.86,18.81,5,25.56,6.86.71.21,3-1.17,3.66-1.75.33-.3,8.39-8.85,8.6-9.2-.58-.23-16.08-5.8-16.08-5.8Z"/><path class="cls-119" d="M77.14,65.37c-3.57-1-17.51-4.45-22.4-5.88.93-1.17-.06-4.8-.27-5C58.31,56,72.37,59.2,76,61,79,62.57,78.16,65.59,77.14,65.37Z"/><path class="cls-121" d="M95.58,56.84s-16,10.63-16.35,10.66a2.62,2.62,0,0,1-1.2-.09,2.57,2.57,0,0,0,1.19-.82c.44-.59,1.69-3.47-.24-4.79C84,59,93.15,53,96.32,51.16,99.21,54.31,95.58,56.84,95.58,56.84Z"/><path class="cls-121" d="M94,52.82a3.54,3.54,0,0,1,1,1.72,4.07,4.07,0,0,1-1.26,3.55"/><path class="cls-121" d="M82.21,59.92a4.29,4.29,0,0,1,1.13,2.7,4.36,4.36,0,0,1-1,2.95"/><path class="cls-121" d="M96.32,51.16,79,61.8,53.43,55.18c-.33-.11-.28-.57.08-.74l19.37-7.86a2.42,2.42,0,0,1,1.43-.14Z"/><path class="cls-116" d="M95.84,48.92a.42.42,0,0,1,.1.76c-2.5,1.47-11,6.86-14.57,9.09-.75.47-3.22-.73-3.92-1.27-.34-.27-12-4.81-12.27-5.19.62-.38,11.87-9,11.87-9Z"/><path class="cls-119" d="M81.9,56.41c1.66-.95,8.19-5,11.85-7.11-1-1.17.27-4,.49-4.26-4.11,2.5-6.36,3.85-10.45,6.37a6.24,6.24,0,0,0-2.52,4.23C81.26,56.36,81.59,56.59,81.9,56.41Z"/><path class="cls-116" d="M55.27,52.61,78.7,58.9a5.08,5.08,0,0,0,1.39.23,2.94,2.94,0,0,0,1.28-.36,2.05,2.05,0,0,1-1.28-.7,2.31,2.31,0,0,1-.32-1.79,5.2,5.2,0,0,1,1.8-3.2c-4.43-1.2-20-4.95-25.67-6.54a4.3,4.3,0,0,0-.63,6.07Z"/><path class="cls-116" d="M55.9,46.54l25.67,6.54,13.52-8.49a.46.46,0,0,0-.08-.84l-23.7-4a2.78,2.78,0,0,0-2,.18Z"/><path class="cls-122" d="M93.18,41.63a.36.36,0,0,1,.08.64c-2,1.26-8.49,5.14-11.4,7-.61.4-2.61-.61-3.17-1.06-.28-.23-11.16-3.34-11.34-3.66.5-.32,7.2-5.58,7.2-5.58Z"/><path class="cls-119" d="M82.29,47.3c1.35-.8,6.59-3.82,9.56-5.64-.81-1,.3-3.77.48-4-3.34,2.11-5.17,3.26-8.49,5.4a5.36,5.36,0,0,0-2,3.58C81.77,47.26,82.05,47.45,82.29,47.3Z"/><path class="cls-122" d="M59.31,44.85s21.22,4.79,21.51,4.76a2.4,2.4,0,0,0,1-.31,1.61,1.61,0,0,1-1-.59,2,2,0,0,1-.26-1.51A4.51,4.51,0,0,1,82,44.48c-1.84-.64-17.53-3.76-22.19-4.76-.23,0-1.19,1-1.3,2.57A3.8,3.8,0,0,0,59.31,44.85Z"/><path class="cls-123" d="M77.88,43.42a4.44,4.44,0,0,0-1.47,2.72,4.26,4.26,0,0,0,.33,2.31"/><path class="cls-123" d="M62.51,40.86a4.38,4.38,0,0,0-1.13,2.38,3.26,3.26,0,0,0,.17,1.95"/><path class="cls-122" d="M59.84,39.72,82,44.48l11.2-6.33a.39.39,0,0,0-.07-.71L72.35,34a2.2,2.2,0,0,0-1.65.15Z"/><path class="cls-111" d="M34.52,84.53c3.78,17,23.27,9.71,26.37,6.34a1.32,1.32,0,0,1,1-.46c1.72,0,4.64-1.25,4.28-3.29.82-1,.45-3.89-.81-5.09a6.84,6.84,0,0,0-7-3.26,21.9,21.9,0,0,0-7.88,2.77c-3.3-2.44-9.69-3.34-12.73-1.4A8.19,8.19,0,0,0,34.52,84.53Z"/><path class="cls-109" d="M37.7,92.18A27.49,27.49,0,0,0,41,93.52c2.75.91,7.18,2.36,11.7,1a30.9,30.9,0,0,0,8.19-3.69c.19-.09.47-.46,1-.46,1.72,0,4.64-1.25,4.28-3.29.82-1,.45-3.89-.81-5.09a6.84,6.84,0,0,0-7-3.26,21.9,21.9,0,0,0-7.88,2.77,24.71,24.71,0,0,0-3.19-1.18,25.86,25.86,0,0,0-5.36-1"/><path class="cls-106" d="M64.52,86.16a1.86,1.86,0,0,1,1.45.58"/><path class="cls-106" d="M63.22,81.93s1.43-.45,1.91-.1"/></g></g></g></svg>