<svg xmlns="http://www.w3.org/2000/svg" xmlns:xlink="http://www.w3.org/1999/xlink" viewBox="0 0 1205.93 244.21"><defs><style>.cls-1,.cls-107,.cls-109,.cls-11,.cls-119,.cls-23,.cls-31,.cls-32,.cls-35,.cls-42,.cls-44,.cls-74,.cls-89{fill:none;}.cls-2{isolation:isolate;}.cls-3{fill:#b2e2fb;}.cls-131,.cls-4{fill:#ee81ad;}.cls-5{fill:#ffe72c;}.cls-6{fill:#5bc4f1;}.cls-7{fill:#3c86c7;}.cls-8{fill:#5ea52e;}.cls-9{fill:#8fc048;}.cls-10,.cls-50{fill:#f49b00;}.cls-10,.cls-11,.cls-50{stroke:#ee7d00;}.cls-10,.cls-100,.cls-107,.cls-109,.cls-11,.cls-114,.cls-116,.cls-119,.cls-12,.cls-120,.cls-121,.cls-126,.cls-127,.cls-128,.cls-129,.cls-13,.cls-130,.cls-131,.cls-14,.cls-16,.cls-20,.cls-23,.cls-24,.cls-26,.cls-27,.cls-28,.cls-30,.cls-32,.cls-33,.cls-35,.cls-37,.cls-39,.cls-42,.cls-43,.cls-44,.cls-46,.cls-47,.cls-49,.cls-50{stroke-linecap:round;stroke-linejoin:round;}.cls-10,.cls-11,.cls-12,.cls-13,.cls-14,.cls-16,.cls-20,.cls-23,.cls-24,.cls-26,.cls-27,.cls-28,.cls-30,.cls-32,.cls-33,.cls-35,.cls-42,.cls-43,.cls-44,.cls-46,.cls-47,.cls-49{stroke-width:1.09px;}.cls-12,.cls-18{fill:#fc7ab0;}.cls-12,.cls-16{stroke:#f04e98;}.cls-13{fill:#009ad8;stroke:#009ad8;}.cls-14{fill:#ffdc00;stroke:#ffdc00;}.cls-120,.cls-130,.cls-15,.cls-16,.cls-24,.cls-28,.cls-30,.cls-33,.cls-37{fill:#fff;}.cls-17{fill:#f04e98;}.cls-19{fill:#e95a0a;}.cls-20,.cls-21{fill:#1860aa;}.cls-20,.cls-23,.cls-24{stroke:#3b4394;}.cls-126,.cls-22,.cls-43{fill:#ee1d35;}.cls-25{fill:#3b4394;}.cls-26{fill:#e20613;}.cls-26,.cls-28{stroke:#b90d0d;}.cls-27{fill:#ffcc1a;stroke:#f6a722;}.cls-29{fill:#b90d0d;}.cls-30,.cls-32{stroke:#ffc132;}.cls-31,.cls-74{stroke:#fff;}.cls-31{stroke-width:1.37px;}.cls-33,.cls-35{stroke:#7bafde;}.cls-34{fill:#f7acbc;}.cls-36{fill:#2992d0;}.cls-120,.cls-130,.cls-37{stroke:#e2e3e4;}.cls-37,.cls-39,.cls-50{stroke-width:0.98px;}.cls-38{fill:#432211;}.cls-39{fill:#fdc400;stroke:#f7a900;}.cls-123,.cls-125,.cls-132,.cls-40,.cls-41{opacity:0.69;}.cls-40{fill:url(#radial-gradient);}.cls-41{fill:url(#radial-gradient-2);}.cls-42{stroke:#d22e1b;}.cls-126,.cls-43,.cls-44{stroke:#c80e2d;}.cls-45{fill:#93241c;}.cls-46,.cls-48{fill:#ffdc92;}.cls-46,.cls-49{stroke:#eac486;}.cls-47{fill:#a76819;stroke:#8c5812;}.cls-49{fill:#fff8c7;}.cls-51{fill:#6e3e17;}.cls-52{fill:#73432e;}.cls-53{fill:#009750;}.cls-54{fill:#0b7d58;}.cls-55{fill:#1e4397;}.cls-56{fill:#fbc82b;}.cls-57{fill:#e6a33d;}.cls-58,.cls-59{fill:#5e2a14;}.cls-59{opacity:0.35;}.cls-59,.cls-65,.cls-68,.cls-70,.cls-73,.cls-91,.cls-96{mix-blend-mode:multiply;}.cls-60{fill:#d28233;}.cls-61{fill:#fcd005;}.cls-62{fill:#fcd12b;}.cls-63{fill:#61bfed;}.cls-64{fill:#41b1e6;}.cls-65{fill:#231815;}.cls-65,.cls-70{opacity:0.23;}.cls-66,.cls-77{fill:#97050e;}.cls-67{fill:#c96e37;}.cls-68{fill:#49002f;}.cls-68,.cls-91{opacity:0.18;}.cls-69{fill:#e61f1f;}.cls-70{fill:#682319;}.cls-71{fill:#ffe593;}.cls-72{fill:#2573ba;}.cls-73{fill:#3c99bd;opacity:0.49;}.cls-74,.cls-77,.cls-89{stroke-miterlimit:10;}.cls-74{stroke-width:1.69px;}.cls-75{fill:#f6c153;}.cls-76{fill:#00793c;}.cls-77{stroke:#97050e;stroke-width:0.56px;}.cls-78{fill:#1967b2;}.cls-79{fill:#005c9d;}.cls-80{fill:#f8b714;}.cls-81{fill:#ffea00;}.cls-82{fill:#00823f;}.cls-83{fill:#daeffb;}.cls-84{fill:#7c9499;}.cls-85{fill:#00834b;}.cls-86{fill:#8dc21f;}.cls-87{fill:#cf180c;}.cls-88{fill:#e62c0f;}.cls-89{stroke:#cf180c;stroke-width:0.55px;}.cls-90{fill:#703c14;}.cls-91,.cls-96{fill:#000001;}.cls-92{fill:#262c38;}.cls-93{fill:#52565f;}.cls-94{fill:#9a441e;}.cls-95{fill:#00704f;}.cls-96{opacity:0.07;}.cls-97{fill:#aa6241;}.cls-98{fill:#8d2c01;}.cls-99{fill:#fefefe;}.cls-100,.cls-106{fill:#f29111;}.cls-100,.cls-107{stroke:#ec6e18;}.cls-100,.cls-107,.cls-109{stroke-width:1.1px;}.cls-101{fill:#1c1c1b;}.cls-102{fill:#8f949a;}.cls-103{fill:#f29129;}.cls-104{mix-blend-mode:darken;}.cls-105{fill:#ec6e18;}.cls-108{fill:#f8b04c;}.cls-109{stroke:#6e3e17;}.cls-110{fill:#e95178;}.cls-111{clip-path:url(#clip-path);}.cls-112{fill:#fcc94c;}.cls-113{clip-path:url(#clip-path-2);}.cls-114{fill:#e42c1d;stroke:#c5190d;stroke-width:0.82px;}.cls-115{fill:#c5190d;}.cls-116{fill:#3761aa;stroke-width:0.83px;}.cls-116,.cls-119{stroke:#314593;}.cls-117{fill:#fff4d2;}.cls-118{fill:#314593;}.cls-119{stroke-width:0.64px;}.cls-120,.cls-121{stroke-width:0.98px;}.cls-121{fill:#28b6eb;stroke:#00a0dc;}.cls-122{fill:#e6420f;}.cls-124{fill:url(#radial-gradient-3);}.cls-125{fill:url(#radial-gradient-4);}.cls-126,.cls-127,.cls-128,.cls-129{stroke-width:0.82px;}.cls-127{fill:#fcf8d8;stroke:#f2d491;}.cls-128{fill:#67c1ed;stroke:#49a9df;}.cls-129{fill:#118cca;stroke:#0077b9;}.cls-130,.cls-131{stroke-width:0.98px;}.cls-131{stroke:#ea5a95;}.cls-132{fill:url(#radial-gradient-5);}</style><radialGradient id="radial-gradient" cx="-929.84" cy="980.1" r="1.75" gradientTransform="matrix(-0.96, 0.28, 0.28, 0.96, -455.46, -481.1)" gradientUnits="userSpaceOnUse"><stop offset="0" stop-color="#f8d1de"/><stop offset="0.1" stop-color="#f8d1de" stop-opacity="0.98"/><stop offset="0.22" stop-color="#f8d1df" stop-opacity="0.91"/><stop offset="0.37" stop-color="#f8d2e0" stop-opacity="0.8"/><stop offset="0.52" stop-color="#f8d3e1" stop-opacity="0.65"/><stop offset="0.69" stop-color="#f9d4e3" stop-opacity="0.45"/><stop offset="0.86" stop-color="#f9d5e5" stop-opacity="0.22"/><stop offset="1" stop-color="#f9d6e7" stop-opacity="0"/></radialGradient><radialGradient id="radial-gradient-2" cx="-916.57" cy="975.77" r="1.65" xlink:href="#radial-gradient"/><clipPath id="clip-path"><path class="cls-1" d="M308.45,152.83c.06-2.57,2.05-2.18,4.51-2.1s4.47-.2,4.4,2.37a4.53,4.53,0,0,1-4.57,4.53A4.59,4.59,0,0,1,308.45,152.83Z"/></clipPath><clipPath id="clip-path-2"><path class="cls-1" d="M291.16,152.42c0-2.37,1.86-2,4.09-1.93s4.06-.18,4,2.19a4.13,4.13,0,0,1-4.14,4.16A4.22,4.22,0,0,1,291.16,152.42Z"/></clipPath><radialGradient id="radial-gradient-3" cx="238.25" cy="234.21" r="1.59" gradientTransform="translate(36.54 -52.33) rotate(3.66)" xlink:href="#radial-gradient"/><radialGradient id="radial-gradient-4" cx="521.48" cy="109.84" r="1.78" gradientTransform="translate(-284.2 256.04) rotate(-18.27)" xlink:href="#radial-gradient"/><radialGradient id="radial-gradient-5" cx="-1324.54" cy="97.09" r="1.74" gradientTransform="translate(1660.77 463.48) rotate(16.1)" xlink:href="#radial-gradient"/></defs><title>Asset 13</title><g class="cls-2"><g id="Layer_2" data-name="Layer 2"><g id="레이어_2" data-name="레이어 2"><path class="cls-3" d="M1202.34,95.33a6.33,6.33,0,0,0-4.57-.25,10.84,10.84,0,0,0-2-7.45,10.07,10.07,0,0,0-8.11-3.91,10.32,10.32,0,0,0-6.73,2.89,8.43,8.43,0,0,0-10-2.41,9.05,9.05,0,0,0-5.09,8c-.36-.14-4.83-1.8-8,.8s-2.82,8.16-1.36,11.08c2.46,4.9,9.94,7.23,18.11,4.49a11.38,11.38,0,0,0,5.79,4.76,11.13,11.13,0,0,0,7.77-.24,13.48,13.48,0,0,0,6.85-6,6.68,6.68,0,0,0,4.24,1.47,6.93,6.93,0,0,0,6.26-4.8A7.17,7.17,0,0,0,1202.34,95.33Z"/><path class="cls-3" d="M1109.58,143.4c1.68,3.46,6.8,5.1,12,2.63a20.3,20.3,0,0,0,8.53,5c10.15,2.86,18.6-4.23,19.83-5.3,6.38,5.31,14.41,3.23,17-1.89,2-4,.9-10.08-2.83-13.42a10.1,10.1,0,0,0-8.64-2.24c-2.54-5.87-7.77-9.63-13.41-9.63-7,0-11.19,5.8-11.69,6.52a8.58,8.58,0,0,0-10.12-2.67c-3.88,1.74-6.2,6.44-5.42,11.24a5.56,5.56,0,0,0-4.22,1.5C1108.38,137.34,1108.52,141.21,1109.58,143.4Z"/></g><g id="Layer_1-2" data-name="Layer 1"><path class="cls-4" d="M1014.57,110.61c-52-9.9-102.72,23.91-113.11,77.74a60,60,0,0,0,6.52,4.17l.08-.5c9.56-50.29,56.69-83.72,105.06-74.52,46.7,8.87,77.73,54.28,71.2,102.76h7.78C1099.43,168.1,1065.08,120.23,1014.57,110.61Z"/><path class="cls-5" d="M1013.12,117.5c-48.37-9.19-95.49,24.24-105,74.52l-.08.5a96.21,96.21,0,0,0,10.41,4.91,5.9,5.9,0,0,0,1.2-2.62l.09-.58c8.34-43.87,49.26-73.08,91.22-65.1,41,7.79,68,48.25,61.44,91.13h12C1090.89,171.85,1059.84,126.39,1013.12,117.5Z"/><path class="cls-6" d="M1012.11,124.41c-45.27-8.75-88.37,23.35-97.67,71.33,3.35,1.51,6.8,2.85,10.28,4.15l3.67-6.17c7.12-37.46,45.44-64.19,81-57.43,35.37,6.72,63.64,46.56,56.88,84h10.93C1082.36,174.63,1055.33,132.76,1012.11,124.41Z"/><path class="cls-7" d="M1010.68,131.65c-40.34-8.77-79.92,22.17-89,67.08,2.43.94,4.89,1.84,7.35,2.75,8.29-41,44.22-69.73,81-62.36,34.59,6.93,56.18,42.46,53.13,81.14h7.31C1074.19,178,1051.81,140.6,1010.68,131.65Z"/><path class="cls-8" d="M1122.2,227.38c3,.3,5.55-2.18,4.93-5a2.6,2.6,0,0,0-.1-.4,5.37,5.37,0,0,0-6.33-3.28,5.56,5.56,0,0,0-.3-6.16,6.42,6.42,0,0,0-7.6-1.75,6.14,6.14,0,0,0,2.45-9,6.9,6.9,0,0,0-9.61-1.28,6.09,6.09,0,0,0-1.46-6.64,6.9,6.9,0,0,0-7.15-1.48,8.07,8.07,0,0,0-5.85-6.65,8.44,8.44,0,0,0-8,1.9,9.78,9.78,0,0,0-11.62-7.29,9.08,9.08,0,0,0-7.06,11,7,7,0,0,0-6.5-5.11,6.83,6.83,0,0,0-6.25,3.71,7.91,7.91,0,0,0-8-3,7.29,7.29,0,0,0-5.27,8.5,8,8,0,0,0-8-.18c-3.09,1.91-4.18,6.44-1.84,10.21a7.54,7.54,0,0,0-8.88,2.75,6.72,6.72,0,0,0-.59,6.26,4.59,4.59,0,0,0,3.79,2.73,29.16,29.16,0,0,0,6.3,2.21,30.37,30.37,0,0,0,13.14,0,87.11,87.11,0,0,0,12.34,3.32,88.64,88.64,0,0,0,29.64.56,94.67,94.67,0,0,0,37.84,4Z"/><path class="cls-9" d="M1139.88,238.14c-25.1-34-126-38.88-167.46-44.66-67.35-9.39-321.94-9.91-334.76,50.58Z"/><path class="cls-10" d="M899.73,206.88c-4.34.82-7,2.6-7.58,4.68a7.66,7.66,0,0,0-.35,2.61c.29,3.27,4.22,4.53,12.63,4.2,3.91-.15,6.45-1.46,6.89-4.85,0-.14.07-.71.08-.77C911.64,206.6,905.87,205.72,899.73,206.88Z"/><path class="cls-11" d="M891.85,213.5c1.06,1.88,5.48,2.86,9.86,2.9,5.07,0,9.33-.92,9.69-3.65"/><path class="cls-10" d="M924.41,196.46a6,6,0,0,1,5.84-4.28c2.84.1,7.7,4.71,7.3,11.49-.21,3.56-1.75,6.76-4.18,7.7-2,.79-4.8-.29-6.42-2.12C924.16,206.12,923.25,200.53,924.41,196.46Z"/><path class="cls-11" d="M931.59,192.52c2.61,1.81,4,6.81,3.63,11.4-.29,4-2.67,7.68-4.91,7.37"/><path class="cls-12" d="M932.52,172.31l2.87,1.14-2.47,1.74,1.64,1.37a7.64,7.64,0,0,1-3.07.75c-2.41-.08-3.45-1.29-3.66-2.41a3.75,3.75,0,0,1,2.77-4.23,6.88,6.88,0,0,1,3.26-.17Z"/><ellipse class="cls-13" cx="927.71" cy="174.26" rx="2.59" ry="1.81" transform="translate(696.2 1089.36) rotate(-86.44)"/><ellipse class="cls-12" cx="925.08" cy="173.85" rx="2.96" ry="2.92" transform="translate(-15.91 197.13) rotate(-12.06)"/><ellipse class="cls-14" cx="922.79" cy="173.1" rx="2.48" ry="1.72" transform="translate(299.11 874.91) rotate(-59)"/><ellipse class="cls-12" cx="919.82" cy="171.41" rx="3.54" ry="3.47" transform="translate(83.79 591.53) rotate(-37.24)"/><path class="cls-12" d="M880.14,153c3.29-7.95,10.7-13.9,21.65-13.19,12.62.83,20,12.05,19.8,21.51-.08,3-.39,6.43-1.63,9.12a4.45,4.45,0,0,0,.64,4.38c.94,1.09,7.63,5.12,9.56,8.54.42-.66,1-1,1.52-.83a.8.8,0,0,1,.58.58c2.55,8.23-2.3,17.36-6.55,21.27A23.16,23.16,0,0,1,910,210.49c-3.77-.2-4.18-1.42-6.57-2.56-3.47-1.65-9.33-4.12-12.88-10.36a20.08,20.08,0,0,1-2.52-12c.1-.82.56-1.53.66-2.32a4.71,4.71,0,0,0-.75-2.5c-.76-1.76-1.26-3.82-2.6-5.25-1.06-1.13-3.88-1.73-4.56-3.16a22.83,22.83,0,0,1-1.62-5.7C879.21,166.52,877.37,159.66,880.14,153Z"/><path class="cls-12" d="M894.89,190.8c-4.45,1.41-17.31-1.31-21.65-3.86-3.66-2.14-4.74-4.93-3.89-6.9.67-1.55,2.81-1.82,4.15-1.38.35.11.85.35,1.19.24,6.22-2,15.88-2,15.88-2"/><path class="cls-15" d="M880,174.33c2.06,2.47,5.44,4.06,9,4.95a36.92,36.92,0,0,0,11,.65c2.33-.22,3.88-.76,5-1.92a8.74,8.74,0,0,0,2.55-7.68,15.48,15.48,0,0,1-.33-2.56c.21-3,.48-5-.73-7.83a6.19,6.19,0,0,0-5-3.87,6.69,6.69,0,0,0-7,2.55,13.43,13.43,0,0,0-2.26,7c-.36,4.93.87,4.18-1.55,4.24-2.41-.22-1.9.08-1.38-4.84a15.39,15.39,0,0,0-.24-5.4c-.63-2.48-2.3-4.51-5-4.43-4.07.12-5.4,5.83-4.87,10.5C877.66,167.89,877.74,171.67,880,174.33Z"/><path class="cls-16" d="M879.26,165.74c-.53-4.67.8-10.38,4.87-10.5,2.71-.08,4.38,1.95,5,4.43a15.39,15.39,0,0,1,.24,5.4c-.52,4.92-1,4.62,1.38,4.84,2.42-.06,1.19.69,1.55-4.24a13.43,13.43,0,0,1,2.26-7,6.69,6.69,0,0,1,7-2.55,6.19,6.19,0,0,1,5,3.87c1.21,2.86.94,4.84.73,7.83a5.88,5.88,0,0,0,.22,1.93,8.47,8.47,0,0,1-2.44,8.31c-.12.12-.26.24-.39.35a1.47,1.47,0,0,0-.41,1.5c1,4.93,3.43,8,6.18,9.56,11.61,6.35,8.29,16.14,6.77,18.07-4.68,5.92-18.81,2-24.12-4.65-4.15-5.21-7.43-10.67-9.47-25.06a1.28,1.28,0,0,0-.67-.94,11.36,11.36,0,0,1-3-2.51C877.75,171.66,877.66,167.89,879.26,165.74Z"/><ellipse class="cls-17" cx="899.72" cy="164.87" rx="3.72" ry="3.79" transform="translate(-1.06 5.91) rotate(-0.38)"/><ellipse class="cls-15" cx="901.3" cy="163.86" rx="0.98" ry="1" transform="translate(-1.06 5.92) rotate(-0.38)"/><path class="cls-17" d="M881.17,163.4a3.3,3.3,0,0,0,3,3.65,3.43,3.43,0,0,0,3.34-3.45,3.3,3.3,0,0,0-3-3.66,3.44,3.44,0,0,0-3.29,3.46"/><path class="cls-15" d="M885.05,162.56a.91.91,0,0,0,.82,1,1,1,0,0,0,.91-.95.9.9,0,0,0-.82-1,.94.94,0,0,0-.91.94"/><path class="cls-18" d="M885.75,146.37s-4.21-3.28-2.78-8.48c.07-.28.22-.77.61-.92.89-.35,2.08,1.44,4.06,3a15.28,15.28,0,0,0,4.36,2.44c.23.41,1,1.91.46,3.1C891.73,147.08,888.84,147.87,885.75,146.37Z"/><path class="cls-12" d="M885.75,146.37s-4.21-3.28-2.78-8.48c.07-.28.22-.77.61-.92.89-.35,2.08,1.44,4.06,3a15.28,15.28,0,0,0,4.36,2.44"/><path class="cls-12" d="M885.36,144.24a13,13,0,0,1-5.26,3c-1.22.43.4,1.88,3,2.2a7.49,7.49,0,0,0,5.79-1.86"/><path class="cls-12" d="M900.54,146a20.8,20.8,0,0,0,1.67,3.82c1.14,2-4.73,2.2-7-2"/><path class="cls-12" d="M889,146.25a23.79,23.79,0,0,1-.94,4.95c-.65,1.9,5.77.82,7.18-3.38"/><path class="cls-12" d="M913.51,191c-5.37,1.14-15.33.14-20.66-2.6-4.31-2.2-5.49-4.68-5.12-6.91s3-2.32,5.07-1.77a2.34,2.34,0,0,0,1,0c1.29-.5,11.27-3.15,13.87-3.1"/><path class="cls-10" d="M889.44,166.94a2.35,2.35,0,0,0-2.45,2.31c0,2.82,1.43,4,2.59,4.07,2,.12,3.56-2.15,4.56-3.55.53-.74.42-.44.2-1C893.93,167.58,891.93,166.91,889.44,166.94Z"/><path class="cls-19" d="M889.32,167.1a1.52,1.52,0,0,0-1.44,1.7c0,1.74.85,2.67,1.57,2.68,1.14,0,2.08-1.31,2.67-2.27.32-.51.25-.32.12-.77C892,167.59,890.8,167.09,889.32,167.1Z"/><path class="cls-10" d="M885.55,168.53c-.2-1.29,1-1.29,1.89-1.74,1.81-1.82,3.51-1.41,5.19.22,2.29.35,2.78,1.37,2.33,2.22-.27.51-.8,1.07-2.19.62a15.26,15.26,0,0,0-3.6-1.11c-1.16-.1-1.89.5-2.47.54A1,1,0,0,1,885.55,168.53Z"/><path class="cls-20" d="M823.89,180.24c1.91-.62,3-2,4.59-3.34,2.11-1.75,5-4.38,7.7-5.06,2.43-.59,5.24,1.67,6.52,3.8,1.59,2.64,1.92,5.57-.74,7.27a29.63,29.63,0,0,1-8.81,4.28c-3.62.91-7.43.89-10.64-1.23a4.78,4.78,0,0,1-2.14-2.7,2.26,2.26,0,0,1,2.27-2.79A4.47,4.47,0,0,0,823.89,180.24Z"/><path class="cls-20" d="M871.54,175a39.6,39.6,0,0,0,4.84-15.43c.86-9.46-5.56-21.06-18.18-22.73-11-1.44-18.78,4-22.61,11.77-3.21,6.5-1.82,13.49-1.84,13.59l5.79,10.41s0,.15-.07.42c10.36,1.76,21,3.57,31.44,3.75A5.83,5.83,0,0,1,871.54,175Z"/><path class="cls-10" d="M862.36,203.91a6,6,0,0,1,5.36,5c.45,2.82-3.18,8.52-10,9.43-3.57.47-7-.44-8.43-2.66-1.16-1.84-.63-4.81.86-6.77C852.75,205.51,858.11,203.54,862.36,203.91Z"/><path class="cls-11" d="M867.65,210.25c-1.3,2.94-6,5.24-10.59,5.79-4,.47-8.11-1.17-8.24-3.45"/><path class="cls-20" d="M874.38,183.58c-.19-.68-.38-1.36-.55-2-.68-2.7-1.51-5-1.34-7.11-10.4,1-21.17.36-31.65-.24-.19,3.62-1.42,30.27,1,31.35,5.18,2.31,9.82,2.28,13.28,2.27a28.68,28.68,0,0,0,11.18-2.53,15.66,15.66,0,0,0,9.3-15.3A26.72,26.72,0,0,0,874.38,183.58Z"/><path class="cls-21" d="M835.21,149.48a25.65,25.65,0,0,0-.89,2.52c-.31,1-.48,1.8-.54,2.06-.48,2.2-1.22,6.88-4.37,9.88a6.52,6.52,0,0,0-1.79,2.31,4.28,4.28,0,0,0,.74,4.44,4.41,4.41,0,0,0,1.24.95,7.08,7.08,0,0,0,5,.43,7.41,7.41,0,0,0,4.21-7.47Z"/><path class="cls-22" d="M829.29,166.12c0-.3,1.09-.53,1.32-.57a6.4,6.4,0,0,1,2.51,0,4.68,4.68,0,0,1,.21,1.55,4.55,4.55,0,0,1-.28,1.47c-.34-.2-3.28-1.92-3.69-2.31C829.34,166.22,829.29,166.18,829.29,166.12Z"/><path class="cls-23" d="M835.21,149.48a25.65,25.65,0,0,0-.89,2.52c-.31,1-.48,1.8-.54,2.06-.48,2.2-1.22,6.88-4.37,9.88a6.52,6.52,0,0,0-1.79,2.31,4.28,4.28,0,0,0,.74,4.44,4.41,4.41,0,0,0,1.24.95,7.08,7.08,0,0,0,5,.43,7.41,7.41,0,0,0,4.21-7.47"/><path class="cls-24" d="M859.15,176.48a3.91,3.91,0,0,1,.84-3.08,8.82,8.82,0,0,0,1.31-2.22,9.3,9.3,0,0,0,.4-3.39,21.52,21.52,0,0,1-.19-2.6c.38-3,.79-4.94-.2-7.86a6.28,6.28,0,0,0-4.84-4.33,6.76,6.76,0,0,0-7.13,2.17,14.1,14.1,0,0,0-2.71,7.09c-.64,4.88.62,4.2-1.79,4.12-2.38-.36-1.8,0-1.1-4.88a18.84,18.84,0,0,0,.14-5.66c-.49-2.49-2.09-4.58-4.79-4.66-4.05-.12-5.72,5.57-5.46,10.24-1.72,2.05-1.77,6,.28,8.64.34.44,1.8,1.92,2.42,2.66a1.26,1.26,0,0,1,.08,1c-.58,2.89-1.84,6.14-2.62,9-1.43,5.18-2.23,11,.4,15.88a15.08,15.08,0,0,0,6.61,6.61c6,3.24,14.92,4.13,20.1-1.19a13.37,13.37,0,0,0,3.27-12.23C863,185.73,859.88,179.75,859.15,176.48Z"/><ellipse class="cls-25" cx="854.15" cy="161.65" rx="3.77" ry="3.69" transform="translate(649.51 1006.54) rotate(-87.1)"/><ellipse class="cls-15" cx="852.93" cy="160" rx="1.01" ry="0.99" transform="translate(650 1003.74) rotate(-87.1)"/><path class="cls-25" d="M835.74,159.15a3.3,3.3,0,0,0,2.71,3.82,3.43,3.43,0,0,0,3.52-3.26,3.29,3.29,0,0,0-2.76-3.83,3.43,3.43,0,0,0-3.47,3.27"/><path class="cls-15" d="M837.17,157.61a.9.9,0,0,0,.75,1,.94.94,0,0,0,1-.89.9.9,0,0,0-.75-1,1,1,0,0,0-1,.9"/><path class="cls-21" d="M875.21,150.81a20.71,20.71,0,0,1,1.24,6.43,39.8,39.8,0,0,1-.37,5.3c-.3,2.59-.41,4.85,1.12,6.69a5.78,5.78,0,0,1,1.3,4.72,4.35,4.35,0,0,1-3.44,3.63c-.82.2-2.8,0-3.47-.61-1.64-7-2.58-16.9,2.73-24.91C874.6,151.64,874.89,151.23,875.21,150.81Z"/><path class="cls-22" d="M875.07,172a26.5,26.5,0,0,1,3.59.5,11.22,11.22,0,0,0-1-2.66,5,5,0,0,0-2.7,1.79A.22.22,0,0,0,875.07,172Z"/><path class="cls-23" d="M875.21,150.81a20.71,20.71,0,0,1,1.24,6.43,39.8,39.8,0,0,1-.37,5.3c-.3,2.59-.41,4.85,1.12,6.69a5.78,5.78,0,0,1,1.3,4.72,4.35,4.35,0,0,1-3.44,3.63c-.82.2-2.8,0-3.47-.61"/><path class="cls-10" d="M840,206.46c1-1.82.94-5-1.74-8.85-2.93-4.19-9.3-7.14-13.22-3.11-3.57,3.67-.46,8.13,5.79,12C834.44,208.78,838.18,209.61,840,206.46Z"/><path class="cls-11" d="M824.24,195.48s2.39-1.7,6.93,2c4.72,3.89,10.08,9.07,6.53,10.83"/><path class="cls-20" d="M866.26,187.34a12.79,12.79,0,0,0,5.22,5.14c3.48,2,9.24,3,12.77.87a3.25,3.25,0,0,0,1.61-2.47c.11-1.38-1.86-2.35-3.22-3.26-2.41-1.61-8.58-11.12-10.38-12.67"/><path class="cls-21" d="M865,170.67c-.71,2.94.06,5,1.67,6.09a5,5,0,0,0,6.59-1.17c1.14-1.74.86-3.86.19-5.74a6,6,0,0,1,0-3.88"/><path class="cls-22" d="M865,170.67a3.7,3.7,0,0,0-.27,2.06c.15,1.35.21,1.64.26,2.05l4.54-.32a.35.35,0,0,0,.21-.63C868.46,173,866.18,171.55,865,170.67Z"/><path class="cls-22" d="M873.55,170.36a8.91,8.91,0,0,0-3.72.86c-.33.17-.32.57,0,.62,1.2.19,3.31.74,4.08,1.88A7.4,7.4,0,0,0,873.55,170.36Z"/><path class="cls-23" d="M865,174.77a4.29,4.29,0,0,0,1.58,2,5,5,0,0,0,6.59-1.17c1.14-1.74.86-3.86.19-5.74a5.76,5.76,0,0,1-.3-2.71"/><path class="cls-21" d="M868,166.56a15,15,0,0,0-.7,3c-.54,5.28-5.36,8-8.84,6.44a4.28,4.28,0,0,1-1.43-6.85c.85-1,1.89-1.75,2.74-2.73a8.28,8.28,0,0,0,1.78-3.41,13.39,13.39,0,0,0,.2-4.19l5.07-.49Z"/><path class="cls-22" d="M856.37,170.25c1.08.05,4.24.76,4.8.83a.17.17,0,0,0,.17-.23c-.35-.79-1.5-3.22-2.27-3.69l-2.07,2Z"/><path class="cls-22" d="M866.63,172.09a12.79,12.79,0,0,0,.73-3.58,11.24,11.24,0,0,0-1.7-.65,9.6,9.6,0,0,0-2.48-.4.2.2,0,0,0-.15.33Z"/><path class="cls-23" d="M868,166.56a15,15,0,0,0-.7,3c-.54,5.28-5.36,8-8.84,6.44a4.28,4.28,0,0,1-1.43-6.85c.85-1,1.89-1.75,2.74-2.73a8.9,8.9,0,0,0,1.85-3.68,11.49,11.49,0,0,0,.13-3.92"/><path class="cls-10" d="M847.74,165.5c-.18,1.62-2,3.51-3.78,3.32s-2.47-2.46-2.31-4,1.16-1.3,3-1.11S847.9,164,847.74,165.5Z"/><path class="cls-10" d="M849.52,165.08c0-.92-1.37-1.51-2.08-1.33a4.46,4.46,0,0,0-2.73-1.94,4.08,4.08,0,0,0-3.05,1.38,1.22,1.22,0,0,0-1.63.61,1.32,1.32,0,0,0,1.08,1.92c.31-.07.7-.19,1.36-.39a3.31,3.31,0,0,1,2.32.33,10,10,0,0,0,2.52.91,1.85,1.85,0,0,0,2.18-1.28A.76.76,0,0,0,849.52,165.08Z"/><path class="cls-26" d="M782,180c-4.06-2.27-8.89-10.74-10-15.68-.87-4-.15-7.19,1.93-7.64,1.4-.3,3.55,1.8,4.36,2.75,3.69,4.32,8.09,6.71,12,8.63"/><path class="cls-10" d="M812.18,202.71a5.88,5.88,0,0,1,6.29,3.39c1.12,2.57-.92,8.86-7.14,11.38-3.26,1.33-6.77,1.31-8.64-.45-1.55-1.46-1.77-4.41-.84-6.63C803.46,206.59,808.06,203.41,812.18,202.71Z"/><path class="cls-11" d="M818.74,207.44c-.51,3.1-4.39,6.42-8.62,8.07-3.66,1.42-8,.88-8.65-1.25"/><ellipse class="cls-27" cx="819.77" cy="138.96" rx="4.9" ry="4.8" transform="translate(433.81 875.42) rotate(-71.96)"/><ellipse class="cls-27" cx="815.01" cy="134.45" rx="5.42" ry="5.31" transform="translate(424.89 862.55) rotate(-71.18)"/><path class="cls-26" d="M822.64,185.38c-.06-.71-.12-1.41-.16-2.11-.2-3.58-.78-6.55.82-9a39.66,39.66,0,0,0,6.07-15c1.62-9.35-3.85-21.44-16.29-24.11-10.79-2.32-19,2.5-23.48,9.9a23.91,23.91,0,0,0-2.93,13.39l4.93,10.85-4,31.72A35.37,35.37,0,0,0,799.22,205a27,27,0,0,0,11.45-.35c6.59-1.73,10.83-5.88,12-12.73A27.34,27.34,0,0,0,822.64,185.38Z"/><path class="cls-28" d="M807.27,200.88a12.73,12.73,0,0,1-7.7,3.36c-4.83.49-10.66-1.9-13.92-4.57a17.87,17.87,0,0,1-3.29-3.54c-3.1-4.95-2.36-11.57-.31-16.67a84.53,84.53,0,0,1,5.06-10c.31-.49.49-1,.34-1.27s-1-1.42-1.26-1.89c-1.83-2.79-1.46-6.73.42-8.63.12-4.67,2.24-10.22,6.27-9.77,2.69.3,4.12,2.51,4.4,5a18.77,18.77,0,0,1-.59,5.63c-1.1,4.79-1.65,4.4.7,4.95,2.39.28,1.08.84,2.11-4a14,14,0,0,1,3.28-6.85,6.75,6.75,0,0,1,7.28-1.59,6.25,6.25,0,0,1,4.47,4.71c.75,3,.18,4.93-.44,7.85a9.07,9.07,0,0,0,.16,2.11c.19,3.1-2.18,5.78-2.79,6.45-.15.16-.69.76-1,1.09a2.37,2.37,0,0,0-.44,1.18c-.13,2.06.83,6.28.93,7.12C811.74,188.26,812.57,195.87,807.27,200.88Z"/><ellipse class="cls-29" cx="807.05" cy="159.57" rx="3.77" ry="3.69" transform="matrix(0.13, -0.99, 0.99, 0.13, 543.13, 938.76)"/><ellipse class="cls-15" cx="805.96" cy="157.82" rx="1.01" ry="0.99" transform="translate(543.93 936.16) rotate(-82.47)"/><path class="cls-29" d="M788.9,155.58a3.3,3.3,0,0,0,2.39,4,3.44,3.44,0,0,0,3.78-3,3.31,3.31,0,0,0-2.45-4,3.43,3.43,0,0,0-3.72,3"/><path class="cls-15" d="M790.45,154.17a.9.9,0,0,0,.66,1.09.94.94,0,0,0,1-.81.9.9,0,0,0-.66-1.1,1,1,0,0,0-1,.82"/><ellipse class="cls-27" cx="807.77" cy="132.66" rx="5.92" ry="5.8" transform="translate(521.5 899.56) rotate(-78.86)"/><path class="cls-26" d="M815.87,187.49c6.53,8.07,23.23,6.9,23.22,1.17,0-1.6-2.33-3-5.14-3.11-3.84-2-7.88-7-11.52-10.52"/><path class="cls-10" d="M788.45,207.35c1.24-1.86,1.4-5.28-1.16-9.58-2.8-4.7-9.36-8.33-13.86-4.34-4.09,3.64-1.12,8.63,5.24,13.26C782.38,209.39,786.3,210.56,788.45,207.35Z"/><path class="cls-11" d="M784.93,209.14c1.23-.51.74-2,0-3.45-.84-1.65-6.56-7.58-8.9-9.1-1.93-1.26-4.12-1.29-4.35,0"/><path class="cls-10" d="M800.31,163c-.34,1.59-2.32,3.29-4.09,2.91s-2.21-2.7-1.9-4.18,1.3-1.17,3.07-.79S800.63,161.51,800.31,163Z"/><path class="cls-10" d="M802.13,162.76c.11-.92-1.21-1.65-1.93-1.55a4.54,4.54,0,0,0-2.52-2.21,4.17,4.17,0,0,0-3.18,1.06,1.23,1.23,0,0,0-1.68.44,1.32,1.32,0,0,0,.88,2c.31,0,.72-.11,1.39-.24a3.24,3.24,0,0,1,2.27.56,9.91,9.91,0,0,0,2.42,1.17,1.85,1.85,0,0,0,2.3-1A.84.84,0,0,0,802.13,162.76Z"/><path class="cls-5" d="M765.82,206.69a6.21,6.21,0,0,1-1.47,5.36c-2.51,3-8.21,4.72-12.21,4.28a5.62,5.62,0,0,1-3.55-1.63,4,4,0,0,1,1.18-4c-1.26-1.27-2.6-4.3-3.3-7.5,1.58.74,5.33-.83,7.94-1.68s6.37-1,7.63-2.74c.78,2.57,2.9,5.78,3.6,7.48Z"/><path class="cls-30" d="M765,214.27c-2.68,2.91-8.48,4.82-12.57,3.93a4.9,4.9,0,0,1-3.81-3.5,5.62,5.62,0,0,0,3.55,1.63c4,.44,9.7-1.31,12.21-4.28a6.21,6.21,0,0,0,1.47-5.36C766.75,209.09,767.34,211.71,765,214.27Z"/><path class="cls-31" d="M763.09,201.5c-1.53,3.16-11.67,6.73-15.83,4.23"/><path class="cls-32" d="M765.82,206.69a6.21,6.21,0,0,1-1.47,5.36c-2.51,3-8.21,4.72-12.21,4.28a5.62,5.62,0,0,1-3.55-1.63,4,4,0,0,1,1.18-4c-1.26-1.27-2.6-4.3-3.3-7.5,1.58.74,5.33-1.29,7.94-2.14s6.37-.5,7.63-2.28c.78,2.57,2.9,5.78,3.6,7.48Z"/><circle class="cls-33" cx="765.72" cy="190.35" r="9"/><path class="cls-33" d="M736.6,173.87a31.63,31.63,0,0,0-11.56,8.6,3.72,3.72,0,0,0-3.27.94c-1.42,1.3-1.79,5.17,3.45,6.85,6.28,2,13.77-3.67,15.19-5.15"/><path class="cls-33" d="M738.61,201.81A22.55,22.55,0,0,0,735,198a9.59,9.59,0,0,0-5.17-2.21l-.4,0h0a19.88,19.88,0,0,1-.41-13.87c.41-1.23,3.69-10.56,3.69-10.56s7.64-1.89,11.84-2.72a79.37,79.37,0,0,1,20.68-1.29c-1.28,3-.13,8.29.29,11.41.52,3.85,1.47,7.76,1.77,11.63.24,3-.43,6.32-2.69,8.49-5.17,5.07-13.74,4.91-20.39,4.44-1.54-.1-1.81.28-2.91,1.24-.25.22-.57.52-.93.86A9.17,9.17,0,0,0,738.61,201.81Z"/><path class="cls-5" d="M726.74,196.57c.77-.57,1.74-2.13,3.84-2.4,5.71-.71,11.31,8.79,9.49,12.08-.63,1.15-3.78,3.72-4,3.95-.72,1-1,1.45-1.59,2.11-2.39,2.86-6.42,3.17-10,.6-2.79-2-5.2-5.92-6.54-9.36C715.78,197.9,722.45,194.24,726.74,196.57Z"/><path class="cls-30" d="M718,203.55c1.35,3.44,3.76,7.35,6.56,9.37,3,2.11,6.21,2.27,8.6.65.91-1.31.85-4.62-1-7.89s-4.84-6.83-9.09-7.45-5.37,1.88-5.37,1.88A5.49,5.49,0,0,0,718,203.55Z"/><path class="cls-32" d="M729.51,214.66c2.53,0,3-2.83,1.3-6-2.29-4.22-5.69-7.34-9.17-7.68-1.92-.19-3.45.68-3.86,1.87"/><path class="cls-32" d="M725.85,202.69l-7.78.21"/><path class="cls-32" d="M728.44,205.24l-9.47,0"/><path class="cls-32" d="M730.28,207.74l-10.43-.34"/><path class="cls-32" d="M731.52,210.32l-10.08-.59"/><line class="cls-32" x1="731.73" y1="212.84" x2="723.6" y2="212.14"/><path class="cls-31" d="M738.24,208.13a12.12,12.12,0,0,0-10.18-12.92"/><path class="cls-32" d="M717.71,200.11s1.24-2.48,5.37-1.88,7.24,4.12,9.09,7.45,1.88,6.58,1,7.89a6.59,6.59,0,0,0,1.39-1.26c.56-.66.87-1.13,1.59-2.11.17-.23,3.32-2.8,4-3.95,1.81-3.29-3.59-12.92-9.29-12.21-2.1.27-3.29,2-4,2.53C723.41,194.76,718.63,196.56,717.71,200.11Z"/><path class="cls-33" d="M764.48,173.05a42,42,0,0,1,11.36,13.14,7,7,0,0,1,4.09,2.64c1.25,1.93,1.49,6.91-5.39,7.27-8.24.42-15.44-8.62-16.64-10.76"/><path class="cls-33" d="M741.53,139.88a7.87,7.87,0,0,0-8.72-1.23c-5.67,2.75-6.64,10-4,14"/><path class="cls-34" d="M739.21,143.11a.87.87,0,0,0,.09-1.5,5.83,5.83,0,0,0-7.27.89,6.69,6.69,0,0,0-1.73,6.87c.2.72,1,1.22,1.38.69C734.24,146.21,736.19,144.63,739.21,143.11Z"/><path class="cls-15" d="M733.33,174.9a11.27,11.27,0,0,1-6.35-7.39c-.53-2.19,0-5.45.78-6.36,0-3.92.36-12.05,4.93-17a20.25,20.25,0,0,1,15.32-6c11.24.42,20.35,7.24,21.07,21.71.26,5.29-.89,11-6.14,14.42-3.39,2.23-8.15,4.24-12.12,4.41A36.2,36.2,0,0,1,733.33,174.9Z"/><path class="cls-33" d="M732,174.22a10.61,10.61,0,0,1-5-6.71c-.53-2.19,0-5.45.78-6.36,0-3.92.36-12.05,4.93-17a20.25,20.25,0,0,1,15.32-6c11.24.42,20.24,6.55,21.1,21,.33,5.52-1.11,10.75-4.63,13.93"/><path class="cls-33" d="M755.3,140.17c1.82-2.18,10.67-4.19,15.08,2.74,4.29,6.72,0,14.3-2.75,15.72"/><path class="cls-34" d="M765.21,153.59a.8.8,0,0,0,1.42.22,7.67,7.67,0,0,0,0-8.83,6.27,6.27,0,0,0-7.3-2,.81.81,0,0,0-.27,1.39,18.68,18.68,0,0,1,3.49,3.48A16,16,0,0,1,765.21,153.59Z"/><path class="cls-34" d="M743.36,167.51s-1.19,1.84-2.73,1.8-2.08-2.1-2.08-2.1a2.11,2.11,0,0,0,.88-.29,2.43,2.43,0,0,0,.66-.66,3.54,3.54,0,0,0,.5-.86,2.64,2.64,0,0,0,.79,1.37,3,3,0,0,0,1.1.57A4.15,4.15,0,0,0,743.36,167.51Z"/><path class="cls-35" d="M743.36,167.51s-1.19,1.84-2.73,1.8-2.08-2.1-2.08-2.1"/><path class="cls-33" d="M746,166.76a3.65,3.65,0,0,1-3.15.67,2.51,2.51,0,0,1-2.15-1.94"/><path class="cls-33" d="M736.76,166.38a2,2,0,0,0,1.94.81,2.59,2.59,0,0,0,1.81-1.61"/><path class="cls-34" d="M740.11,162.3a1.48,1.48,0,0,0-1.32.51,1.34,1.34,0,0,0,.1,1.09,2.38,2.38,0,0,0,1.57,1.48,2.47,2.47,0,0,0,2.19-.92c.25-.29.53-.84.32-1.22C742.64,162.63,741.4,162.31,740.11,162.3Z"/><ellipse class="cls-36" cx="749.95" cy="161.66" rx="3.72" ry="3.79" transform="translate(-7.5 39.86) rotate(-3.03)"/><ellipse class="cls-15" cx="748.53" cy="160.46" rx="0.99" ry="1.01" transform="translate(-7.43 39.78) rotate(-3.03)"/><path class="cls-36" d="M730.74,161a3.36,3.36,0,0,0,3.22,3.52,3.47,3.47,0,0,0,3.29-3.6A3.34,3.34,0,0,0,734,157.4a3.48,3.48,0,0,0-3.24,3.6"/><path class="cls-15" d="M732.08,159.72a.9.9,0,0,0,.88.95,1,1,0,0,0,.9-1,.92.92,0,0,0-.89-1,1,1,0,0,0-.89,1"/><path class="cls-37" d="M707.08,208.92s-.13,5.79-.18,6.6a1.58,1.58,0,0,1-1.34,1.64c-.93.16-2,0-2.1-1.1a1.56,1.56,0,0,1,.49-1.32l.18-5.89a1.49,1.49,0,0,1,1.51-1.46h0A1.49,1.49,0,0,1,707.08,208.92Z"/><path class="cls-37" d="M701.84,210.75s-5.11,2.71-5.85,3.06a1.57,1.57,0,0,1-2.08-.37c-.6-.73-1-1.69-.07-2.37a1.57,1.57,0,0,1,1.4-.21l5.23-2.71a1.49,1.49,0,0,1,2,.6h0A1.48,1.48,0,0,1,701.84,210.75Z"/><path class="cls-37" d="M695.61,201.67a5.54,5.54,0,0,1-2.85-1.59,5.4,5.4,0,0,1-1.19-1.93,1.46,1.46,0,0,0-2.49,1.53,7.21,7.21,0,0,0,1.49,2.43,7.63,7.63,0,0,0,4.06,2.25Z"/><path class="cls-37" d="M692.82,199.82c1-6.24,5.68-11.43,11.42-11.24a9.22,9.22,0,0,1,7.49,4.79,22.46,22.46,0,0,1,2.68,6.37,8.52,8.52,0,0,1-.55,6,11.11,11.11,0,0,1-10.4,5.72C695.21,211.23,691.86,205.77,692.82,199.82Z"/><circle class="cls-38" cx="706.79" cy="200.82" r="1.39"/><circle class="cls-15" cx="706.35" cy="200.34" r="0.38"/><circle class="cls-38" cx="697.86" cy="200.52" r="1.39"/><circle class="cls-15" cx="697.41" cy="200.04" r="0.38"/><path class="cls-39" d="M704.11,195.2c-4-.13-10.78-2.36-10.71-4.44,3.22-.08,4.69-5.18,11-5s7.46,5.4,10.67,5.7C715,193.57,708.09,195.34,704.11,195.2Z"/><path class="cls-39" d="M693.59,190.81c-1,.33-2.52-.35-3.89-.05a3.24,3.24,0,0,0-2.44,4.29,3.39,3.39,0,0,0,3.88,2.28,7.94,7.94,0,0,0,4.94-2.19"/><path class="cls-39" d="M697.22,190.46c-.86.51-2.07-.2-3.43,0a3.3,3.3,0,0,0-2.66,4.36c.41,1.71,1.82,2.74,3.94,2.68a8,8,0,0,0,5.7-2.54"/><path class="cls-39" d="M714.9,191.53c1,.4,2.54-.18,3.88.21a3.24,3.24,0,0,1,2.14,4.45,3.39,3.39,0,0,1-4,2,8,8,0,0,1-4.78-2.52"/><path class="cls-39" d="M711.3,190.94c.82.56,2.08-.07,3.42.22a3.31,3.31,0,0,1,2.36,4.54c-.52,1.68-2,2.6-4.11,2.4a8,8,0,0,1-5.52-2.92"/><path class="cls-39" d="M707,190.34a4.64,4.64,0,0,1,1.38,3.48,4.2,4.2,0,1,1-8.4-.29,4.61,4.61,0,0,1,1.61-3.37"/><circle class="cls-40" cx="709.23" cy="203.52" r="1.75"/><path class="cls-41" d="M695,204.76a1.37,1.37,0,0,0,1-.13,1.75,1.75,0,0,0-1.19-3.29c-.78.34-.8,1.55-.8,1.63A1.84,1.84,0,0,0,695,204.76Z"/><path class="cls-42" d="M700.55,201.66a1.64,1.64,0,0,0,1.32.91,1.72,1.72,0,0,0,1.6-.7"/><path class="cls-37" d="M713.76,203.57a25.11,25.11,0,0,0,2.33-2,4.5,4.5,0,0,0,1.5-2.5c.13-1.19-.5-2.18-1.75-2.1a2.06,2.06,0,0,0-1.29.6,1.45,1.45,0,0,0-.42.81,3.71,3.71,0,0,1-1.06,1.87c-.42.42-.85.8-1.22,1.12"/><path class="cls-43" d="M951.12,198.4c0,.62-.56,8.06-.91,8.44a3.74,3.74,0,0,0-.59,4.68,5.51,5.51,0,0,0,3.62,2.64,5.07,5.07,0,0,0,4.34-1.79c1.54-1.58,6.49-5.26,9.21-5.8"/><path class="cls-43" d="M998.89,203a25.68,25.68,0,0,1-2.65,1.24A50.85,50.85,0,0,1,985,207.41a59,59,0,0,1-15.54.47,61.21,61.21,0,0,1-10.66-2.06,29.94,29.94,0,0,1-12.45-6.66,26.49,26.49,0,0,1-8-19.37c0-14,11.39-25.85,25.4-25.4s19.5,8.37,22.5,12.37c1.72,2.3,3.37,5.64,6.19,7.74,2,1.49,4.88,2.42,6.34,3.16a10.84,10.84,0,0,1,5,4.77c1.53,3.1,1.57,6.73,1,10.08C1004.14,196.79,1002.94,200.79,998.89,203Z"/><path class="cls-5" d="M973,208.16c-1.75-.18-3.49-.45-5.23-.62l-.18,0L959.66,206c-1.09-2.12.43-3.94,2.45-4.22,6.58-.91,9.93,4.49,10.9,6.4"/><path class="cls-44" d="M959.66,206c-1.08-2.1.44-3.92,2.45-4.2,6.47-.89,9.81,4.3,10.84,6.3"/><path class="cls-45" d="M944.34,178.32c0,1.87-1,3.35-2.24,3.31s-2.22-1.59-2.22-3.48,1-3.39,2.26-3.33,2.21,1.62,2.2,3.5"/><path class="cls-15" d="M940.57,177.19a.72.72,0,1,0,.7-.89.82.82,0,0,0-.7.89"/><path class="cls-43" d="M992.7,205.57c.23.75.56,1.48.84,2.21a9.05,9.05,0,0,1,.4,1.14,6.92,6.92,0,0,1,0,1.7,3,3,0,0,0,2.74,2.7,4.63,4.63,0,0,0,2.54-.34,3.25,3.25,0,0,0,1.4-1,4.23,4.23,0,0,0,.58-2.31c0-.86.14-1.72.26-2.58q.5-3.49,1.33-6.95c.34-1.42,1.09-2.85,1.6-5.17"/><path class="cls-45" d="M963.41,178.67a3.72,3.72,0,1,0,3.72-3.79,3.76,3.76,0,0,0-3.72,3.79"/><path class="cls-15" d="M964.85,177.28a1,1,0,1,0,1-1,1,1,0,0,0-1,1"/><path class="cls-42" d="M994.62,204.9a50.85,50.85,0,0,1-8.31,2.28"/><path class="cls-43" d="M970.77,204.9a18,18,0,0,1,1.91,2.38,20.46,20.46,0,0,1,2.79,5.74,4.34,4.34,0,0,0,.94,3.66c1.64,1.94,7.86,2.45,9-2.5a83.67,83.67,0,0,1,2.73-9.41"/><path class="cls-44" d="M972.92,208.13c-1.15,0-2.29-.14-3.44-.25A61.87,61.87,0,0,1,959.29,206"/><path class="cls-46" d="M1017.86,187.75c-5.24-6.1-8.15-9.14-9.85-8.67-2.69.75-2.46,5.41-.46,6.76a4.47,4.47,0,0,0,1,5.44,6.8,6.8,0,0,0,5.49,1.85"/><path class="cls-47" d="M1017.87,206.76c1.45-2-.59-5.35-3.52-7.8-1.67-1.4-4.29-2-5.58-.08-.93,1.39-.3,3.83,1,5.55S1015,210,1017.87,206.76Z"/><path class="cls-47" d="M1032.78,209.6c-.74-2.37-4.63-2.74-8.35-1.86-2.13.5-4.17,2.23-3.41,4.41.55,1.58,2.88,2.54,5,2.52C1028.4,214.65,1033.62,213.8,1032.78,209.6Z"/><path class="cls-48" d="M1014.72,192.72a12.16,12.16,0,0,0,1.29,11.51c2.44,3.27,7.86,4.83,10.61,4.78,3.4.06,7.5-.5,10.39-4.66,1.58-2.27,2.71-7.24,1.34-10.41a9.72,9.72,0,0,0-1.92-6c-3.81-4.85-12.81-4.94-17.9-.78A12.5,12.5,0,0,0,1014.72,192.72Z"/><path class="cls-46" d="M1015.14,191.68c-2.33,5.59-1,10.08.87,12.55,2.44,3.27,7.86,4.83,10.61,4.78,3.4.06,7.5-.5,10.39-4.66,1.58-2.27,2.71-7.24,1.34-10.41"/><path class="cls-27" d="M1019.86,195.54c3.13,1,13.71-2,17.28-5.85,1.73-1.86.42-4.29.42-4.29l-11.58-.25-8.59.81S1015.67,194.18,1019.86,195.54Z"/><path class="cls-46" d="M1028.15,158.6a2,2,0,0,1,2.57-1.13,2,2,0,0,1,.83.67,2,2,0,0,1,2.27-.61,2.05,2.05,0,0,1,1.06,2.65,2.09,2.09,0,0,1-.46.69,13.88,13.88,0,0,1,2,.94,22.4,22.4,0,0,1,6.69,6.37,30.41,30.41,0,0,1,2.38,3.86,2,2,0,0,1,.9-.1,2,2,0,0,1,1.67,2.29,2,2,0,0,1-1.65,1.73,2.17,2.17,0,0,1,.14,1.08,2,2,0,0,1-2.23,1.75,14,14,0,0,0-1.25,3.57c-.35,1.41,0,2.95-.57,4.27-.65,1.59-3.18,6-15.6,4.24s-13.37-6.48-13.56-8.18c-.16-1.42.47-2.8.52-4.25a20.38,20.38,0,0,0-.35-4.49,2.37,2.37,0,0,1-1.28-1.81,1.75,1.75,0,0,1,.65-1.84,2,2,0,0,1,1.35-3.16,22.46,22.46,0,0,1,11.47-6.82,13.86,13.86,0,0,1,2.19-.36A3,3,0,0,1,1028.15,158.6Z"/><path class="cls-49" d="M1025.91,191.13c-5-.73-13.19-3.27-12.9-8.38.08-1.56.71-1.77,1.23-3.35,1-4.83,2.75-6.13,5.46-5.7,1.92.31,4.09,2.47,2.58,7.87l.36,1.68,1.82-1.21c1.41-6.77,5.25-7.32,8.07-6.44s4.67,3.33,4.3,7.45c0,1.1,1.72,2.2.84,4.56C1036.05,192,1029.67,191.69,1025.91,191.13Z"/><path class="cls-50" d="M1023.11,181.48a1.51,1.51,0,0,0-1.81,1.2c-.29,1.79.46,2.7,1.19,2.87,1.25.3,2.5-1,3.29-1.75.42-.41.32-.23.25-.64C1025.9,182.39,1024.7,181.74,1023.11,181.48Z"/><path class="cls-19" d="M1023,181.57a1,1,0,0,0-1.11.92c-.18,1.11.24,1.79.7,1.88.73.13,1.47-.61,1.95-1.15.26-.29.2-.17.16-.47C1024.66,182.18,1024,181.73,1023,181.57Z"/><path class="cls-50" d="M1020.46,182.06c0-.85.83-.9,1.4-.9,1.35-.95,2.39-.5,3.27.72,1.42.48,1.62,1.18,1.24,1.67-.23.3-.63.59-1.47.15a10.12,10.12,0,0,0-2.16-1.11,5.28,5.28,0,0,0-1.63.07A.65.65,0,0,1,1020.46,182.06Z"/><path class="cls-51" d="M1019.87,177.59a2.34,2.34,0,0,0-3.5-.13,2.89,2.89,0,0,0-.2,3.82,2.33,2.33,0,0,0,3.5.13A2.89,2.89,0,0,0,1019.87,177.59Z"/><ellipse class="cls-15" cx="1017.31" cy="178.49" rx="0.75" ry="0.69" transform="translate(698.01 1160.75) rotate(-81.94)"/><path class="cls-51" d="M1032.91,179.73a2.84,2.84,0,1,0-.3,4A2.84,2.84,0,0,0,1032.91,179.73Z"/><path class="cls-15" d="M1030.53,180.78a.79.79,0,1,1-1.55-.27.79.79,0,0,1,1.55.27Z"/><path class="cls-46" d="M1035.14,192.48c6.43-5,12.19-8,13.76-7.16,2.5,1.32,1.3,6-1,6.88a4.64,4.64,0,0,1-2.13,5.25c-1.15.8-5.84,2.34-8.61,1.61"/><path class="cls-3" d="M290.72,77.62a8.84,8.84,0,0,0,7.78.14c1.79,1.68,9.6,8.57,20.07,7a23.42,23.42,0,0,0,10.67-4.66,13.41,13.41,0,0,0,10.33,1.37c1.88-.56,6.16-1.83,8-6.59,1.55-4,1-9.46-2.09-12.78a8.7,8.7,0,0,0-7.25-2.75c-.11-.5-1.74-7.15-7.37-9.33-4.14-1.61-8.76-.16-11.84,3.7-.67-.76-3.62-3.93-8-3.84-3.86.07-6.44,2.62-7.55,3.71a17.32,17.32,0,0,0-4.06,6.59c-.78-.53-3.81-2.45-7.19-1.24-4.67,1.68-7.66,8.49-6.1,13.46A9.11,9.11,0,0,0,290.72,77.62Z"/><rect class="cls-52" x="83.97" y="152.57" width="4.36" height="31.33" transform="matrix(1, -0.09, 0.09, 1, -15.21, 8.7)"/><path class="cls-53" d="M95.87,140c1.17,12.68-3.74,19.27-10.5,19.9s-12.8-4.94-14-17.62,3.47-25,10.23-25.61S94.69,127.28,95.87,140Z"/><rect class="cls-52" x="101.48" y="150.94" width="4.36" height="31.33" transform="translate(-14.98 10.31) rotate(-5.31)"/><path class="cls-54" d="M113.38,138.32c1.18,12.68-3.73,19.27-10.49,19.9s-12.81-4.94-14-17.62,3.47-25,10.23-25.61S112.2,125.65,113.38,138.32Z"/><path class="cls-9" d="M501.68,237.49c-79.63-51.26-150.85-70.58-196.84-78.74C242,147.61,162.47,133.51,78.25,180.62,42.6,200.56,16.69,225.56,0,244.21l501.68-1.63Z"/><path class="cls-55" d="M192.07,2.48h0a1.21,1.21,0,0,1,1.21,1.21v17.4a0,0,0,0,1,0,0h-2.42a0,0,0,0,1,0,0V3.69a1.21,1.21,0,0,1,1.21-1.21Z"/><circle class="cls-55" cx="192" cy="2.87" r="2.87"/><polygon class="cls-56" points="256.06 105.31 252.79 171.97 133.27 171.97 127.04 105.87 190.83 62.27 256.06 105.31"/><rect class="cls-57" x="131.46" y="166.5" width="122.77" height="6.07" rx="1"/><path class="cls-56" d="M212.42,37.53c0,.17,0,1.25-.12,3,0,.83-.08,1.81-.13,2.92-.46,10.87-1.35,33.74-.46,43.41H173.17l-1.35-43.49-.09-2.95,0-1.56,20.69-13.8Q202.39,31.3,212.42,37.53Z"/><path class="cls-58" d="M201.06,54.53H183.81v-13a6.34,6.34,0,0,1,1.62-4.32A9.45,9.45,0,0,1,199.19,37a6.48,6.48,0,0,1,1.87,4.58Z"/><path class="cls-59" d="M198.42,36.26a9.39,9.39,0,0,0-10.09,2.59,6.27,6.27,0,0,0-1.62,4.3V54.53h-2.9v-13a6.29,6.29,0,0,1,1.62-4.3,9.43,9.43,0,0,1,13-1Z"/><path class="cls-60" d="M187.6,45.19a5.59,5.59,0,0,1-1.13,2.15S187.55,49,192.25,49c5.43,0,6.14-1.66,6.14-1.66a5.73,5.73,0,0,1-1.13-2.15Z"/><circle class="cls-61" cx="192.29" cy="48.13" r="1.69"/><rect class="cls-61" x="191.93" y="44.32" width="0.92" height="2.77"/><path class="cls-62" d="M196.8,42.67a5.83,5.83,0,0,0-2.73-4.55,3.7,3.7,0,0,0-4.83,1.33,7.26,7.26,0,0,0-1.18,3.22c-.23,1.75-.41,3.27-1.59,4.67,0,0,1.26-1.19,6-1.18,5.44,0,6,1.18,6,1.18C197.21,45.94,197,44.42,196.8,42.67Z"/><path class="cls-15" d="M191.41,39a6.54,6.54,0,0,0-1.27,1.52,6.39,6.39,0,0,0-.71,1.85.18.18,0,0,1-.23.15.2.2,0,0,1-.16-.19,4.68,4.68,0,0,1,.61-2.09,4.26,4.26,0,0,1,1.54-1.53.18.18,0,0,1,.25.07A.17.17,0,0,1,191.41,39Z"/><path class="cls-63" d="M162.34,154.1h-22l-.2-26.4a10.79,10.79,0,0,1,11-10.67h.12a10.88,10.88,0,0,1,11.08,10.67Z"/><path class="cls-64" d="M144.72,127c.22-3.41,5.68-8.82,15.78-5a.66.66,0,0,0,.2,0,11.19,11.19,0,0,0-9.4-5h-.12a10.79,10.79,0,0,0-11,10.67l.2,26.4h3.19C143.87,151.88,144.47,130.74,144.72,127Z"/><path class="cls-15" d="M151.3,115.91h-.12A11.93,11.93,0,0,0,139,127.7l.23,27.48h24.23l.05-27.48A12,12,0,0,0,151.3,115.91Zm9.92,11.79v7.92h-8.77l0-17.4A9.69,9.69,0,0,1,161.22,127.7Zm-11.13-9.48.06,17.4h-8.76l-.06-7.92A9.62,9.62,0,0,1,150.09,118.22Zm-8.69,19.61h8.76l.05,15.18h-8.7ZM152.5,153l0-15.18h8.75V153Z"/><path class="cls-63" d="M246.12,154.1h-22L224,127.7A10.8,10.8,0,0,1,235,117h.12a10.88,10.88,0,0,1,11.08,10.67Z"/><path class="cls-64" d="M228.49,127c.23-3.41,5.69-8.82,15.79-5a.61.61,0,0,0,.19,0,11.16,11.16,0,0,0-9.39-5H235a10.8,10.8,0,0,0-11,10.67l.21,26.4h3.19C227.64,151.88,228.25,130.74,228.49,127Z"/><path class="cls-15" d="M235.08,115.91H235A11.93,11.93,0,0,0,222.8,127.7l.22,27.48h24.24l.05-27.48A12,12,0,0,0,235.08,115.91ZM245,127.7v7.92h-8.76l0-17.4A9.69,9.69,0,0,1,245,127.7Zm-11.13-9.48.06,17.4h-8.76l-.06-7.92A9.61,9.61,0,0,1,233.87,118.22Zm-8.69,19.61h8.76L234,153h-8.7ZM236.28,153l0-15.18H245V153Z"/><path class="cls-65" d="M212.52,128.66l-.5,33.43H171.9l-.1-33.43c0-10.2,9.15-18.57,20.47-18.57S212.67,118.46,212.52,128.66Z"/><path class="cls-66" d="M182.21,125.4a9.69,9.69,0,0,1,2.26-3.16,11.28,11.28,0,0,1,7.77-3,11.15,11.15,0,0,1,7.92,3.21,9.5,9.5,0,0,1,2,3h13.1a21.66,21.66,0,0,0-6-11.68,24.24,24.24,0,0,0-34,0,21.85,21.85,0,0,0-6.13,11.7Z"/><path class="cls-15" d="M210.76,129.1l-.46,33h-3.05l.42-33c.1-8.07-6.81-14.65-15.43-14.65a16.1,16.1,0,0,0-11.05,4.31,14.11,14.11,0,0,0-4.55,10.34l0,33h-3l-.07-33c0-9.66,8.37-17.59,18.71-17.59S210.9,119.44,210.76,129.1Z"/><path class="cls-15" d="M210.76,129.1l-.46,33h-3.05l.42-33c.1-8.07-6.81-14.65-15.43-14.65a16.1,16.1,0,0,0-11.05,4.31,14.11,14.11,0,0,0-4.55,10.34l0,33h-3l-.07-33c0-9.66,8.37-17.59,18.71-17.59S210.9,119.44,210.76,129.1Z"/><path class="cls-67" d="M207.67,129.1l-.43,33H176.66l0-33a14,14,0,0,1,3.89-9.67c.2-.23.43-.46.66-.68s.74-.65,1.12-1a15.77,15.77,0,0,1,5.14-2.64,15.09,15.09,0,0,1,1.79-.44,16.49,16.49,0,0,1,3-.27,17.77,17.77,0,0,1,3.92.46,15.87,15.87,0,0,1,5.13,2.28,14.69,14.69,0,0,1,1.79,1.42A14,14,0,0,1,207.67,129.1Z"/><path class="cls-68" d="M182.31,117.8v44.29h-1.78V119.43c.2-.23.43-.46.66-.68S181.93,118.1,182.31,117.8Z"/><path class="cls-68" d="M189.24,114.72v47.37h-1.79V115.16A15.09,15.09,0,0,1,189.24,114.72Z"/><path class="cls-68" d="M196.16,114.91v47.18h-1.79v-47.5A14.87,14.87,0,0,1,196.16,114.91Z"/><path class="cls-68" d="M203.08,118.61v43.48h-1.79v-44.9A14.69,14.69,0,0,1,203.08,118.61Z"/><path class="cls-69" d="M212.24,125.29c-.25,0-.42-.15-.42-.25-.84-10.21-14-16.34-23.13-14.5-7.09,1.43-14.94,6.76-15.83,14.5,0,.1-.18.25-.43.25H165.7a.5.5,0,0,1-.38-.16.25.25,0,0,1-.07-.17c.79-12.09,13.19-20.58,24.45-21.6,10.74-1,22.15,4.57,27.31,14.2a19,19,0,0,1,2.35,7.39.21.21,0,0,1-.07.17.51.51,0,0,1-.4.17Z"/><path class="cls-70" d="M183.19,143a2.26,2.26,0,1,1-2.25-2.25A2.25,2.25,0,0,1,183.19,143Z"/><path class="cls-61" d="M183.25,142.37a2.32,2.32,0,1,1-2.31-2.24A2.28,2.28,0,0,1,183.25,142.37Z"/><path class="cls-71" d="M180.66,141.9a.7.7,0,1,1-.7-.66A.67.67,0,0,1,180.66,141.9Z"/><ellipse class="cls-72" cx="192.58" cy="129.29" rx="7.69" ry="7.53"/><ellipse class="cls-72" cx="192.58" cy="129.29" rx="7.69" ry="7.53"/><path class="cls-73" d="M199.65,132.26a6.84,6.84,0,0,0,0-.79,6.29,6.29,0,1,0-10.8,4.43,7.51,7.51,0,0,1-4-6.61,7.69,7.69,0,0,1,15.38,0A7.52,7.52,0,0,1,199.65,132.26Z"/><ellipse class="cls-74" cx="192.58" cy="129.29" rx="7.69" ry="7.53"/><path class="cls-65" d="M232,91.26c-7.68-4.82-13.34-8.37-20.82-13.3q-10.11-6.64-19.59-13.28v-.07l-.06,0-.05,0v.07Q172.22,78,151.06,91.26q-12.15,7.6-24,14.61l.37,3.9q13.41-7.5,27.46-16.18c13.06-8.09,25.28-16.25,36.65-24.31,11.35,8.06,23.56,16.22,36.66,24.31q14.15,8.75,27.66,16.22c.07-1.24.13-2.48.2-3.71C246.35,100.22,238.2,95.15,232,91.26Z"/><rect class="cls-75" x="191.59" y="34.47" width="1.44" height="3.55"/><path class="cls-74" d="M201.06,54.53H183.81v-13a6.34,6.34,0,0,1,1.62-4.32A9.45,9.45,0,0,1,199.19,37a6.48,6.48,0,0,1,1.87,4.58Z"/><path class="cls-69" d="M220.84,36.51l-10.2-4.88L212.18,30l-10.71-4.39,1.06-1.67-10.59-4.52v0h0v0L181.32,23.9l1.06,1.67L171.68,30l1.53,1.67L163,36.51l2.9,4,26-16.79,26,16.79Z"/><path class="cls-65" d="M212.3,40.53c0,.83-.08,1.81-.13,2.92L191.93,30.7,171.82,43.37l-.09-2.95,20.18-13v0h0v0Z"/><path class="cls-15" d="M217,41.84l-25-16.14v0h0v0l-25,16.14c.49.67,1,1.35,1.45,2L191.93,29l23.56,14.85Z"/><path class="cls-66" d="M217.94,40.46l-26-16.78v0h0v0l-26,16.78c.33.47.67.92,1,1.38l25-16.15,25,16.15C217.28,41.38,217.61,40.93,217.94,40.46Z"/><path class="cls-66" d="M232.38,85.64c-6.76-4.24-12.86-8-20.94-13.38q-10.16-6.69-19.69-13.35v0l0,0,0,0v0Q182.15,65.57,172,72.26c-8,5.25-14,9-20.94,13.38-7.38,4.61-17,10.56-28.46,17.44l2,2c9.79-5.56,20.05-10.69,30.27-17.08,13-8.15,25.31-16.34,36.85-24.45C202.94,71.6,215.21,79.83,228.57,88c10.3,6.28,20.34,12,30,17.08l2.31-2C249.43,96.22,239.78,90.27,232.38,85.64Z"/><path class="cls-69" d="M191.74,54.58v4.85c-2.79,2-5.61,3.91-8.48,5.85l-.14.1-.79.54-.14.09q-4.2,2.85-8.53,5.72l-.18.12-.76.5-.18.12q-4.32,2.85-8.75,5.7l-.95.6q-4.36,2.81-8.83,5.59l-.95.6-2,1.24q-3.93,2.43-7.84,4.8l-1,.57q-5,3-9.91,5.89l-1,.56q-4.42,2.6-8.78,5.06c-.78-1.17-3.21-4.92-3.21-4.92L128.82,94l1-.45.1-.05-.88-1.31,10.48-4.85,1-.47.06,0-.4-1,10.22-4.91.84-.41-.14-.19-.88-1.23,10.19-4,.86-.34-.94-1.77h0l.06,0,9.63-4.3.21-.09.83-.37h0L170.42,67l-.22-.36,9.56-4.47.14-.07.86-.41-.26-.45-.61-1-.24-.42S190.18,55.49,191.74,54.58Z"/><path class="cls-70" d="M132.34,97.46l-1,.56-2.56-4,1-.45Z"/><path class="cls-70" d="M143.21,91l-1,.57-2.69-4.24,1-.47Z"/><path class="cls-70" d="M154,84.36l-.95.6-2.58-4.07.83-.41-.14-.19.18-.12Z"/><path class="cls-70" d="M163.79,78.17l-.95.6-2.36-3.72.86-.34-.94-1.77,0,0Z"/><path class="cls-70" d="M173.48,71.85l-.76.5-.18.12-2.45-3.87.2-.09.83-.37Z"/><path class="cls-70" d="M183.12,65.38l-.79.54-.14.09-2.43-3.84.15-.07.86-.41-.27-.45Z"/><path class="cls-69" d="M264.1,98.16s-2.43,3.75-3.21,4.92q-4.36-2.47-8.78-5.06l-1-.56q-4.92-2.88-9.9-5.89l-1-.57q-3.9-2.37-7.84-4.8l-2-1.24-1-.6q-4.47-2.79-8.84-5.59l-.94-.6q-4.44-2.85-8.75-5.7l-.19-.12-.75-.5-.19-.12q-4.32-2.87-8.53-5.72l-.13-.09-.8-.54-.13-.1c-2.88-1.94-5.7-3.9-8.49-5.85V54.58c1.57.91,12.09,5.2,12.09,5.2l-.24.42-.61,1-.26.45.86.41.15.07,9.55,4.47-.22.36-.71,1.13h0l.84.37.2.09L223,72.9l.06,0h0l-.94,1.77.87.34,10.19,4-.89,1.23-.14.19.84.41,10.22,4.91-.4,1,.07,0,1,.47,10.47,4.85-.87,1.31.1.05,1,.45Z"/><path class="cls-70" d="M254.66,94l-2.55,4-1-.56,2.49-3.92Z"/><path class="cls-70" d="M243.93,87.33l-2.69,4.24-1-.57,2.63-4.14Z"/><path class="cls-70" d="M229.48,84.36l1,.6L233,80.89l-.84-.41.14-.19-.18-.12Z"/><path class="cls-70" d="M219.7,78.17l.94.6L223,75.05l-.86-.34.94-1.77-.06,0Z"/><path class="cls-70" d="M210,71.85l.75.5.19.12,2.45-3.87-.2-.09-.83-.37Z"/><path class="cls-70" d="M200.37,65.38l.79.54.13.09,2.44-3.84-.15-.07-.86-.41.27-.45Z"/><path class="cls-15" d="M232,89.57c-14.3-8.85-27.76-17.75-40.41-26.57v-.07l-.06,0-.05,0V63c-12.65,8.82-26.11,17.72-40.41,26.57-9.66,6-17.16,10.19-26.46,15.48.75,1.11,1.5,2.23,2.24,3.35,9.79-5.55,17.81-10.11,28-16.49,13-8.11,25.17-16.25,36.65-24.31,11.49,8.06,23.7,16.2,36.66,24.31,10.22,6.38,18.37,10.94,28.16,16.49.75-1.12,1.49-2.24,2.24-3.35C249.28,99.76,241.65,95.55,232,89.57Z"/><path class="cls-76" d="M159,174.89a1.52,1.52,0,0,0,1.43-1.95s0-.09,0-.13a1.72,1.72,0,0,0-2.18-.92,2.12,2.12,0,0,0-.31-2.16,2,2,0,0,0-2.54-.33,2.29,2.29,0,0,0,.47-3.27,2.13,2.13,0,0,0-3.17-.08,2.26,2.26,0,0,0-.71-2.29,2.11,2.11,0,0,0-2.38-.25,2.75,2.75,0,0,0-2.14-2.13,2.64,2.64,0,0,0-2.53,1,3.15,3.15,0,0,0-4-2.13,3.3,3.3,0,0,0-1.9,4.17,2.19,2.19,0,0,0-4.2,0,2.43,2.43,0,0,0-2.71-.75,2.65,2.65,0,0,0-1.41,3.21,2.44,2.44,0,0,0-2.62.24,2.77,2.77,0,0,0-.23,3.68,2.39,2.39,0,0,0-2.79,1.32,2.53,2.53,0,0,0,0,2.23,1.46,1.46,0,0,0,1.33.82,8.82,8.82,0,0,0,2.12.54,9.18,9.18,0,0,0,4.28-.49,26.53,26.53,0,0,0,13.8-.26,29.49,29.49,0,0,0,4.54.62A29.2,29.2,0,0,0,159,174.89Z"/><path class="cls-77" d="M167.05,99.9l-2.46-14.63a1.32,1.32,0,0,1,1.22-1.54l7.07-.33c2.71-3.81,9.51-6.3,17.61-6.3s14.89,2.49,17.6,6.3l7.08.33a1.33,1.33,0,0,1,1.22,1.54L213.93,99.9a1.33,1.33,0,0,1-1.3,1.1H168.35A1.31,1.31,0,0,1,167.05,99.9Z"/><path class="cls-69" d="M166.88,99.23,164.42,84.6a1.33,1.33,0,0,1,1.22-1.54l7.08-.32c2.7-3.82,9.51-6.31,17.6-6.31s14.9,2.49,17.61,6.31l7.07.32a1.33,1.33,0,0,1,1.22,1.54l-2.46,14.63a1.31,1.31,0,0,1-1.3,1.1H168.18A1.33,1.33,0,0,1,166.88,99.23Z"/><path class="cls-78" d="M206.62,84.86c-1.59-3.55-8.28-6.23-16.3-6.23s-14.7,2.68-16.3,6.23l-7.08.33a.16.16,0,0,0-.15.19L168.91,98a.16.16,0,0,0,.16.13h42.5a.16.16,0,0,0,.16-.13l2.12-12.61a.16.16,0,0,0-.15-.19Z"/><path class="cls-79" d="M213.85,85.38l-.08.5c-1.85-.13-5.39-.25-7.25-.37-1.56-3.57-8.09-6.25-15.93-6.25s-14.38,2.68-15.93,6.25l-7,.33a.17.17,0,0,0-.15.2l2,12.08h-.45a.15.15,0,0,1-.16-.13l-2.12-12.61a.16.16,0,0,1,.15-.19l7.08-.33c1.6-3.55,8.29-6.22,16.3-6.22s14.71,2.67,16.3,6.22l7.08.33A.16.16,0,0,1,213.85,85.38Z"/><path class="cls-79" d="M203.84,84.06a.71.71,0,0,0-1.31,0l-.59,1.46a.36.36,0,0,1-.66-.27l.58-1.46a.71.71,0,1,0-1.31-.53l-.38.94.06-1a.82.82,0,0,0-.63-.91c-.62-.14-.87.26-1.18.77l-.1.17,0-.19c-.05-.6-.09-1.08-.71-1.22a.82.82,0,0,0-1,.52L196,83.78l-.36-1.42c-.09-.38-.22-.91-.83-1s-.86.41-1,.76l-.58,1.12,0-1.31a.67.67,0,0,0-.68-.74h0a.68.68,0,0,0-.7.7l0,.63-.66-.86c-.26-.34-.41-.53-.76-.54a.74.74,0,0,0-.51.18.7.7,0,0,0-.22.52l0,1.33L189.09,82c-.16-.36-.38-.86-1-.82s-.77.55-.89.93l-.33,1a1.92,1.92,0,0,0-.66-1.18,1.82,1.82,0,0,0-1.46-.39l-.9.14a.68.68,0,0,0-.6.79l.19,1.32-.74-1.06c-.23-.33-.54-.77-1.14-.62s-.65.69-.69,1.08l-.16,1.38a1,1,0,0,0-.46-.27.94.94,0,0,0,0-.55,1.17,1.17,0,0,0-.64-.67,1.33,1.33,0,0,0-1,0l-.83.32a.68.68,0,0,0-.42.9l.9,2.34a.73.73,0,0,0,.36.39.71.71,0,0,0,.28.06.86.86,0,0,0,.27,0l.88-.34a1.66,1.66,0,0,0,.8-.59l.12.08a.72.72,0,0,0,.29.06.76.76,0,0,0,.21,0,.73.73,0,0,0,.54-.74v-.07l.74-.18,0,.06a.74.74,0,0,0,.83.39.86.86,0,0,0,.39-.24.68.68,0,0,0,.28.07h.12l.89-.13a1.92,1.92,0,0,0,1.2-.67.55.55,0,0,0,.22.32.71.71,0,0,0,.43.13h.05a.73.73,0,0,0,.68-.63l0-.06.76,0,0,.06a.71.71,0,0,0,.74.54.67.67,0,0,1,.82,0,.7.7,0,0,0,.73-.7l0-.63.66.85c.25.33.4.53.76.54h0a.71.71,0,0,0,.39-.11.66.66,0,0,0,.4.16.73.73,0,0,0,.77-.5l0-.06.76.09v.08a.73.73,0,0,0,.64.66h.1a.72.72,0,0,0,.29-.06.74.74,0,0,0,.28.14.77.77,0,0,0,.92-.57l0-.08,0,.31a.71.71,0,0,0,.59.71.69.69,0,0,0,.83-.38l.16-.26v.09a.77.77,0,0,0,.57.92l.16,0a.69.69,0,0,0,.39-.12A.81.81,0,0,0,200,86a.14.14,0,0,0,0,.07,1.77,1.77,0,0,0,1,.89,1.88,1.88,0,0,0,.75.16,1.62,1.62,0,0,0,1.53-1.07l.59-1.47A.67.67,0,0,0,203.84,84.06ZM185,84.14h-.07l-.18-1.2.11,0a.48.48,0,0,1,.39.09.66.66,0,0,1,.19.42C185.52,84.06,185.14,84.12,185,84.14Zm-5.43,1.42-.06,0-.14.06h0l.14,0Z"/><path class="cls-15" d="M177.67,84a.37.37,0,0,1,.22-.48l.84-.32a.83.83,0,0,1,1.17.46.72.72,0,0,1-.15.72.77.77,0,0,1,.91.5c.19.48,0,1-.73,1.33l-.88.33a.35.35,0,0,1-.48-.2Zm1,.57.32-.13c.2-.08.29-.22.22-.41a.3.3,0,0,0-.44-.16l-.32.13Zm.47,1.23.45-.17c.23-.09.39-.25.31-.48s-.34-.22-.55-.14l-.45.17Z"/><path class="cls-15" d="M181.2,83c0-.38.08-.71.44-.8s.57.18.79.49l1.18,1.68a1.26,1.26,0,0,1,.22.41.32.32,0,0,1-.28.38c-.24.06-.36-.07-.48-.25l-.16-.26-1.2.31,0,.3c0,.22-.06.39-.3.45a.33.33,0,0,1-.43-.2,1.15,1.15,0,0,1,0-.47Zm.67,0h0l-.1,1.25.77-.19Z"/><path class="cls-15" d="M183.58,82.23a.35.35,0,0,1,.32-.42l.89-.14a1.62,1.62,0,0,1,.48,3.21l-.9.13a.35.35,0,0,1-.43-.31Zm1.06,2,.4-.06a.84.84,0,0,0,.72-1.07.81.81,0,0,0-1-.79l-.43.07Z"/><path class="cls-15" d="M187.52,82c.11-.37.21-.69.59-.71s.52.28.68.63l.84,1.87a1.07,1.07,0,0,1,.13.45c0,.18-.13.31-.34.32s-.34-.13-.42-.33l-.11-.29-1.24.07-.08.3c-.06.21-.13.36-.38.38s-.37-.1-.38-.28a1.38,1.38,0,0,1,.09-.46Zm.66.11h0l-.34,1.21.8-.05Z"/><path class="cls-15" d="M190,81.61a.35.35,0,0,1,.39-.38c.2,0,.27.09.51.41l1.21,1.57h0l.05-1.54a.38.38,0,1,1,.75,0l-.07,2.51a.37.37,0,0,1-.39.39c-.2,0-.27-.1-.51-.42l-1.21-1.57h0l-.05,1.54a.35.35,0,0,1-.39.38.34.34,0,0,1-.36-.4Z"/><path class="cls-15" d="M194.07,82.05c.18-.34.33-.64.71-.59s.46.36.56.74l.5,2a1.08,1.08,0,0,1,0,.46.32.32,0,0,1-.39.26c-.25,0-.31-.2-.36-.41l-.06-.3-1.23-.14-.13.27c-.09.2-.19.34-.44.31a.31.31,0,0,1-.32-.34,1.05,1.05,0,0,1,.16-.44Zm.63.22h0l-.55,1.13.79.1Z"/><path class="cls-15" d="M196.92,82.26a.49.49,0,0,1,.6-.34c.37.09.4.32.45.93l.1,1.17h0l.62-1c.32-.52.45-.71.82-.62.19,0,.4.17.38.57l-.09,1.68a6.87,6.87,0,0,1-.07.82.34.34,0,0,1-.42.26c-.33-.07-.34-.32-.32-.57l.11-1.45h0l-.87,1.43a.39.39,0,0,1-.48.23.4.4,0,0,1-.33-.42l-.13-1.67h0l-.55,1.35c-.09.23-.2.45-.54.37a.36.36,0,0,1-.26-.43,7.6,7.6,0,0,1,.31-.76Z"/><path class="cls-15" d="M201,84.92a.64.64,0,0,0,.39.88.64.64,0,0,0,.88-.36l.59-1.47a.36.36,0,0,1,.5-.22.36.36,0,0,1,.2.51L203,85.72a1.33,1.33,0,0,1-1.86.73,1.32,1.32,0,0,1-.82-1.81l.59-1.46a.38.38,0,1,1,.7.28Z"/><path class="cls-80" d="M171.33,94.32c.41,0,.94.42,1.79.42.64,0,.88-.32.88-.68,0-.55-.64-.67-1.58-1s-1.75-.65-1.75-2a2.35,2.35,0,0,1,2.62-2.33c1.33,0,2.07.46,2.07,1.1a.72.72,0,0,1-.74.77c-.53,0-.71-.27-1.41-.27-.45,0-.76.23-.76.59s.41.47,1.56.85A2.11,2.11,0,0,1,175.78,94c0,1.67-1.24,2.43-2.78,2.43-1,0-2.45-.38-2.45-1.2A.81.81,0,0,1,171.33,94.32Z"/><path class="cls-80" d="M180,88.79c1,0,2.19.29,2.19,1.16a.75.75,0,0,1-.71.79c-.39,0-.8-.35-1.44-.35-1.34,0-1.87,1.08-1.87,2.21s.59,2.14,1.72,2.14,1.2-.33,1.63-.33a.7.7,0,0,1,.73.76c0,.91-1.38,1.23-2.28,1.23a3.81,3.81,0,0,1,0-7.61Z"/><path class="cls-80" d="M184.51,95.42a.83.83,0,1,1-1.65,0V89.78a.83.83,0,1,1,1.65,0v2h3.09v-2a.83.83,0,1,1,1.65,0v5.64a.83.83,0,1,1-1.65,0V93.27h-3.09Z"/><path class="cls-80" d="M197.22,92.6a3.58,3.58,0,1,1-3.57-3.81A3.47,3.47,0,0,1,197.22,92.6Zm-5.37,0c0,1.15.52,2.27,1.8,2.27s1.8-1.12,1.8-2.27-.52-2.27-1.8-2.27S191.85,91.44,191.85,92.6Z"/><path class="cls-80" d="M205,92.6a3.58,3.58,0,1,1-3.58-3.81A3.47,3.47,0,0,1,205,92.6Zm-5.37,0c0,1.15.52,2.27,1.79,2.27s1.8-1.12,1.8-2.27-.52-2.27-1.8-2.27S199.64,91.44,199.64,92.6Z"/><path class="cls-80" d="M205.83,89.78a.83.83,0,1,1,1.65,0V94.7h1.78a.74.74,0,0,1,.83.77.75.75,0,0,1-.83.77h-2.6a.8.8,0,0,1-.83-.83Z"/><path class="cls-81" d="M171.33,93.88c.41,0,.94.42,1.79.42.64,0,.88-.33.88-.68,0-.56-.64-.67-1.58-1s-1.75-.64-1.75-2a2.35,2.35,0,0,1,2.62-2.33c1.33,0,2.07.46,2.07,1.1a.72.72,0,0,1-.74.77c-.53,0-.71-.27-1.41-.27-.45,0-.76.23-.76.59s.41.47,1.56.85a2.09,2.09,0,0,1,1.77,2.13c0,1.68-1.24,2.44-2.78,2.44-1,0-2.45-.38-2.45-1.2A.81.81,0,0,1,171.33,93.88Z"/><path class="cls-81" d="M180,88.35c1,0,2.19.29,2.19,1.16a.74.74,0,0,1-.71.78c-.39,0-.8-.34-1.44-.34-1.34,0-1.87,1.08-1.87,2.2s.59,2.15,1.72,2.15,1.2-.34,1.63-.34a.71.71,0,0,1,.73.77c0,.91-1.38,1.23-2.28,1.23a3.81,3.81,0,0,1,0-7.61Z"/><path class="cls-81" d="M184.51,95a.83.83,0,1,1-1.65,0V89.33a.83.83,0,1,1,1.65,0v2h3.09v-2a.83.83,0,1,1,1.65,0V95a.83.83,0,1,1-1.65,0V92.83h-3.09Z"/><path class="cls-81" d="M197.22,92.15a3.58,3.58,0,1,1-3.57-3.8A3.47,3.47,0,0,1,197.22,92.15Zm-5.37,0c0,1.16.52,2.27,1.8,2.27s1.8-1.11,1.8-2.27-.52-2.26-1.8-2.26S191.85,91,191.85,92.15Z"/><path class="cls-81" d="M205,92.15a3.58,3.58,0,1,1-3.58-3.8A3.48,3.48,0,0,1,205,92.15Zm-5.37,0c0,1.16.52,2.27,1.79,2.27s1.8-1.11,1.8-2.27-.52-2.26-1.8-2.26S199.64,91,199.64,92.15Z"/><path class="cls-81" d="M205.83,89.33a.83.83,0,1,1,1.65,0v4.93h1.78a.77.77,0,1,1,0,1.53h-2.6a.8.8,0,0,1-.83-.83Z"/><path class="cls-82" d="M236.15,169c-.24-.52-2.27,0-3.28.18a17,17,0,0,0-3.5,1.24,11.39,11.39,0,0,0,2.74-2.38c1.07-1.29,2.26-3.7,1.88-4s-2.45.54-3.55,1.3c-1.87,1.31-2.75,2.85-2.91,2.74s.87-1.59,1.62-3.69c.8-2.25,1.25-5.13.67-5.42s-2.39,2.41-3.37,4.44a17.58,17.58,0,0,0-1.24,3.4,13,13,0,0,0-.26-2c-.36-1.73-1.28-4.39-2-4.31s-1.1,2.53-1,4.35a9.82,9.82,0,0,0,.32,2.14,11.36,11.36,0,0,0-1.78-2.35l-.05-.06c-.57-.56-2.19-2-2.74-1.74s0,2.6.81,4.31a10.85,10.85,0,0,0,2.13,2.95,9.16,9.16,0,0,0-1.79-1.49c-.22-.15-2.3-1.43-2.84-1s1,2.77,1.11,2.95a7.85,7.85,0,0,0,3.13,3,7.13,7.13,0,0,0,1.12.43l7.54.22a12.36,12.36,0,0,0,1.26-.35,13.32,13.32,0,0,0,3.28-1.88C234.11,171.33,236.45,169.64,236.15,169Z"/><path class="cls-83" d="M219.4,174.2l-55.4-.37a9.56,9.56,0,0,1,2-2.23,10.3,10.3,0,0,1,2.13-1.34l47.43,0c.45.32,1.53,1.11,2.6,2a3.7,3.7,0,0,1,1,1.26A2.94,2.94,0,0,1,219.4,174.2Z"/><rect class="cls-84" x="163.86" y="172.93" width="55.77" height="5.91" rx="1.52"/><path class="cls-83" d="M216.53,168H167v-2.3a3,3,0,0,1,.3-.82,4.33,4.33,0,0,1,1.91-1.65,15.34,15.34,0,0,1,2.6-1.17h39.95a16.59,16.59,0,0,1,3.19,1.57,3.34,3.34,0,0,1,1.29,1.27,3.11,3.11,0,0,1,.33,1Z"/><rect class="cls-84" x="166.96" y="164.34" width="49.57" height="5.94" rx="1.39"/><path class="cls-85" d="M245.19,164.19a3.49,3.49,0,0,1,1.62-2.12,3.66,3.66,0,0,1,4.23.85,5,5,0,0,1,3.17-2.54,4.56,4.56,0,0,1,5.71,4.35,3.3,3.3,0,0,1,2.89.09,3.17,3.17,0,0,1,1.48,3.25,4.51,4.51,0,0,1,2.89,2,3.11,3.11,0,0,1,.43,2.6,2.92,2.92,0,0,1-1.41,1.48,4.66,4.66,0,0,1-3.88.07,11.58,11.58,0,0,1-4.94,1,11.14,11.14,0,0,1-3.67-.7,12.36,12.36,0,0,1-8.64-.45c-2.73,1.31-5.75.34-6.86-1.74a4.51,4.51,0,0,1,1.2-5.64,4,4,0,0,1,2.71-.52,2.2,2.2,0,0,1,.53-1.38A2.37,2.37,0,0,1,245.19,164.19Z"/><path class="cls-8" d="M227.43,170.71a3.23,3.23,0,0,1,1.28-1v0a2.47,2.47,0,0,1,1.57-2,2.85,2.85,0,0,1,1.45-.3,3.18,3.18,0,0,1,2-1.6,3.62,3.62,0,0,1,2.32.2,4.2,4.2,0,0,1,2.22-.88,4.25,4.25,0,0,1,3.52,1.14,5,5,0,0,1,1.22,2.12,3,3,0,0,1,1.6.9,3.75,3.75,0,0,1,.51,4.82c-.95,1.2-3.31,1.46-5.07.82l-.18-.07a4.48,4.48,0,0,1-3.3.91,5.08,5.08,0,0,1-2.22-.8,3.44,3.44,0,0,1-3.25.15,3.07,3.07,0,0,1-3.47-.77A2.89,2.89,0,0,1,227.43,170.71Z"/><circle class="cls-86" cx="239.17" cy="169.59" r="0.48"/><circle class="cls-86" cx="236.31" cy="172.82" r="0.48"/><circle class="cls-86" cx="242.83" cy="173.15" r="0.48"/><circle class="cls-86" cx="233.96" cy="170.2" r="0.48"/><circle class="cls-86" cx="229.91" cy="172.4" r="0.48"/><path class="cls-78" d="M193.21,6.33a19.92,19.92,0,0,1,7.91.38c3.29.87,4.67,2.22,8.76,3.74a37.4,37.4,0,0,0,6.76,1.8,15.69,15.69,0,0,1-7.19,3.95c-3.24.74-5.1-.06-9.34.43a27.27,27.27,0,0,0-6.92,1.74Z"/><path class="cls-58" d="M120.7,177.29c0,.3-.14.5-.43.52-.53,0-2.9,0-3.21,0a.47.47,0,0,1-.43-.46V158.07a.63.63,0,0,1,.63-.63h2.81a.63.63,0,0,1,.63.63Z"/><path class="cls-87" d="M126.58,153.44a5.92,5.92,0,0,0-5.86-5.93h0a37.1,37.1,0,0,0-5.86.34c-2.41,1-1.08,2.89-1.08,5.72v6.18a.77.77,0,0,0,.76.79l7.66.86a.62.62,0,0,0,.26-.05c.89-.36,3.86-1.64,4-1.76a.71.71,0,0,0,.16-.45Z"/><path class="cls-88" d="M123,154.43a6.69,6.69,0,0,0-6.59-6.76h0a6.69,6.69,0,0,0-6.58,6.76v6.19a.77.77,0,0,0,.76.78H122.2a.77.77,0,0,0,.76-.78Z"/><path class="cls-89" d="M111,160.27v-5.84a5.38,5.38,0,1,1,10.75,0v5.84Z"/><rect class="cls-58" x="112.69" y="153.06" width="7.37" height="1.29" rx="0.22"/><path class="cls-58" d="M124.57,155.48c0-.39,0-.78,0-1.17l3.43-.74,0,1.18,0,.91-.68.3,0-1.05Z"/><rect class="cls-90" x="223.82" y="182.7" width="5.32" height="11.61"/><rect class="cls-91" x="223.82" y="182.7" width="5.32" height="5.94"/><ellipse class="cls-92" cx="226.48" cy="195.29" rx="3.91" ry="4.02"/><ellipse class="cls-93" cx="226.48" cy="195.29" rx="1.11" ry="1.15"/><rect class="cls-90" x="324.13" y="182.7" width="5.32" height="11.61"/><rect class="cls-91" x="324.13" y="182.7" width="5.32" height="5.94"/><ellipse class="cls-92" cx="326.79" cy="195.29" rx="3.91" ry="4.02"/><ellipse class="cls-93" cx="326.79" cy="195.29" rx="1.11" ry="1.15"/><path class="cls-94" d="M336.65,118.25,333.5,176l0,.44-.26,4.88a3.39,3.39,0,0,1-.95,2.18,2.86,2.86,0,0,1-.76.57,3,3,0,0,1-1.49.39H224.64a3,3,0,0,1-1.49-.39,3.22,3.22,0,0,1-.76-.57,3.38,3.38,0,0,1-.94-2.18l-.27-4.88,0-.44L218,118.25a3.28,3.28,0,0,1,3.2-3.52H333.46A3.27,3.27,0,0,1,336.65,118.25Z"/><path class="cls-95" d="M329.59,122.75l-2.83,53.6a.5.5,0,0,1,0,.12,1.93,1.93,0,0,1-1.9,1.74h-95.1a1.93,1.93,0,0,1-1.9-1.74.5.5,0,0,1,0-.12L225,122.75a2,2,0,0,1,1.92-2.08H327.67A2,2,0,0,1,329.59,122.75Z"/><path class="cls-96" d="M226.65,124.76l2.82,53.43a1.94,1.94,0,0,1-1.64-1.84L225,122.75a2,2,0,0,1,1.92-2.08H327.67a2,2,0,0,1,1.92,2,1.1,1.1,0,0,0-.26,0H228.56A2,2,0,0,0,226.65,124.76Z"/><path class="cls-96" d="M326.74,176.47a1.93,1.93,0,0,1-1.9,1.74h-95.1a1.93,1.93,0,0,1-1.9-1.74Z"/><path class="cls-97" d="M335.51,186.38l-116.58-.56a1.19,1.19,0,0,1-1.18-1.21l-.34-4.86a1.86,1.86,0,0,1,1.52-1.56H335.36a1.2,1.2,0,0,1,1.18,1.21v5.21C336.54,185.28,336.16,186.38,335.51,186.38Z"/><path class="cls-98" d="M336.07,178.44c-.05,1.27-1.06,2.22-1.9,3.09a49.72,49.72,0,0,1-5.57,4.82l6.91,0c.65,0,1-1.1,1-1.77V179.4A1.2,1.2,0,0,0,336.07,178.44Z"/><rect class="cls-94" x="217.36" y="178.89" width="118.8" height="7.63" rx="1.19"/><path class="cls-15" d="M238.18,144c0-.06,0-.12,0-.17s0-.1.05-.14l2.16-6.24a.25.25,0,0,1,.07-.12.26.26,0,0,1,.16-.07l.71,0a.22.22,0,0,1,.16,0,.46.46,0,0,1,.07.1l.16.35,2.59,5.94a.11.11,0,0,0,0,0s0,0,0,.06-.06.14-.19.14l-.88,0a.28.28,0,0,1-.15,0,.34.34,0,0,1-.1-.13l-.09-.21-.18-.43c-.06-.14-.13-.29-.18-.44l-2.75.12-.2.61c-.07.19-.12.36-.17.5a.85.85,0,0,1-.47.38.87.87,0,0,1-.36,0l-.2,0a.35.35,0,0,1-.2,0A.25.25,0,0,1,238.18,144Zm2.91-5c-.15.43-.29.87-.43,1.33s-.29.9-.43,1.32l1.9-.07Z"/><path class="cls-15" d="M245.16,138.13l.12,0h.12l.45,0a.22.22,0,0,1,.19.07.4.4,0,0,1,.08.2l.12.55a2.74,2.74,0,0,1,.32-.36,1.91,1.91,0,0,1,.38-.31,1.63,1.63,0,0,1,.46-.22,2,2,0,0,1,.58-.1,2.8,2.8,0,0,1,.77.07,3.3,3.3,0,0,1,.7.28,2.83,2.83,0,0,1,.59.44,3,3,0,0,1,.47.59,2.83,2.83,0,0,1,.31.71,2.9,2.9,0,0,1,.13.79,2.72,2.72,0,0,1-.07.81,3,3,0,0,1-.25.73,3.75,3.75,0,0,1-.42.62,3,3,0,0,1-.56.5,3.57,3.57,0,0,1-.68.33,3.1,3.1,0,0,1-.76.14,2.36,2.36,0,0,1-.54-.05,1.7,1.7,0,0,1-.45-.15,3.34,3.34,0,0,1-.4-.25c-.12-.09-.23-.2-.34-.3l.09,2.22a.29.29,0,0,1-.06.19.23.23,0,0,1-.2.09l-.74,0a.38.38,0,0,1-.19-.06.27.27,0,0,1-.1-.19l-.27-7.06a.25.25,0,0,1,0-.16A.24.24,0,0,1,245.16,138.13Zm4.53,2.69a2,2,0,0,0-.16-.68,1.76,1.76,0,0,0-.37-.56,1.55,1.55,0,0,0-.54-.36,1.44,1.44,0,0,0-.66-.12,1.46,1.46,0,0,0-.65.17,1.9,1.9,0,0,0-.53.4,1.8,1.8,0,0,0-.35.58,1.55,1.55,0,0,0-.12.68v0a1.75,1.75,0,0,0,.16.69,1.63,1.63,0,0,0,.4.56,1.61,1.61,0,0,0,.56.37,1.53,1.53,0,0,0,.67.12,1.43,1.43,0,0,0,.65-.17,1.71,1.71,0,0,0,.51-.41,2.05,2.05,0,0,0,.33-.6A2.28,2.28,0,0,0,249.69,140.82Z"/><path class="cls-15" d="M252,137.85l.12,0h.11l.45,0a.24.24,0,0,1,.2.07.54.54,0,0,1,.08.19l.12.56a2.74,2.74,0,0,1,.32-.36,1.93,1.93,0,0,1,.84-.53,1.7,1.7,0,0,1,.57-.1,2.65,2.65,0,0,1,1.48.35,3.12,3.12,0,0,1,.59.44,2.71,2.71,0,0,1,.47.59,3.17,3.17,0,0,1,.31.7,3,3,0,0,1,.13.8,3.1,3.1,0,0,1-.07.81,3.15,3.15,0,0,1-.25.73,3.75,3.75,0,0,1-.42.62,2.59,2.59,0,0,1-.56.49,2.68,2.68,0,0,1-.68.33,2.43,2.43,0,0,1-.76.14,1.88,1.88,0,0,1-.54,0,1.72,1.72,0,0,1-.45-.16,2,2,0,0,1-.4-.24l-.34-.31.09,2.23a.29.29,0,0,1-.06.19.24.24,0,0,1-.2.09l-.74,0a.35.35,0,0,1-.19-.06.27.27,0,0,1-.1-.19l-.27-7.06a.25.25,0,0,1,0-.16A.24.24,0,0,1,252,137.85Zm4.52,2.69a1.93,1.93,0,0,0-.15-.68,1.82,1.82,0,0,0-.37-.56,1.53,1.53,0,0,0-1.2-.48,1.46,1.46,0,0,0-.65.17,1.61,1.61,0,0,0-.53.4,1.8,1.8,0,0,0-.35.58,1.55,1.55,0,0,0-.12.68v0a1.79,1.79,0,0,0,.16.69,1.87,1.87,0,0,0,.39.56,1.81,1.81,0,0,0,.57.37,1.51,1.51,0,0,0,.67.12,1.57,1.57,0,0,0,.65-.17,1.74,1.74,0,0,0,.51-.42,1.68,1.68,0,0,0,.32-.59A1.8,1.8,0,0,0,256.55,140.54Z"/><path class="cls-15" d="M258.68,136.1a.26.26,0,0,1,.05-.2.23.23,0,0,1,.19-.09l.78,0a.23.23,0,0,1,.17.07.27.27,0,0,1,.08.19l.28,7a.28.28,0,0,1-.07.21.31.31,0,0,1-.2.08l-.74,0a.28.28,0,0,1-.2-.06.27.27,0,0,1-.07-.21Z"/><path class="cls-15" d="M266.08,142.42a3.11,3.11,0,0,1-.83.58,2.82,2.82,0,0,1-2.17.05,3,3,0,0,1-1-.6,3,3,0,0,1-.68-.93,2.84,2.84,0,0,1-.29-1.17,3,3,0,0,1,.07-.79,3.07,3.07,0,0,1,.25-.72,2.73,2.73,0,0,1,1-1.12,2.72,2.72,0,0,1,1.46-.48,3,3,0,0,1,.67.06,2.69,2.69,0,0,1,.64.22,2.82,2.82,0,0,1,.57.35,2.67,2.67,0,0,1,.47.48,2.55,2.55,0,0,1,.42.82,3.57,3.57,0,0,1,.17,1,1.55,1.55,0,0,1,0,.23.2.2,0,0,1-.05.14.22.22,0,0,1-.13.09.74.74,0,0,1-.24,0l-4,.17a1.53,1.53,0,0,0,.24.57,2,2,0,0,0,.4.41,1.38,1.38,0,0,0,.5.25,1.93,1.93,0,0,0,.53.07,2.32,2.32,0,0,0,.38-.06,1.7,1.7,0,0,0,.34-.12,2,2,0,0,0,.29-.17,1.57,1.57,0,0,0,.23-.2h0a.28.28,0,0,1,.1-.09.17.17,0,0,1,.1,0l.09,0a.41.41,0,0,1,.1.09l.22.24.14.17a.33.33,0,0,1,.08.11.22.22,0,0,1,0,.1A.3.3,0,0,1,266.08,142.42Zm-2.13-4a1.46,1.46,0,0,0-.51.12,2.11,2.11,0,0,0-.45.28,1.74,1.74,0,0,0-.34.42,1.48,1.48,0,0,0-.21.5l3.15-.13a1.75,1.75,0,0,0-.23-.5,1.49,1.49,0,0,0-.37-.38,1.4,1.4,0,0,0-.47-.24A1.54,1.54,0,0,0,264,138.38Z"/><path class="cls-99" d="M268.3,147.11c.14.14.13.56-.11.63a3.79,3.79,0,0,1-.58,0c-.14,0-.27.15-.42.12l-.1,0c-.13,0-.26.07-.36,0l-.06,0c-.05,0-.16,0-.18,0a0,0,0,0,0,0,0,.17.17,0,0,1-.13,0,.85.85,0,0,1-.23,0l-.13,0h0a.06.06,0,0,0-.06,0s0,0,.05.06a.43.43,0,0,0-.16,0,.75.75,0,0,1-.15,0c-.05,0-.09,0-.06-.08a0,0,0,0,0,0,0s0,0,0,0h-.07s-.1,0-.1,0v0s0,0-.07,0H265c-.1,0-.1,0-.15-.06a2,2,0,0,0-.21-.12.34.34,0,0,0-.14-.05.54.54,0,0,0-.22.05c-.07,0-.17,0-.2,0s0,.06.07.09-.1.12-.2.1a1.42,1.42,0,0,0-.29-.1c0,.06-.12.08-.21.06s-.25,0-.25,0l-.22-.09-.11.13a2.66,2.66,0,0,0-.89,0,1.55,1.55,0,0,1-.29,0,3,3,0,0,1-.36-.12l0,.09a.71.71,0,0,1-.62,0c0,.08-.18.14-.31.14A1.06,1.06,0,0,1,260,148a.46.46,0,0,1-.37.14l-.13,0c-.35-.09-.86.3-1.16.13,0,0-.05,0,0-.06s.09-.06.16-.06.27,0,.33,0a.31.31,0,0,0,.07-.12c-.16.07-.36-.05-.54,0s-.15.14-.25.2a.57.57,0,0,1-.32,0c0-.05,0-.11-.1-.13a.4.4,0,0,0-.26,0s0,.1,0,.15-.38.31-.44.26.06-.09,0-.14-.21,0-.21,0-.15.19-.3.21a1.77,1.77,0,0,1-.46,0,1.11,1.11,0,0,0-.71.11l-.08.05-.08,0a.39.39,0,0,1-.2-.06c-.14.05-.22.19-.36.19h-.11c-.14,0-.23.13-.34.11l-.07,0c-.06,0-.17,0-.17.06s0,0,0,0-.06,0-.11,0l-.24,0h-.17a0,0,0,0,0-.05.06s0,0,.06.05l-.15,0a.37.37,0,0,1-.15,0s-.09,0-.07-.06l0,0a0,0,0,0,0,0,0h-.07s-.09,0-.09.06v0s0,0-.06,0l-.33.08a.16.16,0,0,1-.17,0,1.55,1.55,0,0,0-.23-.07.34.34,0,0,0-.15,0,.72.72,0,0,0-.19.11c-.06,0-.17.06-.21,0s0,0,.09.07-.06.14-.17.14a1.42,1.42,0,0,0-.29,0s-.1.11-.2.11-.24,0-.23.09l-.23,0-.08.16a2.6,2.6,0,0,0-.86.22,1.19,1.19,0,0,1-.26.11,2.23,2.23,0,0,1-.37,0l0,.08a.73.73,0,0,1-.59.17c0,.09-.13.19-.26.22a.94.94,0,0,1-.37,0,.52.52,0,0,1-.31.25h-.14a1.1,1.1,0,0,0-.37.16.84.84,0,0,1-.59.09c0,.1-.15.19-.27.26l-.09.06a3.1,3.1,0,0,1-.57.3l-.07-.07c.15-.06.3-.21.25-.31s-.3-.05-.36.07,0,.13.05.2a.52.52,0,0,1-.13.3c0,.05-.09.11-.14.09s0-.11-.06-.12-.22,0-.21.06-.08.23-.22.3a1.41,1.41,0,0,1-.44.14,1.11,1.11,0,0,0-.65.31.2.2,0,0,1-.06.07l-.07,0a.4.4,0,0,1-.29,0,.59.59,0,0,1-.15-.17.2.2,0,0,1-.11.11c-.06,0-.11,0-.12,0a.19.19,0,0,1,0-.13.25.25,0,0,0-.09-.23s-.08-.06,0-.11a.15.15,0,0,1,.06-.05l.27-.17c-.07,0,0-.12,0-.19s.2-.08.25,0c0-.12.31-.12.4-.24a.53.53,0,0,0,.06-.1.38.38,0,0,1,.27-.1c.23,0,.29-.09.51-.18a1.61,1.61,0,0,0,.38-.16,1.17,1.17,0,0,0,.21-.3.41.41,0,0,1,.33-.2c.11,0,.08.15,0,.25a.37.37,0,0,0,.32-.13.6.6,0,0,0,.1-.27.17.17,0,0,1,.08-.11c.09-.06.19,0,.29,0l.15-.1c.15-.08.28,0,.44,0s.34-.14.35-.26a.13.13,0,0,1,.18.06.13.13,0,1,0,.21-.13c-.06,0-.14-.13-.06-.21a.45.45,0,0,1,.12-.06l.42-.13c.09,0,.17-.12.25-.15a.39.39,0,0,1,.33,0h0l.11-.11c.59,0,1.28-.44,1.86-.61.31-.08.62-.13.93-.18a.94.94,0,0,1,.29,0l-.06.1a.26.26,0,0,0,.32-.06.17.17,0,0,1-.13-.07.77.77,0,0,1,.42,0c-.12,0,.13-.09.11-.08s.19,0,.32-.08a.59.59,0,0,1,.32-.11H253a.82.82,0,0,0,.3-.1c.11,0,.26,0,.24,0s.1,0,.14-.09a.56.56,0,0,1,.35-.13l.77-.14h.1a.13.13,0,0,1,.08-.06c.09,0,.22,0,.25,0,.07-.1.33,0,.45-.11a.76.76,0,0,0,.09-.09.41.41,0,0,1,.29,0c.23.07.3,0,.53,0a1.46,1.46,0,0,0,.42,0c.13,0,.19-.15.29-.23a.37.37,0,0,1,.37-.08c.1.05,0,.16-.07.23.07.06.24,0,.34,0a.63.63,0,0,0,.18-.22.17.17,0,0,1,.11-.09c.1,0,.18.05.29.05l.16-.05c.17,0,.27.09.42.12a.38.38,0,0,0,.41-.15.11.11,0,0,1,.15.11.14.14,0,0,0,.15.13.12.12,0,0,0,.1-.19c-.05-.07-.11-.17,0-.22a.42.42,0,0,1,.13,0c.14,0,.3,0,.43,0s.2-.07.28-.08.22.07.31.13h0l.14-.08c.55.2,1.33-.1,1.94-.11a7.25,7.25,0,0,1,.93.05.88.88,0,0,1,.29.06l-.09.09a.28.28,0,0,0,.33,0,.2.2,0,0,1-.12-.1.81.81,0,0,1,.42.07c-.11-.05.14-.06.12-.05s.2,0,.33,0a.67.67,0,0,1,.34,0l.12,0a.81.81,0,0,0,.31,0c.11,0,.26,0,.22.09s.11,0,.15,0a.87.87,0,0,1,.69,0s0,0,.08.07.37,0,.51,0h0A1.6,1.6,0,0,1,268.3,147.11Zm-18,2a.58.58,0,0,0-.26,0,.35.35,0,0,0-.16.08c-.09.08,0,.07.14,0A.83.83,0,0,0,250.34,149.08ZM253,149a.17.17,0,0,1-.12,0l0,0a.29.29,0,0,0-.37,0c-.09.07,0,.06.12.07h.12a.08.08,0,0,1,.08.06h0l.12,0S253,149,253,149Zm10-1.91a.66.66,0,0,0-.26-.07.35.35,0,0,0-.17,0c-.11.05,0,.07.13.07A1.08,1.08,0,0,0,263,147.06Zm2.59.51a.21.21,0,0,1-.12,0s0,0,0,0a.31.31,0,0,0-.36-.11c-.1,0,0,.07.11.1l.06,0h.05a.07.07,0,0,1,.06.07h0a.23.23,0,0,0,.12,0S265.66,147.56,265.62,147.57Z"/><path class="cls-15" d="M270.48,161l.07-.44c-.06,0-.09-.31-.1-.49s-.11-.51-.14-.43c-.05-.25,0-.53-.08-.77a2.9,2.9,0,0,0-.38-.66c-.13-.19-.33-.32-.46-.51s-.12-.32-.22-.46a2.56,2.56,0,0,0-.54-.55.29.29,0,0,0-.11-.08l0,0s-.11-.06-.19-.11l-.09-.09s0-.05,0-.05,0,0,0,0,0-.06,0-.14a2.93,2.93,0,0,0-.26-.18,2.4,2.4,0,0,1-.27-.16.16.16,0,0,1,.05.11,6,6,0,0,1-.85-.49c-.19-.09-.39,0-.59-.17l-.09-.08c-.2-.11-.46-.07-.71-.16l-.2-.08a2.59,2.59,0,0,0-.84,0,4.45,4.45,0,0,0-1.15.07.44.44,0,0,0-.27.21l-.06,0a.63.63,0,0,0-.27-.08.31.31,0,0,0,0-.25,1,1,0,0,0-.39-.32l-.15,0a.5.5,0,0,0-.17,0,8.22,8.22,0,0,1-1.38-.35,3.52,3.52,0,0,0-.88-.15c-.32,0-.64.09-.66.18a1.92,1.92,0,0,1-.42,0c-.16,0,.08-.1,0-.14a.47.47,0,0,0-.32.06.93.93,0,0,0-.36.21.84.84,0,0,0-.06.26c-.33.27-.18-.28-.1-.21s-.08-.07-.1-.07a4.2,4.2,0,0,0-1.19.46,1.18,1.18,0,0,0-.19.11c-.25.14-.51.34-.54.47a1.83,1.83,0,0,0-1,.62c-.2.19-.34.45-.53.61a1.71,1.71,0,0,0-.2.18,1.35,1.35,0,0,0-.3.73,2.13,2.13,0,0,0-.39.61c-.11.26-.15.58-.07.65a1.88,1.88,0,0,0-.23,1.21l.09,0a3.46,3.46,0,0,0-.17.67,2.27,2.27,0,0,0,0,.58,5.85,5.85,0,0,0,.27,1.73l.09.16a1.13,1.13,0,0,1,.08.24,4.48,4.48,0,0,0,.76,1.9l.06-.05a1.83,1.83,0,0,1,.53.75,8.14,8.14,0,0,0,.41.77c.13.19.61.74.87.73-.05,0-.07.07-.06.12a.32.32,0,0,0,.1.1l.44.3a.08.08,0,0,1,.05-.12c.33.44.76.49,1.2.74a8.16,8.16,0,0,0,1.35.6,4.2,4.2,0,0,0,1.92.21.86.86,0,0,1,.39,0,1.45,1.45,0,0,1,.26.11,2.49,2.49,0,0,0,1.86,0c.29-.1.58-.08.88-.16a5.53,5.53,0,0,0,1-.38,6.24,6.24,0,0,0,1.69-1.08c.32-.28.62-.6.89-.8.08,0,.15-.08.23-.14a1.37,1.37,0,0,0,.41-.64,2.66,2.66,0,0,0,.51-.5c.16-.22.27-.52.22-.6a2,2,0,0,0,.55-1.08h-.09a3.7,3.7,0,0,0,.36-.59,2.61,2.61,0,0,0,.14-.55c.1-.58.2-1.19.26-1.76ZM254,162.79h0a.16.16,0,0,1-.15-.12c0-.08,0-.27.11-.27S254.19,162.75,254,162.79Zm15.36-.49a3.19,3.19,0,0,1-.52,1.51,1,1,0,0,1,0,.24v0a.87.87,0,0,0-.35.38c-.06.12-.11.3-.18.44a5.79,5.79,0,0,1-.42.59,1.88,1.88,0,0,0-.12.18c-.08.17.05.17.15.16s.16.11,0,.27-.21.12-.25.08-.17,0-.26.1-.21.44-.45.55a4.37,4.37,0,0,0-.64.27,2.11,2.11,0,0,1-.23.19c-.15.08-.3.06-.44.16s-.11.18-.19.26a1.64,1.64,0,0,1-.48.28,5.42,5.42,0,0,1-2,.55,2.53,2.53,0,0,1-.91,0,1,1,0,0,0-.48,0l-.18.05c-.23.05-.63-.11-.8-.05a.55.55,0,0,0-.39-.16.37.37,0,0,0-.16,0l-.16-.05a7.94,7.94,0,0,1-1.27-.44,2,2,0,0,0-.61-.21c-.07,0-.2,0-.25-.08s-.12-.19-.28-.27a2.39,2.39,0,0,1-.46-.29,1.92,1.92,0,0,1-.14-.15,2.69,2.69,0,0,0-.47-.34c-.2-.12-.28-.3-.4-.39s-.26-.29-.19-.12a2.71,2.71,0,0,0-.38-.6.29.29,0,0,0,0,.21.76.76,0,0,1-.31-.47l.16.08a3.9,3.9,0,0,0-.19-.44,10.53,10.53,0,0,1-.57-1.48,12.5,12.5,0,0,1-.47-1.62,3.24,3.24,0,0,1,0-1.59,2,2,0,0,1,0-.24l0,0a.93.93,0,0,0,.22-.45c0-.13,0-.31,0-.46a3.61,3.61,0,0,1,.27-.64c0-.07.06-.14.08-.2s-.09-.15-.18-.12-.19-.08-.07-.27.19-.15.24-.11.16,0,.23-.14c.19-.44.43-.48.78-.76.19-.14.32-.32.52-.44a7.75,7.75,0,0,1,.86-.44,2.86,2.86,0,0,0,.8-.3,2.69,2.69,0,0,1,1.8-.34,6,6,0,0,1,.95.07,5.14,5.14,0,0,1,.78.23c0,.07.19.17.35.2s.28,0,.23-.08l.51.19c.23.1.55,0,.79,0s.49.08.73.09h0a2.77,2.77,0,0,1,.88.06c.05,0,.07.06.12.09a2.4,2.4,0,0,0,.53.22,3.28,3.28,0,0,0,.57.14.3.3,0,0,1,.26.06c-.09,0,.12.17.29.25a1.12,1.12,0,0,1,.61.4,3,3,0,0,0,.47.32c.2.11.29.29.4.38s.25.29.18.12a3.28,3.28,0,0,0,.36.6.24.24,0,0,0,0-.21.64.64,0,0,1,.28.48l-.15-.09s.08.26.1.3a1.15,1.15,0,0,0,.12.25,1,1,0,0,1,.1.21c0,.09-.09.17-.05.25s.1.07.13.12,0,.14,0,.21a.49.49,0,0,0,.07.39.26.26,0,0,1,.05.09c0,.09-.06.17-.1.26a.29.29,0,0,0,.06.28s.1.08.09.14-.09.08-.09.13,0,.07,0,.11,0,.28,0,.37Z"/><path class="cls-15" d="M264.39,152a1.24,1.24,0,0,1,.54-.14c.23,0,.34.44.44.58a.08.08,0,0,1-.07.05c.08.13-.06.28-.07.43s.27.53,0,.64c.39-.14-.15,1.51-.12,1.53l0,0a0,0,0,0,1,0,0,.15.15,0,0,1-.1,0c-.08,0-.31,1.36-.63,1.45.14,0-.11.42-.14.46a.9.9,0,0,1-.84.55c-.21,0-.39.05-.53-.13-.28-.35.2-.71.44-.92a1.65,1.65,0,0,0,.37-.57c.17-.43.23-.9.41-1.32a1.84,1.84,0,0,0,.18-.56c0-.27-.1-.53-.08-.81a.67.67,0,0,1,.21-.48h-.09l-.08-.34.07-.05C264.23,152.52,264.25,152.11,264.39,152Zm-.45,3.91a.13.13,0,0,0-.09,0s0,0,0,.05.06,0,.08,0S264,156,263.94,155.94Zm.76-.33s0,0,0,0h0c-.09,0-.18,0-.14,0s.07,0,.1,0h.06s0,0,.07,0h0s0,0,0,0S264.7,155.6,264.7,155.61Zm-.19-2.42a.11.11,0,0,0-.07.06s0,0,0,0,.07,0,.07,0A.06.06,0,0,0,264.51,153.19Zm.51-.65s0,0,0,0h0c-.09,0-.16.07-.1.1s.07,0,.09,0l0,0h0s0,0,.07,0h0s0,0,0,0a0,0,0,0,0,0,0Z"/><path class="cls-15" d="M265.06,158.41l0,0a.6.6,0,0,1-.11.67,2.77,2.77,0,0,1-3.19.48l-.06,0h-.09a.64.64,0,0,1-.47-.06c-.06,0-.05-.1-.08-.14s-.14-.1-.19-.16-.13-.24-.15-.49c0-.1,0-.19,0-.28a.41.41,0,0,1,.2-.36.84.84,0,0,1,.41-.11.42.42,0,0,1,.22.05c.1.06.14.19.2.3a1.06,1.06,0,0,0,.33.37c.23.18,1.21.39,1.41.08a.2.2,0,0,1,.08.12c0-.26.58-.16.72-.29l.11-.13a.52.52,0,0,1,.46-.17.26.26,0,0,1,.21.11Zm-.31.22a.09.09,0,0,0-.09,0s0,0,0,0,0,.06.06.05A.06.06,0,0,0,264.75,158.63Z"/><path class="cls-15" d="M265.61,151h-.15a.38.38,0,0,1-.36-.36.46.46,0,0,1,.11-.26,2.13,2.13,0,0,1,.75-.61,2.51,2.51,0,0,1,1.55-.36,4.14,4.14,0,0,0,.6.09,4.21,4.21,0,0,0,.5,0,2.82,2.82,0,0,1,1,.15,6.11,6.11,0,0,1,2,1,8.47,8.47,0,0,1,1.12,1.2c.12.14.29.22.4.37a2.12,2.12,0,0,1,.39,1.2,7.67,7.67,0,0,1,.05,1.07,1.45,1.45,0,0,1-.59.87h-.08c-.07,0-.17.07-.16.12v0s-.06.07-.1.09l-.25.06h-.17s-.05,0,0,.06a.15.15,0,0,0,.06,0,.33.33,0,0,0-.14,0l-.15,0c-.05,0-.09,0-.06-.07v0s0,0,0,0h-.06s-.09,0-.09,0v0s0,0-.06,0a3.25,3.25,0,0,1-1.12-.05c-.55-.14-1.09-.27-1.63-.43-.18-.06-.37-.13-.43-.3-.08.09-.23,0-.34,0a6.58,6.58,0,0,1-1.61-1.22,1.15,1.15,0,0,1-.7-.6.42.42,0,0,0,.22.11.15.15,0,0,0,.18-.13c0-.15-.23-.14-.37-.08s-.36.05-.35-.1c.08,0,.1-.12,0-.17a.85.85,0,0,0-.22-.09.51.51,0,0,1-.2-.31l-.26-.78a.65.65,0,0,1,0-.39c0-.13.2-.23.31-.15a.28.28,0,0,1,.07-.25c1.17.73,1.72,2.28,3,2.81.21.09.47.17.55.4a4.8,4.8,0,0,0,1.52.43c.26,0,.59.09.63.35a2.69,2.69,0,0,1,.75-.14,1.1,1.1,0,0,0,.85-.93,1.11,1.11,0,0,0-.27-.85c-.06-.06-.33-.19-.35-.25s.07-.27.14-.14c.08,0,0-.19-.07-.21s-.2,0-.29,0-.21-.26-.25-.43-.22-.27-.36-.34a3.21,3.21,0,0,1-.46-.29,3.82,3.82,0,0,0-.66-.36,2.08,2.08,0,0,0-.6-.18l-1.22-.23a.18.18,0,0,0,0-.21c-.06,0-.16.06-.1.1l-1.3.14a.41.41,0,0,1-.4.18.42.42,0,0,0-.16,0,.26.26,0,0,0-.14.09A.92.92,0,0,1,265.61,151Z"/><path class="cls-100" d="M276.48,162.2a4.14,4.14,0,0,1,.24-.95,2.61,2.61,0,0,1,1.61-1.52.61.61,0,0,0,.23-.11c.18-.17.15-.74.35-1a1.94,1.94,0,0,1,.93-.63,2.61,2.61,0,0,1,2.61,1,3.15,3.15,0,0,1,.63,1.24c5.21,2.4,10,6.3,12.88,8.59a14.39,14.39,0,0,1,1.42.91,4.45,4.45,0,0,1,1.5,2.16c-1.07,2.79-3.31,5.92-6.22,7-4.09,1.47-7.66-2.93-10.11-5.63a31.74,31.74,0,0,1-4.34-5.76C277.26,165.86,276.22,164.06,276.48,162.2Z"/><path class="cls-101" d="M280.1,141.7h1.37a.38.38,0,0,1,.38.38v26a1.06,1.06,0,0,1-1.06,1.06h0a1.06,1.06,0,0,1-1.06-1.06v-26a.38.38,0,0,1,.38-.38Z" transform="translate(589.69 242.46) rotate(166.77)"/><path class="cls-102" d="M284,164.24l.92,3.93a.39.39,0,0,1-.28.46l-1.33.31a.38.38,0,0,1-.46-.29l-.92-3.92Z"/><path class="cls-100" d="M283.5,161.42a2.2,2.2,0,0,0,.53-.35,1.58,1.58,0,0,0,.47-1.06,3.65,3.65,0,0,0-.15-1.18,1.93,1.93,0,0,0-.32-.8c-1-1.29-2.41-.44-2.81.86S282.05,162,283.5,161.42Z"/><path class="cls-103" d="M280.94,160.19a5.35,5.35,0,0,1-.31,1.63,2.23,2.23,0,0,1,1.54,1.72,8.49,8.49,0,0,1-.09,1.26c0,.52.25.87.06,1.41a1.15,1.15,0,0,1-.53.67c-.54.26-1.16-.15-1.61-.55a12.22,12.22,0,0,1-2.25-2.46c-1-1.63-1.27-3.21,0-4.72A1.74,1.74,0,0,1,280.94,160.19Z"/><path class="cls-100" d="M321.87,196.56s8,1.84,15.51-6.26c3.19-3.42,4.59-3.65,7.33-4.28,1.35-.32,4.35-1,4.34-4.47,0-2.65-2.67-3.92-4.51-4-3.31-.14-7.46,1.38-11.41,6.38-5.38,6.82-9,5.28-9,5.28"/><g class="cls-104"><path class="cls-105" d="M332.57,185a.33.33,0,0,0-.47,0c-.45.42-.77.76-1.05,1.05a8.35,8.35,0,0,1-1.14,1.06.41.41,0,0,0-.15.28.47.47,0,0,0,.11.31c1.65,1.79,2.69,2.59,3.53,2.67h.19a1.31,1.31,0,0,0,1-.55C335.67,188.39,334.18,186.56,332.57,185Z"/><path class="cls-105" d="M336.21,180.76a.31.31,0,0,0-.28.06,18.49,18.49,0,0,0-2.41,2.37.42.42,0,0,0,0,.48c1.09,1.89,2.06,2.94,2.88,3.12l.15,0a1.09,1.09,0,0,0,.81-.25c1.14-.91.89-2.49-.87-5.62A.34.34,0,0,0,336.21,180.76Z"/><path class="cls-105" d="M341.09,177.93a.33.33,0,0,0-.29,0l-.37.13a6.47,6.47,0,0,0-2.44,1.32.41.41,0,0,0-.11.36c.29,1.61.84,3.68,1.84,4.35a1.24,1.24,0,0,0,.56.21,1.16,1.16,0,0,0,.45-.05c1.31-.43,1.49-2.47.54-6.06A.44.44,0,0,0,341.09,177.93Z"/><path class="cls-105" d="M346.11,177.89a.38.38,0,0,0-.3-.34l-.3-.05a6.83,6.83,0,0,0-2.7-.08.36.36,0,0,0-.29.41c.2,2.76.49,5.07,1.84,5.2h.15a1.27,1.27,0,0,0,1-.54C346.14,181.69,346.36,180,346.11,177.89Z"/></g><path class="cls-106" d="M311.23,189.33c3.8,10.31.18,19.69-1,21.25-1.82,2.38-7.66,3.1-9.85,1.18-1.21-1.06-.57-2.71-.14-3.32,0,0-1.14-2.13-2.57-5-2.13-4.28-2.36-9.48-1.47-14.59"/><path class="cls-107" d="M311.23,189.33c3.8,10.31.18,19.69-1,21.25-1.82,2.38-7.66,3.1-9.85,1.18-1.21-1.06-.57-2.71-.14-3.32,0,0-.81-1.42-2.24-4.3-2.13-4.28-2.69-10.19-1.8-15.3"/><path class="cls-107" d="M301.29,209.67a1.61,1.61,0,0,0,.17,2.73"/><path class="cls-107" d="M303.74,212.83a1.59,1.59,0,0,1-.25-2.58"/><path class="cls-106" d="M299.19,161.66c6.62-5.1,14.41-3.21,18.78-2.77s7.72,5.06,10.59,12.59c2.57,6.72,3.24,18.35-2.5,24.93-4.58,5.25-11.78,6.36-18,5.75-11.75-1.15-17.93-8-18.73-17.11C288.73,178.63,292.58,166.76,299.19,161.66Z"/><path class="cls-100" d="M296.42,198.13a17.48,17.48,0,0,1-7.12-13.08c-.57-6.42,3.28-18.29,9.89-23.39s14.41-3.21,18.78-2.77,7.72,5.06,10.59,12.59c2.57,6.72,3.24,18.35-2.5,24.93-4.58,5.25-11.78,6.36-18,5.75a29.75,29.75,0,0,1-4.14-.7"/><path class="cls-106" d="M323.3,198.72c-.71,7.09-1.85,11.24-4.3,13.68s-7.58,2.56-9.68.35c-1.16-1.23-.27-2.94.28-3.56,0,0-2.64-4.55-3.15-8.24"/><path class="cls-107" d="M323.3,198.72c-.71,7.09-1.85,11.24-4.3,13.68s-7.58,2.56-9.68.35c-1.16-1.23-.27-2.94.28-3.56,0,0-2.64-4.55-3.15-8.24"/><path class="cls-107" d="M310.59,210.89a1.73,1.73,0,0,0,.54,2.91"/><path class="cls-107" d="M313.53,214.15a1.57,1.57,0,0,1-.21-2.71"/><path class="cls-108" d="M312.27,178a18,18,0,0,1,1.22,11.11,9.2,9.2,0,0,1-10,7.31,11.38,11.38,0,0,1-8.58-6.6c-2.45-5.34-.8-12.12,2.38-16.77,3.05-4.46,7.62-4.45,11.27-.75A18.46,18.46,0,0,1,312.27,178Z"/><path class="cls-106" d="M311.77,185.06a6.13,6.13,0,0,1,3.35-6.09,20.35,20.35,0,0,1,9.71-2.32L323,173.22l1.07-6a4.15,4.15,0,0,1,2.81.3c6.62,4.54,10.66,13.9,6,19.23-3.46,3.92-9.74,3.1-13.78,2.25-1,1-4.28,2.06-5.2.22C312.79,188.91,311.5,186.6,311.77,185.06Z"/><path class="cls-106" d="M311.77,185.06a6.13,6.13,0,0,1,3.35-6.09,50.18,50.18,0,0,1,5.86-2c2.78,2.08,5,11.2,4.09,12.7a56.33,56.33,0,0,1-6-.7c-1,1-4.28,2.06-5.2.22C312.79,188.91,311.5,186.6,311.77,185.06Z"/><path class="cls-107" d="M324,164.37a10.23,10.23,0,0,0,3,3c6.62,4.54,9.53,14.41,5.69,18.94-3.22,3.8-9,3.61-13.06,2.81a1.22,1.22,0,0,0-.95.19c-1.26.91-4,1.57-4.85-.09-1.11-.27-2.4-2.58-2.13-4.12a6.13,6.13,0,0,1,3.35-6.09,20.35,20.35,0,0,1,9.71-2.32"/><path class="cls-100" d="M314.12,187.79a1.67,1.67,0,0,0-.22,1.39"/><path class="cls-100" d="M312.69,184.09s-1,.91-.95,1.44"/><path class="cls-106" d="M315.84,131.35c2.06-1.21,6.73-3.51,9.32-3s5.16,4.63,7.59,17.29c1.93,10-.42,20.12-10.64,24.19-9.15,3.65-23.26,3.49-31.34-2.73-6.57-5.06-4.78-12.2-3.64-15.34a16.89,16.89,0,0,1,.86-11.16,16.61,16.61,0,0,1,4.24-5.38"/><path class="cls-106" d="M289.92,137.1c-.65-2.84-2.54-6.22-1.15-6.92,4.3-2.16,9.62.63,9.86.72a32.66,32.66,0,0,1,11.44-2,24.5,24.5,0,0,1,8.38,1.85s-3.05,4.66-4,5.74C309.86,141.67,299.9,142.14,289.92,137.1Z"/><path class="cls-108" d="M323.24,169.37s-6.71-11.59-20.56-11c-10.94.47-11.63,8.66-11.63,8.66s3.67,4.91,16.39,4.91C321.58,171.94,323.24,169.37,323.24,169.37Z"/><path class="cls-109" d="M302.68,158.37v1.86s.36,2.15,6,2.62"/><path class="cls-109" d="M302.68,160.23a5.18,5.18,0,0,1-4.44,2.46"/><path class="cls-110" d="M302.68,158.37a2.91,2.91,0,0,0,2.37-2c.14-.9-.56-1.13-2.39-1.1s-2.59.28-2.42,1.18A3,3,0,0,0,302.68,158.37Z"/><path class="cls-105" d="M288.59,131.94a29.27,29.27,0,0,1,3.16,3.74l-2.1,1.33Z"/><path class="cls-107" d="M289.92,137.1c-1.15-1.77-2.62-6.41-1.15-6.92,3-1,7.58-.17,9.86.72,2.78-1.32,12-3.38,18.53-.56"/><g class="cls-111"><path class="cls-112" d="M308.45,152.83c.06-2.57,2.05-2.18,4.51-2.1s4.47-.2,4.4,2.37a4.53,4.53,0,0,1-4.57,4.53A4.59,4.59,0,0,1,308.45,152.83Z"/><ellipse class="cls-51" cx="313.81" cy="152.57" rx="2.14" ry="3.24"/></g><g class="cls-113"><path class="cls-112" d="M291.16,152.42c0-2.37,1.86-2,4.09-1.93s4.06-.18,4,2.19a4.13,4.13,0,0,1-4.14,4.16A4.22,4.22,0,0,1,291.16,152.42Z"/><ellipse class="cls-51" cx="296.09" cy="152.29" rx="1.91" ry="3.16"/></g><path class="cls-105" d="M324.48,132.12c1.43,0,3.19,4,3.78,10.31,0,0-4.53-5.11-10.69-5.92C318.89,133.85,323.34,132.13,324.48,132.12Z"/><path class="cls-106" d="M288.77,140.62a21.88,21.88,0,0,1,2.85-4.21,17,17,0,0,1,8.26-5.65c.65,4.39,2.67,7.84,3.32,12.23Z"/><path class="cls-105" d="M312.08,129.49a11.15,11.15,0,0,0-3.19,5c-.52,1.37-.85,4,.1,4s1.24-1.74,3.57-4.61a17.71,17.71,0,0,1,4-3.51Z"/><path class="cls-105" d="M305.27,134.52c1.39-2,3-4.7,4.66-5.62a34.48,34.48,0,0,0-5.32.48,13.16,13.16,0,0,0-3.17,5.26c-.75,2.45-.76,5.21.22,5.18C302.93,139.77,303.5,137,305.27,134.52Z"/><path class="cls-105" d="M295.94,139.08c.83,0,1.06-1.28,2.54-4.17a16.93,16.93,0,0,1,4.3-5c0-.67-3.6.51-4.34,1.26C296.44,133.17,295.06,139.13,295.94,139.08Z"/><path class="cls-107" d="M315.84,131.35c2.06-1.21,6.73-3.51,9.32-3s5.16,4.63,7.59,17.29c1.93,10-.42,20.12-10.64,24.19-9.15,3.65-23.26,3.49-31.34-2.73-6.57-5.06-4.78-12.2-3.64-15.34a16.89,16.89,0,0,1,.86-11.16,16.61,16.61,0,0,1,4.24-5.38"/><path class="cls-114" d="M302.75,172.25l3.72-.69c.86-.16,1.84-.48,2.37.45.29.5.32,1.05-.3,3.4s-.86,2.71-1.35,3c-1.07.68-4.24-2.22-5.23-3a4.22,4.22,0,0,1-2.7-.64c-1.52.72-3.56,1.69-5.07,1.39-1.28-.26-.24-5.71,0-6.06a1.26,1.26,0,0,1,1.63-.48c.54.19,3,1.59,3.76,2a3.91,3.91,0,0,1,1.68,0A3.86,3.86,0,0,1,302.75,172.25Z"/><path class="cls-115" d="M302.41,172.3a3.09,3.09,0,0,1,.11,1.5,2.8,2.8,0,0,1-.71,1.32h0a.25.25,0,0,0,0,.34.23.23,0,0,0,.28,0,2.34,2.34,0,0,0,.68-.65,2.4,2.4,0,0,0,.38-.9,2.35,2.35,0,0,0-.37-1.87.2.2,0,0,0-.3,0,.24.24,0,0,0-.08.25Z"/><path class="cls-115" d="M299.56,171.51a2.39,2.39,0,0,0-.84,1.53,2.71,2.71,0,0,0,0,.9,2.3,2.3,0,0,0,.34.82.22.22,0,0,0,.31.06.24.24,0,0,0,.09-.26h0a3.25,3.25,0,0,1-.13-1.41,3.34,3.34,0,0,1,.51-1.33h0a.21.21,0,0,0-.06-.3A.21.21,0,0,0,299.56,171.51Z"/><path class="cls-116" d="M324.75,188.9a1.33,1.33,0,0,1-1.07,1.54l-13.19,2.39c-1.07.19-3.18-.26-3.45-1.8l-3-16.67c-.32-1.89-.63-3.06,1.93-3.58l11.59-2,1.38-.23a.48.48,0,0,1,.56.38l.07.4a1.64,1.64,0,0,0,.26,1.23,1.2,1.2,0,0,0,1.23.5.5.5,0,0,1,.54.42Z"/><path class="cls-117" d="M319.65,169.83a1.89,1.89,0,0,0,.25.52,2.34,2.34,0,0,0,1.19.71l-14.22,2.59c-.91.1-2.62-1.34-1-1.55l11.59-2,2.18-.39s0,.05,0,0Z"/><path class="cls-118" d="M307.24,173.9l.13.57.12.58.23,1.14.23,1.15.23,1.15c.3,1.54.59,3.07.87,4.61.13.77.28,1.54.41,2.3l.21,1.16.2,1.15c.27,1.54.52,3.08.77,4.63a.23.23,0,0,1-.19.26.23.23,0,0,1-.26-.18c-.32-1.53-.63-3.06-.92-4.6l-.23-1.15-.21-1.15c-.15-.77-.29-1.53-.43-2.3-.28-1.54-.56-3.08-.82-4.62l-.2-1.15-.19-1.16-.19-1.15-.09-.58-.09-.58a.22.22,0,0,1,.18-.25A.21.21,0,0,1,307.24,173.9Z"/><path class="cls-119" d="M306.87,173.65h0c-.91.1-2.62-1.34-1-1.55l11.59-2,2.18-.39-.06-.37a2.09,2.09,0,0,0,.35,1,2.34,2.34,0,0,0,1.19.71Z"/><path class="cls-106" d="M311.77,185.06a6.13,6.13,0,0,1,3.35-6.09c1.12-.62,7.22-2,8.31-2.33,2.79,2.09,2.56,11.52,1.64,13a56.33,56.33,0,0,1-6-.7c-1,1-4.28,2.06-5.2.22C312.79,188.91,311.5,186.6,311.77,185.06Z"/><path class="cls-107" d="M332.51,173.58c2.39,4.53,2.75,9.74.25,12.69-3.22,3.8-9,3.61-13.06,2.81a1.22,1.22,0,0,0-.95.19c-1.26.91-4,1.57-4.85-.09-1.11-.27-2.4-2.58-2.13-4.12a6.13,6.13,0,0,1,3.35-6.09,20.35,20.35,0,0,1,9.71-2.32"/><path class="cls-100" d="M314.12,187.79a1.67,1.67,0,0,0-.22,1.39"/><path class="cls-100" d="M312.69,184.09s-1,.91-.95,1.44"/><path class="cls-107" d="M276.53,163.86c-.27-2.05.25-3.86,1.48-4.62a2.3,2.3,0,0,1,2.12-.28,1.81,1.81,0,0,1,.81,1.23,2,2,0,0,1-.29,1.41,1.93,1.93,0,0,1,1.17.74,2,2,0,0,1-.09,2.27,1.63,1.63,0,0,1,.44,1.5,1.85,1.85,0,0,1-1,1.18"/><path class="cls-8" d="M199.65,188.11a2.76,2.76,0,0,1-.55,2.22c-1.62,1.82-8,1.64-10.22,1.64-2.88,0-12,.12-10.89-4.26,1.06-4.05,7.46-4,10.89-4,2.52,0,6.19-.08,8.51,1A4.51,4.51,0,0,1,199.65,188.11Z"/><path class="cls-8" d="M190.53,202.14c.29,4.25-9.54,4.63-12.42,4.63s-8.58.18-11-1.14c-3.29-1.82-.53-5.71,1.82-6.92,2.68-1.37,6.17-1.36,9.15-1.36,3.15,0,9.64-.25,11.58,2.68A4.55,4.55,0,0,1,190.53,202.14Z"/><path class="cls-8" d="M187.05,217.44c.33,4.69-10.71,5.11-13.94,5.11-3.07,0-9.63.2-12.3-1.26-3.7-2-.59-6.31,2-7.63,3-1.52,6.93-1.51,10.27-1.51,3.53,0,10.82-.27,13,3A4.93,4.93,0,0,1,187.05,217.44Z"/><path class="cls-120" d="M246.46,202.4s-.09,5.88-.06,6.71a1.6,1.6,0,0,0,1.3,1.72c.94.2,2,.11,2.19-1a1.6,1.6,0,0,0-.46-1.36l0-6A1.51,1.51,0,0,0,248,200.9h0A1.52,1.52,0,0,0,246.46,202.4Z"/><path class="cls-120" d="M253.31,201.1s-.09,5.77-.07,6.58a1.58,1.58,0,0,0,1.27,1.68c.92.2,2,.11,2.14-1a1.58,1.58,0,0,0-.45-1.34l0-5.87a1.48,1.48,0,0,0-1.45-1.51h0A1.47,1.47,0,0,0,253.31,201.1Z"/><path class="cls-121" d="M259.16,183.83c1,.26,2.51-.51,3.9-.29a3.25,3.25,0,0,1,2.7,4.17,3.43,3.43,0,0,1-3.76,2.52,8,8,0,0,1-5.08-1.92"/><path class="cls-121" d="M238.44,185.71c-1,.45-2.56,0-3.88.43a3.26,3.26,0,0,0-1.89,4.6,3.42,3.42,0,0,0,4.16,1.78,8,8,0,0,0,4.65-2.82"/><rect class="cls-120" x="255.74" y="191.94" width="9.81" height="2.96" rx="1.48" transform="translate(581.71 145.88) rotate(135)"/><path class="cls-120" d="M250.34,205.22c-8.74.18-12.22-4.93-11.47-10.9.78-6.26,4.92-12,10.62-12s9.81,4.89,11.07,11.07C261.79,199.44,258.61,205.05,250.34,205.22Z"/><path class="cls-121" d="M248.88,188.8c4-.3,11.83-2.89,11.68-5-3.87-.1-5.61-4.92-12.07-4.26-6.66.68-7,5.58-10.79,6.17C237.85,187.82,244.88,189.09,248.88,188.8Z"/><path class="cls-121" d="M256.58,184.16c.9.46,2.07-.33,3.45-.21a3.31,3.31,0,0,1,2.92,4.22c-.3,1.74-1.66,2.86-3.79,2.93a8.07,8.07,0,0,1-5.88-2.22"/><path class="cls-121" d="M242,184.89c-.79.62-2.09.06-3.42.43a3.34,3.34,0,0,0-2.1,4.7c.62,1.65,2.16,2.49,4.27,2.17a8.06,8.06,0,0,0,5.37-3.26"/><path class="cls-121" d="M245.27,186.33c.27,2.85,1.78,4.94,4.52,5.34,3,.44,5.53-.79,5.37-3.09-.21-2.87-2.33-3.09-3-3.94"/><path class="cls-122" d="M253.23,196.88a1.84,1.84,0,0,0,1.66-1.12.82.82,0,0,0,0-.55.46.46,0,0,0-.44-.22l-2.63.09a.43.43,0,0,0-.41.26.78.78,0,0,0,.06.54A1.85,1.85,0,0,0,253.23,196.88Z"/><circle class="cls-38" cx="248.29" cy="194.81" r="1.39"/><circle class="cls-15" cx="248.74" cy="194.33" r="0.38"/><ellipse class="cls-38" cx="256.92" cy="194.41" rx="1.18" ry="1.28" transform="translate(-6.69 9.17) rotate(-2.02)"/><ellipse class="cls-15" cx="257.29" cy="193.97" rx="0.32" ry="0.35" transform="translate(-6.67 9.18) rotate(-2.02)"/><path class="cls-120" d="M242.5,195l-4.33-3.52a1.5,1.5,0,0,0-2.08.31h0a1.48,1.48,0,0,0,.31,2.07l4.5,3.61"/><g class="cls-123"><g class="cls-123"><path class="cls-124" d="M260.78,195.21a1.72,1.72,0,0,0-.92-.34,1.78,1.78,0,0,0-.23,3.55,2,2,0,0,0,.65-.08A9.38,9.38,0,0,0,260.78,195.21Z"/></g></g><circle class="cls-125" cx="245.43" cy="196.86" r="1.78"/><path class="cls-126" d="M391.16,211.51a.38.38,0,0,1,.09.69c-2.24,1.4-12.18,8.1-15.39,10.21-.67.44-2.92-.63-3.56-1.11-.31-.25-17.24-9.16-17.44-9.5.55-.36,11.12-8.67,11.12-8.67Z"/><path class="cls-127" d="M376.27,220.28c1.85-1.1,10.11-6.69,13.4-8.72-.92-1.06-.44-4.75-.24-5-3.68,2.36-9,6.23-12.47,8.93C374,217.77,375.3,220.72,376.27,220.28Z"/><path class="cls-126" d="M347,212.77l26.46,9.8a5.16,5.16,0,0,0,1.26.19,2.7,2.7,0,0,0,1.15-.35,1.86,1.86,0,0,1-1.16-.63c-.43-.54-1.67-3.35.17-5.16-7.3-2.37-21.18-7.63-28.49-10C344.59,209,346.17,212.52,347,212.77Z"/><path class="cls-126" d="M346.38,206.63l28.49,10,15.58-9.56a.42.42,0,0,0-.09-.77l-26.93-8.61a2.53,2.53,0,0,0-1.83.19Z"/><path class="cls-128" d="M350.35,204.11a.4.4,0,0,0-.13.72c2.31,1.55,9.25,6.24,12.56,8.57.69.49,3.12-.52,3.82-1,.34-.24,10.39-5.53,10.62-5.87-.57-.41-8.11-6.8-8.11-6.8Z"/><path class="cls-127" d="M362.4,211.11c-1.53-1-7.09-4.62-10.47-6.88,1-1.06-.51-4.41-.71-4.68,3.79,2.61,5.87,4,9.65,6.67a6,6,0,0,1,2.18,4.18C363,211.1,362.69,211.3,362.4,211.11Z"/><path class="cls-128" d="M386.69,207.37l-21.37,6.31a5.53,5.53,0,0,1-1.33.14,2.76,2.76,0,0,1-1.21-.42,2,2,0,0,0,1.26-.6,2.22,2.22,0,0,0,.41-1.69,5,5,0,0,0-1.54-3.17l23.51-6.42a4.12,4.12,0,0,1,.27,5.85Z"/><path class="cls-128" d="M386.42,201.52l-23.51,6.42L350.12,200a.44.44,0,0,1,.13-.8l21.8-5a2.7,2.7,0,0,1,1.93.28Z"/><path class="cls-129" d="M351.3,196.85a.37.37,0,0,0-.12.65c2,1.39,7.95,5.59,10.79,7.68.59.44,2.69-.46,3.28-.89.3-.21,10-4.41,10.22-4.71-.49-.37-7-6.09-7-6.09Z"/><path class="cls-127" d="M361.65,203.13c-1.32-.9-6.09-4.14-9-6.16.87-1-.44-4-.61-4.2,3.26,2.34,5,3.61,8.3,6a5.45,5.45,0,0,1,1.86,3.75C362.18,203.12,361.89,203.3,361.65,203.13Z"/><path class="cls-129" d="M383.61,200.32l-19.45,5.11a4.61,4.61,0,0,1-1.15.13,2.47,2.47,0,0,1-1-.38,1.68,1.68,0,0,0,1.09-.54,2.1,2.1,0,0,0,.35-1.52,4.5,4.5,0,0,0-1.33-2.83c6.74-1.92,14.56-3.29,21.3-5.21a3.82,3.82,0,0,1,.23,5.24Z"/><path class="cls-129" d="M383.38,195.08l-21.3,5.21-11-7.09a.39.39,0,0,1,.11-.71l19.82-4a2.25,2.25,0,0,1,1.66.26Z"/><path class="cls-130" d="M360.81,193.67A7.61,7.61,0,0,1,360,193a3.51,3.51,0,0,0-3.63-1,3.93,3.93,0,0,0-2.78,2.72,1.6,1.6,0,0,0-1.1.82c-.51,1,.28,1.7,1.14,2.07a2.23,2.23,0,0,0,1.37,0c.77-.4.93-1.3,1.14-1.76.31-.7.54-.91,1.07-1.06.28-.09.28-.08.88.43a11.87,11.87,0,0,0,1.07.84,1.47,1.47,0,1,0,1.65-2.44Z"/><path class="cls-130" d="M361.7,194.15a8.37,8.37,0,0,1-1-.26,3.52,3.52,0,0,0-3.74.52,3.86,3.86,0,0,0-1.48,3.22,1.54,1.54,0,0,0-.4,1.29c.18,1.12,1.22,1.21,2.14,1a1.47,1.47,0,0,0,1.19-1.11,7.38,7.38,0,0,0,.05-.82c0-.77-.13-1.12.4-1.35a13.82,13.82,0,0,1,2.79.13c.8.15,1.08-.12,1.22-.92A1.48,1.48,0,0,0,361.7,194.15Z"/><path class="cls-130" d="M360.64,185.78a15.53,15.53,0,0,1-4.8-2.44c-.45-.34-.86-.87-1.45-1a1.53,1.53,0,0,0-1.67,1.41c-.09.7.72,1.51,1.2,1.93a10.62,10.62,0,0,0,2.12,1.39,7.72,7.72,0,0,0,2.6.81"/><path class="cls-130" d="M362.91,197.14c-7.73-2.23-9.58-8.23-7.25-13.67,2.45-5.69,8.11-9.51,13.49-8s8.14,7.8,7.17,13.93C375.4,195.28,370.64,199.37,362.91,197.14Z"/><path class="cls-130" d="M362.73,197.2c-7.73-2.23-9.59-8.23-7.25-13.66,2.45-5.7,8.11-9.52,13.49-8s8.13,7.8,7.17,13.93C375.22,195.34,370.46,199.43,362.73,197.2Z"/><path class="cls-122" d="M355.75,184.58c.41.29,1.33,1,1.6,1.19a.47.47,0,0,1,.21.45.75.75,0,0,1-.35.41,2.82,2.82,0,0,1-1.92,0A8.21,8.21,0,0,1,355.75,184.58Z"/><circle class="cls-38" cx="360.79" cy="186.79" r="1.39"/><circle class="cls-15" cx="361.36" cy="186.47" r="0.38"/><circle class="cls-15" cx="370.94" cy="188.34" r="0.37"/><path class="cls-131" d="M355.1,173.78c1.54.05,2.87,1.25,4.44.94a12,12,0,0,0,2.7-1.12,10.38,10.38,0,0,1,7.73-1,9.36,9.36,0,0,1,5.33,4c.82,1.25,1.42,2.71,2.62,3.66,1.36,1.08,3.11.8,4.55,1.64a3.25,3.25,0,0,1,1,4.86,3.42,3.42,0,0,1-4.41,1,8.39,8.39,0,0,1-3-2.16,15.11,15.11,0,0,0-1.56-1.91c-2-1.68-4.73-1.3-7.14-2a20.2,20.2,0,0,1-4-1.7,5,5,0,0,0-1.79-.89c-1.29-.08-2.23,1-3.43,1.32a8.33,8.33,0,0,1-3.26.11,3.4,3.4,0,0,1-3.21-3.17A3.25,3.25,0,0,1,355.1,173.78Z"/><path class="cls-131" d="M376.27,180.62a7.09,7.09,0,0,0,1.73,1.84c1.15.84,2.44,1.22,2.78,2.45l0,.1a3.73,3.73,0,0,1-.6,2.76c-.91,1.5-2.58,2-4.58,1.33a5.72,5.72,0,0,1-1.71-.82c-2.3-1.68-2.44-2.63-4.1-6.18"/><path class="cls-131" d="M362,176.17c-.65.48-1.75.59-2.63,1.26-1.06.81-2.81,2.92-.45,5.22a4,4,0,0,0,5,.33,7.5,7.5,0,0,0,2.38-2.13"/><path class="cls-131" d="M366.75,179.79a4.58,4.58,0,0,0-2.39,2.88,4.21,4.21,0,1,0,8.09,2.34,4.63,4.63,0,0,0-.49-3.72"/><circle class="cls-132" cx="361.26" cy="189.42" r="1.74"/><path class="cls-130" d="M364.44,191.35a17,17,0,0,1,.39,2.55,15.14,15.14,0,0,1,0,1.65,3.41,3.41,0,0,0,.05,1.74,1.51,1.51,0,0,0,2.11.56c.63-.33.83-1.45.89-2.08a10.79,10.79,0,0,0-.06-2.54,8,8,0,0,0-.83-2.6"/></g></g></g></svg>