<svg width="1440" height="960" viewBox="0 0 1440 960" fill="none" xmlns="http://www.w3.org/2000/svg">
<path d="M1757 0H-317V960H1757V0Z" fill="#4EA4FF"/>
<path d="M1757.48 61.3518C1601.23 70.4001 1288.96 87.1725 958.586 95.5587C447.469 108.579 -116.172 95.1173 -317 89.6001V151.835C-107.124 156.248 432.241 166.4 921.29 169.71C1272.85 172.138 1597.92 168.828 1757.48 166.621V61.3518Z" fill="#59B1FF"/>
<path d="M1757.48 387.09C1670.09 378.262 1506.78 361.931 1430.2 356.634C1322.94 349.352 530.448 300.8 458.724 298.372C395.386 296.165 -109.552 276.966 -317 297.931V472.276C-247.262 468.083 -112.421 460.138 59.7172 448.662C315.717 431.669 896.352 412.248 1171.33 424.386C1171.33 424.386 1585.79 427.697 1757.26 432.772V387.09H1757.48Z" fill="#59B1FF"/>
<path d="M1757.48 561.214C1582.92 571.145 1215.03 588.579 826.172 587.476C508.379 586.593 -24.5862 558.786 -317 544.662V623.669C-28.7793 627.2 414.366 628.966 535.303 628.745C820.876 628.083 1092.99 622.345 1381.65 622.786C1543.86 623.007 1674.5 621.462 1757.48 619.917V561.214Z" fill="#59B1FF"/>
<path d="M-317 880.773L1757.48 912.11V682.152L-317 736.442V880.773Z" fill="#59B1FF"/>
</svg>
