<svg width="168" height="153" viewBox="0 0 168 153" fill="none" xmlns="http://www.w3.org/2000/svg">
<g clip-path="url(#clip0_461_10893)">
<path d="M115.53 3.88904C115.53 3.88904 103.032 7.68321 100.266 18.7812C97.4038 29.974 105.131 30.8277 103.891 35.4755C102.651 40.2182 98.644 47.0477 106.753 51.8853C114.862 56.7229 102.174 58.7148 106.562 67.9157C110.951 77.0217 131.939 77.496 128.504 55.4898C125.07 33.3887 115.53 3.88904 115.53 3.88904Z" fill="#003DC3"/>
<path d="M125.356 62.3193C125.356 62.3193 130.317 78.16 128.504 98.3639C126.787 118.663 128.409 132.606 126.596 142.187C124.688 151.767 96.0681 144.558 85.1924 141.428C76.7018 139.056 78.2282 130.33 84.2384 110.126C90.3441 89.8271 118.296 45.3404 125.356 62.3193Z" fill="#FFC200"/>
<path d="M46.3646 59.0943C46.3646 59.0943 37.4923 62.2245 27.9523 62.4142C18.4123 62.6039 1.1448 71.2357 0.0953949 106.901C-0.954009 142.566 6.39182 151.957 21.3697 152.81C36.3475 153.664 47.891 148.257 52.661 145.696C59.339 142.187 65.3492 140.479 84.3339 141.428C103.319 142.376 92.8245 89.5426 92.3475 76.9269C91.9659 64.3113 81.5673 58.6201 73.0767 59.0943C64.7768 59.5686 46.3646 59.0943 46.3646 59.0943Z" fill="#003DC3"/>
<path d="M117.629 47.9964C117.629 47.9964 124.688 48.85 118.487 61.276H135.564L127.932 31.3969L117.629 47.9964Z" fill="#FFA072"/>
<path d="M124.593 43.5382C120.872 47.8067 115.53 50.842 110.474 44.1073C105.704 37.6572 105.608 32.7248 104.75 28.9306C103.986 25.1365 104.082 12.8054 110.187 10.7186C117.629 8.15756 128.79 16.8842 130.317 26.4644C131.939 36.0447 129.363 38.0367 124.593 43.5382Z" fill="#FFA072"/>
<path d="M119.346 30.7329C119.25 29.7843 119.823 28.9306 120.586 28.8358C121.445 28.7409 122.112 29.4049 122.303 30.3535C122.399 31.302 121.826 32.1557 121.063 32.2505C120.204 32.3454 119.441 31.6814 119.346 30.7329Z" fill="#292E4E"/>
<path d="M107.516 31.4917C107.421 30.5431 107.993 29.6894 108.756 29.5946C109.615 29.4997 110.283 30.1637 110.474 31.1123C110.569 32.0608 109.997 32.9145 109.233 33.0093C108.375 33.1042 107.612 32.4402 107.516 31.4917Z" fill="#292E4E"/>
<path d="M122.685 26.3696C122.685 25.1364 118.01 24.3776 117.724 25.2313C117.342 26.6541 122.685 27.6975 122.685 26.3696Z" fill="#813900"/>
<path d="M110.855 25.9901C110.569 24.757 105.799 25.2313 105.799 26.1798C105.704 27.6026 111.237 27.2232 110.855 25.9901Z" fill="#813900"/>
<path d="M114.862 41.3566C114.194 41.3566 113.431 41.2617 112.668 40.8823C112.286 40.6926 112.095 40.3132 112.286 39.9337C112.477 39.5543 112.859 39.3646 113.24 39.5543C116.007 40.6926 117.915 38.6058 117.915 38.5109C118.201 38.2264 118.583 38.1315 118.964 38.4161C119.25 38.7006 119.346 39.0801 119.06 39.3646C118.392 40.2183 116.865 41.3566 114.862 41.3566Z" fill="#FF7A31"/>
<path d="M115.148 37.6573C114.48 37.6573 113.622 37.2778 113.049 36.7087C112.191 35.855 112 34.7168 112.286 33.5785C112.763 31.966 112.095 28.8358 111.809 27.7924C111.714 27.413 111.905 27.0336 112.286 26.9387C112.668 26.8439 113.049 27.0336 113.145 27.413C113.145 27.6027 114.29 31.6814 113.622 33.9579C113.336 34.8116 113.717 35.3808 114.003 35.7602C114.385 36.2344 114.957 36.3293 115.244 36.3293C115.625 36.2344 116.007 36.4242 116.102 36.8036C116.198 37.183 116.007 37.5624 115.625 37.6573C115.53 37.6573 115.339 37.6573 115.148 37.6573Z" fill="#FF7A31"/>
<path d="M128.504 27.4129C128.504 27.4129 129.649 23.8085 133.56 24.9467C138.331 26.3695 135.755 36.6138 129.458 35.855L128.504 27.4129Z" fill="#FBD3AE"/>
<path d="M133.847 30.8277C133.37 30.8277 133.083 30.4483 133.179 30.0688C133.274 29.31 133.179 28.3615 132.702 27.982C132.129 27.6026 131.271 27.7923 130.889 27.982C130.508 28.0769 130.126 27.982 129.935 27.6026C129.744 27.2232 129.935 26.8438 130.317 26.6541C130.508 26.5592 132.225 25.9901 133.465 26.8438C134.324 27.5078 134.705 28.5512 134.514 30.1637C134.514 30.5431 134.228 30.8277 133.847 30.8277Z" fill="#F7BC94"/>
<path d="M79.0868 16.8842C79.0868 16.8842 83.9522 25.7056 75.557 32.3454C67.2572 38.9852 72.218 17.9276 72.218 17.9276L79.0868 16.8842Z" fill="#A22A2B"/>
<path d="M72.4089 28.8358C72.4089 28.8358 75.9387 23.4291 80.0409 26.3696C84.0477 29.31 75.9387 41.9257 70.8825 39.08C70.7871 39.1749 71.4549 35.0013 72.4089 28.8358Z" fill="#FF7600"/>
<path d="M46.2692 40.408C46.2692 40.408 46.8416 51.9802 42.4531 59.5685C40.5451 62.8884 42.5485 67.062 46.3646 67.8209C49.9898 68.5797 54.7598 68.7694 60.3884 67.3466C63.2504 66.5877 64.9676 63.837 64.586 60.9913C64.109 57.8612 64.0136 53.403 65.8262 48.5654L46.2692 40.408Z" fill="#FF5700"/>
<path d="M62.0103 14.5127C62.0103 14.5127 74.5077 10.6237 75.5571 25.9901C76.4157 37.088 67.6389 54.1618 59.816 54.4464C53.615 54.6361 47.891 51.6007 46.2692 41.1668C44.7428 30.6379 44.1704 10.8134 62.0103 14.5127Z" fill="#FF7600"/>
<path d="M46.0783 27.6026C46.0783 27.6026 43.5025 21.6268 39.0187 23.9033C34.5349 26.1798 40.3543 39.9337 45.8875 38.0366C45.8875 38.0366 46.0783 33.7682 46.0783 27.6026Z" fill="#FF7600"/>
<path d="M67.7343 32.9145C67.8297 31.966 68.5929 31.302 69.3561 31.3968C70.1193 31.4917 70.6917 32.3454 70.5963 33.1991C70.5009 34.1476 69.7377 34.8116 68.9745 34.7167C68.2113 34.7167 67.6389 33.863 67.7343 32.9145Z" fill="#292E4E"/>
<path d="M53.9012 31.6813C53.9966 30.7328 54.7598 30.0688 55.523 30.1637C56.2862 30.2585 56.8586 31.1122 56.7632 31.9659C56.6678 32.9145 55.9046 33.5784 55.1414 33.4836C54.2828 33.3887 53.8058 32.535 53.9012 31.6813Z" fill="#292E4E"/>
<path d="M61.7241 43.0639C60.3884 43.0639 58.862 42.1153 58.385 40.7874C58.2896 40.4079 58.4804 40.0285 58.7666 39.8388C59.1482 39.744 59.5298 39.8388 59.7206 40.2182C60.0068 41.0719 61.3425 41.7359 62.0103 41.5462C62.2011 41.5462 62.5827 41.3565 62.4873 40.4079C62.0103 37.2777 62.7735 32.6299 62.7735 32.4402C62.8689 32.0608 63.2505 31.7762 63.6321 31.871C64.0137 31.9659 64.2999 32.2505 64.2045 32.7247C64.2045 32.7247 63.4413 37.3726 63.9183 40.3131C64.2045 42.3999 62.8689 42.969 62.3919 43.0639C62.2011 43.0639 62.0103 43.0639 61.7241 43.0639Z" fill="#FF5700"/>
<path d="M60.4838 46.858C58.7666 46.858 56.7632 46.0992 55.4276 43.7278C55.2368 43.3484 55.3322 42.969 55.7138 42.7793C56.0954 42.5896 56.477 42.6845 56.6678 43.0639C58.862 46.9529 62.7734 44.961 62.9642 44.8661C63.3458 44.6764 63.7274 44.8661 63.9182 45.1507C64.109 45.5301 63.9182 45.9095 63.632 46.0992C62.8688 46.4786 61.724 46.858 60.4838 46.858Z" fill="#FF5700"/>
<path d="M73.0766 29.0255C73.172 27.6027 67.1618 26.085 66.7802 27.0336C66.2078 28.6461 72.9812 30.5432 73.0766 29.0255Z" fill="#A22A2B"/>
<path d="M60.1022 26.3696C59.6252 25.0416 52.5656 25.7056 52.5656 26.8439C52.5656 28.4564 60.6746 27.8873 60.1022 26.3696Z" fill="#A22A2B"/>
<path d="M44.1704 27.1284C44.1704 27.1284 38.7325 20.6783 41.1176 11.0031C43.2164 2.65597 49.8944 5.31189 53.138 4.26849C56.3816 3.22509 61.724 -2.94044 68.3067 1.51772C74.9847 6.07072 77.2743 -1.89704 82.3305 2.84568C87.3867 7.68325 87.4821 19.2555 72.9813 19.9195C59.816 20.5834 51.3254 15.7459 51.3254 15.7459C51.3254 15.7459 50.6576 31.6814 44.1704 27.1284Z" fill="#A22A2B"/>
<path d="M118.487 61.181H140.238C140.238 61.181 141.956 122.267 133.942 136.495C125.928 150.723 104.845 151.577 100.934 145.317C97.0221 139.056 97.5945 96.6565 118.487 61.181Z" fill="#00A366"/>
<path d="M134.037 59.0943C134.037 59.0943 125.642 73.4173 122.685 93.5264C119.823 113.636 120.491 132.512 119.918 142.282C119.537 148.447 119.441 147.783 128.123 146.929C136.899 145.981 167.905 136.116 167.905 114.963C168.095 82.1439 144.818 44.2022 134.037 59.0943Z" fill="#FFC200"/>
<path d="M108.375 11.8569C108.375 11.8569 109.043 18.7812 119.346 21.0577C129.649 23.3342 129.267 27.8872 126.31 36.9932C123.257 46.3838 132.797 46.289 130.698 50.842C126.596 60.0428 128.504 69.9077 147.584 67.9157C158.365 66.7775 166.283 53.1185 151.877 45.5301C145.295 42.1154 153.595 34.7167 146.535 29.8792C139.38 24.9467 144.15 10.6237 132.225 5.1222C124.593 1.61259 107.898 2.08686 108.375 11.8569Z" fill="#003DC3"/>
<path d="M45.7922 139.151C45.6014 139.151 45.4106 139.056 45.3152 138.962C41.5946 135.167 35.8706 132.891 27.9523 131.848C26.2351 131.658 22.6099 131.184 21.6559 128.433C21.3697 127.579 21.2743 126.725 21.4651 125.967C23.4685 116.576 25.9489 104.814 25.1857 93.6213C25.1857 93.2418 25.4719 92.8624 25.8535 92.8624C26.2351 92.8624 26.6167 93.147 26.6167 93.5264C27.3799 104.909 24.8995 116.766 22.8961 126.251C22.8007 126.915 22.8961 127.579 23.0869 127.959C23.6593 129.666 25.9489 130.14 28.2385 130.425C36.443 131.468 42.4532 133.934 46.3646 137.918C46.6508 138.203 46.6508 138.677 46.3646 138.962C46.1738 139.056 45.983 139.151 45.7922 139.151Z" fill="#0837AF"/>
<path d="M57.3356 139.151C57.5264 139.151 57.7172 139.056 57.8126 138.962C61.5333 135.167 67.2573 132.891 75.1755 131.848C76.8927 131.658 80.5179 131.184 81.4719 128.433C81.7581 127.579 81.8535 126.725 81.6627 125.967C79.6593 116.576 77.1789 104.814 77.9421 93.6213C77.9421 93.2418 77.6559 92.8624 77.2743 92.8624C76.8927 92.8624 76.5111 93.147 76.5111 93.5264C75.7479 104.909 78.2283 116.766 80.2317 126.251C80.3271 126.915 80.2317 127.579 80.0409 127.959C79.4685 129.666 77.1789 130.14 74.8893 130.425C66.6849 131.468 60.6746 133.934 56.7632 137.918C56.477 138.203 56.477 138.677 56.7632 138.962C56.954 139.056 57.1448 139.151 57.3356 139.151Z" fill="#0837AF"/>
<path d="M58.9574 72.4688C58.6712 72.4688 58.385 72.2791 58.2896 71.9945C58.0988 71.6151 58.2896 71.2357 58.6712 71.046C61.0562 70.0026 63.2504 68.7694 65.2538 67.1569C65.54 66.8724 66.017 66.9672 66.3032 67.2518C66.5894 67.5363 66.494 68.0106 66.2078 68.2003C64.109 69.8128 61.8194 71.2357 59.339 72.2791C59.1482 72.4688 59.0528 72.4688 58.9574 72.4688Z" fill="#0837AF"/>
<path d="M128.027 146.835C127.932 146.835 127.836 146.835 127.646 146.74C127.264 146.55 127.169 146.076 127.359 145.791C129.267 142.376 130.603 141.238 133.37 138.582C135.945 136.116 136.995 136.021 138.807 132.986C141.669 128.148 142.337 122.362 142.528 117.335C142.623 114.584 142.623 111.738 142.623 109.083C142.623 99.7868 142.623 90.2065 146.535 81.6696C146.726 81.2902 147.107 81.1953 147.489 81.2902C147.871 81.4799 147.966 81.8593 147.871 82.2387C144.054 90.4911 144.054 99.8816 144.054 108.988C144.054 111.738 144.054 114.584 143.959 117.335C143.768 122.552 143.1 128.528 140.048 133.65C138.14 136.78 136.995 137.065 134.324 139.531C131.652 142.092 130.412 143.135 128.6 146.36C128.504 146.74 128.218 146.835 128.027 146.835Z" fill="#FFA800"/>
</g>
<defs>
<clipPath id="clip0_461_10893">
<rect width="168" height="153" fill="white"/>
</clipPath>
</defs>
</svg>
