<svg width="151" height="123" viewBox="0 0 151 123" fill="none" xmlns="http://www.w3.org/2000/svg">
<path d="M20.1333 58.7597C20.1333 58.7597 36.8512 54.2674 54.6476 56.1542C69.2982 57.6816 64.6244 73.4946 64.894 92.6319C65.1637 111.769 71.1857 116.082 62.9167 120.305C54.6476 124.527 19.3244 123.09 15.2798 114.914C11.325 106.648 20.1333 58.7597 20.1333 58.7597Z" fill="#AEAFFF"/>
<path d="M23.369 58.4003C15.5494 58.0409 8.26903 65.8576 5.1232 76.9087C1.97736 88.0497 -8.44883 118.777 14.3809 122.012C37.3006 125.246 57.6137 103.953 54.9172 101.437C52.1309 98.9211 52.5803 94.878 47.1875 96.3156C41.7047 97.7531 22.3803 106.828 22.3803 106.828C22.3803 106.828 39.3678 59.1191 23.369 58.4003Z" fill="#AEAFFF"/>
<path d="M54.6476 56.1541C62.4672 55.7947 69.7476 63.6114 72.8934 74.6625C76.0392 85.8035 85.8363 116.89 62.9166 120.215C39.997 123.449 20.4029 101.706 23.0993 99.1906C25.8857 96.6749 25.4362 92.6318 30.8291 94.0694C36.3118 95.5069 55.6362 104.581 55.6362 104.581C55.6362 104.581 38.6487 56.8729 54.6476 56.1541Z" fill="#AEAFFF"/>
<path d="M34.7839 47.4391C34.7839 47.4391 34.9636 56.873 32.2672 59.6582C32.2672 59.6582 42.0642 66.3069 50.8726 58.7598C50.8726 58.7598 48.7154 52.8299 50.4232 47.5289H34.7839V47.4391Z" fill="#FFA072"/>
<path d="M56.0857 29.0205C56.0857 29.0205 59.1416 25.5165 63.2762 29.0205C67.4107 32.5245 63.2762 44.3842 54.9172 40.5208L56.0857 29.0205Z" fill="#FFA072"/>
<path d="M63.4559 20.575C63.4559 20.575 63.9952 29.919 59.3214 30.6378C54.6476 31.3565 56.9845 21.2937 56.9845 21.2937L63.4559 20.575Z" fill="#003DC3"/>
<path d="M42.963 15.9029C42.963 15.9029 61.9279 13.3872 58.9618 31.2667C55.9958 49.0563 50.1535 53.8182 44.3112 53.9081C38.469 53.9979 29.2112 50.4939 27.9529 33.9621C26.8743 17.1608 42.963 15.9029 42.963 15.9029Z" fill="#FFA072"/>
<path d="M28.8518 29.0205C28.8518 29.0205 25.7958 25.5165 21.6613 29.0205C17.5268 32.5245 21.6613 44.3842 30.0202 40.5208L28.8518 29.0205Z" fill="#FFA072"/>
<path d="M28.0429 30.0987C28.0429 30.0987 22.4702 25.786 22.3804 18.6881C22.2905 11.5903 27.2339 7.09792 32.1774 7.8167C36.4018 8.44562 40.6262 9.43394 44.3113 3.59391C47.9964 -2.24612 54.7375 -0.179652 56.8048 4.40252C58.872 8.9847 64.175 0.539121 70.0173 5.03145C75.8595 9.52378 68.1298 23.5399 61.0292 24.1688C53.9286 24.7977 48.9851 17.9694 44.7607 18.3287C40.5363 18.6881 39.997 24.0789 32.8964 22.4617C32.8964 22.4617 33.7952 35.2199 28.0429 30.0987Z" fill="#003DC3"/>
<path d="M43.9517 42.1381C43.6821 42.1381 43.4125 42.1381 43.2327 42.0483C42.7833 41.9584 42.5136 41.5092 42.6035 41.06C42.6934 40.6108 43.1428 40.3412 43.5922 40.4311C44.2214 40.6108 44.5809 40.3412 44.8505 40.1615C45.2101 39.8021 45.0303 38.9935 44.9404 38.5443C44.6708 37.1067 44.7607 32.9738 44.6708 32.7941C44.6708 32.3449 44.9404 31.9855 45.3898 31.8956C45.8392 31.8956 46.1988 32.1652 46.2886 32.6144C46.2886 32.6144 46.6482 37.1067 46.9178 38.4544C47.0976 39.4427 46.738 40.6108 45.9291 41.3295C45.3898 41.8686 44.7607 42.1381 43.9517 42.1381Z" fill="#FF7A31"/>
<path d="M50.2434 33.3332C50.3333 32.255 51.2321 31.5362 52.1309 31.6261C53.0297 31.7159 53.6589 32.7043 53.569 33.7824C53.4791 34.8606 52.5803 35.5793 51.6815 35.4895C50.7827 35.3997 50.1535 34.4113 50.2434 33.3332Z" fill="#292E4E"/>
<path d="M36.7613 33.6926C36.6714 32.6144 37.3904 31.7159 38.2892 31.6261C39.188 31.5362 39.997 32.4347 40.0869 33.423C40.1767 34.5012 39.4577 35.3996 38.5589 35.4895C37.6601 35.5793 36.8511 34.7707 36.7613 33.6926Z" fill="#292E4E"/>
<path d="M44.3113 46.0015C41.8845 46.0015 39.997 44.8335 39.9071 44.7437C39.5476 44.4741 39.4577 44.0249 39.6375 43.5757C39.9071 43.2163 40.3565 43.1264 40.8059 43.3061C40.9857 43.396 44.2214 45.5523 47.4571 43.3061C47.8167 43.0366 48.3559 43.1264 48.6256 43.4858C48.8952 43.8452 48.8053 44.3843 48.4458 44.6538C46.9178 45.6421 45.5696 46.0015 44.3113 46.0015Z" fill="#FF7A31"/>
<path d="M27.4137 56.244C27.7733 56.1542 28.1328 56.244 28.4024 56.5136C30.2 58.4003 36.4018 66.5764 33.1661 85.534C29.3012 107.457 15.8191 118.508 15.8191 118.508L16.8977 108.984C16.8977 108.984 31.728 77.5377 20.4929 59.2988C20.0435 58.6699 20.403 57.7714 21.2119 57.5917L27.4137 56.244Z" fill="#003DC3"/>
<path d="M14.3809 120.215C14.3809 120.215 29.4809 128.481 30.8291 94.0695C30.8291 94.0695 25.2565 86.9716 20.7624 91.4639C16.1785 95.8664 -1.16852 116.172 14.3809 120.215Z" fill="#AEAFFF"/>
<path d="M53.2994 54.6268C52.4905 54.537 51.7714 54.9862 51.5917 55.7948C50.603 58.9395 48.4458 68.1937 50.8726 83.4676C54.4679 105.39 71.4554 115.094 71.4554 115.094L69.2083 105.839C69.2083 105.66 69.1185 105.57 69.0286 105.39C67.5905 103.054 54.378 80.5925 59.9506 57.1425C60.2202 56.1542 59.5012 55.1659 58.5125 55.076L53.2994 54.6268Z" fill="#003DC3"/>
<path d="M23.4589 95.0577C20.6726 93.8897 19.9536 90.206 21.8411 87.87C24.0881 84.8152 27.5036 80.6823 28.7619 80.8619C30.7393 81.1315 26.2452 86.4324 26.2452 86.4324C26.2452 86.4324 29.3012 86.702 30.7393 83.0183C31.6381 80.6823 35.6827 76.8189 36.3119 84.0066C36.9411 91.1045 31.0988 95.3273 27.2339 95.5968C25.706 95.7765 24.4476 95.5069 23.4589 95.0577Z" fill="#FFA072"/>
<path d="M68.3095 118.418C68.3095 118.418 54.8273 123.09 53.4791 88.6786C53.4791 88.6786 59.0517 81.5807 63.5458 86.073C68.1297 90.4755 83.8589 114.375 68.3095 118.418Z" fill="#AEAFFF"/>
<path d="M60.0405 93.9796C62.4673 92.6319 62.8268 89.2178 60.9393 87.1513C58.6024 84.5457 55.0971 80.9519 53.9286 81.2214C52.131 81.6706 56.7149 86.163 56.7149 86.163C56.7149 86.163 53.9286 86.7021 52.2209 83.3777C51.1423 81.3113 47.0977 78.0768 47.0977 84.7254C47.1875 91.3741 52.9399 94.7882 56.4453 94.7882C57.9732 94.7882 59.1417 94.5187 60.0405 93.9796Z" fill="#FFA072"/>
<path d="M20.0434 120.664C19.8636 120.664 19.6839 120.574 19.594 120.484C19.2345 120.215 19.1446 119.676 19.4142 119.316C24.4476 112.129 27.9529 103.863 29.7505 95.3273C29.8404 94.8781 30.2898 94.6085 30.7392 94.6984C31.1886 94.7882 31.4583 95.2374 31.3684 95.6867C29.5708 104.402 25.8857 112.937 20.7624 120.305C20.4928 120.574 20.313 120.664 20.0434 120.664Z" fill="#979CFF"/>
<path d="M62.9166 117.789C62.647 117.789 62.4672 117.699 62.2875 117.519C58.3327 112.488 55.6363 106.558 54.3779 100.359C54.2881 99.9094 54.5577 99.4602 55.0071 99.3704C55.4565 99.2805 55.9059 99.5501 55.9958 99.9993C57.1642 106.019 59.7708 111.679 63.5458 116.531C63.8154 116.89 63.7256 117.43 63.366 117.699C63.1863 117.699 63.0065 117.789 62.9166 117.789Z" fill="#979CFF"/>
<path d="M71.9047 102.605C71.5452 102.605 71.1857 102.335 71.0958 101.976C70.0172 97.214 67.3208 92.8115 63.7256 89.5771C63.366 89.3075 63.366 88.7684 63.6357 88.4091C63.9053 88.0497 64.4446 88.0497 64.8041 88.3192C68.669 91.8232 71.4553 96.4952 72.7137 101.527C72.8035 101.976 72.5339 102.425 72.0845 102.515C71.9946 102.605 71.9946 102.605 71.9047 102.605Z" fill="#979CFF"/>
<path d="M7.99936 110.781C7.90948 110.781 7.8196 110.781 7.72972 110.691C7.28031 110.511 7.10055 110.062 7.28031 109.613C9.61722 103.503 14.6505 94.6086 18.6053 89.3974C18.875 89.0381 19.4142 88.9482 19.7738 89.2178C20.1333 89.4873 20.2232 90.0264 19.9535 90.3858C16.1785 95.4172 11.1452 104.312 8.89817 110.152C8.71841 110.601 8.35888 110.781 7.99936 110.781Z" fill="#979CFF"/>
<path d="M112.081 63.6114C112.081 63.6114 122.777 55.3455 132.395 62.084C142.012 68.9123 163.583 104.042 141.113 114.105C141.113 114.105 130.327 122.82 97.0714 122.82C96.9815 122.82 70.1071 123.719 68.4892 105.749C67.3208 92.0029 82.3309 60.3769 95.2738 62.084C108.127 63.8809 108.037 65.7677 112.081 63.6114Z" fill="#00A366"/>
<path d="M106.059 31.2666C106.059 31.2666 90.2404 35.9386 91.4089 50.4938C92.5773 65.1388 106.868 67.8342 109.834 66.8459C112.801 65.8575 119.542 62.7129 119.542 43.8451C119.542 32.5245 106.059 31.2666 106.059 31.2666Z" fill="#FF7600"/>
<path d="M105.88 57.5917C107.138 57.6816 108.127 57.0526 108.576 56.6034C108.936 56.244 108.936 55.7948 108.576 55.4354C108.217 55.1659 107.767 55.076 107.408 55.4354C107.318 55.5252 106.149 56.6034 104.532 55.4354C104.172 55.1659 103.633 55.2557 103.363 55.6151C103.093 55.9745 103.183 56.5136 103.543 56.7831C104.442 57.3222 105.161 57.5917 105.88 57.5917Z" fill="#FF5700"/>
<path d="M105.61 53.4588C105.79 53.4588 105.97 53.4588 106.149 53.4588C106.599 53.369 106.958 53.0096 106.868 52.5604C106.868 52.1111 106.509 51.7517 105.97 51.8416C105.61 51.8416 105.34 51.8416 105.251 51.7517C105.161 51.572 105.161 51.2127 105.43 50.7634C106.059 49.5056 105.79 47.9782 105.7 47.7985C105.61 47.3493 105.161 47.0797 104.711 47.1696C104.262 47.2594 103.992 47.7086 104.082 48.1579C104.172 48.4274 104.262 49.3259 103.902 49.9548C103.453 50.8533 103.363 51.9314 103.812 52.5604C104.172 52.9197 104.621 53.369 105.61 53.4588Z" fill="#FF5700"/>
<path d="M112.531 46.8101C112.351 45.8218 111.452 45.1031 110.554 45.2827C109.655 45.4624 109.115 46.4507 109.295 47.4391C109.475 48.4274 110.374 49.1461 111.273 48.9665C112.171 48.8766 112.711 47.8883 112.531 46.8101Z" fill="#292E4E"/>
<path d="M100.756 47.0797C100.577 46.0914 99.6779 45.3726 98.7791 45.5523C97.8803 45.732 97.341 46.7203 97.5208 47.7086C97.7005 48.6969 98.5993 49.4157 99.4981 49.236C100.397 49.0563 100.936 48.068 100.756 47.0797Z" fill="#292E4E"/>
<path d="M112.711 70.9789C112.89 70.9789 112.98 70.9789 113.16 70.8891C118.193 68.553 119.182 65.8576 119.272 65.678C119.542 65.1389 119.362 64.5998 118.823 64.3303C118.283 64.0607 117.654 64.2404 117.474 64.7795C117.474 64.7795 116.665 67.0257 112.261 69.0023C111.722 69.2718 111.542 69.8109 111.722 70.35C111.992 70.7094 112.351 70.9789 112.711 70.9789Z" fill="#178F57"/>
<path d="M120.171 57.3222C119.632 57.2324 119.182 57.5917 119.092 58.041C118.463 60.0176 117.115 65.8576 118.643 75.5611C120.89 89.4873 127.721 97.7532 127.721 97.7532L126.822 90.5655C126.822 90.4756 125.923 87.8701 125.923 87.8701C125.923 87.8701 123.676 74.6626 127.182 59.8379C127.361 59.209 126.912 58.5801 126.283 58.4902L120.171 57.3222Z" fill="#FFA800"/>
<path d="M100.487 33.9621C100.487 33.9621 105.161 35.8488 113.16 37.9153C121.16 39.9818 111.273 56.4237 115.048 61.9044C117.385 65.3185 122.687 63.7911 127.002 59.8379C129.698 57.412 131.945 56.4237 133.024 50.2243C133.923 44.8335 130.058 42.3178 129.429 39.4427C128.17 33.3331 127.631 28.9306 123.137 24.1688C114.868 15.3638 90.2405 12.7583 100.487 33.9621Z" fill="#A22A2B"/>
<path d="M99.5881 37.5559C99.5881 37.5559 90.5102 43.7553 92.3078 50.4938C94.1054 57.3222 100.397 63.4318 94.375 64.5998C88.353 65.6779 77.3876 56.244 82.0614 47.3492C84.578 42.4975 83.3197 32.9738 86.2858 27.7626C89.881 21.4734 98.7792 20.1257 102.644 25.9657C106.689 31.9854 99.5881 37.5559 99.5881 37.5559Z" fill="#A22A2B"/>
<path d="M107.767 72.5961C108.037 72.5961 108.217 72.5961 108.217 72.5961C108.756 72.5961 109.205 72.057 109.205 71.5179C109.205 70.9788 108.666 70.5296 108.127 70.5296C108.127 70.5296 104.172 70.6195 101.925 69.5413C99.7678 68.4631 96.5321 66.217 96.5321 66.217C96.0827 65.8576 95.4535 65.9474 95.094 66.4865C94.7345 66.9357 94.8244 67.5647 95.3637 67.9241C95.5434 68.0139 98.7791 70.3499 101.116 71.4281C103.273 72.5062 106.509 72.5961 107.767 72.5961Z" fill="#178F57"/>
<path d="M94.8243 61.9942C95.094 61.9044 95.2737 61.9942 95.4535 62.1739C96.5321 63.3419 100.577 68.553 98.4196 80.5026C95.9928 94.339 84.488 100.449 84.488 100.449L87.1845 93.2609C87.1845 93.2609 97.0714 84.2762 90.4202 63.881C90.2404 63.4318 90.3303 62.8927 90.8696 62.8029L94.8243 61.9942Z" fill="#FFA800"/>
<path d="M132.125 113.027C129.698 106.468 127.721 91.6436 127.721 84.7254C127.721 84.1863 127.271 83.6472 126.732 83.6472C126.193 83.6472 125.743 84.0964 125.654 84.6355C125.654 91.8233 129.339 109.253 130.327 112.039C131.316 114.914 132.485 114.015 132.125 113.027Z" fill="#178F57"/>
<path d="M83.8589 116.891C84.578 115.363 80.8929 105.031 88.1732 92.7218C90.0607 89.4873 92.2179 86.2528 92.3077 82.4793C92.3077 81.9402 91.8583 81.4011 91.3191 81.4011C90.7798 81.3113 90.2405 81.8503 90.2405 82.3894C90.0607 85.7137 88.2631 88.5888 86.3756 91.6436C78.1066 105.031 81.7018 114.015 81.9714 115.992C82.2411 117.609 83.4994 117.609 83.8589 116.891Z" fill="#178F57"/>
<path d="M52.7601 27.583C52.7601 26.415 48.3559 25.6962 48.0863 26.5048C47.7267 27.8525 52.7601 28.8408 52.7601 27.583Z" fill="#813900"/>
<path d="M41.6148 27.2235C41.3452 26.0555 36.8511 26.4149 36.8511 27.3134C36.7612 28.7509 41.9743 28.4814 41.6148 27.2235Z" fill="#813900"/>
<path d="M114.149 41.6889C113.969 40.3412 108.217 39.7123 108.037 40.7006C107.677 42.228 114.329 43.1264 114.149 41.6889Z" fill="#A22A2B"/>
<path d="M101.745 40.9702C101.116 39.8021 94.5547 41.4194 94.7345 42.4077C95.0041 43.9351 102.464 42.228 101.745 40.9702Z" fill="#A22A2B"/>
</svg>
