<svg width="64" height="64" viewBox="0 0 64 64" fill="none" xmlns="http://www.w3.org/2000/svg">
<path d="M32 64C49.6731 64 64 49.6731 64 32C64 14.3269 49.6731 0 32 0C14.3269 0 0 14.3269 0 32C0 49.6731 14.3269 64 32 64Z" fill="white"/>
<path d="M23.5751 46.525L25.0751 43.975C25.6001 43.1 26.5251 42.55 27.5501 42.55H36.4251C37.4501 42.55 38.4001 43.1 38.9001 43.975L40.4002 46.525C41.5252 48.45 40.1501 50.875 37.9251 50.875H26.0251C23.8251 50.875 22.4501 48.45 23.5751 46.525Z" fill="#8F8E8E"/>
<path d="M47.0751 29.025C47.0251 16.575 40.2001 13.45 32 13.45C30.5 13.45 29.025 13.55 27.65 13.8C22.1 14.8 17.725 18.2 17.025 26.525C16.95 27.35 16.925 28.225 16.925 29.15C16.925 40.05 23.775 43.975 32 43.975C40.225 43.975 47.0751 40.05 47.0751 29.15C47.0751 29.1 47.0751 29.05 47.0751 29.025Z" fill="#C6C3C1"/>
<path d="M32 32.975C29.65 32.975 27.75 31.075 27.75 28.725C27.75 26.375 29.65 24.475 32 24.475C34.35 24.475 36.25 26.375 36.25 28.725C36.25 31.075 34.35 32.975 32 32.975Z" fill="#C6C3C1"/>
<path d="M32 24.45C34.35 24.45 36.25 26.35 36.25 28.7C36.25 31.05 34.35 32.95 32 32.95C29.65 32.95 27.75 31.05 27.75 28.7C27.75 26.35 29.65 24.45 32 24.45ZM32 21.425C27.975 21.425 24.7 24.7 24.7 28.725C24.7 32.75 27.975 36 32 36C36.025 36 39.2999 32.725 39.2999 28.7C39.2999 24.675 36.025 21.425 32 21.425Z" fill="#8F8E8E"/>
<path d="M31.3202 27.9824C31.6424 27.6602 31.6503 27.1457 31.3379 26.8333C31.0254 26.5209 30.511 26.5288 30.1888 26.851C29.8666 27.1732 29.8587 27.6876 30.1711 28C30.4836 28.3125 30.998 28.3045 31.3202 27.9824Z" fill="white"/>
</svg>
