<svg width="64" height="64" viewBox="0 0 64 64" fill="none" xmlns="http://www.w3.org/2000/svg">
<path d="M32 64C49.6731 64 64 49.6731 64 32C64 14.3269 49.6731 0 32 0C14.3269 0 0 14.3269 0 32C0 49.6731 14.3269 64 32 64Z" fill="white"/>
<path d="M23.5747 46.525L25.0747 43.975C25.5997 43.1 26.5247 42.55 27.5497 42.55H36.4247C37.4497 42.55 38.3997 43.1 38.8997 43.975L40.3997 46.525C41.5247 48.45 40.1497 50.875 37.9247 50.875H26.0247C23.8247 50.875 22.4497 48.45 23.5747 46.525Z" fill="#8F8E8E"/>
<path d="M47.0748 29.025C47.0248 16.575 40.1998 13.45 31.9998 13.45C30.4998 13.45 29.0248 13.55 27.6498 13.8C22.0998 14.8 17.7248 18.2 17.0248 26.525C16.9498 27.35 16.9248 28.225 16.9248 29.15C16.9248 40.05 23.7748 43.975 31.9998 43.975C40.2248 43.975 47.0748 40.05 47.0748 29.15C47.0748 29.1 47.0748 29.05 47.0748 29.025Z" fill="#C6C3C1"/>
<path d="M31.9995 32.975C29.6495 32.975 27.7495 31.075 27.7495 28.725C27.7495 26.375 29.6495 24.475 31.9995 24.475C34.3495 24.475 36.2495 26.375 36.2495 28.725C36.2495 31.075 34.3495 32.975 31.9995 32.975Z" fill="#C6C3C1"/>
<path d="M31.9997 24.45C34.3497 24.45 36.2497 26.35 36.2497 28.7C36.2497 31.05 34.3497 32.95 31.9997 32.95C29.6497 32.95 27.7497 31.05 27.7497 28.7C27.7497 26.35 29.6497 24.45 31.9997 24.45ZM31.9997 21.425C27.9747 21.425 24.6997 24.7 24.6997 28.725C24.6997 32.75 27.9747 36 31.9997 36C36.0247 36 39.2997 32.725 39.2997 28.7C39.2997 24.675 36.0247 21.425 31.9997 21.425Z" fill="#8F8E8E"/>
<path d="M30.8417 28.6503C31.1638 28.3281 31.1718 27.8137 30.8593 27.5013C30.5469 27.1888 30.0325 27.1968 29.7103 27.5189C29.3881 27.8411 29.3802 28.3556 29.6926 28.668C30.0051 28.9804 30.5195 28.9725 30.8417 28.6503Z" fill="white"/>
<path d="M47.9252 51.525C47.3502 51.525 46.7752 51.3 46.3252 50.875L12.3252 16.875C11.4502 16 11.4502 14.575 12.3252 13.7C13.2002 12.825 14.6252 12.825 15.5002 13.7L49.5002 47.7C50.3752 48.575 50.3752 50 49.5002 50.875C49.0752 51.3 48.5002 51.525 47.9252 51.525Z" fill="#706F6F"/>
</svg>
