<svg width="64" height="64" viewBox="0 0 64 64" fill="none" xmlns="http://www.w3.org/2000/svg">
<path d="M32 64C49.6731 64 64 49.6731 64 32C64 14.3269 49.6731 0 32 0C14.3269 0 0 14.3269 0 32C0 49.6731 14.3269 64 32 64Z" fill="white"/>
<path d="M32.3749 43.45C26.1249 43.45 20.6499 39.175 19.2999 33.175C19.0999 32.325 19.6499 31.45 20.4999 31.275C21.3749 31.075 22.2249 31.625 22.3999 32.475C23.4249 37.1 27.7249 40.375 32.5999 40.25C37.3499 40.125 41.1749 36.975 41.8749 32.575C42.0249 31.7 42.8249 31.1 43.6999 31.25C44.5749 31.4 45.1749 32.2 45.0249 33.075C44.0749 39.025 38.9749 43.3 32.6749 43.45C32.5749 43.45 32.4749 43.45 32.3749 43.45Z" fill="#8F8E8E"/>
<path d="M32.1749 49.75C31.2999 49.75 30.575 49.025 30.575 48.15V41.825C30.575 40.95 31.2999 40.225 32.1749 40.225C33.0499 40.225 33.775 40.95 33.775 41.825V48.15C33.775 49.05 33.0499 49.75 32.1749 49.75Z" fill="#8F8E8E"/>
<path d="M25.1748 49.625C25.1748 48 26.4748 46.7 28.0998 46.7H36.2498C37.8748 46.7 39.1748 48 39.1748 49.625C39.1748 50.125 38.7748 50.525 38.2748 50.525H26.0998C25.5748 50.55 25.1748 50.125 25.1748 49.625Z" fill="#8F8E8E"/>
<path d="M24.325 29.6C24.325 33.925 27.825 37.425 32.15 37.425C36.475 37.425 39.9749 33.925 39.9749 29.6V27.025H24.325V29.6Z" fill="#8F8E8E"/>
<path d="M32.1749 13.7C27.8499 13.7 24.3499 17.2 24.3499 21.525V27.025H39.9999V21.525C39.9999 17.2 36.4999 13.7 32.1749 13.7Z" fill="#C6C3C1"/>
</svg>
