<svg width="64" height="64" viewBox="0 0 64 64" fill="none" xmlns="http://www.w3.org/2000/svg">
<path d="M32 64C49.6731 64 64 49.6731 64 32C64 14.3269 49.6731 0 32 0C14.3269 0 0 14.3269 0 32C0 49.6731 14.3269 64 32 64Z" fill="white"/>
<path d="M25.1499 49.7C25.1499 48.075 26.4499 46.775 28.0749 46.775H36.2499C37.8749 46.775 39.1749 48.075 39.1749 49.7C39.1749 50.2 38.7749 50.6 38.2749 50.6H26.0749C25.5499 50.6 25.1499 50.2 25.1499 49.7Z" fill="#2475EA"/>
<path d="M24.2998 29.6C24.2998 33.95 27.8248 37.45 32.1498 37.45C36.4998 37.45 39.9998 33.925 39.9998 29.6V27.025H24.2998V29.6Z" fill="#F251D0"/>
<path d="M32.1747 13.65C27.8247 13.65 24.3247 17.175 24.3247 21.5V27H40.0247V21.5C40.0247 17.175 36.4997 13.65 32.1747 13.65Z" fill="#FFBC00"/>
<path d="M32.3749 43.45C26.1249 43.45 20.6499 39.175 19.2999 33.175C19.0999 32.325 19.6499 31.45 20.4999 31.275C21.3749 31.075 22.2249 31.625 22.3999 32.475C23.4249 37.1 27.7249 40.375 32.5999 40.25C37.3499 40.125 41.1749 36.975 41.8749 32.575C42.0249 31.7 42.8249 31.1 43.6999 31.25C44.5749 31.4 45.1749 32.2 45.0249 33.075C44.0749 39.025 38.9749 43.3 32.6749 43.45C32.5749 43.45 32.4749 43.45 32.3749 43.45Z" fill="#2475EA"/>
<path d="M32.1749 49.75C31.2999 49.75 30.575 49.025 30.575 48.15V41.825C30.575 40.95 31.2999 40.225 32.1749 40.225C33.0499 40.225 33.775 40.95 33.775 41.825V48.15C33.775 49.05 33.0499 49.75 32.1749 49.75Z" fill="#2475EA"/>
<path d="M47.9249 51.525C47.3499 51.525 46.7749 51.3 46.3249 50.875L12.325 16.875C11.45 16 11.45 14.575 12.325 13.7C13.2 12.825 14.625 12.825 15.5 13.7L49.4999 47.7C50.3749 48.575 50.3749 50 49.4999 50.875C49.0749 51.3 48.4999 51.525 47.9249 51.525Z" fill="#FF3333"/>
</svg>
