<svg width="35" height="33" viewBox="0 0 35 33" fill="none" xmlns="http://www.w3.org/2000/svg">
<path d="M24.7021 32.5929C26.926 33.2903 28.7416 31.9647 28.7668 29.6402L28.8484 22.183C28.8547 21.8375 28.9615 21.4983 29.1626 21.2218L33.4785 15.1405C34.823 13.2495 34.1193 11.1009 31.9268 10.3596L24.8591 7.9786C24.5325 7.86552 24.2435 7.6582 24.0361 7.38178L19.5882 1.39469C18.2061 -0.464895 15.9445 -0.464895 14.5623 1.39469L10.1144 7.38178C9.90711 7.6582 9.62441 7.86552 9.29144 7.9786L2.23634 10.3596C0.0375167 11.1009 -0.659823 13.2495 0.684603 15.1405L5.00058 21.2218C5.20162 21.5045 5.30842 21.8375 5.3147 22.183L5.39638 29.6402C5.4215 31.9647 7.24339 33.2903 9.46106 32.5929L16.579 30.3627C16.9119 30.2622 17.2638 30.2622 17.5904 30.3627L24.7021 32.5929Z" fill="#FFD000"/>
</svg>
