<svg width="30" height="28" viewBox="0 0 30 28" fill="none" xmlns="http://www.w3.org/2000/svg">
<path d="M21.1008 27.8412C23.0005 28.4369 24.5514 27.3045 24.5729 25.319L24.6426 18.949C24.648 18.6538 24.7392 18.364 24.9109 18.1279L28.5977 12.9332C29.7461 11.3179 29.1451 9.48253 27.2722 8.84929L21.2349 6.8154C20.9559 6.71881 20.709 6.54171 20.5319 6.30559L16.7325 1.19135C15.5518 -0.397118 13.6199 -0.397118 12.4393 1.19135L8.63984 6.30559C8.46275 6.54171 8.22126 6.71881 7.93684 6.8154L1.91031 8.84929C0.0320472 9.48253 -0.563627 11.3179 0.584795 12.9332L4.27155 18.1279C4.44327 18.3694 4.5345 18.6538 4.53987 18.949L4.60964 25.319C4.6311 27.3045 6.18737 28.4369 8.08173 27.8412L14.1619 25.9361C14.4464 25.8502 14.7469 25.8502 15.0259 25.9361L21.1008 27.8412Z" fill="#344966"/>
</svg>
