<svg width="9" height="9" viewBox="0 0 9 9" fill="none" xmlns="http://www.w3.org/2000/svg">
<path d="M6.78045 7.2412L6.78046 7.24117L6.80042 5.41868L6.80044 5.41687C6.80283 5.28539 6.84325 5.15246 6.92401 5.0408L7.9781 3.55557L7.97822 3.5554C8.1037 3.37889 8.11964 3.21357 8.07878 3.08805C8.03789 2.96242 7.92751 2.83798 7.72286 2.76873C7.72279 2.76871 7.72273 2.76869 7.72266 2.76866L5.99562 2.18684L5.99366 2.18618L5.99366 2.18617C5.86808 2.1427 5.75576 2.06268 5.6743 1.95407L5.67362 1.95316L4.58661 0.489984C4.5866 0.48997 4.58659 0.489956 4.58658 0.489942C4.45758 0.316401 4.30519 0.25 4.17311 0.25C4.04102 0.25 3.88864 0.316401 3.75964 0.489942C3.75963 0.489956 3.75962 0.48997 3.75961 0.489984L2.67259 1.95316L2.67191 1.95407C2.59133 2.06151 2.48072 2.14265 2.35117 2.18665L2.35072 2.1868L0.626493 2.76871L0.626419 2.76873C0.42088 2.83803 0.310681 2.96249 0.269989 3.08786C0.229298 3.21323 0.245407 3.37865 0.371066 3.5554L0.371187 3.55556L1.42585 5.04162C1.42588 5.04166 1.42591 5.04169 1.42593 5.04173L1.42599 5.04181L1.22212 5.1865L6.78045 7.2412ZM6.78045 7.2412C6.7781 7.45935 6.69402 7.60251 6.58818 7.67951M6.78045 7.2412L6.58818 7.67951M6.58818 7.67951C6.48246 7.75643 6.32055 7.79242 6.11186 7.72699M6.58818 7.67951L6.11186 7.72699M6.11186 7.72699C6.11186 7.72699 6.11186 7.72698 6.11185 7.72698L6.11186 7.72699Z" stroke="#E8E6E7" stroke-width="0.5"/>
</svg>
