<svg width="35" height="35" viewBox="0 0 35 35" fill="none" xmlns="http://www.w3.org/2000/svg">
<path fill-rule="evenodd" clip-rule="evenodd" d="M33.8029 18.9055C33.7901 18.1752 34.5875 17.1932 34.2813 15.352C33.9751 13.5109 31.8892 12.2957 29.9691 12.1852C27.7109 12.0502 24.3937 12.3632 23.1179 12.4123C22.244 12.4491 20.8597 12.0931 21.032 10.7491C21.3254 8.49669 21.3599 7.51317 21.4683 5.21168C21.5704 3.05136 21.3171 0.686481 19.3524 0.12185C17.3876 -0.44278 16.5548 1.07802 16.1784 2.15818C15.9169 2.90693 15.6696 5.55574 15.1203 7.24679C14.3548 9.60351 12.8476 12.9524 11.2146 14.7813C10.347 15.7448 9.31998 16.8618 8.15899 16.8618H3.04297V30.1122H8.42691C9.44118 30.1122 10.398 30.4866 11.1763 31.1065C15.5587 34.5618 24.0684 34.0033 27.0666 33.7332C30.6899 33.408 32.4441 32.1989 33.5158 29.0443C34.4089 26.4237 34.6258 24.5948 34.6322 22.2565C34.6385 20.4705 33.8093 19.6359 33.8029 18.9055Z" fill="#FFD000"/>
<path d="M6.14306 34.0411H3.15764C1.42253 34.0411 0 32.6725 0 31.0031V15.5494C0 13.8801 1.42253 12.5115 3.15764 12.5115H6.14306C7.87817 12.5115 9.3007 13.8801 9.3007 15.5494V30.997C9.3007 32.6725 7.87817 34.0411 6.14306 34.0411Z" fill="#FFD000"/>
</svg>
